<svg version="1.1" xmlns="http://www.w3.org/2000/svg" xmlns:xlink="http://www.w3.org/1999/xlink" width="115.60976" height="38.20812" viewBox="0,0,115.60976,38.20812"><g transform="translate(-262.19513,-160.90479)"><g data-paper-data="{&quot;isPaintingLayer&quot;:true}" stroke-miterlimit="10" stroke-dasharray="" stroke-dashoffset="0" style="mix-blend-mode: normal"><path d="M279.59677,199.11292v-38.11469h80.80645v38.11469z" fill="#727272" fill-rule="nonzero" stroke="none" stroke-width="NaN" stroke-linecap="butt" stroke-linejoin="miter"/><path d="M300.38557,180.00003c0,10.54601 -8.54924,19.09523 -19.09522,19.09523c-10.54601,0 -19.09522,-8.54923 -19.09522,-19.09522c0,-10.54601 8.54922,-19.09522 19.09522,-19.09522c10.54601,0 19.09522,8.54922 19.09522,19.09522" fill="#727272" fill-rule="evenodd" stroke="none" stroke-width="0.07853" stroke-linecap="round" stroke-linejoin="round"/><path d="M377.80489,180.00001c0,10.54601 -8.54924,19.09523 -19.09522,19.09523c-10.54601,0 -19.09522,-8.54923 -19.09522,-19.09522c0,-10.54601 8.54922,-19.09522 19.09522,-19.09522c10.54601,0 19.09522,8.54922 19.09522,19.09522" fill="#727272" fill-rule="evenodd" stroke="none" stroke-width="0.07853" stroke-linecap="round" stroke-linejoin="round"/><path d="M377.80489,180.00001c0,10.54601 -8.54924,19.09523 -19.09522,19.09523c-10.54601,0 -19.09522,-8.54923 -19.09522,-19.09522c0,-10.54601 8.54922,-19.09522 19.09522,-19.09522c10.54601,0 19.09522,8.54922 19.09522,19.09522" fill="#727272" fill-rule="evenodd" stroke="none" stroke-width="0.07853" stroke-linecap="round" stroke-linejoin="round"/><text transform="translate(304.03107,185.26672) scale(0.36738,0.36981)" font-size="40" xml:space="preserve" fill="#ffffff" fill-rule="nonzero" stroke="#ffffff" stroke-width="1" stroke-linecap="butt" stroke-linejoin="miter" stroke-miterlimit="10" stroke-dasharray="" stroke-dashoffset="0" font-family="&quot;OpenSans-Light&quot;, Sans Serif" font-weight="normal" text-anchor="start" style="mix-blend-mode: normal"><tspan x="0" dy="0">TEXT</tspan></text></g></g></svg>