<svg version="1.1" xmlns="http://www.w3.org/2000/svg" xmlns:xlink="http://www.w3.org/1999/xlink" width="47.04546" height="47.04546" viewBox="0,0,47.04546,47.04546"><defs><radialGradient cx="320.09617" cy="180.00001" r="23.52273" gradientUnits="userSpaceOnUse" id="color-1"><stop offset="0" stop-color="#000000" stop-opacity="0.68235"/><stop offset="1" stop-color="#000000" stop-opacity="0"/></radialGradient><linearGradient x1="320.00003" y1="162.6087" x2="320.00003" y2="197.39133" gradientUnits="userSpaceOnUse" id="color-2"><stop offset="0" stop-color="#dedede" stop-opacity="0.20784"/><stop offset="1" stop-color="#dedede" stop-opacity="0"/></linearGradient><linearGradient x1="320.09618" y1="162.6087" x2="320.09618" y2="197.39133" gradientUnits="userSpaceOnUse" id="color-3"><stop offset="0" stop-color="#292929" stop-opacity="0"/><stop offset="1" stop-color="#292929" stop-opacity="0.25098"/></linearGradient></defs><g transform="translate(-296.57343,-156.47727)"><g stroke="none" stroke-miterlimit="10"><path d="M296.57344,180.00001c0,-12.99124 10.53148,-23.52273 23.52273,-23.52273c12.99124,0 23.52273,10.53148 23.52273,23.52273c0,12.99124 -10.53148,23.52273 -23.52273,23.52273c-12.99124,0 -23.52273,-10.53148 -23.52273,-23.52273z" fill="url(#color-1)" stroke-width="0"/><path d="M302.60872,197.39131v-34.78261h34.78261v34.78261z" fill="#e2d237" stroke-width="0"/><g stroke-width="0"><path d="M302.60873,197.39133v-34.78261h34.78261l-2.48896,2.57975l-29.14148,0.24634l-0.30739,29.42558z" fill="url(#color-2)"/><path d="M337.48749,162.6087v34.78261h-34.78261l2.88669,-2.57975l28.74375,-0.24634l0.59148,-29.36876z" fill="url(#color-3)"/></g><path d="M318.49112,178.4993c0,0.75 -0.75,0.75 -0.75,0.75h-0.9375c-0.20249,0 -0.40443,-0.00014 -0.60603,0.00025c-0.08865,0.31539 -0.37837,0.54663 -0.7221,0.54663c-0.33619,0 -0.62071,-0.22119 -0.71597,-0.52598c-0.34047,0.01125 -0.68128,0.02852 -1.02338,0.05502c0,0 -0.74779,0.05752 -0.80532,-0.69027c-0.05752,-0.74779 0.69027,-0.80531 0.69027,-0.80531c1.06403,-0.08129 2.116,-0.08033 3.18252,-0.08033h0.9375c0,0 0.75,0 0.75,0.75z" fill="#000000" stroke-width="0.5"/><path d="M326.38175,178.34305c0,0.75 -0.75,0.75 -0.75,0.75c-0.37936,0 -0.79696,0 -1.23096,0c-0.08857,0.31552 -0.37835,0.54688 -0.72217,0.54688c-0.34382,0 -0.6336,-0.23136 -0.72217,-0.54687c-0.62791,0 -1.24114,0 -1.77783,0c0,0 -0.75,0 -0.75,-0.75c0,-0.75 0.75,-0.75 0.75,-0.75c1.32813,0 2.65625,0 3.98438,0h0.46875c0,0 0.75,0 0.75,0.75z" fill="#000000" stroke-width="0.5"/><path d="M332.33847,165.8508c-0.63274,-0.40266 -0.23009,-1.0354 -0.23009,-1.0354c1.4961,-2.28101 4.51399,-1.48297 3.31178,0.33305c0.06037,0.23872 -0.0144,0.46303 -0.0144,0.46303l-0.94589,1.21596c-0.01046,-0.00046 -0.02087,-0.00097 -0.03125,-0.0015v0.03275c-0.00111,1.4424 -0.25209,2.78508 -0.39435,4.21525c0,0 -0.07462,0.74628 -0.8209,0.67165c-0.74628,-0.07463 -0.67165,-0.82091 -0.67165,-0.82091c0.1386,-1.37902 0.38804,-2.67618 0.3869,-4.06599v-0.15625c0,0 0,-0.11995 0.04797,-0.2639c-0.2599,-0.15609 -0.44486,-0.34572 -0.56383,-0.54454c-0.0244,-0.01283 -0.04917,-0.02719 -0.0743,-0.04318z" fill="#000000" stroke-width="0.5"/><path d="M306.09259,163.87095c0.195,-0.10602 0.39853,-0.10602 0.39853,-0.10602l0.84051,0.03163c2.25974,0.94782 1.63705,2.08759 0.5041,2.61644c0.28825,1.82061 -0.28364,3.58719 -0.28212,5.44567c0,0 0,0.75 -0.75,0.75c-0.75,0 -0.75,-0.75 -0.75,-0.75c0.00131,-1.69896 0.61507,-3.47905 0.32392,-5.15611c-0.94695,-0.07453 -1.59914,-0.77086 -0.66671,-2.52554c0,0 0.14092,-0.21138 0.38175,-0.30608z" fill="#000000" stroke-width="0.5"/><path d="M328.83018,182.36326c0.74541,-0.08283 0.82824,0.66259 0.82824,0.66259l0.0808,0.83939c-0.38948,2.61829 -2.09808,2.10281 -4.34184,2.10281c-3.73967,0 -7.50338,0.1337 -11.23,-0.15851c-1.21022,-0.0949 -3.72388,0.19115 -4.70803,-0.62568c-0.54649,-0.45358 -0.20081,-1.81462 -0.11426,-2.35474c0,0 0.1233,-0.7398 0.86309,-0.6165c0.7398,0.1233 0.6165,0.86309 0.6165,0.86309c-0.34356,1.96768 1.68734,1.09932 3.45895,1.23834c3.2245,0.25302 6.47152,0.154 9.7075,0.154c1.16731,0 4.38602,0.76034 4.25191,-0.70969l-0.07545,-0.56687c0,0 -0.08282,-0.74541 0.66259,-0.82824z" fill="#000000" stroke-width="0.5"/></g></g></svg>