<svg version="1.1" xmlns="http://www.w3.org/2000/svg" xmlns:xlink="http://www.w3.org/1999/xlink" width="263.69286" height="353.14833" viewBox="0,0,263.69286,353.14833"><defs><radialGradient cx="385.72534" cy="93.97332" r="33.94599" gradientUnits="userSpaceOnUse" id="color-1"><stop offset="0" stop-color="#000000"/><stop offset="1" stop-color="#000000" stop-opacity="0"/></radialGradient><radialGradient cx="280.32398" cy="80.46994" r="33.94599" gradientUnits="userSpaceOnUse" id="color-2"><stop offset="0" stop-color="#000000"/><stop offset="1" stop-color="#000000" stop-opacity="0"/></radialGradient><radialGradient cx="277.69833" cy="257.13911" r="33.94598" gradientUnits="userSpaceOnUse" id="color-3"><stop offset="0" stop-color="#000000"/><stop offset="1" stop-color="#000000" stop-opacity="0"/></radialGradient><radialGradient cx="374.09743" cy="251.1376" r="33.94599" gradientUnits="userSpaceOnUse" id="color-4"><stop offset="0" stop-color="#000000"/><stop offset="1" stop-color="#000000" stop-opacity="0"/></radialGradient><radialGradient cx="248.8161" cy="108.60197" r="33.94598" gradientUnits="userSpaceOnUse" id="color-5"><stop offset="0" stop-color="#000000"/><stop offset="1" stop-color="#000000" stop-opacity="0"/></radialGradient><radialGradient cx="320.55836" cy="8.90239" r="34.604" gradientUnits="userSpaceOnUse" id="color-6"><stop offset="0" stop-color="#d4d4d4"/><stop offset="1" stop-color="#6a6a6a"/></radialGradient><linearGradient x1="253.18568" y1="100.73484" x2="253.18568" y2="247.86189" gradientUnits="userSpaceOnUse" id="color-7"><stop offset="0" stop-color="#000000"/><stop offset="1" stop-color="#101010"/></linearGradient><linearGradient x1="393.64022" y1="100.73484" x2="393.64022" y2="247.86189" gradientUnits="userSpaceOnUse" id="color-8"><stop offset="0" stop-color="#000000"/><stop offset="1" stop-color="#101010"/></linearGradient><radialGradient cx="290.29965" cy="84.60013" r="43.33724" gradientUnits="userSpaceOnUse" id="color-9"><stop offset="0" stop-color="#fefeff"/><stop offset="1" stop-color="#3d3d3d"/></radialGradient><radialGradient cx="354.81676" cy="84.60013" r="43.33724" gradientUnits="userSpaceOnUse" id="color-10"><stop offset="0" stop-color="#fefeff"/><stop offset="1" stop-color="#3d3d3d"/></radialGradient><radialGradient cx="256.56487" cy="230.08616" r="47.3442" gradientUnits="userSpaceOnUse" id="color-11"><stop offset="0" stop-color="#838383"/><stop offset="1" stop-color="#2d2d2d"/></radialGradient><radialGradient cx="391.85982" cy="230.08616" r="47.3442" gradientUnits="userSpaceOnUse" id="color-12"><stop offset="0" stop-color="#838383"/><stop offset="1" stop-color="#2d2d2d"/></radialGradient><radialGradient cx="226.68557" cy="203.50069" r="33.94599" gradientUnits="userSpaceOnUse" id="color-13"><stop offset="0" stop-color="#000000"/><stop offset="1" stop-color="#000000" stop-opacity="0"/></radialGradient><radialGradient cx="226.68557" cy="203.5007" r="33.94599" gradientUnits="userSpaceOnUse" id="color-14"><stop offset="0" stop-color="#000000"/><stop offset="1" stop-color="#000000" stop-opacity="0"/></radialGradient><radialGradient cx="226.68557" cy="203.5007" r="33.94599" gradientUnits="userSpaceOnUse" id="color-15"><stop offset="0" stop-color="#000000"/><stop offset="1" stop-color="#000000" stop-opacity="0"/></radialGradient><radialGradient cx="287.07567" cy="163.74076" r="33.94599" gradientUnits="userSpaceOnUse" id="color-16"><stop offset="0" stop-color="#000000"/><stop offset="1" stop-color="#000000" stop-opacity="0"/></radialGradient><radialGradient cx="375.22271" cy="146.11135" r="33.94598" gradientUnits="userSpaceOnUse" id="color-17"><stop offset="0" stop-color="#000000"/><stop offset="1" stop-color="#000000" stop-opacity="0"/></radialGradient><radialGradient cx="420.98415" cy="213.62823" r="33.94599" gradientUnits="userSpaceOnUse" id="color-18"><stop offset="0" stop-color="#000000"/><stop offset="1" stop-color="#000000" stop-opacity="0"/></radialGradient><radialGradient cx="353.84236" cy="211.75276" r="33.94599" gradientUnits="userSpaceOnUse" id="color-19"><stop offset="0" stop-color="#000000"/><stop offset="1" stop-color="#000000" stop-opacity="0"/></radialGradient><radialGradient cx="360.21896" cy="11.45269" r="33.94599" gradientUnits="userSpaceOnUse" id="color-20"><stop offset="0" stop-color="#000000"/><stop offset="1" stop-color="#000000" stop-opacity="0"/></radialGradient><radialGradient cx="308.27304" cy="-28.11725" r="33.94599" gradientUnits="userSpaceOnUse" id="color-21"><stop offset="0" stop-color="#000000"/><stop offset="1" stop-color="#000000" stop-opacity="0"/></radialGradient></defs><g transform="translate(-192.36592,62.06324)"><g stroke-miterlimit="10"><g fill="url(#color-1)" stroke="none" stroke-width="0" stroke-linecap="butt"><path d="M351.77935,93.97332c0,-18.74785 15.19814,-33.94599 33.94599,-33.94599c18.74785,0 33.94599,15.19814 33.94599,33.94599c0,18.74785 -15.19814,33.94599 -33.94599,33.94599c-18.74785,0 -33.94599,-15.19814 -33.94599,-33.94599z"/><path d="M351.77935,93.97332c0,-18.74785 15.19813,-33.94599 33.94598,-33.94599c18.74785,0 33.94599,15.19814 33.94599,33.94599c0,18.74785 -15.19814,33.94599 -33.94599,33.94599c-18.74785,0 -33.94598,-15.19814 -33.94598,-33.94599z"/><path d="M351.77935,93.97332c0,-18.74785 15.19813,-33.94599 33.94598,-33.94599c18.74785,0 33.94599,15.19814 33.94599,33.94599c0,18.74785 -15.19814,33.94599 -33.94599,33.94599c-18.74785,0 -33.94598,-15.19814 -33.94598,-33.94599z"/></g><g fill="url(#color-2)" stroke="none" stroke-width="0" stroke-linecap="butt"><path d="M246.37799,80.46994c0,-18.74785 15.19814,-33.94598 33.94599,-33.94598c18.74785,0 33.94599,15.19814 33.94599,33.94599c0,18.74785 -15.19814,33.94599 -33.94599,33.94599c-18.74785,0 -33.94599,-15.19814 -33.94599,-33.94599z"/><path d="M246.378,80.46994c0,-18.74785 15.19813,-33.94599 33.94598,-33.94599c18.74785,0 33.94599,15.19814 33.94599,33.94599c0,18.74785 -15.19814,33.94599 -33.94599,33.94599c-18.74785,0 -33.94598,-15.19814 -33.94598,-33.94599z"/><path d="M246.378,80.46994c0,-18.74785 15.19813,-33.94599 33.94598,-33.94599c18.74785,0 33.94599,15.19814 33.94599,33.94599c0,18.74785 -15.19814,33.94599 -33.94599,33.94599c-18.74785,0 -33.94598,-15.19814 -33.94598,-33.94599z"/></g><g fill="url(#color-3)" stroke="none" stroke-width="0" stroke-linecap="butt"><path d="M243.75234,257.13911c0,-18.74785 15.19814,-33.94598 33.94599,-33.94598c18.74785,0 33.94598,15.19813 33.94598,33.94598c0,18.74785 -15.19813,33.94599 -33.94598,33.94599c-18.74785,0 -33.94599,-15.19814 -33.94599,-33.94599z"/><path d="M243.75234,257.13911c0,-18.74785 15.19814,-33.94599 33.94598,-33.94599c18.74785,0 33.94598,15.19814 33.94598,33.94599c0,18.74785 -15.19813,33.94599 -33.94598,33.94599c-18.74785,0 -33.94598,-15.19814 -33.94598,-33.94599z"/><path d="M243.75234,257.13911c0,-18.74785 15.19814,-33.94599 33.94598,-33.94599c18.74785,0 33.94598,15.19814 33.94598,33.94599c0,18.74785 -15.19813,33.94599 -33.94598,33.94599c-18.74785,0 -33.94598,-15.19814 -33.94598,-33.94599z"/></g><g fill="url(#color-4)" stroke="none" stroke-width="0" stroke-linecap="butt"><path d="M340.15144,251.1376c0,-18.74785 15.19814,-33.94598 33.94599,-33.94598c18.74785,0 33.94599,15.19814 33.94599,33.94598c0,18.74785 -15.19814,33.94599 -33.94599,33.94599c-18.74785,0 -33.94599,-15.19813 -33.94599,-33.94599z"/><path d="M340.15144,251.1376c0,-18.74785 15.19813,-33.94599 33.94599,-33.94599c18.74785,0 33.94599,15.19814 33.94599,33.94599c0,18.74785 -15.19814,33.94599 -33.94599,33.94599c-18.74785,0 -33.94599,-15.19813 -33.94599,-33.94599z"/><path d="M340.15144,251.1376c0,-18.74785 15.19813,-33.94599 33.94599,-33.94599c18.74785,0 33.94599,15.19814 33.94599,33.94599c0,18.74785 -15.19814,33.94599 -33.94599,33.94599c-18.74785,0 -33.94599,-15.19813 -33.94599,-33.94599z"/></g><g fill="url(#color-5)" stroke="none" stroke-width="0" stroke-linecap="butt"><path d="M214.87011,108.60197c0,-18.74785 15.19814,-33.94598 33.94599,-33.94598c18.74785,0 33.94598,15.19813 33.94598,33.94598c0,18.74785 -15.19813,33.94599 -33.94598,33.94599c-18.74785,0 -33.94599,-15.19814 -33.94599,-33.94599z"/><path d="M214.87012,108.60197c0,-18.74785 15.19813,-33.94599 33.94599,-33.94599c18.74785,0 33.94598,15.19814 33.94598,33.94599c0,18.74785 -15.19813,33.94599 -33.94598,33.94599c-18.74785,0 -33.94599,-15.19814 -33.94599,-33.94599z"/><path d="M214.87012,108.60197c0,-18.74785 15.19813,-33.94599 33.94599,-33.94599c18.74785,0 33.94598,15.19814 33.94598,33.94599c0,18.74785 -15.19813,33.94599 -33.94598,33.94599c-18.74785,0 -33.94599,-15.19814 -33.94599,-33.94599z"/></g><path d="M282.57104,69.95864l-22.4459,-16.16733l5.17982,-8.3191l-8.47608,-16.79519l29.5093,-1.09875z" fill="#000000" stroke="#000000" stroke-width="0" stroke-linecap="round"/><path d="M354.4607,27.57827l29.5093,1.09875l-8.47607,16.79518l5.17982,8.31911l-22.4459,16.16733z" fill="#000000" stroke="#000000" stroke-width="0" stroke-linecap="round"/><path d="M275.04394,50.25237l4.34854,-19.36107l9.01396,-12.70896l14.97832,-9.85758l16.82444,-3.23767l19.04653,4.20056l13.67843,9.83615l9.56497,15.23611l2.87535,15.89246l-2.83187,15.77632l-8.04027,13.61683l-14.30369,11.11899l-19.98943,4.65314l-17.82805,-3.65495l-13.18343,-8.67435l-11.43049,-17.35399z" fill="#000000" stroke="none" stroke-width="0" stroke-linecap="butt"/><g stroke="none" stroke-width="0" stroke-linecap="butt"><path d="M372.91572,24.43398l-24.55663,11.23476l-27.80073,2.2861l-25.9865,-1.59447l-26.37086,-11.92639l0.71609,-8.78143l17.89268,-7.17426l33.74858,-2.74336l32.25454,3.4621l19.47176,7.27148z" fill="#000000"/><path d="M355.16237,10.61358l-12.56674,6.66864l-22.03726,2.26755l-21.2663,-1.84323l-13.33771,-7.09296l0.47329,-5.80382c0,0 5.15455,-6.55475 34.13072,-6.55475c23.4743,0 34.18692,7.09403 34.18692,7.09403z" fill="url(#color-6)"/><path d="M355.16236,4.57235l-13.34844,6.70591l-21.25556,2.23029l-19.88629,-1.76638l-14.71771,-7.16982l0.47328,-51.54459l12.72515,-4.91627l21.40557,-1.63848l18.64863,1.70772l15.5383,5.38631z" fill="#000000"/></g><path d="M385.43824,89.81752l-22.05985,180.60992h-76.20677l-33.42402,-180.60992z" fill="#000000" stroke="none" stroke-width="0" stroke-linecap="butt"/><g><g stroke-width="0" stroke-linecap="round"><g stroke="#000000"><path d="M259.15001,100.73484l-20.2186,33.11733l-13.83419,29.7836l-15.98128,19.53458l13.58318,30.42355l61.30225,34.268l13.25406,-140.47306z" fill="url(#color-7)"/><path d="M387.67589,100.73484l20.2186,33.11733l13.83419,29.7836l15.98128,19.53458l-13.58318,30.42354l-61.30225,34.26799l-13.25406,-140.47306z" fill="url(#color-8)"/></g><path d="M309.99511,101.90607l1.52061,-20.27474l-9.12363,0.25343l-40.54947,-32.18614l-6.33585,13.43201l-22.55564,8.10989l15.96635,16.98009l-7.34959,18.5007l19.261,0.50687l-0.76031,16.72666l33.70675,-12.67171l16.21979,22.55564l2.28091,-19.76787l7.34959,-3.54808z" fill="url(#color-9)" stroke="#ff0000"/><path d="M335.1213,101.90607l-1.52061,-20.27474l9.12363,0.25343l40.54947,-32.18614l6.33585,13.43201l22.55564,8.10989l-15.96635,16.98009l7.34959,18.5007l-19.261,0.50687l0.76031,16.72666l-33.70675,-12.67171l-16.21979,22.55564l-2.28091,-19.76787l-7.34959,-3.54808z" fill="url(#color-10)" stroke="#ff0000"/><g stroke="#ff0000"><path d="M280.90057,245.19152l-2.00832,-22.12056l-9.78559,1.91417l-49.48348,-27.38848l-4.41116,15.61331l-22.8461,12.79594l20.25879,15.42501l-4.5918,21.25742l20.84587,-2.91833l2.18939,18.16057l34.04144,-19.7173l21.53477,21.38736l-1.09789,-21.71114l7.28135,-5.14522z" fill="url(#color-11)"/><path d="M367.52413,245.19152l2.00833,-22.12056l9.78559,1.91417l49.48347,-27.38848l4.41117,15.61331l22.8461,12.79594l-20.25878,15.425l4.5918,21.25741l-20.84587,-2.91832l-2.18939,18.16057l-34.04144,-19.7173l-21.53476,21.38736l1.09789,-21.71114l-7.28136,-5.14522z" fill="url(#color-12)"/></g></g><g fill="#000000" stroke="none" stroke-width="0" stroke-linecap="butt"><path d="M288.73679,103.0243c0,-2.36546 1.91759,-4.28305 4.28305,-4.28305c2.36546,0 4.28305,1.91759 4.28305,4.28305c0,2.36546 -1.91759,4.28305 -4.28305,4.28305c-2.36546,0 -4.28305,-1.91759 -4.28305,-4.28305z"/><path d="M288.73679,89.1413c0,-2.36547 1.91759,-4.28305 4.28305,-4.28305c2.36546,0 4.28305,1.91758 4.28305,4.28305c0,2.36547 -1.91759,4.28306 -4.28305,4.28306c-2.36546,0 -4.28305,-1.91759 -4.28305,-4.28306z"/></g><g fill="#000000" stroke="none" stroke-width="0" stroke-linecap="butt"><path d="M349.43797,103.0243c0,-2.36547 1.91759,-4.28305 4.28305,-4.28305c2.36546,0 4.28305,1.91758 4.28305,4.28305c0,2.36547 -1.91759,4.28306 -4.28305,4.28306c-2.36546,0 -4.28305,-1.91759 -4.28305,-4.28306z"/><path d="M349.43797,89.1413c0,-2.36547 1.91759,-4.28305 4.28305,-4.28305c2.36546,0 4.28305,1.91759 4.28305,4.28305c0,2.36547 -1.91759,4.28306 -4.28305,4.28306c-2.36546,0 -4.28305,-1.91759 -4.28305,-4.28306z"/></g><g fill="none" stroke="#000000" stroke-width="2.5" stroke-linecap="round"><path d="M294.34907,89.1413l58.78119,14.03069"/><path d="M292.28139,103.31968l61.29194,-14.62145"/></g></g><path d="M302.33064,56.57007c0,-0.54057 0.43822,-0.97879 0.97879,-0.97879c0.54057,0 0.97879,0.43822 0.97879,0.97879c0,0.54057 -0.43822,0.97879 -0.97879,0.97879c-0.54057,0 -0.97879,-0.43822 -0.97879,-0.97879z" fill="#ffffff" stroke="none" stroke-width="0" stroke-linecap="butt"/><g stroke="none" stroke-width="0" stroke-linecap="butt"><path d="M192.73959,203.50069c0,-18.74785 15.19814,-33.94599 33.94599,-33.94599c18.74785,0 33.94599,15.19814 33.94599,33.94599c0,18.74785 -15.19814,33.94599 -33.94599,33.94599c-18.74785,0 -33.94599,-15.19814 -33.94599,-33.94599z" fill="url(#color-13)"/><path d="M192.73959,203.5007c0,-18.74785 15.19813,-33.94599 33.94598,-33.94599c18.74785,0 33.94599,15.19814 33.94599,33.94599c0,18.74785 -15.19814,33.94599 -33.94599,33.94599c-18.74785,0 -33.94598,-15.19814 -33.94598,-33.94599z" fill="url(#color-14)"/><path d="M192.73959,203.5007c0,-18.74785 15.19813,-33.94599 33.94598,-33.94599c18.74785,0 33.94599,15.19814 33.94599,33.94599c0,18.74785 -15.19814,33.94599 -33.94599,33.94599c-18.74785,0 -33.94598,-15.19814 -33.94598,-33.94599z" fill="url(#color-15)"/></g><g fill="url(#color-16)" stroke="none" stroke-width="0" stroke-linecap="butt"><path d="M253.12969,163.74076c0,-18.74785 15.19813,-33.94599 33.94598,-33.94599c18.74785,0 33.94599,15.19814 33.94599,33.94599c0,18.74785 -15.19813,33.94599 -33.94599,33.94599c-18.74785,0 -33.94598,-15.19814 -33.94598,-33.94599z"/><path d="M253.12969,163.74076c0,-18.74785 15.19813,-33.94599 33.94598,-33.94599c18.74785,0 33.94599,15.19814 33.94599,33.94599c0,18.74785 -15.19813,33.94599 -33.94599,33.94599c-18.74785,0 -33.94598,-15.19814 -33.94598,-33.94599z"/><path d="M253.12969,163.74076c0,-18.74785 15.19813,-33.94599 33.94598,-33.94599c18.74785,0 33.94599,15.19814 33.94599,33.94599c0,18.74785 -15.19813,33.94599 -33.94599,33.94599c-18.74785,0 -33.94598,-15.19814 -33.94598,-33.94599z"/></g><g fill="url(#color-17)" stroke="none" stroke-width="0" stroke-linecap="butt"><path d="M341.27672,146.11135c0,-18.74785 15.19814,-33.94599 33.94599,-33.94599c18.74785,0 33.94598,15.19814 33.94598,33.94599c0,18.74785 -15.19813,33.94598 -33.94598,33.94598c-18.74785,0 -33.94599,-15.19813 -33.94599,-33.94598z"/><path d="M341.27672,146.11135c0,-18.74785 15.19813,-33.94599 33.94599,-33.94599c18.74785,0 33.94598,15.19814 33.94598,33.94599c0,18.74785 -15.19813,33.94598 -33.94598,33.94598c-18.74785,0 -33.94599,-15.19813 -33.94599,-33.94598z"/><path d="M341.27672,146.11135c0,-18.74785 15.19813,-33.94599 33.94599,-33.94599c18.74785,0 33.94598,15.19814 33.94598,33.94599c0,18.74785 -15.19813,33.94598 -33.94598,33.94598c-18.74785,0 -33.94599,-15.19813 -33.94599,-33.94598z"/></g><g fill="url(#color-18)" stroke="none" stroke-width="0" stroke-linecap="butt"><path d="M387.03816,213.62823c0,-18.74785 15.19814,-33.94598 33.94599,-33.94598c18.74785,0 33.94599,15.19813 33.94599,33.94598c0,18.74785 -15.19814,33.94599 -33.94599,33.94599c-18.74785,0 -33.94599,-15.19814 -33.94599,-33.94599z"/><path d="M387.03817,213.62823c0,-18.74785 15.19814,-33.94599 33.94599,-33.94599c18.74785,0 33.94599,15.19814 33.94599,33.94599c0,18.74785 -15.19814,33.94599 -33.94599,33.94599c-18.74785,0 -33.94599,-15.19814 -33.94599,-33.94599z"/><path d="M387.03817,213.62823c0,-18.74785 15.19814,-33.94599 33.94599,-33.94599c18.74785,0 33.94599,15.19814 33.94599,33.94599c0,18.74785 -15.19814,33.94599 -33.94599,33.94599c-18.74785,0 -33.94599,-15.19814 -33.94599,-33.94599z"/></g><g fill="url(#color-19)" stroke="none" stroke-width="0" stroke-linecap="butt"><path d="M319.89637,211.75276c0,-18.74785 15.19814,-33.94599 33.94599,-33.94599c18.74785,0 33.94599,15.19814 33.94599,33.94599c0,18.74785 -15.19814,33.94599 -33.94599,33.94599c-18.74785,0 -33.94599,-15.19814 -33.94599,-33.94599z"/><path d="M319.89638,211.75276c0,-18.74785 15.19814,-33.94599 33.94599,-33.94599c18.74785,0 33.94599,15.19814 33.94599,33.94599c0,18.74785 -15.19814,33.94599 -33.94599,33.94599c-18.74785,0 -33.94599,-15.19814 -33.94599,-33.94599z"/><path d="M319.89638,211.75276c0,-18.74785 15.19814,-33.94599 33.94599,-33.94599c18.74785,0 33.94599,15.19814 33.94599,33.94599c0,18.74785 -15.19814,33.94599 -33.94599,33.94599c-18.74785,0 -33.94599,-15.19814 -33.94599,-33.94599z"/></g><g fill="url(#color-20)" stroke="none" stroke-width="0" stroke-linecap="butt"><path d="M326.27297,11.45269c0,-18.74785 15.19814,-33.94599 33.94599,-33.94599c18.74785,0 33.94599,15.19814 33.94599,33.94599c0,18.74785 -15.19813,33.94598 -33.94599,33.94598c-18.74785,0 -33.94599,-15.19813 -33.94599,-33.94598z"/><path d="M326.27297,11.45269c0,-18.74785 15.19813,-33.94599 33.94599,-33.94599c18.74785,0 33.94599,15.19814 33.94599,33.94599c0,18.74785 -15.19813,33.94598 -33.94599,33.94598c-18.74785,0 -33.94599,-15.19813 -33.94599,-33.94598z"/><path d="M326.27297,11.45269c0,-18.74785 15.19813,-33.94599 33.94599,-33.94599c18.74785,0 33.94599,15.19814 33.94599,33.94599c0,18.74785 -15.19813,33.94598 -33.94599,33.94598c-18.74785,0 -33.94599,-15.19813 -33.94599,-33.94598z"/></g><g fill="url(#color-21)" stroke="none" stroke-width="0" stroke-linecap="butt"><path d="M274.32705,-28.11725c0,-18.74785 15.19814,-33.94598 33.94599,-33.94598c18.74785,0 33.94599,15.19813 33.94599,33.94598c0,18.74785 -15.19813,33.94599 -33.94599,33.94599c-18.74785,0 -33.94599,-15.19814 -33.94599,-33.94599z"/><path d="M274.32706,-28.11725c0,-18.74785 15.19813,-33.94599 33.94599,-33.94599c18.74785,0 33.94599,15.19814 33.94599,33.94599c0,18.74785 -15.19813,33.94599 -33.94599,33.94599c-18.74785,0 -33.94599,-15.19814 -33.94599,-33.94599z"/><path d="M274.32706,-28.11725c0,-18.74785 15.19813,-33.94599 33.94599,-33.94599c18.74785,0 33.94599,15.19814 33.94599,33.94599c0,18.74785 -15.19813,33.94599 -33.94599,33.94599c-18.74785,0 -33.94599,-15.19814 -33.94599,-33.94599z"/></g></g></g></svg>