<svg version="1.1" xmlns="http://www.w3.org/2000/svg" xmlns:xlink="http://www.w3.org/1999/xlink" width="94.42335" height="265.29095" viewBox="0,0,94.42335,265.29095"><defs><linearGradient x1="278.91778" y1="44.37556" x2="278.91778" y2="51.29549" gradientUnits="userSpaceOnUse" id="color-1"><stop offset="0" stop-color="#2efffd"/><stop offset="1" stop-color="#054f4e"/></linearGradient><linearGradient x1="362.18794" y1="44.37556" x2="362.18794" y2="51.2955" gradientUnits="userSpaceOnUse" id="color-2"><stop offset="0" stop-color="#2efffd"/><stop offset="1" stop-color="#054f4e"/></linearGradient><linearGradient x1="320.00593" y1="170.07921" x2="320.00593" y2="309.6665" gradientUnits="userSpaceOnUse" id="color-3"><stop offset="0" stop-color="#ffc62e"/><stop offset="1" stop-color="#4f3305"/></linearGradient><linearGradient x1="320.00593" y1="170.07921" x2="320.00593" y2="309.6665" gradientUnits="userSpaceOnUse" id="color-4"><stop offset="0" stop-color="#000000" stop-opacity="0.29804"/><stop offset="1" stop-color="#000000" stop-opacity="0"/></linearGradient><linearGradient x1="319.78774" y1="170.6461" x2="319.78774" y2="209.25895" gradientUnits="userSpaceOnUse" id="color-5"><stop offset="0" stop-color="#fcff4f"/><stop offset="1" stop-color="#fcff4f" stop-opacity="0"/></linearGradient><linearGradient x1="320.00004" y1="80.64228" x2="320.00004" y2="175.06562" gradientUnits="userSpaceOnUse" id="color-6"><stop offset="0" stop-color="#ffc62e"/><stop offset="1" stop-color="#4f3305"/></linearGradient><linearGradient x1="320.00004" y1="84.26653" x2="320.00004" y2="158.03214" gradientUnits="userSpaceOnUse" id="color-7"><stop offset="0" stop-color="#fcff4f"/><stop offset="1" stop-color="#fcff4f" stop-opacity="0"/></linearGradient><linearGradient x1="320.00004" y1="80.7742" x2="320.00004" y2="175.19755" gradientUnits="userSpaceOnUse" id="color-8"><stop offset="0" stop-color="#000000" stop-opacity="0.39216"/><stop offset="1" stop-color="#000000" stop-opacity="0"/></linearGradient><linearGradient x1="320.00004" y1="118.27924" x2="320.00004" y2="175.42408" gradientUnits="userSpaceOnUse" id="color-9"><stop offset="0" stop-color="#000000"/><stop offset="1" stop-color="#0c0c0c"/></linearGradient><linearGradient x1="320.00004" y1="88.88657" x2="320.00004" y2="163.23687" gradientUnits="userSpaceOnUse" id="color-10"><stop offset="0" stop-color="#000000"/><stop offset="1" stop-color="#0c0c0c"/></linearGradient><radialGradient cx="334.27914" cy="112.91851" r="32.74416" gradientUnits="userSpaceOnUse" id="color-11"><stop offset="0" stop-color="#2d2d2d"/><stop offset="1" stop-color="#2d2d2d" stop-opacity="0"/></radialGradient></defs><g transform="translate(-272.78836,-44.37556)"><g stroke="none" stroke-miterlimit="10"><g><g><path d="M278.39396,47.83553c0.75,0 0.75,0.75 0.75,0.75v0.41844c-0.00594,2.08999 -0.58205,4.14742 -1.05357,6.17293c-0.50631,9.80091 1.02315,19.42608 1.24581,29.22098c-0.22006,8.63118 -0.40147,17.27514 -0.40147,25.90799c0,0 0,0.75 -0.75,0.75c-0.75,0 -0.75,-0.75 -0.75,-0.75c0,-8.63336 0.17886,-17.27844 0.40147,-25.91007c-0.22706,-9.86102 -1.8117,-19.56152 -1.23089,-29.42993c0.44586,-1.94766 1.04528,-3.95235 1.03865,-5.96191v-0.41844c0,0 0,-0.75 0.75,-0.75z" fill="#000000" stroke-width="0.5"/><path d="M275.45781,47.83553l0.33313,-1.48319l0.69053,-0.97359l1.14744,-0.75516l1.28887,-0.24803l1.45909,0.32179l1.04786,0.75352l0.73274,1.16719l0.22027,1.21747l-0.21694,1.20857l-0.61594,1.04314l-1.09576,0.85179l-1.53133,0.35646l-1.36575,-0.27999l-1.00994,-0.66451l-0.87565,-1.32943z" fill="url(#color-1)" stroke-width="0"/></g><g><path d="M363.46174,48.58553v0.41845c-0.00662,2.00956 0.5928,4.01425 1.03865,5.96191c0.5808,9.86841 -1.00384,19.56891 -1.2309,29.42993c0.22261,8.63163 0.40147,17.27671 0.40147,25.91007c0,0 0,0.75 -0.75,0.75c-0.75,0 -0.75,-0.75 -0.75,-0.75c0,-8.63286 -0.18141,-17.27681 -0.40147,-25.90799c0.22265,-9.79489 1.75212,-19.42007 1.24581,-29.22098c-0.47152,-2.02551 -1.04762,-4.08294 -1.05356,-6.17293v-0.41845c0,0 0,-0.75 0.75,-0.75c0.75,0 0.75,0.75 0.75,0.75z" fill="#000000" stroke-width="0.5"/><path d="M365.43929,49.02156l-0.87565,1.32943l-1.00994,0.66452l-1.36575,0.27999l-1.53132,-0.35646l-1.09576,-0.85179l-0.61594,-1.04314l-0.21694,-1.20858l0.22027,-1.21747l0.73274,-1.16719l1.04786,-0.75352l1.45909,-0.32179l1.28886,0.24803l1.14745,0.75516l0.69053,0.97359l0.33312,1.48318z" fill="url(#color-2)" stroke-width="0"/></g></g><g stroke-width="0"><g><path d="M281.87126,309.6665l17.98805,-139.58728h41.01276l11.87211,139.58728z" fill="url(#color-3)"/><path d="M281.87126,309.6665l17.98805,-139.58728l-1.0016,76.55709l7.15614,11.63579l12.4922,6.79247l13.78305,-6.95249l6.97448,-10.46249l1.6085,-77.57037l11.87211,139.58729z" fill="url(#color-4)"/></g><path d="M299.03334,209.25895l5.59886,-44.21171h31.46947l4.44048,44.21172z" fill="url(#color-5)"/></g><g stroke-width="0"><path d="M272.78836,127.85397l4.54557,-20.2383l9.42238,-13.28479l15.65698,-10.30422l17.58674,-3.38437l19.90951,4.39088l14.29819,10.28182l9.99835,15.92645l3.00563,16.61253l-2.96018,16.49113l-8.40457,14.2338l-14.95178,11.62278l-20.89514,4.86397l-18.63582,-3.82055l-13.78076,-9.06738l-11.9484,-18.14029z" fill="url(#color-6)"/><path d="M283.11719,121.14935l3.5511,-15.81061l7.36097,-10.37838l12.23158,-8.04989l13.73916,-2.64395l15.55375,3.43025l11.17007,8.03239l7.81093,12.4421l2.34807,12.97808l-2.31256,12.88323l-6.56584,11.11977l-11.68067,9.07998l-16.32375,3.79985l-14.55872,-2.9847l-10.76584,-7.08364l-9.33436,-14.1716z" fill="url(#color-7)"/><path d="M272.78836,127.9859l3.51099,-15.63205l2.6304,15.53397l12.07213,15.47847l13.15468,10.68657l16.41727,2.76275l20.00548,-4.14932l15.52268,-11.84573l6.57772,-12.97062l1.52637,-16.47657l3.00563,16.61253l-2.96018,16.49113l-8.40457,14.2338l-14.95178,11.62278l-20.89514,4.86397l-18.63583,-3.82055l-13.78075,-9.06739l-11.9484,-18.14029z" fill="url(#color-8)"/></g><g stroke-width="0"><path d="M291.42761,146.85167l2.75097,-12.24819l5.7024,-8.03993l9.47558,-6.23609l10.64346,-2.04821l12.0492,2.65735l8.65325,6.22254l6.05098,9.63866l1.819,10.05388l-1.7915,9.9804l-5.08643,8.61426l-9.04879,7.03409l-12.6457,2.94366l-11.27837,-2.31219l-8.34009,-5.48756l-7.23115,-10.97848z" fill="url(#color-9)"/><path d="M282.82488,126.06174l3.57925,-15.93593l7.41931,-10.46063l12.32853,-8.11369l13.84805,-2.66491l15.67703,3.45745l11.2586,8.09605l7.87285,12.54072l2.36667,13.08095l-2.33089,12.98535l-6.61788,11.2079l-11.77324,9.15194l-16.45313,3.82996l-14.67412,-3.00835l-10.85117,-7.13978l-9.40834,-14.28393z" fill="url(#color-10)"/></g><path d="M287.25588,126.06173l3.15263,-14.03649l6.53499,-9.21381l10.85907,-7.1466l12.19747,-2.34727l13.80845,3.04534l9.91666,7.13106l6.93446,11.04596l2.08459,11.52179l-2.05307,11.4376l-5.82908,9.872l-10.36996,8.0611l-14.49204,3.37346l-12.92507,-2.64978l-9.55779,-6.28878l-8.28694,-12.58139z" fill="url(#color-11)" stroke-width="0"/><g stroke-width="0.5"><path d="M310.50768,133.49291c-0.62404,0.41602 -1.04006,-0.20802 -1.04006,-0.20802l-0.31318,-0.4802c-0.49076,-0.98978 -0.77817,-2.01629 -1.17424,-3.04993c-0.39661,-1.70991 -0.92069,-3.35513 -1.34048,-5.04991c-0.08929,-0.36047 -0.03473,-1.05418 0.02948,-1.54606c-0.31592,0.95525 -1.25889,2.02545 -1.70237,2.7401c-1.99993,3.22284 -4.35568,6.33025 -6.21156,9.6064c0,0 -0.3721,0.65118 -1.02328,0.27907c-0.65118,-0.3721 -0.27907,-1.02328 -0.27907,-1.02328c2.13497,-3.70815 4.68169,-7.34369 7.04203,-10.94615c0.28522,-0.43532 1.3763,-3.10588 2.04309,-2.88324c0.72555,0.24226 0.97746,1.19854 1.29508,1.89441c0.84211,1.84498 1.12349,4.49419 1.5815,6.49c0.36672,0.95215 0.62304,1.90981 1.08146,2.81778l0.21961,0.31897c0,0 0.41602,0.62404 -0.20801,1.04007z" fill="#00fff0"/><path d="M339.42878,134.14669c-0.61184,0.43376 -1.04561,-0.17808 -1.04561,-0.17808l-0.7095,-1.00173c-0.77535,-1.29303 -1.65696,-2.47432 -2.51971,-3.71008c-0.76002,-1.51185 -1.4061,-3.03307 -2.07862,-4.58308c-0.29829,-0.68748 -0.06763,-1.86022 -0.77391,-2.11082c-0.22404,-0.07949 -0.04361,0.48965 -0.16562,0.69369c-0.24777,0.41437 -0.63142,0.73171 -0.9187,1.11973c-0.57011,0.77003 -1.05417,1.74463 -1.54516,2.55107c-1.80615,2.96651 -3.59234,5.1527 -6.51074,7.0983c0,0 -0.62403,0.41602 -1.04006,-0.20801c-0.41602,-0.62404 0.20801,-1.04006 0.20801,-1.04006c3.41859,-2.27907 5.13727,-5.09553 7.23307,-8.55477c0.39062,-0.64473 1.99775,-3.25462 2.80682,-3.15841c0.70355,0.08366 1.01689,0.99896 1.41984,1.58172c1.14785,1.66012 1.747,4.01834 2.65379,5.84306c0.85399,1.21647 1.72124,2.38216 2.48685,3.65743l0.6773,0.95443c0,0 0.43376,0.61184 -0.17808,1.0456z" fill="#00fff0"/><g><path d="M346.80436,140.461c0,0.75 -0.75,0.75 -0.75,0.75h-0.1332c-8.44101,0 -16.90906,0.1332 -25.36436,0.1332c-8.6608,0 -17.627,-0.65823 -26.24748,0.13011c0,0 -0.74692,0.0679 -0.81482,-0.67902c-0.0679,-0.74692 0.67902,-0.81482 0.67902,-0.81482c8.66989,-0.7837 17.67394,-0.13628 26.38327,-0.13628c8.45538,0 16.92323,-0.1332 25.36436,-0.1332h0.1332c0,0 0.75,0 0.75,0.75z" fill="#00fff0"/><path d="M345.89404,139.31895c0.74246,0.10607 0.6364,0.84853 0.6364,0.84853l-0.12754,0.87947c0.01389,6.47208 -4.59072,12.31262 -9.37596,16.51427c-1.74105,1.33268 -3.66471,3.27023 -5.7786,3.98749c-6.46879,2.19493 -15.49897,2.15873 -21.74207,-0.69605c-8.22262,-3.93787 -13.93747,-10.86328 -15.6027,-19.85551c0,0 -0.13657,-0.73746 0.60089,-0.87403c0.73746,-0.13657 0.87403,0.60089 0.87403,0.60089c1.57656,8.51343 6.9745,15.04654 14.7658,18.7711c5.9134,2.75809 14.47636,2.62322 20.614,0.6359c1.91888,-0.62132 3.74764,-2.52909 5.31921,-3.73108c4.53154,-3.9282 8.81757,-9.39934 8.82917,-15.45932l0.13885,-0.98527c0,0 0.10607,-0.74246 0.84853,-0.6364z" fill="#00fff0"/></g></g></g></g></svg>