<svg version="1.1" xmlns="http://www.w3.org/2000/svg" xmlns:xlink="http://www.w3.org/1999/xlink" width="641.12447" height="33.03719" viewBox="0,0,641.12447,33.03719"><defs><linearGradient x1="320" y1="327.3701" x2="320" y2="353.84069" gradientUnits="userSpaceOnUse" id="color-1"><stop offset="0" stop-color="#000000" stop-opacity="0"/><stop offset="1" stop-color="#000000"/></linearGradient><linearGradient x1="320" y1="347.29437" x2="320" y2="360.40729" gradientUnits="userSpaceOnUse" id="color-2"><stop offset="0" stop-color="#173d90"/><stop offset="1" stop-color="#173d90" stop-opacity="0"/></linearGradient><linearGradient x1="320" y1="336.58454" x2="320" y2="343.19635" gradientUnits="userSpaceOnUse" id="color-3"><stop offset="0" stop-color="#5e91ff"/><stop offset="1" stop-color="#5e91ff" stop-opacity="0"/></linearGradient><linearGradient x1="49.9548" y1="335.87977" x2="49.9548" y2="344.01698" gradientUnits="userSpaceOnUse" id="color-4"><stop offset="0" stop-color="#8bff8b"/><stop offset="1" stop-color="#8bff8b" stop-opacity="0"/></linearGradient><linearGradient x1="46.97861" y1="353.17647" x2="46.97861" y2="359.64706" gradientUnits="userSpaceOnUse" id="color-5"><stop offset="0" stop-color="#215a21" stop-opacity="0"/><stop offset="1" stop-color="#215a21"/></linearGradient><linearGradient x1="589.91374" y1="335.87977" x2="589.91374" y2="344.01698" gradientUnits="userSpaceOnUse" id="color-6"><stop offset="0" stop-color="#a5eaff"/><stop offset="1" stop-color="#a5eaff" stop-opacity="0"/></linearGradient><linearGradient x1="592.51484" y1="353.17647" x2="592.51484" y2="359.64706" gradientUnits="userSpaceOnUse" id="color-7"><stop offset="0" stop-color="#006f78" stop-opacity="0"/><stop offset="1" stop-color="#006f78"/></linearGradient></defs><g transform="translate(0.81551,-327.37009)"><g stroke="none" stroke-miterlimit="10"><path d="M0,353.84069v-26.47059h640v26.47059z" fill="url(#color-1)" stroke-width="0"/><g stroke-width="0"><path d="M0,360.40729v-26.47059h640v26.47059z" fill="#2158cd"/><path d="M0,360.40729v-13.11292h640v13.11292z" fill="url(#color-2)"/><path d="M0,343.19635v-6.61181h640v6.61181z" fill="url(#color-3)"/></g><g stroke-width="0"><path d="M-0.8155,359.64706v-26.47059c0,0 72.70495,0 86.71546,0c8.61956,0 8.87278,5.74955 8.87278,8.79365c0,4.88025 0,17.67694 0,17.67694z" fill="#308030"/><path d="M8.9464,335.87977c0,0 62.38244,0 74.40377,0c7.39577,0 7.61304,4.57521 7.61304,6.99755c0,0.33623 0,0.71969 0,1.13966c-27.31875,-0.08094 -82.01681,-0.00744 -82.01681,-0.00744z" fill="url(#color-4)"/><path d="M-0.81551,359.64706v-6.47059c28.1662,0 56.3324,0 84.4986,0c3.68433,0 7.38196,0 11.08964,0c0,3.56778 0,6.47059 0,6.47059z" fill="url(#color-5)"/></g><g stroke-width="0"><path d="M544.72071,359.64706c0,0 0,-12.79669 0,-17.67694c0,-3.0441 0.25322,-8.79365 8.87278,-8.79365c14.01051,0 86.71546,0 86.71546,0v26.47059z" fill="#29bae6"/><path d="M630.92214,344.00954c0,0 -54.69806,-0.0735 -82.01681,0.00744c0,-0.41997 0,-0.80343 0,-1.13966c0,-2.42234 0.21727,-6.99755 7.61304,-6.99755c12.02133,0 74.40377,0 74.40377,0z" fill="url(#color-6)"/><path d="M544.72072,359.64706c0,0 0,-2.90281 0,-6.47059c3.70768,0 7.40531,0 11.08964,0c28.1662,0 56.3324,0 84.4986,0v6.47059z" fill="url(#color-7)"/></g><text transform="translate(5.67684,352.18051) scale(0.5,0.5)" font-size="40" xml:space="preserve" fill="#ffffff" stroke-width="1" font-family="&quot;LowerResolution&quot;, Scratch" font-weight="normal" text-anchor="start"><tspan x="0" dy="0">Options</tspan></text><text transform="translate(578.1895,352.94075) scale(0.5,0.5)" font-size="40" xml:space="preserve" fill="#ffffff" stroke-width="1" font-family="&quot;LowerResolution&quot;, Scratch" font-weight="normal" text-anchor="start"><tspan x="0" dy="0">3:00 AM</tspan></text></g></g></svg>