<svg version="1.1" xmlns="http://www.w3.org/2000/svg" xmlns:xlink="http://www.w3.org/1999/xlink" width="646.22481" height="506.19481" viewBox="0,0,646.22481,506.19481"><g transform="translate(2.91527,61.73327)"><g stroke="none" stroke-width="0" stroke-miterlimit="10"><path d="" fill="#ff0000"/><path d="" fill="#ff0000"/><g fill="#4b0000"><g><path d="M579.14806,218.88846c46.49942,0 60.84416,26.45687 60.84416,26.45687v113.55837h-53.21184c-45.82292,36.51763 -148.03825,61.93711 -266.78029,61.93711c-118.74202,0 -220.95735,-25.41947 -266.78028,-61.9371h-55.92529v-113.55837c0,0 14.34474,-26.45687 60.84416,-26.45687c10.24902,0 39.88829,9.68424 70.7744,17.33118c51.25603,-15.9035 118.04476,-25.52198 191.08702,-25.52198c72.46827,0 138.78091,9.4679 189.87579,25.14822c30.34051,-7.58487 59.18943,-16.95743 69.27217,-16.95743z"/><g><path d="M579.14806,218.88846c46.49942,0 60.84416,26.45687 60.84416,26.45687v35.31083h-642.6977v-35.31082c0,0 14.34474,-26.45687 60.84416,-26.45687c10.24902,0 39.88829,9.68424 70.7744,17.33118c51.25603,-15.9035 118.04476,-25.52198 191.08702,-25.52198c72.46827,0 138.78091,9.4679 189.87579,25.14822c30.34051,-7.58487 59.18943,-16.95743 69.27217,-16.95743z"/><path d=""/></g></g><g><path d="M-2.91527,363.93545v-83.94482h645.19557v83.94482z"/><path d="M-2.91527,364.59446v-85.02004h211.41468v85.02004z"/><path d="M93.67468,364.37996v-84.28368h211.41468v84.28368z"/><path d="M175.61834,363.6436v-83.54732h211.41468v83.54733z"/><path d="M272.20829,363.42911v-83.54732h211.41468v83.54733z"/><path d="M335.30492,363.58793v-83.54732h211.41468v83.54733z"/><path d="M431.89487,364.84615v-85.02004h211.41468v85.02004z"/></g><g><path d="M-2.91527,443.55083v-83.94482h645.19557v83.94482z"/><path d="M-2.91527,444.20984v-85.02004h211.41468v85.02004z"/><path d="M93.67468,443.99535v-84.28368h211.41468v84.28368z"/><path d="M175.61834,443.25899v-83.54731h211.41468v83.54733z"/><path d="M272.20829,443.04449v-83.54732h211.41468v83.54733z"/><path d="M335.30492,443.20332v-83.54732h211.41468v83.54733z"/><path d="M431.89487,444.46154v-85.02004h211.41468v85.02004z"/></g></g><g fill="#4b0000"><g><path d="M0.2454,87.83785v-76.92308h190.43175c47.12007,-7.44822 128.98479,-13.3239 204.05358,0h247.1657v76.92308c0,0 -28.8354,-40.9683 -189.31574,-55.22764c2.43033,4.54845 1.15635,9.06542 0.39141,13.39417c-2.26166,12.79862 -12.57473,23.95179 -35.50793,29.40816c-23.06248,5.48712 -70.36855,-3.40527 -124.55088,-2.93522c-40.83325,0.35424 -85.5719,12.74018 -126.78232,2.93522h0.00001c-35.67101,-8.487 -30.52358,-17.60379 -32.87004,-26.20242c-0.82384,-3.01899 -0.98119,-5.97411 -0.48534,-8.81567c-114.8704,17.61228 -132.5302,47.4434 -132.5302,47.4434z"/><path d="M452.97212,46.00438c-2.26166,12.79862 -12.57473,23.95179 -35.50793,29.40816c-23.06248,5.48712 -70.36855,-3.40527 -124.55088,-2.93522c-40.83325,0.35424 -85.5719,12.74018 -126.78232,2.93522h0.00001c-35.67101,-8.487 -30.52358,-17.60379 -32.87004,-26.20242c-0.82384,-3.01899 -0.98119,-5.97411 -0.48534,-8.81567c-114.8704,17.61228 -132.5302,47.4434 -132.5302,47.4434v-76.92308h190.43175c47.12007,-7.44822 128.98479,-13.3239 204.05358,0h247.1657v76.92308c0,0 -28.8354,-40.9683 -189.31574,-55.22764c2.43033,4.54845 1.15635,9.06542 0.39141,13.39417z"/><g><path d="M0.2454,87.83785v-76.92308h190.43175c47.12007,-7.44822 128.98479,-13.3239 204.05358,0h247.1657v76.92308c0,0 -28.8354,-40.9683 -189.31574,-55.22764c2.43033,4.54845 1.15635,9.06542 0.39141,13.39417c-2.26166,12.79862 -12.57473,23.95179 -35.50793,29.40816c-23.06248,5.48712 -70.36855,-3.40527 -124.55088,-2.93522c-40.83325,0.35424 -85.5719,12.74018 -126.78232,2.93522h0.00001c-35.67101,-8.487 -30.52358,-17.60379 -32.87004,-26.20242c-0.82384,-3.01899 -0.98119,-5.97411 -0.48534,-8.81567c-114.8704,17.61228 -132.5302,47.4434 -132.5302,47.4434z"/><path d="M0.2454,87.83785v-65.26219h641.65103v65.26219c0,0 -28.8354,-40.9683 -189.31574,-55.22764c2.43033,4.54845 1.15635,9.06542 0.39141,13.39417c-2.26166,12.79862 -12.57473,23.95179 -35.50793,29.40816c-23.06248,5.48712 -70.36855,-3.40527 -124.55088,-2.93522c-40.83325,0.35424 -85.5719,12.74018 -126.78232,2.93522h0.00001c-35.67101,-8.487 -30.52358,-17.60379 -32.87004,-26.20242c-0.82384,-3.01899 -0.98119,-5.97411 -0.48534,-8.81567c-114.8704,17.61228 -132.5302,47.4434 -132.5302,47.4434z"/></g></g><g><path d="M642.28289,-60.82256v83.94482h-643.57527v-83.94482z"/><path d="M209.59137,-61.48157v85.02004h-210.88375v-85.02004z"/><path d="M305.93872,-61.26708v84.28368h-210.88375v-84.28367z"/><path d="M387.67663,-60.53073v83.54733h-210.88375v-83.54731z"/><path d="M484.024,-60.31622v83.54733h-210.88375v-83.54732z"/><path d="M546.96217,-60.47506v83.54733h-210.88375v-83.54731z"/><path d="M643.30954,-61.73327v85.02004h-210.88375v-85.02004z"/></g></g></g></g></svg>