<svg version="1.1" xmlns="http://www.w3.org/2000/svg" xmlns:xlink="http://www.w3.org/1999/xlink" width="128.17791" height="128.17791" viewBox="0,0,128.17791,128.17791"><defs><radialGradient cx="320.00005" cy="180.00005" r="64.08896" gradientUnits="userSpaceOnUse" id="color-1"><stop offset="0" stop-color="#9200ff"/><stop offset="1" stop-color="#9200ff" stop-opacity="0"/></radialGradient><radialGradient cx="285.65755" cy="155.5877" r="50.106" gradientUnits="userSpaceOnUse" id="color-2"><stop offset="0" stop-color="#ff7b00"/><stop offset="1" stop-color="#ff7b00" stop-opacity="0"/></radialGradient><radialGradient cx="281.42857" cy="196.95915" r="50.106" gradientUnits="userSpaceOnUse" id="color-3"><stop offset="0" stop-color="#b1ff00"/><stop offset="1" stop-color="#b1ff00" stop-opacity="0"/></radialGradient><radialGradient cx="323.4919" cy="221.99024" r="50.106" gradientUnits="userSpaceOnUse" id="color-4"><stop offset="0" stop-color="#00aaff"/><stop offset="1" stop-color="#00aaff" stop-opacity="0"/></radialGradient><radialGradient cx="356.24398" cy="201.48834" r="50.106" gradientUnits="userSpaceOnUse" id="color-5"><stop offset="0" stop-color="#0300ff"/><stop offset="1" stop-color="#0300ff" stop-opacity="0"/></radialGradient><radialGradient cx="355.90115" cy="157.94373" r="50.106" gradientUnits="userSpaceOnUse" id="color-6"><stop offset="0" stop-color="#8c00ff"/><stop offset="1" stop-color="#8c00ff" stop-opacity="0"/></radialGradient><radialGradient cx="326.99983" cy="138.45039" r="50.106" gradientUnits="userSpaceOnUse" id="color-7"><stop offset="0" stop-color="#ff00f6"/><stop offset="1" stop-color="#ff00f6" stop-opacity="0"/></radialGradient></defs><g transform="translate(-255.9111,-115.91109)"><g fill-rule="evenodd" stroke="none" stroke-width="0.07853" stroke-linecap="round" stroke-linejoin="round" stroke-miterlimit="10"><g fill="url(#color-1)"><path d="M384.08901,180.00005c0,35.39539 -28.69367,64.08896 -64.08895,64.08896c-35.39538,0 -64.08895,-28.6936 -64.08895,-64.08895c0,-35.39539 28.69359,-64.08895 64.08895,-64.08895c35.39538,0 64.08896,28.6936 64.08896,64.08896"/></g><path d="M370.10606,180.00005c0,27.67281 -22.43328,50.10601 -50.10601,50.10601c-27.67281,0 -50.10601,-22.43322 -50.10601,-50.10601c0,-27.67281 22.43322,-50.10601 50.10601,-50.10601c27.67281,0 50.10601,22.43322 50.10601,50.10601" fill="#ff0000"/><path d="M370.10605,180.00005c0,27.67281 -22.43328,50.106 -50.106,50.106c-27.67281,0 -50.106,-22.43322 -50.106,-50.106c0,-27.67281 22.43322,-50.106 50.106,-50.106c27.67281,0 50.106,22.43322 50.106,50.106" fill="url(#color-2)"/><path d="M345.70061,136.98734c23.75529,14.19404 31.50615,44.95805 17.31215,68.71326c-14.19404,23.75529 -44.958,31.50618 -68.71326,17.31215c-23.75529,-14.19404 -31.50618,-44.958 -17.31215,-68.71326c14.19404,-23.75529 44.958,-31.50618 68.71326,-17.31215" fill="url(#color-3)"/><path d="M287.68494,141.70715c21.1486,-17.84716 52.76089,-15.17076 70.608,5.97777c17.84716,21.1486 15.1708,52.76085 -5.97778,70.608c-21.1486,17.84716 -52.76085,15.17081 -70.608,-5.97777c-17.84716,-21.1486 -15.1708,-52.76085 5.97778,-70.608" fill="url(#color-4)"/><path d="M270.06571,184.14421c-2.28876,-27.578 18.21225,-51.78976 45.79016,-54.07851c27.578,-2.28876 51.78974,18.21219 54.0785,45.79017c2.28876,27.578 -18.21218,51.78974 -45.79016,54.0785c-27.578,2.28876 -51.78974,-18.21219 -54.0785,-45.79016" fill="url(#color-5)"/><path d="M300.39963,226.11332c-25.46769,-10.82503 -37.33787,-40.24609 -26.51288,-65.7137c10.82503,-25.46769 40.24604,-37.33788 65.71371,-26.51287c25.46769,10.82503 37.33789,40.24604 26.51287,65.7137c-10.82503,25.46769 -40.24603,37.33788 -65.7137,26.51287" fill="url(#color-6)"/><path d="M341.84268,225.0945c-24.90502,12.06336 -54.87378,1.65311 -66.9371,-23.25183c-12.06336,-24.90502 -1.65316,-54.87375 23.25184,-66.9371c24.90502,-12.06336 54.87375,-1.65316 66.9371,23.25183c12.06336,24.90502 1.65315,54.87374 -23.25184,66.9371" fill="url(#color-7)"/></g></g></svg>