<svg version="1.1" xmlns="http://www.w3.org/2000/svg" xmlns:xlink="http://www.w3.org/1999/xlink" width="268.01838" height="268.01838" viewBox="0,0,268.01838,268.01838"><defs><radialGradient cx="320.00001" cy="196.07771" r="134.00919" gradientUnits="userSpaceOnUse" id="color-1"><stop offset="0" stop-color="#000000" stop-opacity="0.52157"/><stop offset="1" stop-color="#000000" stop-opacity="0"/></radialGradient><linearGradient x1="320.00001" y1="292.66448" x2="320.00001" y2="196.97075" gradientUnits="userSpaceOnUse" id="color-2"><stop offset="0" stop-color="#173d90"/><stop offset="1" stop-color="#173d90" stop-opacity="0"/></linearGradient><linearGradient x1="320.00001" y1="104.12064" x2="320.00001" y2="122.96872" gradientUnits="userSpaceOnUse" id="color-3"><stop offset="0" stop-color="#5e91ff"/><stop offset="1" stop-color="#5e91ff" stop-opacity="0"/></linearGradient></defs><g transform="translate(-185.99082,-62.06851)"><g stroke="none" stroke-miterlimit="10"><path d="M185.99082,196.07771c0,-74.01123 59.99796,-134.00919 134.00919,-134.00919c74.01123,0 134.00919,59.99796 134.00919,134.00919c0,74.01123 -59.99796,134.00919 -134.00919,134.00919c-74.01123,0 -134.00919,-59.99796 -134.00919,-134.00919z" fill="url(#color-1)" stroke-width="0"/><path d="M241.62872,292.66448v-193.17355h156.74259v193.17355z" fill="#2158cd" stroke-width="0"/><path d="M398.37131,196.97075v95.69372h-156.74259v-95.69372z" fill="url(#color-2)" stroke-width="0"/><path d="M241.62872,122.96872v-18.84807h156.74259v18.84807z" fill="url(#color-3)" stroke-width="0"/><text transform="translate(255.80447,119.31343) scale(0.5,0.5)" font-size="40" xml:space="preserve" fill="#ffffff" stroke-width="1" font-family="&quot;LowerResolution&quot;, Scratch" font-weight="normal" text-anchor="start"><tspan x="0" dy="0">Incredible Creators !</tspan></text><text transform="translate(261.51899,132.35016) scale(0.3855,0.3855)" font-size="40" xml:space="preserve" fill="#ffffff" stroke-width="1" font-family="&quot;LowerResolution&quot;, Scratch" font-weight="normal" text-anchor="start"><tspan x="0" dy="0">Thank yous for Helping!</tspan></text><g fill="#ffffff"><path d="M246.98585,169.5498v-27.90557h27.90557v27.90557z" stroke-width="0"/><text transform="translate(277.45417,151.07264) scale(0.5,0.5)" font-size="40" xml:space="preserve" fill="#ffffff" stroke-width="1" font-family="&quot;LowerResolution&quot;, Scratch" font-weight="normal" text-anchor="start"><tspan x="0" dy="0">mopple</tspan></text><text transform="translate(277.16943,160.10732) scale(0.28307,0.28307)" font-size="40" xml:space="preserve" fill="#ffffff" stroke-width="1" font-family="&quot;LowerResolution&quot;, Scratch" font-weight="normal" text-anchor="start"><tspan x="0" dy="0">Creator of Amazings Game!</tspan><tspan x="0" dy="46.15px">Design! Yes!</tspan></text></g><g fill="#ffffff"><path d="M246.98586,209.13015v-27.90558h27.90557v27.90558z" stroke-width="0"/><text transform="translate(277.45419,190.65299) scale(0.5,0.5)" font-size="40" xml:space="preserve" fill="#ffffff" stroke-width="1" font-family="&quot;LowerResolution&quot;, Scratch" font-weight="normal" text-anchor="start"><tspan x="0" dy="0">splatjack</tspan></text><text transform="translate(277.16943,199.68768) scale(0.28307,0.28307)" font-size="40" xml:space="preserve" fill="#ffffff" stroke-width="1" font-family="&quot;LowerResolution&quot;, Scratch" font-weight="normal" text-anchor="start"><tspan x="0" dy="0">Composed. H. Mode Mode </tspan><tspan x="0" dy="48px">Yes!</tspan></text></g><g fill="#ffffff"><path d="M246.98586,247.5715v-27.90557h27.90557v27.90558z" stroke-width="0"/><text transform="translate(277.45419,229.09434) scale(0.5,0.5)" font-size="40" xml:space="preserve" fill="#ffffff" stroke-width="1" font-family="&quot;LowerResolution&quot;, Scratch" font-weight="normal" text-anchor="start"><tspan x="0" dy="0">lee</tspan></text><text transform="translate(277.16943,238.12903) scale(0.28307,0.28307)" font-size="40" xml:space="preserve" fill="#ffffff" stroke-width="1" font-family="&quot;LowerResolution&quot;, Scratch" font-weight="normal" text-anchor="start"><tspan x="0" dy="0">Composed AMAZING Mode!</tspan></text></g><g fill="#ffffff"><path d="M246.98586,286.2976v-27.90557h27.90557v27.90557z" stroke-width="0"/><text transform="translate(277.45419,267.82043) scale(0.5,0.5)" font-size="40" xml:space="preserve" fill="#ffffff" stroke-width="1" font-family="&quot;LowerResolution&quot;, Scratch" font-weight="normal" text-anchor="start"><tspan x="0" dy="0">mawce</tspan></text><text transform="translate(277.16943,276.85513) scale(0.28307,0.28307)" font-size="40" xml:space="preserve" fill="#ffffff" stroke-width="1" font-family="&quot;LowerResolution&quot;, Scratch" font-weight="normal" text-anchor="start"><tspan x="0" dy="0">Creator of 'Beat 6', Rose!</tspan></text></g></g></g></svg>