<svg version="1.1" xmlns="http://www.w3.org/2000/svg" xmlns:xlink="http://www.w3.org/1999/xlink" width="47.04546" height="47.04546" viewBox="0,0,47.04546,47.04546"><defs><radialGradient cx="320.09617" cy="180.00001" r="23.52273" gradientUnits="userSpaceOnUse" id="color-1"><stop offset="0" stop-color="#000000" stop-opacity="0.68235"/><stop offset="1" stop-color="#000000" stop-opacity="0"/></radialGradient><linearGradient x1="320.00003" y1="162.6087" x2="320.00003" y2="197.39133" gradientUnits="userSpaceOnUse" id="color-2"><stop offset="0" stop-color="#dedede" stop-opacity="0.20784"/><stop offset="1" stop-color="#dedede" stop-opacity="0"/></linearGradient><linearGradient x1="320.09618" y1="162.6087" x2="320.09618" y2="197.39133" gradientUnits="userSpaceOnUse" id="color-3"><stop offset="0" stop-color="#292929" stop-opacity="0"/><stop offset="1" stop-color="#292929" stop-opacity="0.25098"/></linearGradient></defs><g transform="translate(-296.57343,-156.47727)"><g stroke="none" stroke-miterlimit="10"><path d="M296.57344,180.00001c0,-12.99124 10.53148,-23.52273 23.52273,-23.52273c12.99124,0 23.52273,10.53148 23.52273,23.52273c0,12.99124 -10.53148,23.52273 -23.52273,23.52273c-12.99124,0 -23.52273,-10.53148 -23.52273,-23.52273z" fill="url(#color-1)" stroke-width="0"/><path d="M302.60872,197.39131v-34.78261h34.78261v34.78261z" fill="#c72828" stroke-width="0"/><g stroke-width="0"><path d="M302.60873,197.39133v-34.78261h34.78261l-2.48896,2.57975l-29.14148,0.24634l-0.30739,29.42558z" fill="url(#color-2)"/><path d="M337.48749,162.6087v34.78261h-34.78261l2.88669,-2.57975l28.74375,-0.24634l0.59148,-29.36876z" fill="url(#color-3)"/></g><path d="M315.77498,176.82476c-0.41294,0.62608 -1.03902,0.21314 -1.03902,0.21314l-0.53936,-0.36181c-1.15699,-0.9734 -2.30821,-1.94223 -3.4272,-2.95931c0,0 -0.55496,-0.5045 -0.05045,-1.05946c0.5045,-0.55496 1.05946,-0.05045 1.05946,-0.05045c1.1046,1.00437 2.24156,1.96035 3.38387,2.9214l0.39956,0.25746c0,0 0.62609,0.41294 0.21315,1.03903z" fill="#000000" stroke-width="0.5"/><path d="M323.06453,177.87967c-0.59286,-0.45937 -0.13349,-1.05222 -0.13349,-1.05222l0.53577,-0.6874c0.46512,-0.86222 0.93102,-1.72402 1.39763,-2.58544c0,0 0.35721,-0.65947 1.01668,-0.30226c0.65947,0.35721 0.30226,1.01668 0.30226,1.01668c-0.48597,0.89717 -0.97268,1.79392 -1.46007,2.69031l-0.60654,0.78684c0,0 -0.45937,0.59286 -1.05223,0.13349z" fill="#000000" stroke-width="0.5"/><path d="M326.6489,179.78682c0,-0.41422 0.33578,-0.75 0.75,-0.75c0.41422,0 0.75,0.33578 0.75,0.75c0,0.41422 -0.33578,0.75 -0.75,0.75c-0.41422,0 -0.75,-0.33578 -0.75,-0.75z" fill="#000000" stroke-width="0.5"/><path d="M312.8989,178.16182c0,-0.41422 0.33578,-0.75 0.75,-0.75c0.41422,0 0.75,0.33578 0.75,0.75c0,0.41422 -0.33578,0.75 -0.75,0.75c-0.41422,0 -0.75,-0.33578 -0.75,-0.75z" fill="#000000" stroke-width="0.5"/><path d="M333.70383,188.22834c-0.31652,0.67994 -0.99646,0.36341 -0.99646,0.36341l-0.45063,-0.20978c-2.07501,-0.96595 -4.43501,-2.56318 -6.64751,-3.11346c-3.38956,-0.84303 -8.07868,-0.03973 -11.59076,-0.06447c-1.82392,-0.01284 -4.80184,-0.61365 -6.40916,0.25359c0,0 -0.67082,0.33541 -1.00623,-0.33541c-0.33541,-0.67082 0.33541,-1.00623 0.33541,-1.00623c2.01044,-0.95447 4.878,-0.42749 7.09054,-0.41191c3.64327,0.02566 8.38055,-0.75889 11.90954,0.10103c2.32324,0.56611 4.77893,2.20575 6.95122,3.21698l0.45063,0.20978c0,0 0.67994,0.31652 0.36341,0.99646z" fill="#000000" stroke-width="0.5"/><path d="M331.2739,173.28681c-0.75,0 -0.75,-0.75 -0.75,-0.75v-0.125c0,-0.61628 0.0213,-1.23291 0.00022,-1.84883c-0.01605,-0.46893 0.07845,-1.8739 0.02899,-1.40731c-0.07447,0.70255 -1.75413,1.60522 -2.28534,2.07057c0,0 -0.56443,0.49388 -1.05831,-0.07055c-0.49388,-0.56443 0.07055,-1.05831 0.07055,-1.05831c0.59939,-0.52388 2.56884,-2.60791 3.46466,-2.42943c1.82765,0.36414 1.27922,3.45647 1.27922,4.74386v0.125c0,0 0,0.75 -0.75,0.75z" fill="#000000" stroke-width="0.5"/><path d="M320.28477,170.05493c-0.64312,0.38587 -1.02899,-0.25725 -1.02899,-0.25725l-0.4027,-0.67546c-0.38538,-0.77747 -0.90163,-1.33528 -1.07862,-2.21041c-0.10636,-0.52588 -0.03156,1.08055 -0.15915,1.60169c-0.1189,0.48566 -0.24254,0.97014 -0.3638,1.45521c0,0 -0.1819,0.72761 -0.90951,0.54571c-0.72761,-0.1819 -0.54571,-0.90951 -0.54571,-0.90951c0.18597,-0.74386 0.57134,-4.38604 1.97705,-4.1931c0.86254,0.11839 2.01175,2.22639 2.42138,3.03959l0.3473,0.57454c0,0 0.38587,0.64312 -0.25725,1.02899z" fill="#000000" stroke-width="0.5"/><path d="M309.2489,170.23681c-0.45,0.6 -1.05,0.15 -1.05,0.15l-0.37389,-0.29854c-0.70205,-0.33653 -1.29017,-1.02553 -2.0661,-1.08922c-1.10705,-0.09088 -0.65061,2.12516 -1.03016,3.16908c0,0 -0.25631,0.70485 -0.96115,0.44854c-0.70485,-0.25631 -0.44854,-0.96115 -0.44854,-0.96115c1.22986,-3.38161 1.44254,-4.69516 5.15374,-2.92015l0.62611,0.45146c0,0 0.6,0.45 0.15,1.05z" fill="#000000" stroke-width="0.5"/></g></g></svg>