<svg version="1.1" xmlns="http://www.w3.org/2000/svg" xmlns:xlink="http://www.w3.org/1999/xlink" width="26.93822" height="26.93821" viewBox="0,0,26.93822,26.93821"><defs><radialGradient cx="341.19054" cy="181.78576" r="13.46911" gradientUnits="userSpaceOnUse" id="color-1"><stop offset="0" stop-color="#000000"/><stop offset="1" stop-color="#000000" stop-opacity="0"/></radialGradient><radialGradient cx="334.98935" cy="173.064" r="10.92583" gradientUnits="userSpaceOnUse" id="color-2"><stop offset="0" stop-color="#a4a4a4"/><stop offset="1" stop-color="#4f4f4f"/></radialGradient><linearGradient x1="341.19054" y1="172.28829" x2="341.19054" y2="191.28323" gradientUnits="userSpaceOnUse" id="color-3"><stop offset="0" stop-color="#1c1c1c"/><stop offset="1" stop-color="#373737"/></linearGradient><radialGradient cx="344.0044" cy="177.85881" r="8.42887" gradientUnits="userSpaceOnUse" id="color-4"><stop offset="0" stop-color="#0e4873"/><stop offset="1" stop-color="#05092b"/></radialGradient><radialGradient cx="342.15781" cy="180.84593" r="7.34903" gradientUnits="userSpaceOnUse" id="color-5"><stop offset="0" stop-color="#7adaff" stop-opacity="0.73725"/><stop offset="1" stop-color="#7adaff" stop-opacity="0"/></radialGradient></defs><g transform="translate(-327.72142,-168.31665)"><g stroke="none" stroke-miterlimit="10"><path d="M354.65965,181.78576c0,7.43879 -6.03034,13.4691 -13.46911,13.4691c-7.43879,0 -13.46911,-6.03032 -13.46911,-13.4691c0,-7.43879 6.03033,-13.46911 13.46911,-13.46911c7.43879,0 13.46911,6.03032 13.46911,13.46911" fill="url(#color-1)" fill-rule="evenodd" stroke-width="0.07853" stroke-linecap="round" stroke-linejoin="round"/><path d="M352.11638,181.78576c0,6.03418 -4.89168,10.92583 -10.92584,10.92583c-6.03418,0 -10.92584,-4.89166 -10.92584,-10.92583c0,-6.03418 4.89166,-10.92584 10.92584,-10.92584c6.03418,0 10.92584,4.89167 10.92584,10.92584" fill="url(#color-2)" fill-rule="evenodd" stroke-width="0.07853" stroke-linecap="round" stroke-linejoin="round"/><path d="M350.68801,181.78576c0,5.24531 -4.25217,9.49746 -9.49747,9.49746c-5.24531,0 -9.49746,-4.25216 -9.49746,-9.49746c0,-5.24531 4.25216,-9.49747 9.49746,-9.49747c5.24531,0 9.49747,4.25216 9.49747,9.49747" fill="url(#color-3)" fill-rule="evenodd" stroke-width="0.07853" stroke-linecap="round" stroke-linejoin="round"/><path d="M349.6194,181.78576c0,4.65514 -3.77373,8.42887 -8.42886,8.42887c-4.65514,0 -8.42886,-3.77373 -8.42886,-8.42887c0,-4.65514 3.77373,-8.42887 8.42886,-8.42887c4.65514,0 8.42886,3.77373 8.42886,8.42887" fill="url(#color-4)" fill-rule="evenodd" stroke-width="0.07853" stroke-linecap="round" stroke-linejoin="round"/><path d="M348.53957,181.78576c0,4.05876 -3.29027,7.34903 -7.34902,7.34903c-4.05876,0 -7.34903,-3.29027 -7.34903,-7.34903c0,-4.05876 3.29027,-7.34903 7.34903,-7.34903c4.05876,0 7.34902,3.29027 7.34902,7.34903" fill="url(#color-5)" fill-rule="evenodd" stroke-width="0.07853" stroke-linecap="round" stroke-linejoin="round"/><text transform="translate(333.64339,183.46267) scale(0.13975,0.13975)" font-size="40" xml:space="preserve" fill="#ffffff" fill-rule="nonzero" stroke-width="1" stroke-linecap="butt" stroke-linejoin="miter" font-family="&quot;LowerResolution&quot;, Scratch" font-weight="normal" text-anchor="start"><tspan x="0" dy="0">Remove</tspan></text></g></g></svg>