<svg version="1.1" xmlns="http://www.w3.org/2000/svg" xmlns:xlink="http://www.w3.org/1999/xlink" width="47.04546" height="47.04546" viewBox="0,0,47.04546,47.04546"><defs><radialGradient cx="320.09618" cy="180.00003" r="23.52273" gradientUnits="userSpaceOnUse" id="color-1"><stop offset="0" stop-color="#000000" stop-opacity="0.68235"/><stop offset="1" stop-color="#000000" stop-opacity="0"/></radialGradient><linearGradient x1="320.00004" y1="162.6087" x2="320.00004" y2="197.39135" gradientUnits="userSpaceOnUse" id="color-2"><stop offset="0" stop-color="#dedede" stop-opacity="0.20784"/><stop offset="1" stop-color="#dedede" stop-opacity="0"/></linearGradient><linearGradient x1="320.09619" y1="162.6087" x2="320.09619" y2="197.39135" gradientUnits="userSpaceOnUse" id="color-3"><stop offset="0" stop-color="#292929" stop-opacity="0"/><stop offset="1" stop-color="#292929" stop-opacity="0.25098"/></linearGradient></defs><g transform="translate(-296.57344,-156.47729)"><g stroke="none" stroke-miterlimit="10"><path d="M296.57345,180.00003c0,-12.99124 10.53148,-23.52273 23.52273,-23.52273c12.99124,0 23.52273,10.53148 23.52273,23.52273c0,12.99124 -10.53148,23.52273 -23.52273,23.52273c-12.99124,0 -23.52273,-10.53148 -23.52273,-23.52273z" fill="url(#color-1)" stroke-width="0"/><path d="M302.60873,197.39133v-34.78261h34.78261v34.78261z" fill="#232291" stroke-width="0"/><g stroke-width="0"><path d="M302.60874,197.39135v-34.78261h34.78261l-2.48896,2.57975l-29.14148,0.24634l-0.30739,29.42558z" fill="url(#color-2)"/><path d="M337.4875,162.6087v34.78261h-34.78261l2.88669,-2.57975l28.74375,-0.24634l0.59148,-29.36876z" fill="url(#color-3)"/></g><path d="M326.12255,170.1675c0,-0.20277 0.08047,-0.38675 0.21122,-0.52174c-1.25693,0.32182 -2.57756,0.49835 -4.01731,0.77021c-2.69637,0.50913 -5.38542,0.82551 -8.07589,1.13438c4.02368,-0.18714 8.0097,-0.63904 12.02023,-0.94886c-0.08706,-0.12249 -0.13825,-0.27227 -0.13825,-0.43399zM323.32844,166.12338c0,-0.08726 0.0149,-0.17104 0.0423,-0.24894c-3.75934,0.07273 -7.32442,0.28272 -10.90066,0.85275l-0.63267,0.2424c0.2487,0.01302 0.48719,0.02143 0.71161,0.02143c0.55733,0 1.11625,-0.00393 1.67639,-0.01039c0.81844,-0.07149 1.63714,-0.13771 2.45639,-0.20034c2.20322,-0.25833 4.44901,-0.38036 6.67386,-0.45598c-0.01774,-0.06395 -0.02722,-0.13134 -0.02722,-0.20094zM330.93355,164.3447c0.29014,-0.0632 0.58104,-0.12453 0.87326,-0.18348l-0.00601,-0.03081l1.4572,-0.28433c0.05115,-0.01101 0.10423,-0.01682 0.15866,-0.01682c0.41422,0 0.75,0.33578 0.75,0.75c0,0.19222 -0.07231,0.36755 -0.19121,0.50027l0.27821,-0.00019c0.0002,0 0.0004,0 0.0006,0c0.41422,0 0.75,0.33578 0.75,0.75c0,0.19381 -0.07352,0.37045 -0.19418,0.50356c0.01767,-0.001 0.03491,-0.00207 0.0517,-0.00321l0.02547,0.00751v-0.00794h1.25v0c0.41422,0 0.75,0.33578 0.75,0.75c0,0.31055 -0.18874,0.57701 -0.45778,0.69094l-1.35233,0.60855l-0.09907,-0.22015c-1.43021,0.7573 -2.96433,1.23981 -4.54382,1.70347l0.01407,0.0048l0.00042,-0.00673l1.17099,0.07318c0.39501,0.02144 0.7087,0.34852 0.7087,0.74888c0,0.2748 -0.1478,0.51509 -0.36824,0.6457l-0.94457,0.58128l-0.14238,-0.23136c-0.36038,0.23424 -0.74266,0.44783 -1.14191,0.64361c0.7607,-0.01172 1.52141,-0.0238 2.28213,-0.03626c1.00205,-0.00001 2.0041,-0.00002 3.00615,-0.00002h1.5c0.41422,0 0.75,0.33578 0.75,0.75c0,0.37815 -0.27986,0.69093 -0.64376,0.74253l-1.46951,0.23419l-0.02191,-0.13746c-0.96722,0.34667 -1.96836,0.63067 -2.99579,0.86228l-0.56066,0.23858l-0.04613,-0.10841c-0.12183,0.02483 -0.24402,0.04898 -0.36653,0.07244c-0.16758,0.08609 -0.33907,0.16612 -0.51403,0.24062c1.71573,-0.0166 3.43151,-0.02711 5.14772,-0.02711h0.92647c0.41422,0 0.75,0.33578 0.75,0.75c0,0.37887 -0.28093,0.69214 -0.64585,0.74283l-1.47039,0.22974l-0.03284,-0.21019c-0.42921,0.12492 -0.86209,0.23087 -1.29796,0.32241c0.09319,0.00225 0.18346,0.00345 0.27056,0.00345h1.17647c0.41422,0 0.75,0.33578 0.75,0.75c0,0.35692 -0.24932,0.65562 -0.58332,0.73141l-0.02817,0.00704c0.23291,0.12726 0.3909,0.37448 0.3909,0.6586c0,0.02943 -0.0017,0.05846 -0.005,0.087c0.1788,0.10431 0.31055,0.28046 0.35566,0.48888c0.67874,0.04593 0.67874,0.74765 0.67874,0.74765v0.07353c-0.05352,5.13369 -5.65994,3.99587 -9.06968,3.08613c-2.64874,-0.44276 -5.61554,-2.34735 -8.31882,-2.19092c-1.97746,0.11443 -3.54717,1.60322 -5.34256,2.17397c-2.8315,0.90013 -6.1837,0.17888 -8.67462,-1.40654c-0.8484,-0.20416 -1.37484,-0.52344 -2.19508,-1.10325l-0.47908,-0.98434c0,0 -0.31035,-0.68277 0.37243,-0.99312c0.68277,-0.31035 0.99313,0.37242 0.99313,0.37242l0.25622,0.63332c0.52231,0.3114 0.83917,0.49099 1.3252,0.60876c0.06195,0.00216 0.12058,0.01218 0.17349,0.02587c0.09406,-0.0509 0.20023,-0.08228 0.31308,-0.08871l1.22384,-0.08026c0.06113,-0.26839 0.26621,-0.48201 0.52974,-0.55535c-0.29263,0.00133 -0.58178,0.00167 -0.8668,0.00152l-0.01996,0.00148l0.00139,0.08548l-1.4978,0.02422c-0.0047,0.00009 -0.00941,0.00013 -0.01414,0.00013c-0.41422,0 -0.75,-0.33578 -0.75,-0.75c0,-0.39774 0.30961,-0.72317 0.70097,-0.74842l1.48953,-0.11033l0.00069,0.00934l0.02699,-0.01089c0.29561,-0.00016 0.59076,-0.00421 0.88547,-0.01174c0.2439,-0.06699 0.50209,-0.12216 0.7714,-0.1672c-0.40818,-0.00811 -0.80942,-0.01274 -1.20268,-0.01274h-1.5c-0.41422,0 -0.75,-0.33578 -0.75,-0.75c0,-0.34335 0.23072,-0.6328 0.54558,-0.7218c0.12144,-0.17464 0.31523,-0.29521 0.53796,-0.31829l1.48031,-0.17415l0.01902,0.16162c0.00286,-0.00004 0.00572,-0.00007 0.00857,-0.00011c1.89301,-0.56587 3.94,-0.87313 6.04674,-1.02737c-0.48485,-0.01503 -0.96656,-0.02921 -1.44446,-0.04164c-0.43221,0.00263 -0.86444,0.00409 -1.29667,0.00409c-1.52241,0.00001 -3.02923,0.13995 -4.48471,-0.01134c-0.39232,0.00592 -0.78469,0.00916 -1.17706,0.01053v0.00081h-1.5v0c-0.41422,0 -0.75,-0.33578 -0.75,-0.75c0,-0.27576 0.14882,-0.51676 0.37053,-0.64706h-1.38524c-0.41422,0 -0.75,-0.33578 -0.75,-0.75c0,-0.35762 0.25029,-0.65678 0.58526,-0.73185l0.99014,-0.24462l0.00355,0.01435l0.03371,-0.02256c0.41793,-0.05902 0.83659,-0.11048 1.25589,-0.15527c0.01533,-0.31563 0.22577,-0.58002 0.51329,-0.67517l1.01297,-0.36177l0.0071,0.01989l0.05368,-0.03873c0.23139,-0.04106 0.46274,-0.08049 0.69404,-0.11845c-0.11142,0.00432 -0.22261,0.00891 -0.33354,0.01378l-0.79287,0.03476c-0.01256,0.00063 -0.02521,0.00094 -0.03793,0.00094c-0.41422,0 -0.75,-0.33578 -0.75,-0.75c0,-0.35158 0.24192,-0.64667 0.56838,-0.72786l1.43143,-0.39039l0.03697,0.13558c0.17799,-0.08398 0.35721,-0.16557 0.5376,-0.24484c-0.53719,-0.03462 -1.06712,-0.08856 -1.58775,-0.16536l-0.00447,0.19225l-1.49743,-0.03483c-0.40716,-0.00814 -0.73473,-0.34074 -0.73473,-0.74985c0,-0.11719 0.02688,-0.22809 0.07481,-0.3269c-0.26012,-0.11772 -0.4411,-0.37955 -0.4411,-0.68364c0,-0.29212 0.16701,-0.54523 0.41075,-0.66906l1.05644,-0.56346l-1.12653,0.37551c-0.07926,0.02849 -0.16471,0.04402 -0.25378,0.04402c-0.41422,0 -0.75,-0.33578 -0.75,-0.75c0,-0.17898 0.0627,-0.34332 0.16732,-0.47225c-0.12937,-0.08504 -0.24335,-0.22873 -0.29652,-0.46799c-0.1627,-0.73214 0.56944,-0.89484 0.56944,-0.89484c0.61041,-0.12895 1.24462,-0.28834 1.75754,-0.64351l0.03296,-0.00314l-0.00673,-0.01212l0.64985,-0.36103c0.11057,-0.06422 0.23906,-0.101 0.37614,-0.101c0.41422,0 0.75,0.33578 0.75,0.75c0,0.12841 -0.03228,0.24929 -0.08915,0.35496c0.783,-0.20245 1.60938,-0.32624 2.33239,-0.51068l0.09499,0.02184v-0.02788h1.39706c0.41422,0 0.75,0.33578 0.75,0.75c0,0.06477 -0.00821,0.12763 -0.02365,0.18759c0.64992,-0.07113 1.32069,-0.05056 2.00674,-0.02257c0.31034,-0.00612 0.62074,-0.01326 0.93113,-0.02169c3.49424,-0.53713 7.08654,-0.76788 10.2706,-1.35228l0.01777,0.00472l-0.00099,-0.00722l0.86043,-0.1181c0.03731,-0.00572 0.07554,-0.00868 0.11445,-0.00868c0.41422,0 0.75,0.33578 0.75,0.75c0,0.32822 -0.21083,0.60719 -0.50446,0.70888c0.5046,-0.00057 1.00342,0.02168 1.49462,0.08523c0.067,0 0.13401,0 0.20102,0h0.76852l0.00651,-0.07034l0.78638,0.07281c0.15672,0.0127 0.29982,0.07359 0.41448,0.16782c0.58682,-0.07446 1.17395,-0.13357 1.76157,-0.16957zM335.32862,181.6933l-0.08524,0.02841c0.01396,0.03409 0.02549,0.06943 0.03435,0.10582c0.02261,-0.04456 0.04386,-0.09064 0.06369,-0.13829c-0.00425,0.00139 -0.00852,0.00275 -0.01281,0.00406zM333.53508,182.75573h-0.12386c-0.48424,0.12537 -0.95562,0.17884 -1.43795,0.19329c0.56459,0.05456 1.11411,0.05797 1.60582,-0.02385zM319.29444,178.64694c0.00027,-0.00164 0.00055,-0.00329 0.00083,-0.00494c-0.00576,0.00202 -0.01151,0.00402 -0.01727,0.00603zM316.88419,180.45004l-0.06589,-0.21572c-0.04051,0.01543 -0.08101,0.03061 -0.12151,0.04553c0.07405,0.11626 0.11696,0.2543 0.11696,0.40236c0,0.03081 -0.00186,0.06121 -0.00547,0.09105c0.52949,-0.26359 1.06961,-0.50034 1.63739,-0.65599c-0.05631,-0.02568 -0.10889,-0.05812 -0.1567,-0.09629zM314.72443,181.69154l-0.03868,-0.20996c-0.05759,0.01587 -0.11516,0.03133 -0.17273,0.04636c-0.03451,0.09753 -0.08861,0.1858 -0.15759,0.26006l-0.28942,0.3136c0.38936,-0.13881 0.76905,-0.31204 1.14533,-0.49976zM310.46079,182.29985c0,-0.08207 0.01318,-0.16105 0.03754,-0.23495c-0.48741,0.02249 -0.98073,0.03678 -1.48217,0.04976c0.47604,0.13867 0.96413,0.2426 1.45455,0.30751c-0.00653,-0.03981 -0.00993,-0.08067 -0.00993,-0.12232zM303.88726,173.90184v0.12253c0.08231,-0.03106 0.17153,-0.04805 0.26471,-0.04805h0.31124c-0.19236,-0.02203 -0.38436,-0.04677 -0.57594,-0.07448zM311.39841,166.90891c-0.02136,0.01008 -0.04273,0.0201 -0.06412,0.03006c0.13149,0.00881 0.26103,0.01708 0.38811,0.02433l-0.0401,-0.10467c-0.09461,0.0165 -0.18924,0.03325 -0.28389,0.05029zM305.01668,165.9313c0.10692,-0.04171 0.22166,-0.09206 0.34284,-0.14884c-0.13333,0.02594 -0.2671,0.05079 -0.40151,0.07446l0.03294,0.09883zM314.22486,168.84057c-0.5532,0.12982 -1.17568,0.33425 -1.83066,0.55591c0.30606,-0.006 0.61228,-0.01274 0.91851,-0.02058c0.54386,-0.18128 1.08717,-0.36491 1.63042,-0.55016c-0.23969,0.00605 -0.47914,0.01105 -0.71827,0.01483z" fill="#000000" stroke-width="0.5"/><path d="M318.97276,184.29985c-0.13635,0 -0.27268,0 -0.40903,0c0,0 -0.75,0 -0.75,-0.75c0,-0.01958 0.00051,-0.03864 0.00151,-0.05721c-0.02136,-0.11256 -0.01478,-0.24526 0.03698,-0.40054c0.23717,-0.71151 0.94869,-0.47434 0.94869,-0.47434l0.27886,0.09568c0.07097,0.03068 0.14693,0.05913 0.22617,0.08642c0.51241,0 1.02481,0 1.53722,0h0.80883c0.41422,0 0.75,0.33578 0.75,0.75c0,0.19046 -0.071,0.36434 -0.18796,0.49661l-0.51232,0.58551l-0.23583,-0.20636c-0.66807,0.63317 -1.26117,0.40412 -2.4931,-0.12576z" fill="#000000" stroke-width="0.5"/><path d="M327.87818,188.34585c-0.23717,0.71151 -0.94868,0.47434 -0.94868,0.47434l-0.54397,-0.28677c-1.9731,-2.43804 -8.94607,-0.47064 -11.23639,0.68726c0,0 -0.67082,0.33541 -1.00624,-0.33541c-0.33541,-0.67082 0.33542,-1.00623 0.33542,-1.00623c3.17365,-1.57182 10.2388,-3.30711 13.02832,-0.34216l-0.1028,-0.13971c0,0 0.71151,0.23717 0.47434,0.94868z" fill="#000000" stroke-width="0.5"/><path d="M306.93138,185.60868c0,-0.41422 0.33578,-0.75 0.75,-0.75c0.41422,0 0.75,0.33578 0.75,0.75c0,0.41422 -0.33578,0.75 -0.75,0.75c-0.41422,0 -0.75,-0.33578 -0.75,-0.75z" fill="#000000" stroke-width="0.5"/><path d="M311.26962,185.75573c0,-0.41422 0.33578,-0.75 0.75,-0.75c0.41422,0 0.75,0.33578 0.75,0.75c0,0.41422 -0.33578,0.75 -0.75,0.75c-0.41422,0 -0.75,-0.33578 -0.75,-0.75z" fill="#000000" stroke-width="0.5"/><path d="M309.13726,187.07926c0,-0.41421 0.33579,-0.75 0.75,-0.75c0.41421,0 0.75,0.33579 0.75,0.75c0,0.41421 -0.33579,0.75 -0.75,0.75c-0.41421,0 -0.75,-0.33579 -0.75,-0.75z" fill="#000000" stroke-width="0.5"/><path d="M329.13726,185.46161c0,-0.41421 0.33579,-0.75 0.75,-0.75c0.41421,0 0.75,0.33579 0.75,0.75c0,0.41421 -0.33579,0.75 -0.75,0.75c-0.41421,0 -0.75,-0.33579 -0.75,-0.75z" fill="#000000" stroke-width="0.5"/><path d="M333.25491,185.97632c0,-0.41421 0.33579,-0.75 0.75,-0.75c0.41421,0 0.75,0.33579 0.75,0.75c0,0.41421 -0.33579,0.75 -0.75,0.75c-0.41421,0 -0.75,-0.33579 -0.75,-0.75z" fill="#000000" stroke-width="0.5"/><path d="M331.56373,187.44691c0,-0.41421 0.33579,-0.75 0.75,-0.75c0.41421,0 0.75,0.33579 0.75,0.75c0,0.41421 -0.33579,0.75 -0.75,0.75c-0.41421,0 -0.75,-0.33579 -0.75,-0.75z" fill="#000000" stroke-width="0.5"/></g></g></svg>