<svg version="1.1" xmlns="http://www.w3.org/2000/svg" xmlns:xlink="http://www.w3.org/1999/xlink" width="268.01838" height="268.01838" viewBox="0,0,268.01838,268.01838"><defs><radialGradient cx="320.00001" cy="196.07772" r="134.00919" gradientUnits="userSpaceOnUse" id="color-1"><stop offset="0" stop-color="#000000" stop-opacity="0.52157"/><stop offset="1" stop-color="#000000" stop-opacity="0"/></radialGradient><linearGradient x1="320.00001" y1="292.66449" x2="320.00001" y2="196.97076" gradientUnits="userSpaceOnUse" id="color-2"><stop offset="0" stop-color="#173d90"/><stop offset="1" stop-color="#173d90" stop-opacity="0"/></linearGradient><linearGradient x1="320.00001" y1="148.31856" x2="320.00001" y2="167.16664" gradientUnits="userSpaceOnUse" id="color-3"><stop offset="0" stop-color="#5e91ff"/><stop offset="1" stop-color="#5e91ff" stop-opacity="0"/></linearGradient></defs><g transform="translate(-185.99082,-62.06852)"><g stroke="none" stroke-miterlimit="10"><path d="M185.99082,196.07772c0,-74.01123 59.99796,-134.00919 134.00919,-134.00919c74.01123,0 134.00919,59.99796 134.00919,134.00919c0,74.01123 -59.99796,134.00919 -134.00919,134.00919c-74.01123,0 -134.00919,-59.99796 -134.00919,-134.00919z" fill="url(#color-1)" stroke-width="0"/><path d="M241.62872,292.66449v-148.23282h156.74259v148.23282z" fill="#2158cd" stroke-width="0"/><path d="M398.37131,196.97076v95.69372h-156.74259v-95.69372z" fill="url(#color-2)" stroke-width="0"/><path d="M241.62872,167.16664v-18.84807h156.74259v18.84807z" fill="url(#color-3)" stroke-width="0"/><text transform="translate(255.80447,163.51135) scale(0.5,0.5)" font-size="40" xml:space="preserve" fill="#ffffff" stroke-width="1" font-family="&quot;LowerResolution&quot;, Scratch" font-weight="normal" text-anchor="start"><tspan x="0" dy="0">Incredible Creators !</tspan></text><text transform="translate(261.51899,176.54808) scale(0.3855,0.3855)" font-size="40" xml:space="preserve" fill="#ffffff" stroke-width="1" font-family="&quot;LowerResolution&quot;, Scratch" font-weight="normal" text-anchor="start"><tspan x="0" dy="0">Thank yous for Helping!</tspan></text><g fill="#ffffff"><path d="M246.98585,213.74772v-27.90557h27.90557v27.90557z" stroke-width="0"/><text transform="translate(277.45417,195.27056) scale(0.5,0.5)" font-size="40" xml:space="preserve" fill="#ffffff" stroke-width="1" font-family="&quot;LowerResolution&quot;, Scratch" font-weight="normal" text-anchor="start"><tspan x="0" dy="0">mopple</tspan></text><text transform="translate(277.16943,204.30524) scale(0.28307,0.28307)" font-size="40" xml:space="preserve" fill="#ffffff" stroke-width="1" font-family="&quot;LowerResolution&quot;, Scratch" font-weight="normal" text-anchor="start"><tspan x="0" dy="0">Creator of Amazings Game!</tspan><tspan x="0" dy="46.15px">Design! Yes!</tspan></text></g><g fill="#ffffff"><path d="M246.98586,253.32807v-27.90558h27.90557v27.90558z" stroke-width="0"/><text transform="translate(277.45419,234.85091) scale(0.5,0.5)" font-size="40" xml:space="preserve" fill="#ffffff" stroke-width="1" font-family="&quot;LowerResolution&quot;, Scratch" font-weight="normal" text-anchor="start"><tspan x="0" dy="0">mortem</tspan></text><text transform="translate(277.16943,243.8856) scale(0.28307,0.28307)" font-size="40" xml:space="preserve" fill="#ffffff" stroke-width="1" font-family="&quot;LowerResolution&quot;, Scratch" font-weight="normal" text-anchor="start"><tspan x="0" dy="0">Composed. H. Mode Mode </tspan><tspan x="0" dy="48px">Yes!</tspan></text></g><g fill="#ffffff"><path d="M246.98586,291.76942v-27.90557h27.90557v27.90558z" stroke-width="0"/><text transform="translate(277.45419,273.29226) scale(0.5,0.5)" font-size="40" xml:space="preserve" fill="#ffffff" stroke-width="1" font-family="&quot;LowerResolution&quot;, Scratch" font-weight="normal" text-anchor="start"><tspan x="0" dy="0">lee</tspan></text><text transform="translate(277.16943,282.32695) scale(0.28307,0.28307)" font-size="40" xml:space="preserve" fill="#ffffff" stroke-width="1" font-family="&quot;LowerResolution&quot;, Scratch" font-weight="normal" text-anchor="start"><tspan x="0" dy="0">Composed AMAZING Mode!</tspan></text></g></g></g></svg>