<svg version="1.1" xmlns="http://www.w3.org/2000/svg" xmlns:xlink="http://www.w3.org/1999/xlink" width="94.42335" height="265.29095" viewBox="0,0,94.42335,265.29095"><defs><linearGradient x1="278.91778" y1="44.37556" x2="278.91778" y2="51.29549" gradientUnits="userSpaceOnUse" id="color-1"><stop offset="0" stop-color="#2efffd"/><stop offset="1" stop-color="#054f4e"/></linearGradient><linearGradient x1="362.18794" y1="44.37556" x2="362.18794" y2="51.2955" gradientUnits="userSpaceOnUse" id="color-2"><stop offset="0" stop-color="#2efffd"/><stop offset="1" stop-color="#054f4e"/></linearGradient><linearGradient x1="320.00593" y1="170.07921" x2="320.00593" y2="309.6665" gradientUnits="userSpaceOnUse" id="color-3"><stop offset="0" stop-color="#ffc62e"/><stop offset="1" stop-color="#4f3305"/></linearGradient><linearGradient x1="320.00593" y1="170.07921" x2="320.00593" y2="309.6665" gradientUnits="userSpaceOnUse" id="color-4"><stop offset="0" stop-color="#000000" stop-opacity="0.29804"/><stop offset="1" stop-color="#000000" stop-opacity="0"/></linearGradient><linearGradient x1="319.78774" y1="170.6461" x2="319.78774" y2="209.25895" gradientUnits="userSpaceOnUse" id="color-5"><stop offset="0" stop-color="#fcff4f"/><stop offset="1" stop-color="#fcff4f" stop-opacity="0"/></linearGradient><linearGradient x1="320.00004" y1="80.64228" x2="320.00004" y2="175.06562" gradientUnits="userSpaceOnUse" id="color-6"><stop offset="0" stop-color="#ffc62e"/><stop offset="1" stop-color="#4f3305"/></linearGradient><linearGradient x1="320.00004" y1="84.26653" x2="320.00004" y2="158.03214" gradientUnits="userSpaceOnUse" id="color-7"><stop offset="0" stop-color="#fcff4f"/><stop offset="1" stop-color="#fcff4f" stop-opacity="0"/></linearGradient><linearGradient x1="320.00004" y1="80.7742" x2="320.00004" y2="175.19755" gradientUnits="userSpaceOnUse" id="color-8"><stop offset="0" stop-color="#000000" stop-opacity="0.39216"/><stop offset="1" stop-color="#000000" stop-opacity="0"/></linearGradient><linearGradient x1="320.00004" y1="118.27924" x2="320.00004" y2="175.42408" gradientUnits="userSpaceOnUse" id="color-9"><stop offset="0" stop-color="#000000"/><stop offset="1" stop-color="#0c0c0c"/></linearGradient><linearGradient x1="320.00004" y1="88.88657" x2="320.00004" y2="163.23687" gradientUnits="userSpaceOnUse" id="color-10"><stop offset="0" stop-color="#000000"/><stop offset="1" stop-color="#0c0c0c"/></linearGradient><radialGradient cx="334.27914" cy="112.91851" r="32.74416" gradientUnits="userSpaceOnUse" id="color-11"><stop offset="0" stop-color="#2d2d2d"/><stop offset="1" stop-color="#2d2d2d" stop-opacity="0"/></radialGradient></defs><g transform="translate(-272.78836,-44.37556)"><g stroke="none" stroke-miterlimit="10"><g><g><path d="M278.39396,47.83553c0.75,0 0.75,0.75 0.75,0.75v0.41844c-0.00594,2.08999 -0.58205,4.14742 -1.05357,6.17293c-0.50631,9.80091 1.02315,19.42608 1.24581,29.22098c-0.22006,8.63118 -0.40147,17.27514 -0.40147,25.90799c0,0 0,0.75 -0.75,0.75c-0.75,0 -0.75,-0.75 -0.75,-0.75c0,-8.63336 0.17886,-17.27844 0.40147,-25.91007c-0.22706,-9.86102 -1.8117,-19.56152 -1.23089,-29.42993c0.44586,-1.94766 1.04528,-3.95235 1.03865,-5.96191v-0.41844c0,0 0,-0.75 0.75,-0.75z" fill="#000000" stroke-width="0.5"/><path d="M275.45781,47.83553l0.33313,-1.48319l0.69053,-0.97359l1.14744,-0.75516l1.28887,-0.24803l1.45909,0.32179l1.04786,0.75352l0.73274,1.16719l0.22027,1.21747l-0.21694,1.20857l-0.61594,1.04314l-1.09576,0.85179l-1.53133,0.35646l-1.36575,-0.27999l-1.00994,-0.66451l-0.87565,-1.32943z" fill="url(#color-1)" stroke-width="0"/></g><g><path d="M363.46174,48.58553v0.41845c-0.00662,2.00956 0.5928,4.01425 1.03865,5.96191c0.5808,9.86841 -1.00384,19.56891 -1.2309,29.42993c0.22261,8.63163 0.40147,17.27671 0.40147,25.91007c0,0 0,0.75 -0.75,0.75c-0.75,0 -0.75,-0.75 -0.75,-0.75c0,-8.63286 -0.18141,-17.27681 -0.40147,-25.90799c0.22265,-9.79489 1.75212,-19.42007 1.24581,-29.22098c-0.47152,-2.02551 -1.04762,-4.08294 -1.05356,-6.17293v-0.41845c0,0 0,-0.75 0.75,-0.75c0.75,0 0.75,0.75 0.75,0.75z" fill="#000000" stroke-width="0.5"/><path d="M365.43929,49.02156l-0.87565,1.32943l-1.00994,0.66452l-1.36575,0.27999l-1.53132,-0.35646l-1.09576,-0.85179l-0.61594,-1.04314l-0.21694,-1.20858l0.22027,-1.21747l0.73274,-1.16719l1.04786,-0.75352l1.45909,-0.32179l1.28886,0.24803l1.14745,0.75516l0.69053,0.97359l0.33312,1.48318z" fill="url(#color-2)" stroke-width="0"/></g></g><g stroke-width="0"><g><path d="M281.87126,309.6665l17.98805,-139.58728h41.01276l11.87211,139.58728z" fill="url(#color-3)"/><path d="M281.87126,309.6665l17.98805,-139.58728l-1.0016,76.55709l7.15614,11.63579l12.4922,6.79247l13.78305,-6.95249l6.97448,-10.46249l1.6085,-77.57037l11.87211,139.58729z" fill="url(#color-4)"/></g><path d="M299.03334,209.25895l5.59886,-44.21171h31.46947l4.44048,44.21172z" fill="url(#color-5)"/></g><g stroke-width="0"><path d="M272.78836,127.85397l4.54557,-20.2383l9.42238,-13.28479l15.65698,-10.30422l17.58674,-3.38437l19.90951,4.39088l14.29819,10.28182l9.99835,15.92645l3.00563,16.61253l-2.96018,16.49113l-8.40457,14.2338l-14.95178,11.62278l-20.89514,4.86397l-18.63582,-3.82055l-13.78076,-9.06738l-11.9484,-18.14029z" fill="url(#color-6)"/><path d="M283.11719,121.14935l3.5511,-15.81061l7.36097,-10.37838l12.23158,-8.04989l13.73916,-2.64395l15.55375,3.43025l11.17007,8.03239l7.81093,12.4421l2.34807,12.97808l-2.31256,12.88323l-6.56584,11.11977l-11.68067,9.07998l-16.32375,3.79985l-14.55872,-2.9847l-10.76584,-7.08364l-9.33436,-14.1716z" fill="url(#color-7)"/><path d="M272.78836,127.9859l3.51099,-15.63205l2.6304,15.53397l12.07213,15.47847l13.15468,10.68657l16.41727,2.76275l20.00548,-4.14932l15.52268,-11.84573l6.57772,-12.97062l1.52637,-16.47657l3.00563,16.61253l-2.96018,16.49113l-8.40457,14.2338l-14.95178,11.62278l-20.89514,4.86397l-18.63583,-3.82055l-13.78075,-9.06739l-11.9484,-18.14029z" fill="url(#color-8)"/></g><g stroke-width="0"><path d="M291.42761,146.85167l2.75097,-12.24819l5.7024,-8.03993l9.47558,-6.23609l10.64346,-2.04821l12.0492,2.65735l8.65325,6.22254l6.05098,9.63866l1.819,10.05388l-1.7915,9.9804l-5.08643,8.61426l-9.04879,7.03409l-12.6457,2.94366l-11.27837,-2.31219l-8.34009,-5.48756l-7.23115,-10.97848z" fill="url(#color-9)"/><path d="M282.82488,126.06174l3.57925,-15.93593l7.41931,-10.46063l12.32853,-8.11369l13.84805,-2.66491l15.67703,3.45745l11.2586,8.09605l7.87285,12.54072l2.36667,13.08095l-2.33089,12.98535l-6.61788,11.2079l-11.77324,9.15194l-16.45313,3.82996l-14.67412,-3.00835l-10.85117,-7.13978l-9.40834,-14.28393z" fill="url(#color-10)"/></g><path d="M287.25588,126.06173l3.15263,-14.03649l6.53499,-9.21381l10.85907,-7.1466l12.19747,-2.34727l13.80845,3.04534l9.91666,7.13106l6.93446,11.04596l2.08459,11.52179l-2.05307,11.4376l-5.82908,9.872l-10.36996,8.0611l-14.49204,3.37346l-12.92507,-2.64978l-9.55779,-6.28878l-8.28694,-12.58139z" fill="url(#color-11)" stroke-width="0"/><path d="M308.54249,162.03862c0,-0.34358 0.1574,-0.52977 0.32798,-0.63066c0.16384,-0.78698 0.32934,-1.846 1.02093,-2.354c1.13119,-0.83091 3.08522,-0.59073 4.38065,-0.56226c3.19404,0.0702 6.3771,0.13301 9.57358,0.13301c1.25557,0 4.16786,-0.53964 5.2629,0.09735c1.26844,0.73785 0.63176,2.02346 0.46555,3.04808c-1.08653,1.56508 -2.13279,1.15168 -3.93342,1.15168c-3.71785,0 -7.43569,0 -11.15354,0h-0.66598c0,0 -0.28013,0 -0.49798,-0.17121c-1.25155,0.07461 -2.50667,0.03801 -3.76426,0.03801h-0.26639c0,0 -0.75,0 -0.75,-0.75zM314.26088,161.16122c0,0 0.44252,-0.05531 0.68775,0.2606c2.96948,0 6.34197,0 9.19202,0c0.62517,0 3.90642,0.32866 4.02965,-0.18028c0.48266,-2.23361 -2.51913,-1.11682 -4.32468,-1.11682c-3.20742,0 -6.40153,-0.06294 -9.60654,-0.13338c-0.78613,-0.01728 -2.66192,-0.2712 -3.41438,0.23691c-0.17419,0.11763 -0.3174,0.63101 -0.41175,1.06524c1.28595,0.01164 2.57138,0.02912 3.84793,-0.13227z" fill="#00fff0" stroke-width="0.5"/><path d="M305.36948,131.59209c-1.48613,0.38543 -2.57667,0.33584 -2.51589,-0.8542c-1.93856,-0.02665 -3.87787,-0.04931 -5.81506,-0.04931c0,0 -0.75,0 -0.75,-0.75c0,-0.75 0.75,-0.75 0.75,-0.75c4.57243,0 9.16141,0.1407 13.7191,0.1332h0.39959c0,0 0.75,0 0.75,0.75c0,0.75 -0.75,0.75 -0.75,0.75h-0.39959c-1.68665,-0.00254 -3.37687,-0.02143 -5.06874,-0.04422z" fill="#00fff0" stroke-width="0.5"/><path d="M335.79588,131.26808c-1.45141,1.32253 -3.10363,1.28273 -4.13144,-0.46131c0,0 -0.02264,-0.04528 -0.04439,-0.11819c-2.27332,0 -4.50751,0 -6.61052,0c0,0 -0.75,0 -0.75,-0.75c0,-0.75 0.75,-0.75 0.75,-0.75c5.99378,0 11.98757,0 17.98135,0h1.06556c0,0 0.75,0 0.75,0.75c0,0.75 -0.75,0.75 -0.75,0.75c-2.56113,0 -5.31681,0 -8.10077,0zM333.46225,130.68858c0.17867,0.07273 0.38403,0.06679 0.5878,0c-0.196,0 -0.39195,0 -0.5878,0z" fill="#00fff0" stroke-width="0.5"/><path d="M303.96713,115.01827c-0.53033,-0.53033 0,-1.06066 0,-1.06066l0.2868,-0.25513c1.46656,-2.43298 5.78144,-3.91937 8.11207,-1.59684c1.87108,1.86458 1.88311,6.21153 1.66927,8.57718c0,0 -0.0679,0.74692 -0.81482,0.67902c-0.74692,-0.0679 -0.67902,-0.81482 -0.67902,-0.81482c0.17676,-1.93286 0.267,-5.86803 -1.26102,-7.40625c-1.60889,-1.61963 -4.7863,-0.26485 -5.74023,1.33346l-0.51238,0.54404c0,0 -0.53033,0.53033 -1.06066,0z" fill="#00fff0" stroke-width="0.5"/></g></g></svg>