<svg version="1.1" xmlns="http://www.w3.org/2000/svg" xmlns:xlink="http://www.w3.org/1999/xlink" width="47.04546" height="47.04546" viewBox="0,0,47.04546,47.04546"><defs><radialGradient cx="320.09617" cy="180.00001" r="23.52273" gradientUnits="userSpaceOnUse" id="color-1"><stop offset="0" stop-color="#000000" stop-opacity="0.68235"/><stop offset="1" stop-color="#000000" stop-opacity="0"/></radialGradient><linearGradient x1="320.00003" y1="162.6087" x2="320.00003" y2="197.39133" gradientUnits="userSpaceOnUse" id="color-2"><stop offset="0" stop-color="#dedede" stop-opacity="0.20784"/><stop offset="1" stop-color="#dedede" stop-opacity="0"/></linearGradient><linearGradient x1="320.09618" y1="162.6087" x2="320.09618" y2="197.39133" gradientUnits="userSpaceOnUse" id="color-3"><stop offset="0" stop-color="#292929" stop-opacity="0"/><stop offset="1" stop-color="#292929" stop-opacity="0.25098"/></linearGradient></defs><g transform="translate(-296.57343,-156.47727)"><g stroke="none" stroke-miterlimit="10"><path d="M296.57344,180.00001c0,-12.99124 10.53148,-23.52273 23.52273,-23.52273c12.99124,0 23.52273,10.53148 23.52273,23.52273c0,12.99124 -10.53148,23.52273 -23.52273,23.52273c-12.99124,0 -23.52273,-10.53148 -23.52273,-23.52273z" fill="url(#color-1)" stroke-width="0"/><path d="M302.60872,197.39131v-34.78261h34.78261v34.78261z" fill="#c9ab2c" stroke-width="0"/><g stroke-width="0"><path d="M302.60873,197.39133v-34.78261h34.78261l-2.48896,2.57975l-29.14148,0.24634l-0.30739,29.42558z" fill="url(#color-2)"/><path d="M337.48749,162.6087v34.78261h-34.78261l2.88669,-2.57975l28.74375,-0.24634l0.59148,-29.36876z" fill="url(#color-3)"/></g><path d="M330.46297,165.55151c0.6103,-0.43593 1.04623,0.17437 1.04623,0.17437l0.76107,1.38462c-0.13553,0.09611 -0.27107,0.19221 -0.4066,0.28832l0.1735,0.18485l-1.01023,0.94816c-0.00507,0.00478 -0.0102,0.00949 -0.0154,0.01413c0.04274,-0.00596 0.08845,-0.00915 0.13736,-0.00915c0.75,0 0.75,0.75 0.75,0.75c0,1.13011 0,2.56673 0,3.75563c0.60863,0.03504 1.19676,0.13028 1.4321,0.36724c0.27191,0.27378 0.21042,2.5034 0.24762,2.77962c0.23782,1.76616 2.30038,6.18712 0.57679,7.77743c-0.49161,0.45359 -1.32842,0.16308 -1.99565,0.21026c-2.39876,0.16961 -4.83538,0.10733 -7.23855,0.08872c-4.99985,-0.03873 -9.9997,-0.07745 -14.99955,-0.11618c-0.89123,-0.0069 -4.45278,0.36285 -5.04406,-0.27493c-0.46675,-0.50345 -0.09753,-1.37079 -0.09652,-2.05732c0.00296,-2.01058 0.21699,-4.10256 0.63447,-6.06261c0,0 0.15715,-0.73335 0.8905,-0.5762c0.73335,0.15715 0.5762,0.8905 0.5762,0.8905c-0.41997,1.94724 -0.2825,3.89993 -0.60463,5.85007c-0.05338,0.32318 -0.52272,0.69556 -0.30002,0.93577c0.05269,0.05684 3.64231,-0.20765 3.95567,-0.20522c4.99985,0.03873 9.9997,0.07745 14.99955,0.11618c1.90177,0.01473 3.79556,-0.00551 5.6969,-0.05187c0.83786,-0.02043 1.89132,0.71464 2.5099,0.14914c0.67042,-0.6129 -0.51045,-4.24392 -0.67852,-4.93895c-0.27568,-1.14001 0.6418,-2.74172 -0.2443,-3.51013c-0.16722,-0.14501 -3.11115,0.12287 -3.4429,0.12287c-2.49717,-0.00001 -4.99419,0.03931 -7.49119,0.06736c-4.28651,0.04816 -9.27989,-0.64926 -13.4519,0.41024l-0.5,0.125c0,0 -0.72761,0.1819 -0.90951,-0.54571c-0.11904,-0.47618 0.15145,-0.71863 0.35261,-0.82933c0,-1.24252 0,-2.48504 0,-3.72757v-1.125c0,0 0,-0.44532 0.34315,-0.64967l-0.20943,-1.36128c0,0 -0.00364,-0.02364 -0.00539,-0.06312c-0.10142,0.16907 -0.28737,0.32408 -0.62833,0.32408c-0.75,0 -0.75,-0.75 -0.75,-0.75l0.28148,-0.71065c1.02078,-0.75124 3.64333,-1.38037 3.31908,1.12294c-0.01214,0.09376 -0.0324,0.18469 -0.0594,0.27328l0.01746,0.00615l-0.4923,1.39844c-0.05506,0.16894 -0.16847,0.31152 -0.31642,0.40395c0.00011,0.00386 0.00011,0.00589 0.00011,0.00589c0,1.13083 0,3.12393 0,4.4695c4.13279,-0.80852 8.83452,-0.23033 12.99195,-0.27704c3.00286,-0.03374 6.00498,-0.06889 9.00805,-0.06746c0.03579,0.00002 0.07773,-0.00047 0.125,-0.00127c0,-1.12458 0,-2.24915 0,-3.37373v-0.375c0,0 0,-0.33677 0.22567,-0.55898c-0.03659,0.00549 -0.07405,0.00833 -0.11217,0.00833c-0.41421,0 -0.75,-0.33579 -0.75,-0.75c0,-0.07281 0.01038,-0.1432 0.02973,-0.20977l0.38046,-1.42671c-0.06548,-0.21756 -0.07282,-0.53875 0.29038,-0.79818z" fill="#000000" stroke-width="0.5"/><path d="M312.7739,178.28681c0,-0.41421 0.33579,-0.75 0.75,-0.75c0.41421,0 0.75,0.33579 0.75,0.75c0,0.41421 -0.33579,0.75 -0.75,0.75c-0.41421,0 -0.75,-0.33579 -0.75,-0.75z" fill="#000000" stroke-width="0.5"/><path d="M323.8989,178.03681c0,-0.41421 0.33579,-0.75 0.75,-0.75c0.41421,0 0.75,0.33579 0.75,0.75c0,0.41421 -0.33579,0.75 -0.75,0.75c-0.41421,0 -0.75,-0.33579 -0.75,-0.75z" fill="#000000" stroke-width="0.5"/><path d="M329.2739,186.03681c0.75,0 0.75,0.75 0.75,0.75v0.375c-0.38281,2.2312 -2.86602,1.50007 -4.78866,1.49994c-4.48948,-0.00031 -9.09978,0.2809 -13.57189,-0.17259c-1.80315,-0.18285 -3.3481,0.04343 -3.63945,-1.95234c0,0 0,-0.75 0.75,-0.75c0.75,0 0.75,0.75 0.75,0.75c-0.17427,0.25223 4.36138,0.58075 5.23216,0.60481c2.98926,0.08261 5.98905,0.01962 8.97931,0.01996c1.02033,0.00012 4.80498,0.01669 4.78852,0.00023v-0.375c0,0 0,-0.75 0.75,-0.75z" fill="#000000" stroke-width="0.5"/></g></g></svg>