<svg version="1.1" xmlns="http://www.w3.org/2000/svg" xmlns:xlink="http://www.w3.org/1999/xlink" width="111.4434" height="213.43648" viewBox="0,0,111.4434,213.43648"><defs><linearGradient x1="318.21895" y1="111.29509" x2="318.21895" y2="309.21844" gradientUnits="userSpaceOnUse" id="color-1"><stop offset="0" stop-color="#643728"/><stop offset="1" stop-color="#2f1913"/></linearGradient><linearGradient x1="318.21895" y1="111.29509" x2="318.21895" y2="166.68965" gradientUnits="userSpaceOnUse" id="color-2"><stop offset="0" stop-color="#2f1913"/><stop offset="1" stop-color="#643728"/></linearGradient><linearGradient x1="320.71536" y1="118.59656" x2="319.28465" y2="193.58425" gradientUnits="userSpaceOnUse" id="color-3"><stop offset="0" stop-color="#47271c" stop-opacity="0"/><stop offset="1" stop-color="#47271c"/></linearGradient><radialGradient cx="299.75202" cy="135.21389" r="54.88058" gradientUnits="userSpaceOnUse" id="color-4"><stop offset="0" stop-color="#cc7452"/><stop offset="1" stop-color="#cc7452" stop-opacity="0"/></radialGradient><radialGradient cx="320.29823" cy="144.0988" r="55.54924" gradientUnits="userSpaceOnUse" id="color-5"><stop offset="0" stop-color="#381f16" stop-opacity="0.63529"/><stop offset="1" stop-color="#381f16" stop-opacity="0"/></radialGradient><radialGradient cx="319.61323" cy="171.91171" r="54.40759" gradientUnits="userSpaceOnUse" id="color-6"><stop offset="0" stop-color="#381f16" stop-opacity="0.63529"/><stop offset="1" stop-color="#381f16" stop-opacity="0"/></radialGradient><linearGradient x1="319.99974" y1="141.51897" x2="319.99974" y2="166.8004" gradientTransform="translate(-970.67872,-551.2842) scale(3.6509,3.6509)" gradientUnits="userSpaceOnUse" id="color-7"><stop offset="0" stop-color="#7d7d7d"/><stop offset="1" stop-color="#252525"/></linearGradient><radialGradient cx="313.93931" cy="105.91978" r="21.35881" gradientUnits="userSpaceOnUse" id="color-8"><stop offset="0" stop-color="#ffffff"/><stop offset="1" stop-color="#979797"/></radialGradient><radialGradient cx="332.66959" cy="106.75595" r="21.3588" gradientUnits="userSpaceOnUse" id="color-9"><stop offset="0" stop-color="#ffffff"/><stop offset="1" stop-color="#979797"/></radialGradient><radialGradient cx="329.8266" cy="113.77981" r="7.8128" gradientUnits="userSpaceOnUse" id="color-10"><stop offset="0" stop-color="#333333"/><stop offset="1" stop-color="#000000"/></radialGradient><radialGradient cx="311.09632" cy="113.77981" r="7.8128" gradientUnits="userSpaceOnUse" id="color-11"><stop offset="0" stop-color="#333333"/><stop offset="1" stop-color="#000000"/></radialGradient></defs><g transform="translate(-264.40406,-95.78196)"><g stroke="none" stroke-miterlimit="10"><g><g stroke-width="0"><path d="M309.80328,309.21844v-197.92335h16.83135v197.92335z" fill="url(#color-1)"/><path d="M309.80328,166.68965v-55.39457h16.83135v55.39457z" fill="url(#color-2)"/></g><g stroke-width="0"><path d="M264.40407,193.58425l1.4307,-74.98769h109.76117l-1.4307,74.98769z" fill="#8e5139"/><path d="M264.40407,193.58425l1.4307,-74.98769h109.76117l-1.4307,74.98769z" fill="url(#color-3)"/><path d="M264.40407,193.58425l1.4307,-74.98769h109.76117l-1.4307,74.98769z" fill="url(#color-4)"/></g><g stroke-width="0.5"><path d="M375.84747,142.259c0,0.75 -0.75,0.75 -0.75,0.75h-1.14165c-3.20567,0 -5.7206,0.48996 -9.2414,0.44698c-7.84048,2.6352 -17.90137,1.15133 -26.24809,1.15133c-4.3277,0 -8.65541,0 -12.98311,0c-1.9472,0 -6.50012,-0.87699 -8.28771,-0.07275c-0.25994,0.11695 -0.25324,0.58413 -0.52285,0.67664c-1.25956,0.4322 -2.78591,-0.27707 -3.98323,0.30578c-0.42411,-0.35915 -0.96089,-0.61717 -1.27235,-1.07745c-0.20544,-0.30359 0.03526,-1.20826 -0.29919,-1.05821c-1.71786,0.7707 -4.08663,3.80444 -6.1423,3.23705c-1.4771,-0.40769 -0.43376,-2.35946 -1.71962,-2.48904c-4.0957,-0.41275 -8.48901,0.02131 -12.60896,0.02131c-8.38268,0 -16.76535,0 -25.14803,0c0,0 -0.75,0 -0.75,-0.75c0,-0.75 0.75,-0.75 0.75,-0.75c8.38268,0 16.76535,0 25.14803,0c3.90895,0 9.17565,-0.91463 12.96401,0.02131c0.47505,0.11737 0.98342,0.32485 1.28463,0.71051c0.39301,0.50319 -0.05128,1.77887 0.58562,1.82372c2.06823,0.14563 4.63636,-5.30534 6.94823,-2.73831c0.3589,0.39852 0.23793,1.04769 0.40773,1.55641c1.34393,-1.73062 1.98994,0.58422 3.09656,-0.11848c1.83554,-1.16556 4.2416,-0.79848 6.54942,-0.79848c5.3277,0 10.65541,0 15.98311,0c8.29899,0 18.20386,1.45347 26.00781,-1.13197c3.57038,-0.03346 6.1426,-0.46634 9.48167,-0.46634h1.14165c0,0 0.75,0 0.75,0.75z" fill="url(#color-5)"/><path d="M374.02083,170.34361c0,0.75 -0.75,0.75 -0.75,0.75c-1.29387,0 -3.0444,0 -4.33828,0c-4.23969,0 -9.83107,-0.66869 -13.93913,0.19615c-1.48575,0.31278 -2.30507,1.67604 -3.76675,2.09832c-1.96082,0.56647 -4.36555,1.17046 -6.39435,1.04174c-1.61633,-2.08309 -3.0537,0.59071 -5.43815,-0.20762c-1.27161,-0.42574 -0.54233,-1.36673 -1.03973,-2.12851c-0.28893,-0.4425 -1.01661,0.31449 -1.54254,0.36625c-1.12439,0.11066 -2.40993,0.00365 -3.53375,0.00365c-4.43552,0 -8.87104,0 -13.30656,0c-3.31607,0 -6.63215,0 -9.94822,0c-1.01784,0 -2.65206,0.2624 -3.64229,-0.03218c-0.60902,-0.18118 -0.90444,-0.9802 -1.51465,-1.15736c-0.71961,-0.20892 -2.80476,0.04789 -3.51961,0.04789c-2.99156,0 -5.98311,0 -8.97466,0c-8.8055,0 -17.61101,0 -26.41651,0c0,0 -0.75,0 -0.75,-0.75c0,-0.75 0.75,-0.75 0.75,-0.75c8.8055,0 17.61101,0 26.41651,0c2.99156,0 5.98311,0 8.97466,0c0.96839,0 3.15526,-0.22539 4.047,0.04789c0.57804,0.17714 0.83746,0.97133 1.42193,1.12595c3.74529,0.9908 9.25302,-0.03218 13.15584,-0.03218c4.93552,0 9.87104,0 14.80656,0c0.93869,0 3.76547,-0.66718 4.45335,-0.08676c0.54314,0.45829 0.07817,1.92925 0.78691,1.98144c1.96467,0.14467 4.28778,-2.19068 5.52169,0.24904c1.73595,-0.30425 3.5582,-0.72805 5.25904,-1.15701c1.38004,-0.34805 2.28316,-1.78933 3.7596,-2.09617c4.2989,-0.89343 9.9562,-0.26051 14.37381,-0.26051c1.29387,0 2.58774,0 3.88161,0h0.45666c0,0 0.75,0 0.75,0.75z" fill="url(#color-6)"/></g></g><text transform="translate(265.87376,150.9995) scale(0.27391,0.27391)" font-size="40" xml:space="preserve" fill="url(#color-7)" stroke-width="1" font-family="&quot;LowerResolution&quot;, Scratch" font-weight="normal" text-anchor="start"><tspan x="0" dy="0">Sorry! I wasn't available today.</tspan><tspan x="0" dy="46.15px">-Blank</tspan></text><text transform="translate(265.87376,152.04961) scale(0.27391,0.27391)" font-size="40" xml:space="preserve" fill="#ffffff" stroke-width="1" font-family="&quot;LowerResolution&quot;, Scratch" font-weight="normal" text-anchor="start"><tspan x="0" dy="0">Sorry! I wasn't available today.</tspan><tspan x="0" dy="46.15px">-Blank</tspan></text><g stroke-width="0"><g><path d="M319.56522,117.14077l-1.92514,12.64378l-8.00043,8.71503l-7.94319,-8.87601l-1.98237,-12.48279l2.14675,-13.26774l7.77882,-8.09108l7.48383,7.32816z" fill="url(#color-8)"/><path d="M338.12827,117.14077l-1.92514,12.64378l-8.00043,8.71503l-7.94319,-8.87601l-1.98237,-12.48279l2.14675,-13.26774l7.77882,-8.09108l7.48383,7.32816z" fill="url(#color-9)"/></g><g><path d="M331.83336,117.14077l-0.70419,4.62494l-2.92646,3.18785l-2.90553,-3.24675l-0.72513,-4.56605l0.78526,-4.85318l2.8454,-2.95962l2.7375,2.68055z" fill="url(#color-10)"/><path d="M313.10308,117.14077l-0.70419,4.62494l-2.92646,3.18785l-2.90553,-3.24675l-0.72513,-4.56605l0.78526,-4.85318l2.8454,-2.95962l2.7375,2.68055z" fill="url(#color-11)"/></g></g></g></g></svg>