<svg version="1.1" xmlns="http://www.w3.org/2000/svg" xmlns:xlink="http://www.w3.org/1999/xlink" width="268.01838" height="318.16465" viewBox="0,0,268.01838,318.16465"><defs><radialGradient cx="320.00001" cy="196.07772" r="134.00919" gradientUnits="userSpaceOnUse" id="color-1"><stop offset="0" stop-color="#000000" stop-opacity="0.52157"/><stop offset="1" stop-color="#000000" stop-opacity="0"/></radialGradient><linearGradient x1="320.00001" y1="292.66449" x2="320.00001" y2="196.97076" gradientUnits="userSpaceOnUse" id="color-2"><stop offset="0" stop-color="#173d90"/><stop offset="1" stop-color="#173d90" stop-opacity="0"/></linearGradient><linearGradient x1="320.00001" y1="104.12064" x2="320.00001" y2="122.96873" gradientUnits="userSpaceOnUse" id="color-3"><stop offset="0" stop-color="#5e91ff"/><stop offset="1" stop-color="#5e91ff" stop-opacity="0"/></linearGradient></defs><g transform="translate(-185.99082,-62.06852)"><g stroke="none" stroke-miterlimit="10"><path d="M185.99082,196.07772c0,-74.01123 59.99796,-134.00919 134.00919,-134.00919c74.01123,0 134.00919,59.99796 134.00919,134.00919c0,74.01123 -59.99796,134.00919 -134.00919,134.00919c-74.01123,0 -134.00919,-59.99796 -134.00919,-134.00919z" fill="url(#color-1)" stroke-width="0"/><path d="M241.62872,292.66449v-193.17355h156.74259v193.17355z" fill="#2158cd" stroke-width="0"/><path d="M398.37131,196.97076v95.69372h-156.74259v-95.69372z" fill="url(#color-2)" stroke-width="0"/><path d="M241.62872,122.96873v-18.84807h156.74259v18.84807z" fill="url(#color-3)" stroke-width="0"/><g fill="#ffffff" stroke-width="1" font-family="&quot;LowerResolution&quot;, Scratch" font-weight="normal" font-size="40" text-anchor="start"><g><text transform="translate(262.31935,119.54469) scale(0.5,0.5)" font-size="40" xml:space="preserve" fill="#ffffff"><tspan x="0" dy="0">STOP IT STOP IT</tspan></text><text transform="translate(262.31935,137.54919) scale(0.5,0.5)" font-size="40" xml:space="preserve" fill="#ffffff"><tspan x="0" dy="0">STOP IT STOP IT</tspan></text></g><g><text transform="translate(262.31935,153.67822) scale(0.5,0.5)" font-size="40" xml:space="preserve" fill="#ffffff"><tspan x="0" dy="0">STOP IT STOP IT</tspan></text><text transform="translate(262.31935,171.68272) scale(0.5,0.5)" font-size="40" xml:space="preserve" fill="#ffffff"><tspan x="0" dy="0">STOP IT STOP IT</tspan></text></g></g><g fill="#ffffff" stroke-width="1" font-family="&quot;LowerResolution&quot;, Scratch" font-weight="normal" font-size="40" text-anchor="start"><g><text transform="translate(262.31935,186.68648) scale(0.5,0.5)" font-size="40" xml:space="preserve" fill="#ffffff"><tspan x="0" dy="0">STOP IT STOP IT</tspan></text><text transform="translate(262.31935,204.69098) scale(0.5,0.5)" font-size="40" xml:space="preserve" fill="#ffffff"><tspan x="0" dy="0">STOP IT STOP IT</tspan></text></g><g><text transform="translate(262.31935,220.82001) scale(0.5,0.5)" font-size="40" xml:space="preserve" fill="#ffffff"><tspan x="0" dy="0">STOP IT STOP IT</tspan></text><text transform="translate(262.31935,238.82451) scale(0.5,0.5)" font-size="40" xml:space="preserve" fill="#ffffff"><tspan x="0" dy="0">STOP IT STOP IT</tspan></text></g></g><g fill="#ffffff" stroke-width="1" font-family="&quot;LowerResolution&quot;, Scratch" font-weight="normal" font-size="40" text-anchor="start"><g><text transform="translate(262.31935,254.20335) scale(0.5,0.5)" font-size="40" xml:space="preserve" fill="#ffffff"><tspan x="0" dy="0">STOP IT STOP IT</tspan></text><text transform="translate(262.31935,272.20785) scale(0.5,0.5)" font-size="40" xml:space="preserve" fill="#ffffff"><tspan x="0" dy="0">STOP IT STOP IT</tspan></text></g><g><text transform="translate(262.31935,288.33689) scale(0.5,0.5)" font-size="40" xml:space="preserve" fill="#ffffff"><tspan x="0" dy="0">STOP IT STOP IT</tspan></text><text transform="translate(262.31935,306.34139) scale(0.5,0.5)" font-size="40" xml:space="preserve" fill="#ffffff"><tspan x="0" dy="0">STOP IT STOP IT</tspan></text></g></g><g fill="#ffffff" stroke-width="1" font-family="&quot;LowerResolution&quot;, Scratch" font-weight="normal" font-size="40" text-anchor="start"><g><text transform="translate(262.31935,321.34514) scale(0.5,0.5)" font-size="40" xml:space="preserve" fill="#ffffff"><tspan x="0" dy="0">STOP IT STOP IT</tspan></text><text transform="translate(262.31935,339.34964) scale(0.5,0.5)" font-size="40" xml:space="preserve" fill="#ffffff"><tspan x="0" dy="0">STOP IT STOP IT</tspan></text></g><g><text transform="translate(262.31935,355.47868) scale(0.5,0.5)" font-size="40" xml:space="preserve" fill="#ffffff"><tspan x="0" dy="0">STOP IT STOP IT</tspan></text><text transform="translate(262.31935,373.48318) scale(0.5,0.5)" font-size="40" xml:space="preserve" fill="#ffffff"><tspan x="0" dy="0">STOP IT STOP IT</tspan></text></g></g></g></g></svg>