<svg version="1.1" xmlns="http://www.w3.org/2000/svg" xmlns:xlink="http://www.w3.org/1999/xlink" width="50.92718" height="55.96588" viewBox="0,0,50.92718,55.96588"><defs><radialGradient cx="320.71434" cy="198.22349" r="22.99291" gradientUnits="userSpaceOnUse" id="color-1"><stop offset="0" stop-color="#000000"/><stop offset="1" stop-color="#000000" stop-opacity="0"/></radialGradient><radialGradient cx="312.81404" cy="187.112" r="13.91946" gradientUnits="userSpaceOnUse" id="color-2"><stop offset="0" stop-color="#a4a4a4"/><stop offset="1" stop-color="#4f4f4f"/></radialGradient><linearGradient x1="320.71434" y1="186.12376" x2="320.71434" y2="210.32322" gradientUnits="userSpaceOnUse" id="color-3"><stop offset="0" stop-color="#1c1c1c"/><stop offset="1" stop-color="#373737"/></linearGradient><radialGradient cx="324.29918" cy="193.22058" r="10.73834" gradientUnits="userSpaceOnUse" id="color-4"><stop offset="0" stop-color="#0e4873"/><stop offset="1" stop-color="#05092b"/></radialGradient><radialGradient cx="321.94664" cy="197.02615" r="9.36263" gradientUnits="userSpaceOnUse" id="color-5"><stop offset="0" stop-color="#7adaff" stop-opacity="0.73725"/><stop offset="1" stop-color="#7adaff" stop-opacity="0"/></radialGradient><linearGradient x1="309.77864" y1="165.25053" x2="309.77864" y2="187.41057" gradientUnits="userSpaceOnUse" id="color-6"><stop offset="0" stop-color="#434343"/><stop offset="1" stop-color="#252525"/></linearGradient><linearGradient x1="332.95171" y1="165.25053" x2="332.95171" y2="187.41057" gradientUnits="userSpaceOnUse" id="color-7"><stop offset="0" stop-color="#434343"/><stop offset="1" stop-color="#252525"/></linearGradient></defs><g transform="translate(-295.9016,-165.25052)"><g stroke="none" stroke-miterlimit="10"><path d="M343.70726,198.22349c0,12.69866 -10.29431,22.99291 -22.99291,22.99291c-12.69865,0 -22.99291,-10.29427 -22.99291,-22.99291c0,-12.69866 10.29426,-22.99291 22.99291,-22.99291c12.69865,0 22.99291,10.29427 22.99291,22.99291" fill="url(#color-1)" fill-rule="evenodd" stroke-width="0.07853" stroke-linecap="round" stroke-linejoin="round"/><path d="M334.63381,198.22349c0,7.68752 -6.23197,13.91946 -13.91947,13.91946c-7.68752,0 -13.91947,-6.23196 -13.91947,-13.91946c0,-7.68752 6.23196,-13.91947 13.91947,-13.91947c7.68752,0 13.91947,6.23196 13.91947,13.91947" fill="url(#color-2)" fill-rule="evenodd" stroke-width="0.07853" stroke-linecap="round" stroke-linejoin="round"/><path d="M332.81406,198.22349c0,6.6825 -5.41724,12.09973 -12.09973,12.09973c-6.6825,0 -12.09973,-5.41724 -12.09973,-12.09973c0,-6.6825 5.41724,-12.09973 12.09973,-12.09973c6.6825,0 12.09973,5.41724 12.09973,12.09973" fill="url(#color-3)" fill-rule="evenodd" stroke-width="0.07853" stroke-linecap="round" stroke-linejoin="round"/><path d="M331.45266,198.22349c0,5.93063 -4.80772,10.73834 -10.73833,10.73834c-5.93063,0 -10.73834,-4.80772 -10.73834,-10.73834c0,-5.93063 4.80772,-10.73834 10.73834,-10.73834c5.93063,0 10.73833,4.80772 10.73833,10.73834" fill="url(#color-4)" fill-rule="evenodd" stroke-width="0.07853" stroke-linecap="round" stroke-linejoin="round"/><path d="M330.07696,198.22349c0,5.17084 -4.19179,9.36264 -9.36262,9.36264c-5.17084,0 -9.36263,-4.1918 -9.36263,-9.36264c0,-5.17084 4.19179,-9.36263 9.36263,-9.36263c5.17084,0 9.36262,4.19179 9.36262,9.36263" fill="url(#color-5)" fill-rule="evenodd" stroke-width="0.07853" stroke-linecap="round" stroke-linejoin="round"/><text transform="translate(311.35166,200.74811) scale(0.18559,0.18559)" font-size="40" xml:space="preserve" fill="#ffffff" fill-rule="nonzero" stroke-width="1" stroke-linecap="butt" stroke-linejoin="miter" font-family="&quot;LowerResolution&quot;, Scratch" font-weight="normal" text-anchor="start"><tspan x="0" dy="0">Options</tspan></text><g fill-rule="nonzero" stroke-width="0" stroke-linecap="butt" stroke-linejoin="miter"><path d="M295.90522,180.09616c0.38461,-12.67972 17.86015,-14.70183 25.20063,-14.84563c4.44826,-0.00814 2.02552,14.06734 0.56638,14.06525c-11.10084,-0.01593 -9.33067,4.85634 -12.66005,6.62417c-3.82065,2.02868 -5.60367,1.36775 -6.47234,1.36775c-3.92972,0 -6.75376,-3.28362 -6.63461,-7.21154z" fill="url(#color-6)"/><path d="M340.19053,187.3077c-0.86867,0 -2.6517,0.66093 -6.47235,-1.36775c-3.32939,-1.76783 -1.55921,-6.6401 -12.66005,-6.62417c-1.45914,0.00209 -3.88188,-14.07339 0.56638,-14.06525c7.34048,0.1438 24.81601,2.16591 25.20063,14.84563c0.11915,3.92792 -2.7049,7.21154 -6.63461,7.21154z" fill="url(#color-7)"/></g></g></g></svg>