<svg version="1.1" xmlns="http://www.w3.org/2000/svg" xmlns:xlink="http://www.w3.org/1999/xlink" width="269.48027" height="377.91942" viewBox="0,0,269.48027,377.91942"><defs><radialGradient cx="365.70617" cy="118.6705" r="35.58411" gradientUnits="userSpaceOnUse" id="color-1"><stop offset="0" stop-color="#56a14b"/><stop offset="1" stop-color="#114f33"/></radialGradient><radialGradient cx="260.8163" cy="118.6705" r="35.58411" gradientUnits="userSpaceOnUse" id="color-2"><stop offset="0" stop-color="#56a14b"/><stop offset="1" stop-color="#114f33"/></radialGradient><radialGradient cx="371.8612" cy="36.38705" r="71.77122" gradientUnits="userSpaceOnUse" id="color-3"><stop offset="0" stop-color="#56a14b"/><stop offset="1" stop-color="#114f33"/></radialGradient><radialGradient cx="245.92337" cy="36.38705" r="71.77122" gradientUnits="userSpaceOnUse" id="color-4"><stop offset="0" stop-color="#56a14b"/><stop offset="1" stop-color="#114f33"/></radialGradient><linearGradient x1="296.39778" y1="207.57231" x2="318.98976" y2="207.57231" gradientUnits="userSpaceOnUse" id="color-5"><stop offset="0" stop-color="#814d34" stop-opacity="0"/><stop offset="1" stop-color="#814d34"/></linearGradient><linearGradient x1="340.71107" y1="207.57231" x2="318.11906" y2="207.57231" gradientUnits="userSpaceOnUse" id="color-6"><stop offset="0" stop-color="#814d34" stop-opacity="0"/><stop offset="1" stop-color="#814d34"/></linearGradient><linearGradient x1="280.73822" y1="207.57231" x2="287.30512" y2="207.57231" gradientUnits="userSpaceOnUse" id="color-7"><stop offset="0" stop-color="#362016"/><stop offset="1" stop-color="#362016" stop-opacity="0"/></linearGradient><linearGradient x1="354.9948" y1="207.57231" x2="348.4279" y2="207.57231" gradientUnits="userSpaceOnUse" id="color-8"><stop offset="0" stop-color="#362016"/><stop offset="1" stop-color="#362016" stop-opacity="0"/></linearGradient><radialGradient cx="300.13678" cy="-13.2731" r="101.78194" gradientUnits="userSpaceOnUse" id="color-9"><stop offset="0" stop-color="#56a14b"/><stop offset="1" stop-color="#114f33"/></radialGradient></defs><g transform="translate(-185.47886,68.56517)"><g stroke="none" stroke-miterlimit="10"><g stroke-width="0"><path d="M335.73783,134.92388l3.42606,-15.25389l7.10178,-10.01293l11.80089,-7.76644l13.25538,-2.55085l15.00608,3.30947l10.77675,7.74955l7.5359,12.00399l2.26539,12.5211l-2.23113,12.4296l-6.33464,10.72822l-11.26937,8.76025l-15.74896,3.66604l-14.04608,-2.8796l-10.38675,-6.83421l-9.00568,-13.67259z" fill="url(#color-1)"/><path d="M230.84798,134.92388l3.42606,-15.25389l7.10178,-10.01293l11.80089,-7.76644l13.25537,-2.55085l15.00608,3.30947l10.77675,7.74955l7.5359,12.00399l2.26538,12.5211l-2.23113,12.4296l-6.33464,10.72822l-11.26937,8.76025l-15.74896,3.66604l-14.04608,-2.8796l-10.38675,-6.83421l-9.00568,-13.67259z" fill="url(#color-2)"/></g><path d="M311.4167,69.16925l6.91018,-30.76628l14.32391,-20.19554l23.80175,-15.66448l26.73537,-5.14492l30.26645,6.67502l21.73612,15.63043l15.1995,24.2114l4.56916,25.25438l-4.50007,25.06983l-12.77663,21.63823l-22.72971,17.66896l-31.7648,7.39421l-28.33019,-5.808l-20.94952,-13.78424l-18.16397,-27.57688z" fill="url(#color-3)" stroke-width="0"/><path d="M185.47887,69.16925l6.91017,-30.76628l14.32391,-20.19554l23.80175,-15.66449l26.73538,-5.14492l30.26644,6.67502l21.73612,15.63043l15.1995,24.2114l4.56916,25.25438l-4.50006,25.06982l-12.77664,21.63823l-22.7297,17.66896l-31.7648,7.39421l-28.33018,-5.808l-20.94952,-13.78423l-18.16397,-27.57688z" fill="url(#color-4)" stroke-width="0"/><g stroke-width="0"><path d="M280.73822,309.35425v-203.56389h73.24627v203.56389z" fill="#563322"/><g><path d="M296.39778,309.35425v-203.56389h22.59199v203.56389z" fill="url(#color-5)"/><path d="M318.11906,309.35425v-203.56389h22.59199v203.56389z" fill="url(#color-6)"/></g><path d="M280.73822,309.35425v-203.56389h6.56691v203.56389z" fill="url(#color-7)"/><path d="M348.4279,309.35425v-203.56389h6.56691v203.56389z" fill="url(#color-8)"/></g><path d="M214.41777,33.21678l9.79963,-43.63102l20.31337,-28.6402l33.75431,-22.21449l37.91461,-7.29624l42.92219,9.46614l30.82495,22.1662l21.55508,34.33525l6.47973,35.81435l-6.38174,35.55263l-18.11911,30.68613l-32.234,25.05713l-45.04707,10.48606l-40.17629,-8.23658l-29.70944,-19.54803l-25.75912,-39.10799z" fill="url(#color-9)" stroke-width="0"/><path d="M312.43957,188.31153c0.1819,0.72761 -0.5457,0.9095 -0.5457,0.9095l-0.67395,0.16762c-2.01999,0.40327 -4.00883,0.33414 -6.05912,0.33414c0,0 -0.75,0 -0.75,-0.75c0,-0.75 0.75,-0.75 0.75,-0.75c1.94917,0 3.84608,0.07949 5.76494,-0.30501l0.60433,-0.15195c0,0 0.7276,-0.1819 0.9095,0.5457z" fill="#000000" stroke-width="0.5"/><path d="M336.02815,187.76582l0.60433,0.15195c1.91886,0.3845 3.81577,0.30501 5.76494,0.30501c0,0 0.75,0 0.75,0.75c0,0.75 -0.75,0.75 -0.75,0.75c-2.05029,0 -4.03913,0.06913 -6.05912,-0.33414l-0.67395,-0.16762c0,0 -0.7276,-0.1819 -0.5457,-0.9095c0.1819,-0.72761 0.9095,-0.5457 0.9095,-0.5457z" fill="#000000" stroke-width="0.5"/><path d="M315.01646,200.10672c0.47377,-0.47377 0.94754,-0.10105 1.04321,-0.01617c3.78449,0.31334 7.71608,-0.16445 11.43448,0.44584l0.19627,-0.0102c0,0 0.43122,0 0.6397,0.32698c0.47394,0.35214 0.1909,0.91822 0.1909,0.91822c-1.01066,1.9952 -2.8084,3.54806 -4.24759,5.25607c-0.57441,0.6817 -1.04843,1.55827 -2.14966,1.54946c-1.73244,-0.01386 -5.98923,-3.10114 -7.2671,-4.37362c-0.11477,-0.11428 -1.18172,-2.24866 -1.14426,-2.3518c0.1603,-0.44141 0.64632,-0.61957 1.10581,-0.83203c-0.01877,-0.07457 -0.02705,-0.15963 -0.02102,-0.25661c-0.04222,-0.18839 -0.01462,-0.42225 0.21925,-0.65612zM316.55647,201.64673c-0.37341,0.35974 -0.91734,0.80654 -1.41229,0.652c-0.36417,-0.1137 0.50421,0.57331 0.77315,0.84389c0.49396,0.49696 1.258,0.63096 1.82627,1.04086c1.13842,0.82116 2.88205,2.73144 4.32853,2.89431c0.37666,0.04241 0.95213,-0.893 1.04603,-1.0071c1.13359,-1.37732 2.5981,-2.63645 3.58341,-4.13901c-3.30063,-0.46136 -6.78774,-0.10539 -10.15098,-0.30381z" fill="#000000" stroke-width="0.5"/></g></g></svg>