<svg version="1.1" xmlns="http://www.w3.org/2000/svg" xmlns:xlink="http://www.w3.org/1999/xlink" width="94.42335" height="265.29095" viewBox="0,0,94.42335,265.29095"><defs><linearGradient x1="278.91778" y1="44.37556" x2="278.91778" y2="51.29549" gradientUnits="userSpaceOnUse" id="color-1"><stop offset="0" stop-color="#2efffd"/><stop offset="1" stop-color="#054f4e"/></linearGradient><linearGradient x1="362.18794" y1="44.37556" x2="362.18794" y2="51.2955" gradientUnits="userSpaceOnUse" id="color-2"><stop offset="0" stop-color="#2efffd"/><stop offset="1" stop-color="#054f4e"/></linearGradient><linearGradient x1="320.00593" y1="170.07921" x2="320.00593" y2="309.6665" gradientUnits="userSpaceOnUse" id="color-3"><stop offset="0" stop-color="#ffc62e"/><stop offset="1" stop-color="#4f3305"/></linearGradient><linearGradient x1="320.00593" y1="170.07921" x2="320.00593" y2="309.6665" gradientUnits="userSpaceOnUse" id="color-4"><stop offset="0" stop-color="#000000" stop-opacity="0.29804"/><stop offset="1" stop-color="#000000" stop-opacity="0"/></linearGradient><linearGradient x1="319.78774" y1="170.6461" x2="319.78774" y2="209.25895" gradientUnits="userSpaceOnUse" id="color-5"><stop offset="0" stop-color="#fcff4f"/><stop offset="1" stop-color="#fcff4f" stop-opacity="0"/></linearGradient><linearGradient x1="320.00004" y1="80.64228" x2="320.00004" y2="175.06562" gradientUnits="userSpaceOnUse" id="color-6"><stop offset="0" stop-color="#ffc62e"/><stop offset="1" stop-color="#4f3305"/></linearGradient><linearGradient x1="320.00004" y1="84.26653" x2="320.00004" y2="158.03214" gradientUnits="userSpaceOnUse" id="color-7"><stop offset="0" stop-color="#fcff4f"/><stop offset="1" stop-color="#fcff4f" stop-opacity="0"/></linearGradient><linearGradient x1="320.00004" y1="80.7742" x2="320.00004" y2="175.19755" gradientUnits="userSpaceOnUse" id="color-8"><stop offset="0" stop-color="#000000" stop-opacity="0.39216"/><stop offset="1" stop-color="#000000" stop-opacity="0"/></linearGradient><linearGradient x1="320.00004" y1="118.27924" x2="320.00004" y2="175.42408" gradientUnits="userSpaceOnUse" id="color-9"><stop offset="0" stop-color="#000000"/><stop offset="1" stop-color="#0c0c0c"/></linearGradient><linearGradient x1="320.00004" y1="88.88657" x2="320.00004" y2="163.23687" gradientUnits="userSpaceOnUse" id="color-10"><stop offset="0" stop-color="#000000"/><stop offset="1" stop-color="#0c0c0c"/></linearGradient><radialGradient cx="334.27914" cy="112.91851" r="32.74416" gradientUnits="userSpaceOnUse" id="color-11"><stop offset="0" stop-color="#2d2d2d"/><stop offset="1" stop-color="#2d2d2d" stop-opacity="0"/></radialGradient></defs><g transform="translate(-272.78836,-44.37556)"><g stroke="none" stroke-miterlimit="10"><g><g><path d="M278.39396,47.83553c0.75,0 0.75,0.75 0.75,0.75v0.41844c-0.00594,2.08999 -0.58205,4.14742 -1.05357,6.17293c-0.50631,9.80091 1.02315,19.42608 1.24581,29.22098c-0.22006,8.63118 -0.40147,17.27514 -0.40147,25.90799c0,0 0,0.75 -0.75,0.75c-0.75,0 -0.75,-0.75 -0.75,-0.75c0,-8.63336 0.17886,-17.27844 0.40147,-25.91007c-0.22706,-9.86102 -1.8117,-19.56152 -1.23089,-29.42993c0.44586,-1.94766 1.04528,-3.95235 1.03865,-5.96191v-0.41844c0,0 0,-0.75 0.75,-0.75z" fill="#000000" stroke-width="0.5"/><path d="M275.45781,47.83553l0.33313,-1.48319l0.69053,-0.97359l1.14744,-0.75516l1.28887,-0.24803l1.45909,0.32179l1.04786,0.75352l0.73274,1.16719l0.22027,1.21747l-0.21694,1.20857l-0.61594,1.04314l-1.09576,0.85179l-1.53133,0.35646l-1.36575,-0.27999l-1.00994,-0.66451l-0.87565,-1.32943z" fill="url(#color-1)" stroke-width="0"/></g><g><path d="M363.46174,48.58553v0.41845c-0.00662,2.00956 0.5928,4.01425 1.03865,5.96191c0.5808,9.86841 -1.00384,19.56891 -1.2309,29.42993c0.22261,8.63163 0.40147,17.27671 0.40147,25.91007c0,0 0,0.75 -0.75,0.75c-0.75,0 -0.75,-0.75 -0.75,-0.75c0,-8.63286 -0.18141,-17.27681 -0.40147,-25.90799c0.22265,-9.79489 1.75212,-19.42007 1.24581,-29.22098c-0.47152,-2.02551 -1.04762,-4.08294 -1.05356,-6.17293v-0.41845c0,0 0,-0.75 0.75,-0.75c0.75,0 0.75,0.75 0.75,0.75z" fill="#000000" stroke-width="0.5"/><path d="M365.43929,49.02156l-0.87565,1.32943l-1.00994,0.66452l-1.36575,0.27999l-1.53132,-0.35646l-1.09576,-0.85179l-0.61594,-1.04314l-0.21694,-1.20858l0.22027,-1.21747l0.73274,-1.16719l1.04786,-0.75352l1.45909,-0.32179l1.28886,0.24803l1.14745,0.75516l0.69053,0.97359l0.33312,1.48318z" fill="url(#color-2)" stroke-width="0"/></g></g><g stroke-width="0"><g><path d="M281.87126,309.6665l17.98805,-139.58728h41.01276l11.87211,139.58728z" fill="url(#color-3)"/><path d="M281.87126,309.6665l17.98805,-139.58728l-1.0016,76.55709l7.15614,11.63579l12.4922,6.79247l13.78305,-6.95249l6.97448,-10.46249l1.6085,-77.57037l11.87211,139.58729z" fill="url(#color-4)"/></g><path d="M299.03334,209.25895l5.59886,-44.21171h31.46947l4.44048,44.21172z" fill="url(#color-5)"/></g><g stroke-width="0"><path d="M272.78836,127.85397l4.54557,-20.2383l9.42238,-13.28479l15.65698,-10.30422l17.58674,-3.38437l19.90951,4.39088l14.29819,10.28182l9.99835,15.92645l3.00563,16.61253l-2.96018,16.49113l-8.40457,14.2338l-14.95178,11.62278l-20.89514,4.86397l-18.63582,-3.82055l-13.78076,-9.06738l-11.9484,-18.14029z" fill="url(#color-6)"/><path d="M283.11719,121.14935l3.5511,-15.81061l7.36097,-10.37838l12.23158,-8.04989l13.73916,-2.64395l15.55375,3.43025l11.17007,8.03239l7.81093,12.4421l2.34807,12.97808l-2.31256,12.88323l-6.56584,11.11977l-11.68067,9.07998l-16.32375,3.79985l-14.55872,-2.9847l-10.76584,-7.08364l-9.33436,-14.1716z" fill="url(#color-7)"/><path d="M272.78836,127.9859l3.51099,-15.63205l2.6304,15.53397l12.07213,15.47847l13.15468,10.68657l16.41727,2.76275l20.00548,-4.14932l15.52268,-11.84573l6.57772,-12.97062l1.52637,-16.47657l3.00563,16.61253l-2.96018,16.49113l-8.40457,14.2338l-14.95178,11.62278l-20.89514,4.86397l-18.63583,-3.82055l-13.78075,-9.06739l-11.9484,-18.14029z" fill="url(#color-8)"/></g><g stroke-width="0"><path d="M291.42761,146.85167l2.75097,-12.24819l5.7024,-8.03993l9.47558,-6.23609l10.64346,-2.04821l12.0492,2.65735l8.65325,6.22254l6.05098,9.63866l1.819,10.05388l-1.7915,9.9804l-5.08643,8.61426l-9.04879,7.03409l-12.6457,2.94366l-11.27837,-2.31219l-8.34009,-5.48756l-7.23115,-10.97848z" fill="url(#color-9)"/><path d="M282.82488,126.06174l3.57925,-15.93593l7.41931,-10.46063l12.32853,-8.11369l13.84805,-2.66491l15.67703,3.45745l11.2586,8.09605l7.87285,12.54072l2.36667,13.08095l-2.33089,12.98535l-6.61788,11.2079l-11.77324,9.15194l-16.45313,3.82996l-14.67412,-3.00835l-10.85117,-7.13978l-9.40834,-14.28393z" fill="url(#color-10)"/></g><path d="M287.25588,126.06173l3.15263,-14.03649l6.53499,-9.21381l10.85907,-7.1466l12.19747,-2.34727l13.80845,3.04534l9.91666,7.13106l6.93446,11.04596l2.08459,11.52179l-2.05307,11.4376l-5.82908,9.872l-10.36996,8.0611l-14.49204,3.37346l-12.92507,-2.64978l-9.55779,-6.28878l-8.28694,-12.58139z" fill="url(#color-11)" stroke-width="0"/><path d="M301.48314,134.06763c0,-0.58558 0.4572,-0.71395 0.65767,-0.7421c1.8859,-1.17718 3.61952,-2.71952 5.63865,-3.66835c0.42055,-0.19763 0.87556,-0.31161 1.31462,-0.46375c0.23433,-0.0812 0.67088,-0.20917 1.05709,-0.30867c-0.56935,-0.12963 -1.18769,-0.60288 -1.58399,-0.80122c-1.9775,-0.98968 -3.74338,-2.17142 -5.47061,-3.55309c0,0 -0.58565,-0.46852 -0.11713,-1.05418c0.46852,-0.58565 1.05417,-0.11713 1.05417,-0.11713c1.89175,1.51352 3.83233,2.69672 5.99387,3.77749c0.55091,0.27545 2.21843,1.04812 2.27432,1.51672c0.14568,1.22125 -2.08893,1.73564 -2.7122,1.95586c-2.54215,0.89822 -4.55543,2.7045 -6.83228,4.09843l-0.52419,0.10998c0,0 -0.75,0 -0.75,-0.75z" fill="#00fff0" stroke-width="0.5"/><path d="M331.52533,133.62986c-0.62779,-0.41035 -0.21744,-1.03814 -0.21744,-1.03814l0.7661,-1.15487c1.65759,-1.33879 3.21699,-2.18214 5.16888,-2.99036c0.33106,-0.13708 0.73936,-0.42058 1.15532,-0.62747c-2.6302,-0.79966 -5.20975,-1.61746 -7.71422,-2.79603c0,0 -0.67861,-0.31934 -0.35926,-0.99796c0.31935,-0.67861 0.99796,-0.35927 0.99796,-0.35927c2.84826,1.34036 5.79993,2.19556 8.80745,3.11404l0.03756,0.03133l0.00601,-0.01343l0.71066,0.31829c0.2697,0.11363 0.45902,0.38044 0.45902,0.69147c0,0.2994 -0.17543,0.55783 -0.42912,0.67809l-0.78464,0.39232l-0.07086,-0.14173c-2.17653,1.36396 -4.77152,2.047 -6.87452,3.70937l-0.62076,0.9669c0,0 -0.41034,0.6278 -1.03813,0.21745z" fill="#00fff0" stroke-width="0.5"/><path d="M305.64625,158.14351c0.07265,0.33893 -0.16355,0.63417 -0.16355,0.63417l-0.52845,0.66057c-0.13732,0.17469 -0.35055,0.28689 -0.58998,0.28689c-0.41422,0 -0.75,-0.33578 -0.75,-0.75c0,-0.15759 0.04861,-0.30384 0.13165,-0.42455l0.45551,-0.68328c0.18151,-1.38576 0.60809,-2.59966 1.04967,-3.92436c0,0 0.23717,-0.71151 0.94868,-0.47434c0.71151,0.23717 0.47435,0.94868 0.47435,0.94868c-0.42293,1.26879 -0.80397,2.42314 -1.02787,3.72623z" fill="#00fff0" stroke-width="0.5"/><path d="M305.51432,155.97327c-0.72761,-0.1819 -0.54571,-0.90951 -0.54571,-0.90951l0.36278,-1.28871c1.68952,-1.41555 3.80871,-1.6769 5.95902,-1.6769c5.28749,0 10.55829,-0.26639 15.85023,-0.26639c1.58824,0 4.48567,-0.50305 5.96372,0.09735c0.54856,0.22283 0.47858,1.15782 0.97007,1.48798c0.18731,0.12583 0.38229,0.23989 0.58054,0.34886l0.12223,-0.26841l1.1653,0.53065c0.26736,0.11466 0.45463,0.38026 0.45463,0.6896c0,0.35158 -0.24192,0.64666 -0.56838,0.72786l-1.43143,0.39039l-0.00624,-0.02287l-0.07918,0.0409c-1.36494,0.0519 -2.73011,0.09608 -4.09528,0.14149c-8.25739,0.00105 -16.43841,-0.16709 -24.47171,1.84244c0,0 -0.72761,0.1819 -0.90951,-0.54571c-0.1819,-0.72761 0.54571,-0.90951 0.54571,-0.90951c8.14902,-2.03599 16.43511,-1.88791 24.81051,-1.88702c1.05932,-0.03538 2.11858,-0.07216 3.178,-0.10407c-0.29919,-0.41694 -0.44093,-1.01218 -1.00431,-1.15728c-0.74129,-0.19092 -1.5289,0.09735 -2.29438,0.09735c-6.26867,0 -12.5192,0.26639 -18.78052,0.26639c-1.53349,0 -3.40071,0.06738 -4.69659,0.987l-0.17,0.84241c0,0 -0.1819,0.72761 -0.90951,0.54571z" fill="#00fff0" stroke-width="0.5"/></g></g></svg>