<svg version="1.1" xmlns="http://www.w3.org/2000/svg" xmlns:xlink="http://www.w3.org/1999/xlink" width="119.08444" height="90.75531" viewBox="0,0,119.08444,90.75531"><defs><radialGradient cx="353.91159" cy="193.38601" r="7.11969" gradientUnits="userSpaceOnUse" id="color-1"><stop offset="0" stop-color="#464646"/><stop offset="1" stop-color="#171616"/></radialGradient><radialGradient cx="356.41338" cy="196.21233" r="0.90294" gradientUnits="userSpaceOnUse" id="color-2"><stop offset="0" stop-color="#ffffff" stop-opacity="0.26275"/><stop offset="1" stop-color="#ffffff" stop-opacity="0"/></radialGradient><radialGradient cx="351.79566" cy="188.67279" r="0.82678" gradientUnits="userSpaceOnUse" id="color-3"><stop offset="0" stop-color="#ffffff" stop-opacity="0.26275"/><stop offset="1" stop-color="#ffffff" stop-opacity="0"/></radialGradient><radialGradient cx="314.66122" cy="190.19156" r="37.13443" gradientUnits="userSpaceOnUse" id="color-4"><stop offset="0" stop-color="#303030"/><stop offset="1" stop-color="#131313"/></radialGradient><radialGradient cx="302.50196" cy="218.57091" r="19.27913" gradientUnits="userSpaceOnUse" id="color-5"><stop offset="0" stop-color="#000000"/><stop offset="1" stop-color="#000000" stop-opacity="0"/></radialGradient><radialGradient cx="283.22283" cy="215.84128" r="19.27913" gradientUnits="userSpaceOnUse" id="color-6"><stop offset="0" stop-color="#000000"/><stop offset="1" stop-color="#000000" stop-opacity="0"/></radialGradient><radialGradient cx="294.26617" cy="166.98364" r="19.27912" gradientUnits="userSpaceOnUse" id="color-7"><stop offset="0" stop-color="#000000"/><stop offset="1" stop-color="#000000" stop-opacity="0"/></radialGradient><radialGradient cx="277.06604" cy="176.11003" r="19.27912" gradientUnits="userSpaceOnUse" id="color-8"><stop offset="0" stop-color="#000000"/><stop offset="1" stop-color="#000000" stop-opacity="0"/></radialGradient><radialGradient cx="332.15357" cy="218.57091" r="19.27913" gradientUnits="userSpaceOnUse" id="color-9"><stop offset="0" stop-color="#000000"/><stop offset="1" stop-color="#000000" stop-opacity="0"/></radialGradient><radialGradient cx="351.43269" cy="215.84128" r="19.27912" gradientUnits="userSpaceOnUse" id="color-10"><stop offset="0" stop-color="#000000"/><stop offset="1" stop-color="#000000" stop-opacity="0"/></radialGradient><radialGradient cx="340.38936" cy="166.98364" r="19.27912" gradientUnits="userSpaceOnUse" id="color-11"><stop offset="0" stop-color="#000000"/><stop offset="1" stop-color="#000000" stop-opacity="0"/></radialGradient><radialGradient cx="357.58949" cy="176.11003" r="19.27912" gradientUnits="userSpaceOnUse" id="color-12"><stop offset="0" stop-color="#000000"/><stop offset="1" stop-color="#000000" stop-opacity="0"/></radialGradient><radialGradient cx="309.12899" cy="207.04103" r="10.6615" gradientUnits="userSpaceOnUse" id="color-13"><stop offset="0" stop-color="#000000"/><stop offset="1" stop-color="#000000" stop-opacity="0"/></radialGradient><radialGradient cx="298.4675" cy="205.53153" r="10.66149" gradientUnits="userSpaceOnUse" id="color-14"><stop offset="0" stop-color="#000000"/><stop offset="1" stop-color="#000000" stop-opacity="0"/></radialGradient><radialGradient cx="304.57454" cy="178.5129" r="10.66149" gradientUnits="userSpaceOnUse" id="color-15"><stop offset="0" stop-color="#000000"/><stop offset="1" stop-color="#000000" stop-opacity="0"/></radialGradient><radialGradient cx="295.06274" cy="183.55986" r="10.66149" gradientUnits="userSpaceOnUse" id="color-16"><stop offset="0" stop-color="#000000"/><stop offset="1" stop-color="#000000" stop-opacity="0"/></radialGradient><radialGradient cx="325.52654" cy="207.04103" r="10.6615" gradientUnits="userSpaceOnUse" id="color-17"><stop offset="0" stop-color="#000000"/><stop offset="1" stop-color="#000000" stop-opacity="0"/></radialGradient><radialGradient cx="336.18803" cy="205.53153" r="10.66149" gradientUnits="userSpaceOnUse" id="color-18"><stop offset="0" stop-color="#000000"/><stop offset="1" stop-color="#000000" stop-opacity="0"/></radialGradient><radialGradient cx="330.08099" cy="178.5129" r="10.66149" gradientUnits="userSpaceOnUse" id="color-19"><stop offset="0" stop-color="#000000"/><stop offset="1" stop-color="#000000" stop-opacity="0"/></radialGradient><radialGradient cx="339.59279" cy="183.55986" r="10.66149" gradientUnits="userSpaceOnUse" id="color-20"><stop offset="0" stop-color="#000000"/><stop offset="1" stop-color="#000000" stop-opacity="0"/></radialGradient></defs><g transform="translate(-257.78554,-147.09472)"><g stroke="none" stroke-width="0" stroke-miterlimit="10"><g><path d="M268.94862,213.89439v-65.46496h102.48652v65.46496z" fill="#000000"/><g><path d="M358.34611,197.27149c-0.27168,1.02742 -4.61246,0.57218 -5.47854,0.88493c-1.73609,0.62692 -3.52468,5.0593 -4.43433,2.54028c-0.37275,-1.03224 1.15452,-3.28161 1.62995,-5.7255c0.68478,-3.52002 0.62274,-7.34792 1.64741,-7.71794c1.12461,-0.40611 1.24878,3.68339 2.3222,5.98198c0.58364,1.2498 4.58621,3.00419 4.31331,4.03626z" fill="url(#color-1)"/><g><path d="M357.30926,196.48109c-0.06185,0.20615 -0.51308,0.25296 -1.00786,0.10452c-0.49478,-0.14844 -0.84573,-0.43589 -0.78389,-0.64204c0.06185,-0.20615 0.51308,-0.25296 1.00786,-0.10452c0.49478,0.14844 0.84573,0.43589 0.78389,0.64204z" fill="url(#color-2)"/><path d="M352.27713,189.47467c-0.18453,0.11079 -0.54968,-0.15839 -0.81559,-0.60125c-0.26591,-0.44287 -0.33189,-0.89169 -0.14737,-1.00249c0.18453,-0.11079 0.54968,0.15839 0.81559,0.60125c0.26591,0.44287 0.33189,0.89169 0.14736,1.00249z" fill="url(#color-3)"/></g></g><path d="M351.79566,190.19156c0,15.58418 -25.61616,31.39891 -46.12494,31.39891c-20.50878,0 -28.14393,-15.81473 -28.14393,-31.39891c0,-15.58418 19.66859,-30.4307 40.17737,-30.4307c20.50878,0 34.0915,14.84652 34.0915,30.4307z" fill="url(#color-4)"/><path d="M281.73395,180.02199c0,-18.18523 14.74204,-32.92727 32.92727,-32.92727c18.18523,0 32.92727,14.74204 32.92727,32.92727c0,18.18523 -14.74204,32.92727 -32.92727,32.92727c-18.18523,0 -32.92727,-14.74204 -32.92727,-32.92727z" fill="#000000"/><g><g><g><g><path d="M283.22284,218.57091c0,-10.64757 8.63155,-19.27913 19.27912,-19.27913c10.64756,0 19.27913,8.63156 19.27913,19.27913c0,10.64757 -8.63156,19.27912 -19.27913,19.27912c-10.64756,0 -19.27912,-8.63156 -19.27912,-19.27912z" fill="url(#color-5)"/><path d="M263.94372,215.84128c0,-10.64756 8.63155,-19.27912 19.27912,-19.27912c10.64756,0 19.27913,8.63156 19.27913,19.27912c0,10.64756 -8.63156,19.27912 -19.27913,19.27912c-10.64756,0 -19.27912,-8.63156 -19.27912,-19.27912z" fill="url(#color-6)"/></g><g><path d="M278.67082,178.31809c-6.25984,-8.61307 -4.35218,-20.66995 4.26089,-26.9298c8.61307,-6.25985 20.66996,-4.35218 26.9298,4.26089c6.25984,8.61307 4.35218,20.66995 -4.26089,26.9298c-8.61307,6.25985 -20.66996,4.35218 -26.9298,-4.26089z" fill="url(#color-7)"/><path d="M261.47069,187.44448c-6.25985,-8.61307 -4.35218,-20.66995 4.26089,-26.9298c8.61307,-6.25985 20.66996,-4.35218 26.9298,4.26089c6.25984,8.61307 4.35218,20.66995 -4.26089,26.9298c-8.61307,6.25985 -20.66995,4.35217 -26.9298,-4.2609z" fill="url(#color-8)"/></g></g><g><g><path d="M332.15357,237.85003c-10.64756,0 -19.27913,-8.63156 -19.27913,-19.27912c0,-10.64757 8.63156,-19.27913 19.27913,-19.27913c10.64756,0 19.27912,8.63156 19.27912,19.27913c0,10.64757 -8.63155,19.27912 -19.27912,19.27912z" fill="url(#color-9)"/><path d="M351.43269,235.1204c-10.64756,0 -19.27912,-8.63156 -19.27912,-19.27912c0,-10.64756 8.63156,-19.27912 19.27912,-19.27912c10.64756,0 19.27912,8.63156 19.27912,19.27912c0,10.64756 -8.63156,19.27912 -19.27912,19.27912z" fill="url(#color-10)"/></g><g><path d="M329.0549,182.57898c-8.61307,-6.25985 -10.52073,-18.31673 -4.26088,-26.9298c6.25984,-8.61307 18.31673,-10.52074 26.9298,-4.26089c8.61307,6.25985 10.52073,18.31673 4.26088,26.9298c-6.25984,8.61307 -18.31673,10.52074 -26.9298,4.26089z" fill="url(#color-11)"/><path d="M346.25504,191.70538c-8.61307,-6.25985 -10.52074,-18.31673 -4.26089,-26.9298c6.25984,-8.61307 18.31673,-10.52074 26.9298,-4.26089c8.61307,6.25985 10.52073,18.31673 4.26088,26.9298c-6.25984,8.61307 -18.31672,10.52074 -26.92979,4.2609z" fill="url(#color-12)"/></g></g></g><g><g><g><path d="M298.4675,207.04103c0,-5.88818 4.77331,-10.6615 10.66149,-10.6615c5.88818,0 10.6615,4.77331 10.6615,10.6615c0,5.88818 -4.77332,10.6615 -10.6615,10.6615c-5.88818,0 -10.66149,-4.77331 -10.66149,-10.6615z" fill="url(#color-13)"/><path d="M287.806,205.53153c0,-5.88818 4.77332,-10.66149 10.6615,-10.66149c5.88818,0 10.66149,4.77331 10.66149,10.66149c0,5.88818 -4.77331,10.6615 -10.66149,10.6615c-5.88818,0 -10.6615,-4.77331 -10.6615,-10.6615z" fill="url(#color-14)"/></g><g><path d="M295.9502,184.78094c-3.46174,-4.76309 -2.40679,-11.43063 2.3563,-14.89237c4.76309,-3.46174 11.43063,-2.40679 14.89237,2.3563c3.46174,4.76309 2.40679,11.43063 -2.3563,14.89237c-4.76309,3.46174 -11.43063,2.40679 -14.89237,-2.3563z" fill="url(#color-15)"/><path d="M286.43841,189.8279c-3.46174,-4.76309 -2.40679,-11.43063 2.3563,-14.89237c4.76309,-3.46174 11.43063,-2.40679 14.89237,2.3563c3.46174,4.76309 2.40679,11.43064 -2.3563,14.89238c-4.76309,3.46174 -11.43063,2.40679 -14.89237,-2.3563z" fill="url(#color-16)"/></g></g><g><g><path d="M325.52654,217.70253c-5.88818,0 -10.6615,-4.77331 -10.6615,-10.6615c0,-5.88818 4.77332,-10.6615 10.6615,-10.6615c5.88818,0 10.66149,4.77331 10.66149,10.6615c0,5.88818 -4.77331,10.6615 -10.66149,10.6615z" fill="url(#color-17)"/><path d="M336.18803,216.19302c-5.88818,0 -10.66149,-4.77331 -10.66149,-10.6615c0,-5.88818 4.77331,-10.66149 10.66149,-10.66149c5.88818,0 10.6615,4.77331 10.6615,10.66149c0,5.88818 -4.77332,10.6615 -10.6615,10.6615z" fill="url(#color-18)"/></g><g><path d="M323.81296,187.13724c-4.76309,-3.46174 -5.81804,-10.12928 -2.3563,-14.89237c3.46174,-4.76309 10.12928,-5.81804 14.89237,-2.3563c4.76309,3.46174 5.81804,10.12928 2.3563,14.89237c-3.46174,4.76309 -10.12928,5.81804 -14.89237,2.3563z" fill="url(#color-19)"/><path d="M333.32475,192.1842c-4.76309,-3.46174 -5.81804,-10.12929 -2.3563,-14.89238c3.46174,-4.76309 10.12928,-5.81804 14.89237,-2.3563c4.76309,3.46174 5.81804,10.12928 2.3563,14.89237c-3.46174,4.76309 -10.12928,5.81804 -14.89237,2.3563z" fill="url(#color-20)"/></g></g></g></g><path d="M326.18348,155.95916c0,0.53473 -1.82682,0.96821 -4.08031,0.96821c-2.25349,0 -4.0803,-0.43348 -4.0803,-0.96821c0,-0.53473 1.82681,-0.96821 4.0803,-0.96821c2.25349,0 4.08031,0.43348 4.08031,0.96821z" fill="#ffffff"/></g></g></g></svg>