<svg version="1.1" xmlns="http://www.w3.org/2000/svg" xmlns:xlink="http://www.w3.org/1999/xlink" width="47.04546" height="47.04546" viewBox="0,0,47.04546,47.04546"><defs><radialGradient cx="320.09618" cy="180.00002" r="23.52273" gradientUnits="userSpaceOnUse" id="color-1"><stop offset="0" stop-color="#000000" stop-opacity="0.68235"/><stop offset="1" stop-color="#000000" stop-opacity="0"/></radialGradient><linearGradient x1="320.00004" y1="162.6087" x2="320.00004" y2="197.39134" gradientUnits="userSpaceOnUse" id="color-2"><stop offset="0" stop-color="#dedede" stop-opacity="0.20784"/><stop offset="1" stop-color="#dedede" stop-opacity="0"/></linearGradient><linearGradient x1="320.09619" y1="162.6087" x2="320.09619" y2="197.39134" gradientUnits="userSpaceOnUse" id="color-3"><stop offset="0" stop-color="#292929" stop-opacity="0"/><stop offset="1" stop-color="#292929" stop-opacity="0.25098"/></linearGradient></defs><g transform="translate(-296.57345,-156.47728)"><g stroke="none" stroke-miterlimit="10"><path d="M296.57345,180.00002c0,-12.99124 10.53148,-23.52273 23.52273,-23.52273c12.99124,0 23.52273,10.53148 23.52273,23.52273c0,12.99124 -10.53148,23.52273 -23.52273,23.52273c-12.99124,0 -23.52273,-10.53148 -23.52273,-23.52273z" fill="url(#color-1)" stroke-width="0"/><path d="M302.60873,197.39132v-34.78261h34.78261v34.78261z" fill="#686868" stroke-width="0"/><g stroke-width="0"><path d="M302.60874,197.39134v-34.78261h34.78261l-2.48896,2.57975l-29.14148,0.24634l-0.30739,29.42558z" fill="url(#color-2)"/><path d="M337.4875,162.6087v34.78261h-34.78261l2.88669,-2.57975l28.74375,-0.24634l0.59148,-29.36876z" fill="url(#color-3)"/></g><path d="M315.75676,176.85868c0,0.75 -0.75,0.75 -0.75,0.75c-0.26016,0 -0.52356,0 -0.78889,0c-0.11126,0.27486 -0.38073,0.46875 -0.69548,0.46875c-0.31475,0 -0.58422,-0.19389 -0.69548,-0.46875c-0.58173,0 -1.16171,0 -1.72639,0c0,0 -0.75,0 -0.75,-0.75c0,-0.75 0.75,-0.75 0.75,-0.75c1.27604,0 2.55208,0 3.82813,0h0.07813c0,0 0.75,0 0.75,0.75z" fill="#000000" stroke-width="0.5"/><path d="M331.38176,176.93681c0,0.75 -0.75,0.75 -0.75,0.75c-0.99042,0 -2.0004,0 -3.01037,0c-0.05951,0.35471 -0.36801,0.625 -0.73963,0.625c-0.37162,0 -0.68012,-0.27029 -0.73963,-0.625c-0.51202,0 -1.02154,0 -1.52599,0c0,0 -0.75,0 -0.75,-0.75c0,-0.75 0.75,-0.75 0.75,-0.75c1.97917,0 3.95833,0 5.9375,0h0.07813c0,0 0.75,0 0.75,0.75z" fill="#000000" stroke-width="0.5"/><path d="M307.53801,182.56181c0,-0.41422 0.33578,-0.75 0.75,-0.75c0.41422,0 0.75,0.33578 0.75,0.75c0,0.41422 -0.33578,0.75 -0.75,0.75c-0.41422,0 -0.75,-0.33578 -0.75,-0.75z" fill="#000000" stroke-width="0.5"/><path d="M310.03801,183.73368c0,-0.41422 0.33578,-0.75 0.75,-0.75c0.41422,0 0.75,0.33578 0.75,0.75c0,0.41422 -0.33578,0.75 -0.75,0.75c-0.41422,0 -0.75,-0.33578 -0.75,-0.75z" fill="#000000" stroke-width="0.5"/><path d="M307.77238,185.45243c0,-0.41422 0.33578,-0.75 0.75,-0.75c0.41422,0 0.75,0.33578 0.75,0.75c0,0.41422 -0.33578,0.75 -0.75,0.75c-0.41422,0 -0.75,-0.33578 -0.75,-0.75z" fill="#000000" stroke-width="0.5"/><path d="M329.17863,182.24931c0,-0.41422 0.33578,-0.75 0.75,-0.75c0.41422,0 0.75,0.33578 0.75,0.75c0,0.41422 -0.33578,0.75 -0.75,0.75c-0.41422,0 -0.75,-0.33578 -0.75,-0.75z" fill="#000000" stroke-width="0.5"/><path d="M332.22551,182.01493c0,-0.41422 0.33578,-0.75 0.75,-0.75c0.41422,0 0.75,0.33578 0.75,0.75c0,0.41422 -0.33578,0.75 -0.75,0.75c-0.41422,0 -0.75,-0.33578 -0.75,-0.75z" fill="#000000" stroke-width="0.5"/><path d="M331.36613,184.20243c0,-0.41422 0.33578,-0.75 0.75,-0.75c0.41422,0 0.75,0.33578 0.75,0.75c0,0.41422 -0.33578,0.75 -0.75,0.75c-0.41422,0 -0.75,-0.33578 -0.75,-0.75z" fill="#000000" stroke-width="0.5"/><path d="M326.41301,188.31181c-0.75,0 -0.75,-0.75 -0.75,-0.75v-0.23437c0.00745,-0.28523 0.30573,-0.78674 0.02881,-0.85551c-1.98266,-0.49234 -5.13623,-0.19146 -7.23194,-0.19137c-0.26129,0.00001 -2.60858,-0.23609 -2.99293,0.14595c-0.29187,0.29011 0.1665,0.8075 0.20796,1.21693c0,0 0.07463,0.74628 -0.67165,0.82091c-0.74628,0.07463 -0.82091,-0.67165 -0.82091,-0.67165c-0.43649,-4.41535 5.82027,-3.11596 8.84597,-2.80694c0.80753,0.08247 2.83411,-0.21192 3.48087,0.22844c0.77015,0.52437 0.64102,1.37935 0.65381,2.11324v0.23438c0,0 0,0.75 -0.75,0.75z" fill="#000000" stroke-width="0.5"/></g></g></svg>