<svg version="1.1" xmlns="http://www.w3.org/2000/svg" xmlns:xlink="http://www.w3.org/1999/xlink" width="267.52542" height="267.52542" viewBox="0,0,267.52542,267.52542"><defs><radialGradient cx="309.9678" cy="136.85495" r="133.76271" gradientUnits="userSpaceOnUse" id="color-1"><stop offset="0" stop-color="#ffec6e" stop-opacity="0.4902"/><stop offset="1" stop-color="#ffec6e" stop-opacity="0"/></radialGradient><radialGradient cx="309.0338" cy="202.12495" r="21.93531" gradientUnits="userSpaceOnUse" id="color-2"><stop offset="0" stop-color="#ff8700"/><stop offset="1" stop-color="#ff6200"/></radialGradient><radialGradient cx="309.0338" cy="72.70659" r="21.93531" gradientUnits="userSpaceOnUse" id="color-3"><stop offset="0" stop-color="#ff8700"/><stop offset="1" stop-color="#ff6200"/></radialGradient><radialGradient cx="244.32462" cy="137.41578" r="21.93531" gradientUnits="userSpaceOnUse" id="color-4"><stop offset="0" stop-color="#ff8700"/><stop offset="1" stop-color="#ff6200"/></radialGradient><radialGradient cx="373.74298" cy="137.41577" r="21.93531" gradientUnits="userSpaceOnUse" id="color-5"><stop offset="0" stop-color="#ff8700"/><stop offset="1" stop-color="#ff6200"/></radialGradient><radialGradient cx="263.27751" cy="183.17208" r="21.93531" gradientUnits="userSpaceOnUse" id="color-6"><stop offset="0" stop-color="#ff8700"/><stop offset="1" stop-color="#ff6200"/></radialGradient><radialGradient cx="354.7901" cy="91.65947" r="21.93531" gradientUnits="userSpaceOnUse" id="color-7"><stop offset="0" stop-color="#ff8700"/><stop offset="1" stop-color="#ff6200"/></radialGradient><radialGradient cx="263.27749" cy="91.65947" r="21.93531" gradientUnits="userSpaceOnUse" id="color-8"><stop offset="0" stop-color="#ff8700"/><stop offset="1" stop-color="#ff6200"/></radialGradient><radialGradient cx="354.7901" cy="183.17206" r="21.93531" gradientUnits="userSpaceOnUse" id="color-9"><stop offset="0" stop-color="#ff8700"/><stop offset="1" stop-color="#ff6200"/></radialGradient><radialGradient cx="309.9678" cy="136.85495" r="50.59676" gradientUnits="userSpaceOnUse" id="color-10"><stop offset="0" stop-color="#ffec6d"/><stop offset="1" stop-color="#ffa800"/></radialGradient></defs><g transform="translate(-176.20509,-3.09224)"><g stroke="none" stroke-miterlimit="10"><path d="M176.20509,136.85495c0,-73.87511 59.8876,-133.76271 133.76271,-133.76271c73.87511,0 133.76271,59.8876 133.76271,133.76271c0,73.87511 -59.8876,133.76271 -133.76271,133.76271c-73.87511,0 -133.76271,-59.8876 -133.76271,-133.76271z" fill="url(#color-1)" stroke-width="0"/><g stroke-width="0"><g><g><path d="M330.96912,178.46614l-21.62195,47.31761l-22.24868,-47.31761z" fill="url(#color-2)"/><path d="M287.09849,96.36539l22.24868,-47.31761l21.62195,47.31761z" fill="url(#color-3)"/></g><g><path d="M267.98343,159.35109l-47.31761,-21.62195l47.31761,-22.24868z" fill="url(#color-4)"/><path d="M350.08417,115.48045l47.31761,22.24868l-47.31759,21.62195z" fill="url(#color-5)"/></g></g><g><g><path d="M295.51742,181.95338l-48.74764,18.16957l17.72641,-49.19079z" fill="url(#color-6)"/><path d="M322.5502,92.87815l49.19079,-17.7264l-18.16957,48.74763z" fill="url(#color-7)"/></g><g><path d="M264.4962,123.89938l-18.16957,-48.74763l49.19079,17.72641z" fill="url(#color-8)"/><path d="M353.5714,150.93216l17.72641,49.19079l-48.74762,-18.16956z" fill="url(#color-9)"/></g></g></g><path d="M259.37105,136.85495l12.88434,-33.7321l37.71242,-16.86466l35.80673,14.84888l14.79004,35.74788l-13.34901,34.2442l-37.24775,16.35256l-35.18985,-14.24141z" fill="url(#color-10)" stroke-width="0"/><path d="M288.94543,128.82091l-0.02239,0.52491c-0.49997,1.94418 -2.4744,3.515 -2.94062,0.76846c-0.06748,0.03651 -0.13482,0.07328 -0.20202,0.11031c0.84981,3.9166 2.80527,7.82891 5.17809,10.4731c7.34234,5.29748 10.53263,-7.16195 10.55458,-12.3666c-0.14956,-0.66137 -0.30355,-1.3956 -0.47671,-2.16667c-4.15778,0.14663 -8.28753,0.98039 -12.10094,2.54985c0.01002,0.06442 0.01002,0.10666 0.01002,0.10666zM287.37759,129.61492c0.00555,-0.07127 0.01317,-0.14638 0.02207,-0.22026c-0.04082,0.01941 -0.08161,0.03892 -0.12235,0.05851c0.04265,0.05151 0.07529,0.10699 0.10028,0.16174zM303.23725,125.39087c0,0.62276 -0.51711,0.72841 -0.69257,0.74634c0.16056,0.67547 0.31136,1.35451 0.45941,2.03019c0.02429,6.64381 -4.28122,20.0509 -13.04945,13.64487c-2.20776,-2.44709 -4.44986,-6.51856 -5.60237,-10.74863c-0.08337,0.04754 -0.6554,0.34396 -1.02322,-0.24455c-0.3975,-0.636 0.2385,-1.0335 0.2385,-1.0335c0.13849,-0.08647 0.27763,-0.17182 0.4174,-0.25605c-0.37956,-1.84549 -0.5278,-3.68757 -0.35249,-5.40596c-0.07441,-0.17265 -0.07441,-0.33339 -0.07441,-0.33339v-0.22867c0.00385,-3.20806 2.00398,-7.39097 4.93653,-8.87461c1.46126,-0.98102 3.46674,-0.8712 5.15423,-0.42495c5.23933,1.38551 7.25335,5.66416 8.51925,10.37946c0.06829,-0.00035 0.13657,-0.00053 0.20485,-0.00053h0.11433c0,0 0.75,0 0.75,0.75zM286.55496,118.63662c0.06027,0.03029 0.12208,0.07125 0.18488,0.12507c0.56944,0.4881 0.08135,1.05754 0.08135,1.05754c-0.94987,1.04697 -1.08481,2.71055 -1.31599,4.09426c-0.24948,1.49321 -0.233,3.11109 -0.00261,4.7581c4.64335,-2.45856 9.88751,-3.76582 15.18126,-3.99433c-0.90513,-3.58012 -2.37523,-7.44281 -5.71651,-8.39701c-1.73246,-0.49475 -4.10168,-1.55156 -5.69904,-0.30828c-1.07324,0.52966 -2.00274,1.50724 -2.71334,2.66466z" fill="#000000" stroke-width="0.5"/><path d="M322.44545,123.10418l-0.02239,0.52491c-0.49997,1.94418 -2.4744,3.515 -2.94062,0.76846c-0.06748,0.03651 -0.13482,0.07328 -0.20202,0.11031c0.84981,3.9166 2.80527,7.82891 5.17809,10.4731c7.34234,5.29748 10.53263,-7.16195 10.55458,-12.3666c-0.14956,-0.66137 -0.30355,-1.3956 -0.47671,-2.16667c-4.15778,0.14663 -8.28753,0.98039 -12.10094,2.54985c0.01002,0.06442 0.01002,0.10666 0.01002,0.10666zM320.87761,123.89819c0.00555,-0.07127 0.01317,-0.14638 0.02207,-0.22026c-0.04082,0.01941 -0.08161,0.03892 -0.12235,0.05851c0.04265,0.05151 0.07529,0.10699 0.10028,0.16174zM336.73727,119.67414c0,0.62276 -0.51711,0.72841 -0.69257,0.74634c0.16056,0.67547 0.31136,1.35451 0.45941,2.03019c0.02429,6.64381 -4.28122,20.05089 -13.04945,13.64487c-2.20776,-2.44709 -4.44986,-6.51855 -5.60237,-10.74862c-0.08337,0.04754 -0.65541,0.34396 -1.02323,-0.24455c-0.3975,-0.636 0.2385,-1.0335 0.2385,-1.0335c0.13849,-0.08647 0.27763,-0.17182 0.4174,-0.25606c-0.37956,-1.84549 -0.5278,-3.68756 -0.35249,-5.40595c-0.07441,-0.17265 -0.07441,-0.33339 -0.07441,-0.33339v-0.22867c0.00385,-3.20806 2.00398,-7.39097 4.93653,-8.87461c1.46126,-0.98102 3.46674,-0.8712 5.15423,-0.42495c5.23933,1.38551 7.25335,5.66416 8.51925,10.37946c0.06829,-0.00035 0.13657,-0.00053 0.20485,-0.00053h0.11434c0,0 0.75,0 0.75,0.75zM320.05498,112.91989c0.06027,0.03029 0.12208,0.07125 0.18488,0.12507c0.56944,0.4881 0.08135,1.05754 0.08135,1.05754c-0.94987,1.04697 -1.08481,2.71055 -1.31599,4.09425c-0.24948,1.49321 -0.233,3.11109 -0.00261,4.7581c4.64335,-2.45857 9.88751,-3.76582 15.18126,-3.99433c-0.90513,-3.58012 -2.37523,-7.44281 -5.71651,-8.39701c-1.73246,-0.49475 -4.10168,-1.55157 -5.69904,-0.30829c-1.07324,0.52966 -2.00274,1.50725 -2.71334,2.66466z" fill="#000000" stroke-width="0.5"/><path d="M283.32851,149.51546c0,-0.41421 0.33579,-0.75 0.75,-0.75c0.41421,0 0.75,0.33579 0.75,0.75c0,0.41421 -0.33579,0.75 -0.75,0.75c-0.41421,0 -0.75,-0.33579 -0.75,-0.75z" fill="#000000" stroke-width="0.5"/><path d="M286.52988,150.20147c0,-0.41421 0.33579,-0.75 0.75,-0.75c0.41421,0 0.75,0.33579 0.75,0.75c0,0.41421 -0.33579,0.75 -0.75,0.75c-0.41421,0 -0.75,-0.33579 -0.75,-0.75z" fill="#000000" stroke-width="0.5"/><path d="M284.24319,152.48816c0,-0.41421 0.33579,-0.75 0.75,-0.75c0.41421,0 0.75,0.33579 0.75,0.75c0,0.41421 -0.33579,0.75 -0.75,0.75c-0.41421,0 -0.75,-0.33579 -0.75,-0.75z" fill="#000000" stroke-width="0.5"/><path d="M337.98043,138.31067c0,-0.41421 0.33579,-0.75 0.75,-0.75c0.41421,0 0.75,0.33579 0.75,0.75c0,0.41421 -0.33579,0.75 -0.75,0.75c-0.41421,0 -0.75,-0.33579 -0.75,-0.75z" fill="#000000" stroke-width="0.5"/><path d="M343.12548,137.16733c0,-0.41421 0.33579,-0.75 0.75,-0.75c0.41421,0 0.75,0.33579 0.75,0.75c0,0.41421 -0.33579,0.75 -0.75,0.75c-0.41421,0 -0.75,-0.33579 -0.75,-0.75z" fill="#000000" stroke-width="0.5"/><path d="M340.61012,140.3687c0,-0.41421 0.33579,-0.75 0.75,-0.75c0.41421,0 0.75,0.33579 0.75,0.75c0,0.41421 -0.33579,0.75 -0.75,0.75c-0.41421,0 -0.75,-0.33579 -0.75,-0.75z" fill="#000000" stroke-width="0.5"/><path d="M304.57545,161.2873c0.97442,0.79849 1.66429,1.72499 2.9478,1.78153c7.6187,0.64394 13.54859,-8.45918 17.80973,-14.52346c-0.04867,0.01137 -0.09737,0.02272 -0.14609,0.03406c-8.40119,1.74137 -16.9929,3.76403 -25.52277,4.65035c0.05105,3.07147 2.65767,6.21075 4.91133,8.05751zM327.54905,148.02014c-4.72068,6.4904 -11.1711,17.26392 -20.14881,16.54365c-4.60285,-0.49448 -9.7976,-7.91729 -9.16824,-12.38932l0.86695,-0.726c0,0 0.5401,-0.18003 0.83602,0.24417c8.33328,-0.90247 16.72346,-2.87786 24.9296,-4.57816c3.01108,-0.70129 5.9193,-1.44659 8.8526,-2.42322l0.02603,0.01635l-0.00603,-0.0221l0.58772,-0.16029l-0.01424,-0.0997l0.83109,-0.11873c0.03871,-0.00616 0.0784,-0.00936 0.11884,-0.00936c0.41421,0 0.75,0.33579 0.75,0.75c0,0.35158 -0.24192,0.64666 -0.56838,0.72786l-1.19722,0.32651c-0.78367,0.78672 -2.85285,1.07417 -3.74089,1.23934l-0.67228,0.22608c0,0 -0.26422,0.08807 -0.52431,-0.00413c-0.5822,0.15409 -1.16611,0.30314 -1.75262,0.44863c-0.00372,0.00554 -0.00583,0.00843 -0.00583,0.00843z" fill="#000000" stroke-width="0.5"/></g></g></svg>