<svg version="1.1" xmlns="http://www.w3.org/2000/svg" xmlns:xlink="http://www.w3.org/1999/xlink" width="47.04546" height="47.04546" viewBox="0,0,47.04546,47.04546"><defs><radialGradient cx="320.09617" cy="180.00001" r="23.52273" gradientUnits="userSpaceOnUse" id="color-1"><stop offset="0" stop-color="#000000" stop-opacity="0.68235"/><stop offset="1" stop-color="#000000" stop-opacity="0"/></radialGradient><linearGradient x1="320.00003" y1="162.6087" x2="320.00003" y2="197.39133" gradientUnits="userSpaceOnUse" id="color-2"><stop offset="0" stop-color="#dedede" stop-opacity="0.20784"/><stop offset="1" stop-color="#dedede" stop-opacity="0"/></linearGradient><linearGradient x1="320.09618" y1="162.6087" x2="320.09618" y2="197.39133" gradientUnits="userSpaceOnUse" id="color-3"><stop offset="0" stop-color="#292929" stop-opacity="0"/><stop offset="1" stop-color="#292929" stop-opacity="0.25098"/></linearGradient></defs><g transform="translate(-296.57343,-156.47727)"><g stroke="none" stroke-miterlimit="10"><path d="M296.57344,180.00001c0,-12.99124 10.53148,-23.52273 23.52273,-23.52273c12.99124,0 23.52273,10.53148 23.52273,23.52273c0,12.99124 -10.53148,23.52273 -23.52273,23.52273c-12.99124,0 -23.52273,-10.53148 -23.52273,-23.52273z" fill="url(#color-1)" stroke-width="0"/><path d="M302.60872,197.39131v-34.78261h34.78261v34.78261z" fill="#379146" stroke-width="0"/><g stroke-width="0"><path d="M302.60873,197.39133v-34.78261h34.78261l-2.48896,2.57975l-29.14148,0.24634l-0.30739,29.42558z" fill="url(#color-2)"/><path d="M337.48749,162.6087v34.78261h-34.78261l2.88669,-2.57975l28.74375,-0.24634l0.59148,-29.36876z" fill="url(#color-3)"/></g><path d="M312.6489,179.41182c0,-0.41422 0.33578,-0.75 0.75,-0.75c0.41422,0 0.75,0.33578 0.75,0.75c0,0.41422 -0.33578,0.75 -0.75,0.75c-0.41422,0 -0.75,-0.33578 -0.75,-0.75z" fill="#000000" stroke-width="0.5"/><path d="M325.0239,179.28682c0,-0.41422 0.33578,-0.75 0.75,-0.75c0.41422,0 0.75,0.33578 0.75,0.75c0,0.41422 -0.33578,0.75 -0.75,0.75c-0.41422,0 -0.75,-0.33578 -0.75,-0.75z" fill="#000000" stroke-width="0.5"/><path d="M325.86364,182.07345c0.46337,0.58974 -0.12637,1.05311 -0.12637,1.05311l-0.57052,0.44827c-0.48138,0.3534 -0.87025,0.8951 -1.44414,1.0602c-0.25295,0.07277 -2.76559,-0.32662 -3.1223,-0.34978c-2.92086,-0.18969 -5.85638,0.57645 -8.67511,-0.28256c0,0 -0.71586,-0.22371 -0.49215,-0.93957c0.2237,-0.71586 0.93957,-0.49215 0.93957,-0.49215c2.62536,0.84479 5.57605,0.03892 8.32489,0.21743c1.7448,0.11331 2.18676,0.78258 3.54251,-0.39305l0.57052,-0.44826c0,0 0.58974,-0.46337 1.0531,0.12637z" fill="#000000" stroke-width="0.5"/><path d="M314.36041,172.64899c-0.23717,0.71151 -0.94869,0.47434 -0.94869,0.47434l-0.93563,-0.34204c-0.65625,-0.75425 -1.88367,-2.09588 -2.63186,-3.44343c0.01589,2.19484 0.52221,4.67023 1.75583,6.09382c0,0 0.48014,0.57616 -0.09603,1.0563c-0.57617,0.48014 -1.05631,-0.09603 -1.05631,-0.09603c-1.99277,-2.4608 -2.41366,-6.71737 -1.87721,-9.73635l0.0172,-0.02817l-0.00959,-0.00259l0.34249,-1.26793c0.08058,-0.32733 0.37608,-0.57009 0.72828,-0.57009c0.39184,0 0.71351,0.3005 0.74711,0.68362l0.11606,1.16057c0.76989,1.7277 1.56165,3.29585 2.80964,4.91134l0.56437,0.15795c0,0 0.71151,0.23718 0.47434,0.94869z" fill="#000000" stroke-width="0.5"/></g></g></svg>