<svg version="1.1" xmlns="http://www.w3.org/2000/svg" xmlns:xlink="http://www.w3.org/1999/xlink" width="26.93821" height="26.93821" viewBox="0,0,26.93821,26.93821"><defs><radialGradient cx="300.35718" cy="181.78576" r="13.46911" gradientUnits="userSpaceOnUse" id="color-1"><stop offset="0" stop-color="#000000"/><stop offset="1" stop-color="#000000" stop-opacity="0"/></radialGradient><radialGradient cx="294.15599" cy="173.06399" r="10.92583" gradientUnits="userSpaceOnUse" id="color-2"><stop offset="0" stop-color="#a4a4a4"/><stop offset="1" stop-color="#4f4f4f"/></radialGradient><linearGradient x1="300.35719" y1="172.28829" x2="300.35719" y2="191.28323" gradientUnits="userSpaceOnUse" id="color-3"><stop offset="0" stop-color="#1c1c1c"/><stop offset="1" stop-color="#373737"/></linearGradient><radialGradient cx="303.17104" cy="177.85881" r="8.42886" gradientUnits="userSpaceOnUse" id="color-4"><stop offset="0" stop-color="#0e4873"/><stop offset="1" stop-color="#05092b"/></radialGradient><radialGradient cx="301.32446" cy="180.84593" r="7.34903" gradientUnits="userSpaceOnUse" id="color-5"><stop offset="0" stop-color="#7adaff" stop-opacity="0.73725"/><stop offset="1" stop-color="#7adaff" stop-opacity="0"/></radialGradient></defs><g transform="translate(-286.88808,-168.31665)"><g stroke="none" stroke-miterlimit="10"><g><path d="M313.82629,181.78576c0,7.43879 -6.03034,13.46911 -13.46911,13.46911c-7.43879,0 -13.46911,-6.03032 -13.46911,-13.46911c0,-7.43879 6.03032,-13.46911 13.46911,-13.46911c7.43879,0 13.46911,6.03032 13.46911,13.46911" fill="url(#color-1)" fill-rule="evenodd" stroke-width="0.07853" stroke-linecap="round" stroke-linejoin="round"/><path d="M311.28302,181.78576c0,6.03418 -4.89167,10.92583 -10.92583,10.92583c-6.03418,0 -10.92583,-4.89166 -10.92583,-10.92583c0,-6.03418 4.89166,-10.92583 10.92583,-10.92583c6.03418,0 10.92583,4.89166 10.92583,10.92583" fill="url(#color-2)" fill-rule="evenodd" stroke-width="0.07853" stroke-linecap="round" stroke-linejoin="round"/><path d="M309.85465,181.78576c0,5.24531 -4.25217,9.49747 -9.49747,9.49747c-5.24531,0 -9.49747,-4.25216 -9.49747,-9.49747c0,-5.24531 4.25216,-9.49747 9.49747,-9.49747c5.24531,0 9.49747,4.25216 9.49747,9.49747" fill="url(#color-3)" fill-rule="evenodd" stroke-width="0.07853" stroke-linecap="round" stroke-linejoin="round"/><path d="M308.78605,181.78576c0,4.65514 -3.77374,8.42886 -8.42886,8.42886c-4.65514,0 -8.42886,-3.77373 -8.42886,-8.42886c0,-4.65514 3.77373,-8.42886 8.42886,-8.42886c4.65514,0 8.42886,3.77373 8.42886,8.42886" fill="url(#color-4)" fill-rule="evenodd" stroke-width="0.07853" stroke-linecap="round" stroke-linejoin="round"/><path d="M307.70621,181.78576c0,4.05876 -3.29028,7.34903 -7.34903,7.34903c-4.05876,0 -7.34903,-3.29027 -7.34903,-7.34903c0,-4.05876 3.29027,-7.34903 7.34903,-7.34903c4.05876,0 7.34903,3.29027 7.34903,7.34903" fill="url(#color-5)" fill-rule="evenodd" stroke-width="0.07853" stroke-linecap="round" stroke-linejoin="round"/><text transform="translate(293.00812,183.79072) scale(0.16708,0.16708)" font-size="40" xml:space="preserve" fill="#ffffff" fill-rule="nonzero" stroke-width="1" stroke-linecap="butt" stroke-linejoin="miter" font-family="&quot;LowerResolution&quot;, Scratch" font-weight="normal" text-anchor="start"><tspan x="0" dy="0">Silence</tspan></text></g></g></g></svg>