<svg version="1.1" xmlns="http://www.w3.org/2000/svg" xmlns:xlink="http://www.w3.org/1999/xlink" width="47.04546" height="47.04546" viewBox="0,0,47.04546,47.04546"><defs><radialGradient cx="320.09616" cy="180" r="23.52273" gradientUnits="userSpaceOnUse" id="color-1"><stop offset="0" stop-color="#000000" stop-opacity="0.68235"/><stop offset="1" stop-color="#000000" stop-opacity="0"/></radialGradient><linearGradient x1="320.00002" y1="162.6087" x2="320.00002" y2="197.39131" gradientUnits="userSpaceOnUse" id="color-2"><stop offset="0" stop-color="#181818"/><stop offset="1" stop-color="#000000"/></linearGradient><linearGradient x1="320.09616" y1="162.6087" x2="320.09616" y2="197.39131" gradientUnits="userSpaceOnUse" id="color-3"><stop offset="0" stop-color="#000000"/><stop offset="1" stop-color="#020202"/></linearGradient></defs><g transform="translate(-296.57343,-156.47727)"><g stroke="none" stroke-miterlimit="10"><path d="M296.57343,180c0,-12.99124 10.53148,-23.52273 23.52273,-23.52273c12.99124,0 23.52273,10.53148 23.52273,23.52273c0,12.99124 -10.53148,23.52273 -23.52273,23.52273c-12.99124,0 -23.52273,-10.53148 -23.52273,-23.52273z" fill="url(#color-1)" stroke-width="0"/><path d="M302.60871,197.3913v-34.78261h34.78261v34.78261z" fill="#020202" stroke-width="0"/><path d="M302.60871,197.39131v-34.78261h34.78261l-2.48896,2.57975l-29.14148,0.24634l-0.30739,29.42558z" fill="url(#color-2)" stroke-width="0"/><path d="M337.48747,162.6087v34.78261h-34.78261l2.88669,-2.57975l28.74375,-0.24634l0.59148,-29.36876z" fill="url(#color-3)" stroke-width="0"/><path d="M321.67125,182.81833c-0.59201,0.46046 -1.05247,-0.13156 -1.05247,-0.13156l-0.64666,-0.92633c0.32173,-2.9729 3.44799,-5.51248 1.99111,-8.85665c-0.25412,-0.5833 -1.45446,-0.368 -1.71997,-0.36874c-2.66699,-0.00742 -5.21052,1.5716 -5.80167,4.34521c0,0 -0.16864,0.73079 -0.89944,0.56215c-0.73079,-0.16864 -0.56215,-0.89944 -0.56215,-0.89944c0.82606,-3.38598 3.85877,-5.60099 7.28656,-5.50774c1.21762,0.03312 2.24637,-0.14411 2.98591,1.10185c2.0526,3.45816 -1.26266,6.30094 -1.83242,9.23159l0.38275,0.3972c0,0 0.46046,0.59201 -0.13156,1.05247z" fill="#ffffff" stroke-width="0.5"/><path d="M322.66667,186.49103c0,-0.41421 0.33579,-0.75 0.75,-0.75c0.41421,0 0.75,0.33579 0.75,0.75c0,0.41421 -0.33579,0.75 -0.75,0.75c-0.41421,0 -0.75,-0.33579 -0.75,-0.75z" fill="#ffffff" stroke-width="0.5"/></g></g></svg>