<svg version="1.1" xmlns="http://www.w3.org/2000/svg" xmlns:xlink="http://www.w3.org/1999/xlink" width="124.11756" height="268.19431" viewBox="0,0,124.11756,268.19431"><defs><radialGradient cx="309.24419" cy="64.76093" r="24.65965" gradientUnits="userSpaceOnUse" id="color-1"><stop offset="0" stop-color="#9c45d9"/><stop offset="1" stop-color="#7745da"/></radialGradient><radialGradient cx="309.24419" cy="64.76093" r="24.65965" gradientUnits="userSpaceOnUse" id="color-2"><stop offset="0" stop-color="#45a8d9"/><stop offset="1" stop-color="#2d5f8c"/></radialGradient><radialGradient cx="309.24419" cy="64.76093" r="24.65965" gradientUnits="userSpaceOnUse" id="color-3"><stop offset="0" stop-color="#d94545"/><stop offset="1" stop-color="#8d2d2d"/></radialGradient><radialGradient cx="309.24419" cy="64.76093" r="24.65965" gradientUnits="userSpaceOnUse" id="color-4"><stop offset="0" stop-color="#cad945"/><stop offset="1" stop-color="#818c2d"/></radialGradient><radialGradient cx="309.24419" cy="64.76093" r="24.65965" gradientUnits="userSpaceOnUse" id="color-5"><stop offset="0" stop-color="#49d945"/><stop offset="1" stop-color="#2d8c62"/></radialGradient><linearGradient x1="320" y1="171.00148" x2="320" y2="178.46094" gradientUnits="userSpaceOnUse" id="color-6"><stop offset="0" stop-color="#232323"/><stop offset="1" stop-color="#4f4f4f"/></linearGradient><linearGradient x1="320" y1="101.62851" x2="320" y2="173.09013" gradientUnits="userSpaceOnUse" id="color-7"><stop offset="0" stop-color="#707070"/><stop offset="1" stop-color="#4c4c4c"/></linearGradient><linearGradient x1="320" y1="178.01337" x2="320" y2="202.48028" gradientUnits="userSpaceOnUse" id="color-8"><stop offset="0" stop-color="#707070"/><stop offset="1" stop-color="#4c4c4c"/></linearGradient><radialGradient cx="348.17969" cy="102.5647" r="35.73081" gradientUnits="userSpaceOnUse" id="color-9"><stop offset="0" stop-color="#aeaeae"/><stop offset="1" stop-color="#aeaeae" stop-opacity="0"/></radialGradient><radialGradient cx="297.94167" cy="161.55191" r="26.92845" gradientUnits="userSpaceOnUse" id="color-10"><stop offset="0" stop-color="#3d3d3d"/><stop offset="1" stop-color="#2f2f2f"/></radialGradient><radialGradient cx="325.38367" cy="128.17294" r="22.60488" gradientUnits="userSpaceOnUse" id="color-11"><stop offset="0" stop-color="#1c1c1c"/><stop offset="1" stop-color="#000000"/></radialGradient><radialGradient cx="290.78604" cy="180.15311" r="35.73082" gradientUnits="userSpaceOnUse" id="color-12"><stop offset="0" stop-color="#ffffff" stop-opacity="0.24706"/><stop offset="1" stop-color="#ffffff" stop-opacity="0"/></radialGradient><radialGradient cx="313.37779" cy="129.09647" r="18.51497" gradientUnits="userSpaceOnUse" id="color-13"><stop offset="0" stop-color="#474747"/><stop offset="1" stop-color="#474747" stop-opacity="0"/></radialGradient><linearGradient x1="314.19171" y1="188.94247" x2="314.19171" y2="195.285" gradientUnits="userSpaceOnUse" id="color-14"><stop offset="0" stop-color="#ffffff" stop-opacity="0.36078"/><stop offset="1" stop-color="#ffffff" stop-opacity="0"/></linearGradient><linearGradient x1="314.25501" y1="197.33559" x2="314.25501" y2="199.84069" gradientUnits="userSpaceOnUse" id="color-15"><stop offset="0" stop-color="#ffffff" stop-opacity="0.36078"/><stop offset="1" stop-color="#ffffff" stop-opacity="0"/></linearGradient><linearGradient x1="314.19171" y1="186.93838" x2="314.19171" y2="193.28092" gradientUnits="userSpaceOnUse" id="color-16"><stop offset="0" stop-color="#131313"/><stop offset="1" stop-color="#232323"/></linearGradient><linearGradient x1="314.25501" y1="195.33151" x2="314.25501" y2="197.83661" gradientUnits="userSpaceOnUse" id="color-17"><stop offset="0" stop-color="#131313"/><stop offset="1" stop-color="#232323"/></linearGradient><radialGradient cx="348.83857" cy="190.81071" r="6.69966" gradientUnits="userSpaceOnUse" id="color-18"><stop offset="0" stop-color="#333333"/><stop offset="1" stop-color="#1a1a1a"/></radialGradient><radialGradient cx="348.30489" cy="191.27518" r="4.88529" gradientUnits="userSpaceOnUse" id="color-19"><stop offset="0" stop-color="#2ec539"/><stop offset="1" stop-color="#137700"/></radialGradient><radialGradient cx="347.92541" cy="191.60544" r="3.59519" gradientUnits="userSpaceOnUse" id="color-20"><stop offset="0" stop-color="#98d19c"/><stop offset="1" stop-color="#98d19c" stop-opacity="0"/></radialGradient><linearGradient x1="274.86634" y1="219.06418" x2="274.86634" y2="257.15806" gradientUnits="userSpaceOnUse" id="color-21"><stop offset="0" stop-color="#3b1c18"/><stop offset="1" stop-color="#653728"/></linearGradient><linearGradient x1="365.7123" y1="219.06418" x2="365.7123" y2="257.15806" gradientUnits="userSpaceOnUse" id="color-22"><stop offset="0" stop-color="#3b1c18"/><stop offset="1" stop-color="#653728"/></linearGradient><linearGradient x1="320" y1="202.05851" x2="320" y2="214.49758" gradientUnits="userSpaceOnUse" id="color-23"><stop offset="0" stop-color="#c06a4d"/><stop offset="1" stop-color="#c06a4d" stop-opacity="0"/></linearGradient><radialGradient cx="307.61275" cy="55.07005" r="4.68153" gradientUnits="userSpaceOnUse" id="color-24"><stop offset="0" stop-color="#c3d945"/><stop offset="1" stop-color="#8c7a2d"/></radialGradient><radialGradient cx="307.61275" cy="45.85142" r="4.68153" gradientUnits="userSpaceOnUse" id="color-25"><stop offset="0" stop-color="#c3d945"/><stop offset="1" stop-color="#8c7a2d"/></radialGradient><radialGradient cx="303.00343" cy="50.46073" r="4.68153" gradientUnits="userSpaceOnUse" id="color-26"><stop offset="0" stop-color="#c3d945"/><stop offset="1" stop-color="#8c7a2d"/></radialGradient><radialGradient cx="312.22207" cy="50.46073" r="4.68153" gradientUnits="userSpaceOnUse" id="color-27"><stop offset="0" stop-color="#c3d945"/><stop offset="1" stop-color="#8c7a2d"/></radialGradient><radialGradient cx="304.35347" cy="53.72002" r="4.68153" gradientUnits="userSpaceOnUse" id="color-28"><stop offset="0" stop-color="#c3d945"/><stop offset="1" stop-color="#8c7a2d"/></radialGradient><radialGradient cx="310.87203" cy="47.20145" r="4.68153" gradientUnits="userSpaceOnUse" id="color-29"><stop offset="0" stop-color="#c3d945"/><stop offset="1" stop-color="#8c7a2d"/></radialGradient><radialGradient cx="304.35347" cy="47.20145" r="4.68153" gradientUnits="userSpaceOnUse" id="color-30"><stop offset="0" stop-color="#c3d945"/><stop offset="1" stop-color="#8c7a2d"/></radialGradient><radialGradient cx="310.87203" cy="53.72001" r="4.68153" gradientUnits="userSpaceOnUse" id="color-31"><stop offset="0" stop-color="#c3d945"/><stop offset="1" stop-color="#8c7a2d"/></radialGradient></defs><g transform="translate(-257.94122,-41.16989)"><g stroke="none" stroke-miterlimit="10"><g stroke-width="0"><path d="M285.95451,102.66374l21.69136,-49.31932l20.32139,49.31932z" fill="url(#color-1)"/><g><path d="M285.95451,102.66374l4.10798,-9.34024c5.44873,0.31319 9.90837,1.87996 14.436,5.49297c1.46451,1.16866 2.96785,2.40439 4.14814,3.84727z" fill="url(#color-2)"/><path d="M307.64588,53.34442l4.2699,10.3629c-1.17876,-0.37121 -2.35276,-0.96386 -3.47997,-1.78638c-1.00744,-0.73512 -2.3394,-1.66875 -3.35516,-2.74399z" fill="url(#color-3)"/><path d="M327.96726,102.66374h-4.38355c-5.23439,-2.9021 -9.77809,-8.38278 -7.45502,-13.80814c0.6105,-1.42579 2.16915,-2.97721 3.32144,-3.99344c0.28542,-0.25172 0.5774,-0.5002 0.87901,-0.73588z" fill="url(#color-4)"/><path d="M300.76971,85.63313c-2.33649,2.00278 -5.61641,2.77162 -8.67576,3.07147l8.55669,-19.45523c5.22492,4.14799 5.57488,11.70718 0.11907,16.38376z" fill="url(#color-5)"/></g></g><path d="M286.43243,178.46094v-7.45946h67.13514v7.45946z" fill="url(#color-6)" stroke-width="0"/><path d="M284.26919,173.09013v-71.46162h71.46162v71.46162z" fill="url(#color-7)" stroke-width="0"/><path d="M284.26919,202.48028v-24.46691h71.46163v24.46691z" fill="url(#color-8)" stroke-width="0"/><path d="M284.26919,126.31278v-24.68427h71.46162v42.24818z" fill="url(#color-9)" stroke-width="0"/><path d="M293.07155,164.28777v-53.8569h53.8569v53.85691z" fill="url(#color-10)" stroke-width="0"/><path d="M297.39512,159.9642v-45.20976h45.20976v45.20977z" fill="url(#color-11)" stroke-width="0"/><path d="M284.26919,202.22023v-24.20686h71.46163v9.77057z" fill="url(#color-12)" stroke-width="0"/><path d="M301.48504,155.87428v-37.02993h37.02993v37.02993z" fill="url(#color-13)" stroke-width="0"/><g stroke-width="0"><path d="M290.29658,195.285v-6.34253h47.79026v6.34253z" fill="url(#color-14)"/><path d="M290.35988,199.84069v-2.5051h47.79027v2.5051z" fill="url(#color-15)"/></g><path d="M290.29658,193.28092v-6.34253h47.79026v6.34253z" fill="url(#color-16)" stroke-width="0"/><path d="M290.35988,197.83661v-2.5051h47.79027v2.5051z" fill="url(#color-17)" stroke-width="0"/><path d="M340.16826,192.52579c0,-3.70012 2.99954,-6.69966 6.69966,-6.69966c3.70011,0 6.69966,2.99955 6.69966,6.69966c0,3.70012 -2.99955,6.69966 -6.69966,6.69966c-3.70011,0 -6.69966,-2.99954 -6.69966,-6.69966z" fill="url(#color-18)" stroke-width="0"/><path d="M341.98262,192.52579c0,-2.69807 2.18722,-4.88529 4.88529,-4.88529c2.69807,0 4.88529,2.18722 4.88529,4.88529c0,2.69807 -2.18722,4.88529 -4.88529,4.88529c-2.69807,0 -4.88529,-2.18722 -4.88529,-4.88529z" fill="url(#color-19)" stroke-width="0"/><path d="M343.27272,192.52579c0,-1.98557 1.60962,-3.59519 3.59519,-3.59519c1.98557,0 3.59519,1.60962 3.59519,3.59519c0,1.98557 -1.60962,3.59519 -3.59519,3.59519c-1.98557,0 -3.59519,-1.60962 -3.59519,-3.59519z" fill="url(#color-20)" stroke-width="0"/><g stroke-width="0"><path d="M264.88486,309.3642v-90.30002h19.96296v90.30002z" fill="#643728"/><path d="M264.88486,257.15806v-38.09388h19.96296v38.09388z" fill="url(#color-21)"/></g><g stroke-width="0"><path d="M355.73082,309.3642v-90.30002h19.96296v90.30002z" fill="#643728"/><path d="M355.73082,257.15806v-38.09388h19.96296v38.09388z" fill="url(#color-22)"/></g><path d="M257.94122,223.74107v-21.2259h124.11756v21.2259z" fill="#643728" stroke-width="0"/><path d="M257.94122,214.49758v-12.43906h124.11756v12.43907z" fill="url(#color-23)" stroke-width="0"/><g stroke-width="0"><g><g><path d="M309.39055,55.07005c0,2.58554 -0.79595,4.68153 -1.7778,4.68153c-0.98185,0 -1.7778,-2.09599 -1.7778,-4.68153c0,-2.58554 0.79595,-4.68153 1.7778,-4.68153c0.98185,0 1.7778,2.09599 1.7778,4.68153z" fill="url(#color-24)"/><path d="M309.39055,45.85142c0,2.58554 -0.79595,4.68153 -1.7778,4.68153c-0.98185,0 -1.7778,-2.09599 -1.7778,-4.68153c0,-2.58554 0.79595,-4.68153 1.7778,-4.68153c0.98185,0 1.7778,2.096 1.7778,4.68153z" fill="url(#color-25)"/></g><g><path d="M303.00343,52.23853c-2.58554,0 -4.68153,-0.79595 -4.68153,-1.7778c0,-0.98185 2.09599,-1.7778 4.68153,-1.7778c2.58554,0 4.68153,0.79595 4.68153,1.7778c0,0.98185 -2.096,1.7778 -4.68153,1.7778z" fill="url(#color-26)"/><path d="M312.22207,52.23853c-2.58554,0 -4.68153,-0.79595 -4.68153,-1.7778c0,-0.98185 2.09599,-1.7778 4.68153,-1.7778c2.58554,0 4.68153,0.79595 4.68153,1.7778c0,0.98185 -2.096,1.7778 -4.68153,1.7778z" fill="url(#color-27)"/></g></g><g><g><path d="M305.61056,54.97711c-1.82825,1.82825 -3.87316,2.74752 -4.56744,2.05325c-0.69427,-0.69427 0.225,-2.73918 2.05325,-4.56744c1.82825,-1.82825 3.87317,-2.74752 4.56744,-2.05325c0.69427,0.69427 -0.225,2.73919 -2.05325,4.56744z" fill="url(#color-28)"/><path d="M312.12912,48.45855c-1.82825,1.82825 -3.87316,2.74752 -4.56744,2.05325c-0.69427,-0.69427 0.225,-2.73918 2.05325,-4.56744c1.82825,-1.82825 3.87317,-2.74752 4.56744,-2.05325c0.69427,0.69427 -0.225,2.73919 -2.05325,4.56744z" fill="url(#color-29)"/></g><g><path d="M303.09637,48.45854c-1.82825,-1.82825 -2.74752,-3.87316 -2.05325,-4.56744c0.69427,-0.69427 2.73918,0.225 4.56744,2.05325c1.82825,1.82825 2.74752,3.87317 2.05325,4.56744c-0.69427,0.69427 -2.73919,-0.225 -4.56744,-2.05325z" fill="url(#color-30)"/><path d="M309.61494,54.97711c-1.82825,-1.82825 -2.74752,-3.87316 -2.05325,-4.56744c0.69427,-0.69427 2.73918,0.225 4.56744,2.05325c1.82825,1.82825 2.74752,3.87317 2.05325,4.56744c-0.69427,0.69427 -2.73919,-0.225 -4.56744,-2.05325z" fill="url(#color-31)"/></g></g></g><text transform="translate(299.86725,140.46909) scale(0.26954,0.26954)" font-size="40" xml:space="preserve" fill="#ffffff" stroke-width="1" font-family="&quot;LowerResolution&quot;, Scratch" font-weight="normal" text-anchor="start"><tspan x="0" dy="0">get me out.</tspan></text></g></g></svg>