<svg version="1.1" xmlns="http://www.w3.org/2000/svg" xmlns:xlink="http://www.w3.org/1999/xlink" width="42.89993" height="47.21113" viewBox="0,0,42.89993,47.21113"><g transform="translate(-298.55004,-156.39443)"><g stroke="none" stroke-width="0.5" stroke-miterlimit="10"><path d="" fill="#000000"/><path d="M333.04104,180.87622c-0.24395,-0.4879 0.10984,-0.77655 0.24769,-0.86596c-0.06684,-0.54019 -0.17121,-1.09053 -0.28382,-1.67732c-0.32722,-1.70509 -0.72812,-3.43557 -1.27506,-5.08611c-0.7258,-2.19027 -2.00079,-4.16187 -2.77532,-6.32956c-0.25208,-0.1168 -0.35529,-0.39204 -0.35529,-0.39204l-0.30378,-0.83376c-0.85636,-1.04885 -1.12487,-1.75017 -2.57898,-1.75931c-0.88225,0.24982 -1.90296,0.81422 -2.40464,1.62272c-0.23923,0.38552 -0.1715,1.01713 -0.56854,1.23672c-0.26717,0.14777 -2.4017,-0.69522 -2.73842,-0.78163c-2.34495,-0.60173 -4.90247,1.03234 -4.86385,3.53302c0,0 0,0.66788 -0.66788,0.66788c-0.4651,0 -0.60631,-0.32388 -0.64919,-0.52056l-0.25523,-0.1093c-2.94046,-2.58343 -4.38887,-6.60251 -6.92543,-9.59857c-1.6886,-1.99449 -3.30479,-2.77063 -5.62516,-1.2454c-3.4708,6.21675 1.92735,11.5181 5.72122,16.06988c0,0 0.23148,0.27778 0.14941,0.59489c0.28845,0.22182 0.23098,0.62405 0.23098,0.62405c-0.01581,0.09286 -0.02631,0.18796 -0.0318,0.28479c0.1962,-0.02925 0.4611,0.0087 0.64743,0.33477c0.33136,0.57988 -0.24852,0.91124 -0.24852,0.91124c-0.06665,0.03681 -0.13221,0.07554 -0.19669,0.11611c0.28064,0.85433 0.8194,1.67046 1.44408,2.15092l0.58076,0.46461c0,0 0.52153,0.41722 0.1043,0.93875c-0.41722,0.52153 -0.93875,0.1043 -0.93875,0.1043l-0.58076,-0.46461c-0.70702,-0.58157 -1.28862,-1.38302 -1.66556,-2.26633c-1.27306,1.49474 -1.85775,3.82673 -1.69308,5.74164c0.49716,-0.16134 0.76316,0.33265 0.76316,0.33265c1.90578,3.55803 5.55925,6.83165 9.5731,7.96132c1.37524,-2.89989 3.6576,-4.88562 6.12605,-6.91863c1.39939,-1.14803 2.96616,-1.97072 4.57952,-2.7847l0.78546,-0.39613c0,0 0.59634,-0.30074 0.89708,0.29559c0.30074,0.59634 -0.29559,0.89708 -0.29559,0.89708l-0.78546,0.39612c-1.52203,0.76727 -3.01617,1.53507 -4.33186,2.62315c-0.06821,0.05617 -0.13628,0.11228 -0.20421,0.16835c-1.98677,1.00921 -4.48357,3.70181 -5.63451,5.62006c-0.61525,1.02542 -0.92011,1.97081 -0.69349,2.9078c-0.0685,0.42813 -0.07342,0.85486 0.03503,1.2408c0.22314,0.7941 1.02722,1.54089 1.57066,2.12753c0.71221,0.76882 1.35128,1.35352 2.24987,1.76285c0.41296,-0.46796 0.91084,-0.9201 1.33191,-1.28875c0.83863,-1.6838 2.26959,-2.78218 3.72024,-3.97966c3.98794,-3.29196 9.02237,-5.71612 13.91588,-7.33578c0.26286,-0.08636 0.51485,-0.21879 0.78858,-0.25909c0.37967,-0.0559 0.79832,-0.21746 1.18642,-0.25148c0.01294,-1.00288 -0.44004,-1.86387 -1.07991,-2.62461c-0.10781,0.14847 -0.2953,0.28115 -0.61674,0.23523c-0.66117,-0.09445 -0.56671,-0.75562 -0.56671,-0.75562c0.28107,-1.11838 -1.41099,-2.40225 -2.82705,-2.93503c-0.07514,0.0011 -0.15138,0.00425 -0.22868,0.0095c-0.6525,0.04432 -1.28207,0.14238 -1.88755,0.29244c-0.22181,-0.40528 0.1376,-0.7647 0.1376,-0.7647l0.00916,-0.00763c-0.00615,-0.01115 -0.01219,-0.02265 -0.01812,-0.03449zM316.93498,200.7081c-1.04488,-0.91563 -2.48394,-2.34537 -2.87953,-3.71569c-0.27889,-0.96608 -0.0345,-2.12631 0.31036,-3.11409c-4.18557,-1.23225 -7.946,-4.54349 -10.0581,-8.24734l-0.9403,-0.14629c-0.60405,-2.76368 0.28385,-6.35267 2.45121,-8.34122c-0.0645,-0.43842 -0.07432,-0.87872 -0.02118,-1.30651c0,0 0.00443,-0.03103 0.0181,-0.07869c-0.06531,-0.0518 -0.10232,-0.09621 -0.10232,-0.09621c-4.2262,-5.07242 -9.90884,-11.05746 -5.66178,-17.8468c1.04121,-0.70057 2.83655,-1.68982 4.22798,-1.35284c1.33141,0.32244 2.54815,1.66935 3.38831,2.6628c0.98307,1.16244 1.95678,2.39314 2.82382,3.64808c1.24459,1.80139 1.96038,3.8129 3.52208,5.3939c0.55523,-1.86504 2.1662,-3.31552 4.19995,-3.58329c1.13483,-0.14942 1.99364,0.19717 3.04576,0.47897c0.28376,0.076 0.60922,0.00068 0.87108,0.13383c0.0812,0.04129 0.09863,0.2805 0.1017,0.35874c-0.01241,-1.65219 1.84294,-2.52778 3.2991,-2.94614c2.07897,-0.00904 2.72622,0.89667 3.9256,2.42221l0.1009,0.26299c0.32212,0.10343 0.42522,0.46427 0.42522,0.46427c1.2909,4.55339 4.54589,9.23974 4.79163,14.14461c1.62824,0.36345 3.41524,1.58783 4.11221,3.08088c1.5651,1.44617 2.88001,2.80096 2.49578,5.25302c0,0 -0.03813,0.22881 -0.2043,0.39426c-0.00009,0.15353 -0.01296,0.30483 -0.03213,0.44121c-0.2507,1.78382 -2.818,3.98068 -3.9451,5.25722c-3.76016,4.25871 -8.41276,6.80223 -13.68196,8.71471c-1.11452,0.27978 -4.88685,1.4573 -5.17754,-0.77141c-0.0236,-0.18093 0.01108,-0.37583 0.08925,-0.57851c-0.53818,-0.2655 -1.04775,-0.59406 -1.49578,-0.98667zM319.97694,201.60344c-0.0626,0.16694 -0.15305,0.2726 -0.25203,0.3378c-0.0256,0.0514 -0.04588,0.10133 -0.06017,0.14949c-0.0948,0.31954 0.6627,0.13471 0.99454,0.10353c0.83118,-0.07811 1.65853,-0.22208 2.46794,-0.42658c4.61134,-1.6802 8.76272,-3.81728 12.2405,-7.37019c1.17427,-1.19964 2.30404,-2.53787 3.3103,-3.88115c0.19538,-0.26082 0.38442,-0.5265 0.56737,-0.79618c0.20339,-0.29979 0.38293,-0.61554 0.59138,-0.91182c0.03895,-0.05536 0.21197,-0.16118 0.14799,-0.13906c-0.48248,0.1669 -0.93697,0.40923 -1.42132,0.57061c-4.7344,1.56454 -9.62793,3.91021 -13.48467,7.09747c-0.93853,0.77562 -1.9244,1.50537 -2.67055,2.43385c0.21434,0.41929 -0.16688,0.76767 -0.16688,0.76767l-0.15508,0.14172c-0.11714,0.10695 -0.28452,0.24413 -0.4775,0.40101c-0.00577,0.01343 -0.01149,0.0269 -0.01716,0.04042c0,0 -0.16472,0.38435 -0.53762,0.41447c-0.38493,0.32243 -0.7817,0.6769 -1.05655,1.00616c-0.00593,0.01984 -0.01275,0.04009 -0.0205,0.06078z" fill="#000000"/><path d="M319.97471,201.5567c0.27485,-0.32926 0.67121,-0.68441 1.05614,-1.00685c0.37289,-0.03011 0.53749,-0.41469 0.53749,-0.41469c0.00567,-0.01352 0.01135,-0.02705 0.01712,-0.04048c0.19299,-0.15687 0.36019,-0.29437 0.47733,-0.40131l0.155,-0.14185c0,0 0.38035,-0.35014 0.16601,-0.76943c0.74615,-0.92848 1.73015,-1.6643 2.66868,-2.43991c3.85674,-3.18726 8.79831,-5.55323 13.5327,-7.11778c0.48435,-0.16137 0.93929,-0.40306 1.42176,-0.56996c0.06397,-0.02213 -0.109,0.08375 -0.14795,0.13912c-0.20846,0.29628 -0.38744,0.61291 -0.59082,0.9127c-0.18296,0.26968 -0.37148,0.53623 -0.56686,0.79705c-1.00626,1.34327 -2.13311,2.68948 -3.30738,3.88911c-3.47777,3.5529 -7.67485,5.71337 -12.28619,7.39356c-0.80941,0.2045 -1.63883,0.34597 -2.47002,0.42408c-0.33184,0.03118 -1.09019,0.21479 -0.99538,-0.10475c0.01429,-0.04816 0.03447,-0.09827 0.06006,-0.14966c0.09897,-0.06521 0.18924,-0.17116 0.25185,-0.33809c0.00776,-0.02069 0.01452,-0.04102 0.02045,-0.06086z" fill="#cbe661"/><path d="M333.08566,180.91408l-0.00916,0.00765c0,0 -0.35966,0.36098 -0.13785,0.76626c0.60548,-0.15006 1.18236,-0.25688 1.83485,-0.3012c0.0773,-0.00525 0.20643,-0.00084 0.28157,-0.00194c1.41607,0.53278 3.10737,1.8202 2.8263,2.93857c0,0 -0.09468,0.66193 0.56649,0.75638c0.32144,0.04592 0.50909,-0.08728 0.6169,-0.23576c0.63987,0.76074 1.09195,1.62431 1.07901,2.62719c-0.3881,0.03402 -0.8071,0.19638 -1.18677,0.25228c-0.27373,0.04031 -0.52603,0.1734 -0.78889,0.25976c-4.89351,1.61966 -9.94523,4.05808 -13.93317,7.35004c-1.45065,1.19748 -2.88773,2.29673 -3.72636,3.98053c-0.42107,0.36865 -0.92066,0.82078 -1.33361,1.28874c-0.8986,-0.40932 -1.54078,-0.99433 -2.25299,-1.76315c-0.54344,-0.58664 -1.35025,-1.33401 -1.57339,-2.12811c-0.10845,-0.38594 -0.10406,-0.81282 -0.03557,-1.24095c-0.22663,-0.93699 0.09337,-1.93362 0.70862,-2.95904c1.15095,-1.91824 3.63446,-4.61139 5.62123,-5.6206c0.06792,-0.05608 0.1352,-0.112 0.20341,-0.16817c1.31569,-1.08807 2.79523,-1.84648 4.31726,-2.61375l0.78397,-0.39403c0,0 0.59484,-0.29811 0.2941,-0.89445c-0.30074,-0.59634 -0.84938,-0.27152 -0.84938,-0.27152l-0.78691,0.39859c-1.61336,0.81399 -3.19837,1.64836 -4.59776,2.79639c-2.46845,2.03301 -4.76443,4.01728 -6.13967,6.91716c-4.01385,-1.12967 -7.68281,-4.41899 -9.5886,-7.97702c0,0 -0.26631,-0.49488 -0.76347,-0.33354c-0.16467,-1.91491 0.41871,-4.2565 1.69177,-5.75125c0.37694,0.88331 1.0117,1.68251 1.71872,2.26408l0.58057,0.4634c0,0 0.46897,0.42685 0.88619,-0.09468c0.41722,-0.52153 -0.10463,-0.94107 -0.10463,-0.94107l-0.58085,-0.46584c-0.62468,-0.48046 -1.16327,-1.30123 -1.44391,-2.15556c0.06448,-0.04058 0.13008,-0.0796 0.19673,-0.1164c0,0 0.58022,-0.33332 0.24886,-0.91321c-0.18633,-0.32607 -0.45115,-0.3644 -0.64735,-0.33515c0.00549,-0.09684 0.01612,-0.19249 0.03193,-0.28535c0,0 0.05774,-0.40326 -0.2307,-0.62508c0.08207,-0.31711 -0.14911,-0.59585 -0.14911,-0.59585c-3.79387,-4.55178 -9.18483,-9.86425 -5.71403,-16.081c2.32036,-1.52522 3.93948,-0.75144 5.62808,1.24306c2.53656,2.99605 3.98539,7.01485 6.92585,9.59828l0.25553,0.10911c0.04288,0.19668 0.18465,0.52021 0.64975,0.52021c0.66788,0 0.66986,-0.66898 0.66986,-0.66898c-0.03862,-2.50068 2.53086,-4.13759 4.87581,-3.53586c0.33672,0.0864 2.47698,0.93001 2.74415,0.78224c0.39704,-0.21959 0.32985,-0.85108 0.56908,-1.2366c0.50169,-0.8085 1.52545,-1.37196 2.40771,-1.62178c1.4541,0.00913 1.72722,0.7127 2.58358,1.76154l0.30479,0.83441c0,0 0.10396,0.27575 0.35603,0.39256c0.77453,2.1677 2.05762,4.14873 2.78342,6.339c0.54694,1.65054 0.95072,3.39132 1.27794,5.09641c0.11261,0.58679 0.217,1.14054 0.28384,1.68073c-0.13786,0.08941 -0.4918,0.37985 -0.24785,0.86775c0.00592,0.01185 0.01196,0.02341 0.01811,0.03456z" fill="#cbe661"/><path d="M322.66078,180.29784c-0.41722,0.52153 -0.93875,0.10431 -0.93875,0.10431l-0.63972,-0.51783c-1.22501,-1.56913 -3.75771,-4.34871 -3.88653,-6.45416c-0.002,-0.03277 -0.00313,-0.06547 -0.00345,-0.09812l-0.01453,0.00161l-0.11508,-1.03573c-0.0034,-0.02732 -0.00516,-0.05516 -0.00516,-0.0834c0,-0.36886 0.29902,-0.66788 0.66788,-0.66788c0.29181,0 0.53992,0.18715 0.63083,0.44797l0.34298,0.91463c0,0 0.11481,0.30616 -0.03045,0.57037c0.39007,0.52848 0.59188,1.25271 0.92352,1.86291c0.7056,1.29825 1.54757,2.43401 2.44234,3.60518l0.52181,0.4114c0,0 0.52153,0.41722 0.10431,0.93875z" fill="#000000"/><path d="M326.5335,179.81679c-0.63309,0.21274 -0.84583,-0.42035 -0.84583,-0.42035l-0.11537,-0.34332c-0.97747,-2.909 -1.98385,-5.83303 -3.12394,-8.68132c0,0 -0.24804,-0.62011 0.37207,-0.86816c0.62011,-0.24804 0.86816,0.37207 0.86816,0.37207c1.14816,2.87229 2.16429,5.81901 3.1499,8.75192l0.11537,0.34332c0,0 0.21274,0.63309 -0.42035,0.84583z" fill="#000000"/></g></g></svg>