<svg version="1.1" xmlns="http://www.w3.org/2000/svg" xmlns:xlink="http://www.w3.org/1999/xlink" width="158.08805" height="254.79261" viewBox="0,0,158.08805,254.79261"><defs><linearGradient x1="389.07313" y1="54.87391" x2="389.07313" y2="75.82032" gradientUnits="userSpaceOnUse" id="color-1"><stop offset="0" stop-color="#ffe321"/><stop offset="1" stop-color="#b57100"/></linearGradient><linearGradient x1="389.11954" y1="55.6779" x2="389.11954" y2="72.04169" gradientUnits="userSpaceOnUse" id="color-2"><stop offset="0" stop-color="#ffda5d"/><stop offset="1" stop-color="#ffda5d" stop-opacity="0"/></linearGradient><linearGradient x1="251.93148" y1="54.87391" x2="251.93148" y2="75.82032" gradientUnits="userSpaceOnUse" id="color-3"><stop offset="0" stop-color="#ffe321"/><stop offset="1" stop-color="#b57100"/></linearGradient><linearGradient x1="251.88507" y1="55.6779" x2="251.88507" y2="72.04169" gradientUnits="userSpaceOnUse" id="color-4"><stop offset="0" stop-color="#ffda5d"/><stop offset="1" stop-color="#ffda5d" stop-opacity="0"/></linearGradient><linearGradient x1="320.00593" y1="170.07923" x2="320.00593" y2="309.66652" gradientUnits="userSpaceOnUse" id="color-5"><stop offset="0" stop-color="#a0a0a0"/><stop offset="1" stop-color="#4e4e4e"/></linearGradient><linearGradient x1="320.00593" y1="170.07923" x2="320.00593" y2="309.66652" gradientUnits="userSpaceOnUse" id="color-6"><stop offset="0" stop-color="#000000" stop-opacity="0.29804"/><stop offset="1" stop-color="#000000" stop-opacity="0"/></linearGradient><linearGradient x1="319.78774" y1="170.64612" x2="319.78774" y2="209.25897" gradientUnits="userSpaceOnUse" id="color-7"><stop offset="0" stop-color="#c4c4c4"/><stop offset="1" stop-color="#c4c4c4" stop-opacity="0"/></linearGradient><linearGradient x1="319.42711" y1="183.54816" x2="319.42711" y2="228.83656" gradientUnits="userSpaceOnUse" id="color-8"><stop offset="0" stop-color="#ffe321"/><stop offset="1" stop-color="#b57100"/></linearGradient><linearGradient x1="319.42711" y1="165.96674" x2="319.42711" y2="211.25513" gradientUnits="userSpaceOnUse" id="color-9"><stop offset="0" stop-color="#ffe321"/><stop offset="1" stop-color="#b57100"/></linearGradient><linearGradient x1="369.60102" y1="104.11133" x2="369.60102" y2="152.23227" gradientUnits="userSpaceOnUse" id="color-10"><stop offset="0" stop-color="#e2c81d"/><stop offset="1" stop-color="#905900"/></linearGradient><linearGradient x1="270.88071" y1="104.11133" x2="270.88071" y2="152.23227" gradientUnits="userSpaceOnUse" id="color-11"><stop offset="0" stop-color="#e2c81d"/><stop offset="1" stop-color="#905900"/></linearGradient><linearGradient x1="320.00004" y1="80.6423" x2="320.00004" y2="175.06564" gradientUnits="userSpaceOnUse" id="color-12"><stop offset="0" stop-color="#a0a0a0"/><stop offset="1" stop-color="#4e4e4e"/></linearGradient><linearGradient x1="320.00004" y1="84.26655" x2="320.00004" y2="158.03215" gradientUnits="userSpaceOnUse" id="color-13"><stop offset="0" stop-color="#c4c4c4"/><stop offset="1" stop-color="#c4c4c4" stop-opacity="0"/></linearGradient><linearGradient x1="320.00004" y1="80.7742" x2="320.00004" y2="175.19757" gradientUnits="userSpaceOnUse" id="color-14"><stop offset="0" stop-color="#000000" stop-opacity="0.39216"/><stop offset="1" stop-color="#000000" stop-opacity="0"/></linearGradient><linearGradient x1="319.67087" y1="107.77096" x2="319.67087" y2="149.51368" gradientUnits="userSpaceOnUse" id="color-15"><stop offset="0" stop-color="#ffe321"/><stop offset="1" stop-color="#b57100"/></linearGradient><radialGradient cx="297.9322" cy="127.91995" r="24.81101" gradientUnits="userSpaceOnUse" id="color-16"><stop offset="0" stop-color="#ff0000" stop-opacity="0.36863"/><stop offset="1" stop-color="#ff0000" stop-opacity="0"/></radialGradient><radialGradient cx="341.24633" cy="127.91995" r="24.81101" gradientUnits="userSpaceOnUse" id="color-17"><stop offset="0" stop-color="#ff0000" stop-opacity="0.36863"/><stop offset="1" stop-color="#ff0000" stop-opacity="0"/></radialGradient></defs><g transform="translate(-241.45828,-54.87392)"><g stroke="none" stroke-miterlimit="10"><g><path d="M380.89029,61.88327l-0.96878,-0.48601c-0.8994,-0.6026 -1.49838,-1.23938 -2.22994,-2.04321c-0.74884,-0.14424 -1.21025,2.59633 -1.59653,3.35952c-1.27934,2.5277 -2.63337,4.39494 -3.43095,7.07225c-0.48221,1.61866 -1.40323,2.30173 -3.01301,1.88809c-0.70228,-0.18045 -1.9736,-1.07093 -2.14424,-0.3662c-0.26601,1.0986 0.08988,2.80284 0.07521,3.96281c-1.26565,3.17607 -0.34065,6.67275 -0.9239,9.95161c-0.22515,1.26575 -1.21119,2.98175 -0.58102,4.33322c0.45713,0.98037 3.19146,-0.42481 2.66283,1.95976c-0.14272,0.64376 -0.95954,0.96563 -1.69637,1.02251l0.52819,0.21128c0.28485,0.10635 0.48768,0.38092 0.48768,0.70284c0,0.35693 -0.24933,0.65562 -0.58332,0.73141l-0.79356,0.19839c-0.22105,0.17659 -0.473,0.34662 -0.73981,0.47778c3.26472,1.08949 7.54221,0.43029 10.57888,1.72961l0.16198,-0.33231l0.97022,0.4729c0.2575,0.11877 0.43621,0.37922 0.43621,0.6814c0,0.39342 -0.30293,0.7161 -0.68827,0.7475l-1.42836,0.13295c-2.17192,0.67007 -4.35115,1.42027 -6.58213,1.86394c-0.64276,0.12783 -2.76288,0.43331 -3.31628,0.90696c-0.28557,0.24441 0.01763,4.53957 0.11438,4.99894c0,0 0.14709,0.73543 -0.58835,0.88252c-0.73543,0.14709 -0.88252,-0.58835 -0.88252,-0.58835c-0.16897,-0.88254 -0.58543,-5.31522 0.11439,-6.13406c0.75284,-0.88086 3.18877,-1.32062 4.2642,-1.53689c1.4273,-0.28702 2.83296,-0.70015 4.2304,-1.13318c-0.01059,-0.00097 -0.02115,-0.00192 -0.03168,-0.00284c-2.91387,-0.25266 -5.27641,-0.30554 -8.05406,-1.34787l-1.41161,-0.30725c-0.3447,-0.06764 -0.60476,-0.37142 -0.60476,-0.73595c0,-0.31328 0.19208,-0.5817 0.46489,-0.69391l1.16162,-0.5087c0.12891,-0.10151 0.2578,-0.20302 0.38669,-0.30455c-0.52825,-0.03364 -0.91241,-0.36601 -0.51459,-1.53045c0.07941,-0.23242 0.75464,-0.6881 1.43426,-0.89892c-0.11772,-0.02746 -0.22102,-0.0584 -0.29552,-0.09136c-1.38982,-0.61468 -1.52034,-1.94745 -1.38818,-3.30608c0.09447,-0.97115 0.52418,-1.88231 0.70294,-2.84153c0.61268,-3.28771 -0.35272,-6.79642 0.93159,-9.995c-0.01725,-1.0022 -0.44738,-3.48957 0.07522,-4.38694c1.28298,-2.20303 3.98907,0.67803 4.69157,-0.54851c0.37991,-0.6633 0.3488,-1.48981 0.57578,-2.21973c0.64735,-2.08176 2.3195,-3.85442 3.30781,-5.80099c1.18183,-2.32771 0.54402,-3.93073 3.50609,-4.06247c0.79258,0.74351 1.50708,1.53451 2.40881,2.13167l0.88671,0.44174c0,0 0.67082,0.33541 0.33541,1.00623c-0.33541,0.67082 -1.00623,0.33541 -1.00623,0.33541z" fill="#000000" stroke-width="0.5"/><g stroke-width="0"><path d="M398.91484,68.93719l-2.65057,4.02415l-3.05706,2.01146l-4.13408,0.84753l-4.63527,-1.079l-3.31683,-2.57834l-1.86443,-3.15756l-0.65667,-3.65831l0.66675,-3.68524l2.21798,-3.53304l3.17184,-2.28087l4.41663,-0.97405l3.90135,0.75077l3.47327,2.28584l2.09021,2.94703l1.00837,4.48956z" fill="url(#color-1)"/><path d="M396.8081,66.66442l-2.07069,3.14376l-2.38824,1.5714l-3.22963,0.66211l-3.62118,-0.84294l-2.59118,-2.01426l-1.45653,-2.46675l-0.51301,-2.85795l0.52088,-2.87899l1.73274,-2.76009l2.47791,-1.78187l3.45037,-0.76095l3.04783,0.58652l2.71339,1.78575l1.63292,2.30229l0.78776,3.50735z" fill="url(#color-2)"/></g></g><g><path d="M259.10809,61.54786c-0.33541,-0.67082 0.33541,-1.00623 0.33541,-1.00623l0.88671,-0.44174c0.90173,-0.59716 1.61622,-1.38815 2.40881,-2.13166c2.96207,0.13174 2.32426,1.73476 3.5061,4.06247c0.98832,1.94657 2.66046,3.71923 3.30781,5.80098c0.22698,0.72992 0.19588,1.55643 0.57579,2.21973c0.7025,1.22654 3.40859,-1.65452 4.69157,0.54851c0.5226,0.89737 0.09247,3.38473 0.07521,4.38694c1.28431,3.19858 0.31892,6.7073 0.9316,9.995c0.17875,0.95921 0.60847,1.87038 0.70294,2.84152c0.13217,1.35863 0.00164,2.69139 -1.38818,3.30608c-0.07451,0.03295 -0.1778,0.0639 -0.29552,0.09136c0.67961,0.21081 1.35486,0.6665 1.43426,0.89892c0.39782,1.16444 0.01366,1.49681 -0.51459,1.53045c0.12889,0.10153 0.25778,0.20305 0.38669,0.30455l1.16162,0.5087c0.27281,0.11221 0.46489,0.38063 0.46489,0.69391c0,0.36452 -0.26005,0.66831 -0.60476,0.73595l-1.41161,0.30725c-2.77766,1.04233 -5.14019,1.09521 -8.05406,1.34788c-0.01053,0.00091 -0.02109,0.00186 -0.03168,0.00283c1.39743,0.43303 2.8031,0.84617 4.23039,1.13319c1.07543,0.21626 3.51138,0.65603 4.26421,1.53689c0.69982,0.81883 0.28336,5.25151 0.11439,6.13406c0,0 -0.14709,0.73544 -0.88252,0.58835c-0.73544,-0.14709 -0.58835,-0.88252 -0.58835,-0.88252c0.09675,-0.45937 0.39996,-4.75453 0.11439,-4.99894c-0.55341,-0.47364 -2.67353,-0.77913 -3.31628,-0.90696c-2.23098,-0.44368 -4.41022,-1.19387 -6.58213,-1.86394l-1.42837,-0.13294c-0.38534,-0.03139 -0.68827,-0.35407 -0.68827,-0.7475c0,-0.30218 0.17871,-0.56262 0.43621,-0.6814l0.97022,-0.47291l0.16198,0.33232c3.03667,-1.29933 7.31416,-0.64013 10.57888,-1.72962c-0.26681,-0.13115 -0.51876,-0.3012 -0.73982,-0.47778l-0.79356,-0.19839c-0.33399,-0.07579 -0.58332,-0.37449 -0.58332,-0.73141c0,-0.32193 0.20283,-0.59649 0.48768,-0.70285l0.52819,-0.21128c-0.73682,-0.05689 -1.55365,-0.37875 -1.69636,-1.02251c-0.52863,-2.38457 2.20569,-0.97938 2.66283,-1.95975c0.63017,-1.35146 -0.35587,-3.06747 -0.58102,-4.33322c-0.58325,-3.27887 0.34175,-6.77555 -0.9239,-9.95161c-0.01468,-1.15997 0.34122,-2.86421 0.07521,-3.96281c-0.17064,-0.70473 -1.44196,0.18574 -2.14424,0.3662c-1.60978,0.41364 -2.53081,-0.26943 -3.01301,-1.88809c-0.79758,-2.67731 -2.15161,-4.54455 -3.43095,-7.07225c-0.38627,-0.76319 -0.84769,-3.50377 -1.59653,-3.35953c-0.73156,0.80383 -1.33054,1.44061 -2.22994,2.04321l-0.96878,0.48601c0,0 -0.67082,0.33541 -1.00623,-0.33541z" fill="#000000" stroke-width="0.5"/><g stroke-width="0"><path d="M241.45828,65.34712l1.00837,-4.48956l2.09021,-2.94703l3.47327,-2.28584l3.90135,-0.75077l4.41663,0.97405l3.17184,2.28087l2.21798,3.53304l0.66675,3.68524l-0.65667,3.65831l-1.86443,3.15756l-3.31683,2.57834l-4.63527,1.079l-4.13408,-0.84753l-3.05706,-2.01146l-2.65057,-4.02415z" fill="url(#color-3)"/><path d="M243.70317,63.8598l0.78776,-3.50735l1.63292,-2.30229l2.71339,-1.78575l3.04783,-0.58652l3.45037,0.76095l2.47791,1.78187l1.73274,2.76009l0.52088,2.87899l-0.51301,2.85795l-1.45653,2.46675l-2.59118,2.01426l-3.62118,0.84294l-3.22963,-0.66211l-2.38824,-1.5714l-2.07069,-3.14376z" fill="url(#color-4)"/></g></g><g stroke-width="0"><g><g><path d="M281.87126,309.66652l17.98805,-139.58728h41.01276l11.87211,139.58728z" fill="url(#color-5)"/><path d="M281.87126,309.66652l17.98805,-139.58728l-1.0016,76.55709l7.15614,11.63579l12.4922,6.79247l13.78305,-6.95249l6.97448,-10.46249l1.6085,-77.57037l11.87211,139.58729z" fill="url(#color-6)"/></g><path d="M299.03334,209.25897l5.59886,-44.21171h31.46947l4.44048,44.21172z" fill="url(#color-7)"/></g><g><path d="M287.02335,228.83656l10.04653,-45.28839h45.39945l9.36154,45.28839l-33.1046,11.05632z" fill="url(#color-8)"/><path d="M287.02335,199.69625l10.04653,-33.72951h45.39946l9.36154,33.72951l-32.60204,9.04608z" fill="url(#color-9)"/></g></g><path d="M358.62952,152.23227v-48.12095h21.94301c0,0 3.75094,8.8463 3.37584,24.89737c-0.45315,19.39107 -3.37584,23.22359 -3.37584,23.22359z" fill="url(#color-10)" stroke-width="0"/><path d="M259.90921,152.23227c0,0 -2.9227,-3.83253 -3.37585,-23.22359c-0.37509,-16.05107 3.37585,-24.89736 3.37585,-24.89736h21.94301v48.12095z" fill="url(#color-11)" stroke-width="0"/><g stroke-width="0"><path d="M272.78836,127.85399l4.54557,-20.2383l9.42238,-13.28479l15.65698,-10.30422l17.58674,-3.38437l19.90951,4.39088l14.29819,10.28182l9.99835,15.92645l3.00563,16.61253l-2.96018,16.49113l-8.40457,14.2338l-14.95178,11.62278l-20.89514,4.86397l-18.63582,-3.82055l-13.78076,-9.06738l-11.9484,-18.14029z" fill="url(#color-12)"/><path d="M283.11719,121.14937l3.5511,-15.81061l7.36097,-10.37838l12.23158,-8.04989l13.73916,-2.64395l15.55375,3.43025l11.17007,8.03239l7.81093,12.4421l2.34807,12.97808l-2.31256,12.88323l-6.56584,11.11977l-11.68067,9.07998l-16.32375,3.79985l-14.55872,-2.9847l-10.76584,-7.08364l-9.33436,-14.1716z" fill="url(#color-13)"/><path d="M272.78836,127.98592l3.51099,-15.63205l2.6304,15.53397l12.07213,15.47847l13.15468,10.68657l16.41727,2.76275l20.00548,-4.14932l15.52268,-11.84573l6.57772,-12.97062l1.52637,-16.47657l3.00563,16.61253l-2.96018,16.49113l-8.40457,14.2338l-14.95178,11.62278l-20.89514,4.86397l-18.63583,-3.82055l-13.78075,-9.06739l-11.9484,-18.14029z" fill="url(#color-14)"/></g><path d="M268.31258,149.51368l-3.52171,-21.12693l3.52171,-20.6158h102.86332l3.37497,20.6158l-3.37497,21.12693z" fill="url(#color-15)" stroke-width="0"/><path d="M325.7271,148.43785c-1.31017,-0.06214 -2.60549,-0.12288 -3.87699,-0.16585l-0.09072,-0.07438l-0.01579,0.04732l-0.7223,-0.24105c-0.30634,-0.09433 -0.52898,-0.37962 -0.52898,-0.7169c0,-0.41421 0.33579,-0.75 0.75,-0.75h0.92775v0.16015c2.47415,-0.49188 5.22339,-0.25597 7.77469,-0.18044c-0.1601,-0.39905 -0.29482,-0.78125 -0.38449,-1.13524c0,0 -0.1819,-0.72761 0.54571,-0.90951c0.72761,-0.1819 0.90951,0.54571 0.90951,0.54571c0.10387,0.42178 0.20704,0.90808 0.32107,1.41266c1.84521,-0.31488 3.6841,-0.46703 5.53969,-0.53857c0.70394,-0.29749 1.43189,-0.57212 2.17733,-0.82678c-0.00413,-0.03187 -0.00626,-0.06436 -0.00626,-0.09735c0,-0.41421 0.33579,-0.75 0.75,-0.75h1.5l0,0.00292c0.1675,0.00208 0.3356,0.00518 0.50417,0.00894c3.9516,-1.07106 8.15307,-1.71639 11.75201,-2.3143l0.8896,-0.2224c0.06314,-0.01726 0.1296,-0.02647 0.19822,-0.02647c0.41421,0 0.75,0.33579 0.75,0.75c0,0.3154 -0.19469,0.58533 -0.47045,0.69617l-1.36283,0.58407l-0.08237,-0.19219c-0.49203,0.2867 -0.99436,0.53627 -1.50577,0.7535c1.14135,0.00604 2.28688,0.00358 3.42793,-0.02059c0.0018,-0.00036 0.00359,-0.00072 0.00539,-0.00108c1.02164,-0.20514 1.90653,-0.48182 2.79778,-0.72924c0.32254,-0.16054 0.59477,-0.28703 0.74879,-0.37238l0.04936,0.01791l-0.01453,-0.0339l0.01831,-0.00785l-0.015,-0.03781l1.37848,-0.54674c0.08984,-0.03807 0.18865,-0.05912 0.29237,-0.05912c0.41421,0 0.75,0.33579 0.75,0.75c0,0.28381 -0.15765,0.53081 -0.39015,0.65819c0.22303,-0.02692 0.44528,-0.05562 0.66669,-0.08623l1.47367,-0.2019c0.03725,-0.00569 0.07541,-0.00865 0.11425,-0.00865c0.41421,0 0.75,0.33579 0.75,0.75c0,0.18781 -0.06903,0.35949 -0.1831,0.49106l-0.74332,0.86789l-0.01256,-0.01076c-0.04695,0.05435 -0.09742,0.1059 -0.15207,0.15414c-0.47402,0.41845 -2.54768,0.84939 -4.32543,0.92747c0.13478,0.13559 0.21806,0.32243 0.21806,0.52872c0,0.41421 -0.33579,0.75 -0.75,0.75c-0.77118,0 -3.04236,0 -3.81355,0c-0.01679,0.00063 -0.03359,0.00124 -0.05039,0.00183c0.01356,0.05642 0.02075,0.11533 0.02075,0.17592c0,0.32193 -0.20283,0.59649 -0.48768,0.70285l-0.3019,0.12076c-0.0186,0.03589 -0.0322,0.0563 -0.0322,0.0563l-0.50791,0.75528c-0.16942,0.16942 -0.30977,0.33555 -0.43542,0.49127c-0.18159,0.27406 -0.39748,0.55967 -0.69593,0.86868l-0.65397,1.08995c-0.06027,0.10453 -0.14503,0.19317 -0.24644,0.25807c-0.13907,1.95617 -0.40697,3.94834 -0.81431,5.83107c-0.01717,2.25423 -0.28407,4.56188 -0.73554,6.76867l-0.07176,0.07542l0.03317,0.01659l-0.45661,0.91322c-0.12026,0.25368 -0.37868,0.42912 -0.67809,0.42912c-0.39642,0 -0.721,-0.30755 -0.74816,-0.69707c-0.69765,-0.03406 -0.69765,-0.74874 -0.69765,-0.74874v-0.92775c0,-2.32788 0.81636,-3.57556 1.41169,-5.73881c0.21368,-0.77644 0.21809,-1.69303 0.14076,-2.66833c-0.16769,0.53048 -0.3553,1.04858 -0.5634,1.54772l0.19837,0.05668l-0.40753,1.42634c-0.08416,0.32216 -0.37716,0.5599 -0.7257,0.5599c-0.41421,0 -0.75,-0.33579 -0.75,-0.75c0,-0.05051 0,-0.10169 0,-0.15349c-0.14291,-0.13656 -0.23194,-0.32904 -0.23194,-0.54232v-1.15969c0,-1.65431 -0.24616,-3.52665 -0.28507,-5.28363c-0.09021,0.5165 -0.18014,1.03344 -0.26204,1.55267c0.14528,3.87456 0.59937,8.13786 -0.06159,11.79414c-0.07522,0.41612 -0.23736,0.86828 -0.45052,1.33565c0.00448,0.65558 0.00791,1.311 0.00791,1.96609v1.15969c0,0 0,0.75 -0.75,0.75c-0.75,0 -0.75,-0.75 -0.75,-0.75v-0.24176l-0.13822,0.62198c-0.06738,0.33599 -0.35927,0.59083 -0.71254,0.60138c-0.19464,0.32206 -0.41391,0.63823 -0.66051,0.94858l-0.09265,0.0339l0.02067,0.02755l-0.92169,0.69127c-0.12637,0.09693 -0.28449,0.15455 -0.45606,0.15455c-0.41421,0 -0.75,-0.33579 -0.75,-0.75c0,-0.14555 0.04146,-0.28142 0.11322,-0.39644l0.16447,-0.27412c-0.04576,-0.14095 -0.04576,-0.25719 -0.04576,-0.25719c0,-0.38656 0,-1.00506 0,-1.39162c0,-2.91103 0.08877,-6.12454 0.50775,-9.08786c-0.63581,-3.42525 -0.61447,-5.8984 -3.95034,-6.33041c-0.18771,0.39654 -0.6781,0.39654 -0.6781,0.39654c-0.27349,0 -0.51091,-0.01282 -0.72652,-0.02159c-0.12802,0.04312 -0.28377,0.05896 -0.44942,-0.00597c-0.17015,0.00578 -0.3314,0.02468 -0.4938,0.06858c0.13719,1.02497 0.3323,2.058 0.3323,3.15191c0,3.16325 0.05715,6.40892 -0.38986,9.54432c0.4804,0.25181 0.8884,0.6542 1.18574,1.28832l-0.0018,-0.08756c0,0 0.53033,0.53033 0,1.06066v-0.00002c-0.53033,0.53033 -1.06066,0 -1.06066,0l-0.33025,-0.41601c-0.00217,-0.00821 -0.00445,-0.01634 -0.00682,-0.02438c-0.02888,0.90111 -0.11776,1.7852 -0.3241,2.61995v1.32259c0,0.41421 -0.33579,0.75 -0.75,0.75c-0.37645,0 -0.68812,-0.27735 -0.74182,-0.63886l-0.22991,-1.37946l0.22173,-0.03696v-0.08634l0.09062,0l-0.085,-0.09164c0.03521,-0.14086 0.06696,-0.28316 0.09553,-0.42673c-0.03236,-0.78155 0.08569,-1.52282 0.22957,-2.33637c0.00338,-0.15406 0.00509,-0.30856 0.00542,-0.46332c-0.4474,-0.02651 -0.9383,0.0025 -1.39232,0.03781c0.00306,0.78096 0.00487,1.56033 0.00487,2.33732c0,1.55131 0,3.10262 0,4.65393v0.69581c0,0 0,0.75 -0.75,0.75c-0.75,0 -0.75,-0.75 -0.75,-0.75c0,-1.55131 0,-3.79843 0,-5.34975c0,-0.75406 0.00341,-1.50809 0.00787,-2.26197c-4.56193,0.00798 -9.20085,0.49294 -13.81491,0.49294c-3.00365,0 -6.57375,-0.54418 -9.41061,0.60325c0,0 -0.69636,0.27854 -0.9749,-0.41781c-0.27854,-0.69636 0.41781,-0.9749 0.41781,-0.9749c3.0641,-1.21394 6.72826,-0.71053 9.96769,-0.71053c4.62505,0 9.25011,-0.45676 13.82451,-0.49097c0.02911,-4.53455 0.04022,-9.06073 -0.47831,-13.55277c-0.17519,-1.51767 0.26764,-2.84534 0.41697,-4.18804c-0.80763,0 -1.61525,0 -2.42288,0h-0.49425c0,0 -0.40257,0 -0.61784,-0.29494zM351.27062,148.96473c-0.09531,0 -0.19069,0.00026 -0.28613,0.00077l0,0.40892c0,0.10607 -0.00039,0.21252 -0.00119,0.31931c0.03855,-0.04458 0.07912,-0.09022 0.12185,-0.13718c0.10321,-0.21137 0.17587,-0.41367 0.25153,-0.59181zM339.14238,152.28146l-0.01474,-0.0093l0.00261,0.01204l-0.00211,0.00046l0.0009,0.00422l-1.13708,0.24339c1.63811,0.6116 2.42721,1.84712 2.93887,3.50964c0.21614,-1.39165 0.36859,-2.8819 0.23896,-4.15219c-0.76478,0.13009 -1.47085,0.2515 -2.02741,0.39174zM336.7553,151.86945c0,-0.25418 0.12644,-0.47883 0.31986,-0.61447c-0.74437,0.00823 -1.48356,-0.0044 -2.2139,-0.04832l0.01546,0.13915l-1.02281,0.11365c0.00063,0.30921 -0.03086,0.62095 -0.03278,0.93015c-0.00053,0.08497 0.00029,0.1698 0.00232,0.25451c0.20544,-0.03776 0.41669,-0.05746 0.64703,-0.06756l0.68808,-0.47308c0.62891,0 1.18942,0.04399 1.69026,0.12894c-0.0596,-0.10756 -0.09353,-0.2313 -0.09353,-0.36298zM333.13364,148.92725c0.16779,-0.07087 0.33661,-0.13912 0.50637,-0.20499c-0.26546,0.00645 -0.53213,0.01003 -0.80011,0.01054c-0.16414,0 -0.32828,0 -0.49242,0c0.0456,0.11969 0.08803,0.24159 0.12722,0.36531c0.21982,-0.05611 0.43946,-0.11311 0.65894,-0.17085zM343.29132,145.75517c-0.10683,0.02779 -0.21366,0.05562 -0.32049,0.08349c0.39911,0.00143 0.80001,0.00251 1.20291,0.00251h0.49575c0.01008,-0.02781 0.02199,-0.05631 0.03605,-0.08484c-0.47606,0.01056 -0.94748,0.01515 -1.41423,-0.00116zM343.60623,152.77247c0.03248,-0.12559 0.06494,-0.25118 0.09738,-0.37677c-0.0086,-0.32994 -0.01443,-0.65701 -0.0166,-0.98063c-0.03927,0.00894 -0.07864,0.01779 -0.11808,0.02654c0.00714,0.44394 0.01999,0.88754 0.0373,1.33086zM347.50543,151.036c0.03093,-0.13231 0.0607,-0.26379 0.08895,-0.39427l-0.08895,0.01271c0,0.12719 0,0.25438 0,0.38157zM332.16585,166.41465c-0.03089,-0.90637 -0.07666,-1.80424 -0.07666,-2.66011c0.00627,-2.69526 -0.81213,-4.83682 -1.15407,-7.33036c-0.10899,-0.79481 -0.24211,-2.74554 0.08312,-3.46072c0.02305,-0.05069 0.05155,-0.09936 0.08398,-0.14651c-0.11714,-0.64116 -0.22472,-1.30289 -0.30572,-1.95431c-0.01475,-0.00796 -0.02921,-0.01639 -0.04335,-0.02529c-0.05804,5.09131 0.01149,10.36963 0.04087,15.59899c0.4644,-0.02065 0.9271,-0.03941 1.37181,-0.02169zM332.44177,155.23931c0,0 0,0 0,0c-0.05076,0.05076 -0.10877,0.09429 -0.17234,0.12888c0.19935,0.86621 0.60634,1.77032 0.79879,2.3009c0.00503,0.01387 0.01001,0.0278 0.01495,0.04178c-0.01444,-1.00499 -0.0855,-1.97535 -0.2433,-2.86967zM342.72767,162.68338c-0.0038,0.04561 -0.00766,0.09112 -0.01158,0.13656c0.00588,0.01683 0.01173,0.03366 0.01756,0.0505c-0.0019,-0.06236 -0.00389,-0.12471 -0.00598,-0.18706zM341.7626,166.82443l-0.30478,1.2656c-0.02712,0.12428 -0.08504,0.23704 -0.16537,0.32988c0.14859,-0.07316 0.30166,-0.14024 0.45469,-0.20739c0.29523,-0.83933 0.44221,-1.73173 0.50595,-2.64122c-0.12499,0.41648 -0.28417,0.833 -0.49048,1.25312z" fill="#000000" stroke-width="0.5"/><path d="M271.82286,146.33175l-3.28101,-17.90604l3.28101,-17.47283h95.83275l3.1443,17.47283l-3.1443,17.90604z" fill="#000000" stroke-width="0"/><g fill="#ff0000" stroke-width="0"><path d="M292.41693,135.52237v-15.04791h11.91293v15.04791z"/><path d="M335.43817,135.52237v-15.04791h11.91293v15.04791z"/></g><g stroke-width="0"><path d="M273.12119,127.91995c0,-13.70274 11.10827,-24.81101 24.81101,-24.81101c13.70274,0 24.81101,11.10827 24.81101,24.81101c0,13.70274 -11.10827,24.81101 -24.81101,24.81101c-13.70274,0 -24.81101,-11.10827 -24.81101,-24.81101z" fill="url(#color-16)"/><path d="M316.43532,127.91995c0,-13.70274 11.10826,-24.81101 24.81101,-24.81101c13.70274,0 24.81101,11.10827 24.81101,24.81101c0,13.70274 -11.10827,24.81101 -24.81101,24.81101c-13.70274,0 -24.81101,-11.10827 -24.81101,-24.81101z" fill="url(#color-17)"/></g><path d="M310.33687,102.00718c0,0.52707 -0.3704,0.68374 -0.5906,0.7303c-3.5348,3.3207 -8.87224,3.39439 -13.42053,2.63706c0,0 -0.7398,-0.1233 -0.6165,-0.86309c0.1233,-0.7398 0.86309,-0.6165 0.86309,-0.6165c4.12299,0.68784 9.16902,0.74646 12.31998,-2.4181l0.69455,-0.21967c0,0 0.75,0 0.75,0.75z" fill="#000000" stroke-width="0.5"/></g></g></svg>