<svg version="1.1" xmlns="http://www.w3.org/2000/svg" xmlns:xlink="http://www.w3.org/1999/xlink" width="47.04546" height="47.04546" viewBox="0,0,47.04546,47.04546"><defs><radialGradient cx="320.09618" cy="180.00002" r="23.52273" gradientUnits="userSpaceOnUse" id="color-1"><stop offset="0" stop-color="#000000" stop-opacity="0.68235"/><stop offset="1" stop-color="#000000" stop-opacity="0"/></radialGradient><linearGradient x1="320.00004" y1="162.6087" x2="320.00004" y2="197.39134" gradientUnits="userSpaceOnUse" id="color-2"><stop offset="0" stop-color="#dedede" stop-opacity="0.20784"/><stop offset="1" stop-color="#dedede" stop-opacity="0"/></linearGradient><linearGradient x1="320.09619" y1="162.6087" x2="320.09619" y2="197.39134" gradientUnits="userSpaceOnUse" id="color-3"><stop offset="0" stop-color="#292929" stop-opacity="0"/><stop offset="1" stop-color="#292929" stop-opacity="0.25098"/></linearGradient></defs><g transform="translate(-296.57344,-156.47728)"><g stroke="none" stroke-miterlimit="10"><path d="M296.57345,180.00002c0,-12.99124 10.53148,-23.52273 23.52273,-23.52273c12.99124,0 23.52273,10.53148 23.52273,23.52273c0,12.99124 -10.53148,23.52273 -23.52273,23.52273c-12.99124,0 -23.52273,-10.53148 -23.52273,-23.52273z" fill="url(#color-1)" stroke-width="0"/><path d="M302.60873,197.39132v-34.78261h34.78261v34.78261z" fill="#e8e8e8" stroke-width="0"/><g stroke-width="0"><path d="M302.60874,197.39134v-34.78261h34.78261l-2.48896,2.57975l-29.14148,0.24634l-0.30739,29.42558z" fill="url(#color-2)"/><path d="M337.4875,162.6087v34.78261h-34.78261l2.88669,-2.57975l28.74375,-0.24634l0.59148,-29.36876z" fill="url(#color-3)"/></g><path d="M312.9076,173.39117c0.74692,-0.0679 0.81482,0.67902 0.81482,0.67902l0.06692,0.75659c0.16053,0.67837 0.31386,1.35896 0.43877,2.04479c0,0 0.03526,0.19396 -0.0298,0.40107c0.02715,0.07757 0.0419,0.16096 0.0419,0.2478c0,0.41422 -0.33578,0.75 -0.75,0.75c-0.05273,0 -0.10419,-0.00545 -0.15384,-0.01579c-0.28166,0.07039 -0.54922,-0.06338 -0.54922,-0.06338c-0.57267,-0.28642 -1.14098,-0.58184 -1.7031,-0.88845l-0.72337,-0.36155c0,0 -0.67082,-0.33542 -0.33541,-1.00624c0.33541,-0.67082 1.00623,-0.33541 1.00623,-0.33541l0.74721,0.37375c0.27599,0.15054 0.55346,0.29842 0.83222,0.44382c-0.09403,-0.45147 -0.19714,-0.90115 -0.30221,-1.35014l-0.08014,-0.86106c0,0 -0.0679,-0.74692 0.67902,-0.81482z" fill="#000000" stroke-width="0.5"/><path d="M331.51089,178.4433c-0.11404,0.74128 -0.85532,0.62724 -0.85532,0.62724l-0.96022,-0.14774c-1.22953,-0.20401 -3.65273,-0.29978 -4.35053,-1.5563c-0.22954,-0.41333 1.21877,-2.32578 1.43319,-2.80347c0,0 0.31035,-0.68277 0.99313,-0.37242c0.68277,0.31035 0.37242,0.99313 0.37242,0.99313c-0.27693,0.60288 -0.51469,1.26947 -1.02323,1.73596c-0.01154,0.01058 -0.02852,0.01818 -0.04891,0.02348c-0.00523,0.01614 -0.011,0.03203 -0.01727,0.04767c0.94863,0.17461 1.92517,0.29283 2.87796,0.45076l0.95155,0.14638c0,0 0.74128,0.11404 0.62724,0.85532z" fill="#000000" stroke-width="0.5"/><path d="M327.90197,180.59397c0.75,0 0.75,0.75 0.75,0.75v0.7353c-0.21128,4.32745 -6.019,1.80266 -8.32364,0.50659c-0.30922,-0.1739 -1.4173,-1.0647 -1.9939,-1.08017c-2.54256,-0.06823 -6.35934,4.05936 -7.76848,-0.09326c0,0 -0.21551,-0.71837 0.50286,-0.93388c0.71837,-0.21551 0.93388,0.50285 0.93388,0.50285c0.51427,2.24032 4.96558,-1.032 6.34918,-0.97562c2.06458,0.08414 4.15328,2.13497 6.25903,2.61288c1.03094,0.23397 2.70575,1.1778 2.54108,-0.53939v-0.7353c0,0 0,-0.75 0.75,-0.75z" fill="#000000" stroke-width="0.5"/><path d="M317.48814,171.12079c-0.58565,0.46852 -1.05417,-0.11713 -1.05417,-0.11713l-0.26757,-0.33627c-2.04362,-2.30216 -4.99606,-3.70801 -7.30237,-5.70882c-0.51066,-0.44302 0.1334,1.3465 0.15517,2.02219c0.05677,1.76179 -0.20083,3.49257 -0.60853,5.19999c0,0 -0.17503,0.72929 -0.90432,0.55426c-0.72929,-0.17503 -0.55426,-0.90432 -0.55426,-0.90432c0.3795,-1.5727 0.624,-3.17551 0.56794,-4.80001c-0.02165,-0.62739 -0.24021,-2.40415 0.03807,-2.84573c1.03415,-1.641 2.11383,-0.27056 3.00254,0.31164c2.29946,1.50638 4.87785,3.11894 6.72396,5.17099l0.32067,0.39903c0,0 0.46852,0.58565 -0.11713,1.05417z" fill="#000000" stroke-width="0.5"/><path d="M333.7513,177.37936c-0.74128,0.11404 -0.85532,-0.62724 -0.85532,-0.62724l-0.15103,-0.98564c-0.2497,-3.40732 -0.16599,-6.75788 -0.14727,-10.1717c0.00187,-0.34041 -0.43489,0.53254 -0.70734,0.73664c-0.40325,0.30208 -0.79058,0.62552 -1.20089,0.91793c-1.66,1.18303 -3.37274,2.08209 -4.96603,3.35673c0,0 -0.58565,0.46852 -1.05417,-0.11713c-0.46852,-0.58565 0.11713,-1.05417 0.11713,-1.05417c1.9839,-1.58712 4.16444,-2.80804 6.21615,-4.3124c0.41964,-0.30769 1.7124,-1.36558 2.35077,-0.82337c0.6562,0.55736 0.72453,2.03769 0.73966,2.91114c0.04899,2.82729 -0.0615,5.56014 0.14248,8.38775l0.14309,0.92613c0,0 0.11404,0.74128 -0.62724,0.85532z" fill="#000000" stroke-width="0.5"/></g></g></svg>