<svg version="1.1" xmlns="http://www.w3.org/2000/svg" xmlns:xlink="http://www.w3.org/1999/xlink" width="267.52542" height="267.52542" viewBox="0,0,267.52542,267.52542"><defs><radialGradient cx="320" cy="126.82275" r="133.76271" gradientUnits="userSpaceOnUse" id="color-1"><stop offset="0" stop-color="#ffec6e" stop-opacity="0.4902"/><stop offset="1" stop-color="#ffec6e" stop-opacity="0"/></radialGradient><radialGradient cx="319.066" cy="192.09275" r="21.93531" gradientUnits="userSpaceOnUse" id="color-2"><stop offset="0" stop-color="#ff8700"/><stop offset="1" stop-color="#ff6200"/></radialGradient><radialGradient cx="319.066" cy="62.67439" r="21.93531" gradientUnits="userSpaceOnUse" id="color-3"><stop offset="0" stop-color="#ff8700"/><stop offset="1" stop-color="#ff6200"/></radialGradient><radialGradient cx="254.35682" cy="127.38358" r="21.93531" gradientUnits="userSpaceOnUse" id="color-4"><stop offset="0" stop-color="#ff8700"/><stop offset="1" stop-color="#ff6200"/></radialGradient><radialGradient cx="383.77518" cy="127.38357" r="21.93531" gradientUnits="userSpaceOnUse" id="color-5"><stop offset="0" stop-color="#ff8700"/><stop offset="1" stop-color="#ff6200"/></radialGradient><radialGradient cx="273.30971" cy="173.13988" r="21.93531" gradientUnits="userSpaceOnUse" id="color-6"><stop offset="0" stop-color="#ff8700"/><stop offset="1" stop-color="#ff6200"/></radialGradient><radialGradient cx="364.8223" cy="81.62727" r="21.93531" gradientUnits="userSpaceOnUse" id="color-7"><stop offset="0" stop-color="#ff8700"/><stop offset="1" stop-color="#ff6200"/></radialGradient><radialGradient cx="273.30969" cy="81.62727" r="21.93531" gradientUnits="userSpaceOnUse" id="color-8"><stop offset="0" stop-color="#ff8700"/><stop offset="1" stop-color="#ff6200"/></radialGradient><radialGradient cx="364.8223" cy="173.13986" r="21.93531" gradientUnits="userSpaceOnUse" id="color-9"><stop offset="0" stop-color="#ff8700"/><stop offset="1" stop-color="#ff6200"/></radialGradient><radialGradient cx="320" cy="126.82275" r="50.59676" gradientUnits="userSpaceOnUse" id="color-10"><stop offset="0" stop-color="#ffec6d"/><stop offset="1" stop-color="#ffa800"/></radialGradient></defs><g transform="translate(-186.23729,6.93996)"><g stroke="none" stroke-miterlimit="10"><path d="M186.23729,126.82275c0,-73.87511 59.8876,-133.76271 133.76271,-133.76271c73.87511,0 133.76271,59.8876 133.76271,133.76271c0,73.87511 -59.8876,133.76271 -133.76271,133.76271c-73.87511,0 -133.76271,-59.8876 -133.76271,-133.76271z" fill="url(#color-1)" stroke-width="0"/><g stroke-width="0"><g><g><path d="M341.00132,168.43394l-21.62195,47.31761l-22.24868,-47.31761z" fill="url(#color-2)"/><path d="M297.13069,86.33319l22.24868,-47.31761l21.62195,47.31761z" fill="url(#color-3)"/></g><g><path d="M278.01563,149.31889l-47.31761,-21.62195l47.31761,-22.24868z" fill="url(#color-4)"/><path d="M360.11637,105.44825l47.31761,22.24868l-47.31759,21.62195z" fill="url(#color-5)"/></g></g><g><g><path d="M305.54962,171.92118l-48.74764,18.16957l17.72641,-49.19079z" fill="url(#color-6)"/><path d="M332.5824,82.84595l49.19079,-17.7264l-18.16957,48.74763z" fill="url(#color-7)"/></g><g><path d="M274.5284,113.86718l-18.16957,-48.74763l49.19079,17.72641z" fill="url(#color-8)"/><path d="M363.6036,140.89996l17.72641,49.19079l-48.74762,-18.16956z" fill="url(#color-9)"/></g></g></g><path d="M269.40325,126.82275l12.88434,-33.7321l37.71242,-16.86466l35.80673,14.84888l14.79004,35.74788l-13.34901,34.2442l-37.24775,16.35256l-35.18985,-14.24141z" fill="url(#color-10)" stroke-width="0"/><path d="M298.97763,118.78871l-0.02239,0.52491c-0.49997,1.94418 -2.4744,3.515 -2.94062,0.76846c-0.06748,0.03651 -0.13482,0.07328 -0.20202,0.11031c0.84981,3.9166 2.80527,7.82891 5.17809,10.4731c7.34234,5.29748 10.53263,-7.16195 10.55458,-12.3666c-0.14956,-0.66137 -0.30355,-1.3956 -0.47671,-2.16667c-4.15778,0.14663 -8.28753,0.98039 -12.10094,2.54985c0.01002,0.06442 0.01002,0.10666 0.01002,0.10666zM297.40979,119.58272c0.00555,-0.07127 0.01317,-0.14638 0.02207,-0.22026c-0.04082,0.01941 -0.08161,0.03892 -0.12235,0.05851c0.04265,0.05151 0.07529,0.10699 0.10028,0.16174zM313.26945,115.35867c0,0.62276 -0.51711,0.72841 -0.69257,0.74634c0.16056,0.67547 0.31136,1.35451 0.45941,2.03019c0.02429,6.64381 -4.28122,20.0509 -13.04945,13.64487c-2.20776,-2.44709 -4.44986,-6.51856 -5.60237,-10.74863c-0.08337,0.04754 -0.6554,0.34396 -1.02322,-0.24455c-0.3975,-0.636 0.2385,-1.0335 0.2385,-1.0335c0.13849,-0.08647 0.27763,-0.17182 0.4174,-0.25605c-0.37956,-1.84549 -0.5278,-3.68757 -0.35249,-5.40596c-0.07441,-0.17265 -0.07441,-0.33339 -0.07441,-0.33339v-0.22867c0.00385,-3.20806 2.00398,-7.39097 4.93653,-8.87461c1.46126,-0.98102 3.46674,-0.8712 5.15423,-0.42495c5.23933,1.38551 7.25335,5.66416 8.51925,10.37946c0.06829,-0.00035 0.13657,-0.00053 0.20485,-0.00053h0.11433c0,0 0.75,0 0.75,0.75zM296.58716,108.60442c0.06027,0.03029 0.12208,0.07125 0.18488,0.12507c0.56944,0.4881 0.08135,1.05754 0.08135,1.05754c-0.94987,1.04697 -1.08481,2.71055 -1.31599,4.09426c-0.24948,1.49321 -0.233,3.11109 -0.00261,4.7581c4.64335,-2.45856 9.88751,-3.76582 15.18126,-3.99433c-0.90513,-3.58012 -2.37523,-7.44281 -5.71651,-8.39701c-1.73246,-0.49475 -4.10168,-1.55156 -5.69904,-0.30828c-1.07324,0.52966 -2.00274,1.50724 -2.71334,2.66466z" fill="#000000" stroke-width="0.5"/><path d="M332.47765,113.07198l-0.02239,0.52491c-0.49997,1.94418 -2.4744,3.515 -2.94062,0.76846c-0.06748,0.03651 -0.13482,0.07328 -0.20202,0.11031c0.84981,3.9166 2.80527,7.82891 5.17809,10.4731c7.34234,5.29748 10.53263,-7.16195 10.55458,-12.3666c-0.14956,-0.66137 -0.30355,-1.3956 -0.47671,-2.16667c-4.15778,0.14663 -8.28753,0.98039 -12.10094,2.54985c0.01002,0.06442 0.01002,0.10666 0.01002,0.10666zM330.90981,113.86599c0.00555,-0.07127 0.01317,-0.14638 0.02207,-0.22026c-0.04082,0.01941 -0.08161,0.03892 -0.12235,0.05851c0.04265,0.05151 0.07529,0.10699 0.10028,0.16174zM346.76947,109.64194c0,0.62276 -0.51711,0.72841 -0.69257,0.74634c0.16056,0.67547 0.31136,1.35451 0.45941,2.03019c0.02429,6.64381 -4.28122,20.05089 -13.04945,13.64487c-2.20776,-2.44709 -4.44986,-6.51855 -5.60237,-10.74862c-0.08337,0.04754 -0.65541,0.34396 -1.02323,-0.24455c-0.3975,-0.636 0.2385,-1.0335 0.2385,-1.0335c0.13849,-0.08647 0.27763,-0.17182 0.4174,-0.25606c-0.37956,-1.84549 -0.5278,-3.68756 -0.35249,-5.40595c-0.07441,-0.17265 -0.07441,-0.33339 -0.07441,-0.33339v-0.22867c0.00385,-3.20806 2.00398,-7.39097 4.93653,-8.87461c1.46126,-0.98102 3.46674,-0.8712 5.15423,-0.42495c5.23933,1.38551 7.25335,5.66416 8.51925,10.37946c0.06829,-0.00035 0.13657,-0.00053 0.20485,-0.00053h0.11434c0,0 0.75,0 0.75,0.75zM330.08718,102.88769c0.06027,0.03029 0.12208,0.07125 0.18488,0.12507c0.56944,0.4881 0.08135,1.05754 0.08135,1.05754c-0.94987,1.04697 -1.08481,2.71055 -1.31599,4.09425c-0.24948,1.49321 -0.233,3.11109 -0.00261,4.7581c4.64335,-2.45857 9.88751,-3.76582 15.18126,-3.99433c-0.90513,-3.58012 -2.37523,-7.44281 -5.71651,-8.39701c-1.73246,-0.49475 -4.10168,-1.55157 -5.69904,-0.30829c-1.07324,0.52966 -2.00274,1.50725 -2.71334,2.66466z" fill="#000000" stroke-width="0.5"/><path d="M333.21313,139.99094c0.75,0 0.75,0.75 0.75,0.75l-0.02239,0.52491c-0.19924,0.78242 -0.52168,1.53327 -0.88134,2.25612c-3.47596,5.05089 -10.8364,6.3987 -16.52538,5.13808c-2.7815,-0.61635 -5.91404,-2.56497 -6.02311,-5.63241c0,0 0,-0.75 0.75,-0.75c0.75,0 0.75,0.75 0.75,0.75c-0.13361,2.25125 2.93284,3.7436 4.84764,4.16794c4.9651,1.10032 11.86428,0.07575 14.90764,-4.43361c0.29871,-0.59383 0.56148,-1.21421 0.71934,-1.85992l-0.02239,-0.1611c0,0 0,-0.75 0.75,-0.75z" fill="#000000" stroke-width="0.5"/><path d="M293.36071,139.48326c0,-0.41421 0.33579,-0.75 0.75,-0.75c0.41421,0 0.75,0.33579 0.75,0.75c0,0.41421 -0.33579,0.75 -0.75,0.75c-0.41421,0 -0.75,-0.33579 -0.75,-0.75z" fill="#000000" stroke-width="0.5"/><path d="M296.56208,140.16927c0,-0.41421 0.33579,-0.75 0.75,-0.75c0.41421,0 0.75,0.33579 0.75,0.75c0,0.41421 -0.33579,0.75 -0.75,0.75c-0.41421,0 -0.75,-0.33579 -0.75,-0.75z" fill="#000000" stroke-width="0.5"/><path d="M294.27539,142.45596c0,-0.41421 0.33579,-0.75 0.75,-0.75c0.41421,0 0.75,0.33579 0.75,0.75c0,0.41421 -0.33579,0.75 -0.75,0.75c-0.41421,0 -0.75,-0.33579 -0.75,-0.75z" fill="#000000" stroke-width="0.5"/><path d="M348.01263,128.27847c0,-0.41421 0.33579,-0.75 0.75,-0.75c0.41421,0 0.75,0.33579 0.75,0.75c0,0.41421 -0.33579,0.75 -0.75,0.75c-0.41421,0 -0.75,-0.33579 -0.75,-0.75z" fill="#000000" stroke-width="0.5"/><path d="M353.15768,127.13513c0,-0.41421 0.33579,-0.75 0.75,-0.75c0.41421,0 0.75,0.33579 0.75,0.75c0,0.41421 -0.33579,0.75 -0.75,0.75c-0.41421,0 -0.75,-0.33579 -0.75,-0.75z" fill="#000000" stroke-width="0.5"/><path d="M350.64232,130.3365c0,-0.41421 0.33579,-0.75 0.75,-0.75c0.41421,0 0.75,0.33579 0.75,0.75c0,0.41421 -0.33579,0.75 -0.75,0.75c-0.41421,0 -0.75,-0.33579 -0.75,-0.75z" fill="#000000" stroke-width="0.5"/></g></g></svg>