<svg version="1.1" xmlns="http://www.w3.org/2000/svg" xmlns:xlink="http://www.w3.org/1999/xlink" width="47.04546" height="47.04546" viewBox="0,0,47.04546,47.04546"><defs><radialGradient cx="320.09619" cy="180.00003" r="23.52273" gradientUnits="userSpaceOnUse" id="color-1"><stop offset="0" stop-color="#000000" stop-opacity="0.68235"/><stop offset="1" stop-color="#000000" stop-opacity="0"/></radialGradient><linearGradient x1="320.00005" y1="162.6087" x2="320.00005" y2="197.39135" gradientUnits="userSpaceOnUse" id="color-2"><stop offset="0" stop-color="#dedede" stop-opacity="0.20784"/><stop offset="1" stop-color="#dedede" stop-opacity="0"/></linearGradient><linearGradient x1="320.09619" y1="162.6087" x2="320.09619" y2="197.39135" gradientUnits="userSpaceOnUse" id="color-3"><stop offset="0" stop-color="#292929" stop-opacity="0"/><stop offset="1" stop-color="#292929" stop-opacity="0.25098"/></linearGradient></defs><g transform="translate(-296.57345,-156.47729)"><g stroke="none" stroke-miterlimit="10"><path d="M296.57345,180.00003c0,-12.99124 10.53148,-23.52273 23.52273,-23.52273c12.99124,0 23.52273,10.53148 23.52273,23.52273c0,12.99124 -10.53148,23.52273 -23.52273,23.52273c-12.99124,0 -23.52273,-10.53148 -23.52273,-23.52273z" fill="url(#color-1)" stroke-width="0"/><path d="M302.60873,197.39133v-34.78261h34.78261v34.78261z" fill="#3b3b3b" stroke-width="0"/><g stroke-width="0"><path d="M302.60875,197.39135v-34.78261h34.78261l-2.48896,2.57975l-29.14148,0.24634l-0.30739,29.42558z" fill="url(#color-2)"/><path d="M337.48751,162.6087v34.78261h-34.78261l2.88669,-2.57975l28.74375,-0.24634l0.59148,-29.36876z" fill="url(#color-3)"/></g><path d="M312.77238,179.12431c0,-0.41422 0.33578,-0.75 0.75,-0.75c0.41422,0 0.75,0.33578 0.75,0.75c0,0.41422 -0.33578,0.75 -0.75,0.75c-0.41422,0 -0.75,-0.33578 -0.75,-0.75z" fill="#000000" stroke-width="0.5"/><path d="M317.43143,180.14832c-0.71151,0.23717 -0.94869,-0.47434 -0.94869,-0.47434l-0.09214,-0.32728c-1.39637,-2.39009 -3.27298,-4.38578 -5.32307,-6.22742c0,0 -0.55748,-0.50172 -0.05575,-1.05919c0.50173,-0.55747 1.05919,-0.05575 1.05919,-0.05575c2.16384,1.95085 4.1356,4.05913 5.61443,6.58508l0.22036,0.61022c0,0 0.23717,0.71152 -0.47434,0.94869z" fill="#000000" stroke-width="0.5"/><path d="M331.3807,187.58472c-0.33541,0.67082 -1.00624,0.33541 -1.00624,0.33541l-0.08418,-0.0467c-1.81394,-0.70103 -3.81749,-0.421 -5.75228,-0.421c-3.57506,0 -7.85665,-0.07313 -11.17977,1.41973c0,0 -0.68536,0.30461 -0.98996,-0.38075c-0.3046,-0.68536 0.38075,-0.98996 0.38075,-0.98996c4.48811,-1.97663 13.39621,-2.74089 18.06795,-1.03251l0.22832,0.10955c0,0 0.67082,0.33542 0.33541,1.00624z" fill="#000000" stroke-width="0.5"/><path d="M307.5499,182.16768c-0.07463,0.74628 -0.82091,0.67165 -0.82091,0.67165l-0.74398,-0.07533c-0.73471,0.00092 -2.52909,0.25194 -3.00488,-0.48384c-0.44735,-0.69179 0.18731,-1.69171 0.38524,-2.32928c0.74368,-2.39555 1.25495,-4.20715 2.7374,-6.08113c-0.69962,-0.167 -1.36313,-0.3909 -2.0746,-0.58437l-0.60682,-0.28713c0,0 -0.67082,-0.33541 -0.33541,-1.00623l-0.00001,0c0.33541,-0.67082 1.00623,-0.33541 1.00623,-0.33541l0.33068,0.18162c0.38194,0.10445 0.74944,0.2201 1.11681,0.32953c-0.61976,-1.1692 -1.3072,-2.29857 -2.02562,-3.41535c-0.17918,-0.09757 -0.35102,-0.28473 -0.35102,-0.64373c0,-0.75 0.75,-0.75 0.75,-0.75l0.70757,0.34221c0.72671,1.12194 1.42431,2.25461 2.06022,3.42322c0.23798,-1.93933 0.88555,-4.15111 1.77156,-5.45183c0.33564,-0.49274 0.65067,-1.27868 1.24685,-1.28233c1.08346,-0.00664 1.77941,2.67488 2.09296,3.42874c4.00681,-1.6137 8.15972,-2.69911 12.47568,-2.9769c0.64338,-0.04141 3.90942,-0.37458 4.18939,0.29447c0.27431,0.65552 -0.80754,2.64457 -1.40886,3.85668c2.97192,-0.01594 7.79236,0.07457 9.16958,2.67391c0.69227,1.30659 -0.59225,2.26744 -1.1659,3.27237c-0.0107,0.14592 -0.09436,0.71634 -0.74843,0.71634c-0.75,0 -0.75,-0.75 -0.75,-0.75l0.07918,-0.49166c0.14527,-0.28763 1.34655,-1.96548 1.25649,-2.05089c-2.14866,-2.03775 -6.01117,-1.87006 -8.80328,-1.86387c-0.0935,0.01327 -0.20081,0.00848 -0.32367,-0.02223c-0.20509,-0.05127 -0.33792,-0.1459 -0.42293,-0.25537c-0.08558,-0.10902 -0.14517,-0.26083 -0.14517,-0.47223c0,-0.13144 0.02303,-0.23983 0.06103,-0.32924l0.06421,-0.2449c0.40014,-1.07234 0.69925,-2.09283 1.46859,-2.89443c-0.16017,0.00081 -1.50413,-0.00123 -1.5228,-0.00057c-1.11487,0.03908 -2.26324,0.08157 -3.36907,0.22903c-3.35068,0.44679 -6.76,1.5515 -9.88515,2.83987c0,0 -0.32583,0.13417 -0.62278,-0.00477c-0.37144,-0.00902 -0.59932,-0.35084 -0.59932,-0.35084l-0.38077,-0.59632c-0.04604,-0.1105 -0.50385,-1.1852 -0.70695,-1.89177c-0.18756,0.74337 -0.68733,1.92211 -0.75388,2.15926c-0.4194,1.49452 -0.99251,2.88909 -0.84945,4.45989c0,0 0.01653,0.19831 -0.0696,0.39915c0.06141,0.35215 -0.20484,0.64059 -0.20484,0.64059c-1.93822,2.09468 -2.69317,4.68399 -3.60261,7.27293c-0.20403,0.58082 1.22326,-0.17204 1.83887,-0.17134l0.81852,0.08092c0,0 0.74628,0.07463 0.67165,0.82091z" fill="#000000" stroke-width="0.5"/><path d="M325.97551,179.51492c0,-0.41421 0.33579,-0.75 0.75,-0.75c0.41421,0 0.75,0.33579 0.75,0.75c0,0.41421 -0.33579,0.75 -0.75,0.75c-0.41421,0 -0.75,-0.33579 -0.75,-0.75z" fill="#000000" stroke-width="0.5"/></g></g></svg>