<svg version="1.1" xmlns="http://www.w3.org/2000/svg" xmlns:xlink="http://www.w3.org/1999/xlink" width="94.42335" height="259.7637" viewBox="0,0,94.42335,259.7637"><defs><radialGradient cx="320.55836" cy="78.68643" r="15.95448" gradientUnits="userSpaceOnUse" id="color-1"><stop offset="0" stop-color="#d4d4d4"/><stop offset="1" stop-color="#6a6a6a"/></radialGradient><radialGradient cx="320.02653" cy="129.27196" r="35.03476" gradientUnits="userSpaceOnUse" id="color-2"><stop offset="0" stop-color="#d8d8d8"/><stop offset="1" stop-color="#d8d8d8" stop-opacity="0"/></radialGradient></defs><g transform="translate(-272.78833,-49.9028)"><g stroke="none" stroke-width="0" stroke-miterlimit="10"><path d="M281.87126,309.6665l17.98805,-139.58728h41.01276l11.87211,139.58728z" fill="#000000"/><path d="M272.78833,128.09513l4.54557,-20.2383l9.42238,-13.28479l15.65698,-10.30422l17.58674,-3.38437l19.90951,4.39088l14.29819,10.28182l9.99835,15.92645l3.00563,16.61253l-2.96018,16.49113l-8.40457,14.2338l-14.95178,11.62278l-20.89514,4.86397l-18.63582,-3.82055l-13.78076,-9.06738l-11.9484,-18.14029z" fill="#000000"/><g><path d="M344.69818,85.84741l-11.32205,5.17989l-12.81777,1.05403l-11.98131,-0.73514l-12.15852,-5.49877l0.33016,-4.04876l8.24958,-3.30776l15.56008,-1.26485l14.87124,1.59623l8.97763,3.35258z" fill="#000000"/><path d="M336.51285,79.47539l-5.79401,3.07464l-10.16047,1.04547l-9.80502,-0.84984l-6.14947,-3.27027l0.21821,-2.6759c0,0 2.37655,-3.02213 15.73627,-3.02213c10.82303,0 15.76218,3.27077 15.76218,3.27077z" fill="url(#color-1)"/><path d="M336.51284,76.69003l-6.15442,3.09182l-9.80006,1.02829l-9.16875,-0.81441l-6.78573,-3.30571l0.21821,-23.76509l5.86704,-2.26669l9.86923,-0.75544l8.59812,0.78736l7.16407,2.48341z" fill="#000000"/></g><path d="M284.99177,129.27196c0,-19.34916 15.6856,-35.03476 35.03476,-35.03476c19.34916,0 35.03476,15.6856 35.03476,35.03476c0,19.34916 -15.6856,35.03476 -35.03476,35.03476c-19.34916,0 -35.03476,-15.6856 -35.03476,-35.03476z" fill="url(#color-2)"/></g></g></svg>