<svg version="1.1" xmlns="http://www.w3.org/2000/svg" xmlns:xlink="http://www.w3.org/1999/xlink" width="267.52542" height="267.52542" viewBox="0,0,267.52542,267.52542"><defs><radialGradient cx="320" cy="180" r="133.76271" gradientUnits="userSpaceOnUse" id="color-1"><stop offset="0" stop-color="#ffec6e" stop-opacity="0.4902"/><stop offset="1" stop-color="#ffec6e" stop-opacity="0"/></radialGradient><radialGradient cx="319.06601" cy="245.27" r="21.93531" gradientUnits="userSpaceOnUse" id="color-2"><stop offset="0" stop-color="#ff8700"/><stop offset="1" stop-color="#ff6200"/></radialGradient><radialGradient cx="319.06601" cy="115.85164" r="21.93531" gradientUnits="userSpaceOnUse" id="color-3"><stop offset="0" stop-color="#ff8700"/><stop offset="1" stop-color="#ff6200"/></radialGradient><radialGradient cx="254.35682" cy="180.56083" r="21.93531" gradientUnits="userSpaceOnUse" id="color-4"><stop offset="0" stop-color="#ff8700"/><stop offset="1" stop-color="#ff6200"/></radialGradient><radialGradient cx="383.77518" cy="180.56082" r="21.93532" gradientUnits="userSpaceOnUse" id="color-5"><stop offset="0" stop-color="#ff8700"/><stop offset="1" stop-color="#ff6200"/></radialGradient><radialGradient cx="273.30971" cy="226.31713" r="21.93531" gradientUnits="userSpaceOnUse" id="color-6"><stop offset="0" stop-color="#ff8700"/><stop offset="1" stop-color="#ff6200"/></radialGradient><radialGradient cx="364.8223" cy="134.80452" r="21.93532" gradientUnits="userSpaceOnUse" id="color-7"><stop offset="0" stop-color="#ff8700"/><stop offset="1" stop-color="#ff6200"/></radialGradient><radialGradient cx="273.30969" cy="134.80452" r="21.93531" gradientUnits="userSpaceOnUse" id="color-8"><stop offset="0" stop-color="#ff8700"/><stop offset="1" stop-color="#ff6200"/></radialGradient><radialGradient cx="364.8223" cy="226.31712" r="21.93532" gradientUnits="userSpaceOnUse" id="color-9"><stop offset="0" stop-color="#ff8700"/><stop offset="1" stop-color="#ff6200"/></radialGradient><radialGradient cx="320" cy="180" r="50.59677" gradientUnits="userSpaceOnUse" id="color-10"><stop offset="0" stop-color="#ffec6d"/><stop offset="1" stop-color="#ffa800"/></radialGradient></defs><g transform="translate(-186.23729,-46.23729)"><g stroke="none" stroke-width="0" stroke-miterlimit="10"><path d="M186.23729,180c0,-73.87511 59.8876,-133.76271 133.76271,-133.76271c73.87511,0 133.76271,59.8876 133.76271,133.76271c0,73.87511 -59.88761,133.76271 -133.76271,133.76271c-73.87511,0 -133.76271,-59.8876 -133.76271,-133.76271z" fill="url(#color-1)"/><g><g><g><path d="M341.00132,221.61119l-21.62194,47.31761l-22.24868,-47.31761z" fill="url(#color-2)"/><path d="M297.13069,139.51045l22.24868,-47.31761l21.62194,47.31761z" fill="url(#color-3)"/></g><g><path d="M278.01563,202.49614l-47.31761,-21.62195l47.31761,-22.24867z" fill="url(#color-4)"/><path d="M360.11638,158.62551l47.31761,22.24867l-47.3176,21.62195z" fill="url(#color-5)"/></g></g><g><g><path d="M305.54962,225.09843l-48.74764,18.16958l17.72641,-49.19079z" fill="url(#color-6)"/><path d="M332.5824,136.02321l49.19079,-17.7264l-18.16957,48.74763z" fill="url(#color-7)"/></g><g><path d="M274.52841,167.04443l-18.16958,-48.74763l49.19079,17.72642z" fill="url(#color-8)"/><path d="M363.60361,194.07721l17.72641,49.19079l-48.74761,-18.16956z" fill="url(#color-9)"/></g></g></g><path d="M269.40325,180l12.88434,-33.7321l37.71242,-16.86466l35.80672,14.84889l14.79003,35.74788l-13.34901,34.24421l-37.24775,16.35255l-35.18984,-14.24141z" fill="url(#color-10)"/></g></g></svg>