<svg version="1.1" xmlns="http://www.w3.org/2000/svg" xmlns:xlink="http://www.w3.org/1999/xlink" width="766.91854" height="478.27929" viewBox="0,0,766.91854,478.27929"><defs><linearGradient x1="321.07087" y1="187.36208" x2="321.07087" y2="311.18947" gradientUnits="userSpaceOnUse" id="color-1"><stop offset="0" stop-color="#000000" stop-opacity="0"/><stop offset="1" stop-color="#000000" stop-opacity="0.78039"/></linearGradient><linearGradient x1="321.07087" y1="56.3805" x2="321.07087" y2="-2.39003" gradientUnits="userSpaceOnUse" id="color-2"><stop offset="0" stop-color="#000000" stop-opacity="0"/><stop offset="1" stop-color="#000000" stop-opacity="0.50588"/></linearGradient><radialGradient cx="36.77499" cy="228.84151" r="198.92857" gradientUnits="userSpaceOnUse" id="color-3"><stop offset="0" stop-color="#b9b9b9"/><stop offset="1" stop-color="#5c5c5c"/></radialGradient><linearGradient x1="196.22303" y1="233.13647" x2="196.22303" y2="373.15171" gradientUnits="userSpaceOnUse" id="color-4"><stop offset="0" stop-color="#1d475c"/><stop offset="1" stop-color="#070f16"/></linearGradient><radialGradient cx="58.4067" cy="242.5348" r="198.92857" gradientUnits="userSpaceOnUse" id="color-5"><stop offset="0" stop-color="#327a9e"/><stop offset="1" stop-color="#327a9e" stop-opacity="0"/></radialGradient><radialGradient cx="600.51163" cy="228.84151" r="198.92857" gradientUnits="userSpaceOnUse" id="color-6"><stop offset="0" stop-color="#b9b9b9"/><stop offset="1" stop-color="#5c5c5c"/></radialGradient><linearGradient x1="441.06363" y1="233.13647" x2="441.06363" y2="373.15171" gradientUnits="userSpaceOnUse" id="color-7"><stop offset="0" stop-color="#1d475c"/><stop offset="1" stop-color="#070f16"/></linearGradient><radialGradient cx="578.87992" cy="242.5348" r="198.92857" gradientUnits="userSpaceOnUse" id="color-8"><stop offset="0" stop-color="#327a9e"/><stop offset="1" stop-color="#327a9e" stop-opacity="0"/></radialGradient><radialGradient cx="491.44443" cy="241.32007" r="292.48374" gradientUnits="userSpaceOnUse" id="color-9"><stop offset="0" stop-color="#5c5c5c"/><stop offset="1" stop-color="#202020"/></radialGradient><radialGradient cx="485.10185" cy="246.157" r="281.66337" gradientUnits="userSpaceOnUse" id="color-10"><stop offset="0" stop-color="#cecece"/><stop offset="1" stop-color="#585858"/></radialGradient><radialGradient cx="431.16325" cy="247.54222" r="254" gradientUnits="userSpaceOnUse" id="color-11"><stop offset="0" stop-color="#1e2154"/><stop offset="1" stop-color="#0d0a1a"/></radialGradient><radialGradient cx="375.81617" cy="261.61351" r="233.28571" gradientUnits="userSpaceOnUse" id="color-12"><stop offset="0" stop-color="#80b9ff" stop-opacity="0.45882"/><stop offset="1" stop-color="#80b9ff" stop-opacity="0"/></radialGradient><radialGradient cx="321.07087" cy="44.53015" r="320.82552" gradientUnits="userSpaceOnUse" id="color-13"><stop offset="0" stop-color="#b2b2b2"/><stop offset="1" stop-color="#5c5c5c"/></radialGradient><linearGradient x1="321.07087" y1="-0.75267" x2="321.07087" y2="76.17041" gradientUnits="userSpaceOnUse" id="color-14"><stop offset="0" stop-color="#1d475c"/><stop offset="1" stop-color="#070f16"/></linearGradient><radialGradient cx="344.02806" cy="4.48267" r="320.82552" gradientUnits="userSpaceOnUse" id="color-15"><stop offset="0" stop-color="#307597"/><stop offset="1" stop-color="#307597" stop-opacity="0"/></radialGradient><linearGradient x1="548.42997" y1="247.29604" x2="624.27237" y2="373.21373" gradientUnits="userSpaceOnUse" id="color-16"><stop offset="0" stop-color="#4aff60"/><stop offset="1" stop-color="#4aff60" stop-opacity="0"/></linearGradient><linearGradient x1="508.28614" y1="326.48037" x2="515.41277" y2="338.31237" gradientUnits="userSpaceOnUse" id="color-17"><stop offset="0" stop-color="#4aff60"/><stop offset="1" stop-color="#4aff60" stop-opacity="0"/></linearGradient><linearGradient x1="658.79269" y1="353.28554" x2="663.40571" y2="360.94432" gradientUnits="userSpaceOnUse" id="color-18"><stop offset="0" stop-color="#4aff60"/><stop offset="1" stop-color="#4aff60" stop-opacity="0"/></linearGradient><linearGradient x1="575.65673" y1="261.56345" x2="578.56409" y2="266.39042" gradientUnits="userSpaceOnUse" id="color-19"><stop offset="0" stop-color="#4aff60"/><stop offset="1" stop-color="#4aff60" stop-opacity="0"/></linearGradient><linearGradient x1="70.46121" y1="251.82805" x2="70.46121" y2="344.88394" gradientUnits="userSpaceOnUse" id="color-20"><stop offset="0" stop-color="#ffee4a"/><stop offset="1" stop-color="#ffee4a" stop-opacity="0"/></linearGradient><linearGradient x1="22.82783" y1="281.65656" x2="22.82783" y2="290.40067" gradientUnits="userSpaceOnUse" id="color-21"><stop offset="0" stop-color="#ffee4a"/><stop offset="1" stop-color="#ffee4a" stop-opacity="0"/></linearGradient><linearGradient x1="95.69027" y1="345.35248" x2="95.69027" y2="351.01249" gradientUnits="userSpaceOnUse" id="color-22"><stop offset="0" stop-color="#ffee4a"/><stop offset="1" stop-color="#ffee4a" stop-opacity="0"/></linearGradient><linearGradient x1="80.56579" y1="268.45813" x2="80.56579" y2="272.02537" gradientUnits="userSpaceOnUse" id="color-23"><stop offset="0" stop-color="#ffee4a"/><stop offset="1" stop-color="#ffee4a" stop-opacity="0"/></linearGradient><linearGradient x1="29.31987" y1="-44.41389" x2="13.27215" y2="88.33105" gradientUnits="userSpaceOnUse" id="color-24"><stop offset="0" stop-color="#4ac4ff"/><stop offset="1" stop-color="#4ac4ff" stop-opacity="0"/></linearGradient><linearGradient x1="92.12526" y1="6.35121" x2="90.61731" y2="18.82475" gradientUnits="userSpaceOnUse" id="color-25"><stop offset="0" stop-color="#4ac4ff"/><stop offset="1" stop-color="#4ac4ff" stop-opacity="0"/></linearGradient><linearGradient x1="-22.79809" y1="84.64861" x2="-23.77417" y2="92.72265" gradientUnits="userSpaceOnUse" id="color-26"><stop offset="0" stop-color="#4ac4ff"/><stop offset="1" stop-color="#4ac4ff" stop-opacity="0"/></linearGradient><linearGradient x1="12.03772" y1="-22.43351" x2="11.42253" y2="-17.34481" gradientUnits="userSpaceOnUse" id="color-27"><stop offset="0" stop-color="#4ac4ff"/><stop offset="1" stop-color="#4ac4ff" stop-opacity="0"/></linearGradient><linearGradient x1="625.03518" y1="-62.04649" x2="583.69839" y2="33.76074" gradientUnits="userSpaceOnUse" id="color-28"><stop offset="0" stop-color="#ff4a4a"/><stop offset="1" stop-color="#ff4a4a" stop-opacity="0"/></linearGradient><linearGradient x1="660.82665" y1="-10.1766" x2="656.9424" y2="-1.17396" gradientUnits="userSpaceOnUse" id="color-29"><stop offset="0" stop-color="#ff4a4a"/><stop offset="1" stop-color="#ff4a4a" stop-opacity="0"/></linearGradient><linearGradient x1="557.51527" y1="23.03602" x2="555.00101" y2="28.86337" gradientUnits="userSpaceOnUse" id="color-30"><stop offset="0" stop-color="#ff4a4a"/><stop offset="1" stop-color="#ff4a4a" stop-opacity="0"/></linearGradient><linearGradient x1="607.24452" y1="-49.41331" x2="605.6599" y2="-45.7406" gradientUnits="userSpaceOnUse" id="color-31"><stop offset="0" stop-color="#ff4a4a"/><stop offset="1" stop-color="#ff4a4a" stop-opacity="0"/></linearGradient><radialGradient cx="255.4432" cy="0.76546" r="153.82804" gradientUnits="userSpaceOnUse" id="color-32"><stop offset="0" stop-color="#858585"/><stop offset="1" stop-color="#242424"/></radialGradient><radialGradient cx="304.86608" cy="6.10978" r="145.60161" gradientUnits="userSpaceOnUse" id="color-33"><stop offset="0" stop-color="#111111"/><stop offset="1" stop-color="#000000"/></radialGradient><radialGradient cx="356.29465" cy="17.25264" r="137.45875" gradientUnits="userSpaceOnUse" id="color-34"><stop offset="0" stop-color="#252525"/><stop offset="1" stop-color="#252525" stop-opacity="0"/></radialGradient></defs><g transform="translate(66.4563,51.20771)"><g stroke="none" stroke-width="0" stroke-miterlimit="10"><path d="M0.71439,311.18947v-123.82739h640.71295v123.82739z" fill="url(#color-1)"/><path d="M641.42731,-2.39003v58.77053h-640.71294v-58.77053z" fill="url(#color-2)"/><path d="M366.85174,124.50002z" fill="#ffffff"/><g><g><path d="M-2.70554,365.13448v-113.55837c0,0 14.34474,-26.45687 60.84416,-26.45687c17.11952,0 88.3397,27.01994 129.10387,26.4321c104.31671,-1.50431 207.90912,2.42995 207.90912,2.42995v111.15321z" fill="url(#color-3)"/><path d="M-2.70554,373.15171v-113.55837c0,0 14.34474,-26.45687 60.84416,-26.45687c17.11951,0 88.3397,27.01994 129.10386,26.4321c104.31671,-1.50431 207.90912,2.42995 207.90912,2.42995v111.15321z" fill="url(#color-4)"/></g><path d="M-2.70553,373.15171v-113.55837c0,0 14.34474,-26.45687 60.84416,-26.45687c17.11951,0 88.3397,27.01994 129.10386,26.4321c104.31671,-1.50431 207.90912,2.42995 207.90912,2.42995v111.15321z" fill="url(#color-5)"/><g><path d="M242.13501,365.13449v-111.15321c0,0 103.59241,-3.93426 207.90912,-2.42995c40.76417,0.58785 111.98435,-26.4321 129.10387,-26.4321c46.49942,0 60.84416,26.45687 60.84416,26.45687v113.55837z" fill="url(#color-6)"/><path d="M242.13501,373.15172v-111.15321c0,0 103.59241,-3.93426 207.90912,-2.42995c40.76416,0.58785 111.98435,-26.4321 129.10386,-26.4321c46.49942,0 60.84416,26.45687 60.84416,26.45687v113.55837z" fill="url(#color-7)"/></g><path d="M242.13501,373.15172v-111.15321c0,0 103.59241,-3.93426 207.90912,-2.42995c40.76416,0.58785 111.98435,-26.4321 129.10386,-26.4321c46.49942,0 60.84416,26.45687 60.84416,26.45687v113.55837z" fill="url(#color-8)"/></g><g><path d="M612.48376,322.00001c0,58.02942 -130.94942,105.07157 -292.48373,105.07157c-161.5343,0 -292.48373,-47.04215 -292.48373,-105.07157c0,-58.02942 130.94943,-105.07157 292.48374,-105.07157c161.5343,0 292.48374,47.04215 292.48374,105.07157z" fill="url(#color-9)"/><path d="M601.66338,322.00001c0,54.55044 -126.10498,98.77231 -281.66336,98.77231c-155.55838,0 -281.66336,-44.22187 -281.66336,-98.77231c0,-54.55044 126.10499,-98.77231 281.66337,-98.77231c155.55838,0 281.66337,44.22187 281.66337,98.77231z" fill="url(#color-10)"/><path d="M574.00001,322.00001c0,49.19281 -113.71967,89.07146 -254,89.07146c-140.28033,0 -254,-39.87865 -254,-89.07146c0,-49.19281 113.71967,-89.07146 254,-89.07146c140.28033,0 254,39.87865 254,89.07146z" fill="url(#color-11)"/><path d="M553.28572,322.00001c0,43.15572 -104.44557,78.14034 -233.28571,78.14034c-128.84015,0 -233.28571,-34.98462 -233.28571,-78.14034c0,-43.15572 104.44557,-78.14034 233.28571,-78.14034c128.84015,0 233.28571,34.98462 233.28571,78.14034z" fill="url(#color-12)"/></g><g><path d="M0.24535,82.99169v-76.92308h641.65103v76.92308c0,0 -42.99132,-61.08052 -316.13508,-60.03752c-290.63116,1.10977 -325.51595,60.03752 -325.51595,60.03752z" fill="url(#color-13)"/><path d="M0.24534,76.17041v-76.92308h641.65103v76.92308c0,0 -42.99132,-61.08052 -316.13508,-60.03752c-290.63116,1.10977 -325.51595,60.03752 -325.51595,60.03752z" fill="url(#color-14)"/><path d="M0.24535,76.17041v-76.92308h641.65103v76.92308c0,0 -42.99132,-61.08052 -316.13508,-60.03752c-290.63116,1.10977 -325.51595,60.03752 -325.51595,60.03752z" fill="url(#color-15)"/></g><g><g fill="#009011"><path d="M634.5123,299.3927c2.08715,3.4652 15.45741,15.23138 27.42375,17.91096c17.2896,3.8716 34.85383,-0.75764 38.09953,10.98108c4.09158,14.79803 -22.10519,10.64139 -41.70533,12.82262c-10.49176,1.16759 -19.04232,9.05881 -20.15926,11.68586c-1.69391,3.98408 8.50587,17.04092 5.25431,19.76741c-7.63093,6.39866 -18.05961,-2.20752 -22.03737,0.18835c-2.69893,1.62561 -12.36483,13.62368 -22.12037,13.93471c-9.17414,0.29249 -18.42995,-11.16163 -21.97182,-8.00796c-14.13535,12.58607 -12.91342,42.99222 -26.37266,34.57321c-8.96715,-5.60912 13.9279,-25.06089 10.74389,-41.96989c-1.11733,-5.93373 -11.76188,-6.35081 -16.84813,-12.56335c-3.85722,-4.71136 -2.4392,-15.91072 -3.21818,-17.20402c-3.42241,-5.68207 -3.50172,-23.55164 -19.27006,-31.38104c-21.97388,-10.91063 -63.24269,2.43896 -54.2397,-24.37285c5.31057,-15.81543 39.13137,13.49903 64.65045,11.18265c16.85466,-1.5299 30.56177,-11.96539 34.39002,-14.27121c4.72538,-2.84618 16.46512,-5.42821 20.74629,-10.06372c7.96011,-8.61893 12.52633,-20.18815 21.40788,-16.7618c6.27822,2.42203 2.29911,10.95883 8.73211,22.38803c3.62807,6.44583 14.38492,17.65823 16.49465,21.16092z"/><path d="M506.68598,322.5018c4.26924,-2.2279 10.04191,0.39599 12.89362,5.86062c2.8517,5.46462 1.70258,11.70063 -2.56667,13.92853c-4.26924,2.2279 -10.0419,-0.39599 -12.89362,-5.86062c-2.8517,-5.46462 -1.70258,-11.70064 2.56666,-13.92854z"/><path d="M657.23023,350.69146c4.29012,-2.58401 9.50015,-1.80287 11.63693,1.74472c2.13678,3.54759 0.39115,8.51824 -3.89897,11.10225c-4.29012,2.58401 -9.50015,1.80287 -11.63693,-1.74472c-2.13678,-3.54759 -0.39115,-8.51824 3.89897,-11.10225z"/><path d="M574.5011,259.64482c2.55757,-1.54047 5.79912,-0.84969 7.2402,1.54286c1.44108,2.39257 0.536,5.58091 -2.02157,7.12139c-2.55757,1.54047 -5.79912,0.84969 -7.2402,-1.54286c-1.44108,-2.39257 -0.536,-5.58091 2.02157,-7.12139z"/></g><g><path d="M651.97281,322.34801c14.85413,3.32625 35.80075,-3.77124 38.58926,6.31392c3.51523,12.71354 -18.22775,0.94651 -35.06696,2.82048c-9.01387,1.00312 -24.0668,13.23902 -25.02639,15.49601c-1.4553,3.42288 7.30771,14.64048 4.51417,16.98292c-6.55601,5.49732 -15.51567,-1.89657 -18.93311,0.16182c-2.31876,1.39663 -10.62309,11.70461 -19.00445,11.97183c-7.88185,0.25129 -15.83387,-9.58936 -18.87682,-6.87993c-12.14421,10.81317 -13.19959,30.06112 -19.36782,29.75736c-0.46209,-2.2593 8.67607,-21.58496 5.94057,-36.11211c-0.95994,-5.09789 -10.10505,-5.45621 -14.47485,-10.79365c-3.31389,-4.0477 -2.09562,-13.66947 -2.76487,-14.7806c-2.94032,-4.88168 -3.00845,-20.23409 -16.55562,-26.96063c-18.87858,-9.37372 -50.29101,-12.14737 -50.42912,-21.89014c-0.86259,-2.99118 30.75383,14.95201 52.67823,12.96193c14.48047,-1.31439 32.95191,-12.68389 36.24091,-14.6649c4.05974,-2.44525 14.14579,-4.66358 17.82391,-8.64612c6.83882,-7.40485 10.76184,-17.3444 18.39231,-14.40069c5.39386,2.08086 1.97525,9.41514 7.50209,19.2344c3.11701,5.53785 12.35861,15.17085 14.17116,18.18014c1.79316,2.97709 14.36668,18.94583 24.6474,21.24796z" fill="url(#color-16)"/><path d="M508.65207,326.26934c2.64364,-1.37958 6.21826,0.24521 7.98413,3.62908c1.76587,3.38387 1.05429,7.2454 -1.58936,8.62498c-2.64364,1.37958 -6.21826,-0.24521 -7.98413,-3.62908c-1.76587,-3.38387 -1.05429,-7.2454 1.58935,-8.62499z" fill="url(#color-17)"/><path d="M658.7927,353.28554c2.55757,-1.54047 5.66354,-1.07478 6.93739,1.04013c1.27385,2.11491 0.2332,5.07818 -2.32437,6.61866c-2.55757,1.54047 -5.66355,1.07479 -6.9374,-1.04012c-1.27385,-2.11491 -0.23318,-5.07819 2.32438,-6.61866z" fill="url(#color-18)"/><path d="M575.65673,261.56345c1.42485,-0.85822 3.23077,-0.47338 4.03363,0.85955c0.80285,1.33293 0.2986,3.1092 -1.12626,3.96742c-1.42485,0.85822 -3.23076,0.47339 -4.03361,-0.85954c-0.80285,-1.33293 -0.29861,-3.10921 1.12624,-3.96743z" fill="url(#color-19)"/></g></g><g><g fill="#8f6600"><path d="M100.12629,308.19639c0,2.56086 3.40734,13.30862 9.02131,18.67028c8.11135,7.74681 19.14826,10.97342 17.07415,18.39932c-2.61465,9.36121 -15.46315,-1.44951 -26.80451,-6.66863c-6.07092,-2.79375 -13.28529,-1.3073 -14.74905,-0.24751c-2.2199,1.60724 -0.95343,12.01934 -3.60726,12.43582c-6.22814,0.97743 -9.07245,-7.09591 -12.01211,-7.09591c-1.99457,0 -11.15517,3.34923 -16.54707,0.33146c-5.07056,-2.83793 -6.34862,-12.07257 -9.29941,-11.51925c-11.77639,2.20825 -21.04529,19.09624 -25.59417,10.13454c-3.03067,-5.97069 15.73854,-9.04095 19.53486,-19.25047c1.33221,-3.58274 -4.30396,-7.28574 -5.03297,-12.31604c-0.55286,-3.81479 3.87415,-9.42489 3.87415,-10.38067c0,-4.19917 5.79371,-13.91552 -0.19995,-23.3117c-8.35243,-13.094 -35.09235,-19.33428 -21.45262,-30.93335c8.04563,-6.84192 16.81126,20.10179 31.40653,27.18092c9.63978,4.67557 20.48151,3.49369 23.31067,3.49369c3.49216,0 10.70183,2.43434 14.53755,1.31891c7.13186,-2.07394 13.38691,-6.85631 17.08411,-2.09727c2.61349,3.36408 -2.33269,6.69379 -2.57727,14.9929c-0.13794,4.68052 2.03307,14.27436 2.03307,16.86293z"/><path d="M23.2596,278.97637c3.04285,0.1863 5.31625,3.49472 5.07779,7.38957c-0.23846,3.89484 -2.89848,6.90122 -5.94133,6.71492c-3.04285,-0.1863 -5.31625,-3.49472 -5.07779,-7.38957c0.23846,-3.89484 2.89848,-6.90122 5.94133,-6.71492z"/><path d="M95.69027,343.43539c3.17049,0 5.74068,2.12535 5.74068,4.7471c0,2.62175 -2.57019,4.7471 -5.74068,4.7471c-3.17049,0 -5.74068,-2.12535 -5.74068,-4.7471c0,-2.62175 2.57019,-4.7471 5.74068,-4.7471z"/><path d="M80.56579,267.04022c1.8901,0 3.42233,1.43338 3.42233,3.20153c0,1.76816 -1.53223,3.20153 -3.42233,3.20153c-1.8901,0 -3.42233,-1.43338 -3.42233,-3.20153c0,-1.76816 1.53223,-3.20153 3.42233,-3.20153z"/></g><g><path d="M102.09703,326.34788c6.96876,6.65557 20.64609,9.64847 18.86415,16.02833c-2.24634,8.04257 -10.19383,-5.44044 -19.93762,-9.92438c-5.21576,-2.40021 -17.37536,-0.68156 -18.63294,0.22894c-1.9072,1.38084 -0.81913,10.32626 -3.09914,10.68408c-5.35083,0.83974 -7.79448,-6.09635 -10.32004,-6.09635c-1.71361,0 -9.58383,2.87745 -14.21622,0.28477c-4.3563,-2.43817 -5.45434,-10.37199 -7.98947,-9.89662c-10.11754,1.89719 -16.97681,11.99039 -20.22255,9.81094c0.48737,-1.37612 11.7552,-8.87139 15.01677,-17.64277c1.14456,-3.07807 -3.69769,-6.25944 -4.32402,-10.58116c-0.47498,-3.27743 3.32843,-8.09727 3.32843,-8.91842c0,-3.60767 4.9776,-11.95534 -0.17178,-20.02795c-7.17589,-11.24954 -23.30449,-23.01387 -20.19711,-28.34236c0.50923,-1.90383 11.79365,18.15339 24.33298,24.23533c8.28189,4.01696 22.01233,3.88474 24.44297,3.88474c3.00024,0 9.19434,2.09143 12.48975,1.13313c6.12725,-1.7818 11.50119,-5.89052 14.6776,-1.80185c2.24535,2.89021 -2.0041,5.75088 -2.21422,12.88097c-0.1185,4.02121 1.74668,12.26364 1.74668,14.48757c0,2.20014 1.60261,14.96666 6.42577,19.57306z" fill="url(#color-20)"/><path d="M23.0952,281.66165c1.88422,0.11536 3.29199,2.16404 3.14433,4.57585c-0.14766,2.41181 -1.79484,4.27345 -3.67906,4.15809c-1.88422,-0.11536 -3.29199,-2.16404 -3.14433,-4.57585c0.14766,-2.41181 1.79484,-4.27345 3.67906,-4.15809z" fill="url(#color-21)"/><path d="M95.69027,345.35248c1.8901,0 3.42233,1.26704 3.42233,2.83c0,1.56297 -1.53222,2.83 -3.42233,2.83c-1.8901,0 -3.42233,-1.26704 -3.42233,-2.83c0,-1.56297 1.53223,-2.83 3.42233,-2.83z" fill="url(#color-22)"/><path d="M80.56579,268.45813c1.053,0 1.90663,0.79856 1.90663,1.78362c0,0.98507 -0.85363,1.78362 -1.90663,1.78362c-1.053,0 -1.90663,-0.79855 -1.90663,-1.78362c0,-0.98507 0.85362,-1.78362 1.90663,-1.78362z" fill="url(#color-23)"/></g></g><g><g fill="#00228f"><path d="M-22.71845,30.88014c0.4464,-3.69261 5.19784,-17.0039 5.80824,-23.70449c1.08232,-11.88093 -5.39924,-17.48376 -1.09093,-21.83195c6.09481,-6.15121 14.19294,1.74959 24.00894,5.93798c5.27933,2.25264 15.98379,0.02337 20.96538,0.6256c4.03582,0.4879 19.29781,4.04355 33.85534,-0.96379c22.04108,-7.58145 39.19184,-44.50519 49.48908,-33.35766c17.45688,18.89837 -21.76396,23.1888 -35.93686,40.4271c-10.1704,12.37011 -3.58124,27.22968 -4.30539,33.21984c-0.16482,1.36343 5.18286,10.12972 3.73634,15.47621c-1.90743,7.05004 -10.58607,11.36042 -9.30351,16.70097c3.65482,15.21864 29.89977,22.83519 24.54684,30.82977c-8.03448,11.99947 -18.34425,-13.68982 -34.76255,-18.87078c-4.11391,-1.29818 -7.5296,11.6547 -15.2522,14.82859c-8.21201,3.37503 -20.7021,-2.98244 -23.54737,-3.32641c-4.19344,-0.50695 -9.64313,10.51921 -18.35907,8.05085c-3.71389,-1.05178 -0.11167,-15.68631 -3.0012,-18.36188c-1.90532,-1.76423 -11.94032,-5.12879 -21.08232,-2.19044c-17.07859,5.48927 -37.2714,18.69509 -39.38686,4.89035c-1.67811,-10.95079 14.62256,-13.65023 27.52942,-23.30228c8.93299,-6.6803 15.64708,-21.42446 16.0887,-25.07755z"/><path d="M99.2889,13.05693c-0.33151,5.59716 -4.14508,9.92459 -8.51786,9.6656c-4.37278,-0.25899 -7.64886,-5.00634 -7.31735,-10.60349c0.33151,-5.59716 4.14508,-9.92459 8.51786,-9.6656c4.37278,0.25899 7.64886,5.00634 7.31735,10.60349z"/><path d="M-15.09701,89.67563c-0.45213,3.73994 -4.48504,6.32854 -9.00777,5.78178c-4.52273,-0.54676 -7.8226,-4.02182 -7.37047,-7.76176c0.45213,-3.73994 4.48504,-6.32854 9.00777,-5.78178c4.52273,0.54676 7.8226,4.02182 7.37047,7.76176z"/><path d="M16.6121,-19.29897c-0.30493,2.52228 -2.73784,4.30278 -5.43408,3.97682c-2.69624,-0.32595 -4.63478,-2.6349 -4.32986,-5.1572c0.30493,-2.52228 2.73784,-4.30278 5.43408,-3.97682c2.69624,0.32595 4.63478,2.6349 4.32986,5.1572z"/></g><g><path d="M-16.11817,29.62056c0.38353,-3.17246 4.46565,-14.60869 4.99007,-20.36542c0.92986,-10.20735 -4.63868,-15.02095 -0.93725,-18.75665c5.23628,-5.28474 12.19369,1.50313 20.62698,5.10154c4.53567,1.93533 13.73227,0.02008 18.01214,0.53748c3.46732,0.41917 23.0311,2.97563 35.53801,-1.32636c18.93631,-6.5135 38.49253,-33.17924 38.89064,-30.3756c3.51379,8.13701 -21.52258,22.13749 -33.69905,36.94755c-8.73777,10.62762 -3.07677,23.39403 -3.69892,28.5404c-0.14161,1.17137 4.45278,8.70282 3.21001,13.29618c-1.63875,6.05696 -9.09488,9.76016 -7.99298,14.34842c3.14,13.0749 17.92107,25.71013 18.37899,27.75723c-5.00592,2.54927 -13.05011,-13.03166 -27.15569,-17.48281c-3.53441,-1.11531 -6.46898,10.01298 -13.10375,12.73979c-7.05524,2.89962 -17.78595,-2.56233 -20.23043,-2.85784c-3.60273,-0.43554 -8.28477,9.03744 -15.77295,6.91678c-3.19074,-0.90362 -0.09593,-13.47669 -2.57845,-15.77537c-1.63692,-1.51571 -18.68631,-6.06434 -26.54055,-3.53988c-14.67285,4.71604 -28.33518,22.57907 -30.15264,10.7189c-1.44172,-9.40823 18.58522,-11.31892 29.67398,-19.61136c7.67466,-5.7393 12.16242,-23.67447 12.54184,-26.81298z" fill="url(#color-24)"/><path d="M96.27412,12.87836c-0.20528,3.46593 -2.56677,6.14562 -5.27453,5.98524c-2.70776,-0.16038 -4.73642,-3.10008 -4.53113,-6.56601c0.20528,-3.46593 2.56677,-6.14562 5.27453,-5.98524c2.70776,0.16038 4.73642,3.10008 4.53113,6.56601z" fill="url(#color-25)"/><path d="M-18.40416,89.27583c-0.26954,2.22958 -2.67378,3.77278 -5.37002,3.44683c-2.69624,-0.32595 -4.66347,-2.39763 -4.39393,-4.62721c0.26954,-2.22958 2.67377,-3.77278 5.37001,-3.44683c2.69624,0.32595 4.66347,2.39763 4.39394,4.62721z" fill="url(#color-26)"/><path d="M14.44994,-19.56035c-0.16988,1.4052 -1.5253,2.39714 -3.02741,2.21554c-1.50211,-0.1816 -2.58211,-1.46794 -2.41223,-2.87314c0.16988,-1.4052 1.5253,-2.39714 3.02741,-2.21555c1.50211,0.1816 2.5821,1.46795 2.41223,2.87315z" fill="url(#color-27)"/></g></g><g><g fill="#8f002b"><path d="M569.45338,-17.18921c1.14988,-2.6651 7.6468,-11.57821 9.58394,-16.45839c3.43479,-8.65313 -0.17854,-14.27845 4.0066,-16.58105c5.92056,-3.25739 10.23614,4.44497 16.65759,9.7483c3.45364,2.85229 11.95785,3.54862 15.55326,5.09988c2.91281,1.25676 13.55008,7.28964 25.55183,6.75796c18.17146,-0.805 39.16505,-24.65152 44.40928,-14.03333c8.89053,18.00098 -21.41202,12.5475 -35.82795,22.31837c-10.34479,7.01152 -8.69592,19.5888 -10.56126,23.91213c-0.42457,0.98404 1.64124,8.72655 -0.62255,12.40854c-2.9851,4.85519 -10.43284,6.164 -10.65274,10.44446c-0.62666,12.19776 17.33364,23.69636 11.5611,28.49731c-8.6643,7.20599 -10.70534,-14.2987 -21.84899,-21.80349c-2.79224,-1.88046 -8.21026,7.05948 -14.69138,7.7289c-6.89186,0.71184 -14.83553,-6.8057 -16.88908,-7.69171c-3.02657,-1.30584 -9.54127,5.74271 -15.51937,1.96975c-2.54729,-1.60767 3.38183,-11.76503 1.81026,-14.40591c-1.03627,-1.74135 -7.80364,-6.47648 -15.29508,-6.29692c-13.9951,0.33544 -32.02575,5.7583 -30.55933,-5.04116c1.16326,-8.5668 13.9598,-6.98606 25.75222,-11.35873c8.16168,-3.02638 16.44408,-12.57832 17.58165,-15.2149z"/><path d="M664.70683,-3.57514c-1.48464,4.11593 -5.29491,6.51229 -8.51048,5.35242c-3.21557,-1.15987 -4.61877,-5.43676 -3.13413,-9.55269c1.48464,-4.11593 5.29491,-6.51229 8.51048,-5.35242c3.21557,1.15987 4.61877,5.43676 3.13413,9.55269z"/><path d="M562.16855,28.4998c-1.16462,2.69926 -4.75491,3.74573 -8.01914,2.33736c-3.26423,-1.40838 -4.9663,-4.73828 -3.80168,-7.43754c1.16462,-2.69926 4.75491,-3.74573 8.01914,-2.33736c3.26423,1.40838 4.9663,4.73828 3.80168,7.43754z"/><path d="M609.97572,-46.05671c-0.78544,1.82043 -2.9997,2.61555 -4.94568,1.77595c-1.94598,-0.83961 -2.88679,-2.996 -2.10134,-4.81644c0.78544,-1.82043 2.9997,-2.61555 4.94568,-1.77595c1.94598,0.83961 2.88679,2.996 2.10134,4.81644z"/></g><g><path d="M574.6716,-16.67381c0.9879,-2.28969 6.56964,-9.94727 8.23392,-14.14002c2.95095,-7.43423 -0.15338,-12.26715 3.44223,-14.2454c5.08658,-2.79855 8.79425,3.81884 14.31116,8.37513c2.96716,2.4505 10.27344,3.04875 13.36238,4.3815c2.50251,1.07973 16.58017,7.31511 26.89132,6.85832c15.61177,-0.69161 36.13953,-16.32914 35.81811,-14.14282c0.83226,6.86638 -20.9991,11.81397 -33.38436,20.20849c-8.8876,6.02386 -7.47099,16.82946 -9.07357,20.5438c-0.36476,0.84542 1.41005,7.4973 -0.53486,10.66064c-2.56462,4.17128 -8.96324,5.29572 -9.15217,8.97322c-0.53838,10.47955 7.7331,23.20177 7.62358,24.83508c-4.30984,0.80208 -6.88837,-12.63652 -16.46229,-19.08417c-2.39892,-1.61557 -7.05374,6.06506 -12.62192,6.64018c-5.92105,0.61157 -12.74576,-5.84703 -14.51004,-6.60824c-2.60023,-1.12189 -8.19726,4.93377 -13.33326,1.69229c-2.18847,-1.38121 2.90546,-10.10778 1.55526,-12.37665c-0.8903,-1.49606 -12.64597,-8.667 -19.08215,-8.51274c-12.0237,0.28818 -26.19552,10.63944 -24.93566,1.36122c0.99941,-7.36006 16.41061,-4.36578 26.54192,-8.1225c7.012,-2.60008 14.33307,-15.03216 15.3104,-17.29734z" fill="url(#color-28)"/><path d="M662.48988,-4.37481c-0.91933,2.54871 -3.27878,4.03261 -5.26996,3.31438c-1.99118,-0.71823 -2.86009,-3.36661 -1.94075,-5.91532c0.91933,-2.54871 3.27878,-4.03261 5.26996,-3.31438c1.99118,0.71823 2.86009,3.36661 1.94075,5.91532z" fill="url(#color-29)"/><path d="M559.78166,27.46994c-0.69429,1.60918 -2.83466,2.23304 -4.78064,1.39343c-1.94598,-0.83961 -2.96068,-2.82474 -2.26638,-4.43392c0.69429,-1.60918 2.83466,-2.23304 4.78064,-1.39343c1.94598,0.83961 2.96068,2.82474 2.26639,4.43392z" fill="url(#color-30)"/><path d="M608.41521,-46.73c-0.43758,1.01419 -1.67117,1.45716 -2.75531,0.9894c-1.08413,-0.46776 -1.60827,-1.66912 -1.17069,-2.68331c0.43758,-1.01419 1.67118,-1.45716 2.75531,-0.9894c1.08413,0.46776 1.60827,1.66912 1.17069,2.68331z" fill="url(#color-31)"/></g></g><path d="M171.60536,71.25869c-34.13476,-8.487 -29.20902,-17.60379 -31.45442,-26.20242c-3.79083,-14.5168 7.16498,-27.55671 31.45442,-33.59585c38.67662,-9.61625 148.66006,-22.8366 240.50901,0c39.76597,9.8871 35.63115,20.61821 33.97871,30.39011c-2.16426,12.79862 -12.03317,23.95179 -33.97871,29.40816c-22.06925,5.48712 -67.33798,-3.40527 -119.18684,-2.93522c-39.07468,0.35424 -81.88657,12.74018 -121.32218,2.93522z" fill="url(#color-32)"/><path d="M178.11042,65.03615c-32.3093,-6.94888 -27.64698,-14.4134 -29.77229,-21.45368c-3.5881,-11.88588 6.78181,-22.56253 29.77229,-27.50718c36.60827,-7.87347 140.71001,-18.69786 227.64705,0c37.63937,8.09523 33.72566,16.88151 32.1616,24.88242c-2.04851,10.47909 -11.38966,19.61094 -32.1616,24.07844c-20.88903,4.49268 -63.73687,-2.78812 -112.81295,-2.40326c-36.98504,0.29004 -77.50743,10.43124 -114.8341,2.40326z" fill="url(#color-33)"/><path d="M184.5494,59.4347c-30.50238,-5.77615 -26.10081,-11.98093 -28.10726,-17.83306c-3.38744,-9.87996 6.40254,-18.75478 28.10726,-22.86494c34.56093,-6.54471 132.84071,-15.54232 214.91576,0c35.53436,6.72904 31.83953,14.03251 30.36294,20.68315c-1.93395,8.71059 -10.75269,16.30131 -30.36294,20.01485c-19.7208,3.73447 -60.17235,-2.31758 -106.50382,-1.99768c-34.91663,0.24109 -73.17278,8.67082 -108.41193,1.99768z" fill="url(#color-34)"/></g></g></svg>