<svg version="1.1" xmlns="http://www.w3.org/2000/svg" xmlns:xlink="http://www.w3.org/1999/xlink" width="47.04546" height="47.04546" viewBox="0,0,47.04546,47.04546"><defs><radialGradient cx="320.09618" cy="180.00003" r="23.52273" gradientUnits="userSpaceOnUse" id="color-1"><stop offset="0" stop-color="#000000" stop-opacity="0.68235"/><stop offset="1" stop-color="#000000" stop-opacity="0"/></radialGradient><linearGradient x1="320.00004" y1="162.6087" x2="320.00004" y2="197.39135" gradientUnits="userSpaceOnUse" id="color-2"><stop offset="0" stop-color="#dedede" stop-opacity="0.20784"/><stop offset="1" stop-color="#dedede" stop-opacity="0"/></linearGradient><linearGradient x1="320.09619" y1="162.6087" x2="320.09619" y2="197.39135" gradientUnits="userSpaceOnUse" id="color-3"><stop offset="0" stop-color="#292929" stop-opacity="0"/><stop offset="1" stop-color="#292929" stop-opacity="0.25098"/></linearGradient></defs><g transform="translate(-296.57345,-156.47729)"><g stroke="none" stroke-miterlimit="10"><path d="M296.57345,180.00003c0,-12.99124 10.53148,-23.52273 23.52273,-23.52273c12.99124,0 23.52273,10.53148 23.52273,23.52273c0,12.99124 -10.53148,23.52273 -23.52273,23.52273c-12.99124,0 -23.52273,-10.53148 -23.52273,-23.52273z" fill="url(#color-1)" stroke-width="0"/><path d="M302.60873,197.39133v-34.78261h34.78261v34.78261z" fill="#feff3a" stroke-width="0"/><g stroke-width="0"><path d="M302.60874,197.39135v-34.78261h34.78261l-2.48896,2.57975l-29.14148,0.24634l-0.30739,29.42558z" fill="url(#color-2)"/><path d="M337.4875,162.6087v34.78261h-34.78261l2.88669,-2.57975l28.74375,-0.24634l0.59148,-29.36876z" fill="url(#color-3)"/></g><path d="M312.37256,178.32926c0,-0.41421 0.33579,-0.75 0.75,-0.75c0.41421,0 0.75,0.33579 0.75,0.75c0,0.41421 -0.33579,0.75 -0.75,0.75c-0.41421,0 -0.75,-0.33579 -0.75,-0.75z" fill="#000000" stroke-width="0.5"/><path d="M325.90197,178.1822c0,-0.41421 0.33579,-0.75 0.75,-0.75c0.41421,0 0.75,0.33579 0.75,0.75c0,0.41421 -0.33579,0.75 -0.75,0.75c-0.41421,0 -0.75,-0.33579 -0.75,-0.75z" fill="#000000" stroke-width="0.5"/><path d="M316.03858,171.82095c-0.62404,0.41603 -1.04006,-0.20801 -1.04006,-0.20801l0.14802,-0.12959c-2.69269,-0.74934 -3.90174,0.78235 -4.45614,3.12258c0,0 -0.17372,0.7296 -0.90332,0.55589c-0.7296,-0.17372 -0.55589,-0.90332 -0.55589,-0.90332c0.76871,-3.21352 2.80265,-5.02964 6.27915,-4.23036l0.73625,0.75276c0,0 0.41603,0.62404 -0.20801,1.04006z" fill="#000000" stroke-width="0.5"/><path d="M330.19553,183.90867c0.45,0.6 -0.15,1.05 -0.15,1.05l-0.91809,0.68697c-1.79267,1.0443 -4.82083,5.2001 -6.80333,5.19545c-0.50581,-0.00118 -2.86981,-1.9022 -3.29475,-2.18399c-2.24324,-1.48753 -4.66896,-2.90203 -7.12019,-4.03935c-0.34221,0.31007 -0.69801,0.60467 -1.07472,0.87004c0,0 -0.61442,0.4301 -1.04452,-0.18433c-0.4301,-0.61442 0.18433,-1.04452 0.18433,-1.04452c0.57766,-0.40142 1.09464,-0.88798 1.59094,-1.38649l0.15363,-0.39332c0,0 0.33541,-0.67082 1.00623,-0.33541c0.67082,0.33541 0.33541,1.00623 0.33541,1.00623l-0.15499,0.27929c2.39726,1.14195 4.764,2.5266 6.9621,3.98392c0.89744,0.59499 1.51088,1.94276 2.5876,1.93366c0.63599,-0.00537 0.94068,-0.85775 1.37996,-1.31768c1.39608,-1.46169 2.70225,-2.61072 4.46377,-3.63393l0.84662,-0.63656c0,0 0.6,-0.45 1.05,0.15z" fill="#000000" stroke-width="0.5"/></g></g></svg>