<svg version="1.1" xmlns="http://www.w3.org/2000/svg" xmlns:xlink="http://www.w3.org/1999/xlink" width="1133.48348" height="666.96368" viewBox="0,0,1133.48348,666.96368"><defs><linearGradient x1="319.66414" y1="265.57761" x2="319.66414" y2="282.72659" gradientUnits="userSpaceOnUse" id="color-1"><stop offset="0" stop-color="#000000" stop-opacity="0.20784"/><stop offset="1" stop-color="#000000" stop-opacity="0"/></linearGradient></defs><g transform="translate(246.74174,153.48184)"><g stroke-miterlimit="10"><path d="M-246.74174,513.48184v-666.96368h1133.48348v666.96368z" fill-opacity="0.2902" fill="#000000" fill-rule="nonzero" stroke="none" stroke-width="0" stroke-linecap="butt" stroke-linejoin="miter"/><path d="M281.36099,352.38197c-0.00002,0.02694 -0.02188,0.04879 -0.04884,0.04879c-0.02694,0 -0.04881,-0.02184 -0.04884,-0.04879c0.00002,-0.02694 0.02188,-0.04879 0.04884,-0.04879c0.02694,0 0.04881,0.02184 0.04884,0.04879z" fill="#ffffff" fill-rule="nonzero" stroke="#000000" stroke-width="0.27531" stroke-linecap="butt" stroke-linejoin="miter"/><path d="M138.14541,95.8544c0,0 325.37826,0 356.60948,0c4.74478,0 6.79198,-2.25728 6.79198,2.5096c0,33.81812 0,176.83484 0,196.18467c0,4.43433 -2.39436,7.28425 -6.79198,7.28425c-47.1551,0 -324.64451,0 -350.26113,0c-3.7343,0 -6.34834,-2.1569 -6.34834,-6.1122c0,-21.01059 0,-199.86633 0,-199.86633z" fill="#ffffff" fill-rule="evenodd" stroke="none" stroke-width="2.07968" stroke-linecap="round" stroke-linejoin="round"/><path d="M447.37656,121.80137l-254.22139,-0.00001" fill="#ffffff" fill-rule="evenodd" stroke="#b2b2b2" stroke-width="0.8" stroke-linecap="round" stroke-linejoin="round"/><path d="M138.12508,96.06357c0,0 0,-36.25532 0,-43.63011c0,-2.50496 0.1907,-4.76571 5.1614,-4.8922c3.33231,-0.08479 281.34381,-0.00758 352.7808,-0.00758c4.15221,0 5.52005,2.5296 5.52005,5.13419c0,7.4754 0,43.3957 0,43.3957z" fill="#4d4d4d" fill-rule="nonzero" stroke="none" stroke-width="0" stroke-linecap="butt" stroke-linejoin="miter"/><text transform="translate(290.12205,77.46942) scale(0.47568,0.46323)" font-size="40" xml:space="preserve" fill="#ffffff" fill-rule="nonzero" stroke="#ffffff" stroke-width="2" stroke-linecap="butt" stroke-linejoin="miter" font-family="Sans Serif" font-weight="normal" text-anchor="start"><tspan x="0" dy="0">ERROR</tspan></text><text transform="translate(146.5684,116.19266) scale(0.23502,0.23502)" font-size="40" xml:space="preserve" fill="#4d4d4d" fill-rule="nonzero" stroke="#4d4d4d" stroke-width="2" stroke-linecap="butt" stroke-linejoin="miter" font-family="Malgun Gothic" font-weight="normal" text-anchor="start"><tspan x="0" dy="0">ERROR! IT SEEMS YOU'VE ENTERED AN INVALID INPUT FOR 'MOD RESOLUTION'</tspan></text><text transform="translate(268.36062,131.49883) scale(0.15571,0.15571)" font-size="40" xml:space="preserve" fill="#4d4d4d" fill-rule="nonzero" stroke="#b8b8b8" stroke-width="2" stroke-linecap="butt" stroke-linejoin="miter" font-family="Malgun Gothic" font-weight="normal" text-anchor="start"><tspan x="0" dy="0">RESTART THE PROJECT ONCE FIXED!</tspan></text><g fill-rule="nonzero" stroke="none" stroke-width="0" stroke-linecap="butt" stroke-linejoin="miter"><path d="M244.75729,234.56252c0,-18.26772 0,-76.00303 0,-86.26659c0,-3.05159 2.68938,-5.71992 6.02473,-5.71992c13.85732,0 108.19503,0 136.46855,0c5.04979,0 7.99215,3.27549 7.99215,6.87399c0,18.00881 0,71.85758 0,83.0929c0,3.90816 -2.49669,7.5618 -6.83808,7.5618c-26.989,0 -125.27014,0 -138.19965,0c-2.74507,0 -5.4477,-2.04987 -5.4477,-5.54218z" fill="#3a3a3a"/><path d="M252.25872,223.81657c0,-14.94538 0,-62.18043 0,-70.57737c0,-2.4966 2.42126,-4.67964 5.42408,-4.67964c12.47579,0 97.40837,0 122.86311,0c4.54634,0 7.19536,2.67978 7.19536,5.62382c0,14.73357 0,58.78891 0,67.98088c0,3.19738 -2.24777,6.18654 -6.15635,6.18654c-24.29829,0 -112.78114,0 -124.42162,0c-2.47139,0 -4.90458,-1.67706 -4.90458,-4.53422z" fill="#ffffff"/><path d="M301.4888,263.41196v-28.37573h36.20352v28.37573z" fill="#3a3a3a"/><path d="M289.35233,265.36891c0,0 0,-2.34091 0,-3.45898c0,-1.05233 2.12309,-3.06418 4.42302,-3.06418c6.28375,0 37.67481,0 50.92775,0c3.94387,0 4.66227,2.01185 4.66227,3.06418c0,1.11807 0,3.45898 0,3.45898z" fill="#3a3a3a"/></g><path d="M247.85278,282.72659v-17.14898h143.62272v17.14898z" fill="url(#color-1)" fill-rule="nonzero" stroke="none" stroke-width="0" stroke-linecap="butt" stroke-linejoin="miter"/><text transform="translate(262.77621,296.87145) scale(0.14888,0.14888)" font-size="40" xml:space="preserve" fill="#4d4d4d" fill-rule="nonzero" stroke="#b8b8b8" stroke-width="2" stroke-linecap="butt" stroke-linejoin="miter" font-family="Malgun Gothic" font-weight="normal" text-anchor="start"><tspan x="0" dy="0">CLICK OFF THIS NOTIFICATION TO CLOSE.</tspan></text><g fill="none" fill-rule="nonzero" stroke="#ff0000" stroke-width="5" stroke-linecap="round" stroke-linejoin="miter"><path d="M301.05263,169.73684l37.89474,37.89474"/><path d="M338.94737,169.73684l-37.89474,37.89474"/></g></g></g></svg>