<svg version="1.1" xmlns="http://www.w3.org/2000/svg" xmlns:xlink="http://www.w3.org/1999/xlink" width="47.04546" height="47.04546" viewBox="0,0,47.04546,47.04546"><defs><radialGradient cx="320.09618" cy="180.00003" r="23.52273" gradientUnits="userSpaceOnUse" id="color-1"><stop offset="0" stop-color="#000000" stop-opacity="0.68235"/><stop offset="1" stop-color="#000000" stop-opacity="0"/></radialGradient><linearGradient x1="320.00004" y1="162.6087" x2="320.00004" y2="197.39135" gradientUnits="userSpaceOnUse" id="color-2"><stop offset="0" stop-color="#dedede" stop-opacity="0.20784"/><stop offset="1" stop-color="#dedede" stop-opacity="0"/></linearGradient><linearGradient x1="320.09619" y1="162.6087" x2="320.09619" y2="197.39135" gradientUnits="userSpaceOnUse" id="color-3"><stop offset="0" stop-color="#292929" stop-opacity="0"/><stop offset="1" stop-color="#292929" stop-opacity="0.25098"/></linearGradient></defs><g transform="translate(-296.57344,-156.47729)"><g stroke="none" stroke-miterlimit="10"><path d="M296.57345,180.00003c0,-12.99124 10.53148,-23.52273 23.52273,-23.52273c12.99124,0 23.52273,10.53148 23.52273,23.52273c0,12.99124 -10.53148,23.52273 -23.52273,23.52273c-12.99124,0 -23.52273,-10.53148 -23.52273,-23.52273z" fill="url(#color-1)" stroke-width="0"/><path d="M302.60873,197.39133v-34.78261h34.78261v34.78261z" fill="#23ac4e" stroke-width="0"/><g stroke-width="0"><path d="M302.60874,197.39135v-34.78261h34.78261l-2.48896,2.57975l-29.14148,0.24634l-0.30739,29.42558z" fill="url(#color-2)"/><path d="M337.4875,162.6087v34.78261h-34.78261l2.88669,-2.57975l28.74375,-0.24634l0.59148,-29.36876z" fill="url(#color-3)"/></g><path d="M316.32996,176.85425c-1.4203,-1.62443 -4.31792,-2.78091 -6.21653,-1.9296c-2.62277,1.17602 -2.80831,5.45261 -1.25963,7.34602c0.93269,1.14031 1.2923,1.43953 2.63445,1.95449c3.78119,0.68527 7.83759,-2.62371 5.32942,-6.53944l-0.30069,-0.34691c0,0 -0.17606,-0.21127 -0.18702,-0.48456zM318.42876,177.54283c2.25684,4.90921 -2.34513,9.03759 -7.34837,8.12582c-1.61551,-0.63473 -2.29712,-1.08649 -3.39496,-2.45728c-2.12469,-2.65292 -1.72115,-8.03353 1.78391,-9.6414c3.05517,-1.40149 7.70752,0.88497 8.90435,3.73553c0,0 0.04117,0.09881 0.05508,0.23733z" fill="#000000" stroke-width="0.5"/><path d="M311.2536,179.48988c-0.05235,-0.71994 0.22492,-1.49506 0.85147,-1.82089c2.21321,-1.15096 3.86806,2.98508 1.78516,3.98254c-1.62148,0.77649 -2.92671,-0.80397 -2.63663,-2.16164z" fill="#000000" stroke-width="0.5"/><path d="M323.81395,177.33881l-0.30069,0.34691c-2.50817,3.91574 1.54823,7.22472 5.32942,6.53945c1.34215,-0.51495 1.70175,-0.81417 2.63445,-1.95449c1.54868,-1.89342 1.36314,-6.17001 -1.25963,-7.34602c-1.89862,-0.85131 -4.79623,0.30516 -6.21654,1.9296c-0.01096,0.27328 -0.18702,0.48456 -0.18702,0.48456zM321.95724,177.30551c1.19682,-2.85056 5.84917,-5.13703 8.90435,-3.73553c3.50506,1.60787 3.9086,6.98848 1.78391,9.6414c-1.09785,1.37079 -1.77945,1.82255 -3.39496,2.45728c-5.00324,0.91177 -9.60522,-3.21661 -7.34837,-8.12582c0.01391,-0.13852 0.05508,-0.23733 0.05508,-0.23733z" fill="#000000" stroke-width="0.5"/><path d="M326.44069,181.65152c-2.0829,-0.99746 -0.42805,-5.1335 1.78516,-3.98254c0.62655,0.32584 0.90382,1.10095 0.85147,1.82089c0.29008,1.35768 -1.01515,2.93813 -2.63663,2.16164z" fill="#000000" stroke-width="0.5"/><path d="M334.53826,178.93572c-0.38587,-0.64312 0.25725,-1.02899 0.25725,-1.02899l0.22319,-0.1078c0.30795,-0.29969 0.58392,-0.64534 0.7747,-1.03037c0.07119,-0.41498 0.39916,-1.38572 0.08239,-1.78101c-0.57061,-0.71204 -1.14925,-0.37361 -1.49281,-1.46579c-0.2137,-0.67935 0.33265,-1.64335 -0.11601,-2.41797c-0.32075,-0.55378 -1.35982,-0.69654 -1.37857,-1.33623c-0.01303,-0.4445 0.58946,-0.67222 0.81896,-1.05312c0.20548,-0.34103 -0.83679,-0.08252 -1.14756,-0.33141c-0.59312,-0.47504 -0.59132,-1.90845 -1.20575,-2.46474c-0.3431,-0.31064 -1.35698,-0.04147 -2.2977,0.30145l0.06001,0.09335l-1.02015,0.65581c-0.11881,0.07902 -0.26144,0.12507 -0.41483,0.12507c-0.41421,0 -0.75,-0.33579 -0.75,-0.75c0,-0.06861 0.00921,-0.13508 0.02647,-0.19822l0.179,-0.71599c-0.03412,-0.14613 -0.06824,-0.29226 -0.10236,-0.43839c-3.01179,-0.38987 -4.47164,0.72781 -7.13507,1.40381c-0.47692,0.12105 -1.06641,0.24488 -1.47587,-0.02798c-0.46869,-0.31234 0.05226,-1.38174 -0.45458,-1.62739c-1.05984,-0.51366 -2.96754,0.78228 -3.89585,1.04633c-0.68821,0.19575 -1.46322,-0.38586 -1.93943,-0.91988c-0.44151,-0.49512 -3.74537,0.89625 -4.39628,0.82512c-1.68306,-0.18684 -3.11615,1.61036 -2.91034,3.181c0.09172,0.69998 0.69525,1.34346 0.57331,2.03881c-0.08841,0.50414 -0.82177,0.80415 -0.79254,1.31515c0.02839,0.49641 0.4969,2.07791 0.43519,2.24784c-0.12513,0.34459 -0.7516,0.15725 -1.02308,0.40362c-0.28309,0.25692 0.06988,1.94307 0.96458,1.60875c0,0 0.7398,-0.1233 0.86309,0.6165c0.1233,0.7398 -0.6165,0.86309 -0.6165,0.86309c-1.86376,0.16027 -2.52349,-0.70715 -2.56319,-2.60767c-0.0096,-0.45974 -0.10905,-0.98882 0.14542,-1.37182c0.16743,-0.252 0.71936,0.06612 0.88869,-0.18461c0.31416,-0.46519 -0.61103,-1.01461 -0.59422,-1.57569c0.01821,-0.60752 0.65137,-1.04359 0.82511,-1.62603c0.16629,-0.55746 -0.573,-1.05671 -0.60316,-1.63766c-0.13233,-2.54894 1.9036,-4.9686 4.58966,-4.76018c2.02956,0.47073 3.8787,-2.22184 5.42341,0.38471c0.18927,0.31937 0.53039,-0.54723 0.87178,-0.69309c0.34459,-0.14723 0.72743,-0.18043 1.09221,-0.26619c2.13725,-0.50243 3.44556,-0.64761 3.98529,1.51639c0.11065,0.44362 0.72063,-0.57106 1.12441,-0.78554c0.44549,-0.23663 0.8906,-0.48721 1.37138,-0.63985c2.03213,-0.64518 4.25624,-0.4198 6.24621,0.15416c0.15038,0.37828 0.30076,0.75655 0.45114,1.13483c1.32634,-1.83581 4.32314,-0.06977 5.03605,1.78438c0.13977,0.36351 0.74759,0.29448 1.01631,0.57639c0.53389,0.56011 0.31238,1.69713 -0.15153,2.31645c-0.2519,0.33628 0.90221,0.21709 1.12143,0.57553c0.61609,1.00735 0.19681,1.98326 0.32517,2.87615c0.07885,0.54844 0.99957,0.56951 1.30131,1.03421c0.60658,0.93418 0.26837,2.08854 0.08239,3.07193c-0.29585,0.58868 -0.67596,1.14611 -1.13706,1.61669l-0.51211,0.33338c0,0 -0.64312,0.38587 -1.02899,-0.25725z" fill="#000000" stroke-width="0.5"/></g></g></svg>