<svg version="1.1" xmlns="http://www.w3.org/2000/svg" xmlns:xlink="http://www.w3.org/1999/xlink" width="101.49111" height="101.10488" viewBox="0,0,101.49111,101.10488"><defs><radialGradient cx="320.00004" cy="180.00005" r="50.55244" gradientUnits="userSpaceOnUse" id="color-1"><stop offset="0" stop-color="#000000"/><stop offset="1" stop-color="#000000" stop-opacity="0"/></radialGradient><radialGradient cx="296.72565" cy="147.2654" r="41.00699" gradientUnits="userSpaceOnUse" id="color-2"><stop offset="0" stop-color="#a4a4a4"/><stop offset="1" stop-color="#4f4f4f"/></radialGradient><linearGradient x1="320.00005" y1="144.35402" x2="320.00005" y2="215.64608" gradientUnits="userSpaceOnUse" id="color-3"><stop offset="0" stop-color="#1c1c1c"/><stop offset="1" stop-color="#373737"/></linearGradient><radialGradient cx="330.56105" cy="165.26137" r="31.63533" gradientUnits="userSpaceOnUse" id="color-4"><stop offset="0" stop-color="#a1a614"/><stop offset="1" stop-color="#51510a"/></radialGradient><radialGradient cx="323.63042" cy="176.47267" r="27.58248" gradientUnits="userSpaceOnUse" id="color-5"><stop offset="0" stop-color="#ffffb6" stop-opacity="0.73725"/><stop offset="1" stop-color="#ffffb6" stop-opacity="0"/></radialGradient></defs><g transform="translate(-269.4476,-129.44761)"><g stroke="none" stroke-miterlimit="10"><path d="M370.55248,180.00005c0,27.91937 -22.63316,50.55244 -50.55244,50.55244c-27.91937,0 -50.55244,-22.63309 -50.55244,-50.55244c0,-27.91937 22.63309,-50.55244 50.55244,-50.55244c27.91937,0 50.55244,22.63309 50.55244,50.55244" fill="url(#color-1)" fill-rule="evenodd" stroke-width="0.07853" stroke-linecap="round" stroke-linejoin="round"/><path d="M361.00704,180.00005c0,22.64756 -18.3595,41.00699 -41.00699,41.00699c-22.64756,0 -41.00699,-18.35945 -41.00699,-41.00699c0,-22.64756 18.35945,-41.00699 41.00699,-41.00699c22.64756,0 41.00699,18.35945 41.00699,41.00699" fill="url(#color-2)" fill-rule="evenodd" stroke-width="0.07853" stroke-linecap="round" stroke-linejoin="round"/><path d="M355.64607,180.00005c0,19.68678 -15.95931,35.64602 -35.64602,35.64602c-19.68678,0 -35.64602,-15.95927 -35.64602,-35.64602c0,-19.68678 15.95927,-35.64602 35.64602,-35.64602c19.68678,0 35.64602,15.95927 35.64602,35.64602" fill="url(#color-3)" fill-rule="evenodd" stroke-width="0.07853" stroke-linecap="round" stroke-linejoin="round"/><path d="M351.63537,180.00005c0,17.47173 -14.16365,31.63533 -31.63533,31.63533c-17.47173,0 -31.63533,-14.16361 -31.63533,-31.63533c0,-17.47173 14.16361,-31.63533 31.63533,-31.63533c17.47173,0 31.63533,14.16361 31.63533,31.63533" fill="url(#color-4)" fill-rule="evenodd" stroke-width="0.07853" stroke-linecap="round" stroke-linejoin="round"/><path d="M347.58252,180.00005c0,15.2334 -12.34911,27.58248 -27.58248,27.58248c-15.2334,0 -27.58248,-12.34909 -27.58248,-27.58248c0,-15.2334 12.34909,-27.58248 27.58248,-27.58248c15.2334,0 27.58248,12.34909 27.58248,27.58248" fill="url(#color-5)" fill-rule="evenodd" stroke-width="0.07853" stroke-linecap="round" stroke-linejoin="round"/><text transform="translate(355.03358,158.85917) scale(1.2612,0.84393)" font-size="40" xml:space="preserve" fill="#ffffff" fill-rule="nonzero" stroke-width="1" stroke-linecap="butt" stroke-linejoin="miter" font-family="&quot;LowerResolution&quot;, Scratch" font-weight="normal" text-anchor="start"><tspan x="0" dy="0">1</tspan></text><text transform="translate(299.72405,199.56345) scale(0.5,0.5)" font-size="40" xml:space="preserve" fill="#000000" fill-rule="nonzero" stroke-width="1" stroke-linecap="butt" stroke-linejoin="miter" font-family="&quot;LowerResolution&quot;, Scratch" font-weight="normal" text-anchor="start"><tspan x="0" dy="0">regret</tspan></text><g fill="#000000" fill-rule="nonzero" stroke-width="0" stroke-linecap="butt" stroke-linejoin="miter"><path d="M296.86392,186.81394v-18.62059h18.62059v18.62059z"/><path d="M324.01894,186.81395v-18.62059h18.62059v18.62059z"/><path d="M303.44055,228.20172v-42.68956h3.81695v42.68956z"/><path d="M329.75741,215.64597v-30.3347h7.53345v30.3347z"/></g></g></g></svg>