<svg version="1.1" xmlns="http://www.w3.org/2000/svg" xmlns:xlink="http://www.w3.org/1999/xlink" width="47.48328" height="47.48327" viewBox="0,0,47.48328,47.48327"><g transform="translate(-296.25835,-156.25837)"><g stroke-width="0" stroke-miterlimit="10"><path d="M296.25837,180.00001c0,-13.11216 10.62949,-23.74164 23.74164,-23.74164c10.41275,0 19.25984,6.70342 22.46121,16.03021c0.82993,2.41786 1.28041,5.01204 1.28041,7.71142c0,13.11216 -10.62949,23.74164 -23.74164,23.74164c-13.11215,0 -23.74164,-10.62948 -23.74164,-23.74164z" fill-opacity="0.14902" fill="#000000" stroke="#000000"/><g fill="#bfbfbf" stroke="none"><path d="M340.31533,173.68725c0.53628,1.89679 0.82369,3.9017 0.82369,5.97529c0,7.44024 -3.70025,13.99623 -9.32057,17.84652c-0.00391,0.00268 -11.65974,-18.64321 -11.65974,-18.76512c0,-0.01722 20.15081,-5.07719 20.15661,-5.05668z"/><path d="M319.99905,159.23009c1.92942,-0.04106 3.89677,0.19179 5.85486,0.72648c7.02583,1.91852 12.2625,7.26698 14.4491,13.8159c0.00152,0.00456 -20.61131,6.71925 -20.72644,6.68781c-0.01626,-0.00444 0.40162,-21.22975 0.42249,-21.23019z"/><path d="M319.84128,178.74392c0.00001,0.12192 -11.65583,18.7678 -11.65974,18.76512c-5.62032,-3.8503 -9.32057,-10.40627 -9.32057,-17.84652c0,-2.07358 0.28741,-4.0785 0.82369,-5.97529c0.0058,-0.02051 20.15661,5.03947 20.15661,5.05669z"/><path d="M320.42344,180.46028c-0.11513,0.03145 -20.72796,-6.68325 -20.72644,-6.68781c2.1866,-6.54893 7.42327,-11.89739 14.4491,-13.81591c1.95808,-0.53469 3.92543,-0.76754 5.85486,-0.72648c0.02086,0.00044 0.43875,21.22575 0.42249,21.23019z"/><path d="M331.90075,197.46497c-1.59378,1.11342 -3.36563,2.01866 -5.29097,2.66598c-6.90833,2.32264 -14.15072,0.77244 -19.48025,-3.48879c-0.00371,-0.00296 12.77825,-18.06659 12.89146,-18.10464c0.01599,-0.00537 11.897,18.91542 11.87977,18.92746z"/></g><path d="M302.88336,180.05891c0,-9.45327 7.66338,-17.11664 17.11664,-17.11664c7.50712,0 13.88547,4.83286 16.19351,11.55705c0.59834,1.74317 0.92312,3.61345 0.92312,5.55958c0,9.45327 -7.66338,17.11664 -17.11664,17.11664c-9.45326,0 -17.11664,-7.66337 -17.11664,-17.11664z" fill="#5a5a5a" stroke="#000000"/></g></g></svg>