<svg version="1.1" xmlns="http://www.w3.org/2000/svg" xmlns:xlink="http://www.w3.org/1999/xlink" width="94.42335" height="265.29095" viewBox="0,0,94.42335,265.29095"><defs><linearGradient x1="278.91778" y1="44.37556" x2="278.91778" y2="51.29549" gradientUnits="userSpaceOnUse" id="color-1"><stop offset="0" stop-color="#2efffd"/><stop offset="1" stop-color="#054f4e"/></linearGradient><linearGradient x1="362.18794" y1="44.37556" x2="362.18794" y2="51.2955" gradientUnits="userSpaceOnUse" id="color-2"><stop offset="0" stop-color="#2efffd"/><stop offset="1" stop-color="#054f4e"/></linearGradient><linearGradient x1="320.00593" y1="170.07921" x2="320.00593" y2="309.6665" gradientUnits="userSpaceOnUse" id="color-3"><stop offset="0" stop-color="#ffc62e"/><stop offset="1" stop-color="#4f3305"/></linearGradient><linearGradient x1="320.00593" y1="170.07921" x2="320.00593" y2="309.6665" gradientUnits="userSpaceOnUse" id="color-4"><stop offset="0" stop-color="#000000" stop-opacity="0.29804"/><stop offset="1" stop-color="#000000" stop-opacity="0"/></linearGradient><linearGradient x1="319.78774" y1="170.6461" x2="319.78774" y2="209.25895" gradientUnits="userSpaceOnUse" id="color-5"><stop offset="0" stop-color="#fcff4f"/><stop offset="1" stop-color="#fcff4f" stop-opacity="0"/></linearGradient><linearGradient x1="320.00004" y1="80.64228" x2="320.00004" y2="175.06562" gradientUnits="userSpaceOnUse" id="color-6"><stop offset="0" stop-color="#ffc62e"/><stop offset="1" stop-color="#4f3305"/></linearGradient><linearGradient x1="320.00004" y1="84.26653" x2="320.00004" y2="158.03214" gradientUnits="userSpaceOnUse" id="color-7"><stop offset="0" stop-color="#fcff4f"/><stop offset="1" stop-color="#fcff4f" stop-opacity="0"/></linearGradient><linearGradient x1="320.00004" y1="80.7742" x2="320.00004" y2="175.19755" gradientUnits="userSpaceOnUse" id="color-8"><stop offset="0" stop-color="#000000" stop-opacity="0.39216"/><stop offset="1" stop-color="#000000" stop-opacity="0"/></linearGradient><linearGradient x1="320.00004" y1="118.27924" x2="320.00004" y2="175.42408" gradientUnits="userSpaceOnUse" id="color-9"><stop offset="0" stop-color="#000000"/><stop offset="1" stop-color="#0c0c0c"/></linearGradient><linearGradient x1="320.00004" y1="88.88657" x2="320.00004" y2="163.23687" gradientUnits="userSpaceOnUse" id="color-10"><stop offset="0" stop-color="#000000"/><stop offset="1" stop-color="#0c0c0c"/></linearGradient><radialGradient cx="334.27914" cy="112.91851" r="32.74416" gradientUnits="userSpaceOnUse" id="color-11"><stop offset="0" stop-color="#2d2d2d"/><stop offset="1" stop-color="#2d2d2d" stop-opacity="0"/></radialGradient></defs><g transform="translate(-272.78836,-44.37556)"><g stroke="none" stroke-miterlimit="10"><g><g><path d="M278.39396,47.83553c0.75,0 0.75,0.75 0.75,0.75v0.41844c-0.00594,2.08999 -0.58205,4.14742 -1.05357,6.17293c-0.50631,9.80091 1.02315,19.42608 1.24581,29.22098c-0.22006,8.63118 -0.40147,17.27514 -0.40147,25.90799c0,0 0,0.75 -0.75,0.75c-0.75,0 -0.75,-0.75 -0.75,-0.75c0,-8.63336 0.17886,-17.27844 0.40147,-25.91007c-0.22706,-9.86102 -1.8117,-19.56152 -1.23089,-29.42993c0.44586,-1.94766 1.04528,-3.95235 1.03865,-5.96191v-0.41844c0,0 0,-0.75 0.75,-0.75z" fill="#000000" stroke-width="0.5"/><path d="M275.45781,47.83553l0.33313,-1.48319l0.69053,-0.97359l1.14744,-0.75516l1.28887,-0.24803l1.45909,0.32179l1.04786,0.75352l0.73274,1.16719l0.22027,1.21747l-0.21694,1.20857l-0.61594,1.04314l-1.09576,0.85179l-1.53133,0.35646l-1.36575,-0.27999l-1.00994,-0.66451l-0.87565,-1.32943z" fill="url(#color-1)" stroke-width="0"/></g><g><path d="M363.46174,48.58553v0.41845c-0.00662,2.00956 0.5928,4.01425 1.03865,5.96191c0.5808,9.86841 -1.00384,19.56891 -1.2309,29.42993c0.22261,8.63163 0.40147,17.27671 0.40147,25.91007c0,0 0,0.75 -0.75,0.75c-0.75,0 -0.75,-0.75 -0.75,-0.75c0,-8.63286 -0.18141,-17.27681 -0.40147,-25.90799c0.22265,-9.79489 1.75212,-19.42007 1.24581,-29.22098c-0.47152,-2.02551 -1.04762,-4.08294 -1.05356,-6.17293v-0.41845c0,0 0,-0.75 0.75,-0.75c0.75,0 0.75,0.75 0.75,0.75z" fill="#000000" stroke-width="0.5"/><path d="M365.43929,49.02156l-0.87565,1.32943l-1.00994,0.66452l-1.36575,0.27999l-1.53132,-0.35646l-1.09576,-0.85179l-0.61594,-1.04314l-0.21694,-1.20858l0.22027,-1.21747l0.73274,-1.16719l1.04786,-0.75352l1.45909,-0.32179l1.28886,0.24803l1.14745,0.75516l0.69053,0.97359l0.33312,1.48318z" fill="url(#color-2)" stroke-width="0"/></g></g><g stroke-width="0"><g><path d="M281.87126,309.6665l17.98805,-139.58728h41.01276l11.87211,139.58728z" fill="url(#color-3)"/><path d="M281.87126,309.6665l17.98805,-139.58728l-1.0016,76.55709l7.15614,11.63579l12.4922,6.79247l13.78305,-6.95249l6.97448,-10.46249l1.6085,-77.57037l11.87211,139.58729z" fill="url(#color-4)"/></g><path d="M299.03334,209.25895l5.59886,-44.21171h31.46947l4.44048,44.21172z" fill="url(#color-5)"/></g><g stroke-width="0"><path d="M272.78836,127.85397l4.54557,-20.2383l9.42238,-13.28479l15.65698,-10.30422l17.58674,-3.38437l19.90951,4.39088l14.29819,10.28182l9.99835,15.92645l3.00563,16.61253l-2.96018,16.49113l-8.40457,14.2338l-14.95178,11.62278l-20.89514,4.86397l-18.63582,-3.82055l-13.78076,-9.06738l-11.9484,-18.14029z" fill="url(#color-6)"/><path d="M283.11719,121.14935l3.5511,-15.81061l7.36097,-10.37838l12.23158,-8.04989l13.73916,-2.64395l15.55375,3.43025l11.17007,8.03239l7.81093,12.4421l2.34807,12.97808l-2.31256,12.88323l-6.56584,11.11977l-11.68067,9.07998l-16.32375,3.79985l-14.55872,-2.9847l-10.76584,-7.08364l-9.33436,-14.1716z" fill="url(#color-7)"/><path d="M272.78836,127.9859l3.51099,-15.63205l2.6304,15.53397l12.07213,15.47847l13.15468,10.68657l16.41727,2.76275l20.00548,-4.14932l15.52268,-11.84573l6.57772,-12.97062l1.52637,-16.47657l3.00563,16.61253l-2.96018,16.49113l-8.40457,14.2338l-14.95178,11.62278l-20.89514,4.86397l-18.63583,-3.82055l-13.78075,-9.06739l-11.9484,-18.14029z" fill="url(#color-8)"/></g><g stroke-width="0"><path d="M291.42761,146.85167l2.75097,-12.24819l5.7024,-8.03993l9.47558,-6.23609l10.64346,-2.04821l12.0492,2.65735l8.65325,6.22254l6.05098,9.63866l1.819,10.05388l-1.7915,9.9804l-5.08643,8.61426l-9.04879,7.03409l-12.6457,2.94366l-11.27837,-2.31219l-8.34009,-5.48756l-7.23115,-10.97848z" fill="url(#color-9)"/><path d="M282.82488,126.06174l3.57925,-15.93593l7.41931,-10.46063l12.32853,-8.11369l13.84805,-2.66491l15.67703,3.45745l11.2586,8.09605l7.87285,12.54072l2.36667,13.08095l-2.33089,12.98535l-6.61788,11.2079l-11.77324,9.15194l-16.45313,3.82996l-14.67412,-3.00835l-10.85117,-7.13978l-9.40834,-14.28393z" fill="url(#color-10)"/></g><path d="M287.25588,126.06173l3.15263,-14.03649l6.53499,-9.21381l10.85907,-7.1466l12.19747,-2.34727l13.80845,3.04534l9.91666,7.13106l6.93446,11.04596l2.08459,11.52179l-2.05307,11.4376l-5.82908,9.872l-10.36996,8.0611l-14.49204,3.37346l-12.92507,-2.64978l-9.55779,-6.28878l-8.28694,-12.58139z" fill="url(#color-11)" stroke-width="0"/><path d="M314.49195,126.14009c0.33541,0.67082 -0.33541,1.00623 -0.33541,1.00623l-0.52089,0.208c-2.77634,0.29887 -5.53858,0.20143 -8.30006,0.2367l0.17367,0.40001c0.18135,1.64594 0.15322,2.59961 -0.56237,3.57913l0.17461,0.1164l-0.52633,0.78949c-0.13354,0.20677 -0.36603,0.34365 -0.63049,0.34365c-0.41422,0 -0.75,-0.33578 -0.75,-0.75v-0.79917c0,-1.1073 0.03613,-2.15666 0.13628,-3.26459c0,0 0.01699,-0.18692 0.12748,-0.36524c-1.26108,0.05541 -2.52263,0.16321 -3.7859,0.37377c0,0 -0.7398,0.1233 -0.86309,-0.6165c-0.1233,-0.7398 0.6165,-0.86309 0.6165,-0.86309c4.683,-0.78045 9.33402,-0.15807 14.02788,-0.6718l0.01189,-0.05839c0,0 0.67082,-0.33541 1.00623,0.33541z" fill="#00fff0" stroke-width="0.5"/><path d="M335.1488,152.6237c0.62404,0.41602 0.20801,1.04006 0.20801,1.04006l-0.21961,0.31897c-0.9373,1.80558 -2.58071,3.30391 -4.69939,2.66033c-1.97179,-0.24376 -3.83202,-1.02335 -5.79814,-1.32054c-5.53033,-0.83594 -11.3939,-0.13547 -16.9669,-0.12612c-0.42809,0.26594 -0.93808,0.35987 -1.73939,0.62758c0,0 -0.71151,0.23717 -0.94868,-0.47434c-0.23717,-0.71151 0.47434,-0.94868 0.47434,-0.94868c0.54381,-0.18088 1.17315,-0.15851 1.54248,-0.47834c0.01367,-0.01391 0.02778,-0.02696 0.04221,-0.03922c0.08486,-0.08464 0.1535,-0.19085 0.20091,-0.3265l0.10661,-0.81481c0,0 0.10607,-0.74246 0.84853,-0.63639c0.74246,0.10607 0.63639,0.84853 0.63639,0.84853l-0.11157,0.73318c5.32725,-0.07983 10.86358,-0.63942 16.12196,0.14946c2.00867,0.30135 3.91078,1.08915 5.92304,1.34336c1.35613,0.50875 2.46231,-0.67784 3.02594,-1.8683l0.31318,-0.48021c0,0 0.41602,-0.62403 1.04006,-0.20801z" fill="#00fff0" stroke-width="0.5"/><path d="M331.71482,155.80766c0.23717,0.71151 -0.47434,0.94869 -0.47434,0.94869l-0.82666,0.27497c-2.84441,0.65915 -4.91099,4.09192 -7.26408,5.77205c-3.00266,1.71085 -8.86082,2.74622 -11.60473,-0.24906c-1.90435,-2.07881 -2.44175,-5.95218 -4.98544,-7.1706c0,0 -0.67082,-0.33541 -0.33541,-1.00623c0.33541,-0.67082 1.00623,-0.33541 1.00623,-0.33541c3.28765,1.69724 3.1255,7.03773 6.62152,8.3735c1.42645,0.54502 3.13358,0.33514 4.63106,0.33821c1.84399,0.00378 2.34235,-0.34517 3.85771,-1.2135c2.6026,-1.85982 4.49791,-5.11447 7.65377,-5.94913l0.77169,-0.25781c0,0 0.71151,-0.23717 0.94868,0.47434z" fill="#00fff0" stroke-width="0.5"/><path d="M342.80851,126.07592c0,0.75 -0.75,0.75 -0.75,0.75h-0.1332c-2.21508,0 -4.46416,-0.0769 -6.7118,-0.10502c0.00075,0.01927 0.0014,0.03872 0.00194,0.05835c0.05973,2.16294 -2.62461,6.67342 -3.23061,2.09376c-0.09319,-0.70424 0,-1.42075 0,-2.13112c0,0 0,-0.00491 0.0004,-0.01394c-1.33262,0.02831 -2.65871,0.09528 -3.9708,0.22744c0,0 -0.74628,0.07463 -0.82091,-0.67165c-0.07463,-0.74628 0.67165,-0.82091 0.67165,-0.82091c1.89514,-0.18822 3.81741,-0.24518 5.74617,-0.24685c0.39622,-0.22331 0.78522,-0.23815 1.08114,0.00436c2.42033,0.02048 4.84482,0.10557 7.23281,0.10557h0.1332c0,0 0.75,0 0.75,0.75zM333.5526,128.41842c0.00048,-0.00175 0.00097,-0.00351 0.00146,-0.00527c-0.00038,-0.00006 -0.00076,-0.00012 -0.00115,-0.00018c-0.0001,0.00182 -0.00021,0.00363 -0.00031,0.00545z" fill="#00fff0" stroke-width="0.5"/><path d="M315.81905,117.73379c0.75,0 0.75,0.75 0.75,0.75v0.66598c0,0.5627 0.08291,2.32062 -0.38048,2.65058c-0.21519,0.15323 -3.36645,-0.79905 -3.88577,-0.8369c-4.76824,-0.34758 -9.81947,-0.26625 -14.5983,-0.2645c0,0 -0.75,0 -0.75,-0.75c0,-0.75 0.75,-0.75 0.75,-0.75c4.08054,0.00143 8.16357,0.26639 12.25396,0.26639c1.48671,0 2.95594,-0.03994 4.41866,0.28288c0.17924,0.03956 0.4695,0.14929 0.71519,0.2753c-0.03501,-0.29322 -0.02327,-0.65082 -0.02327,-0.87374v-0.66598c0,0 0,-0.75 0.75,-0.75z" fill="#00fff0" stroke-width="0.5"/></g></g></svg>