<svg version="1.1" xmlns="http://www.w3.org/2000/svg" xmlns:xlink="http://www.w3.org/1999/xlink" width="153.64747" height="245.39447" viewBox="0,0,153.64747,245.39447"><defs><linearGradient x1="377.70119" y1="161.14875" x2="351.38199" y2="125.92577" gradientUnits="userSpaceOnUse" id="color-1"><stop offset="0" stop-color="#dcbc87"/><stop offset="1" stop-color="#a48940"/></linearGradient><linearGradient x1="358.94846" y1="186.9429" x2="340.85504" y2="146.86814" gradientUnits="userSpaceOnUse" id="color-2"><stop offset="0" stop-color="#dcbc87"/><stop offset="1" stop-color="#a48940"/></linearGradient><linearGradient x1="263.80377" y1="161.14875" x2="290.12297" y2="125.92577" gradientUnits="userSpaceOnUse" id="color-3"><stop offset="0" stop-color="#dcbc87"/><stop offset="1" stop-color="#a48940"/></linearGradient><linearGradient x1="282.55651" y1="186.9429" x2="300.64991" y2="146.86814" gradientUnits="userSpaceOnUse" id="color-4"><stop offset="0" stop-color="#dcbc87"/><stop offset="1" stop-color="#a48940"/></linearGradient><linearGradient x1="320.00595" y1="170.07921" x2="320.00595" y2="309.6665" gradientUnits="userSpaceOnUse" id="color-5"><stop offset="0" stop-color="#dcbc87"/><stop offset="1" stop-color="#a48940"/></linearGradient><linearGradient x1="320.00595" y1="170.07921" x2="320.00595" y2="309.6665" gradientUnits="userSpaceOnUse" id="color-6"><stop offset="0" stop-color="#000000" stop-opacity="0.29804"/><stop offset="1" stop-color="#000000" stop-opacity="0"/></linearGradient><linearGradient x1="319.78774" y1="170.6461" x2="319.78774" y2="209.25896" gradientUnits="userSpaceOnUse" id="color-7"><stop offset="0" stop-color="#e1d68e"/><stop offset="1" stop-color="#e1d68e" stop-opacity="0"/></linearGradient><linearGradient x1="320.00005" y1="80.64229" x2="320.00005" y2="175.06563" gradientUnits="userSpaceOnUse" id="color-8"><stop offset="0" stop-color="#dcbc87"/><stop offset="1" stop-color="#a48940"/></linearGradient><linearGradient x1="320.00005" y1="84.26654" x2="320.00005" y2="158.03215" gradientUnits="userSpaceOnUse" id="color-9"><stop offset="0" stop-color="#e1d68e"/><stop offset="1" stop-color="#e1d68e" stop-opacity="0"/></linearGradient><linearGradient x1="320.00005" y1="80.7742" x2="320.00005" y2="175.19756" gradientUnits="userSpaceOnUse" id="color-10"><stop offset="0" stop-color="#000000" stop-opacity="0.39216"/><stop offset="1" stop-color="#000000" stop-opacity="0"/></linearGradient><linearGradient x1="320.00005" y1="87.06756" x2="320.00005" y2="128.23438" gradientUnits="userSpaceOnUse" id="color-11"><stop offset="0" stop-color="#664f3e"/><stop offset="1" stop-color="#392616"/></linearGradient><linearGradient x1="320.00005" y1="64.27204" x2="320.00005" y2="113.31644" gradientUnits="userSpaceOnUse" id="color-12"><stop offset="0" stop-color="#664f3e"/><stop offset="1" stop-color="#392616"/></linearGradient><linearGradient x1="320.00005" y1="64.27204" x2="320.00005" y2="89.57092" gradientUnits="userSpaceOnUse" id="color-13"><stop offset="0" stop-color="#664f3e"/><stop offset="1" stop-color="#392616"/></linearGradient><linearGradient x1="320.00005" y1="66.99176" x2="320.00005" y2="85.49994" gradientUnits="userSpaceOnUse" id="color-14"><stop offset="0" stop-color="#9b795f"/><stop offset="1" stop-color="#9b795f" stop-opacity="0"/></linearGradient></defs><g transform="translate(-243.17633,-64.27204)"><g stroke="none" stroke-miterlimit="10"><g stroke-width="0"><g><path d="M368.9935,112.76617l15.86459,35.71231l2.49734,31.95057l-53.58492,-41.34369z" fill="url(#color-1)"/><path d="M360.89242,137.82142l7.77977,38.29529l-4.45999,31.73616l-43.39454,-51.93802z" fill="url(#color-2)"/></g><g><path d="M307.73443,139.08536l-53.58492,41.34368l2.49734,-31.95056l15.86459,-35.71231z" fill="url(#color-3)"/><path d="M320.68732,155.91485l-43.39454,51.93802l-4.45999,-31.73615l7.77977,-38.2953z" fill="url(#color-4)"/></g></g><g stroke-width="0"><g><path d="M281.87127,309.6665l17.98805,-139.58728h41.01276l11.87211,139.58728z" fill="url(#color-5)"/><path d="M281.87127,309.6665l17.98805,-139.58728l-1.0016,76.55709l7.15614,11.63579l12.4922,6.79247l13.78305,-6.95249l6.97448,-10.46249l1.6085,-77.57037l11.87211,139.58729z" fill="url(#color-6)"/></g><path d="M299.03337,209.25896l5.59886,-44.21171h31.46947l4.44048,44.21172z" fill="url(#color-7)"/></g><g stroke-width="0"><path d="M272.78837,127.85398l4.54557,-20.2383l9.42238,-13.28479l15.65698,-10.30422l17.58674,-3.38437l19.90951,4.39088l14.29819,10.28182l9.99835,15.92645l3.00563,16.61253l-2.96018,16.49113l-8.40457,14.2338l-14.95178,11.62278l-20.89514,4.86397l-18.63582,-3.82055l-13.78076,-9.06738l-11.9484,-18.14029z" fill="url(#color-8)"/><path d="M283.11722,121.14936l3.5511,-15.81061l7.36097,-10.37838l12.23158,-8.04989l13.73916,-2.64395l15.55375,3.43025l11.17007,8.03239l7.81093,12.4421l2.34807,12.97808l-2.31256,12.88323l-6.56584,11.11977l-11.68067,9.07998l-16.32375,3.79985l-14.55872,-2.9847l-10.76584,-7.08364l-9.33436,-14.1716z" fill="url(#color-9)"/><path d="M272.78837,127.98591l3.51099,-15.63205l2.6304,15.53397l12.07213,15.47847l13.15468,10.68657l16.41727,2.76275l20.00548,-4.14932l15.52268,-11.84573l6.57772,-12.97062l1.52637,-16.47657l3.00563,16.61253l-2.96018,16.49113l-8.40457,14.2338l-14.95178,11.62278l-20.89514,4.86397l-18.63583,-3.82055l-13.78075,-9.06739l-11.9484,-18.14029z" fill="url(#color-10)"/></g><g stroke-width="0"><path d="M243.17633,107.65098l7.39664,-8.82353l15.33228,-5.79192l25.47733,-4.49245l28.61748,-1.47552l32.39713,1.91434l23.26628,4.48268l16.26951,6.94364l4.89082,7.24276l-4.81687,7.18982l-13.67607,6.20567l-24.32982,5.06732l-34.00097,2.1206l-30.32456,-1.66568l-22.42431,-3.95321l-19.44267,-7.90883z" fill="url(#color-11)"/><path d="M272.78837,76.92148l4.54557,-5.42246l9.42238,-3.55939l15.65698,-2.76082l17.58674,-0.90677l19.90951,1.17645l14.29819,2.75481l9.99835,4.26718l3.00563,4.451l-2.96018,28.16399l-8.40457,3.81367l-14.95178,3.1141l-20.89514,1.3032l-18.63582,-1.02364l-13.78076,-2.42942l-11.9484,-5.13969z" fill="url(#color-12)"/><path d="M272.78837,76.92148l4.54557,-5.42246l9.42238,-3.55939l15.65698,-2.76082l17.58674,-0.90677l19.90951,1.17645l14.29819,2.75481l9.99835,4.26718l3.00563,4.451l-2.96018,4.41848l-8.40457,3.81367l-14.95178,3.1141l-20.89514,1.3032l-18.63582,-1.02364l-13.78076,-2.42942l-11.9484,-4.86034z" fill="url(#color-13)"/></g><path d="M279.41778,76.24585l3.90729,-3.96697l8.0993,-2.60399l13.45845,-2.01976l15.11724,-0.66338l17.11385,0.86067l12.29046,2.01537l8.5944,3.12179l2.58358,3.25627l-2.54452,3.23247l-7.22441,2.79l-12.85227,2.27821l-17.96108,0.9534l-16.01901,-0.74888l-11.84569,-1.77732l-10.27062,-3.55573z" fill="url(#color-14)" stroke-width="0"/><path d="M295.58993,148.30393c0,-0.75 0.75,-0.75 0.75,-0.75l0.54412,0.00032c7.10949,-0.18895 13.46143,-4.43837 15.43443,-11.34428c0,0 0.19007,-0.66525 0.84405,-0.53529c0.04834,-0.18484 0.09401,-0.37134 0.13695,-0.55949c0,0 0.16864,-0.73079 0.89944,-0.56215c0.73079,0.16864 0.56215,0.89944 0.56215,0.89944c-1.72111,7.38526 -7.24592,12.44063 -14.05658,14.97002l-0.54345,0.04666c0,0 -0.75,0 -0.75,-0.75c0,-0.75 0.75,-0.75 0.75,-0.75l0.02264,0.04666c0.68368,-0.2524 1.35452,-0.53222 2.00929,-0.83929c-1.6754,0.5208 -3.44725,0.81945 -5.26498,0.87708l-0.58807,0.00032c0,0 -0.75,0 -0.75,-0.75z" fill="#000000" stroke-width="0.5"/><path d="M343.18159,149.05394l-0.58807,-0.00033c-1.81772,-0.05763 -3.58957,-0.35628 -5.26497,-0.87707c0.65476,0.30707 1.3256,0.58688 2.00928,0.83928l0.02264,-0.04666c0,0 0.75,0 0.75,0.75c0,0.75 -0.75,0.75 -0.75,0.75l-0.54345,-0.04666c-6.81066,-2.52938 -12.33547,-7.58477 -14.05658,-14.97002c0,0 -0.16864,-0.73079 0.56215,-0.89944c0.7308,-0.16864 0.89944,0.56215 0.89944,0.56215c0.04295,0.18815 0.08862,0.37465 0.13696,0.55949c0.65398,-0.12996 0.84405,0.53529 0.84405,0.53529c1.973,6.90591 8.32494,11.15533 15.43443,11.34428l0.54412,-0.00032c0,0 0.75,0 0.75,0.75c0,0.75 -0.75,0.75 -0.75,0.75z" fill="#000000" stroke-width="0.5"/><path d="M309.51072,175.74797c-0.64312,0.38587 -1.02899,-0.25725 -1.02899,-0.25725l-0.48368,-0.9387c-0.16658,-1.51245 -0.13172,-3.01126 -0.13172,-4.53235c0,0 0,-0.75 0.75,-0.75c0.75,0 0.75,0.75 0.75,0.75c0,1.46464 -0.04074,2.91087 0.12254,4.36671l0.2791,0.3326c0,0 0.38587,0.64312 -0.25725,1.02899z" fill="#000000" stroke-width="0.5"/><path d="M314.31935,177.92202c-0.65598,0.36359 -1.01956,-0.29239 -1.01956,-0.29239l-0.39547,-0.72841c-0.84375,-2.20248 -1.31728,-4.47614 -1.4767,-6.83167c0,0 -0.04989,-0.74834 0.69845,-0.79823c0.74834,-0.04989 0.79823,0.69845 0.79823,0.69845c0.14439,2.2015 0.58578,4.33669 1.38004,6.39298l0.3074,0.5397c0,0 0.36359,0.65598 -0.29239,1.01956z" fill="#000000" stroke-width="0.5"/><path d="M319.18988,178.17777c-0.53033,0.53033 -1.06066,0 -1.06066,0l-0.46265,-0.65501c-0.4226,-2.42848 -1.10396,-4.41263 -0.89859,-6.92972c0,0 0.06228,-0.74741 0.80969,-0.68513c0.74741,0.06228 0.68513,0.80969 0.68513,0.80969c-0.20245,2.37528 0.47515,4.24792 0.88122,6.54599l0.04587,-0.14649c0,0 0.53033,0.53033 0,1.06066z" fill="#000000" stroke-width="0.5"/><path d="M322.60056,177.88892c-0.75,0 -0.75,-0.75 -0.75,-0.75c0,-1.65268 0,-3.68675 0,-5.33944c0,0 0,-0.75 0.75,-0.75c0.75,0 0.75,0.75 0.75,0.75c0,1.65268 0,3.30536 0,4.95805v0.38139c0,0 0,0.75 -0.75,0.75z" fill="#000000" stroke-width="0.5"/><path d="M327.38744,176.23494c-0.74871,-0.04404 -0.70466,-0.79275 -0.70466,-0.79275l0.03905,-0.66379c0.07893,-1.33677 0.08679,-2.65757 0.08679,-3.99596c0,0 0,-0.75 0.75,-0.75c0.75,0 0.75,0.75 0.75,0.75c0,1.36774 -0.00931,2.7179 -0.08938,4.08404l-0.03905,0.66379c0,0 -0.04404,0.74871 -0.79275,0.70466z" fill="#000000" stroke-width="0.5"/><path d="M331.4996,174.3293c-0.75,0 -0.75,-0.75 -0.75,-0.75v-0.76278c0.00391,-0.69814 -0.02769,-1.41272 -0.2254,-2.08229c0,0 -0.20604,-0.72114 0.5151,-0.92718c0.72114,-0.20604 0.92718,0.5151 0.92718,0.5151c0.22421,0.8062 0.27908,1.65758 0.28312,2.49437v0.76278c0,0 0,0.75 -0.75,0.75z" fill="#000000" stroke-width="0.5"/><path d="M334.29647,172.54948c-0.75,0 -0.75,-0.75 -0.75,-0.75c0,-0.33901 0,-1.05941 0,-1.39842c0,0 0,-0.75 0.75,-0.75c0.75,0 0.75,0.75 0.75,0.75c0,0.33901 0,0.67802 0,1.01704v0.38139c0,0 0,0.75 -0.75,0.75z" fill="#000000" stroke-width="0.5"/><path d="M305.69235,173.56652c-0.75,0 -0.75,-0.75 -0.75,-0.75c0,-0.38139 0,-1.65268 0,-2.03407c0,0 0,-0.75 0.75,-0.75c0.75,0 0.75,0.75 0.75,0.75c0,0.38139 0,0.76278 0,1.14416v0.88991c0,0 0,0.75 -0.75,0.75z" fill="#000000" stroke-width="0.5"/><g fill="#000000" stroke-width="0.5"><path d="M336.53796,178.11023c-0.39378,0.47662 -0.76884,-0.02377 -0.76884,-0.02377l-0.49545,-0.66937c-0.38174,-0.87048 -0.73325,-2.05267 -1.25933,-2.87641c-0.13551,-0.00322 -0.2891,-0.07635 -0.41524,-0.31943c-0.00661,-0.01273 -0.01286,-0.02538 -0.01875,-0.03793c-4.26821,-2.76226 -8.41305,-5.76726 -12.79229,-8.31423c0,0 -0.49449,-0.2876 -0.26818,-0.91596c0.22632,-0.62836 0.72081,-0.34077 0.72081,-0.34077c4.25421,2.47424 8.28733,5.3808 12.42695,8.07701c0.24661,-0.09057 0.47449,0.11907 0.47449,0.11907c0.02789,0.02673 0.05537,0.05396 0.08245,0.08169c0.73,-0.5518 1.4755,-0.99919 2.24171,-1.5034l0.54252,-0.26193c0,0 0.50969,-0.24097 0.69931,0.40672c0.18963,0.64769 -0.32006,0.88864 -0.32006,0.88864l-0.42181,0.19399c-0.31188,0.20506 -0.62063,0.3996 -0.92618,0.596c1.85191,0.07269 3.64257,0.28742 5.5473,-0.17328l0.24772,-0.12486c0,0 0.51073,-0.23737 0.69753,0.41163c0.1868,0.649 -0.32393,0.88639 -0.32393,0.88639l-0.41818,0.18464c-1.68664,0.407 -3.28165,0.30051 -4.90482,0.22141c0.02895,0.04627 0.05758,0.0929 0.08592,0.13983c0.45306,-0.33721 0.73229,0.23693 0.73229,0.23693c0.02142,0.04449 0.04295,0.08891 0.06461,0.13324c0.11529,0.01321 0.19995,0.06245 0.19995,0.06245c0.10461,0.06128 0.20832,0.12488 0.31114,0.19066c1.80953,-0.82391 3.8427,-0.96843 5.74645,-1.14879l0.01143,-0.03453c0,0 0.50969,-0.24097 0.69931,0.40672c0.18963,0.64769 -0.32006,0.88864 -0.32006,0.88864l-0.31002,0.11746c-1.46352,0.13796 -3.04853,0.23173 -4.51002,0.69626c0.61655,0.35858 1.23309,0.71716 1.84964,1.07575l0.44104,0.25651c0,0 0.49448,0.2876 0.26817,0.91596c-0.0463,0.12855 -0.10381,0.21877 -0.16603,0.28096c0.32201,0.37546 0.63786,0.75602 0.94941,1.13433l0.38353,0.39133c0,0 0.42276,0.43469 0.08069,0.97191c-0.34207,0.53722 -0.76483,0.10253 -0.76483,0.10253l-0.45099,-0.46676c-0.92094,-1.11945 -1.88759,-2.28461 -2.94858,-3.24195c0.54886,0.83622 1.15,1.61986 1.80763,2.3327l0.09338,0.02507c0,0 0.49449,0.2876 0.26818,0.91596c-0.22632,0.62836 -0.72081,0.34077 -0.72081,0.34077l-0.34766,-0.23144c-0.62448,-0.68032 -1.19819,-1.41731 -1.72804,-2.19861c-0.4102,0.38138 -0.736,-0.13278 -0.736,-0.13278l-0.17215,-0.27169c-0.49929,-0.79889 -0.89326,-1.75083 -1.36672,-2.59173c-0.20688,-0.12529 -0.41333,-0.25147 -0.61934,-0.37847c0.14522,0.35865 0.28662,0.71845 0.43418,1.06555l0.4053,0.53236c0,0 0.37507,0.5004 -0.01871,0.97702z"/><path d="M318.2659,161.47279c-0.28826,0.63063 -0.6746,1.23497 -0.83942,1.89871c-0.32731,1.31803 0.38275,2.61097 2.15804,1.79894c1.91534,-0.87609 3.48947,-6.04141 1.22594,-6.86879c-0.7117,0.17914 -1.25738,1.94423 -1.66655,2.49517l-0.09398,0.18118c0,0 -0.26134,0.46216 -0.78403,0.49479zM318.88784,157.72714c0.38867,-0.47138 0.91941,-0.85627 1.92262,-1.16055c4.47729,1.21497 3.66451,8.41004 -0.32587,10.14563c-3.20309,1.39316 -5.63628,-0.93392 -4.98032,-3.68958c0.18747,-0.78755 0.62466,-1.51225 0.9682,-2.25753c0.48308,-1.048 1.19638,-2.0386 2.09241,-2.84672c0,0 0.12543,-0.11091 0.32297,-0.19125z"/></g><path d="M281.77903,131.87696c0.75,0 0.75,0.75 0.75,0.75v0.11862c-0.00261,1.07575 0.20073,2.02064 0.56737,2.8513c0.17299,0.06108 0.31687,0.18381 0.40524,0.3418l0.74864,1.28338l-0.08092,0.0472c1.03167,1.17886 2.47077,2.04225 4.0847,2.68091c0.13134,-0.21736 0.36989,-0.36268 0.64238,-0.36268c0.12597,0 0.24468,0.03106 0.34891,0.08593l1.17274,0.58637l-0.05715,0.1143c0.13594,0.03501 0.27226,0.07109 0.40895,0.1081c1.75634,0.19857 3.53989,0.25277 5.01823,0.54016c0.73284,0.14246 1.43349,0.36783 2.12371,0.62438c2.37837,-0.13362 5.27534,0.28182 7.69899,-0.23073c2.17554,-1.40049 3.43198,-3.86514 4.85586,-5.9006c0.54583,-0.76417 1.06691,-1.37649 1.36212,-2.26897l0.07902,-0.06696l-0.02932,-0.01955l0.46804,-0.70206c0.13354,-0.20678 0.36603,-0.34365 0.63049,-0.34365c0.38198,0 0.69727,0.28556 0.74402,0.65485l0.01646,0.1152c0.18334,-0.09405 0.4385,-0.13185 0.73723,0.07726c0.61442,0.4301 0.18433,1.04452 0.18433,1.04452c-0.02412,0.03424 -0.04808,0.06854 -0.07191,0.10289l-0.16488,0.57242c-0.36401,2.22691 -1.85844,4.22455 -3.70231,5.88253c-1.00099,1.32158 -2.24449,2.38581 -4.10366,2.93635c-0.35349,0.20477 -0.70056,0.39587 -1.03658,0.57264c-1.34922,0.38364 -2.60447,0.63577 -3.80896,0.77804c-1.20191,0.3844 -2.47222,0.34614 -3.75304,0.10545c-2.45438,-0.1466 -4.8885,-0.69098 -7.72762,-1.41992c-3.03392,-0.77896 -6.26372,-2.08793 -7.75841,-4.99876c0,0 -0.23601,-0.47202 0.08386,-0.82213c-0.98951,-1.3188 -1.58221,-2.94992 -1.58652,-4.96996v-0.11862c0,0 0,-0.75 0.75,-0.75zM309.7292,139.03974c0.27748,-0.25113 0.54975,-0.51677 0.80042,-0.7922c0.21623,-0.36003 0.42354,-0.73193 0.62793,-1.11079c-0.47096,0.65897 -0.94346,1.29727 -1.42834,1.90299z" fill="#000000" stroke-width="0.5"/><path d="M358.10302,132.62695v0.11862c-0.00432,2.02004 -0.59702,3.65117 -1.58652,4.96996c0.31987,0.35012 0.08386,0.82214 0.08386,0.82214c-1.49469,2.91083 -4.72449,4.2198 -7.75841,4.99875c-2.83913,0.72894 -5.27323,1.27332 -7.72762,1.41992c-1.28082,0.24069 -2.55113,0.27895 -3.75304,-0.10545c-1.20449,-0.14227 -2.45974,-0.39439 -3.80897,-0.77803c-0.33602,-0.17677 -0.6831,-0.36787 -1.03658,-0.57264c-1.85917,-0.55053 -3.10267,-1.61476 -4.10366,-2.93634c-1.84386,-1.65798 -3.3383,-3.65562 -3.70231,-5.88253l-0.16488,-0.57242c-0.02382,-0.03435 -0.0478,-0.06865 -0.07191,-0.10289c0,0 -0.43009,-0.61443 0.18433,-1.04452c0.29873,-0.20911 0.55389,-0.17132 0.73723,-0.07727l0.01646,-0.1152c0.04676,-0.36929 0.36204,-0.65485 0.74402,-0.65485c0.26446,0 0.49695,0.13688 0.63049,0.34365l0.46804,0.70207l-0.02932,0.01954l0.07902,0.06697c0.29521,0.89248 0.81629,1.5048 1.36212,2.26897c1.42388,2.03546 2.68032,4.50011 4.85586,5.9006c2.42365,0.51255 5.32062,0.09711 7.69899,0.23073c0.69022,-0.25655 1.39088,-0.48192 2.12372,-0.62438c1.47834,-0.28739 3.26189,-0.34159 5.01823,-0.54016c0.13668,-0.037 0.27301,-0.07308 0.40895,-0.10809l-0.05715,-0.11431l1.17274,-0.58637c0.10422,-0.05487 0.22293,-0.08593 0.3489,-0.08593c0.27249,0 0.51104,0.14532 0.64238,0.36268c1.61394,-0.63866 3.05304,-1.50206 4.08471,-2.68092l-0.08093,-0.0472l0.74864,-1.28338c0.08837,-0.15799 0.23226,-0.28072 0.40524,-0.34179c0.36664,-0.83066 0.56999,-1.77555 0.56738,-2.8513v-0.11862c0,0 0,-0.75 0.75,-0.75c0.75,0 0.75,0.75 0.75,0.75zM327.9745,137.13674c0.20439,0.37886 0.4117,0.75075 0.62793,1.11079c0.25067,0.27543 0.52294,0.54106 0.80042,0.7922c-0.48488,-0.60573 -0.95738,-1.24401 -1.42835,-1.90299z" fill="#000000" stroke-width="0.5"/></g></g></svg>