<svg version="1.1" xmlns="http://www.w3.org/2000/svg" xmlns:xlink="http://www.w3.org/1999/xlink" width="267.52542" height="267.52542" viewBox="0,0,267.52542,267.52542"><defs><radialGradient cx="330.03221" cy="136.85495" r="133.76271" gradientUnits="userSpaceOnUse" id="color-1"><stop offset="0" stop-color="#ffec6e" stop-opacity="0.4902"/><stop offset="1" stop-color="#ffec6e" stop-opacity="0"/></radialGradient><radialGradient cx="329.09821" cy="202.12496" r="21.93531" gradientUnits="userSpaceOnUse" id="color-2"><stop offset="0" stop-color="#ff8700"/><stop offset="1" stop-color="#ff6200"/></radialGradient><radialGradient cx="329.09821" cy="72.70659" r="21.93531" gradientUnits="userSpaceOnUse" id="color-3"><stop offset="0" stop-color="#ff8700"/><stop offset="1" stop-color="#ff6200"/></radialGradient><radialGradient cx="264.38903" cy="137.41579" r="21.93531" gradientUnits="userSpaceOnUse" id="color-4"><stop offset="0" stop-color="#ff8700"/><stop offset="1" stop-color="#ff6200"/></radialGradient><radialGradient cx="393.80739" cy="137.41579" r="21.93531" gradientUnits="userSpaceOnUse" id="color-5"><stop offset="0" stop-color="#ff8700"/><stop offset="1" stop-color="#ff6200"/></radialGradient><radialGradient cx="283.34192" cy="183.1721" r="21.93531" gradientUnits="userSpaceOnUse" id="color-6"><stop offset="0" stop-color="#ff8700"/><stop offset="1" stop-color="#ff6200"/></radialGradient><radialGradient cx="374.85451" cy="91.65948" r="21.93531" gradientUnits="userSpaceOnUse" id="color-7"><stop offset="0" stop-color="#ff8700"/><stop offset="1" stop-color="#ff6200"/></radialGradient><radialGradient cx="283.3419" cy="91.65948" r="21.93531" gradientUnits="userSpaceOnUse" id="color-8"><stop offset="0" stop-color="#ff8700"/><stop offset="1" stop-color="#ff6200"/></radialGradient><radialGradient cx="374.85451" cy="183.17207" r="21.93531" gradientUnits="userSpaceOnUse" id="color-9"><stop offset="0" stop-color="#ff8700"/><stop offset="1" stop-color="#ff6200"/></radialGradient><radialGradient cx="330.03221" cy="136.85495" r="50.59676" gradientUnits="userSpaceOnUse" id="color-10"><stop offset="0" stop-color="#ffec6d"/><stop offset="1" stop-color="#ffa800"/></radialGradient></defs><g transform="translate(-196.2695,-3.09224)"><g stroke="none" stroke-miterlimit="10"><path d="M196.2695,136.85495c0,-73.87511 59.8876,-133.76271 133.76271,-133.76271c73.87511,0 133.76271,59.8876 133.76271,133.76271c0,73.87511 -59.8876,133.76271 -133.76271,133.76271c-73.87511,0 -133.76271,-59.8876 -133.76271,-133.76271z" fill="url(#color-1)" stroke-width="0"/><g stroke-width="0"><g><g><path d="M351.03353,178.46616l-21.62195,47.31761l-22.24868,-47.31761z" fill="url(#color-2)"/><path d="M307.1629,96.3654l22.24868,-47.31761l21.62195,47.31761z" fill="url(#color-3)"/></g><g><path d="M288.04784,159.35109l-47.31761,-21.62195l47.31761,-22.24868z" fill="url(#color-4)"/><path d="M370.14858,115.48046l47.31761,22.24868l-47.31759,21.62195z" fill="url(#color-5)"/></g></g><g><g><path d="M315.58183,181.9534l-48.74764,18.16957l17.72641,-49.19079z" fill="url(#color-6)"/><path d="M342.6146,92.87816l49.19079,-17.7264l-18.16957,48.74763z" fill="url(#color-7)"/></g><g><path d="M284.56061,123.89939l-18.16957,-48.74763l49.19079,17.72641z" fill="url(#color-8)"/><path d="M373.63581,150.93218l17.72641,49.19079l-48.74762,-18.16956z" fill="url(#color-9)"/></g></g></g><path d="M279.43545,136.85495l12.88434,-33.7321l37.71242,-16.86466l35.80673,14.84888l14.79004,35.74788l-13.34901,34.2442l-37.24775,16.35256l-35.18985,-14.24141z" fill="url(#color-10)" stroke-width="0"/><path d="M309.00984,128.82092l-0.02239,0.52491c-0.49997,1.94418 -2.4744,3.515 -2.94062,0.76846c-0.06748,0.03651 -0.13482,0.07328 -0.20202,0.11031c0.84981,3.9166 2.80527,7.82891 5.17809,10.4731c7.34234,5.29748 10.53263,-7.16195 10.55458,-12.3666c-0.14956,-0.66137 -0.30355,-1.3956 -0.47671,-2.16667c-4.15778,0.14663 -8.28753,0.98039 -12.10094,2.54985c0.01002,0.06442 0.01002,0.10666 0.01002,0.10666zM307.442,129.61493c0.00555,-0.07127 0.01317,-0.14638 0.02207,-0.22026c-0.04082,0.01941 -0.08161,0.03892 -0.12235,0.05851c0.04265,0.05151 0.07529,0.10699 0.10028,0.16174zM323.30165,125.39088c0,0.62276 -0.51711,0.72841 -0.69257,0.74634c0.16056,0.67547 0.31136,1.35451 0.45941,2.03019c0.02429,6.64381 -4.28122,20.0509 -13.04945,13.64487c-2.20776,-2.44709 -4.44986,-6.51856 -5.60237,-10.74863c-0.08337,0.04754 -0.6554,0.34396 -1.02322,-0.24455c-0.3975,-0.636 0.2385,-1.0335 0.2385,-1.0335c0.13849,-0.08647 0.27763,-0.17182 0.4174,-0.25605c-0.37956,-1.84549 -0.5278,-3.68757 -0.35249,-5.40596c-0.07441,-0.17265 -0.07441,-0.33339 -0.07441,-0.33339v-0.22867c0.00385,-3.20806 2.00398,-7.39097 4.93653,-8.87461c1.46126,-0.98102 3.46674,-0.8712 5.15423,-0.42495c5.23933,1.38551 7.25335,5.66416 8.51925,10.37946c0.06829,-0.00035 0.13657,-0.00053 0.20485,-0.00053h0.11433c0,0 0.75,0 0.75,0.75zM306.61937,118.63663c0.06027,0.03029 0.12208,0.07125 0.18488,0.12507c0.56944,0.4881 0.08135,1.05754 0.08135,1.05754c-0.94987,1.04697 -1.08481,2.71055 -1.31599,4.09426c-0.24948,1.49321 -0.233,3.11109 -0.00261,4.7581c4.64335,-2.45856 9.88751,-3.76582 15.18126,-3.99433c-0.90513,-3.58012 -2.37523,-7.44281 -5.71651,-8.39701c-1.73246,-0.49475 -4.10168,-1.55156 -5.69904,-0.30828c-1.07324,0.52966 -2.00274,1.50724 -2.71334,2.66466z" fill="#000000" stroke-width="0.5"/><path d="M342.50986,123.10419l-0.02239,0.52491c-0.49997,1.94418 -2.4744,3.515 -2.94062,0.76846c-0.06748,0.03651 -0.13482,0.07328 -0.20202,0.11031c0.84981,3.9166 2.80527,7.82891 5.17809,10.4731c7.34234,5.29748 10.53263,-7.16195 10.55458,-12.3666c-0.14956,-0.66137 -0.30355,-1.3956 -0.47671,-2.16667c-4.15778,0.14663 -8.28753,0.98039 -12.10094,2.54985c0.01002,0.06442 0.01002,0.10666 0.01002,0.10666zM340.94202,123.8982c0.00555,-0.07127 0.01317,-0.14638 0.02207,-0.22026c-0.04082,0.01941 -0.08161,0.03892 -0.12235,0.05851c0.04265,0.05151 0.07529,0.10699 0.10028,0.16174zM356.80168,119.67415c0,0.62276 -0.51711,0.72841 -0.69257,0.74634c0.16056,0.67547 0.31136,1.35451 0.45941,2.03019c0.02429,6.64381 -4.28122,20.05089 -13.04945,13.64487c-2.20776,-2.44709 -4.44986,-6.51855 -5.60237,-10.74862c-0.08337,0.04754 -0.65541,0.34396 -1.02323,-0.24455c-0.3975,-0.636 0.2385,-1.0335 0.2385,-1.0335c0.13849,-0.08647 0.27763,-0.17182 0.4174,-0.25606c-0.37956,-1.84549 -0.5278,-3.68756 -0.35249,-5.40595c-0.07441,-0.17265 -0.07441,-0.33339 -0.07441,-0.33339v-0.22867c0.00385,-3.20806 2.00398,-7.39097 4.93653,-8.87461c1.46126,-0.98102 3.46674,-0.8712 5.15423,-0.42495c5.23933,1.38551 7.25335,5.66416 8.51925,10.37946c0.06829,-0.00035 0.13657,-0.00053 0.20485,-0.00053h0.11434c0,0 0.75,0 0.75,0.75zM340.11939,112.9199c0.06027,0.03029 0.12208,0.07125 0.18488,0.12507c0.56944,0.4881 0.08135,1.05754 0.08135,1.05754c-0.94987,1.04697 -1.08481,2.71055 -1.31599,4.09425c-0.24948,1.49321 -0.233,3.11109 -0.00261,4.7581c4.64335,-2.45857 9.88751,-3.76582 15.18126,-3.99433c-0.90513,-3.58012 -2.37523,-7.44281 -5.71651,-8.39701c-1.73246,-0.49475 -4.10168,-1.55157 -5.69904,-0.30829c-1.07324,0.52966 -2.00274,1.50725 -2.71334,2.66466z" fill="#000000" stroke-width="0.5"/><path d="M303.39292,149.51547c0,-0.41421 0.33579,-0.75 0.75,-0.75c0.41421,0 0.75,0.33579 0.75,0.75c0,0.41421 -0.33579,0.75 -0.75,0.75c-0.41421,0 -0.75,-0.33579 -0.75,-0.75z" fill="#000000" stroke-width="0.5"/><path d="M306.59429,150.20147c0,-0.41421 0.33579,-0.75 0.75,-0.75c0.41421,0 0.75,0.33579 0.75,0.75c0,0.41421 -0.33579,0.75 -0.75,0.75c-0.41421,0 -0.75,-0.33579 -0.75,-0.75z" fill="#000000" stroke-width="0.5"/><path d="M304.3076,152.48817c0,-0.41421 0.33579,-0.75 0.75,-0.75c0.41421,0 0.75,0.33579 0.75,0.75c0,0.41421 -0.33579,0.75 -0.75,0.75c-0.41421,0 -0.75,-0.33579 -0.75,-0.75z" fill="#000000" stroke-width="0.5"/><path d="M358.04484,138.31068c0,-0.41421 0.33579,-0.75 0.75,-0.75c0.41421,0 0.75,0.33579 0.75,0.75c0,0.41421 -0.33579,0.75 -0.75,0.75c-0.41421,0 -0.75,-0.33579 -0.75,-0.75z" fill="#000000" stroke-width="0.5"/><path d="M363.18989,137.16734c0,-0.41421 0.33579,-0.75 0.75,-0.75c0.41421,0 0.75,0.33579 0.75,0.75c0,0.41421 -0.33579,0.75 -0.75,0.75c-0.41421,0 -0.75,-0.33579 -0.75,-0.75z" fill="#000000" stroke-width="0.5"/><path d="M360.67453,140.36871c0,-0.41421 0.33579,-0.75 0.75,-0.75c0.41421,0 0.75,0.33579 0.75,0.75c0,0.41421 -0.33579,0.75 -0.75,0.75c-0.41421,0 -0.75,-0.33579 -0.75,-0.75z" fill="#000000" stroke-width="0.5"/><path d="M326.22999,160.74465c4.6014,0.4256 8.47072,-1.91299 11.36949,-5.38131c1.08292,-1.2957 2.10095,-2.73227 3.29457,-3.90176c-5.61967,1.29569 -12.34578,4.27091 -17.68812,1.63724c-0.78041,-0.38473 -1.24144,-0.93745 -1.61147,-1.52328c-0.14676,3.37784 1.71494,7.69895 4.63553,9.16912zM346.03349,150.60739c-3.92832,-0.07422 -5.99396,4.40036 -8.31453,6.86635c-3.16485,3.36318 -7.29196,5.21976 -11.90767,4.71129c-3.90898,-1.94595 -6.29988,-7.51035 -5.60175,-11.77524l0.11297,-0.79109c-0.16944,-0.17565 -0.36187,-0.33498 -0.58833,-0.47146c0,0 -0.62404,-0.41603 -0.20801,-1.04006c0.41603,-0.62404 1.04006,-0.20801 1.04006,-0.20801c0.44947,0.3185 0.76356,0.70706 1.02815,1.1188c0.11422,0.0985 0.17468,0.22331 0.20594,0.33896c0.52408,0.9037 0.92724,1.85573 2.05973,2.39203c5.51146,2.61003 12.73501,-1.15094 18.27277,-2.06648c2.39616,-0.76305 4.87555,-0.57508 7.36957,-0.57508h0.40026c0,0 0.75,0 0.75,0.75c0,0.75 -0.75,0.75 -0.75,0.75h-0.40026c-1.11015,0 -2.22152,-0.045 -3.32279,-0.01698c-0.08608,0.01698 -0.14611,0.01698 -0.14611,0.01698z" fill="#000000" stroke-width="0.5"/></g></g></svg>