<svg version="1.1" xmlns="http://www.w3.org/2000/svg" xmlns:xlink="http://www.w3.org/1999/xlink" width="47.04546" height="47.04546" viewBox="0,0,47.04546,47.04546"><defs><radialGradient cx="320.09618" cy="180.00002" r="23.52273" gradientUnits="userSpaceOnUse" id="color-1"><stop offset="0" stop-color="#000000" stop-opacity="0.68235"/><stop offset="1" stop-color="#000000" stop-opacity="0"/></radialGradient><linearGradient x1="320.00004" y1="162.6087" x2="320.00004" y2="197.39134" gradientUnits="userSpaceOnUse" id="color-2"><stop offset="0" stop-color="#dedede" stop-opacity="0.20784"/><stop offset="1" stop-color="#dedede" stop-opacity="0"/></linearGradient><linearGradient x1="320.09619" y1="162.6087" x2="320.09619" y2="197.39134" gradientUnits="userSpaceOnUse" id="color-3"><stop offset="0" stop-color="#292929" stop-opacity="0"/><stop offset="1" stop-color="#292929" stop-opacity="0.25098"/></linearGradient></defs><g transform="translate(-296.57344,-156.47728)"><g stroke="none" stroke-miterlimit="10"><path d="M296.57345,180.00002c0,-12.99124 10.53148,-23.52273 23.52273,-23.52273c12.99124,0 23.52273,10.53148 23.52273,23.52273c0,12.99124 -10.53148,23.52273 -23.52273,23.52273c-12.99124,0 -23.52273,-10.53148 -23.52273,-23.52273z" fill="url(#color-1)" stroke-width="0"/><path d="M302.60873,197.39132v-34.78261h34.78261v34.78261z" fill="#b2b2b2" stroke-width="0"/><g stroke-width="0"><path d="M302.60874,197.39134v-34.78261h34.78261l-2.48896,2.57975l-29.14148,0.24634l-0.30739,29.42558z" fill="url(#color-2)"/><path d="M337.4875,162.6087v34.78261h-34.78261l2.88669,-2.57975l28.74375,-0.24634l0.59148,-29.36876z" fill="url(#color-3)"/></g><path d="M313.26509,180.0941c0.67082,-0.33541 1.00623,0.33541 1.00623,0.33541l0.1032,0.20879c0.21423,-0.15463 0.47598,-0.15463 0.47598,-0.15463c2.17994,0 4.36703,0.05365 6.54621,0.00018c0.26323,-0.00646 3.33822,-0.15089 3.34828,-0.14564c2.65302,1.38291 -1.27843,5.86026 -2.25273,7.19047c-0.49922,0.68159 -1.05972,1.73541 -2.18443,1.55901c-0.9517,-0.14927 -2.78728,-2.07168 -3.46869,-2.71496c-1.55637,-1.47224 -2.45315,-2.78568 -3.56489,-4.58973l-0.34458,-0.68266c0,0 -0.33541,-0.67082 0.33541,-1.00623zM315.16924,181.98197c0.78501,1.21717 1.52119,2.18529 2.70071,3.30106c0.62543,0.59289 1.81109,1.93403 2.61697,2.31539c0.36909,0.17466 0.55173,-0.60538 0.78432,-0.94099c0.94509,-1.36366 1.79923,-2.62776 2.58777,-4.10166c0.14239,-0.26616 0.50283,-0.86666 0.20141,-0.88287c-2.82862,-0.15218 -5.98123,0.27846 -8.89118,0.30908z" fill="#000000" stroke-width="0.5"/><path d="M311.99112,176.07742c0,-0.41421 0.33579,-0.75 0.75,-0.75c0.41421,0 0.75,0.33579 0.75,0.75c0,0.41421 -0.33579,0.75 -0.75,0.75c-0.41421,0 -0.75,-0.33579 -0.75,-0.75z" fill="#000000" stroke-width="0.5"/><path d="M325.74112,175.9993c0,-0.41421 0.33579,-0.75 0.75,-0.75c0.41421,0 0.75,0.33579 0.75,0.75c0,0.41421 -0.33579,0.75 -0.75,0.75c-0.41421,0 -0.75,-0.33579 -0.75,-0.75z" fill="#000000" stroke-width="0.5"/><path d="M307.06925,178.65555c0,-0.41421 0.33579,-0.75 0.75,-0.75c0.41421,0 0.75,0.33579 0.75,0.75c0,0.41421 -0.33579,0.75 -0.75,0.75c-0.41421,0 -0.75,-0.33579 -0.75,-0.75z" fill="#000000" stroke-width="0.5"/><path d="M309.413,179.20242c0,-0.41421 0.33579,-0.75 0.75,-0.75c0.41421,0 0.75,0.33579 0.75,0.75c0,0.41421 -0.33579,0.75 -0.75,0.75c-0.41421,0 -0.75,-0.33579 -0.75,-0.75z" fill="#000000" stroke-width="0.5"/><path d="M307.61612,181.15555c0,-0.41421 0.33579,-0.75 0.75,-0.75c0.41421,0 0.75,0.33579 0.75,0.75c0,0.41421 -0.33579,0.75 -0.75,0.75c-0.41421,0 -0.75,-0.33579 -0.75,-0.75z" fill="#000000" stroke-width="0.5"/><path d="M327.30362,178.8118c0,-0.41421 0.33579,-0.75 0.75,-0.75c0.41421,0 0.75,0.33579 0.75,0.75c0,0.41421 -0.33579,0.75 -0.75,0.75c-0.41421,0 -0.75,-0.33579 -0.75,-0.75z" fill="#000000" stroke-width="0.5"/><path d="M330.81925,178.8118c0,-0.41421 0.33579,-0.75 0.75,-0.75c0.41421,0 0.75,0.33579 0.75,0.75c0,0.41421 -0.33579,0.75 -0.75,0.75c-0.41421,0 -0.75,-0.33579 -0.75,-0.75z" fill="#000000" stroke-width="0.5"/><path d="M328.4755,180.6868c0,-0.41421 0.33579,-0.75 0.75,-0.75c0.41421,0 0.75,0.33579 0.75,0.75c0,0.41421 -0.33579,0.75 -0.75,0.75c-0.41421,0 -0.75,-0.33579 -0.75,-0.75z" fill="#000000" stroke-width="0.5"/><path d="M306.32348,168.13796c-0.57617,-0.48014 -0.09603,-1.0563 -0.09603,-1.0563l0.33404,-0.39127c0.1698,-0.26682 0.33959,-0.53365 0.50939,-0.80047c-0.14117,0 -0.28235,0 -0.42352,0h-0.54687c0,0 -0.75,0 -0.75,-0.75c0,-0.75 0.75,-0.75 0.75,-0.75c0.36933,0 0.90137,0 1.41861,0c-0.0648,-0.18672 -0.12647,-0.39028 -0.18906,-0.61516l-0.02537,-0.01818c0,0 -0.33541,-0.67082 0.33541,-1.00623c0.67082,-0.33541 1.00623,0.33541 1.00623,0.33541l0.13088,0.29432c0.08148,0.30639 0.14593,0.54737 0.22252,0.74986c0.25525,-0.13157 0.51373,-0.25686 0.77481,-0.37592l0.85078,-0.20562c0,0 0.73214,-0.1627 0.89484,0.56944c0.09264,0.41689 -0.10485,0.64915 -0.29211,0.77187c0.08743,0.0371 0.17443,0.07519 0.26094,0.1143l-0.07598,-0.06723c0,0 0.75,0 0.75,0.75c0,0.68057 -0.61757,0.74357 -0.73191,0.7494c0.17992,0.14393 0.33336,0.25998 0.44581,0.32617c2.39826,1.41173 4.94121,2.2265 7.25886,3.84379c0.12099,0.04978 0.23977,0.14358 0.3363,0.30813c0.07874,0.11481 0.14622,0.27128 0.12669,0.45744c-0.00973,0.18692 -0.1008,0.33095 -0.19648,0.43208c-0.11282,0.1375 -0.23516,0.21124 -0.35434,0.24515c-3.09646,2.23911 -7.44584,2.38441 -10.99151,3.5681c0,0 -0.34036,0.11345 -0.62874,-0.05198c-0.09974,0.05522 -0.22709,0.09047 -0.38969,0.09047c-0.75,0 -0.75,-0.75 -0.75,-0.75l0.0121,-0.33459c-0.44998,-2.48852 0.07472,-3.80226 0.63603,-6.17834c0.00651,-0.02755 0.01273,-0.05543 0.0187,-0.08364c-0.17704,0.04495 -0.39619,0.02494 -0.63134,-0.17101zM311.10534,168.04872c-0.27814,-0.16258 -2.13288,-1.78058 -2.20607,-1.77094c-0.42218,0.05556 -0.4743,2.34015 -0.5094,2.48445c-0.51798,2.12958 -1.01001,3.19215 -0.64251,5.37788c3.04013,-0.97248 6.91727,-1.16778 9.71728,-2.83553c-2.06099,-1.26345 -4.25959,-2.0285 -6.3593,-3.25585z" fill="#000000" stroke-width="0.5"/></g></g></svg>