<svg version="1.1" xmlns="http://www.w3.org/2000/svg" xmlns:xlink="http://www.w3.org/1999/xlink" width="47.04546" height="47.04546" viewBox="0,0,47.04546,47.04546"><defs><radialGradient cx="320.09618" cy="180.00002" r="23.52273" gradientUnits="userSpaceOnUse" id="color-1"><stop offset="0" stop-color="#000000" stop-opacity="0.68235"/><stop offset="1" stop-color="#000000" stop-opacity="0"/></radialGradient><linearGradient x1="320.00004" y1="162.6087" x2="320.00004" y2="197.39134" gradientUnits="userSpaceOnUse" id="color-2"><stop offset="0" stop-color="#dedede" stop-opacity="0.20784"/><stop offset="1" stop-color="#dedede" stop-opacity="0"/></linearGradient><linearGradient x1="320.09619" y1="162.6087" x2="320.09619" y2="197.39134" gradientUnits="userSpaceOnUse" id="color-3"><stop offset="0" stop-color="#292929" stop-opacity="0"/><stop offset="1" stop-color="#292929" stop-opacity="0.25098"/></linearGradient></defs><g transform="translate(-296.57344,-156.47728)"><g stroke="none" stroke-miterlimit="10"><path d="M296.57345,180.00002c0,-12.99124 10.53148,-23.52273 23.52273,-23.52273c12.99124,0 23.52273,10.53148 23.52273,23.52273c0,12.99124 -10.53148,23.52273 -23.52273,23.52273c-12.99124,0 -23.52273,-10.53148 -23.52273,-23.52273z" fill="url(#color-1)" stroke-width="0"/><path d="M302.60873,197.39132v-34.78261h34.78261v34.78261z" fill="#982fc9" stroke-width="0"/><g stroke-width="0"><path d="M302.60874,197.39134v-34.78261h34.78261l-2.48896,2.57975l-29.14148,0.24634l-0.30739,29.42558z" fill="url(#color-2)"/><path d="M337.4875,162.6087v34.78261h-34.78261l2.88669,-2.57975l28.74375,-0.24634l0.59148,-29.36876z" fill="url(#color-3)"/></g><path d="M323.26356,188.46636c0.18429,0.02091 0.68253,0.13396 0.68253,0.74525c0,0.75 -0.75,0.75 -0.75,0.75l-0.71886,-0.18945c-2.4866,-2.21161 -3.20066,-2.57921 -5.7361,-0.03023c0,0 -0.53033,0.53033 -1.06066,0c-0.53033,-0.53033 0,-1.06066 0,-1.06066c2.96893,-2.95479 4.68343,-2.73319 7.5831,-0.21492z" fill="#000000" stroke-width="0.5"/><path d="M316.66373,182.30868c-0.45,0.6 -1.05,0.15 -1.05,0.15l-0.27422,-0.20616c-2.26271,-1.58701 -3.83692,-3.93391 -6.04044,-5.52258c0,0 -0.60656,-0.44113 -0.16543,-1.04768c0.44113,-0.60655 1.04768,-0.16542 1.04768,-0.16542c2.19325,1.60704 3.7575,3.92758 6.01838,5.50683l0.31403,0.23502c0,0 0.6,0.45 0.15,1.05z" fill="#000000" stroke-width="0.5"/><path d="M331.44021,174.12632c0.6,0.45 0.15,1.05 0.15,1.05l-0.63869,0.57172c-2.47638,0.51017 -5.10086,5.10738 -7.32852,6.65374c0,0 -0.61665,0.42691 -1.04356,-0.18973c-0.4269,-0.61665 0.18974,-1.04355 0.18974,-1.04355c2.65651,-1.83378 4.78087,-6.03089 7.81853,-6.87567l-0.19751,-0.01651c0,0 0.45,-0.6 1.05,-0.15z" fill="#000000" stroke-width="0.5"/><path d="M312.52324,171.29663c-0.61442,0.4301 -1.04452,-0.18433 -1.04452,-0.18433l-0.52944,-0.75715c-0.73228,-1.2222 -2.01287,-2.20934 -2.65993,-3.43819l-0.03138,0.02769c-0.66674,1.741 -0.5463,3.46402 -0.86809,5.26878c0,0 -0.13416,0.7379 -0.87207,0.60374c-0.7379,-0.13416 -0.60374,-0.87207 -0.60374,-0.87207c0.35179,-1.89164 0.19017,-3.71928 0.95918,-5.55036l0.13623,-1.08981c0.04137,-0.37508 0.35933,-0.66685 0.74544,-0.66685c0.22537,0 0.42753,0.09941 0.56501,0.25677l0.9898,1.12177l-0.05434,0.04795c1.13751,1.00521 2.12699,2.10064 2.95222,3.4741l0.49997,0.71343c0,0 0.4301,0.61442 -0.18433,1.04452z" fill="#000000" stroke-width="0.5"/><path d="M332.71392,173.04231c-0.74246,0.10607 -0.84853,-0.6364 -0.84853,-0.6364l-0.08107,-0.62077c0.00404,-1.20366 -0.30412,-2.31897 -0.29412,-3.52941c0.00353,-0.42665 0.53367,-1.46737 0.15512,-1.27054c-1.97193,1.0253 -3.85165,2.26353 -5.83442,3.26489c0,0 -0.67082,0.33541 -1.00623,-0.33541c-0.33541,-0.67082 0.33541,-1.00623 0.33541,-1.00623c1.58402,-0.78296 5.06335,-3.97744 6.9597,-3.35275c1.42871,0.47064 1.18078,4.94892 1.18454,6.22946l0.06599,0.40864c0,0 0.10607,0.74246 -0.6364,0.84853z" fill="#000000" stroke-width="0.5"/><path d="M331.45463,183.6351c0.72357,-0.19734 0.92091,0.52623 0.92091,0.52623l0.16784,0.67075c0.5521,0.68933 0.60493,1.45939 0.87897,2.0744c0.139,0.31195 0.50421,-0.46076 0.75646,-0.69098c0.23974,-0.2188 0.99603,-1.26189 1.18829,-1.53896c0.97064,-1.39876 0.18605,-3.28233 0.13812,-4.89942c-0.02155,-0.72703 0.78961,-1.7025 0.23212,-2.16968c-0.18539,-0.15536 -0.15018,0.50647 -0.35713,0.63169c-0.58617,0.35468 -1.89004,0.59375 -2.61521,0.74994c0,0 -0.73335,0.15715 -0.8905,-0.5762c-0.15715,-0.73335 0.5762,-0.8905 0.5762,-0.8905c0.55392,-0.11804 3.73466,-1.38733 3.93942,-1.26543c0.6503,0.38714 0.59521,2.81709 0.61444,3.47608c0.08869,3.03893 0.7425,5.31203 -1.85002,7.62174c-0.38958,0.34708 -1.88895,1.1108 -2.33178,0.92667c-0.27378,-0.11384 -1.30904,-2.36734 -1.62103,-2.77854l-0.27334,-0.9469c0,0 -0.19734,-0.72357 0.52623,-0.92091z" fill="#000000" stroke-width="0.5"/><path d="M308.8009,184.82363c0.71151,0.23717 0.47434,0.94868 0.47434,0.94868l-0.32133,0.57288c-0.82212,0.64314 -1.95362,2.46354 -3.15738,2.35673c-0.93863,-0.08328 -2.06589,-2.67035 -2.28841,-3.38916c-0.55068,-1.77887 -1.44082,-8.62223 0.9743,-9.62229c0.77157,-0.31949 3.13208,1.88221 3.65576,2.40257c0,0 0.53033,0.53033 0,1.06066c-0.53033,0.53033 -1.06066,0 -1.06066,0c-0.37185,-0.37463 -0.77958,-0.71751 -1.21629,-1.014c-0.3911,-0.26553 -0.75428,-1.39258 -1.01031,-0.9952c-0.97057,1.50646 -0.39307,6.14451 0.09194,7.73065c0.25232,0.82517 0.25777,2.55918 1.09394,2.34614c0.49198,-0.12535 1.43877,-1.61953 1.98968,-2.05503l-0.17427,0.13171c0,0 0.23717,-0.71151 0.94868,-0.47434z" fill="#000000" stroke-width="0.5"/></g></g></svg>