<svg version="1.1" xmlns="http://www.w3.org/2000/svg" xmlns:xlink="http://www.w3.org/1999/xlink" width="128.17791" height="128.17791" viewBox="0,0,128.17791,128.17791"><defs><radialGradient cx="320.00005" cy="180.00004" r="64.08895" gradientUnits="userSpaceOnUse" id="color-1"><stop offset="0" stop-color="#ff0000"/><stop offset="1" stop-color="#ff0000" stop-opacity="0"/></radialGradient><radialGradient cx="285.65755" cy="155.5877" r="50.106" gradientUnits="userSpaceOnUse" id="color-2"><stop offset="0" stop-color="#700000"/><stop offset="1" stop-color="#700000" stop-opacity="0"/></radialGradient><radialGradient cx="312.23435" cy="221.41338" r="50.106" gradientUnits="userSpaceOnUse" id="color-3"><stop offset="0" stop-color="#700000"/><stop offset="1" stop-color="#700000" stop-opacity="0"/></radialGradient><radialGradient cx="362.08169" cy="177.87718" r="50.106" gradientUnits="userSpaceOnUse" id="color-4"><stop offset="0" stop-color="#700000"/><stop offset="1" stop-color="#700000" stop-opacity="0"/></radialGradient></defs><g transform="translate(-255.9111,-115.91109)"><g fill-rule="evenodd" stroke="none" stroke-width="0.07853" stroke-linecap="round" stroke-linejoin="round" stroke-miterlimit="10"><g fill="url(#color-1)"><path d="M384.08901,180.00004c0,35.39538 -28.69367,64.08895 -64.08895,64.08895c-35.39538,0 -64.08895,-28.6936 -64.08895,-64.08895c0,-35.39538 28.6936,-64.08895 64.08895,-64.08895c35.39538,0 64.08895,28.6936 64.08895,64.08895"/></g><g><path d="M370.10606,180.00005c0,27.67281 -22.43328,50.10601 -50.10601,50.10601c-27.67281,0 -50.10601,-22.43322 -50.10601,-50.10601c0,-27.67281 22.43322,-50.10601 50.10601,-50.10601c27.67281,0 50.10601,22.43322 50.10601,50.10601" fill="#ff0000"/><path d="M370.10605,180.00005c0,27.67281 -22.43328,50.106 -50.106,50.106c-27.67281,0 -50.106,-22.43322 -50.106,-50.106c0,-27.67281 22.43322,-50.106 50.106,-50.106c27.67281,0 50.106,22.43322 50.106,50.106" fill="url(#color-2)"/><path d="M298.9937,134.51c25.12349,-11.6015 54.89494,-0.63971 66.4964,24.4837c11.6015,25.12349 0.63976,54.89491 -24.4837,66.4964c-25.12349,11.6015 -54.89491,0.63976 -66.4964,-24.4837c-11.6015,-25.12349 -0.63976,-54.89491 24.4837,-66.4964" fill="url(#color-3)"/><path d="M280.67535,211.05127c-17.14914,-21.71846 -13.44491,-53.22685 8.27349,-70.37593c21.71846,-17.14914 53.22682,-13.44495 70.37593,8.27349c17.14914,21.71846 13.44495,53.22682 -8.27349,70.37593c-21.71846,17.14914 -53.22682,13.44495 -70.37593,-8.27349" fill="url(#color-4)"/></g></g></g></svg>