<svg version="1.1" xmlns="http://www.w3.org/2000/svg" xmlns:xlink="http://www.w3.org/1999/xlink" width="47.04546" height="47.04546" viewBox="0,0,47.04546,47.04546"><defs><radialGradient cx="320.09619" cy="180.00003" r="23.52273" gradientUnits="userSpaceOnUse" id="color-1"><stop offset="0" stop-color="#000000" stop-opacity="0.68235"/><stop offset="1" stop-color="#000000" stop-opacity="0"/></radialGradient><linearGradient x1="320.00005" y1="162.6087" x2="320.00005" y2="197.39135" gradientUnits="userSpaceOnUse" id="color-2"><stop offset="0" stop-color="#dedede" stop-opacity="0.20784"/><stop offset="1" stop-color="#dedede" stop-opacity="0"/></linearGradient><linearGradient x1="320.09619" y1="162.6087" x2="320.09619" y2="197.39135" gradientUnits="userSpaceOnUse" id="color-3"><stop offset="0" stop-color="#292929" stop-opacity="0"/><stop offset="1" stop-color="#292929" stop-opacity="0.25098"/></linearGradient></defs><g transform="translate(-296.57345,-156.47729)"><g stroke="none" stroke-miterlimit="10"><path d="M296.57345,180.00003c0,-12.99124 10.53148,-23.52273 23.52273,-23.52273c12.99124,0 23.52273,10.53148 23.52273,23.52273c0,12.99124 -10.53148,23.52273 -23.52273,23.52273c-12.99124,0 -23.52273,-10.53148 -23.52273,-23.52273z" fill="url(#color-1)" stroke-width="0"/><path d="M302.60873,197.39133v-34.78261h34.78261v34.78261z" fill="#e6d798" stroke-width="0"/><g stroke-width="0"><path d="M302.60875,197.39135v-34.78261h34.78261l-2.48896,2.57975l-29.14148,0.24634l-0.30739,29.42558z" fill="url(#color-2)"/><path d="M337.48751,162.6087v34.78261h-34.78261l2.88669,-2.57975l28.74375,-0.24634l0.59148,-29.36876z" fill="url(#color-3)"/></g><path d="M324.46079,184.4322c0,0.75 -0.75,0.75 -0.75,0.75h-0.44118c-2.4275,0 -4.85423,0.0729 -7.27941,0.07353c0,0 -0.75,0 -0.75,-0.75c0,-0.75 0.75,-0.75 0.75,-0.75c2.42498,0.00066 4.85205,-0.07353 7.27941,-0.07353h0.44118c0,0 0.75,0 0.75,0.75z" fill="#000000" stroke-width="0.5"/><path d="M312.15197,177.96161c0,-0.41421 0.33579,-0.75 0.75,-0.75c0.41421,0 0.75,0.33579 0.75,0.75c0,0.41421 -0.33579,0.75 -0.75,0.75c-0.41421,0 -0.75,-0.33579 -0.75,-0.75z" fill="#000000" stroke-width="0.5"/><path d="M330.08906,174.09117c0.48809,0.56944 -0.08135,1.05754 -0.08135,1.05754l-0.55394,0.47258c-0.85389,0.63781 -1.72299,1.25447 -2.59697,1.86427c0.27639,0.11054 0.47164,0.38079 0.47164,0.69664c0,0.41421 -0.33579,0.75 -0.75,0.75c-0.40843,0 -0.7406,-0.32647 -0.7498,-0.73269c-0.14697,0.10175 -0.29397,0.20347 -0.44094,0.30522c0,0 -0.61664,0.42691 -1.04355,-0.18974c-0.42691,-0.61664 0.18974,-1.04355 0.18974,-1.04355c1.35137,-0.93556 2.70532,-1.86798 4.02216,-2.85185l0.47548,-0.40977c0,0 0.56944,-0.48809 1.05754,0.08135z" fill="#000000" stroke-width="0.5"/><path d="M317.53432,189.6675c-0.75,0 -0.75,-0.75 -0.75,-0.75l0.00191,-0.27402c0.02451,-0.34314 0.04902,-0.68627 0.07353,-1.02941c0,0 0.05344,-0.74809 0.80153,-0.69466c0.74809,0.05344 0.69466,0.80153 0.69466,0.80153c-0.02451,0.34314 -0.04902,0.68627 -0.07353,1.02941l0.00191,0.16715c0,0 0,0.75 -0.75,0.75z" fill="#000000" stroke-width="0.5"/><path d="M319.50837,189.37079c-0.74741,0.06228 -0.80969,-0.68513 -0.80969,-0.68513l-0.07353,-0.88235c0,0 -0.06228,-0.74741 0.68513,-0.80969c0.74741,-0.06228 0.80969,0.68513 0.80969,0.68513l0.07353,0.88235c0,0 0.06228,0.74741 -0.68513,0.80969z" fill="#000000" stroke-width="0.5"/><path d="M321.94609,189.52044c-0.75,0 -0.75,-0.75 -0.75,-0.75c0,-0.31863 0,-0.85784 0,-1.17647c0,0 0,-0.75 0.75,-0.75c0.75,0 0.75,0.75 0.75,0.75c0,0.31863 0,0.63725 0,0.95588v0.22059c0,0 0,0.75 -0.75,0.75z" fill="#000000" stroke-width="0.5"/><path d="M324.15197,189.52044c-0.75,0 -0.75,-0.75 -0.75,-0.75l0.00259,-0.23183c-0.02451,-0.29412 -0.04902,-0.58824 -0.07353,-0.88235c0,0 -0.06228,-0.74741 0.68513,-0.80969c0.74741,-0.06228 0.80969,0.68513 0.80969,0.68513c0.02451,0.29412 0.04902,0.58824 0.07353,0.88235l0.00259,0.3564c0,0 0,0.75 -0.75,0.75z" fill="#000000" stroke-width="0.5"/><path d="M315.06656,189.66185c-0.67082,-0.33541 -0.33541,-1.00623 -0.33541,-1.00623l0.011,0.0312c0.07353,-0.34314 0.14706,-0.68627 0.22059,-1.02941c0,0 0.15715,-0.73335 0.8905,-0.5762c0.73335,0.15715 0.5762,0.8905 0.5762,0.8905c-0.07353,0.34314 -0.14706,0.68627 -0.22059,1.02941l-0.13606,0.32532c0,0 -0.33541,0.67082 -1.00623,0.33541z" fill="#000000" stroke-width="0.5"/><path d="M334.09676,185.75578c0.44113,0.60655 -0.16542,1.04768 -0.16542,1.04768l-0.72824,0.52049c-0.02493,0.03271 -0.04975,0.06551 -0.07446,0.09839c0.56712,-0.13316 1.13299,-0.25833 1.71812,-0.34907l0.2611,-0.00872c0,0 0.75,0 0.75,0.75c0,0.75 -0.75,0.75 -0.75,0.75l-0.03302,-0.00872c-0.36471,0.05562 -0.72152,0.12626 -1.07592,0.20428c0.32633,0.24991 0.6664,0.48107 1.02689,0.67543l0.09862,0.02044c0,0 0.71151,0.23717 0.47434,0.94868c-0.23717,0.71151 -0.94868,0.47434 -0.94868,0.47434l-0.34256,-0.12662c-0.04917,-0.02708 -0.09804,-0.0547 -0.14663,-0.08281c0.01691,0.05774 0.03371,0.11581 0.05044,0.17423l0.1888,0.42531c0,0 0.29544,0.68936 -0.39392,0.9848c-0.68936,0.29544 -0.9848,-0.39392 -0.9848,-0.39392l-0.25237,-0.6041c-0.217,-0.76155 -0.43723,-1.44927 -0.77887,-2.13784c-0.02183,-0.00628 -0.04381,-0.01367 -0.06573,-0.02233c0.06983,0.4274 0.10737,0.86065 0.10986,1.29236v0.07353c0,0 0,0.75 -0.75,0.75c-0.75,0 -0.75,-0.75 -0.75,-0.75v-0.07353c0.00378,-0.53171 -0.06569,-1.06786 -0.1982,-1.5828c0,0 -0.05959,-0.23836 0.02587,-0.47634c-1.67901,-0.73197 -3.34337,-1.44111 -5.00132,-2.27004c0,0 -0.67082,-0.33541 -0.33541,-1.00623c0.33541,-0.67082 1.00623,-0.33541 1.00623,-0.33541c1.80125,0.90068 3.60438,1.65867 5.43225,2.45741c0.22473,-0.31487 0.45637,-0.62481 0.69593,-0.92834l0.88941,-0.65598c0,0 0.60655,-0.44113 1.04768,0.16542z" fill="#000000" stroke-width="0.5"/><path d="M328.03432,170.02044c0,-0.75 0.75,-0.75 0.75,-0.75h0.73529c1.56677,0.0084 7.88146,2.40521 4.23225,4.04955c-1.93927,0.87384 -6.19009,0.02398 -8.3499,0.02398c-5.58395,0 -11.54648,0.50551 -17.08573,-0.22734c-1.01539,-0.13434 -3.95624,-0.50883 -3.63496,-2.2744c0.11053,-0.6074 2.36869,-1.26803 2.89173,-1.40234c0,0 0.72761,-0.1819 0.90951,0.54571c0.1819,0.72761 -0.54571,0.90951 -0.54571,0.90951c-0.13661,0.033 -0.4616,0.19274 -0.80166,0.3233c0.4919,0.16416 1.04191,0.36727 1.38196,0.41173c1.45197,0.18986 2.94243,0.0099 4.39985,0.06736c4.15998,0.16403 8.31888,0.14647 12.48501,0.14647c1.95588,0 3.91176,0 5.86765,0c0.3098,0 0.80168,-0.07245 1.24709,-0.1085c-0.2894,-0.2894 -0.53469,-0.59939 -0.56655,-0.61787c-0.59954,-0.34769 -1.76713,-0.35147 -2.43054,-0.34716h-0.73529c0,0 -0.75,0 -0.75,-0.75z" fill="#000000" stroke-width="0.5"/><path d="M326.31656,170.32361c-0.61767,-0.30883 -0.38225,-0.90203 -0.34106,-0.9941c0,-0.21087 0,-0.42174 0,-0.63261c0.00029,-0.50074 0.43549,-1.00429 0.27162,-1.47746c-0.04251,-0.12274 -0.17693,0.23271 -0.30658,0.24052c-0.21374,0.01287 -1.84934,-0.27385 -2.13585,-0.29436c-2.49272,-0.17841 -5.06654,0.00189 -7.56448,0.00189c-0.42073,0 -4.47291,-0.27298 -4.57167,-0.15942c-0.53402,0.61411 0.64984,1.53683 0.6599,2.35059c0,0 0,0.75 -0.75,0.75c-0.75,0 -0.75,-0.75 -0.75,-0.75c0.01415,-0.83663 -0.89143,-2.51527 -0.36951,-3.23764c0.75163,-1.04031 4.64598,-0.45354 5.78127,-0.45354c2.88253,0 5.89047,-0.24059 8.74965,0.15411c0.23535,0.03249 2.28149,0.29 2.36108,0.38218c0.15397,0.17832 0.12435,2.1469 0.12456,2.49313c0,0.26961 0,0.53922 0,0.80882l-0.15271,0.48247c0,0 -0.33541,0.67082 -1.00623,0.33541z" fill="#000000" stroke-width="0.5"/></g></g></svg>