<svg version="1.1" xmlns="http://www.w3.org/2000/svg" xmlns:xlink="http://www.w3.org/1999/xlink" width="269.48027" height="377.91942" viewBox="0,0,269.48027,377.91942"><defs><radialGradient cx="365.70618" cy="118.6705" r="35.58411" gradientUnits="userSpaceOnUse" id="color-1"><stop offset="0" stop-color="#56a14b"/><stop offset="1" stop-color="#114f33"/></radialGradient><radialGradient cx="260.81631" cy="118.6705" r="35.58411" gradientUnits="userSpaceOnUse" id="color-2"><stop offset="0" stop-color="#56a14b"/><stop offset="1" stop-color="#114f33"/></radialGradient><radialGradient cx="371.86121" cy="36.38705" r="71.77122" gradientUnits="userSpaceOnUse" id="color-3"><stop offset="0" stop-color="#56a14b"/><stop offset="1" stop-color="#114f33"/></radialGradient><radialGradient cx="245.92338" cy="36.38705" r="71.77122" gradientUnits="userSpaceOnUse" id="color-4"><stop offset="0" stop-color="#56a14b"/><stop offset="1" stop-color="#114f33"/></radialGradient><linearGradient x1="296.39779" y1="207.57231" x2="318.98976" y2="207.57231" gradientUnits="userSpaceOnUse" id="color-5"><stop offset="0" stop-color="#814d34" stop-opacity="0"/><stop offset="1" stop-color="#814d34"/></linearGradient><linearGradient x1="340.71108" y1="207.57231" x2="318.11906" y2="207.57231" gradientUnits="userSpaceOnUse" id="color-6"><stop offset="0" stop-color="#814d34" stop-opacity="0"/><stop offset="1" stop-color="#814d34"/></linearGradient><linearGradient x1="280.73823" y1="207.57231" x2="287.30512" y2="207.57231" gradientUnits="userSpaceOnUse" id="color-7"><stop offset="0" stop-color="#362016"/><stop offset="1" stop-color="#362016" stop-opacity="0"/></linearGradient><linearGradient x1="354.99481" y1="207.57231" x2="348.42791" y2="207.57231" gradientUnits="userSpaceOnUse" id="color-8"><stop offset="0" stop-color="#362016"/><stop offset="1" stop-color="#362016" stop-opacity="0"/></linearGradient><radialGradient cx="300.13678" cy="-13.2731" r="101.78194" gradientUnits="userSpaceOnUse" id="color-9"><stop offset="0" stop-color="#56a14b"/><stop offset="1" stop-color="#114f33"/></radialGradient></defs><g transform="translate(-185.47887,68.56517)"><g stroke="none" stroke-miterlimit="10"><g stroke-width="0"><path d="M335.73784,134.92388l3.42606,-15.25389l7.10178,-10.01293l11.80089,-7.76644l13.25538,-2.55085l15.00608,3.30947l10.77675,7.74955l7.5359,12.00399l2.26539,12.5211l-2.23113,12.4296l-6.33464,10.72822l-11.26937,8.76025l-15.74896,3.66604l-14.04608,-2.8796l-10.38675,-6.83421l-9.00568,-13.67259z" fill="url(#color-1)"/><path d="M230.84799,134.92388l3.42606,-15.25389l7.10178,-10.01293l11.80089,-7.76644l13.25537,-2.55085l15.00608,3.30947l10.77675,7.74955l7.5359,12.00399l2.26538,12.5211l-2.23113,12.4296l-6.33464,10.72822l-11.26937,8.76025l-15.74896,3.66604l-14.04608,-2.8796l-10.38675,-6.83421l-9.00568,-13.67259z" fill="url(#color-2)"/></g><path d="M311.4167,69.16925l6.91018,-30.76628l14.32391,-20.19554l23.80175,-15.66448l26.73537,-5.14492l30.26645,6.67502l21.73612,15.63043l15.1995,24.2114l4.56916,25.25438l-4.50007,25.06983l-12.77663,21.63823l-22.72971,17.66896l-31.7648,7.39421l-28.33019,-5.808l-20.94952,-13.78424l-18.16397,-27.57688z" fill="url(#color-3)" stroke-width="0"/><path d="M185.47888,69.16925l6.91017,-30.76628l14.32391,-20.19554l23.80175,-15.66449l26.73538,-5.14492l30.26644,6.67502l21.73612,15.63043l15.1995,24.2114l4.56916,25.25438l-4.50006,25.06982l-12.77664,21.63823l-22.7297,17.66896l-31.7648,7.39421l-28.33018,-5.808l-20.94952,-13.78423l-18.16397,-27.57688z" fill="url(#color-4)" stroke-width="0"/><g stroke-width="0"><path d="M280.73823,309.35425v-203.56389h73.24627v203.56389z" fill="#563322"/><g><path d="M296.39779,309.35425v-203.56389h22.59199v203.56389z" fill="url(#color-5)"/><path d="M318.11906,309.35425v-203.56389h22.59199v203.56389z" fill="url(#color-6)"/></g><path d="M280.73823,309.35425v-203.56389h6.56691v203.56389z" fill="url(#color-7)"/><path d="M348.42791,309.35425v-203.56389h6.56691v203.56389z" fill="url(#color-8)"/></g><path d="M214.41778,33.21678l9.79963,-43.63102l20.31337,-28.6402l33.75431,-22.21449l37.91461,-7.29624l42.92219,9.46614l30.82495,22.1662l21.55508,34.33525l6.47973,35.81435l-6.38174,35.55263l-18.11911,30.68613l-32.234,25.05713l-45.04707,10.48606l-40.17629,-8.23658l-29.70944,-19.54803l-25.75912,-39.10799z" fill="url(#color-9)" stroke-width="0"/><path d="M302.69272,180.00273c0.1819,0.72761 -0.5457,0.9095 -0.5457,0.9095l-0.67395,0.16762c-2.01999,0.40327 -4.00883,0.33414 -6.05912,0.33414c0,0 -0.75,0 -0.75,-0.75c0,-0.75 0.75,-0.75 0.75,-0.75c1.94917,0 3.84608,0.07949 5.76494,-0.30501l0.60433,-0.15195c0,0 0.7276,-0.1819 0.9095,0.5457z" fill="#000000" stroke-width="0.5"/><path d="M326.2813,179.45702l0.60433,0.15195c1.91886,0.3845 3.81577,0.30501 5.76494,0.30501c0,0 0.75,0 0.75,0.75c0,0.75 -0.75,0.75 -0.75,0.75c-2.05029,0 -4.03913,0.06913 -6.05912,-0.33414l-0.67395,-0.16762c0,0 -0.7276,-0.1819 -0.5457,-0.9095c0.1819,-0.72761 0.9095,-0.5457 0.9095,-0.5457z" fill="#000000" stroke-width="0.5"/><path d="M302.08575,192.67717c0.31206,0.41607 0.62387,0.83233 0.93541,1.24879c0.61015,0.66278 1.08616,1.44634 1.73063,2.0758c0.20422,0.19946 3.66963,-0.26911 4.24383,-0.26911c4.45369,0 8.92118,0.12068 13.36809,-0.12946l0.16263,-0.4498c0.90841,-0.90841 1.42617,-1.85115 2.37804,-2.58376c-1.29463,0.49151 -4.04621,0.02926 -5.14124,0.02926c-5.90977,0 -11.81955,0 -17.72932,0zM323.64542,196.27608c0.02029,0.32465 -0.10903,0.5173 -0.26199,0.63138c-0.11658,0.10805 -0.2838,0.19007 -0.51881,0.16885c-4.61268,0.28357 -9.24797,0.15635 -13.869,0.15635c-1.16364,0 -4.10457,0.66592 -5.02367,0.05046c-0.88365,-0.59173 -1.38445,-1.61526 -2.1042,-2.39817c-0.32757,-0.43574 -0.65492,-0.87166 -0.982,-1.30777l-0.34361,-0.51333c0,0 -0.35134,-0.527 0.07603,-0.93528c-0.02664,-0.07915 -0.04221,-0.17163 -0.04221,-0.27967c0,-0.75 0.75,-0.75 0.75,-0.75c5.17505,0 10.35009,0 15.52514,0c3.25975,0 6.72115,-0.37372 9.89745,0.38642c-0.81503,1.94457 -1.65499,3.21328 -3.11553,4.68257c0.00582,0.03408 0.01002,0.0701 0.0124,0.10819z" fill="#000000" stroke-width="0.5"/></g></g></svg>