<svg version="1.1" xmlns="http://www.w3.org/2000/svg" xmlns:xlink="http://www.w3.org/1999/xlink" width="99.6344" height="279.53349" viewBox="0,0,99.6344,279.53349"><defs><linearGradient x1="316.20908" y1="123.28997" x2="316.20908" y2="310.49761" gradientUnits="userSpaceOnUse" id="color-1"><stop offset="0" stop-color="#ffffff" stop-opacity="0"/><stop offset="1" stop-color="#ffffff"/></linearGradient><linearGradient x1="315.36887" y1="123.42373" x2="315.36887" y2="308.63864" gradientUnits="userSpaceOnUse" id="color-2"><stop offset="0" stop-color="#000000" stop-opacity="0"/><stop offset="1" stop-color="#000000" stop-opacity="0.2549"/></linearGradient><linearGradient x1="319.16613" y1="30.96412" x2="319.16613" y2="124.73668" gradientUnits="userSpaceOnUse" id="color-3"><stop offset="0" stop-color="#ececec"/><stop offset="1" stop-color="#ececec" stop-opacity="0"/></linearGradient><linearGradient x1="319.13903" y1="32.82053" x2="319.13903" y2="123.28997" gradientUnits="userSpaceOnUse" id="color-4"><stop offset="0" stop-color="#000000" stop-opacity="0.2549"/><stop offset="1" stop-color="#000000" stop-opacity="0"/></linearGradient></defs><g transform="translate(-269.34893,-30.96412)"><g stroke="none" stroke-width="0.5" stroke-miterlimit="10"><g><path d="M284.05544,297.34233c-0.75,0 -0.75,-1.05953 -0.75,-1.05953l0.03849,-1.07822c0.80827,-3.34591 1.49297,-6.46949 1.58111,-10.15203c0.50251,-4.66221 0.6501,-9.57853 0.54637,-14.53347c-1.98419,9.43409 -4.46953,18.91529 -4.99171,28.74228c-0.15795,2.876 -0.5448,5.60537 -0.64696,8.45976c0.48971,-1.98613 1.72373,-4.89681 1.933,-5.7867c0,0 0.23717,-1.00516 0.94868,-0.67011c0.71151,0.33505 0.47434,1.34021 0.47434,1.34021c-0.44959,1.89946 -0.44357,2.15635 -1.10308,3.88261c-0.27514,0.72017 -1.64116,1.90782 -1.0624,1.94294c6.55751,0.39792 13.28311,-0.16002 19.86609,-0.16002c4.83761,0 9.67314,-0.09017 14.50951,-0.18167c0.05717,-0.93308 0.74624,-0.93308 0.74624,-0.93308c8.91697,0 17.83393,0 26.7509,0c2.20795,0 4.37357,-0.36927 6.57575,-0.37159h1.39333c0,0 0.0146,0 0.03972,0.00288c-0.10195,-1.55989 -0.29699,-3.05479 -0.5427,-4.51868c-0.12659,0.20884 -0.33246,0.37748 -0.66318,0.3056c-0.74128,-0.16111 -0.62724,-1.20832 -0.62724,-1.20832c0.14172,-1.30136 0.2552,-2.60093 0.34384,-3.89901c-0.39936,-1.87532 -0.80498,-3.76195 -1.1226,-5.73538c-1.05409,-6.5493 -1.4231,-13.3733 -2.38409,-19.96736c-1.3844,-9.49935 -1.0685,-19.06748 -2.08646,-28.60789c-0.50338,-4.71776 -1.46886,-9.27172 -1.85995,-14.02655c-0.00043,-0.51608 -0.00085,-1.03214 -0.00128,-1.54822v-0.37159c0,0 0,-1.05953 0.75,-1.05953c0.75,0 0.75,1.05953 0.75,1.05953v0.37159c-0.00043,0.47483 -0.00085,0.94965 -0.00128,1.42446c0.39371,4.68605 1.3493,9.1817 1.84575,13.83443c1.01396,9.50296 0.69386,19.0373 2.0724,28.49643c0.93255,6.39884 1.3058,13.01642 2.29248,19.38583c0.04426,-4.48954 -0.13922,-8.96739 -0.40795,-13.44597c-0.06964,0.0268 -0.14878,0.04203 -0.23868,0.04203c-0.75,0 -0.75,-1.05953 -0.75,-1.05953c0,-4.2955 0.03424,-8.59572 0.04194,-12.89542c-0.20385,-3.50338 -0.25817,-7.25756 -0.81154,-10.64445c-0.41261,-2.52536 -1.58887,-4.92968 -1.8501,-7.49583c-0.42168,-4.14215 0.22813,-8.7083 0.25081,-12.8881l0.00165,-0.303c0,0 0.00576,-1.0595 0.75573,-1.05137c0.04235,0.00045 0.08229,0.00427 0.11995,0.01105c-0.0272,-0.33209 -0.05156,-0.6645 -0.07245,-0.99733c-0.20509,-3.26792 -0.24872,-6.5531 -0.22968,-9.84566c-0.04751,-0.20251 -0.04751,-0.37088 -0.04751,-0.37088c0,-7.84105 -1.03098,-15.38795 -1.95357,-22.96551c-0.12147,5.31011 -0.2331,10.61491 -0.22885,15.9054c0,0 0,1.05953 -0.75,1.05953c-0.75,0 -0.75,-1.05953 -0.75,-1.05953c0.00268,-3.60761 0.05542,-7.22089 0.12657,-10.83752c-0.65263,-0.08749 -0.65263,-1.0532 -0.65263,-1.0532c0.0032,-11.70689 0.52606,-23.44896 0.52606,-35.19018c0,-9.51229 -0.55412,-19.11626 -0.51638,-28.55281l-0.23423,-0.94943c0,0 -0.23717,-1.00516 0.47434,-1.34021c0.13148,-0.06192 0.24677,-0.07807 0.34735,-0.06325c-0.00231,-0.2103 -0.00476,-0.42058 -0.00736,-0.63085c-0.12067,0.27388 -0.3849,0.66019 -0.86605,0.4336c-0.71151,-0.33505 -0.47434,-1.34021 -0.47434,-1.34021c0.67337,-2.80496 0.76914,-5.96357 0.5856,-9.12912c0.66668,0 1.33336,0 2.00004,0c0.00642,0.24001 0.01414,0.47834 0.02346,0.71476c0.44361,11.28037 0.21381,22.65985 0.17328,33.97092c0.25731,0.31149 0.25731,0.83074 0.25731,0.83074v1.11476c0,3.6763 -0.04704,7.36791 -0.05076,11.05757c0.10084,2.12179 0.21953,4.24349 0.31342,6.37388c0.00047,1.95649 -0.0146,3.91367 -0.03992,5.87114c0.35305,6.02592 1.15481,11.92408 1.867,17.84866c-0.03306,-1.23835 -0.0832,-2.47517 -0.15571,-3.7099c-0.02314,-5.04336 -0.5407,-9.99374 -0.5407,-15.14622v-0.74317c0,0 0,-1.05953 0.75,-1.05953c0.75,0 0.75,1.05953 0.75,1.05953v0.74317c0,5.12545 0.51881,10.03218 0.53921,15.05168c0.62498,10.54677 -0.40193,21.24656 0.25819,31.76468c0.21969,3.50044 0.82547,6.95871 1.05436,10.47793c0.49691,7.63985 0.56922,15.31009 0.55669,22.98224c0.01405,0.2357 0.02876,0.47031 0.04432,0.70367c0.74177,11.12355 1.79145,22.16822 1.0737,33.31859c0.62615,2.96453 1.22813,5.90794 1.4532,9.12268c0.33229,-1.90857 0.09608,-4.0759 0.09608,-6.04071c0,-5.92672 0.41024,-12.22252 -0.22161,-18.08474l-0.04092,-1.53023c0,0 -0.02747,-1.05883 0.72203,-1.09763c0.7495,-0.03881 0.77697,1.02002 0.77697,1.02002l0.03536,1.40987c0.63404,5.9307 0.22817,12.28773 0.22817,18.28273c0,2.88716 0.29262,5.68331 -0.60524,8.31737c0,0 -0.33541,0.94767 -1.00623,0.47384c-0.67082,-0.47384 -0.33541,-1.42151 -0.33541,-1.42151c0.0136,-0.03658 0.02687,-0.07332 0.03981,-0.11021c-0.09063,0.07791 -0.20612,0.134 -0.35321,0.15288c-0.03757,0.00483 -0.07343,0.00674 -0.10765,0.00602c0.00043,0.01755 0.00065,0.03539 0.00065,0.05356c0,1.05953 -0.75,1.05953 -0.75,1.05953h-1.39333c-2.20074,-0.00244 -4.36818,0.37159 -6.57575,0.37159c-3.7657,0 -7.5314,0 -11.2971,0c-0.13203,0.74317 -0.72411,0.74317 -0.72411,0.74317h-0.52606c-9.82753,0 -19.63913,0.37159 -29.45938,0.37159c-5.46202,0 -10.92403,0 -16.38605,0c-1.08162,0 -3.84694,0.5433 -4.72031,-0.80177c-0.05253,0.31362 -0.21606,0.80177 -0.72514,0.80177c-0.75,0 -0.75,-1.05953 -0.75,-1.05953l0.00001,-0.3765c0.01106,-3.36711 0.49607,-6.51494 0.67625,-9.85426c0.21462,-3.85606 0.71933,-7.65686 1.37317,-11.42185c-0.07172,0.0289 -0.15367,0.04542 -0.2473,0.04542c-0.75,0 -0.75,-1.05953 -0.75,-1.05953v-0.74317c0,-9.27279 1.22892,-17.10768 2.81495,-26.07009c0.55654,-3.14476 1.14049,-6.28598 1.71197,-9.4314c-0.18339,-1.42456 -0.37699,-2.82497 -0.57782,-4.19504c-0.00938,-4.08655 -1.11839,-7.84107 -0.78909,-12.09954c0.67866,-8.77638 1.82635,-16.95514 1.84121,-26.01098c0.35651,-2.51821 0.519,-4.2706 1.08696,-6.5476c0.41015,-1.6443 -0.45329,-3.95771 0.01809,-5.64245c0.33502,-1.19736 1.52285,-1.61962 1.88049,-2.80385c0.4924,-1.63048 0.39427,-4.31935 0.75052,-6.10278c0.3627,-1.81574 1.04631,-3.47385 1.26878,-5.36167c0.44838,-3.80481 0.16189,-7.42533 1.05088,-11.13709c-0.03617,-4.91677 1.2251,-9.63661 1.57339,-14.55342c0.33019,-4.66129 -0.07735,-9.96858 0.80426,-14.50396c0.473,-2.43334 1.30996,-3.8125 1.29602,-6.49789c0.28044,-3.99356 0.5115,-7.87193 0.83661,-11.67197c0.4957,0.04844 0.99187,0.09361 1.48847,0.13568c-0.31983,3.79142 -0.54274,7.66085 -0.82694,11.64186c-0.01281,2.78979 -0.80134,4.37846 -1.33428,6.87919c-0.92969,4.36242 -0.45375,9.73271 -0.77392,14.25881c-0.35197,4.97562 -1.55388,9.67719 -1.58297,14.65113c-0.86769,3.72968 -0.59531,7.33899 -1.05336,11.15804c-0.00448,0.03738 -0.00913,0.07468 -0.01394,0.11189c0.05411,0.06055 0.09811,0.13036 0.13384,0.20261c0.05811,-0.01714 0.12228,-0.02659 0.19315,-0.02659c0.75,0 0.75,1.05953 0.75,1.05953c0,2.14243 -0.155,4.19572 -0.39083,6.20912c0.38296,8.38589 0.24557,17.79988 -2.20038,24.77216l-0.11827,0.33416c0,0 -0.16335,0.46153 -0.49005,0.57938c-0.08597,0.7928 -0.19032,1.58221 -0.32033,2.36695c-0.294,1.76517 -0.58384,3.7926 -0.82804,5.88668c0.07308,-0.3064 0.26635,-0.76042 0.76685,-0.7015c0.74741,0.08798 0.68513,1.14386 0.68513,1.14386c-0.53331,9.04102 -2.02252,17.87953 -3.6176,26.68435c1.34611,11.13197 2.21891,23.44322 1.02475,34.61325c-0.10706,3.84814 -0.84551,7.10209 -1.65153,10.62416l0.03849,0.40812c0,0 0,1.05953 -0.75,1.05953zM289.54103,187.59083c-0.36948,1.85437 -0.28472,4.68751 -0.82061,6.37914c-0.368,1.16163 -1.53872,1.5751 -1.86731,2.76008c-0.41763,1.50605 0.37936,3.89895 0.01809,5.50511c-0.47818,2.12596 -0.67718,3.68394 -1.01728,6.08631c0.01636,9.02925 -1.1409,17.2636 -1.84121,26.01098c-0.31138,3.88935 0.67476,7.29113 0.78013,11.00096c0.55568,-3.20502 1.07629,-6.41869 1.51996,-9.64919c-0.0472,0.01055 -0.09814,0.01623 -0.1531,0.01623c-0.75,0 -0.75,-1.05953 -0.75,-1.05953v-1.11476c0.04009,-4.99697 0.69925,-11.47429 1.51759,-16.38762c0.78192,-4.66792 0.61635,-9.52863 1.12325,-14.25936c0.49667,-4.63522 1.43548,-8.91538 1.966,-13.39036c-0.05246,-1.07979 -0.11317,-2.13948 -0.17774,-3.17022c-0.10952,0.41856 -0.21182,0.84099 -0.29775,1.27224zM283.63016,260.36356c-1.50057,8.4795 -2.67905,15.87454 -2.76512,24.5399c1.34148,-6.99672 3.08167,-13.88542 4.30402,-20.79268c0,0 0.00852,-0.04813 0.02924,-0.12096c-0.1744,-2.83432 -0.41637,-5.65026 -0.70643,-8.40731c-0.29067,1.59341 -0.57958,3.18676 -0.8617,4.78105zM347.76468,240.47871c-0.10494,-1.6134 -0.28893,-3.21345 -0.47867,-4.81069c-0.17249,3.08167 -0.44064,6.25785 -0.15301,9.19981c0.14086,1.44074 0.59359,2.84879 1.02931,4.25571c-0.08407,-2.88499 -0.21047,-5.76714 -0.39764,-8.64481zM289.52945,203.23312c-0.20865,1.97075 -0.30645,3.95995 -0.40412,5.9482c0.67806,-3.33014 0.97497,-7.02552 1.05142,-10.76087c-0.2458,1.57577 -0.4736,3.172 -0.6473,4.81267zM286.98564,230.17096c0.21585,-2.04713 0.3918,-4.10277 0.51739,-6.16892c-0.23292,2.06866 -0.41854,4.18702 -0.51739,6.16892z" fill="url(#color-1)"/><path d="M284.7851,296.34733l-0.03858,-0.40817c0.80601,-3.52207 1.54341,-6.77672 1.65047,-10.62485c1.19416,-11.17003 0.31102,-23.49059 -1.03508,-34.62256c1.59508,-8.80482 3.07441,-17.65885 3.60772,-26.69986c0,0 0.06139,-1.05785 -0.68602,-1.14584c-0.5005,-0.05892 -0.69375,0.39514 -0.76683,0.70154c0.24419,-2.09407 0.53154,-4.12797 0.82554,-5.89314c0.13001,-0.78475 0.23339,-1.57721 0.31935,-2.37001c0.3267,-0.11785 0.48992,-0.5798 0.48992,-0.5798l0.11815,-0.33456c2.44595,-6.97228 2.58162,-16.43259 2.19866,-24.81848c0.23583,-2.01339 0.39381,-4.07769 0.39381,-6.22012c0,0 0.00028,-1.06035 -0.74972,-1.06035c-0.07087,0 -0.04543,0.07218 -0.10354,0.08931c-0.03573,-0.07226 -0.16936,-0.20472 -0.22347,-0.26526c0.00481,-0.03721 0.00952,-0.07468 0.014,-0.11206c0.45805,-3.81905 0.19246,-7.44279 1.06015,-11.17248c0.02909,-4.97394 1.23979,-9.6869 1.59177,-14.66252c0.32018,-4.5261 -0.1497,-9.90166 0.78,-14.26408c0.53294,-2.50074 1.3246,-4.09151 1.33741,-6.8813c0.2826,-3.9586 0.50573,-7.80739 0.82413,-11.57901c12.71356,1.07948 25.71156,0.13436 38.40967,0.64024c2.42742,0.00017 4.85485,0.00024 7.28227,0.00025c0.17976,3.14515 0.08195,6.28115 -0.58693,9.06743c0,0 -0.23645,1.00574 0.47506,1.34079c0.48115,0.22657 0.74586,-0.15933 0.86653,-0.43321c0.0026,0.21027 -0.04623,0.54182 -0.04392,0.75213c-0.10058,-0.01482 -0.21565,0.00153 -0.34713,0.06343c-0.71151,0.33505 -0.42325,1.21877 -0.42325,1.21877l0.23468,0.94981c-0.03774,9.43655 0.52805,19.05444 0.52805,28.56673c0,11.74122 -0.51061,23.53246 -0.5138,35.23935c0,0 -0.00007,0.96755 0.65256,1.05505c-0.07115,3.61665 -0.12653,7.24839 -0.12921,10.856c0,0 -0.09424,1.01231 0.65576,1.01231c0.75,0 0.74948,-1.05743 0.74948,-1.05743c-0.00425,-5.29049 0.2048,-10.57758 0.32626,-15.88769c0.92259,7.57758 1.94899,15.15862 1.94899,22.99967c0,0 -0.00013,0.16878 0.04738,0.37129c-0.01903,3.29256 0.02051,6.58771 0.2256,9.85565c0.02089,0.33282 0.04485,0.66605 0.07205,0.99814c-0.03767,-0.00678 -0.07765,-0.0105 -0.12,-0.01096c-0.74998,-0.00814 -0.75654,1.05292 -0.75654,1.05292l-0.00178,0.30325c-0.02268,4.17979 -0.6781,8.75469 -0.25643,12.89684c0.26124,2.56615 1.43579,4.97261 1.8484,7.49797c0.55338,3.3869 0.6047,7.1444 0.80855,10.64778c-0.0077,4.2997 -0.04548,8.60324 -0.04548,12.89874c0,0 -0.05189,0.93876 0.69811,0.93876c0.08991,0 0.22124,0.10528 0.29088,0.07848c0.26872,4.47857 0.40261,8.83383 0.35835,13.32337c-0.98668,-6.36942 -1.36311,-12.98439 -2.29565,-19.38325c-1.37854,-9.45913 -1.0667,-18.9843 -2.08066,-28.48726c-0.49645,-4.65275 -1.45724,-9.14004 -1.85094,-13.82608c0.00043,-0.47483 0.00016,-0.94831 0.00059,-1.42314l-0.00018,-0.37123c0,0 0.08199,-0.97864 -0.66801,-0.97864c-0.75,0 -0.75092,1.06134 -0.75092,1.06134l-0.00019,0.37194c0.00043,0.51608 0.00007,1.03358 0.00049,1.54966c0.39108,4.75483 1.35119,9.31695 1.85457,14.03471c1.01796,9.54041 0.69385,19.11718 2.07825,28.61653c0.961,6.59407 1.32689,13.42047 2.38099,19.96976c0.31762,1.97344 0.72276,3.8604 1.12213,5.73572c-0.08865,1.29808 -0.20299,2.59824 -0.34471,3.89959c0,0 -0.15644,0.91926 0.58483,1.08038c0.33072,0.07188 0.57949,0.03085 0.70608,-0.17799c0.24572,1.46389 0.44027,2.95912 0.54222,4.51901c-0.02512,-0.00288 -0.03974,-0.00287 -0.03974,-0.00287l-1.39402,0.00045c-2.20219,0.00232 -4.37129,0.37358 -6.57925,0.37358c-8.91697,0 -17.85039,0.00418 -26.76735,0.00418c0,0 -0.68956,0 -0.74672,0.93308c-4.83637,0.0915 -9.68115,0.18046 -14.51876,0.18046c-6.58298,0 -13.31967,0.55305 -19.87718,0.15514c-0.57876,-0.03512 0.82767,-1.35199 1.10281,-2.07216c0.65952,-1.72628 0.61326,-1.85382 1.06285,-3.75327c0,0 0.2367,-1.00545 -0.47481,-1.34051c-0.71151,-0.33505 -0.94906,0.66986 -0.94906,0.66986c-0.20927,0.88989 -1.44331,3.80056 -1.93302,5.78669c0.10215,-2.8544 0.48791,-5.58451 0.64585,-8.46051c0.52218,-9.827 3.00412,-19.31079 4.98831,-28.74488c0.10373,4.95494 0.00407,9.74739 -0.49844,14.40959c-0.08814,3.68255 -0.77392,6.80539 -1.5822,10.1513l-0.03866,1.07811c0,0 -0.0006,1.05915 0.7494,1.05915c0.75,0 0.70909,-0.93062 0.70909,-0.93062z" fill="url(#color-2)"/></g><path d="M287.03828,112.95806c0.21078,-0.31617 0.47495,-0.36536 0.68431,-0.33695c-1.95191,-1.21377 -3.89308,-2.43806 -5.63807,-3.96266l-0.8545,-0.8156c0,0 -0.54246,-0.51793 -0.02454,-1.06038c0.51792,-0.54245 1.06038,-0.02453 1.06038,-0.02453l0.83069,0.79336c0.57198,0.50128 1.16659,0.96906 1.77663,1.41415c-1.72587,-2.10021 -3.35789,-4.25953 -4.5138,-6.70805c-0.51905,-1.09948 -0.87673,-2.20929 -1.16278,-3.33252c-1.01376,-1.34725 -2.00187,-2.70283 -2.89702,-4.10065c-0.08839,0.06322 -0.20394,0.11192 -0.35476,0.13454c-0.7417,0.11125 -0.85296,-0.63045 -0.85296,-0.63045c-0.11702,-0.78014 -0.26116,-1.55882 -0.42367,-2.33648c-1.27965,-2.52858 -2.15187,-5.24888 -2.27284,-8.33421c-0.00004,-0.32826 -0.00006,-0.65654 -0.00009,-0.9848c-0.31366,-1.43948 -0.56988,-2.88133 -0.71285,-4.32826c-0.02339,-0.2368 -0.04289,-0.47364 -0.05874,-0.71052c-0.26076,0.88902 -0.5298,1.76481 -0.81377,2.62169c0,0 -0.23717,0.71151 -0.94868,0.47434c-0.71151,-0.23717 -0.47434,-0.94868 -0.47434,-0.94868c0.92834,-2.77034 1.69871,-5.71972 2.52877,-8.67474c0.14254,-1.12373 0.31513,-2.24284 0.49017,-3.35453c0.39252,-1.45028 0.61089,-2.9047 0.99363,-4.3573l0.07459,-0.79355c0,0 0.07243,-0.74649 0.81893,-0.67406c0.3072,0.02981 0.47571,0.17377 0.56766,0.33288c0.15181,-0.35971 0.30831,-0.71658 0.46996,-1.07023c-0.13178,-0.27803 -0.02933,-0.58539 -0.02933,-0.58539c2.09469,-6.27636 7.03157,-11.96376 11.62701,-16.67351c1.3585,-1.39229 2.90701,-2.33151 4.06308,-3.91938c1.47062,-1.98727 3.48379,-3.0558 5.32063,-4.6492l0.84918,-0.18283c0,0 0.19305,0 0.38326,0.09794c2.61423,-1.60488 5.84529,-1.91521 9.05499,-2.23132c0.66654,-0.06565 1.3336,-0.12915 2.00101,-0.19136c1.29627,-0.30461 2.60019,-0.55848 3.90429,-0.76129c1.18257,-0.18221 2.36903,-0.33373 3.55503,-0.49187l0.27835,-0.00658c0,0 0.5553,0 0.71027,0.47781c0.89081,-0.08872 1.7807,-0.18152 2.66919,-0.28042c0.3619,-0.03975 0.71916,-0.07807 1.07237,-0.11432c0.06622,-0.55654 0.67103,-0.61702 0.67103,-0.61702c5.60293,-0.55785 11.93608,1.40727 17.31637,2.90472c2.82537,0.78636 5.834,1.55667 8.072,3.49353c0.65589,0.7318 1.30478,1.41072 1.92924,2.09191c4.82287,3.58271 8.1984,8.40646 12.11244,13.44719c2.11521,3.50543 4.47013,7.7851 4.58746,11.78607l0.15683,0.53499c0,0 0.07739,0.30958 -0.07072,0.57536c0.11725,0.45215 0.25271,0.91065 0.41851,1.37771c0.82722,2.33031 1.41017,4.349 1.76446,6.4577c0.63227,-0.04936 0.76316,0.60514 0.76316,0.60514c1.54676,7.88518 -0.95383,16.96669 -3.87062,24.25509c-0.35059,0.87169 -0.75613,1.63719 -1.23996,2.44451l-0.37753,0.56782c0,0 -0.35141,0.52711 -0.89274,0.28947c-1.27056,3.10815 -3.00124,5.88369 -5.84794,7.31349l-1.13477,-0.35672c-1.96411,2.22563 -4.26286,4.1793 -6.57454,5.74289c0.2154,-0.01877 0.48901,0.04304 0.68136,0.38927c0.36423,0.65562 -0.29138,1.01985 -0.29138,1.01985c-4.78159,2.65302 -8.85033,5.20982 -14.11822,6.87019l-0.52595,0.17543c0,0 -0.71152,0.23717 -0.94869,-0.47434c-0.02279,-0.06837 -0.03682,-0.13236 -0.04357,-0.19218c-4.06399,1.22984 -8.18088,1.92529 -12.3646,1.80906c-7.82385,1.45716 -15.78191,-0.18439 -23.30989,-2.69223c-0.43156,-0.14408 -0.86312,-0.28816 -1.29469,-0.43224l-1.28347,-0.54935c0,0 -0.68936,-0.29544 -0.39392,-0.9848c0.29544,-0.68936 0.9848,-0.39391 0.9848,-0.39391l0.02027,0.00869c-1.62331,-0.99483 -3.21308,-2.05307 -4.77246,-3.01388c-0.40004,0.02165 -0.64787,-0.35011 -0.64787,-0.35011c-0.01634,-0.02453 -0.0327,-0.04903 -0.04911,-0.07351c-0.79141,-0.47376 -1.57502,-0.91587 -2.35127,-1.30495l-0.61763,-0.4049c0,0 -0.62403,-0.41602 -0.20801,-1.04006zM306.48079,121.58526c0,0 0.75,0 0.75,0.75c0,0.05735 -0.00439,0.11032 -0.01249,0.15923c2.67888,0.49774 5.38275,0.77875 8.08605,0.7426c-0.06966,-0.1262 -0.10385,-0.29277 -0.06016,-0.51125c0.14709,-0.73543 0.88253,-0.58835 0.88253,-0.58835l0.88306,0.17673c1.27986,0.20946 2.55283,0.33114 3.81932,0.37399c0.76765,-0.14713 1.53383,-0.32566 2.29796,-0.53792c0,0 0.69582,-0.19329 0.91155,0.48226c3.13035,-0.21048 6.22265,-0.86351 9.28329,-1.82031c2.05492,-0.6424 4.5333,-0.93922 5.90881,-2.7092c0,0 0.46852,-0.58565 1.05417,-0.11713c0.45576,0.36461 0.27311,0.80015 0.16966,0.97541c0.58531,-0.29051 1.16407,-0.59034 1.74051,-0.89777c-0.19088,0.00849 -0.68936,-0.02791 -0.78858,-0.62326c-0.1233,-0.73979 0.6165,-0.86309 0.6165,-0.86309l1.02122,-0.16814c1.48317,-0.45066 2.93293,-1.90866 4.25229,-2.76964c4.35507,-2.84202 8.84772,-7.22152 10.82123,-12.19342c0,0 0.27854,-0.69636 0.9749,-0.41781c0.69636,0.27855 0.41781,0.97491 0.41781,0.97491c-0.77781,1.93142 -1.89792,3.77565 -3.23298,5.48592c4.03535,-2.54962 5.42961,-8.7154 6.8776,-13.43981c-0.44849,-0.35292 -0.17277,-0.90436 -0.17277,-0.90436l0.47857,-0.91231c-0.14586,-7.34706 1.41372,-14.51537 1.41372,-21.87212c0,0 0,-0.43891 0.33575,-0.6452c-0.19984,-0.6437 -0.42022,-1.30693 -0.66114,-2.00217c-0.99637,-2.87528 -0.80026,-5.35354 -2.43531,-8.07862c0,0 -0.36723,-0.61205 0.21189,-1.00023c-0.82973,-1.72852 -1.83302,-3.39173 -2.67145,-4.7868c-2.47866,-3.18131 -4.71159,-6.27837 -7.25574,-9.01127c-0.44678,0.55003 -1.02422,0.11696 -1.02422,0.11696l-0.82385,-0.63536c-0.8695,-1.41358 -1.83928,-2.56953 -2.88067,-3.72763c-1.52418,-1.10499 -3.2023,-2.08161 -5.1021,-2.89581c0,0 -0.68936,-0.29544 -0.39392,-0.9848c0.02406,-0.05613 0.05072,-0.10574 0.07943,-0.14951c-1.28161,-0.46487 -2.62824,-0.80139 -3.878,-1.14899c-0.82599,-0.22974 -1.67663,-0.47245 -2.54495,-0.71601c-0.14045,0.02115 -0.2491,0.00458 -0.2491,0.00458l-1.52486,-0.23761c-4.99577,-2.01054 -9.02947,-1.75622 -14.17314,-1.17863c-3.70272,0.4107 -7.42635,0.73206 -11.14429,1.07335c-4.8763,1.16379 -9.64388,3.0849 -13.85116,5.71528c-1.9213,1.20119 -4.3278,2.29848 -5.75315,4.04439c0,0 -0.21931,0.26317 -0.53936,0.28557c-0.19995,0.18539 -0.39819,0.37661 -0.59335,0.57663c-2.20513,2.25999 -4.51125,4.76095 -6.51974,7.45005c0.05761,0.02578 0.11708,0.06069 0.17811,0.10646c0.6,0.45 0.15,1.05 0.15,1.05l-0.51529,0.68538c-0.60227,1.00471 -1.27376,1.93011 -1.95404,2.88527c-2.90274,4.07228 -4.52394,9.06413 -5.92868,14.06132c-0.29681,2.31154 -0.46627,4.64334 -0.23806,6.97075c0.04917,0.50144 0.11216,1.00239 0.1866,1.50294c0.53441,0.12783 0.53441,0.72616 0.53441,0.72616v0.53767c0,0.53209 -0.00002,1.06419 -0.00005,1.59629c0.66118,3.01585 1.57493,6.02371 2.21871,9.04402c0.67841,1.31838 1.47353,2.58441 2.33062,3.82236c-0.08312,-0.41066 -0.16884,-0.82342 -0.26121,-1.23842c-0.11937,-0.48247 -0.23876,-0.96494 -0.35813,-1.44741l-0.04933,-0.4094c0,0 -0.07635,-0.7461 0.66976,-0.82245c0.74611,-0.07635 0.82245,0.66976 0.82245,0.66976l0.01322,0.20187c0.12077,0.48827 0.24155,0.97653 0.36232,1.4648c0.33916,1.52856 0.57732,3.02735 0.94187,4.50165c1.52411,1.99979 3.09839,3.97569 4.4749,6.03765c0,0 0.41602,0.62404 -0.20801,1.04006c-0.405,0.27 -0.72238,0.10192 -0.89529,-0.04933c1.56887,2.20063 3.41201,4.23974 5.12856,6.34706c1.1181,0.6916 2.2344,1.38723 3.31095,2.14382c2.36163,1.65973 4.31486,4.04521 6.89227,5.31837c0,0 0.38489,0.19245 0.42582,0.57733c2.21199,1.08981 4.47514,1.83972 6.76617,1.8327zM367.47153,80.96634c-0.01779,0.00091 -0.03602,0.00137 -0.05472,0.00137c-0.75,0 -0.75,-0.75 -0.75,-0.75v-1.07534c0,-1.88452 -0.13059,-3.50852 -0.39162,-5.07126c-0.29595,5.85544 -1.16149,11.63584 -1.33243,17.51152c0.371,0.20397 0.3764,0.55961 0.34501,0.75804c1.14063,-3.66241 2.00314,-7.57217 2.18376,-11.37434zM299.66143,35.85003c-0.21081,0.08706 -0.41818,0.18081 -0.62167,0.28193c0.20646,-0.09543 0.4137,-0.18941 0.62167,-0.28193zM365.17514,92.6987c-0.21715,0.60295 -0.42552,1.23726 -0.6318,1.89261c0.2173,-0.62162 0.42862,-1.25313 0.6318,-1.89261z" fill="url(#color-3)"/><path d="M299.69351,119.79787c-0.04093,-0.38488 -0.42644,-0.57763 -0.42644,-0.57763c-2.57741,-1.27316 -4.53883,-3.66361 -6.90046,-5.32334c-1.07655,-0.75659 -2.19623,-1.45499 -3.31433,-2.14658c-1.71655,-2.10732 -3.56589,-4.15307 -5.13476,-6.3537c0.17291,0.15125 0.4907,0.31986 0.8957,0.04986c0.62404,-0.41602 0.20753,-1.04069 0.20753,-1.04069c-1.37651,-2.06196 -2.95547,-4.04515 -4.47958,-6.04493c-0.36455,-1.4743 -0.60489,-2.97782 -0.94405,-4.50638c-0.12077,-0.48827 -0.24217,-0.97819 -0.36295,-1.46645l-0.0133,-0.20209c0,0 -0.07668,-0.7471 -0.82279,-0.67076c-0.7461,0.07635 -0.57502,0.79046 -0.57502,0.79046l0.04917,0.40897c0.11937,0.48247 0.23816,0.96336 0.35754,1.44583c0.09237,0.415 0.08558,0.8657 0.1687,1.27636c-0.85708,-1.23795 -1.65391,-2.50859 -2.33232,-3.82697c-0.64378,-3.02032 -1.5596,-6.03823 -2.22078,-9.05409c0.00004,-0.53209 -0.00009,-1.06594 -0.00009,-1.59803l-0.00003,-0.53826c0,0 -0.00004,-0.59915 -0.53445,-0.72698c-0.07444,-0.50055 -0.13746,-1.00315 -0.18663,-1.50459c-0.22821,-2.3274 -0.0582,-4.66675 0.23861,-6.97828c1.40474,-4.99719 3.03113,-10.00489 5.93387,-14.07717c0.68027,-0.95516 1.3537,-1.88392 1.95597,-2.88863l0.5158,-0.68619c0,0 0.45049,-0.60073 -0.14951,-1.05073c-0.06103,-0.04577 -0.12051,-0.08067 -0.17812,-0.10645c2.00849,-2.6891 4.32166,-5.19835 6.5268,-7.45833c0.19516,-0.20001 0.39406,-0.39185 0.59402,-0.57724c0.32004,-0.0224 0.53985,-0.28601 0.53985,-0.28601c1.42534,-1.74591 3.83806,-2.84788 5.75936,-4.04907c4.20727,-2.63038 8.99019,-4.55799 13.86649,-5.72178c3.71794,-0.3413 7.45398,-0.66401 11.1567,-1.0747c5.14366,-0.57759 9.19273,-0.82923 14.18849,1.18132l1.52641,0.23816c0,0 0.10888,0.01665 0.24934,-0.00449c0.86831,0.24356 1.72155,0.48735 2.54754,0.71709c1.24976,0.34761 2.60016,0.68602 3.88177,1.15089c-0.0287,0.04376 -0.05536,0.09338 -0.07942,0.14951c-0.29544,0.68936 0.39469,0.98523 0.39469,0.98523c1.89981,0.81421 3.58311,1.79429 5.1073,2.89928c1.04138,1.1581 2.01495,2.31723 2.88445,3.73081l0.82466,0.63614c0,0 0.57793,0.43356 1.02471,-0.11647c2.54415,2.7329 4.78462,5.83964 7.26329,9.02095c0.83843,1.39507 1.8444,3.06342 2.67413,4.79194c-0.57912,0.38818 -0.21154,1.00104 -0.21154,1.00104c1.63505,2.72508 1.44174,5.21194 2.43811,8.08722c0.24092,0.69524 0.46175,1.36067 0.66159,2.00437c-0.33576,0.20629 -0.33564,0.64581 -0.33564,0.64581c0,7.35675 -1.56126,14.54859 -1.4154,21.89565l-0.47891,0.91334c0,0 -0.276,0.55223 0.17248,0.90516c-1.44799,4.72441 -2.85006,10.90417 -6.88541,13.45379c1.33505,-1.71027 2.37298,-3.61107 3.15079,-5.54249c0,0 0.36489,-0.64593 -0.33147,-0.92447c-0.69636,-0.27855 -0.97537,0.41862 -0.97537,0.41862c-1.9735,4.97189 -6.47801,9.36488 -10.83308,12.2069c-1.31935,0.86098 -2.77369,2.32221 -4.25686,2.77287l-1.02213,0.16869c0,0 -0.74072,0.12384 -0.61742,0.86363c0.09922,0.59535 0.59806,0.63154 0.78894,0.62305c-0.57644,0.30743 -1.15705,0.60828 -1.74237,0.89879c0.10345,-0.17526 0.28639,-0.61096 -0.16937,-0.97556c-0.58565,-0.46852 -1.05515,0.11763 -1.05515,0.11763c-1.37551,1.76998 -3.86057,2.06957 -5.91549,2.71197c-3.06065,0.95681 -6.16322,1.61207 -9.29357,1.82255c-0.21573,-0.67555 -0.91251,-0.48217 -0.91251,-0.48217c-0.76412,0.21225 -1.53292,0.39095 -2.30057,0.53809c-1.2665,-0.04285 -2.54376,-0.16455 -3.82362,-0.37401l-0.88407,-0.17679c0,0 -0.73637,-0.14716 -0.88346,0.58828c-0.0437,0.21848 -0.00939,0.38506 0.06027,0.51126c-2.7033,0.03615 -5.41591,-0.24639 -8.09478,-0.74413c0.0081,-0.04891 0.01245,-0.10189 0.01245,-0.15924c0,-0.75 -0.75098,-0.75027 -0.75098,-0.75027c-2.29102,0.00702 -4.56133,-0.74558 -6.77332,-1.83539z" fill="url(#color-4)"/><path d="M342.3899,100.36311c-0.17296,0.72978 -0.90275,0.55682 -0.90275,0.55682l-1.47335,-0.34949c-4.82529,-1.4299 -9.61251,-2.88421 -14.37192,-4.42753c0.00252,0.02502 0.00381,0.0504 0.00381,0.07609c0,0.41422 -0.33578,0.75 -0.75,0.75c-0.07912,0 -0.15538,-0.01226 -0.22699,-0.03496l-1.42314,-0.41574l0.00349,-0.01196l-0.04427,-0.00124c-3.79395,-1.59391 -7.45818,-3.25497 -11.09275,-5.0678c-0.01632,-0.00607 -0.03266,-0.01213 -0.04899,-0.01819c0.49223,0.41496 0.99033,0.8137 1.49429,1.19425c3.12215,2.36853 6.30901,4.52821 9.82016,6.29315l0.74069,0.20267c0,0 0.72251,0.2012 0.52131,0.92371c-0.16053,0.57648 -0.65294,0.56491 -0.84544,0.53668c0.76245,0.2731 1.54037,0.5007 2.35947,0.6364l0.34188,0.02961c0,0 0.7468,0.0693 0.6775,0.81609c-0.0693,0.74679 -0.81608,0.6775 -0.81608,0.6775l-0.45319,-0.04416c-2.08301,-0.35809 -3.91443,-1.2232 -5.86415,-2.02319c-3.66799,-2.31343 -6.90228,-4.92158 -10.02855,-7.75023c-1.10798,-0.41679 -2.224,-0.82388 -3.27785,-1.371c-1.09659,-0.5693 -2.18307,-1.1655 -3.2596,-1.78378c-1.87851,1.91058 -3.68997,3.9012 -5.40938,6.01306c-0.1562,0.19186 -0.31241,0.38372 -0.46862,0.57558c-0.02983,0.20338 -0.16134,0.65177 -0.74125,0.65177c-0.75,0 -0.75,-0.75 -0.75,-0.75l0.16839,-0.65275c0.20942,-0.25722 0.41884,-0.51444 0.62826,-0.77166c1.66841,-2.04922 3.42221,-3.9855 5.23917,-5.8458c-0.10773,-0.06411 -0.21534,-0.12842 -0.32287,-0.19294c-0.44335,0.26083 -0.88283,0.51797 -1.31655,0.77177c-1.91381,2.0809 -3.83469,4.1551 -5.73377,6.24586l-0.68739,1.03109c-0.13354,0.20677 -0.36603,0.34365 -0.63049,0.34365c-0.41422,0 -0.75,-0.33578 -0.75,-0.75v-0.96866c-0.29478,0.26534 -0.5896,0.53062 -0.88448,0.79585l-0.52355,0.52392c0,0 -0.53033,0.53033 -1.06066,0c-0.53033,-0.53033 0,-1.06066 0,-1.06066l0.55179,-0.55143c1.69636,-1.52758 3.39073,-3.05737 5.08842,-4.58346c1.10186,-0.69116 2.32643,-1.40589 3.61452,-2.15297c0.21057,-0.22876 0.42109,-0.45756 0.63149,-0.68646c-2.34102,-1.46204 -4.63375,-3.00793 -6.87961,-4.58535c-1.41743,-0.86227 -2.77652,-1.79103 -4.05311,-2.80029c-0.60968,-0.40049 -1.22223,-0.79701 -1.834,-1.19631l-0.67375,-0.33688c-0.25369,-0.12026 -0.42912,-0.37869 -0.42912,-0.67809c0,-0.41422 0.33578,-0.75 0.75,-0.75c0.12597,0 0.24468,0.03106 0.34891,0.08593l1.32815,0.66407l-0.03338,0.06676c0.1576,0.10215 0.31513,0.2043 0.47256,0.30655c1.7914,0.5106 3.77904,2.44689 5.29535,3.25678c2.49937,1.33495 4.97514,2.57347 7.47174,3.7372c-5.56129,-3.45656 -11.13623,-6.88289 -16.71019,-10.31302c0,0 -0.63875,-0.39308 -0.24567,-1.03182c0.39308,-0.63875 1.03181,-0.24567 1.03181,-0.24567c4.75638,2.927 9.51466,5.84953 14.26345,8.79216c-0.14752,-0.2282 -0.28977,-0.4604 -0.42623,-0.69707l-0.15437,0.11226l-0.87737,-1.20638c-0.09318,-0.12498 -0.14833,-0.27997 -0.14833,-0.44785c0,-0.41422 0.33578,-0.75 0.75,-0.75c0.14965,0 0.28907,0.04383 0.40612,0.11936l0.249,0.15493c-1.53084,-2.12103 -2.97312,-4.24795 -4.32596,-6.27722c0,0 -0.41602,-0.62404 0.20801,-1.04006c0.62404,-0.41603 1.04006,0.20801 1.04006,0.20801c2.02998,3.04496 4.27029,6.33908 6.71595,9.4919c0.2699,0.18939 0.53879,0.38036 0.80696,0.57247c0.92765,-1.04064 1.84697,-2.08841 2.75392,-3.14672c0,0 0.48809,-0.56945 1.05753,-0.08135c0.56944,0.48809 0.08135,1.05754 0.08135,1.05754c-0.88025,1.02677 -1.77133,2.0446 -2.67006,3.05604c0.20824,0.15206 0.41627,0.30441 0.62422,0.45686c1.14326,-0.75691 2.25919,-1.54863 3.31042,-2.38069c0.8104,-0.71828 1.62666,-1.43184 2.44718,-2.14335c1.65065,-1.62052 2.99328,-3.38591 3.8114,-5.32832c0,0 0.29544,-0.68936 0.9848,-0.39392c0.68936,0.29544 0.39392,0.9848 0.39392,0.9848c-0.16273,0.37416 -0.34242,0.74175 -0.53783,1.103c0.13604,0.02702 0.28021,0.1035 0.41791,0.26415c0.48809,0.56944 -0.08135,1.05753 -0.08135,1.05753c-3.09872,2.65474 -6.17452,5.27799 -9.14154,8.01123c1.5811,1.14999 3.17579,2.27444 4.83823,3.2827c2.89809,1.75769 6.37114,2.80891 9.24428,4.60344c6.08589,2.05224 12.21242,3.92628 18.40227,5.76315l1.43293,0.33932c0,0 0.72978,0.17296 0.55682,0.90275zM320.72686,99.3286c0.36393,0.14766 0.72354,0.29917 1.08157,0.44959c-0.97911,-0.51677 -1.93487,-1.0632 -2.87271,-1.6354c0.58595,0.4032 1.18248,0.79858 1.79114,1.18581zM312.49136,89.9493c-1.87184,-1.15643 -3.6945,-2.37389 -5.51743,-3.60291c-0.00792,0.00742 -0.01583,0.01485 -0.02375,0.02227c0.37673,0.42477 0.75765,0.84313 1.14275,1.25393c0.14312,0.08985 0.28623,0.17973 0.42931,0.26964c1.32306,0.70943 2.64441,1.39361 3.96911,2.05708zM293.97972,94.44009c0.22299,-0.24707 0.44636,-0.49383 0.67005,-0.74032c-0.24903,0.22472 -0.49812,0.44937 -0.74727,0.67395c0.02837,0.02057 0.05402,0.04287 0.07721,0.06637zM306.02662,89.16037c-0.46889,-0.18078 -0.93863,-0.36403 -1.40857,-0.55013c-0.01518,0.01498 -0.03035,0.02997 -0.04552,0.04496c0.71737,0.40815 1.43921,0.80631 2.16555,1.19306c-0.23706,-0.22816 -0.47417,-0.45747 -0.71145,-0.68789z" fill="#ececec"/><path d="M345.7091,80.85957c-0.74246,0.10607 -0.84853,-0.6364 -0.84853,-0.6364l-0.17278,-1.21646c-0.65339,-2.60628 -1.16868,-5.17622 -1.59013,-7.73912c-0.57839,-0.0113 -1.15693,-0.02379 -1.73495,-0.0343c-0.13831,2.68737 -0.02772,5.41724 -0.02792,8.10047l0.14823,0.39086c0,0 0.21326,0.71904 -0.50579,0.9323c-0.71904,0.21326 -0.9323,-0.50579 -0.9323,-0.50579l-0.21015,-0.81749c0.00018,-2.31996 -0.07971,-4.67348 -0.01549,-7.00573c-0.21258,0.20962 -0.42581,0.41877 -0.63979,0.62746c0.11255,0.41785 -0.25155,0.73644 -0.25155,0.73644l-0.30493,0.26681c-0.80036,0.69648 -1.32813,1.07988 -1.92831,1.36485c-0.04566,0.04247 -0.09137,0.08492 -0.13713,0.12735l0.01373,0.02485l-0.10039,0.05545c-0.46199,0.42768 -0.92858,0.85347 -1.40046,1.27744l-0.13966,0.01669l0.01812,0.0453l-0.88032,0.35213c-0.09037,0.03859 -0.18985,0.05996 -0.29433,0.05996c-0.41422,0 -0.75,-0.33578 -0.75,-0.75c0,-0.1351 0.03572,-0.26186 0.09823,-0.37134l1.06868,-1.95926c0,0 0.26181,-0.47996 0.74815,-0.39679l0.00542,-0.02195c0.52791,-0.60406 1.05535,-1.20762 1.58222,-1.81095c-0.54527,0.05111 -1.09379,0.08915 -1.64614,0.11216c0,0 -0.69551,0.02898 -0.77433,-0.63895c-2.47321,0.27671 -4.88099,0.85136 -7.16577,1.99422c0,0 -0.67082,0.33541 -1.00623,-0.33541c-0.33541,-0.67082 0.33541,-1.00623 0.33541,-1.00623c3.84936,-1.92392 7.97638,-2.29875 12.17714,-2.32712c0.57916,-0.66498 1.1575,-1.33011 1.73491,-1.99579c0.13806,-1.03508 0.30641,-2.06489 0.48418,-3.09266c-0.17358,-0.23502 -0.34643,-0.46944 -0.51859,-0.70307c-1.4742,-2.00065 -3.00619,-3.9222 -3.99151,-6.14639l-0.15341,0.09415l-0.6561,-1.06907c-0.07409,-0.11628 -0.11701,-0.25436 -0.11701,-0.40245c0,-0.41421 0.33578,-0.75 0.75,-0.75c0.17158,0 0.32969,0.05761 0.45606,0.15454l1.19394,0.89545c0,0 0.59665,0.44749 0.15375,1.04498c1.06712,1.10986 1.94568,3.08223 2.68208,4.0814c0.18626,0.25271 0.37297,0.50638 0.56022,0.76078c0.21611,-1.22505 0.42595,-2.45028 0.59403,-3.68121c-0.12029,-1.33924 -0.23445,-2.68886 -0.34844,-4.0528c0,0 -0.06229,-0.74741 0.68512,-0.80969c0.01036,-0.00087 0.02058,-0.00157 0.03067,-0.00213c0.01038,-0.14424 0.09288,-0.71736 0.7485,-0.71736c0.75,0 0.75,0.75 0.75,0.75c0,1.62726 -0.14544,3.23197 -0.36076,4.82654c0.14722,1.62909 0.30433,3.24254 0.48185,4.84778c1.55815,-1.81932 3.10771,-3.64828 4.64634,-5.49464c0,0 0.48014,-0.57617 1.0563,-0.09602c0.57617,0.48014 0.09603,1.0563 0.09603,1.0563c-1.84404,2.21286 -3.69425,4.40744 -5.55918,6.58769c0.00621,0.05051 0.01246,0.101 0.01873,0.1515c0.00297,0.00377 0.00593,0.00752 0.0089,0.01129c0.69423,-0.72135 1.38668,-1.44988 2.07833,-2.18764c0,0 0.51296,-0.54715 1.06011,-0.03419c0.54715,0.51296 0.0342,1.06011 0.0342,1.06011c-0.73134,0.7801 -1.45985,1.55334 -2.18887,2.32005c0.42138,0.46158 0.86129,0.90315 1.31944,1.32798c2.03429,-0.53542 4.07246,-1.08515 6.14678,-1.53211c0.02747,-0.03734 0.05969,-0.07487 0.09722,-0.1124c0.53033,-0.53033 1.06066,0 1.06066,0l-0.20146,1.44447c-1.93716,0.39444 -3.83911,0.885 -5.73222,1.38129c0.04474,0.03592 0.08961,0.07172 0.13464,0.10741c1.40159,-0.05445 2.79482,-0.16806 4.1721,-0.38553l0.65443,-0.07427c0,0 0.74531,-0.08373 0.82904,0.66159c0.08373,0.74531 -0.66159,0.82903 -0.66159,0.82903l-0.58794,0.0653c-0.40661,0.0642 -0.81517,0.11898 -1.22542,0.16554c0.22344,0.16254 0.30009,0.43082 0.30009,0.43082l0.35368,1.23791c0.02185,0.07036 0.03362,0.14515 0.03362,0.2227c0,0.41422 -0.33578,0.75 -0.75,0.75c-0.17158,0 -0.32969,-0.05761 -0.45606,-0.15455l-0.69351,-0.52013c-0.34879,-0.22171 -0.69113,-0.44663 -1.02697,-0.67539c1.24988,1.41216 2.54901,2.75896 3.91158,3.99853l0.45219,0.26534c0,0 0.63756,0.395 0.24256,1.03256c-0.395,0.63756 -1.03256,0.24256 -1.03256,0.24256l-0.67158,-0.4309c-2.03732,-1.85341 -3.94769,-3.95679 -5.76179,-6.15639c-0.37847,-0.00011 -0.75745,-0.00282 -1.13675,-0.00725c0.41072,2.45827 0.90868,4.92453 1.5322,7.42582l0.18567,1.29266c0,0 0.10607,0.74246 -0.63639,0.84853zM349.77636,71.31476c0.03052,-0.05743 0.07144,-0.11308 0.12581,-0.16364c-0.10992,0.0092 -0.21995,0.01788 -0.33008,0.02607c0.06781,0.046 0.1359,0.09186 0.20427,0.13757zM342.74831,69.37399c0.01748,-0.00414 0.03496,-0.00827 0.05244,-0.01242c-0.00178,-0.01202 -0.00354,-0.02406 -0.00531,-0.03608c-0.01571,0.01617 -0.03141,0.03234 -0.04712,0.0485zM342.4236,67.5141c0.03481,-0.03557 0.06962,-0.07116 0.10442,-0.10676c-0.00055,-0.00418 -0.0011,-0.00834 -0.00165,-0.01252c-0.03425,0.03977 -0.06851,0.07953 -0.10277,0.11928z" fill="#ececec"/></g></g></svg>