<svg version="1.1" xmlns="http://www.w3.org/2000/svg" xmlns:xlink="http://www.w3.org/1999/xlink" width="94.42335" height="265.29095" viewBox="0,0,94.42335,265.29095"><defs><linearGradient x1="278.91778" y1="44.37556" x2="278.91778" y2="51.29549" gradientUnits="userSpaceOnUse" id="color-1"><stop offset="0" stop-color="#2efffd"/><stop offset="1" stop-color="#054f4e"/></linearGradient><linearGradient x1="362.18794" y1="44.37556" x2="362.18794" y2="51.2955" gradientUnits="userSpaceOnUse" id="color-2"><stop offset="0" stop-color="#2efffd"/><stop offset="1" stop-color="#054f4e"/></linearGradient><linearGradient x1="320.00593" y1="170.07921" x2="320.00593" y2="309.6665" gradientUnits="userSpaceOnUse" id="color-3"><stop offset="0" stop-color="#ffc62e"/><stop offset="1" stop-color="#4f3305"/></linearGradient><linearGradient x1="320.00593" y1="170.07921" x2="320.00593" y2="309.6665" gradientUnits="userSpaceOnUse" id="color-4"><stop offset="0" stop-color="#000000" stop-opacity="0.29804"/><stop offset="1" stop-color="#000000" stop-opacity="0"/></linearGradient><linearGradient x1="319.78774" y1="170.6461" x2="319.78774" y2="209.25895" gradientUnits="userSpaceOnUse" id="color-5"><stop offset="0" stop-color="#fcff4f"/><stop offset="1" stop-color="#fcff4f" stop-opacity="0"/></linearGradient><linearGradient x1="320.00004" y1="80.64228" x2="320.00004" y2="175.06562" gradientUnits="userSpaceOnUse" id="color-6"><stop offset="0" stop-color="#ffc62e"/><stop offset="1" stop-color="#4f3305"/></linearGradient><linearGradient x1="320.00004" y1="84.26653" x2="320.00004" y2="158.03214" gradientUnits="userSpaceOnUse" id="color-7"><stop offset="0" stop-color="#fcff4f"/><stop offset="1" stop-color="#fcff4f" stop-opacity="0"/></linearGradient><linearGradient x1="320.00004" y1="80.7742" x2="320.00004" y2="175.19755" gradientUnits="userSpaceOnUse" id="color-8"><stop offset="0" stop-color="#000000" stop-opacity="0.39216"/><stop offset="1" stop-color="#000000" stop-opacity="0"/></linearGradient><linearGradient x1="320.00004" y1="118.27924" x2="320.00004" y2="175.42408" gradientUnits="userSpaceOnUse" id="color-9"><stop offset="0" stop-color="#000000"/><stop offset="1" stop-color="#0c0c0c"/></linearGradient><linearGradient x1="320.00004" y1="88.88657" x2="320.00004" y2="163.23687" gradientUnits="userSpaceOnUse" id="color-10"><stop offset="0" stop-color="#000000"/><stop offset="1" stop-color="#0c0c0c"/></linearGradient><radialGradient cx="334.27914" cy="112.91851" r="32.74416" gradientUnits="userSpaceOnUse" id="color-11"><stop offset="0" stop-color="#2d2d2d"/><stop offset="1" stop-color="#2d2d2d" stop-opacity="0"/></radialGradient></defs><g transform="translate(-272.78836,-44.37556)"><g stroke="none" stroke-miterlimit="10"><g><g><path d="M278.39397,47.83553c0.75,0 0.75,0.75 0.75,0.75v0.41844c-0.00594,2.08999 -0.58205,4.14742 -1.05357,6.17293c-0.50631,9.80091 1.02315,19.42608 1.24581,29.22098c-0.22006,8.63118 -0.40147,17.27514 -0.40147,25.90799c0,0 0,0.75 -0.75,0.75c-0.75,0 -0.75,-0.75 -0.75,-0.75c0,-8.63336 0.17886,-17.27844 0.40147,-25.91007c-0.22706,-9.86102 -1.8117,-19.56152 -1.23089,-29.42993c0.44586,-1.94766 1.04528,-3.95235 1.03865,-5.96191v-0.41844c0,0 0,-0.75 0.75,-0.75z" fill="#000000" stroke-width="0.5"/><path d="M275.45781,47.83553l0.33313,-1.48319l0.69053,-0.97359l1.14744,-0.75516l1.28887,-0.24803l1.45909,0.32179l1.04786,0.75352l0.73274,1.16719l0.22027,1.21747l-0.21694,1.20857l-0.61594,1.04314l-1.09576,0.85179l-1.53133,0.35646l-1.36575,-0.27999l-1.00994,-0.66451l-0.87565,-1.32943z" fill="url(#color-1)" stroke-width="0"/></g><g><path d="M363.46174,48.58553v0.41845c-0.00662,2.00956 0.5928,4.01425 1.03865,5.96191c0.5808,9.86841 -1.00384,19.56891 -1.2309,29.42993c0.22261,8.63163 0.40147,17.27671 0.40147,25.91007c0,0 0,0.75 -0.75,0.75c-0.75,0 -0.75,-0.75 -0.75,-0.75c0,-8.63286 -0.18141,-17.27681 -0.40147,-25.90799c0.22265,-9.79489 1.75212,-19.42007 1.24581,-29.22098c-0.47152,-2.02551 -1.04762,-4.08294 -1.05356,-6.17293v-0.41845c0,0 0,-0.75 0.75,-0.75c0.75,0 0.75,0.75 0.75,0.75z" fill="#000000" stroke-width="0.5"/><path d="M365.43929,49.02156l-0.87565,1.32943l-1.00994,0.66452l-1.36575,0.27999l-1.53132,-0.35646l-1.09576,-0.85179l-0.61594,-1.04314l-0.21694,-1.20858l0.22027,-1.21747l0.73274,-1.16719l1.04786,-0.75352l1.45909,-0.32179l1.28886,0.24803l1.14745,0.75516l0.69053,0.97359l0.33312,1.48318z" fill="url(#color-2)" stroke-width="0"/></g></g><g stroke-width="0"><g><path d="M281.87126,309.6665l17.98805,-139.58728h41.01276l11.87211,139.58728z" fill="url(#color-3)"/><path d="M281.87126,309.6665l17.98805,-139.58728l-1.0016,76.55709l7.15614,11.63579l12.4922,6.79247l13.78305,-6.95249l6.97448,-10.46249l1.6085,-77.57037l11.87211,139.58729z" fill="url(#color-4)"/></g><path d="M299.03334,209.25895l5.59886,-44.21171h31.46947l4.44048,44.21172z" fill="url(#color-5)"/></g><g stroke-width="0"><path d="M272.78836,127.85397l4.54557,-20.2383l9.42238,-13.28479l15.65698,-10.30422l17.58674,-3.38437l19.90951,4.39088l14.29819,10.28182l9.99835,15.92645l3.00563,16.61253l-2.96018,16.49113l-8.40457,14.2338l-14.95178,11.62278l-20.89514,4.86397l-18.63582,-3.82055l-13.78076,-9.06738l-11.9484,-18.14029z" fill="url(#color-6)"/><path d="M283.11719,121.14935l3.5511,-15.81061l7.36097,-10.37838l12.23158,-8.04989l13.73916,-2.64395l15.55375,3.43025l11.17007,8.03239l7.81093,12.4421l2.34807,12.97808l-2.31256,12.88323l-6.56584,11.11977l-11.68067,9.07998l-16.32375,3.79985l-14.55872,-2.9847l-10.76584,-7.08364l-9.33436,-14.1716z" fill="url(#color-7)"/><path d="M272.78836,127.9859l3.51099,-15.63205l2.6304,15.53397l12.07213,15.47847l13.15468,10.68657l16.41727,2.76275l20.00548,-4.14932l15.52268,-11.84573l6.57772,-12.97062l1.52637,-16.47657l3.00563,16.61253l-2.96018,16.49113l-8.40457,14.2338l-14.95178,11.62278l-20.89514,4.86397l-18.63583,-3.82055l-13.78075,-9.06739l-11.9484,-18.14029z" fill="url(#color-8)"/></g><g stroke-width="0"><path d="M291.42761,146.85167l2.75097,-12.24819l5.7024,-8.03993l9.47558,-6.23609l10.64346,-2.04821l12.0492,2.65735l8.65325,6.22254l6.05098,9.63866l1.819,10.05388l-1.7915,9.9804l-5.08643,8.61426l-9.04879,7.03409l-12.6457,2.94366l-11.27837,-2.31219l-8.34009,-5.48756l-7.23115,-10.97848z" fill="url(#color-9)"/><path d="M282.82488,126.06174l3.57925,-15.93593l7.41931,-10.46063l12.32853,-8.11369l13.84805,-2.66491l15.67703,3.45745l11.2586,8.09605l7.87285,12.54072l2.36667,13.08095l-2.33089,12.98535l-6.61788,11.2079l-11.77324,9.15194l-16.45313,3.82996l-14.67412,-3.00835l-10.85117,-7.13978l-9.40834,-14.28393z" fill="url(#color-10)"/></g><path d="M287.25588,126.06173l3.15263,-14.03649l6.53499,-9.21381l10.85907,-7.1466l12.19747,-2.34727l13.80845,3.04534l9.91666,7.13106l6.93446,11.04596l2.08459,11.52179l-2.05307,11.4376l-5.82908,9.872l-10.36996,8.0611l-14.49204,3.37346l-12.92507,-2.64978l-9.55779,-6.28878l-8.28694,-12.58139z" fill="url(#color-11)" stroke-width="0"/><g fill="#00fff0" stroke-width="0.5"><g><path d="M330.83306,156.47455c0.75,0 0.75,0.75 0.75,0.75l-0.0102,0.38717c-0.4817,2.8867 -1.49323,4.85746 -3.91512,6.58813c-6.84105,3.44194 -17.87755,2.90636 -19.20409,-6.3415c0,0 -0.10607,-0.74246 0.63639,-0.84853c0.74246,-0.10607 0.84853,0.6364 0.84853,0.6364c1.15272,8.10441 11.04498,8.1977 16.94546,5.26857c2.04739,-1.46164 2.80645,-3.13009 3.20924,-5.54968l-0.0102,-0.14057c0,0 0,-0.75 0.75,-0.75z"/><path d="M332.37466,156.82875c0,0.75 -0.75,0.75 -0.75,0.75l-0.3691,-0.03849c-0.47848,-0.16107 -0.97108,-0.28606 -1.46932,-0.36751c0,0 -0.7398,-0.1233 -0.6165,-0.8631c0.1233,-0.73979 0.86309,-0.61649 0.86309,-0.61649c0.57489,0.0974 1.14343,0.24112 1.69707,0.42408l-0.10523,-0.03849c0,0 0.75,0 0.75,0.75z"/><path d="M309.14083,156.76021c0.16721,-0.12325 0.57431,-0.34115 0.9814,0.06594c0.53033,0.53033 0,1.06066 0,1.06066l-0.66226,0.35161c-0.36757,-0.01692 -0.75927,0.08476 -1.06538,0.28892c0,0 -0.64312,0.38587 -1.029,-0.25725c-0.38587,-0.64312 0.25725,-1.02899 0.25725,-1.02899c0.46081,-0.25919 0.98802,-0.42321 1.51799,-0.48089z"/></g><g><path d="M305.0795,126.33719c0.06907,0.02302 0.12919,0.05051 0.18147,0.08139c0.82127,0.00558 1.63878,0.01206 2.44943,0.01206c2.25808,0 4.84674,-0.16588 6.78324,1.04949l-0.02022,-0.12597c0,0 0.75,0 0.75,0.75c0,0.75 -0.75,0.75 -0.75,0.75l-0.81182,-0.12596c-1.49189,-1.09191 -4.13216,-0.79756 -5.95119,-0.79756c-0.57071,0 -1.14521,-0.00361 -1.72227,-0.00804v0.04963c0,0.81617 0.23476,2.48737 -0.51437,3.06619c-2.25074,1.73904 -2.59528,-1.42848 -2.40154,-3.13186c-2.42969,0.00274 -4.86837,0.07259 -7.22717,0.41234c0,0 -0.74246,0.10606 -0.84853,-0.6364c-0.10607,-0.74246 0.63639,-0.84852 0.63639,-0.84852c2.86976,-0.40686 5.84654,-0.43527 8.7888,-0.42049c0.14884,-0.10973 0.36246,-0.17473 0.65779,-0.07629z"/><path d="M337.7839,126.93226v0.65966c-0.05394,4.24647 -3.0122,2.90788 -3.0822,-0.4622c-2.3961,0.54863 -4.78387,1.31517 -7.03279,1.72784c0,0 -0.73791,0.13416 -0.87207,-0.60374c-0.13416,-0.7379 0.60374,-0.87207 0.60374,-0.87207c6.06493,-1.09166 12.57013,-4.28384 18.34258,-0.68969l0.23547,0.05642c0,0 0.71151,0.23717 0.47434,0.94868c-0.23717,0.71151 -0.94869,0.47434 -0.94869,0.47434l-0.55613,-0.20745c-2.25859,-1.41748 -4.72317,-1.648 -7.23953,-1.36718c0.07527,0.17341 0.07528,0.33537 0.07528,0.33537z"/><path d="M314.16246,113.27177c-0.6,0.45 -1.05,-0.15 -1.05,-0.15l-0.46662,-0.64232c-0.45685,-1.0677 -1.29176,-0.90512 -2.36363,-0.90474c-3.3495,0.0012 -5.66395,2.49374 -7.27284,5.17704c0,0 -0.38587,0.64312 -1.02899,0.25725c-0.64312,-0.38587 -0.25725,-1.02899 -0.25725,-1.02899c1.84822,-3.07834 9.29469,-9.63415 12.26435,-4.17138l0.32498,0.41314c0,0 0.45,0.6 -0.15,1.05z"/></g></g></g></g></svg>