<svg version="1.1" xmlns="http://www.w3.org/2000/svg" xmlns:xlink="http://www.w3.org/1999/xlink" width="647" height="395.18123" viewBox="0,0,647,395.18123"><defs><linearGradient x1="310.04189" y1="257.11654" x2="310.19729" y2="288.19636" gradientTransform="translate(-270.39261,-421.03009) rotate(-1.89118) scale(1.18369,1.54356) skewX(-2.75119)" gradientUnits="userSpaceOnUse" id="color-1"><stop offset="0" stop-color="#131640"/><stop offset="1" stop-color="#080b1f"/></linearGradient><linearGradient x1="310.02513" y1="253.74051" x2="310.18054" y2="284.82038" gradientTransform="translate(-270.3926,-415.81616) rotate(-1.89118) scale(1.18369,1.54356) skewX(-2.75119)" gradientUnits="userSpaceOnUse" id="color-2"><stop offset="0" stop-color="#2ea4ac"/><stop offset="1" stop-color="#215d7d"/></linearGradient><linearGradient x1="310.02513" y1="253.74051" x2="310.18054" y2="284.82038" gradientTransform="translate(-270.3926,-415.81616) rotate(-1.89118) scale(1.18369,1.54356) skewX(-2.75119)" gradientUnits="userSpaceOnUse" id="color-3"><stop offset="0" stop-color="#31baba"/><stop offset="1" stop-color="#1c3f69"/></linearGradient><linearGradient x1="315.56209" y1="285.84638" x2="315.77465" y2="328.35853" gradientTransform="translate(-176.81475,-349.77378) rotate(-1.89123) scale(0.86539,1.12847) skewX(-2.75154)" gradientUnits="userSpaceOnUse" id="color-4"><stop offset="0" stop-color="#060515" stop-opacity="0.46275"/><stop offset="1" stop-color="#0a0824"/></linearGradient><linearGradient x1="315.53855" y1="281.10645" x2="315.75113" y2="323.61866" gradientTransform="translate(-176.81476,-344.42206) rotate(-1.89123) scale(0.86539,1.12847) skewX(-2.75154)" gradientUnits="userSpaceOnUse" id="color-5"><stop offset="0" stop-color="#4d3cae"/><stop offset="1" stop-color="#231d7c"/></linearGradient><linearGradient x1="315.53855" y1="281.10645" x2="315.75113" y2="323.61866" gradientTransform="translate(-176.81476,-344.42206) rotate(-1.89123) scale(0.86539,1.12847) skewX(-2.75154)" gradientUnits="userSpaceOnUse" id="color-6"><stop offset="0" stop-color="#5743ba"/><stop offset="1" stop-color="#131169"/></linearGradient><linearGradient x1="297.89" y1="325.4658" x2="298.04592" y2="356.65132" gradientTransform="translate(-254.42717,-525.40847) rotate(-1.89136) scale(1.17969,1.53831) skewX(-2.75171)" gradientUnits="userSpaceOnUse" id="color-7"><stop offset="0" stop-color="#2b0816"/><stop offset="1" stop-color="#280815"/></linearGradient><linearGradient x1="297.87237" y1="321.91774" x2="298.02831" y2="353.10329" gradientTransform="translate(-254.42718,-519.94743) rotate(-1.89136) scale(1.17969,1.53831) skewX(-2.75171)" gradientUnits="userSpaceOnUse" id="color-8"><stop offset="0" stop-color="#b12868"/><stop offset="1" stop-color="#791740"/></linearGradient><linearGradient x1="297.87237" y1="321.91774" x2="298.02831" y2="353.10329" gradientTransform="translate(-254.42718,-519.94743) rotate(-1.89136) scale(1.17969,1.53831) skewX(-2.75171)" gradientUnits="userSpaceOnUse" id="color-9"><stop offset="0" stop-color="#ba2a6f"/><stop offset="1" stop-color="#691234"/></linearGradient></defs><g transform="translate(3.5,18.57143)"><g stroke-miterlimit="10"><path d="M-3.5,362v-364h647v364z" fill="#000000" stroke="none" stroke-width="0"/><g stroke="none"><text transform="translate(246.84616,171.63091) scale(3.91786,3.91786)" font-size="40" xml:space="preserve" fill="#ff0000" stroke-width="1" font-family="Malgun Gothic" font-weight="normal" text-anchor="start"><tspan x="0" dy="0">:-)</tspan></text><path d="M143,271.42857v-290h354v290z" fill-opacity="0.62745" fill="#000000" stroke-width="0"/></g><g font-family="&quot;Comic Sans MS&quot;, Scratch" font-weight="400" font-size="40" text-anchor="start"><text transform="translate(229.94789,278.39797) rotate(1.44872) scale(0.84566,0.64721) skewX(1.32801)" font-size="40" xml:space="preserve" fill="#ffffff" stroke="url(#color-1)" stroke-width="9"><tspan x="0" dy="0">AMAZING</tspan></text><text transform="translate(229.93125,275.06798) rotate(1.44872) scale(0.84566,0.64721) skewX(1.32801)" font-size="40" xml:space="preserve" fill="#ffffff" stroke="#18445d" stroke-width="9"><tspan x="0" dy="0">AMAZING</tspan></text><text transform="translate(229.93101,275.02196) rotate(1.44872) scale(0.84566,0.64721) skewX(1.32801)" font-size="40" xml:space="preserve" fill="url(#color-2)" stroke="url(#color-3)" stroke-width="4"><tspan x="0" dy="0">AMAZING</tspan></text><g><text transform="translate(206.00481,314.95509) rotate(1.44878) scale(1.15669,0.88527) skewX(1.32832)" font-size="40" xml:space="preserve" fill-opacity="0" fill="#000000" stroke="url(#color-4)" stroke-width="9"><tspan x="0" dy="0">MUSICAL</tspan></text><text transform="translate(205.98111,310.21525) rotate(1.44878) scale(1.15669,0.88527) skewX(1.32832)" font-size="40" xml:space="preserve" fill="#ffffff" stroke="#16124f" stroke-width="9"><tspan x="0" dy="0">MUSICAL</tspan></text><text transform="translate(205.98112,310.21523) rotate(1.44878) scale(1.15669,0.88527) skewX(1.32832)" font-size="40" xml:space="preserve" fill="url(#color-5)" stroke="url(#color-6)" stroke-width="4"><tspan x="0" dy="0">MUSICAL</tspan></text></g><text transform="translate(217.52543,346.82187) rotate(1.44889) scale(0.84852,0.64942) skewX(1.32844)" font-size="40" xml:space="preserve" fill="#ffffff" stroke="url(#color-7)" stroke-width="9"><tspan x="0" dy="0">MONSTERS</tspan></text><text transform="translate(217.50871,343.48055) rotate(1.44889) scale(0.84852,0.64942) skewX(1.32844)" font-size="40" xml:space="preserve" fill="#ffffff" stroke="#510f2b" stroke-width="9"><tspan x="0" dy="0">MONSTERS</tspan></text><text transform="translate(217.50769,343.27378) rotate(1.44889) scale(0.84852,0.64942) skewX(1.32844)" font-size="40" xml:space="preserve" fill="url(#color-8)" stroke="url(#color-9)" stroke-width="4"><tspan x="0" dy="0">MONSTERS</tspan></text></g><g fill="#830000" stroke="none"><path d="M218.21429,268.75266v-14.28572h220v14.28572z" stroke-width="none"/><path d="M276.07143,376.6098v-149.28571h10.71428v149.28571z" stroke-width="0"/><path d="M208.92857,315.89551v-35.71429h267.14286v35.71429z" stroke-width="0"/><path d="M205.35715,266.6098v-13.57142h202.85714v13.57142z" stroke-width="0"/><path d="M287.5,318.03837v-102.85714h9.28571v102.85714z" stroke-width="0"/><path d="M308.92857,322.32409v-76.42857h2.85715v76.42857z" stroke-width="0"/><path d="M328.21429,273.75266v-50h93.57143v50z" stroke-width="0"/><path d="M378.21429,308.75266v-12.85714h0.71428v12.85714z" stroke-width="0"/><path d="M173.92857,291.6098v-38.57142h92.14286v38.57142z" stroke-width="0"/><path d="M190.35715,314.46694v-84.28572h29.28571v84.28572z" stroke-width="0"/><path d="M311.78572,300.18123v-99.28572h10v99.28572z" stroke-width="0"/><path d="M351.78572,286.6098v-27.85714h115.71429v27.85714z" stroke-width="0"/><path d="M445.35715,333.75266v-194.28571h12.14285v194.28572z" stroke-width="0"/><path d="M414.64286,282.32409v-19.28571h95.71429v19.28571z" stroke-width="0"/></g></g></g></svg>