<svg version="1.1" xmlns="http://www.w3.org/2000/svg" xmlns:xlink="http://www.w3.org/1999/xlink" width="127.46774" height="284.12052" viewBox="0,0,127.46774,284.12052"><defs><linearGradient x1="320.00593" y1="170.07922" x2="320.00593" y2="309.66651" gradientUnits="userSpaceOnUse" id="color-1"><stop offset="0" stop-color="#a0a0a0"/><stop offset="1" stop-color="#4e4e4e"/></linearGradient><linearGradient x1="320.00593" y1="170.07922" x2="320.00593" y2="309.66651" gradientUnits="userSpaceOnUse" id="color-2"><stop offset="0" stop-color="#000000" stop-opacity="0.29804"/><stop offset="1" stop-color="#000000" stop-opacity="0"/></linearGradient><linearGradient x1="319.78774" y1="170.64611" x2="319.78774" y2="209.25896" gradientUnits="userSpaceOnUse" id="color-3"><stop offset="0" stop-color="#c4c4c4"/><stop offset="1" stop-color="#c4c4c4" stop-opacity="0"/></linearGradient><linearGradient x1="319.42711" y1="183.54815" x2="319.42711" y2="228.83655" gradientUnits="userSpaceOnUse" id="color-4"><stop offset="0" stop-color="#ffe321"/><stop offset="1" stop-color="#b57100"/></linearGradient><linearGradient x1="319.42711" y1="165.96673" x2="319.42711" y2="211.25512" gradientUnits="userSpaceOnUse" id="color-5"><stop offset="0" stop-color="#ffe321"/><stop offset="1" stop-color="#b57100"/></linearGradient><linearGradient x1="361.64551" y1="25.54599" x2="361.64551" y2="46.4924" gradientUnits="userSpaceOnUse" id="color-6"><stop offset="0" stop-color="#ffe321"/><stop offset="1" stop-color="#b57100"/></linearGradient><linearGradient x1="361.69192" y1="26.34997" x2="361.69192" y2="42.71377" gradientUnits="userSpaceOnUse" id="color-7"><stop offset="0" stop-color="#ffda5d"/><stop offset="1" stop-color="#ffda5d" stop-opacity="0"/></linearGradient><linearGradient x1="369.60102" y1="104.11132" x2="369.60102" y2="152.23226" gradientUnits="userSpaceOnUse" id="color-8"><stop offset="0" stop-color="#e2c81d"/><stop offset="1" stop-color="#905900"/></linearGradient><linearGradient x1="278.83622" y1="25.54599" x2="278.83622" y2="46.4924" gradientUnits="userSpaceOnUse" id="color-9"><stop offset="0" stop-color="#ffe321"/><stop offset="1" stop-color="#b57100"/></linearGradient><linearGradient x1="278.78981" y1="26.34998" x2="278.78981" y2="42.71377" gradientUnits="userSpaceOnUse" id="color-10"><stop offset="0" stop-color="#ffda5d"/><stop offset="1" stop-color="#ffda5d" stop-opacity="0"/></linearGradient><linearGradient x1="270.88071" y1="104.11132" x2="270.88071" y2="152.23226" gradientUnits="userSpaceOnUse" id="color-11"><stop offset="0" stop-color="#e2c81d"/><stop offset="1" stop-color="#905900"/></linearGradient><linearGradient x1="320.00004" y1="80.64229" x2="320.00004" y2="175.06563" gradientUnits="userSpaceOnUse" id="color-12"><stop offset="0" stop-color="#a0a0a0"/><stop offset="1" stop-color="#4e4e4e"/></linearGradient><linearGradient x1="320.00004" y1="84.26654" x2="320.00004" y2="158.03214" gradientUnits="userSpaceOnUse" id="color-13"><stop offset="0" stop-color="#c4c4c4"/><stop offset="1" stop-color="#c4c4c4" stop-opacity="0"/></linearGradient><linearGradient x1="320.00004" y1="80.7742" x2="320.00004" y2="175.19756" gradientUnits="userSpaceOnUse" id="color-14"><stop offset="0" stop-color="#000000" stop-opacity="0.39216"/><stop offset="1" stop-color="#000000" stop-opacity="0"/></linearGradient><linearGradient x1="319.67087" y1="107.77095" x2="319.67087" y2="149.51367" gradientUnits="userSpaceOnUse" id="color-15"><stop offset="0" stop-color="#ffe321"/><stop offset="1" stop-color="#b57100"/></linearGradient></defs><g transform="translate(-256.50699,-25.54599)"><g stroke="none" stroke-miterlimit="10"><g stroke-width="0"><g><g><path d="M281.87126,309.66651l17.98805,-139.58728h41.01276l11.87211,139.58728z" fill="url(#color-1)"/><path d="M281.87126,309.66651l17.98805,-139.58728l-1.0016,76.55709l7.15614,11.63579l12.4922,6.79247l13.78305,-6.95249l6.97448,-10.46249l1.6085,-77.57037l11.87211,139.58729z" fill="url(#color-2)"/></g><path d="M299.03334,209.25896l5.59886,-44.21171h31.46947l4.44048,44.21172z" fill="url(#color-3)"/></g><g><path d="M287.02335,228.83655l10.04653,-45.28839h45.39945l9.36154,45.28839l-33.1046,11.05632z" fill="url(#color-4)"/><path d="M287.02335,199.69624l10.04653,-33.72951h45.39946l9.36154,33.72951l-32.60204,9.04608z" fill="url(#color-5)"/></g></g><g><g><g><path d="M363.14551,29.22074v0.20922c0,8.97289 0,17.94578 0,26.91868c0,10.19395 2.125,20.3194 2.82693,30.46996c0.09731,1.41109 0.0306,2.98189 0.29183,4.37077c0.23631,1.25642 1.22148,2.3842 1.48944,3.64088c0.40731,1.91024 0.07685,4.14661 0.20189,6.09873c0.24021,3.74988 0.76515,7.53058 1.25103,11.2557c0,0 0.097,0.7437 -0.6467,0.8407c-0.7437,0.097 -0.8407,-0.64669 -0.8407,-0.64669c-0.48955,-3.7532 -1.0159,-7.56199 -1.25963,-11.34022c-0.1211,-1.87725 0.21821,-4.06106 -0.17292,-5.89541c-0.26621,-1.24851 -1.23644,-2.35509 -1.48329,-3.61335c-0.2867,-1.46136 -0.22483,-3.12069 -0.3274,-4.60791c-0.70056,-10.18632 -2.83049,-20.34289 -2.83049,-30.57316c0,-8.9729 0,-18.155 0,-27.1279c0,0 0,-0.75 0.75,-0.75c0.75,0 0.75,0.75 0.75,0.75z" fill="#000000" stroke-width="0.5"/><path d="M371.48721,39.60925l-2.65057,4.02415l-3.05706,2.01147l-4.13408,0.84753l-4.63527,-1.07899l-3.31682,-2.57834l-1.86443,-3.15756l-0.65667,-3.65831l0.66675,-3.68525l2.21798,-3.53304l3.17184,-2.28086l4.41663,-0.97405l3.90136,0.75077l3.47327,2.28583l2.09021,2.94703l1.00837,4.48956z" fill="url(#color-6)" stroke-width="0"/><path d="M369.38049,37.33651l-2.07069,3.14376l-2.38824,1.5714l-3.22963,0.66211l-3.62118,-0.84294l-2.59118,-2.01426l-1.45654,-2.46675l-0.51301,-2.85795l0.52089,-2.87899l1.73274,-2.76009l2.47791,-1.78186l3.45037,-0.76095l3.04783,0.58652l2.71339,1.78575l1.63292,2.30228l0.78776,3.50735z" fill="url(#color-7)" stroke-width="0"/></g><path d="M358.62952,152.23226v-48.12095h21.94301c0,0 3.75094,8.8463 3.37584,24.89737c-0.45315,19.39107 -3.37584,23.22359 -3.37584,23.22359z" fill="url(#color-8)" stroke-width="0"/></g><g><g><path d="M278.08622,28.47074c0.75,0 0.75,0.75 0.75,0.75c0,8.97289 0,18.15501 0,27.1279c0,10.23027 -2.12994,20.38683 -2.83049,30.57316c-0.10257,1.48721 -0.0407,3.14654 -0.32739,4.60791c-0.24685,1.25826 -1.21708,2.36484 -1.48329,3.61335c-0.39113,1.83435 -0.05182,4.01817 -0.17292,5.89541c-0.24373,3.77824 -0.77008,7.58702 -1.25963,11.34022c0,0 -0.097,0.7437 -0.8407,0.6467c-0.7437,-0.097 -0.6467,-0.8407 -0.6467,-0.8407c0.48589,-3.72512 1.01082,-7.50583 1.25103,-11.2557c0.12505,-1.95211 -0.20542,-4.18849 0.2019,-6.09873c0.26796,-1.25668 1.25312,-2.38447 1.48943,-3.64089c0.26123,-1.38889 0.19451,-2.95968 0.29183,-4.37077c0.70193,-10.15056 2.82694,-20.27601 2.82694,-30.46996c0,-8.97289 0,-17.94579 0,-26.91868v-0.20922c0,0 0,-0.75 0.75,-0.75z" fill="#000000" stroke-width="0.5"/><path d="M268.36302,36.0192l1.00837,-4.48956l2.09021,-2.94703l3.47327,-2.28584l3.90135,-0.75077l4.41663,0.97405l3.17184,2.28087l2.21798,3.53304l0.66675,3.68524l-0.65667,3.65831l-1.86443,3.15756l-3.31683,2.57834l-4.63527,1.079l-4.13408,-0.84753l-3.05706,-2.01146l-2.65057,-4.02415z" fill="url(#color-9)" stroke-width="0"/><path d="M270.60791,34.53188l0.78776,-3.50735l1.63292,-2.30229l2.71339,-1.78575l3.04783,-0.58652l3.45037,0.76095l2.47791,1.78187l1.73274,2.76009l0.52088,2.87899l-0.51301,2.85795l-1.45653,2.46675l-2.59118,2.01426l-3.62118,0.84294l-3.22963,-0.66211l-2.38824,-1.5714l-2.07069,-3.14376z" fill="url(#color-10)" stroke-width="0"/></g><path d="M259.90921,152.23226c0,0 -2.9227,-3.83253 -3.37585,-23.22359c-0.37509,-16.05107 3.37585,-24.89736 3.37585,-24.89736h21.94301v48.12095z" fill="url(#color-11)" stroke-width="0"/></g></g><g stroke-width="0"><path d="M272.78836,127.85398l4.54557,-20.2383l9.42238,-13.28479l15.65698,-10.30422l17.58674,-3.38437l19.90951,4.39088l14.29819,10.28182l9.99835,15.92645l3.00563,16.61253l-2.96018,16.49113l-8.40457,14.2338l-14.95178,11.62278l-20.89514,4.86397l-18.63582,-3.82055l-13.78076,-9.06738l-11.9484,-18.14029z" fill="url(#color-12)"/><path d="M283.11719,121.14936l3.5511,-15.81061l7.36097,-10.37838l12.23158,-8.04989l13.73916,-2.64395l15.55375,3.43025l11.17007,8.03239l7.81093,12.4421l2.34807,12.97808l-2.31256,12.88323l-6.56584,11.11977l-11.68067,9.07998l-16.32375,3.79985l-14.55872,-2.9847l-10.76584,-7.08364l-9.33436,-14.1716z" fill="url(#color-13)"/><path d="M272.78836,127.98591l3.51099,-15.63205l2.6304,15.53397l12.07213,15.47847l13.15468,10.68657l16.41727,2.76275l20.00548,-4.14932l15.52268,-11.84573l6.57772,-12.97062l1.52637,-16.47657l3.00563,16.61253l-2.96018,16.49113l-8.40457,14.2338l-14.95178,11.62278l-20.89514,4.86397l-18.63583,-3.82055l-13.78075,-9.06739l-11.9484,-18.14029z" fill="url(#color-14)"/></g><path d="M268.31258,149.51367l-3.52171,-21.12693l3.52171,-20.6158h102.86332l3.37497,20.6158l-3.37497,21.12693z" fill="url(#color-15)" stroke-width="0"/><path d="M271.82286,146.33175l-3.28101,-17.90604l3.28101,-17.47283h95.83275l3.1443,17.47283l-3.1443,17.90604z" fill="#000000" stroke-width="0"/><g fill="#00f5ff" stroke-width="0"><path d="M292.41693,135.52236v-15.04791h11.91293v15.04791z"/><path d="M335.43817,135.52236v-15.04791h11.91293v15.04791z"/></g><path d="M341.14846,159.39624c0,0.75 -0.75,0.75 -0.75,0.75l-0.94354,-0.02886c-0.8652,-0.24803 -1.59995,-0.5535 -2.25197,-0.94635l0.10527,0.28438c-0.33611,2.48101 -1.70209,3.30848 -3.78808,4.29208c-3.61258,1.70343 -5.64824,3.72801 -9.83814,4.19355c-6.12503,0.67577 -13.46778,-0.05208 -18.43217,-4.02006c-1.30534,-1.04335 -2.78015,-1.86793 -3.41322,-3.35044c-1.31847,0.1538 -2.59769,-0.71894 -4.05206,-2.46418c0,0 -0.48014,-0.57617 0.09603,-1.05631c0.57617,-0.48014 1.05631,0.09603 1.05631,0.09603c1.24917,1.49901 2.06109,2.2099 3.01481,1.8926c0.04855,-0.02581 0.10358,-0.04785 0.16593,-0.06493c0.49036,-0.2201 1.02529,-0.70543 1.67916,-1.48682l0.41085,-0.68908c0,0 0.38587,-0.64312 1.02899,-0.25725c0.64312,0.38587 0.25725,1.02899 0.25725,1.02899l-0.47416,0.78593c-0.63509,0.76497 -1.23397,1.32574 -1.81281,1.69391c0.46886,1.15624 2.05163,1.9569 2.97997,2.70025c4.63867,3.71434 11.61416,4.34029 17.32948,3.70054c3.98723,-0.44303 5.86419,-2.37641 9.30533,-4.0302c1.39571,-0.67077 2.69353,-1.01192 2.99697,-2.78796l-0.24658,-0.54729c0,0 -0.24972,-0.6243 0.31485,-0.92711c-0.50137,-0.48336 -0.96392,-1.05538 -1.42255,-1.73792c0,0 -0.41602,-0.62404 0.20802,-1.04006c0.62404,-0.41602 1.04006,0.20801 1.04006,0.20801c1.13173,1.71285 2.22,2.53665 4.15452,3.0874l0.53147,-0.02885c0,0 0.75,0 0.75,0.75z" fill="#000000" stroke-width="0.5"/><path d="M306.96042,100.17436c-0.73544,0.14709 -0.88252,-0.58835 -0.88252,-0.58835l-0.15847,-0.88707c-2.08329,-2.71854 -6.86563,0.64486 -8.07911,2.78586c0,0 -0.3721,0.65118 -1.02329,0.27908c-0.65118,-0.3721 -0.27908,-1.02329 -0.27908,-1.02329c1.94083,-3.37191 7.86601,-6.54746 10.75083,-2.6539l0.25998,1.20515c0,0 0.14709,0.73544 -0.58835,0.88252z" fill="#000000" stroke-width="0.5"/><path d="M340.96254,100.6554c-0.58882,0.46453 -1.05335,-0.12429 -1.05335,-0.12429l-0.58498,-0.75102c-0.28496,-0.63807 -0.89321,-2.7041 -1.68005,-3.02185c-2.16142,-0.87283 -5.13101,0.7647 -5.86477,2.74999c0,0 -0.27854,0.69636 -0.9749,0.41781c-0.69636,-0.27854 -0.41781,-0.9749 -0.41781,-0.9749c1.13552,-2.69095 4.97166,-4.915 7.94385,-3.52666c1.23009,0.57459 1.78649,2.46016 2.27838,3.5813l0.47791,0.59625c0,0 0.46453,0.58882 -0.12429,1.05335z" fill="#000000" stroke-width="0.5"/></g></g></svg>