<svg version="1.1" xmlns="http://www.w3.org/2000/svg" xmlns:xlink="http://www.w3.org/1999/xlink" width="143.25846" height="248.56051" viewBox="0,0,143.25846,248.56051"><defs><linearGradient x1="320.00595" y1="170.07926" x2="320.00595" y2="309.66652" gradientUnits="userSpaceOnUse" id="color-1"><stop offset="0" stop-color="#d4a5e8"/><stop offset="1" stop-color="#a378ad"/></linearGradient><linearGradient x1="320.00595" y1="170.07926" x2="320.00595" y2="309.66652" gradientUnits="userSpaceOnUse" id="color-2"><stop offset="0" stop-color="#000000" stop-opacity="0.29804"/><stop offset="1" stop-color="#000000" stop-opacity="0"/></linearGradient><linearGradient x1="319.78774" y1="170.64615" x2="319.78774" y2="209.259" gradientUnits="userSpaceOnUse" id="color-3"><stop offset="0" stop-color="#e8c8e5"/><stop offset="1" stop-color="#e8c8e5" stop-opacity="0"/></linearGradient><linearGradient x1="303.75489" y1="153.59371" x2="337.34394" y2="215.44829" gradientUnits="userSpaceOnUse" id="color-4"><stop offset="0" stop-color="#cecece"/><stop offset="1" stop-color="#9b9b9b"/></linearGradient><linearGradient x1="339.87293" y1="185.14776" x2="300.22046" y2="247.00235" gradientUnits="userSpaceOnUse" id="color-5"><stop offset="0" stop-color="#cecece"/><stop offset="1" stop-color="#9b9b9b"/></linearGradient><linearGradient x1="339.10814" y1="216.82412" x2="299.61269" y2="278.6787" gradientUnits="userSpaceOnUse" id="color-6"><stop offset="0" stop-color="#cecece"/><stop offset="1" stop-color="#9b9b9b"/></linearGradient><linearGradient x1="296.63901" y1="248.37818" x2="343.26406" y2="310.23276" gradientUnits="userSpaceOnUse" id="color-7"><stop offset="0" stop-color="#cecece"/><stop offset="1" stop-color="#9b9b9b"/></linearGradient><linearGradient x1="261.86537" y1="183.91977" x2="291.53089" y2="154.25424" gradientUnits="userSpaceOnUse" id="color-8"><stop offset="0" stop-color="#d4a5e8"/><stop offset="1" stop-color="#a378ad"/></linearGradient><linearGradient x1="280.94207" y1="199.48671" x2="294.27185" y2="159.70727" gradientUnits="userSpaceOnUse" id="color-9"><stop offset="0" stop-color="#d4a5e8"/><stop offset="1" stop-color="#a378ad"/></linearGradient><linearGradient x1="253.8016" y1="169.01153" x2="289.99033" y2="147.78747" gradientUnits="userSpaceOnUse" id="color-10"><stop offset="0" stop-color="#d4a5e8"/><stop offset="1" stop-color="#a378ad"/></linearGradient><linearGradient x1="271.47272" y1="61.10605" x2="271.47272" y2="116.04022" gradientUnits="userSpaceOnUse" id="color-11"><stop offset="0" stop-color="#d4a5e8"/><stop offset="1" stop-color="#a378ad"/></linearGradient><linearGradient x1="368.40461" y1="61.10605" x2="368.40461" y2="116.04025" gradientUnits="userSpaceOnUse" id="color-12"><stop offset="0" stop-color="#742222"/><stop offset="1" stop-color="#0d0404"/></linearGradient><linearGradient x1="319.88401" y1="80.72078" x2="319.88401" y2="175.14412" gradientUnits="userSpaceOnUse" id="color-13"><stop offset="0" stop-color="#d4a5e8"/><stop offset="1" stop-color="#a378ad"/></linearGradient><linearGradient x1="319.88401" y1="84.34504" x2="319.88401" y2="158.11064" gradientUnits="userSpaceOnUse" id="color-14"><stop offset="0" stop-color="#e8c8e5"/><stop offset="1" stop-color="#e8c8e5" stop-opacity="0"/></linearGradient><linearGradient x1="319.88401" y1="80.85269" x2="319.88401" y2="175.27606" gradientUnits="userSpaceOnUse" id="color-15"><stop offset="0" stop-color="#000000" stop-opacity="0.39216"/><stop offset="1" stop-color="#000000" stop-opacity="0"/></linearGradient><linearGradient x1="311.27101" y1="156.39756" x2="311.27101" y2="162.31392" gradientUnits="userSpaceOnUse" id="color-16"><stop offset="0" stop-color="#000000"/><stop offset="1" stop-color="#ffffff"/></linearGradient><linearGradient x1="329.3667" y1="156.39756" x2="329.3667" y2="162.31392" gradientUnits="userSpaceOnUse" id="color-17"><stop offset="0" stop-color="#000000"/><stop offset="1" stop-color="#ffffff"/></linearGradient><linearGradient x1="311.27101" y1="165.61484" x2="311.27101" y2="171.53121" gradientUnits="userSpaceOnUse" id="color-18"><stop offset="0" stop-color="#ffffff"/><stop offset="1" stop-color="#000000"/></linearGradient><linearGradient x1="329.3667" y1="165.61484" x2="329.3667" y2="171.53121" gradientUnits="userSpaceOnUse" id="color-19"><stop offset="0" stop-color="#ffffff"/><stop offset="1" stop-color="#000000"/></linearGradient><radialGradient cx="292.30333" cy="125.3336" r="10.40168" gradientUnits="userSpaceOnUse" id="color-20"><stop offset="0" stop-color="#e8e8e8"/><stop offset="1" stop-color="#8f8f8f"/></radialGradient><linearGradient x1="333.51383" y1="80.7208" x2="333.51383" y2="151.59409" gradientUnits="userSpaceOnUse" id="color-21"><stop offset="0" stop-color="#742222"/><stop offset="1" stop-color="#0d0404"/></linearGradient><linearGradient x1="319.88401" y1="84.34504" x2="319.88401" y2="158.11064" gradientUnits="userSpaceOnUse" id="color-22"><stop offset="0" stop-color="#e8c8e5" stop-opacity="0.14902"/><stop offset="1" stop-color="#e8c8e5" stop-opacity="0"/></linearGradient><linearGradient x1="337.32097" y1="81.66058" x2="337.32097" y2="145.96772" gradientUnits="userSpaceOnUse" id="color-23"><stop offset="0" stop-color="#cecece"/><stop offset="1" stop-color="#9b9b9b"/></linearGradient><linearGradient x1="322.22276" y1="80.9056" x2="322.22276" y2="169.25834" gradientUnits="userSpaceOnUse" id="color-24"><stop offset="0" stop-color="#cecece"/><stop offset="1" stop-color="#9b9b9b"/></linearGradient></defs><g transform="translate(-252.61323,-61.10603)"><g stroke="none" stroke-miterlimit="10"><g stroke-width="0"><g><g><path d="M281.87129,309.66652l17.98805,-139.58728h41.01276l11.87211,139.58728z" fill="url(#color-1)"/><path d="M281.87129,309.66652l17.98805,-139.58728l-1.0016,76.55709l7.15614,11.63579l12.4922,6.79247l13.78305,-6.95249l6.97448,-10.46249l1.6085,-77.57037l11.87211,139.58729z" fill="url(#color-2)"/></g><path d="M299.03335,209.259l5.59886,-44.21171h31.46947l4.44048,44.21172z" fill="url(#color-3)"/></g><g><path d="M344.82633,201.114l-48.47509,-3.19853l-3.49946,-7.59847l1.73745,-7.95427l-1.33952,-8.64384l4.33015,-5.04759l46.50468,5.88172l3.69068,7.74262l-1.54543,3.80838l1.55616,7.18492z" fill="url(#color-4)"/><path d="M287.89349,224.84299l1.83708,-7.18492l-1.82441,-3.31917l4.35691,-7.74262l54.89958,-6.37094l5.11182,5.04759l-1.58133,5.95319l1.31727,7.22046l-4.86498,5.64162l-55.75805,8.57984z" fill="url(#color-5)"/></g><g><path d="M287.33455,256.51935l1.8298,-7.18492l-1.81719,-8.45588l4.33966,-7.74262l54.68218,-1.23423l5.09157,5.04759l-1.57507,8.64384l1.55376,4.52981l-3.6256,5.15241l-56.99907,9.06905z" fill="url(#color-6)"/><path d="M353.65038,307.15029l-67.28839,-14.45036l-4.8576,-7.59846l2.41176,-7.95427l-1.8594,-8.64384l6.01069,-5.04759l64.55326,1.23422l5.12304,7.74262l-2.14523,8.45588l2.16011,18.43676z" fill="url(#color-7)"/></g></g><g><g stroke-width="0"><path d="M298.43579,161.15915l-36.82617,22.50489l9.35908,-20.23744l13.65728,-16.07726z" fill="url(#color-8)"/><path d="M303.53085,162.80989l-22.93174,36.5619l-0.64416,-22.28747l5.05788,-20.47967z" fill="url(#color-9)"/><path d="M294.93043,156.21069l-41.31182,12.48885l14.16086,-17.22256l17.27079,-12.11277z" fill="url(#color-10)"/></g><g fill="none" stroke-width="1" font-family="sans-serif" font-weight="normal" font-size="12" text-anchor="start"/></g><path d="M258.07,90.58232l-1.9766,-7.35412l10.70573,1.71433l5.69337,-9.00866l-1.01977,-14.82784l11.58307,2.55456l8.31848,5.98183l5.8169,9.26577l1.74865,9.66493l-1.72219,9.59431l-4.88966,8.28103l-8.69874,6.76197l-12.1565,2.82979l-10.84206,-2.22274l-8.01746,-5.27529l8.92124,-6.13353z" fill="url(#color-11)" stroke-width="0"/><path d="M340.93753,88.57314l2.64455,-11.77436l5.48181,-7.7289l9.10899,-5.99486l10.23171,-1.96897l11.58306,2.55456l8.31849,5.98182l5.8169,9.26577l1.74865,9.66494l-1.72219,9.59431l-4.88964,8.28104l-8.69874,6.76197l-12.15651,2.82979l-10.84204,-2.22276l-8.01745,-5.27527l-6.95142,-10.55375z" fill="url(#color-12)" stroke-width="0"/><g stroke-width="0"><path d="M272.67233,127.93248l4.54557,-20.2383l9.42238,-13.28479l15.65698,-10.30422l17.58674,-3.38437l19.90951,4.39088l14.29819,10.28182l9.99835,15.92645l3.00563,16.61253l-2.96018,16.49113l-8.40457,14.2338l-14.95178,11.62278l-20.89514,4.86397l-18.63582,-3.82055l-13.78076,-9.06738l-11.9484,-18.14029z" fill="url(#color-13)"/><path d="M283.0012,121.22786l3.5511,-15.81061l7.36097,-10.37838l12.23158,-8.04989l13.73916,-2.64395l15.55375,3.43025l11.17007,8.03239l7.81093,12.4421l2.34807,12.97808l-2.31256,12.88323l-6.56584,11.11977l-11.68067,9.07998l-16.32375,3.79985l-14.55872,-2.9847l-10.76584,-7.08364l-9.33436,-14.1716z" fill="url(#color-14)"/><path d="M272.67233,128.06439l3.51099,-15.63205l2.6304,15.53397l12.07213,15.47847l13.15468,10.68657l16.41727,2.76275l20.00548,-4.14932l15.52268,-11.84573l6.57772,-12.97062l1.52637,-16.47657l3.00563,16.61253l-2.96018,16.49113l-8.40457,14.2338l-14.95178,11.62278l-20.89514,4.86397l-18.63583,-3.82055l-13.78075,-9.06739l-11.9484,-18.14029z" fill="url(#color-15)"/></g><path d="M325.71959,146.54071c0,0.75 -0.75,0.75 -0.75,0.75h-0.18073c-0.41493,0 -0.82935,-0.00403 -1.24341,-0.01088c-0.06748,0.01089 -0.11209,0.01088 -0.11209,0.01088l0.04844,-0.01196c-0.00108,-0.00002 -0.00216,-0.00003 -0.00324,-0.00005c-1.4752,0.32251 -2.04113,1.24235 -3.16198,2.17302c-0.18788,0.17287 -0.37441,0.21656 -0.53597,0.20194c-0.16569,-0.00155 -0.35126,-0.06626 -0.52413,-0.26673l-0.15889,-0.16778c-1.11948,-0.84307 -1.82214,-1.55912 -3.16281,-2.06879c0,0 -0.70001,-0.26924 -0.43077,-0.96925c0.13765,-0.35788 0.38788,-0.46242 0.59961,-0.47912c0.18633,-0.09201 0.3715,-0.09201 0.3715,-0.09201c2.77875,0 5.53488,0.18073 8.31376,0.18073h0.18073c0,0 0.75,0 0.75,0.75z" fill="#000000" stroke-width="0.5"/><path d="M283.42744,141.64506v-27.29327h27.29327v27.29327z" fill="#000000" stroke-width="0"/><path d="M283.42744,141.64506v-27.29327h27.29327v27.29327z" fill="#000000" stroke-width="0"/><path d="M299.90466,172.20439v-16.74565h40.68669v16.74565z" fill="#000000" stroke-width="0"/><g stroke-width="0.5"><g><path d="M315.54296,161.05593c-0.05931,-0.0346 -0.11003,-0.07146 -0.15322,-0.10988c-0.17102,0.10248 -0.37002,0.20629 -0.5994,0.31306l-0.77314,0.21143c0,0 -0.53343,0.14548 -0.80918,-0.27139c-0.03561,0.02433 -0.07281,0.04759 -0.11163,0.06973c-0.65649,0.37441 -2.36261,0.10544 -3.3095,0.19456c-0.19659,0.11768 -0.54963,0.23468 -0.90267,-0.11836c-0.00435,-0.00435 -0.00864,-0.00871 -0.01285,-0.01306c-0.80537,0.44345 -1.94288,0.49808 -2.81158,0.50366c-0.16296,0.13119 -0.41072,0.22314 -0.75095,0.06849c-0.09907,-0.04503 -0.17724,-0.09791 -0.23847,-0.1554c-0.35753,0.17017 -0.85199,0.11273 -1.24973,0.21605l-0.05212,0.10302c0,0 -0.25404,0.15243 -0.5386,0.10601c-0.12947,0.10374 -0.31542,0.1704 -0.58054,0.12621c-0.7398,-0.1233 -0.6165,-0.86309 -0.6165,-0.86309c0.12305,-0.72662 0.51897,-3.33171 1.5025,-3.44975c0.84787,-0.10176 1.58771,0.65132 1.92774,1.53265c0.44117,-1.17024 1.04797,-2.57455 1.73137,-2.69877c0.669,-0.1216 1.73853,1.22015 2.26262,2.32917c0.46995,-1.14808 1.1863,-2.36551 2.47266,-2.12157c0.89333,0.16941 1.7128,1.27568 1.90043,2.35183c0.09179,-0.15847 0.18359,-0.31693 0.27538,-0.4754l0.39168,-0.78335c0.12026,-0.25368 0.37868,-0.42912 0.67809,-0.42912c0.33183,0 0.61333,0.2155 0.71218,0.51419l0.17338,0.48546c0.62572,-1.01573 1.43929,-2.18426 1.97819,-2.27797c1.8522,-0.32208 3.61976,4.08936 1.53917,4.96508c-0.31369,0.13203 -0.70356,0.15102 -1.10456,0.12015c-0.11512,0.00518 -0.23989,0.00107 -0.3749,-0.01332c-0.33716,-0.03593 -0.59321,-0.09221 -0.78354,-0.16328c-0.05373,-0.01012 -0.10628,-0.01997 -0.15743,-0.02932h-0.96588c-0.16835,0 -0.32374,-0.05547 -0.44891,-0.14912c-0.06347,-0.01899 -0.13021,-0.04782 -0.20009,-0.08859z" fill="url(#color-16)"/><path d="M324.89464,161.14452c-0.12516,0.09366 -0.28055,0.14912 -0.4489,0.14912h-0.96588c-0.05115,0.00935 -0.10369,0.0192 -0.15742,0.02932c-0.19032,0.07107 -0.44637,0.12735 -0.78354,0.16328c-0.13502,0.01439 -0.25978,0.01849 -0.3749,0.01332c-0.401,0.03087 -0.79088,0.01188 -1.10456,-0.12015c-2.08058,-0.87572 -0.31303,-5.28716 1.53917,-4.96508c0.5389,0.09371 1.35247,1.26224 1.9782,2.27797l0.17338,-0.48546c0.09884,-0.29869 0.38034,-0.5142 0.71218,-0.5142c0.2994,0 0.55783,0.17544 0.67809,0.42912l0.39167,0.78335c0.09179,0.15847 0.18359,0.31693 0.27539,0.4754c0.18763,-1.07615 1.0071,-2.18242 1.90042,-2.35183c1.28636,-0.24394 2.00271,0.97349 2.47267,2.12157c0.52409,-1.10901 1.59362,-2.45077 2.26262,-2.32917c0.6834,0.12421 1.29019,1.52853 1.73136,2.69877c0.34004,-0.88134 1.07988,-1.63441 1.92775,-1.53265c0.98353,0.11804 1.37944,2.72312 1.50249,3.44975c0,0 0.1233,0.73979 -0.61649,0.86309c-0.26513,0.04419 -0.45107,-0.02248 -0.58054,-0.12622c-0.28455,0.04641 -0.5386,-0.10601 -0.5386,-0.10601l-0.05212,-0.10302c-0.39774,-0.10333 -0.8922,-0.04588 -1.24973,-0.21605c-0.06124,0.05749 -0.13939,0.11036 -0.23847,0.1554c-0.34024,0.15465 -0.58799,0.0627 -0.75095,-0.06849c-0.8687,-0.00557 -2.00621,-0.06021 -2.81158,-0.50366c-0.00421,0.00436 -0.00849,0.0087 -0.01284,0.01306c-0.35304,0.35304 -0.70608,0.23605 -0.90267,0.11837c-0.94689,-0.08912 -2.65301,0.17985 -3.3095,-0.19456c-0.03882,-0.02214 -0.07602,-0.04541 -0.11163,-0.06973c-0.27575,0.41688 -0.80919,0.2714 -0.80919,0.2714l-0.77314,-0.21143c-0.22938,-0.10677 -0.42838,-0.21058 -0.5994,-0.31306c-0.0432,0.03842 -0.09391,0.07528 -0.15322,0.10988c-0.06988,0.04076 -0.13663,0.0696 -0.2001,0.08859z" fill="url(#color-17)"/></g><g><path d="M315.74307,166.78422c0.12516,-0.09366 0.28056,-0.14912 0.44891,-0.14912h0.96587c0.05115,-0.00935 0.10369,-0.0192 0.15742,-0.02932c0.19032,-0.07107 0.44637,-0.12735 0.78354,-0.16328c0.13502,-0.01439 0.25979,-0.01849 0.37491,-0.01332c0.401,-0.03087 0.79087,-0.01188 1.10456,0.12015c2.08058,0.87572 0.31303,5.28716 -1.53917,4.96508c-0.5389,-0.09371 -1.35246,-1.26224 -1.97819,-2.27797l-0.17338,0.48546c-0.09884,0.29869 -0.38034,0.5142 -0.71218,0.5142c-0.2994,0 -0.55783,-0.17544 -0.67809,-0.42912l-0.39168,-0.78335c-0.09179,-0.15847 -0.18359,-0.31693 -0.27538,-0.4754c-0.18763,1.07616 -1.00711,2.18242 -1.90043,2.35183c-1.28636,0.24394 -2.0027,-0.97349 -2.47266,-2.12157c-0.52409,1.10901 -1.59362,2.45077 -2.26262,2.32917c-0.6834,-0.12421 -1.2902,-1.52853 -1.73137,-2.69877c-0.34004,0.88134 -1.07988,1.63441 -1.92774,1.53265c-0.98353,-0.11804 -1.37945,-2.72312 -1.5025,-3.44975c0,0 -0.12329,-0.73979 0.6165,-0.86309c0.26513,-0.04419 0.45107,0.02248 0.58054,0.12622c0.28455,-0.04641 0.53859,0.10601 0.53859,0.10601l0.05212,0.10302c0.39774,0.10333 0.8922,0.04588 1.24973,0.21605c0.06124,-0.05749 0.1394,-0.11036 0.23847,-0.1554c0.34024,-0.15465 0.58799,-0.0627 0.75095,0.06849c0.8687,0.00557 2.00621,0.06021 2.81158,0.50366c0.00421,-0.00436 0.0085,-0.0087 0.01285,-0.01306c0.35304,-0.35304 0.70608,-0.23605 0.90267,-0.11837c0.94689,0.08912 2.65301,-0.17985 3.3095,0.19456c0.03882,0.02214 0.07601,0.04541 0.11163,0.06973c0.27575,-0.41688 0.80919,-0.2714 0.80919,-0.2714l0.77314,0.21143c0.22938,0.10677 0.42838,0.21058 0.5994,0.31306c0.0432,-0.03842 0.09391,-0.07528 0.15322,-0.10988c0.06988,-0.04076 0.13663,-0.0696 0.20009,-0.08859z" fill="url(#color-18)"/><path d="M325.09477,166.87282c0.05931,0.0346 0.11002,0.07146 0.15322,0.10988c0.17102,-0.10248 0.37002,-0.20629 0.5994,-0.31306l0.77314,-0.21143c0,0 0.53343,-0.14548 0.80919,0.2714c0.03562,-0.02433 0.07281,-0.04759 0.11163,-0.06973c0.6565,-0.3744 2.36261,-0.10543 3.3095,-0.19456c0.19659,-0.11768 0.54963,-0.23467 0.90267,0.11837c0.00435,0.00436 0.00863,0.0087 0.01284,0.01306c0.80537,-0.44344 1.94288,-0.49809 2.81158,-0.50366c0.16296,-0.13119 0.41072,-0.22314 0.75095,-0.06849c0.09908,0.04504 0.17723,0.0979 0.23847,0.1554c0.35753,-0.17017 0.85199,-0.11272 1.24973,-0.21605l0.05212,-0.10302c0,0 0.25405,-0.15242 0.5386,-0.10601c0.12947,-0.10374 0.31542,-0.1704 0.58054,-0.12622c0.7398,0.1233 0.61649,0.86309 0.61649,0.86309c-0.12305,0.72663 -0.51896,3.3317 -1.50249,3.44975c-0.84787,0.10176 -1.58771,-0.65131 -1.92775,-1.53265c-0.44117,1.17024 -1.04796,2.57455 -1.73136,2.69877c-0.669,0.1216 -1.73853,-1.22015 -2.26262,-2.32917c-0.46996,1.14808 -1.18631,2.36551 -2.47267,2.12157c-0.89333,-0.16941 -1.71279,-1.27568 -1.90042,-2.35183c-0.09179,0.15847 -0.18359,0.31693 -0.27539,0.4754l-0.39167,0.78335c-0.12026,0.25368 -0.37869,0.42912 -0.67809,0.42912c-0.33184,0 -0.61333,-0.21551 -0.71218,-0.5142l-0.17338,-0.48546c-0.62572,1.01573 -1.43929,2.18426 -1.9782,2.27797c-1.8522,0.32208 -3.61975,-4.08936 -1.53917,-4.96508c0.31369,-0.13203 0.70356,-0.15102 1.10456,-0.12015c0.11512,-0.00518 0.23988,-0.00107 0.3749,0.01332c0.33717,0.03592 0.59322,0.09221 0.78354,0.16328c0.05374,0.01012 0.10628,0.01997 0.15742,0.02932h0.96588c0.16835,0 0.32374,0.05547 0.4489,0.14912c0.06347,0.01899 0.13021,0.04783 0.2001,0.08859z" fill="url(#color-19)"/></g></g><path d="M297.43402,134.00588c0.75,0 0.75,0.75 0.75,0.75l-0.00372,0.60533c-0.07421,0.73728 -0.19729,1.46413 -0.3439,2.18492c-0.22742,2.31344 -0.75311,4.56518 -1.29604,6.80006c-0.05151,0.89507 -0.01695,1.80195 0.15111,2.72882c0.40229,4.38843 -0.00319,8.92075 0.78055,13.26928c0.53064,2.94423 1.59093,5.76097 2.38218,8.62022c0.24667,0.32398 0.46146,0.67759 0.61713,1.08479l0.18085,0.35249c0,0 0.33541,0.67082 -0.33541,1.00623c-0.14337,0.07169 -0.27142,0.09741 -0.38415,0.09354c-0.06088,0.03052 -0.13143,0.05577 -0.21312,0.07392c-0.73214,0.1627 -0.89484,-0.56944 -0.89484,-0.56944c-0.11115,-0.51103 -0.23699,-1.01975 -0.3728,-1.52705c-0.27476,-0.36189 -0.59206,-0.69003 -0.91307,-1.01853c0.24693,0.62633 0.42827,1.28131 0.43294,2.06446c0,0 0,0.75 -0.75,0.75c-0.0726,0 -0.13818,-0.00703 -0.1974,-0.01972c-0.41207,0.14547 -0.75749,-0.19995 -0.75749,-0.19995l-0.47345,-0.54414c-0.72212,-1.63341 -0.88857,-3.46367 -1.06402,-5.2895c-0.36864,-1.51222 -0.57096,-3.13034 -0.68057,-4.74624c-1.59827,-5.61951 -3.36689,-11.53815 -1.91323,-16.95576c0.25779,-1.8302 0.62273,-3.52626 0.62127,-5.38131v-0.83507c0,0 0,-0.75 0.75,-0.75c0.43283,0 0.61587,0.24979 0.69328,0.46106c0.07516,-0.02315 0.16189,-0.03651 0.26198,-0.03651c0.75,0 0.75,0.75 0.75,0.75c0,1.39641 0.01859,2.79248 0.04939,4.18822c0.12143,-0.39121 0.24262,-0.78281 0.35821,-1.1749c0.23244,-1.06654 0.49514,-2.13217 0.71061,-3.21479c0.01489,-0.13042 0.02758,-0.26092 0.03787,-0.39151c0,0 0.01256,-0.15076 0.09411,-0.31122c0.09332,-0.53157 0.17146,-1.0681 0.22544,-1.61164l-0.00372,-0.45607c0,0 0,-0.75 0.75,-0.75zM295.8277,159.72652c0.016,0.04925 0.03168,0.09862 0.04707,0.14813c-0.01738,-0.11576 -0.03401,-0.23163 -0.04994,-0.3476c0.00099,0.06649 0.00195,0.13298 0.00287,0.19948zM297.29573,165.72179c0.04013,0.11045 0.0849,0.21693 0.13374,0.31996c-0.22652,-0.72963 -0.45168,-1.46061 -0.66137,-2.19566c0.14254,0.63958 0.30736,1.26949 0.52763,1.8757zM293.60445,143.8236c-0.71397,2.57243 -0.63773,5.30476 -0.18557,8.07448c0.07107,-1.50342 0.24865,-3.00429 0.49619,-4.46519c-0.05494,-1.57306 -0.10448,-3.14661 -0.14086,-4.72095c-0.05782,0.36702 -0.11554,0.73686 -0.16976,1.11166z" fill="#000000" stroke-width="0.5"/><path d="M303.22418,169.80891c0.00248,-0.75 0.75247,-0.74752 0.75247,-0.74752l0.56428,0.00186c2.94871,0.01473 6.42231,0.62933 9.0025,2.39512c0.13418,0.0166 0.26471,0.02436 0.39098,0.02134c0.49883,-0.01194 2.36191,-0.01949 2.55927,0.21967c0.43326,0.52504 0.17739,1.35092 0.21967,2.03033c0.0186,0.29897 0.04118,0.59731 0.06646,0.89517c-0.06461,-1.86342 0.14557,-3.57828 1.21186,-4.15452c1.52011,-0.82148 1.78602,0.7267 3.21814,0.32864c0.52422,-0.14571 0.64686,-1.00643 1.17637,-1.1316c0.46211,-0.10924 0.94002,0.13515 1.41003,0.20273c1.82278,1.07173 2.14844,0.8341 3.94071,0.87243c0.59473,0.01272 1.03473,0.82259 1.62385,0.74018c0.12041,-0.01684 0.23971,-0.09546 0.35595,-0.18884c0.31808,-0.43931 0.7371,-0.76338 1.27981,-0.91526c0.32764,-0.09169 1.08001,0.85381 1.55509,0.93669c1.12904,0.19697 2.29955,-1.34078 3.33284,-0.84496c0.42724,0.20501 0.69402,0.51359 0.85973,0.87845c0.29313,-0.43695 0.58046,-0.81461 0.75303,-1.0447l0.63349,-0.40527c0,0 0.67082,-0.33541 1.00623,0.33541c0.33541,0.67082 -0.33541,1.00623 -0.33541,1.00623l-0.10431,-0.03637c-0.81927,1.09237 -1.15257,2.22464 -1.69449,3.33752v0.04285l0.16206,0.04051l-0.18064,0.72258c-0.07579,0.33399 -0.37449,0.58332 -0.73141,0.58332c-0.41421,0 -0.75,-0.33579 -0.75,-0.75v-1.10095c-0.00963,-0.48611 -0.01728,-1.68414 -0.11043,-2.07869c-0.03724,-0.15775 -0.23165,-0.52744 -0.30177,-0.3813c-0.24523,0.51102 -0.69285,1.03975 -1.24777,1.15525c-0.53382,0.1111 -1.09969,0.09959 -1.63577,0c-0.44926,-0.08346 -0.98704,-1.36298 -1.02719,-0.9078c-0.00491,0.05564 -0.01048,0.11425 -0.01671,0.17557c0.31582,0.89576 0.18293,1.98608 -0.01841,3.04727c0.13894,0.17562 0.2531,0.45852 0.03326,0.82493c-0.07694,0.12823 -0.16411,0.21555 -0.25436,0.27318c-0.11352,0.56788 -0.20656,1.10191 -0.21217,1.56269l-0.12261,0.13135l0.0635,0.03175l-0.36163,0.72326c-0.12026,0.25368 -0.37868,0.42912 -0.67809,0.42912c-0.38198,0 -0.69727,-0.28556 -0.74402,-0.65485l-0.18289,-1.28023l0.31815,-0.04545c-0.10254,-0.66968 -0.16849,-1.41874 -0.16637,-2.16829c-0.66034,-1.49477 -2.5061,-1.74422 -4.10242,-1.09333c-2.62551,1.07053 -4.63721,3.83796 -5.99974,6.35561c-0.14048,1.68725 -0.45551,3.35057 -0.92712,4.98248c0.00224,0.05431 0.00418,0.10868 0.00581,0.16312h0.00608v1.29114c0,0.41421 -0.33579,0.75 -0.75,0.75c-0.41421,0 -0.75,-0.33579 -0.75,-0.75v-0.99097c-0.00467,-1.56752 -0.3273,-3.09339 -0.55139,-4.64836c-0.00064,-1.89346 -0.49969,-3.61348 -0.55108,-5.46945c-0.46055,-0.6592 -0.85759,-1.34468 -1.45241,-1.93588c-0.22103,-0.21968 -0.45588,-0.42469 -0.70258,-0.61583c-0.1653,-0.00596 -0.27615,-0.01144 -0.28759,-0.01501c-0.85313,-0.26613 -3.11515,-1.54098 -4.08704,-1.1253c-0.55677,0.23813 -0.83378,1.09246 -0.99802,2.11997c0.14983,0.81947 0.16987,1.70068 0.16987,2.53614v1.10669c0,0.41421 -0.33579,0.75 -0.75,0.75c-0.41421,0 -0.75,-0.33579 -0.75,-0.75v-1.10669c0,-0.10845 0.00113,-0.22324 0.00238,-0.34292c-0.2328,-0.54995 -0.26167,-1.35038 -0.13798,-2.18134c-0.18256,-0.83841 -0.59414,-1.54605 -1.50969,-1.72826c0,0 -0.72761,-0.1819 -0.54571,-0.90951c0.1819,-0.72761 0.90951,-0.54571 0.90951,-0.54571c0.79112,0.22176 1.35799,0.61782 1.76394,1.12617c0.20856,-0.43489 0.45647,-0.81289 0.73255,-1.08612c-1.04215,-0.16573 -2.07931,-0.23649 -3.04124,-0.24112l-0.56187,-0.00185c0,0 -0.75,-0.00248 -0.74752,-0.75247zM315.43303,172.76004c-0.05265,-0.11071 -0.17511,-0.02189 -0.30853,0.07419c0.15343,0.18046 0.29165,0.36622 0.42225,0.55443c0.00967,-0.21752 -0.01853,-0.42848 -0.11372,-0.62862zM324.161,172.43854c0.32004,-0.12612 0.67785,-0.22594 1.05543,-0.29449c-0.58194,-0.13521 -1.18135,-0.39557 -1.96111,-0.87485c-0.96126,-0.36766 -0.39829,0.62556 -1.47148,0.91561c-0.99124,0.2679 -2.2088,-0.99349 -3.05312,-0.40916c-0.96772,0.66973 -0.06571,3.541 0.00793,4.43802c0.02709,0.32999 0.04724,0.65932 0.06058,0.98793c1.40278,-2.04111 3.19395,-3.90874 5.36177,-4.76306z" fill="#000000" stroke-width="0.5"/><g stroke-width="0"><path d="M285.76411,127.78615c0,-5.74469 4.65699,-10.40168 10.40168,-10.40168c5.74469,0 10.40168,4.65699 10.40168,10.40168c0,5.74469 -4.65699,10.40168 -10.40168,10.40168c-5.74469,0 -10.40168,-4.65699 -10.40168,-10.40168z" fill="url(#color-20)"/><path d="M285.14988,128.97826c0,-5.34323 4.33154,-9.67478 9.67478,-9.67478c5.34323,0 9.67478,4.33154 9.67478,9.67478c0,5.34323 -4.33154,9.67478 -9.67478,9.67478c-5.34323,0 -9.67478,-4.33154 -9.67478,-9.67478z" fill="#000000"/></g><g stroke-width="0"><path d="M302.29728,84.10517l17.58674,-3.38437l19.90951,4.39088l14.29819,10.28182l9.99835,15.92645l3.00563,16.61253l-2.96018,16.49113l-4.23392,7.17048c-11.49413,-11.7758 -22.76715,-23.7497 -33.99293,-35.78346c-4.54573,-4.87292 -8.78997,-9.99612 -13.21822,-14.97356c-4.48352,-5.03956 -9.0191,-9.67136 -12.75844,-15.17526z" fill="url(#color-21)"/><path d="M306.14484,86.98898l13.73916,-2.64395l15.55375,3.43025l11.17007,8.03239l7.81093,12.4421l2.34807,12.97808l-2.31256,12.88323l-4.34343,7.35594c-8.13382,-8.48793 -16.18007,-17.05687 -24.20219,-25.65639c-4.54573,-4.87292 -8.78997,-9.99612 -13.21822,-14.97356c-3.45866,-3.88759 -6.94829,-7.53253 -10.07949,-11.52235z" fill="url(#color-22)"/></g><path d="M354.51053,149.25l-52.62603,-58.99875l0.70572,-7.15315l6.81989,-1.05486l3.77693,-4.99094l7.96194,3.17526l51.60844,55.88007l-0.57855,7.43757l-6.9104,1.4806l-2.64095,4.67592z" fill="url(#color-23)" stroke-width="0"/><path d="M342.2972,169.25834l-61.45811,-67.25331l0.82416,-10.013l7.96446,-3.23844l4.4108,-7.84799l9.29818,2.27378l60.26975,63.23545l-0.67564,10.37039l-8.07015,3.84713l-3.08418,7.11717z" fill="url(#color-24)" stroke-width="0"/></g></g></svg>