<svg version="1.1" xmlns="http://www.w3.org/2000/svg" xmlns:xlink="http://www.w3.org/1999/xlink" width="646.2248" height="506.19482" viewBox="0,0,646.2248,506.19482"><defs><radialGradient cx="102.85681" cy="249.91941" r="105.56231" gradientUnits="userSpaceOnUse" id="color-1"><stop offset="0" stop-color="#ff6000"/><stop offset="1" stop-color="#ff0000"/></radialGradient><radialGradient cx="199.30172" cy="245.9364" r="105.70734" gradientUnits="userSpaceOnUse" id="color-2"><stop offset="0" stop-color="#67ff00"/><stop offset="1" stop-color="#67ff00" stop-opacity="0"/></radialGradient><radialGradient cx="281.24539" cy="245.55108" r="105.70734" gradientUnits="userSpaceOnUse" id="color-3"><stop offset="0" stop-color="#00f5ff"/><stop offset="1" stop-color="#00f5ff" stop-opacity="0"/></radialGradient><radialGradient cx="377.83534" cy="245.45858" r="105.70734" gradientUnits="userSpaceOnUse" id="color-4"><stop offset="0" stop-color="#0e00ff"/><stop offset="1" stop-color="#0e00ff" stop-opacity="0"/></radialGradient><radialGradient cx="440.93198" cy="245.59702" r="105.70734" gradientUnits="userSpaceOnUse" id="color-5"><stop offset="0" stop-color="#ec00ff"/><stop offset="1" stop-color="#ec00ff" stop-opacity="0"/></radialGradient><radialGradient cx="535.90339" cy="250.04528" r="104.08882" gradientUnits="userSpaceOnUse" id="color-6"><stop offset="0" stop-color="#ff00d4"/><stop offset="1" stop-color="#ff00d4" stop-opacity="0"/></radialGradient><radialGradient cx="102.79207" cy="322.08445" r="105.70734" gradientUnits="userSpaceOnUse" id="color-7"><stop offset="0" stop-color="#ffad00"/><stop offset="1" stop-color="#ffad00" stop-opacity="0"/></radialGradient><radialGradient cx="199.38202" cy="322.23813" r="105.70734" gradientUnits="userSpaceOnUse" id="color-8"><stop offset="0" stop-color="#6aff00"/><stop offset="1" stop-color="#6aff00" stop-opacity="0"/></radialGradient><radialGradient cx="281.32568" cy="321.86994" r="105.70734" gradientUnits="userSpaceOnUse" id="color-9"><stop offset="0" stop-color="#00f5ff"/><stop offset="1" stop-color="#00f5ff" stop-opacity="0"/></radialGradient><radialGradient cx="377.91563" cy="321.65545" r="105.70734" gradientUnits="userSpaceOnUse" id="color-10"><stop offset="0" stop-color="#0061ff"/><stop offset="1" stop-color="#0061ff" stop-opacity="0"/></radialGradient><radialGradient cx="441.01226" cy="321.81427" r="105.70734" gradientUnits="userSpaceOnUse" id="color-11"><stop offset="0" stop-color="#a200ff"/><stop offset="1" stop-color="#a200ff" stop-opacity="0"/></radialGradient><radialGradient cx="537.60219" cy="322.33613" r="105.70733" gradientUnits="userSpaceOnUse" id="color-12"><stop offset="0" stop-color="#f800ff"/><stop offset="1" stop-color="#f800ff" stop-opacity="0"/></radialGradient><radialGradient cx="102.79207" cy="401.69984" r="105.70734" gradientUnits="userSpaceOnUse" id="color-13"><stop offset="0" stop-color="#ffad00"/><stop offset="1" stop-color="#ffad00" stop-opacity="0"/></radialGradient><radialGradient cx="199.38202" cy="401.85351" r="105.70734" gradientUnits="userSpaceOnUse" id="color-14"><stop offset="0" stop-color="#6aff00"/><stop offset="1" stop-color="#6aff00" stop-opacity="0"/></radialGradient><radialGradient cx="281.32568" cy="401.48533" r="105.70734" gradientUnits="userSpaceOnUse" id="color-15"><stop offset="0" stop-color="#00f5ff"/><stop offset="1" stop-color="#00f5ff" stop-opacity="0"/></radialGradient><radialGradient cx="377.91563" cy="401.27083" r="105.70734" gradientUnits="userSpaceOnUse" id="color-16"><stop offset="0" stop-color="#0061ff"/><stop offset="1" stop-color="#0061ff" stop-opacity="0"/></radialGradient><radialGradient cx="441.01226" cy="401.42966" r="105.70734" gradientUnits="userSpaceOnUse" id="color-17"><stop offset="0" stop-color="#a200ff"/><stop offset="1" stop-color="#a200ff" stop-opacity="0"/></radialGradient><radialGradient cx="537.60219" cy="401.95152" r="105.70733" gradientUnits="userSpaceOnUse" id="color-18"><stop offset="0" stop-color="#f800ff"/><stop offset="1" stop-color="#f800ff" stop-opacity="0"/></radialGradient><radialGradient cx="105.5955" cy="55.02728" r="105.3501" gradientUnits="userSpaceOnUse" id="color-19"><stop offset="0" stop-color="#ff8800"/><stop offset="1" stop-color="#ff8800" stop-opacity="0"/></radialGradient><radialGradient cx="201.82821" cy="50.92383" r="105.70734" gradientUnits="userSpaceOnUse" id="color-20"><stop offset="0" stop-color="#5dff00"/><stop offset="1" stop-color="#5dff00" stop-opacity="0"/></radialGradient><radialGradient cx="283.77187" cy="50.92383" r="105.70734" gradientUnits="userSpaceOnUse" id="color-21"><stop offset="0" stop-color="#00fffc"/><stop offset="1" stop-color="#00fffc" stop-opacity="0"/></radialGradient><radialGradient cx="380.36182" cy="49.84434" r="105.70734" gradientUnits="userSpaceOnUse" id="color-22"><stop offset="0" stop-color="#003cff"/><stop offset="1" stop-color="#003cff" stop-opacity="0"/></radialGradient><radialGradient cx="443.45845" cy="49.91283" r="105.70734" gradientUnits="userSpaceOnUse" id="color-23"><stop offset="0" stop-color="#a200ff"/><stop offset="1" stop-color="#a200ff" stop-opacity="0"/></radialGradient><radialGradient cx="538.11874" cy="55.13581" r="103.77769" gradientUnits="userSpaceOnUse" id="color-24"><stop offset="0" stop-color="#ff00ed"/><stop offset="1" stop-color="#ff00ed" stop-opacity="0"/></radialGradient><radialGradient cx="104.14948" cy="-18.97157" r="105.44188" gradientUnits="userSpaceOnUse" id="color-25"><stop offset="0" stop-color="#ffad00"/><stop offset="1" stop-color="#ffad00" stop-opacity="0"/></radialGradient><radialGradient cx="200.49686" cy="-19.12524" r="105.44187" gradientUnits="userSpaceOnUse" id="color-26"><stop offset="0" stop-color="#6aff00"/><stop offset="1" stop-color="#6aff00" stop-opacity="0"/></radialGradient><radialGradient cx="282.23474" cy="-18.75706" r="105.44187" gradientUnits="userSpaceOnUse" id="color-27"><stop offset="0" stop-color="#00f5ff"/><stop offset="1" stop-color="#00f5ff" stop-opacity="0"/></radialGradient><radialGradient cx="378.58212" cy="-18.54256" r="105.44187" gradientUnits="userSpaceOnUse" id="color-28"><stop offset="0" stop-color="#0061ff"/><stop offset="1" stop-color="#0061ff" stop-opacity="0"/></radialGradient><radialGradient cx="441.52029" cy="-18.70139" r="105.44188" gradientUnits="userSpaceOnUse" id="color-29"><stop offset="0" stop-color="#a200ff"/><stop offset="1" stop-color="#a200ff" stop-opacity="0"/></radialGradient><radialGradient cx="537.86766" cy="-19.22325" r="105.44187" gradientUnits="userSpaceOnUse" id="color-30"><stop offset="0" stop-color="#f800ff"/><stop offset="1" stop-color="#f800ff" stop-opacity="0"/></radialGradient></defs><g transform="translate(2.91527,61.73327)"><g stroke="none" stroke-width="0" stroke-miterlimit="10"><path d="" fill="#ff0000"/><path d="" fill="#ff0000"/><g><g><path d="M579.14806,218.88846c46.49942,0 60.84416,26.45687 60.84416,26.45687v113.55837h-53.21184c-45.82292,36.51763 -148.03825,61.93711 -266.78029,61.93711c-118.74202,0 -220.95735,-25.41947 -266.78028,-61.9371h-55.92529v-113.55837c0,0 14.34474,-26.45687 60.84416,-26.45687c10.24902,0 39.88829,9.68424 70.7744,17.33118c51.25603,-15.9035 118.04476,-25.52198 191.08702,-25.52198c72.46827,0 138.78091,9.4679 189.87579,25.14822c30.34051,-7.58487 59.18943,-16.95743 69.27217,-16.95743z" fill="#ff0000"/><g><path d="M579.14806,218.88846c46.49942,0 60.84416,26.45687 60.84416,26.45687v35.31083h-642.6977v-35.31082c0,0 14.34474,-26.45687 60.84416,-26.45687c10.24902,0 39.88829,9.68424 70.7744,17.33118c51.25603,-15.9035 118.04476,-25.52198 191.08702,-25.52198c72.46827,0 138.78091,9.4679 189.87579,25.14822c30.34051,-7.58487 59.18943,-16.95743 69.27217,-16.95743z" fill="#ff0000"/><path d="M-2.70549,245.34534c0,0 14.34474,-26.45687 60.84416,-26.45687c10.24902,0 39.88829,9.68424 70.7744,17.33118c23.52827,-7.30025 50.32946,-13.27616 79.50606,-17.60532v62.61016h-211.12462z" fill="url(#color-1)"/><path d="M128.91306,236.21965c47.72798,-14.80883 108.92395,-24.16809 176.096,-25.38636v70.20621h-211.41468v-54.22803c10.79802,2.96151 22.95851,6.34798 35.31868,9.40817z" fill="url(#color-2)"/><path d="M320.0001,210.69767c23.03662,0 45.4512,0.95675 66.95265,2.76566v66.94116l-211.41468,-0.00001v-56.01696c42.61583,-8.71299 91.92106,-13.68984 144.46203,-13.68984z" fill="url(#color-3)"/><path d="M320.0001,210.69767c60.58062,0 116.8595,6.61646 163.54259,17.94753v51.57429h-211.41468v-68.12131c15.57702,-0.92131 31.56878,-1.40051 47.87209,-1.40051z" fill="url(#color-4)"/><path d="M509.87589,235.84589c12.97805,-3.2444 25.68318,-6.81589 36.76343,-9.84103v54.35161l-211.41468,-0.00001v-69.5189c66.51359,1.22526 127.15676,10.43292 174.65125,25.00833z" fill="url(#color-5)"/><path d="M579.14806,218.88846c46.49942,0 60.84416,26.45687 60.84416,26.45687v36.09622h-208.17764v-62.79253c28.58684,4.25211 54.88903,10.08562 78.06131,17.19688c30.34051,-7.58487 59.18943,-16.95743 69.27217,-16.95743z" fill="url(#color-6)"/></g></g><g><path d="M-2.91527,363.93545v-83.94482h645.19557v83.94482z" fill="#ff0000"/><path d="M-2.91527,364.59446v-85.02004h211.41468v85.02004z" fill="url(#color-7)"/><path d="M93.67468,364.37996v-84.28368h211.41468v84.28368z" fill="url(#color-8)"/><path d="M175.61834,363.6436v-83.54732h211.41468v83.54733z" fill="url(#color-9)"/><path d="M272.20829,363.42911v-83.54732h211.41468v83.54733z" fill="url(#color-10)"/><path d="M335.30492,363.58793v-83.54732h211.41468v83.54733z" fill="url(#color-11)"/><path d="M431.89486,364.84615v-85.02004h211.41468v85.02004z" fill="url(#color-12)"/></g><g><path d="M-2.91527,443.55083v-83.94482h645.19557v83.94482z" fill="#ff0000"/><path d="M-2.91527,444.20984v-85.02004h211.41468v85.02004z" fill="url(#color-13)"/><path d="M93.67468,443.99535v-84.28368h211.41468v84.28368z" fill="url(#color-14)"/><path d="M175.61834,443.25899v-83.54731h211.41468v83.54733z" fill="url(#color-15)"/><path d="M272.20829,443.04449v-83.54732h211.41468v83.54733z" fill="url(#color-16)"/><path d="M335.30492,443.20332v-83.54732h211.41468v83.54733z" fill="url(#color-17)"/><path d="M431.89486,444.46154v-85.02004h211.41468v85.02004z" fill="url(#color-18)"/></g></g><g><g><path d="M0.2454,87.83785v-76.92308h190.43175c47.12007,-7.44822 128.98479,-13.3239 204.05358,0h247.1657v76.92308c0,0 -28.8354,-40.9683 -189.31574,-55.22764c2.43033,4.54845 1.15635,9.06542 0.39141,13.39417c-2.26166,12.79862 -12.57473,23.95179 -35.50793,29.40816c-23.06248,5.48712 -70.36855,-3.40527 -124.55088,-2.93522c-40.83325,0.35424 -85.5719,12.74018 -126.78232,2.93522h0.00001c-35.67101,-8.487 -30.52358,-17.60379 -32.87004,-26.20242c-0.82384,-3.01899 -0.98119,-5.97411 -0.48534,-8.81567c-114.8704,17.61228 -132.5302,47.4434 -132.5302,47.4434z" fill="#ff0000"/><path d="M452.97211,46.00438c-2.26166,12.79862 -12.57473,23.95179 -35.50793,29.40816c-23.06248,5.48712 -70.36855,-3.40527 -124.55088,-2.93522c-40.83325,0.35424 -85.5719,12.74018 -126.78232,2.93522h0.00001c-35.67101,-8.487 -30.52358,-17.60379 -32.87004,-26.20242c-0.82384,-3.01899 -0.98119,-5.97411 -0.48534,-8.81567c-114.8704,17.61228 -132.5302,47.4434 -132.5302,47.4434v-76.92308h190.43175c47.12007,-7.44822 128.98479,-13.3239 204.05358,0h247.1657v76.92308c0,0 -28.8354,-40.9683 -189.31574,-55.22764c2.43033,4.54845 1.15635,9.06542 0.39141,13.39417z" fill="#ff0000"/><g><path d="M0.2454,87.83785v-76.92308h190.43175c47.12007,-7.44822 128.98479,-13.3239 204.05358,0h247.1657v76.92308c0,0 -28.8354,-40.9683 -189.31574,-55.22764c2.43033,4.54845 1.15635,9.06542 0.39141,13.39417c-2.26166,12.79862 -12.57473,23.95179 -35.50793,29.40816c-23.06248,5.48712 -70.36855,-3.40527 -124.55088,-2.93522c-40.83325,0.35424 -85.5719,12.74018 -126.78232,2.93522h0.00001c-35.67101,-8.487 -30.52358,-17.60379 -32.87004,-26.20242c-0.82384,-3.01899 -0.98119,-5.97411 -0.48534,-8.81567c-114.8704,17.61228 -132.5302,47.4434 -132.5302,47.4434z" fill="#ff0000"/><path d="M0.2454,87.83785v-65.26219h641.65103v65.26219c0,0 -28.8354,-40.9683 -189.31574,-55.22764c2.43033,4.54845 1.15635,9.06542 0.39141,13.39417c-2.26166,12.79862 -12.57473,23.95179 -35.50793,29.40816c-23.06248,5.48712 -70.36855,-3.40527 -124.55088,-2.93522c-40.83325,0.35424 -85.5719,12.74018 -126.78232,2.93522h0.00001c-35.67101,-8.487 -30.52358,-17.60379 -32.87004,-26.20242c-0.82384,-3.01899 -0.98119,-5.97411 -0.48534,-8.81567c-114.8704,17.61228 -132.5302,47.4434 -132.5302,47.4434z" fill="#ff0000"/><path d="M0.2454,87.83785v-65.62113h210.7002v56.78226c-15.16077,0.5762 -30.20928,-0.11146 -44.81463,-3.58643h0.00001c-35.67101,-8.487 -30.52358,-17.60379 -32.87004,-26.20242c-0.82384,-3.01899 -0.98119,-5.97411 -0.48534,-8.81567c-114.8704,17.61228 -132.5302,47.4434 -132.5302,47.4434z" fill="url(#color-19)"/><path d="M292.91328,72.47732c-40.83325,0.35424 -85.5719,12.74018 -126.78232,2.93522h0.00001c-35.67101,-8.487 -30.52358,-17.60379 -32.87004,-26.20242c-0.82384,-3.01899 -0.98119,-5.97411 -0.48534,-8.81567c-13.52204,2.07324 -25.69703,4.3158 -36.65474,6.65908v-24.38675h211.41468v49.8972c-4.80828,-0.09461 -9.68674,-0.12948 -14.62225,-0.08666z" fill="url(#color-20)"/><path d="M292.91328,72.47732c-36.92172,0.32031 -77.03647,10.47762 -114.84876,5.17215v-54.98269h211.41468v54.40842c-25.12673,-0.79619 -59.21224,-4.92193 -96.56592,-4.59788z" fill="url(#color-21)"/><path d="M452.5807,32.61021c2.43033,4.54845 1.15635,9.06542 0.39141,13.39417c-2.26166,12.79862 -12.57473,23.95179 -35.50793,29.40816c-23.06248,5.48712 -70.36855,-3.40527 -124.55088,-2.93522c-6.00958,0.05213 -12.10375,0.36488 -18.25882,0.82913v-50.82467h211.41468v13.70318c-10.47045,-1.31943 -21.61941,-2.52015 -33.48846,-3.57476z" fill="url(#color-22)"/><path d="M452.5807,32.61021c2.43033,4.54845 1.15635,9.06542 0.39141,13.39417c-2.26166,12.79862 -12.57473,23.95179 -35.50793,29.40816c-16.39681,3.9012 -45.04836,0.53379 -79.71307,-1.56971v-51.22406h211.41468v24.47546c-25.15939,-5.78107 -56.83357,-10.95193 -96.58509,-14.48402z" fill="url(#color-23)"/><path d="M641.89644,87.83785c0,0 -28.8354,-40.9683 -189.31574,-55.22764c2.43033,4.54845 1.15635,9.06542 0.39141,13.39417c-1.60589,9.08765 -7.27106,17.34572 -18.63106,23.32388v-46.89448h207.55539z" fill="url(#color-24)"/></g></g><g><path d="M642.28289,-60.82256v83.94482h-643.57527v-83.94482z" fill="#ff0000"/><path d="M209.59137,-61.48157v85.02004h-210.88375v-85.02004z" fill="url(#color-25)"/><path d="M305.93872,-61.26708v84.28368h-210.88375v-84.28367z" fill="url(#color-26)"/><path d="M387.67662,-60.53073v83.54733h-210.88375v-83.54731z" fill="url(#color-27)"/><path d="M484.02399,-60.31622v83.54733h-210.88375v-83.54732z" fill="url(#color-28)"/><path d="M546.96217,-60.47506v83.54733h-210.88375v-83.54731z" fill="url(#color-29)"/><path d="M643.30954,-61.73327v85.02004h-210.88375v-85.02004z" fill="url(#color-30)"/></g></g></g></g></svg>