<svg version="1.1" xmlns="http://www.w3.org/2000/svg" xmlns:xlink="http://www.w3.org/1999/xlink" width="26.93821" height="26.93821" viewBox="0,0,26.93821,26.93821"><defs><radialGradient cx="320.71434" cy="172.14291" r="13.4691" gradientUnits="userSpaceOnUse" id="color-1"><stop offset="0" stop-color="#000000"/><stop offset="1" stop-color="#000000" stop-opacity="0"/></radialGradient><radialGradient cx="314.51316" cy="163.42114" r="10.92583" gradientUnits="userSpaceOnUse" id="color-2"><stop offset="0" stop-color="#a4a4a4"/><stop offset="1" stop-color="#4f4f4f"/></radialGradient><linearGradient x1="320.71434" y1="162.64544" x2="320.71434" y2="181.64037" gradientUnits="userSpaceOnUse" id="color-3"><stop offset="0" stop-color="#1c1c1c"/><stop offset="1" stop-color="#373737"/></linearGradient><radialGradient cx="323.52821" cy="168.21596" r="8.42886" gradientUnits="userSpaceOnUse" id="color-4"><stop offset="0" stop-color="#0e4873"/><stop offset="1" stop-color="#05092b"/></radialGradient><radialGradient cx="321.68161" cy="171.20308" r="7.34903" gradientUnits="userSpaceOnUse" id="color-5"><stop offset="0" stop-color="#7adaff" stop-opacity="0.73725"/><stop offset="1" stop-color="#7adaff" stop-opacity="0"/></radialGradient></defs><g transform="translate(-307.24522,-158.6738)"><g stroke="none" stroke-miterlimit="10"><g><path d="M334.18343,172.14291c0,7.43879 -6.03034,13.4691 -13.4691,13.4691c-7.43879,0 -13.46911,-6.03032 -13.46911,-13.4691c0,-7.43879 6.03033,-13.46911 13.46911,-13.46911c7.43879,0 13.4691,6.03032 13.4691,13.46911" fill="url(#color-1)" fill-rule="evenodd" stroke-width="0.07853" stroke-linecap="round" stroke-linejoin="round"/><path d="M331.64018,172.14291c0,6.03418 -4.89168,10.92583 -10.92584,10.92583c-6.03418,0 -10.92584,-4.89166 -10.92584,-10.92583c0,-6.03418 4.89166,-10.92584 10.92584,-10.92584c6.03418,0 10.92584,4.89167 10.92584,10.92584" fill="url(#color-2)" fill-rule="evenodd" stroke-width="0.07853" stroke-linecap="round" stroke-linejoin="round"/><path d="M330.21182,172.14291c0,5.24531 -4.25217,9.49746 -9.49746,9.49746c-5.24531,0 -9.49747,-4.25216 -9.49747,-9.49746c0,-5.24531 4.25216,-9.49747 9.49747,-9.49747c5.24531,0 9.49746,4.25216 9.49746,9.49747" fill="url(#color-3)" fill-rule="evenodd" stroke-width="0.07853" stroke-linecap="round" stroke-linejoin="round"/><path d="M329.1432,172.14291c0,4.65514 -3.77373,8.42886 -8.42886,8.42886c-4.65514,0 -8.42887,-3.77373 -8.42887,-8.42886c0,-4.65514 3.77373,-8.42887 8.42887,-8.42887c4.65514,0 8.42886,3.77373 8.42886,8.42887" fill="url(#color-4)" fill-rule="evenodd" stroke-width="0.07853" stroke-linecap="round" stroke-linejoin="round"/><path d="M328.06336,172.14291c0,4.05876 -3.29027,7.34903 -7.34902,7.34903c-4.05876,0 -7.34903,-3.29027 -7.34903,-7.34903c0,-4.05876 3.29027,-7.34903 7.34903,-7.34903c4.05876,0 7.34902,3.29027 7.34902,7.34903" fill="url(#color-5)" fill-rule="evenodd" stroke-width="0.07853" stroke-linecap="round" stroke-linejoin="round"/><text transform="translate(315.86528,174.14787) scale(0.16709,0.16709)" font-size="40" xml:space="preserve" fill="#ffffff" fill-rule="nonzero" stroke-width="1" stroke-linecap="butt" stroke-linejoin="miter" font-family="&quot;LowerResolution&quot;, Scratch" font-weight="normal" text-anchor="start"><tspan x="0" dy="0">Solo</tspan></text></g></g></g></svg>