<svg version="1.1" xmlns="http://www.w3.org/2000/svg" xmlns:xlink="http://www.w3.org/1999/xlink" width="47.04546" height="47.04546" viewBox="0,0,47.04546,47.04546"><defs><radialGradient cx="320.09618" cy="180.00003" r="23.52273" gradientUnits="userSpaceOnUse" id="color-1"><stop offset="0" stop-color="#000000" stop-opacity="0.68235"/><stop offset="1" stop-color="#000000" stop-opacity="0"/></radialGradient><linearGradient x1="320.00004" y1="162.6087" x2="320.00004" y2="197.39135" gradientUnits="userSpaceOnUse" id="color-2"><stop offset="0" stop-color="#dedede" stop-opacity="0.20784"/><stop offset="1" stop-color="#dedede" stop-opacity="0"/></linearGradient><linearGradient x1="320.09619" y1="162.6087" x2="320.09619" y2="197.39135" gradientUnits="userSpaceOnUse" id="color-3"><stop offset="0" stop-color="#292929" stop-opacity="0"/><stop offset="1" stop-color="#292929" stop-opacity="0.25098"/></linearGradient></defs><g transform="translate(-296.57345,-156.47729)"><g stroke="none" stroke-miterlimit="10"><path d="M296.57345,180.00003c0,-12.99124 10.53148,-23.52273 23.52273,-23.52273c12.99124,0 23.52273,10.53148 23.52273,23.52273c0,12.99124 -10.53148,23.52273 -23.52273,23.52273c-12.99124,0 -23.52273,-10.53148 -23.52273,-23.52273z" fill="url(#color-1)" stroke-width="0"/><path d="M302.60873,197.39133v-34.78261h34.78261v34.78261z" fill="#df69f0" stroke-width="0"/><g stroke-width="0"><path d="M302.60874,197.39135v-34.78261h34.78261l-2.48896,2.57975l-29.14148,0.24634l-0.30739,29.42558z" fill="url(#color-2)"/><path d="M337.4875,162.6087v34.78261h-34.78261l2.88669,-2.57975l28.74375,-0.24634l0.59148,-29.36876z" fill="url(#color-3)"/></g><path d="M312.66667,177.52044c0,-0.41421 0.33579,-0.75 0.75,-0.75c0.41421,0 0.75,0.33579 0.75,0.75c0,0.41421 -0.33579,0.75 -0.75,0.75c-0.41421,0 -0.75,-0.33579 -0.75,-0.75z" fill="#000000" stroke-width="0.5"/><path d="M325.31373,177.52044c0,-0.41421 0.33579,-0.75 0.75,-0.75c0.41421,0 0.75,0.33579 0.75,0.75c0,0.41421 -0.33579,0.75 -0.75,0.75c-0.41421,0 -0.75,-0.33579 -0.75,-0.75z" fill="#000000" stroke-width="0.5"/><path d="M321.6399,180.42265c0.48014,0.57617 -0.09603,1.0563 -0.09603,1.0563l-0.51866,0.42423c-1.96987,1.25105 -2.82185,1.71935 -4.56307,-0.20455c0,0 -0.50172,-0.55747 0.05575,-1.05919c0.55747,-0.50172 1.05919,0.05575 1.05919,0.05575c0.30947,0.34606 0.50726,0.86802 0.94477,1.02333c0.27248,0.09673 1.56506,-0.99604 1.69804,-1.08082l0.36369,-0.31107c0,0 0.57617,-0.48014 1.0563,0.09603z" fill="#000000" stroke-width="0.5"/><path d="M326.05325,183.8939c0.68536,-0.3046 0.98996,0.38075 0.98996,0.38075l0.27958,1.30178c-1.77512,2.93251 -7.13343,0.35312 -9.8937,0.48695c-1.58848,0.07702 -2.79452,0.91856 -4.5231,0.4104c-1.31924,-0.38783 -1.14123,-0.75589 -1.40369,-1.83389c0,0 -0.13416,-0.7379 0.60374,-0.87207c0.7379,-0.13416 0.87207,0.60374 0.87207,0.60374c0.05653,1.12329 1.64582,0.84345 2.54243,0.71466c2.63748,-0.37885 4.86044,0.1306 7.58802,0.13927c0.79146,0.00251 2.65243,0.52405 2.87259,-0.31989l-0.30866,-0.02175c0,0 -0.3046,-0.68536 0.38075,-0.98996z" fill="#000000" stroke-width="0.5"/><path d="M313.19609,173.04985c-0.75,0 -0.75,-0.75 -0.75,-0.75l0.00147,-0.76193c-0.09323,-0.73209 -0.22193,-1.4594 -0.35257,-2.18575c-0.31503,-1.03738 -0.2986,-3.02038 -1.16275,-3.77195c-1.86705,-1.62381 -4.36838,0.37083 -4.18061,2.54388c0.26476,3.06415 2.50249,5.01738 3.87094,7.57282c0,0 0.35294,0.66176 -0.30882,1.01471c-0.66176,0.35294 -1.01471,-0.30882 -1.01471,-0.30882c-1.61572,-3.04305 -4.96371,-5.98476 -3.96155,-9.87839c0.71112,-2.76285 4.48653,-3.89532 6.59305,-2.06375c1.25161,1.08825 1.16737,3.04718 1.6225,4.53925c0.14716,0.8119 0.28969,1.62541 0.39159,2.44423l0.00147,0.85571c0,0 0,0.75 -0.75,0.75z" fill="#000000" stroke-width="0.5"/><path d="M329.33675,175.95117c-0.41603,-0.62404 0.20801,-1.04006 0.20801,-1.04006l0.52179,-0.3409c1.08643,-0.53902 1.80666,-0.99782 2.55894,-1.94829c1.08369,-1.16661 1.74603,-2.95894 1.96025,-4.54414c0.07528,-0.55705 0.32672,-2.30364 -0.66833,-2.39836c-3.19564,-0.30419 -8.00284,4.23423 -8.28474,7.14443c0,0 -0.08282,0.74541 -0.82824,0.66259c-0.74541,-0.08282 -0.66259,-0.82824 -0.66259,-0.82824c0.41627,-3.4012 6.08735,-9.39922 10.09762,-8.4438c3.91038,0.93161 1.15841,7.55438 -0.47279,9.38103c-0.88197,1.0922 -1.77908,1.687 -3.02929,2.31642l-0.36056,0.24733c0,0 -0.62404,0.41603 -1.04006,-0.20801z" fill="#000000" stroke-width="0.5"/></g></g></svg>