<svg version="1.1" xmlns="http://www.w3.org/2000/svg" xmlns:xlink="http://www.w3.org/1999/xlink" width="151.86606" height="248.56052" viewBox="0,0,151.86606,248.56052"><defs><linearGradient x1="255.96297" y1="173.77504" x2="285.62849" y2="144.10951" gradientUnits="userSpaceOnUse" id="color-1"><stop offset="0" stop-color="#d4a5e8"/><stop offset="1" stop-color="#a378ad"/></linearGradient><linearGradient x1="275.03965" y1="189.34198" x2="288.36946" y2="149.56255" gradientUnits="userSpaceOnUse" id="color-2"><stop offset="0" stop-color="#d4a5e8"/><stop offset="1" stop-color="#a378ad"/></linearGradient><linearGradient x1="247.89918" y1="158.8668" x2="284.08794" y2="137.64274" gradientUnits="userSpaceOnUse" id="color-3"><stop offset="0" stop-color="#d4a5e8"/><stop offset="1" stop-color="#a378ad"/></linearGradient><linearGradient x1="384.30381" y1="173.77504" x2="354.63828" y2="144.10951" gradientUnits="userSpaceOnUse" id="color-4"><stop offset="0" stop-color="#d4a5e8"/><stop offset="1" stop-color="#a378ad"/></linearGradient><linearGradient x1="365.22713" y1="189.34198" x2="351.89732" y2="149.56255" gradientUnits="userSpaceOnUse" id="color-5"><stop offset="0" stop-color="#d4a5e8"/><stop offset="1" stop-color="#a378ad"/></linearGradient><linearGradient x1="392.36759" y1="158.8668" x2="356.17883" y2="137.64274" gradientUnits="userSpaceOnUse" id="color-6"><stop offset="0" stop-color="#d4a5e8"/><stop offset="1" stop-color="#a378ad"/></linearGradient><linearGradient x1="271.47268" y1="61.106" x2="271.47268" y2="116.04017" gradientUnits="userSpaceOnUse" id="color-7"><stop offset="0" stop-color="#d4a5e8"/><stop offset="1" stop-color="#a378ad"/></linearGradient><linearGradient x1="368.40455" y1="61.10601" x2="368.40455" y2="116.04018" gradientUnits="userSpaceOnUse" id="color-8"><stop offset="0" stop-color="#d4a5e8"/><stop offset="1" stop-color="#a378ad"/></linearGradient><linearGradient x1="320.00593" y1="170.07921" x2="320.00593" y2="309.6665" gradientUnits="userSpaceOnUse" id="color-9"><stop offset="0" stop-color="#d4a5e8"/><stop offset="1" stop-color="#a378ad"/></linearGradient><linearGradient x1="320.00593" y1="170.07921" x2="320.00593" y2="309.6665" gradientUnits="userSpaceOnUse" id="color-10"><stop offset="0" stop-color="#000000" stop-opacity="0.29804"/><stop offset="1" stop-color="#000000" stop-opacity="0"/></linearGradient><linearGradient x1="319.78774" y1="170.6461" x2="319.78774" y2="209.25895" gradientUnits="userSpaceOnUse" id="color-11"><stop offset="0" stop-color="#e8c8e5"/><stop offset="1" stop-color="#e8c8e5" stop-opacity="0"/></linearGradient><linearGradient x1="319.88401" y1="80.72074" x2="319.88401" y2="175.14408" gradientUnits="userSpaceOnUse" id="color-12"><stop offset="0" stop-color="#d4a5e8"/><stop offset="1" stop-color="#a378ad"/></linearGradient><linearGradient x1="319.88401" y1="84.34499" x2="319.88401" y2="158.1106" gradientUnits="userSpaceOnUse" id="color-13"><stop offset="0" stop-color="#e8c8e5"/><stop offset="1" stop-color="#e8c8e5" stop-opacity="0"/></linearGradient><linearGradient x1="319.88401" y1="80.85266" x2="319.88401" y2="175.27601" gradientUnits="userSpaceOnUse" id="color-14"><stop offset="0" stop-color="#000000" stop-opacity="0.39216"/><stop offset="1" stop-color="#000000" stop-opacity="0"/></linearGradient><radialGradient cx="303.57295" cy="119.39172" r="22.90147" gradientUnits="userSpaceOnUse" id="color-15"><stop offset="0" stop-color="#a5e2e8"/><stop offset="1" stop-color="#78abad"/></radialGradient><radialGradient cx="351.98755" cy="120.75551" r="22.47203" gradientUnits="userSpaceOnUse" id="color-16"><stop offset="0" stop-color="#a5e2e8"/><stop offset="1" stop-color="#78abad"/></radialGradient><linearGradient x1="344.77832" y1="105.21684" x2="344.77832" y2="148.61172" gradientUnits="userSpaceOnUse" id="color-17"><stop offset="0" stop-color="#ffffff" stop-opacity="0"/><stop offset="1" stop-color="#ffffff" stop-opacity="0.71765"/></linearGradient><linearGradient x1="294.73462" y1="103.2641" x2="294.73462" y2="149.06703" gradientUnits="userSpaceOnUse" id="color-18"><stop offset="0" stop-color="#ffffff" stop-opacity="0"/><stop offset="1" stop-color="#ffffff" stop-opacity="0.71765"/></linearGradient><linearGradient x1="344.77832" y1="105.21684" x2="344.77832" y2="148.61172" gradientUnits="userSpaceOnUse" id="color-19"><stop offset="0" stop-color="#ffffff" stop-opacity="0"/><stop offset="1" stop-color="#ffffff" stop-opacity="0.71765"/></linearGradient><linearGradient x1="344.77832" y1="105.21684" x2="344.77832" y2="148.61172" gradientUnits="userSpaceOnUse" id="color-20"><stop offset="0" stop-color="#ffffff" stop-opacity="0"/><stop offset="1" stop-color="#ffffff" stop-opacity="0.71765"/></linearGradient><linearGradient x1="294.73462" y1="103.2641" x2="294.73462" y2="149.06703" gradientUnits="userSpaceOnUse" id="color-21"><stop offset="0" stop-color="#ffffff" stop-opacity="0"/><stop offset="1" stop-color="#ffffff" stop-opacity="0.71765"/></linearGradient><linearGradient x1="294.73462" y1="103.2641" x2="294.73462" y2="149.06703" gradientUnits="userSpaceOnUse" id="color-22"><stop offset="0" stop-color="#ffffff" stop-opacity="0"/><stop offset="1" stop-color="#ffffff" stop-opacity="0.71765"/></linearGradient></defs><g transform="translate(-244.00557,-61.10599)"><g stroke="none" stroke-miterlimit="10"><g stroke-width="0"><g><path d="M292.5334,151.01442l-36.82617,22.50489l9.35908,-20.23744l13.65728,-16.07726z" fill="url(#color-1)"/><path d="M297.62846,152.66517l-22.93174,36.5619l-0.64416,-22.28747l5.05788,-20.47967z" fill="url(#color-2)"/><path d="M289.02803,146.06598l-41.31182,12.48885l14.16086,-17.22256l17.27079,-12.11277z" fill="url(#color-3)"/></g><g><path d="M361.54319,137.2046l13.65728,16.07726l9.35908,20.23744l-36.82618,-22.50488z" fill="url(#color-4)"/><path d="M361.15633,146.45992l5.05788,20.47967l-0.64416,22.28747l-22.93174,-36.5619z" fill="url(#color-5)"/><path d="M361.11891,129.2195l17.27079,12.11278l14.16086,17.22256l-41.31182,-12.48885z" fill="url(#color-6)"/></g></g><path d="M244.00558,88.57308l2.64455,-11.77435l5.48181,-7.7289l9.10901,-5.99486l10.23174,-1.96898l11.58307,2.55456l8.31848,5.98183l5.8169,9.26577l1.74865,9.66493l-1.72219,9.59431l-4.88966,8.28103l-8.69874,6.76197l-12.1565,2.82979l-10.84206,-2.22274l-8.01746,-5.27529l-6.95142,-10.55376z" fill="url(#color-7)" stroke-width="0"/><path d="M340.93747,88.57309l2.64455,-11.77436l5.48181,-7.7289l9.10899,-5.99486l10.23171,-1.96897l11.58306,2.55456l8.31849,5.98182l5.8169,9.26577l1.74865,9.66494l-1.72219,9.59431l-4.88964,8.28104l-8.69874,6.76197l-12.15651,2.82979l-10.84204,-2.22276l-8.01745,-5.27527l-6.95142,-10.55375z" fill="url(#color-8)" stroke-width="0"/><g stroke-width="0"><g><path d="M281.87126,309.6665l17.98805,-139.58728h41.01276l11.87211,139.58728z" fill="url(#color-9)"/><path d="M281.87126,309.6665l17.98805,-139.58728l-1.0016,76.55709l7.15614,11.63579l12.4922,6.79247l13.78305,-6.95249l6.97448,-10.46249l1.6085,-77.57037l11.87211,139.58729z" fill="url(#color-10)"/></g><path d="M299.03334,209.25895l5.59886,-44.21171h31.46947l4.44048,44.21172z" fill="url(#color-11)"/></g><g stroke-width="0"><path d="M272.67233,127.93243l4.54557,-20.2383l9.42238,-13.28479l15.65698,-10.30422l17.58674,-3.38437l19.90951,4.39088l14.29819,10.28182l9.99835,15.92645l3.00563,16.61253l-2.96018,16.49113l-8.40457,14.2338l-14.95178,11.62278l-20.89514,4.86397l-18.63582,-3.82055l-13.78076,-9.06738l-11.9484,-18.14029z" fill="url(#color-12)"/><path d="M283.00117,121.22781l3.5511,-15.81061l7.36097,-10.37838l12.23158,-8.04989l13.73916,-2.64395l15.55375,3.43025l11.17007,8.03239l7.81093,12.4421l2.34807,12.97808l-2.31256,12.88323l-6.56584,11.11977l-11.68067,9.07998l-16.32375,3.79985l-14.55872,-2.9847l-10.76584,-7.08364l-9.33436,-14.1716z" fill="url(#color-13)"/><path d="M272.67233,128.06436l3.51099,-15.63205l2.6304,15.53397l12.07213,15.47847l13.15468,10.68657l16.41727,2.76275l20.00548,-4.14932l15.52268,-11.84573l6.57772,-12.97062l1.52637,-16.47657l3.00563,16.61253l-2.96018,16.49113l-8.40457,14.2338l-14.95178,11.62278l-20.89514,4.86397l-18.63583,-3.82055l-13.78075,-9.06739l-11.9484,-18.14029z" fill="url(#color-14)"/></g><g stroke-width="0.5"><g><path d="M282.73338,105.11751l0.49373,-0.18615c0.08711,-0.03916 0.1746,-0.07769 0.26146,-0.11505c0.73611,-0.22299 1.48682,-0.34494 2.23031,-0.34494c0,0 0.58175,-0.00066 0.66125,-0.60681c3.09827,-0.72692 6.19401,-0.59025 9.69474,-0.59025c6.4262,0 12.20241,2.85518 16.07196,8.76285c2.80375,3.91924 4.80856,9.74729 4.69046,15.14269c-0.0516,0.12396 -0.06881,0.28012 -0.01578,0.47147c-0.07762,1.72087 -0.37805,3.40519 -0.93999,4.95572c-3.19851,6.29833 -6.68422,10.19227 -12.50658,13.67491c-1.71895,1.02819 -3.32078,2.15608 -5.26578,2.48011c-7.70128,1.22503 -13.99622,-1.29915 -20.04179,-6.51869c-4.80647,-6.32154 -7.24253,-16.96861 -3.88421,-24.67575c0.14375,-5.11801 3.97219,-10.54981 8.38007,-12.41502c0.1005,-0.00899 0.17015,-0.0351 0.17015,-0.0351z" fill="url(#color-15)"/><g><path d="M321.41652,125.24349c1.18925,-4.86892 3.63496,-8.9099 6.43317,-13.22254c1.5539,-2.3949 2.53104,-4.26069 5.06195,-5.7944c1.6182,-0.95584 3.48927,-0.69894 5.07924,-1.43894c6.97062,-3.24421 16.61922,1.61357 21.76583,6.76657c7.20132,5.4369 12.34343,16.15714 6.21671,24.35215c-3.0928,4.91852 -7.96353,9.25673 -12.99568,11.98952c-1.67347,0.9088 -3.74448,0.68455 -5.24115,1.75986c-3.95846,0.13746 -7.81629,0.78492 -11.70772,-0.50774c-3.11616,-1.03513 -5.41784,-3.29486 -7.77858,-5.44209c-1.02297,-0.93045 -2.0696,-1.8399 -2.71106,-3.09004c-2.2473,-3.5993 -4.24921,-8.19588 -4.63049,-12.58633c-0.97427,-0.04658 -1.93626,-0.18578 -2.85845,0.0496c-0.10967,1.78501 -0.43555,3.52844 -1.01244,5.16559c-3.90967,7.65077 -10.43395,15.4752 -18.74058,16.95181c-8.08664,1.28527 -14.79352,-1.35182 -21.11635,-6.90189c-4.42156,-5.76167 -7.63309,-15.6404 -4.82184,-22.94795c0.37548,-0.97602 0.11255,-2.11521 0.57277,-3.12268c0.09662,-5.92138 4.8807,-12.01204 10.02391,-13.73015c4.33409,-1.87998 8.34479,-1.66961 13.1162,-1.66961c6.91598,0 12.86572,3.10542 17.09314,9.3258c2.91857,4.10434 4.8977,9.86702 4.92717,15.40948c0.92752,-0.14237 1.82236,-0.05619 2.78607,-0.02586l0.14729,-0.75158c0,0 0.07585,-0.37921 0.39091,-0.53857zM326.84752,139.88209c2.41373,4.98907 9.16026,8.25833 14.40073,8.65387c2.03109,0.1533 4.01094,-0.41589 6.02039,-0.3054c1.40851,-1.06415 3.40739,-0.78299 4.98729,-1.64962c4.81191,-2.63952 9.54354,-6.77952 12.48014,-11.52251c5.68396,-7.55339 0.6575,-17.44135 -5.96215,-22.37107c-4.79821,-4.79238 -13.67282,-9.41807 -20.17075,-6.5304c-1.58139,0.70277 -3.37033,0.40767 -4.91854,1.35509c-2.33318,1.39658 -3.1489,3.12432 -4.57655,5.32528c-3.03701,4.68205 -5.66971,9.01144 -6.60004,14.53602c-0.01367,0.17749 -0.07258,0.30793 -0.15178,0.4038c0.23289,4.15948 2.3826,8.73414 4.49126,12.10496zM282.58828,105.19587c-4.40789,1.86521 -8.21526,7.27304 -8.35901,12.39105c-3.35832,7.70714 -0.93241,18.30019 3.87407,24.62174c6.04557,5.21954 12.29713,7.72898 19.99842,6.50395c1.945,-0.32403 3.53448,-1.44841 5.25343,-2.4766c5.82236,-3.48264 9.27998,-7.34521 12.47849,-13.64354c0.56194,-1.55053 0.86031,-3.22364 0.93793,-4.94451c-0.05303,-0.19134 -0.03588,-0.34644 0.01572,-0.4704c0.1181,-5.3954 -1.87559,-11.18966 -4.67934,-15.1089c-3.86955,-5.90767 -9.60987,-8.74444 -16.03606,-8.74444c-3.50072,0 -6.57601,-0.13976 -9.67428,0.58716c-0.0795,0.60616 -0.6596,0.60616 -0.6596,0.60616c-0.74349,0 -1.49009,0.12002 -2.22619,0.34301c-0.08686,0.03736 -0.17383,0.07561 -0.26094,0.11477l-0.49279,0.18563c0,0 -0.06937,0.02594 -0.16986,0.03493z" fill="#000000"/><path d="M322.30629,127.77906c0.0792,-0.09587 0.13808,-0.2272 0.15175,-0.40469c0.93034,-5.52457 3.57583,-9.88841 6.61284,-14.57046c1.42765,-2.20095 2.25574,-3.93869 4.58893,-5.33527c1.54821,-0.94742 3.3477,-0.65684 4.92909,-1.35961c6.49793,-2.88767 15.42187,1.75029 20.22008,6.54268c6.61965,4.92973 11.65734,14.87223 5.97338,22.42561c-2.9366,4.743 -7.69675,8.91083 -12.50867,11.55035c-1.5799,0.86664 -3.59075,0.5884 -4.99926,1.65255c-2.00945,-0.11049 -4.00315,0.45838 -6.03424,0.30508c-5.24047,-0.39554 -12.01945,-3.68485 -14.43318,-8.67391c-2.10866,-3.37082 -4.26783,-7.97285 -4.50071,-12.13234z" fill="url(#color-16)"/><g><path d="M322.30629,127.77906c0.0792,-0.09587 0.13808,-0.2272 0.15175,-0.40469c0.93034,-5.52457 3.57583,-9.88841 6.61284,-14.57046c1.42765,-2.20095 2.25574,-3.93869 4.58893,-5.33527c1.54821,-0.94742 3.3477,-0.65684 4.92909,-1.35961c6.49793,-2.88767 15.42187,1.75029 20.22008,6.54268c6.61965,4.92973 11.65734,14.87223 5.97338,22.42561c-2.9366,4.743 -7.69675,8.91083 -12.50867,11.55035c-1.5799,0.86664 -3.59075,0.5884 -4.99926,1.65255c-2.00945,-0.11049 -4.00315,0.45838 -6.03424,0.30508c-5.24047,-0.39554 -12.01945,-3.68485 -14.43318,-8.67391c-2.10866,-3.37082 -4.26783,-7.97285 -4.50071,-12.13234z" fill="url(#color-17)"/><path d="M282.73338,105.11751l0.49373,-0.18615c0.08711,-0.03916 0.1746,-0.07769 0.26146,-0.11505c0.73611,-0.22299 1.48682,-0.34494 2.23031,-0.34494c0,0 0.58175,-0.00066 0.66125,-0.60681c3.09827,-0.72692 6.19401,-0.59025 9.69474,-0.59025c6.4262,0 12.20241,2.85518 16.07196,8.76285c2.80375,3.91924 4.80856,9.74729 4.69046,15.14269c-0.0516,0.12396 -0.06881,0.28012 -0.01578,0.47147c-0.07762,1.72087 -0.37805,3.40519 -0.93999,4.95572c-3.19851,6.29833 -6.68422,10.19227 -12.50658,13.67491c-1.71895,1.02819 -3.32078,2.15608 -5.26578,2.48011c-7.70128,1.22503 -13.99622,-1.29915 -20.04179,-6.51869c-4.80647,-6.32154 -7.24253,-16.96861 -3.88421,-24.67575c0.14375,-5.11801 3.97219,-10.54981 8.38007,-12.41502c0.1005,-0.00899 0.17015,-0.0351 0.17015,-0.0351z" fill="url(#color-18)"/></g></g></g><g><path d="M347.27443,148.28022c-2.00945,-0.11049 -4.00315,0.45838 -6.03424,0.30508c-0.69772,-0.05266 -1.4227,-0.15662 -2.16102,-0.30906c6.11025,-11.5556 13.03675,-22.55186 20.10303,-33.57881c0.24656,-0.38477 0.49352,-0.77008 0.741,-1.1558c1.76208,1.50562 3.36526,3.35819 4.61965,5.40396c-5.65568,9.28638 -10.78596,18.92897 -15.70661,28.62824c-0.5617,0.14834 -1.09485,0.35359 -1.5618,0.70638z" fill="url(#color-19)"/><path d="M330.64853,144.44009c6.61393,-12.03759 13.66899,-23.61699 21.29883,-35.07098c0.27594,-0.41445 0.55458,-0.82743 0.83571,-1.23903c1.94864,1.09591 3.7421,2.40664 5.22877,3.76165c-0.31229,0.48618 -0.62375,0.97189 -0.93454,1.45686c-7.20407,11.24197 -14.26127,22.45445 -20.46765,34.25132c-2.1052,-0.71725 -4.19463,-1.79123 -5.96111,-3.15982z" fill="url(#color-20)"/><path d="M312.14682,112.03716c1.27956,1.78864 2.39272,3.97485 3.21364,6.33606c-6.33408,10.28891 -12.62017,20.99022 -19.91492,30.66734c-3.26096,0.15752 -6.27434,-0.39155 -9.13971,-1.55655c1.51585,-3.45313 4.13204,-6.85475 5.9445,-9.975c4.72143,-8.12818 9.37737,-15.9952 15.28249,-23.3446c1.08723,-1.35349 2.1108,-2.75174 3.09464,-4.17772c0.53398,0.63713 1.04122,1.3205 1.51936,2.05047z" fill="url(#color-21)"/><path d="M278.83738,142.89235c1.83306,-4.72932 3.7852,-9.78142 6.21582,-13.95617c4.0477,-6.95218 9.45983,-13.41934 13.85309,-20.20386c0.9791,-1.51203 2.03229,-3.03383 3.10963,-4.57041c2.50991,0.79043 4.82797,2.11262 6.8564,3.98192c-1.04355,1.52129 -2.13021,3.01294 -3.28855,4.45495c-5.98111,7.44772 -10.71138,15.41895 -15.4952,23.65454c-1.88471,3.24462 -4.41368,6.65485 -6.01218,10.18666c-1.78751,-0.94819 -3.52516,-2.13865 -5.23902,-3.54762z" fill="url(#color-22)"/></g></g><path d="M297.39337,132.75884v-13.18655h7.25865v13.18655z" fill="#000000" stroke-width="0"/><path d="M334.63641,132.75884v-13.18655h7.25865v13.18655z" fill="#000000" stroke-width="0"/><g stroke-width="0.5"><path d="M323.37219,162.99658c-0.83035,1.45777 -7.23404,1.16467 -8.62023,0.5934c-1.43968,-0.59331 -1.45154,-3.0615 -1.34183,-4.7021c-2.91645,0.47491 -5.91382,0.83152 -8.11624,-1.81858c0,0 -0.46852,-0.58566 0.11713,-1.05418c0.58565,-0.46852 1.05417,0.11713 1.05417,0.11713c2.52499,3.3471 7.49671,0.8019 10.61865,0.80877c2.50973,0.00552 5.05495,0.84539 7.66818,0.84539c2.28638,0.00417 4.30082,-0.66138 6.05264,-2.12474l0.24307,-0.35774c0,0 0.45,-0.6 1.05,-0.15c0.6,0.45 0.15,1.05 0.15,1.05l-0.48279,0.61007c-2.02955,1.68757 -4.37149,2.46804 -7.01292,2.47241c-0.31802,0 -0.63627,-0.0132 -0.95445,-0.03631c-0.21407,1.08258 0.10139,2.82167 -0.42538,3.74647zM317.41729,162.14762c0.06248,0.00231 0.20799,0.01567 0.41066,0.03533c0.14313,-1.25568 0.31632,-2.45325 0.5154,-3.69053c-0.39182,-0.03517 -0.78079,-0.05553 -1.1663,-0.05429c-0.72089,0.00233 -1.47606,0.08962 -2.24828,0.2051c-0.24471,2.64271 -0.21524,3.40456 2.48852,3.5044zM322.06811,162.25537c0.23261,-1.01339 0.06612,-2.12515 0.23728,-3.17391c-0.82997,-0.12046 -1.65635,-0.27346 -2.47392,-0.40003c-0.19882,1.22278 -0.37119,2.39933 -0.50999,3.64077c1.26425,0.10515 2.69076,0.17658 2.74663,-0.06684z" fill="#000000"/><path d="M319.28927,162.36045c0.1388,-1.24144 0.32012,-2.5005 0.51894,-3.72328c0.81757,0.12657 1.70284,0.28875 2.5328,0.40921c-0.17115,1.04875 -0.01066,2.23587 -0.24327,3.24926c-0.05588,0.24342 -1.54422,0.16997 -2.80848,0.06481z" fill="#f7f7f7"/><path d="M314.8935,158.60778c0.77222,-0.11548 1.57765,-0.21502 2.29855,-0.21735c0.38551,-0.00124 0.79421,0.03085 1.18603,0.06602c-0.19908,1.23728 -0.37938,2.5125 -0.52251,3.76818c-0.20267,-0.01966 -0.35523,-0.02913 -0.41771,-0.03143c-2.70376,-0.09984 -2.78907,-0.94271 -2.54436,-3.58542z" fill="#f7f7f7"/></g><path d="M323.94305,146.54066c0,0.75 -0.75,0.75 -0.75,0.75h-0.18073c-0.41493,0 -0.82935,-0.00403 -1.24341,-0.01088c-0.06748,0.01089 -0.11209,0.01088 -0.11209,0.01088l0.04844,-0.01196c-0.00108,-0.00002 -0.00216,-0.00003 -0.00324,-0.00005c-1.4752,0.32251 -2.04113,1.24235 -3.16198,2.17302c-0.18788,0.17287 -0.37441,0.21656 -0.53597,0.20194c-0.16569,-0.00155 -0.35126,-0.06626 -0.52413,-0.26673l-0.15889,-0.16778c-1.11948,-0.84307 -1.82214,-1.55912 -3.16281,-2.06879c0,0 -0.70001,-0.26924 -0.43077,-0.96925c0.13765,-0.35788 0.38788,-0.46242 0.59961,-0.47912c0.18633,-0.09201 0.3715,-0.09201 0.3715,-0.09201c2.77875,0 5.53488,0.18073 8.31376,0.18073h0.18073c0,0 0.75,0 0.75,0.75z" fill="#000000" stroke-width="0.5"/></g></g></svg>