<svg version="1.1" xmlns="http://www.w3.org/2000/svg" xmlns:xlink="http://www.w3.org/1999/xlink" width="47.04546" height="47.04546" viewBox="0,0,47.04546,47.04546"><defs><radialGradient cx="320.09616" cy="180" r="23.52273" gradientUnits="userSpaceOnUse" id="color-1"><stop offset="0" stop-color="#000000" stop-opacity="0.68235"/><stop offset="1" stop-color="#000000" stop-opacity="0"/></radialGradient><linearGradient x1="320.00002" y1="162.6087" x2="320.00002" y2="197.39132" gradientUnits="userSpaceOnUse" id="color-2"><stop offset="0" stop-color="#dedede" stop-opacity="0.20784"/><stop offset="1" stop-color="#dedede" stop-opacity="0"/></linearGradient><linearGradient x1="320.09617" y1="162.6087" x2="320.09617" y2="197.39132" gradientUnits="userSpaceOnUse" id="color-3"><stop offset="0" stop-color="#292929" stop-opacity="0"/><stop offset="1" stop-color="#292929" stop-opacity="0.25098"/></linearGradient></defs><g transform="translate(-296.57343,-156.47727)"><g stroke="none" stroke-miterlimit="10"><path d="M296.57343,180c0,-12.99124 10.53148,-23.52273 23.52273,-23.52273c12.99124,0 23.52273,10.53148 23.52273,23.52273c0,12.99124 -10.53148,23.52273 -23.52273,23.52273c-12.99124,0 -23.52273,-10.53148 -23.52273,-23.52273z" fill="url(#color-1)" stroke-width="0"/><path d="M302.60871,197.3913v-34.78261h34.78261v34.78261z" fill="#67ff63" stroke-width="0"/><g stroke-width="0"><path d="M302.60872,197.39132v-34.78261h34.78261l-2.48896,2.57975l-29.14148,0.24634l-0.30739,29.42558z" fill="url(#color-2)"/><path d="M337.48748,162.6087v34.78261h-34.78261l2.88669,-2.57975l28.74375,-0.24634l0.59148,-29.36876z" fill="url(#color-3)"/></g><path d="M311.83487,178.34305c0,-0.41421 0.33579,-0.75 0.75,-0.75c0.41421,0 0.75,0.33579 0.75,0.75c0,0.41421 -0.33579,0.75 -0.75,0.75c-0.41421,0 -0.75,-0.33579 -0.75,-0.75z" fill="#000000" stroke-width="0.5"/><path d="M323.54657,176.31965c-0.30993,-0.61911 0.30682,-0.97154 0.30682,-0.97154l0.30885,-0.10911c0.1249,-0.13156 0.3422,-0.28642 0.64154,-0.22665l0.15048,-0.05316c0.45514,0.17513 1.12533,0.10092 1.36542,0.52539c1.05681,1.86837 -2.1471,4.1177 -2.76607,0.98056c-0.00974,-0.04936 -0.01158,-0.0978 -0.00706,-0.14549z" fill="#000000" stroke-width="0.5"/><path d="M329.39013,183.89272c-0.23717,0.71151 -0.94868,0.47434 -0.94868,0.47434l-0.13137,-0.05174c-0.30096,-0.05517 -0.60193,-0.11033 -0.90289,-0.1655c-4.40319,-1.35212 -7.9027,-2.0792 -12.42968,-0.7885c-2.21201,0.63067 -4.2305,1.32191 -4.70561,3.72998c0,0 -0.15451,0.73391 -0.88842,0.5794c-0.73391,-0.15451 -0.5794,-0.88842 -0.5794,-0.88842c1.70744,-7.71649 13.59133,-5.74457 18.95846,-4.08977c0.27195,0.049 0.54391,0.098 0.81586,0.147l0.33738,0.10451c0,0 0.71151,0.23717 0.47434,0.94868z" fill="#000000" stroke-width="0.5"/><path d="M334.52777,175.65247c-0.74692,0.0679 -0.81482,-0.67902 -0.81482,-0.67902l-0.07067,-0.802c-0.50083,-1.98733 -0.72646,-4.01693 -1.10462,-6.01822c-1.80697,0.91949 -3.57852,1.88391 -5.41688,2.74446c0,0 -0.67964,0.31716 -0.9968,-0.36247c-0.03869,-0.08292 -0.06255,-0.16044 -0.07462,-0.23265l-0.17267,-0.35755c-0.97514,-1.39498 -1.70593,-2.92249 -2.56828,-4.38684l-0.10121,0.06735c-2.82732,1.54483 -4.96596,3.49206 -7.31419,5.63124c-0.14037,0.18196 -0.31302,0.24744 -0.47001,0.26032c-0.15456,0.03009 -0.3384,0.01383 -0.52272,-0.12318l-0.67441,-0.33765c-1.37939,-0.58068 -2.73123,-1.46337 -3.95098,-2.33661c-0.42382,-0.30342 -0.82582,-1.20344 -1.2638,-0.92085c-0.42266,0.2727 -0.00716,1.02414 -0.17284,1.49907c-0.58721,1.68333 -0.53824,3.39434 -0.42671,5.17027c0,0 0.04678,0.74854 -0.70176,0.79532c-0.74854,0.04678 -0.79532,-0.70176 -0.79532,-0.70176c-0.12332,-1.98226 -0.15021,-3.88508 0.51079,-5.76723c0.16563,-0.47163 0.46697,-2.10042 0.76466,-2.25093c1.80662,-0.91342 5.0384,2.48079 6.66022,3.14878l0.34518,0.17238c2.30248,-2.08831 4.44611,-4.00393 7.23598,-5.52289l0.67506,-0.45093c0,0 0.58309,-0.38873 0.99776,0.14897c0.08616,0.08172 0.13239,0.1557 0.13239,0.1557c1.00586,1.60945 1.78145,3.33786 2.86905,4.88928l0.06592,0.12861c1.76207,-0.85137 3.47407,-1.79043 5.22583,-2.66972c0.06967,-0.12656 0.18945,-0.24352 0.39175,-0.31101c0.13006,-0.05612 0.29753,-0.09023 0.47853,-0.03069c0.18467,0.04694 0.30765,0.16563 0.38724,0.2828c0.12566,0.15473 0.16729,0.30723 0.16471,0.44422c0.49884,2.31721 0.72783,4.67908 1.30167,6.99185l0.08558,0.91675c0,0 0.0679,0.74692 -0.67902,0.81482z" fill="#000000" stroke-width="0.5"/></g></g></svg>