<svg version="1.1" xmlns="http://www.w3.org/2000/svg" xmlns:xlink="http://www.w3.org/1999/xlink" width="269.48027" height="377.91942" viewBox="0,0,269.48027,377.91942"><defs><radialGradient cx="365.70616" cy="118.6705" r="35.58411" gradientUnits="userSpaceOnUse" id="color-1"><stop offset="0" stop-color="#56a14b"/><stop offset="1" stop-color="#114f33"/></radialGradient><radialGradient cx="260.81629" cy="118.6705" r="35.58411" gradientUnits="userSpaceOnUse" id="color-2"><stop offset="0" stop-color="#56a14b"/><stop offset="1" stop-color="#114f33"/></radialGradient><radialGradient cx="371.86119" cy="36.38705" r="71.77122" gradientUnits="userSpaceOnUse" id="color-3"><stop offset="0" stop-color="#56a14b"/><stop offset="1" stop-color="#114f33"/></radialGradient><radialGradient cx="245.92336" cy="36.38705" r="71.77122" gradientUnits="userSpaceOnUse" id="color-4"><stop offset="0" stop-color="#56a14b"/><stop offset="1" stop-color="#114f33"/></radialGradient><linearGradient x1="296.39777" y1="207.57231" x2="318.98976" y2="207.57231" gradientUnits="userSpaceOnUse" id="color-5"><stop offset="0" stop-color="#814d34" stop-opacity="0"/><stop offset="1" stop-color="#814d34"/></linearGradient><linearGradient x1="340.71106" y1="207.57231" x2="318.11906" y2="207.57231" gradientUnits="userSpaceOnUse" id="color-6"><stop offset="0" stop-color="#814d34" stop-opacity="0"/><stop offset="1" stop-color="#814d34"/></linearGradient><linearGradient x1="280.73821" y1="207.57231" x2="287.30512" y2="207.57231" gradientUnits="userSpaceOnUse" id="color-7"><stop offset="0" stop-color="#362016"/><stop offset="1" stop-color="#362016" stop-opacity="0"/></linearGradient><linearGradient x1="354.99479" y1="207.57231" x2="348.42789" y2="207.57231" gradientUnits="userSpaceOnUse" id="color-8"><stop offset="0" stop-color="#362016"/><stop offset="1" stop-color="#362016" stop-opacity="0"/></linearGradient><radialGradient cx="300.13678" cy="-13.2731" r="101.78194" gradientUnits="userSpaceOnUse" id="color-9"><stop offset="0" stop-color="#56a14b"/><stop offset="1" stop-color="#114f33"/></radialGradient></defs><g transform="translate(-185.47885,68.56517)"><g stroke="none" stroke-miterlimit="10"><g stroke-width="0"><path d="M335.73782,134.92388l3.42606,-15.25389l7.10178,-10.01293l11.80089,-7.76644l13.25538,-2.55085l15.00608,3.30947l10.77675,7.74955l7.5359,12.00399l2.26539,12.5211l-2.23113,12.4296l-6.33464,10.72822l-11.26937,8.76025l-15.74896,3.66604l-14.04608,-2.8796l-10.38675,-6.83421l-9.00568,-13.67259z" fill="url(#color-1)"/><path d="M230.84797,134.92388l3.42606,-15.25389l7.10178,-10.01293l11.80089,-7.76644l13.25537,-2.55085l15.00608,3.30947l10.77675,7.74955l7.5359,12.00399l2.26538,12.5211l-2.23113,12.4296l-6.33464,10.72822l-11.26937,8.76025l-15.74896,3.66604l-14.04608,-2.8796l-10.38675,-6.83421l-9.00568,-13.67259z" fill="url(#color-2)"/></g><path d="M311.41669,69.16925l6.91018,-30.76628l14.32391,-20.19554l23.80175,-15.66448l26.73537,-5.14492l30.26645,6.67502l21.73612,15.63043l15.1995,24.2114l4.56916,25.25438l-4.50007,25.06983l-12.77663,21.63823l-22.72971,17.66896l-31.7648,7.39421l-28.33019,-5.808l-20.94952,-13.78424l-18.16397,-27.57688z" fill="url(#color-3)" stroke-width="0"/><path d="M185.47886,69.16925l6.91017,-30.76628l14.32391,-20.19554l23.80175,-15.66449l26.73538,-5.14492l30.26644,6.67502l21.73612,15.63043l15.1995,24.2114l4.56916,25.25438l-4.50006,25.06982l-12.77664,21.63823l-22.7297,17.66896l-31.7648,7.39421l-28.33018,-5.808l-20.94952,-13.78423l-18.16397,-27.57688z" fill="url(#color-4)" stroke-width="0"/><g stroke-width="0"><path d="M280.73821,309.35425v-203.56389h73.24627v203.56389z" fill="#563322"/><g><path d="M296.39777,309.35425v-203.56389h22.59199v203.56389z" fill="url(#color-5)"/><path d="M318.11906,309.35425v-203.56389h22.59199v203.56389z" fill="url(#color-6)"/></g><path d="M280.73821,309.35425v-203.56389h6.56691v203.56389z" fill="url(#color-7)"/><path d="M348.42789,309.35425v-203.56389h6.56691v203.56389z" fill="url(#color-8)"/></g><path d="M214.41776,33.21678l9.79963,-43.63102l20.31337,-28.6402l33.75431,-22.21449l37.91461,-7.29624l42.92219,9.46614l30.82495,22.1662l21.55508,34.33525l6.47973,35.81435l-6.38174,35.55263l-18.11911,30.68613l-32.234,25.05713l-45.04707,10.48606l-40.17629,-8.23658l-29.70944,-19.54803l-25.75912,-39.10799z" fill="url(#color-9)" stroke-width="0"/><g fill="#000000" stroke-width="0.5"><path d="M301.57421,195.18226c0.1819,0.72761 -0.5457,0.9095 -0.5457,0.9095l-0.67395,0.16762c-2.01999,0.40327 -4.00883,0.33414 -6.05912,0.33414c0,0 -0.75,0 -0.75,-0.75c0,-0.75 0.75,-0.75 0.75,-0.75c1.94917,0 3.84608,0.07949 5.76494,-0.30501l0.60433,-0.15195c0,0 0.7276,-0.1819 0.9095,0.5457z"/><path d="M311.83029,210.85403c0.01708,0.35149 0.10885,0.69383 0.33342,1.01309c0.62849,0.89353 3.96057,2.2829 4.99353,1.44498c1.09707,-0.88993 0.2583,-4.2854 -0.83575,-4.81819c-0.91265,-0.44445 -2.53618,-0.05951 -3.57343,-0.11483c-0.52494,0.44404 -0.63712,0.67358 -0.60566,1.36569v0.47935c0,0 0,0.41804 -0.3121,0.62991zM311.05341,208.09766c0.25855,-0.40237 0.65243,-0.73383 1.22032,-1.14161c1.3763,-0.04429 3.484,-0.43426 4.73536,0.20474c2.05648,1.05012 3.034,5.70698 1.08167,7.32544c-1.70275,1.41156 -6.04641,-0.14121 -7.1501,-1.75071c-0.94604,-1.3796 -0.55415,-2.60315 -0.28615,-4.08362c0,0 0.07175,-0.39463 0.39891,-0.55423z"/><path d="M325.16279,194.63655l0.60433,0.15195c1.91886,0.3845 3.81577,0.30501 5.76494,0.30501c0,0 0.75,0 0.75,0.75c0,0.75 -0.75,0.75 -0.75,0.75c-2.05029,0 -4.03913,0.06913 -6.05912,-0.33414l-0.67395,-0.16762c0,0 -0.7276,-0.1819 -0.5457,-0.9095c0.1819,-0.72761 0.9095,-0.5457 0.9095,-0.5457z"/></g></g></g></svg>