<svg version="1.1" xmlns="http://www.w3.org/2000/svg" xmlns:xlink="http://www.w3.org/1999/xlink" width="47.04546" height="47.04546" viewBox="0,0,47.04546,47.04546"><defs><radialGradient cx="320.09618" cy="180.00002" r="23.52273" gradientUnits="userSpaceOnUse" id="color-1"><stop offset="0" stop-color="#000000" stop-opacity="0.68235"/><stop offset="1" stop-color="#000000" stop-opacity="0"/></radialGradient><linearGradient x1="320.00004" y1="162.6087" x2="320.00004" y2="197.39134" gradientUnits="userSpaceOnUse" id="color-2"><stop offset="0" stop-color="#dedede" stop-opacity="0.20784"/><stop offset="1" stop-color="#dedede" stop-opacity="0"/></linearGradient><linearGradient x1="320.09619" y1="162.6087" x2="320.09619" y2="197.39134" gradientUnits="userSpaceOnUse" id="color-3"><stop offset="0" stop-color="#292929" stop-opacity="0"/><stop offset="1" stop-color="#292929" stop-opacity="0.25098"/></linearGradient></defs><g transform="translate(-296.57344,-156.47728)"><g stroke="none" stroke-miterlimit="10"><path d="M296.57345,180.00002c0,-12.99124 10.53148,-23.52273 23.52273,-23.52273c12.99124,0 23.52273,10.53148 23.52273,23.52273c0,12.99124 -10.53148,23.52273 -23.52273,23.52273c-12.99124,0 -23.52273,-10.53148 -23.52273,-23.52273z" fill="url(#color-1)" stroke-width="0"/><path d="M302.60873,197.39132v-34.78261h34.78261v34.78261z" fill="#ffd13e" stroke-width="0"/><g stroke-width="0"><path d="M302.60874,197.39134v-34.78261h34.78261l-2.48896,2.57975l-29.14148,0.24634l-0.30739,29.42558z" fill="url(#color-2)"/><path d="M337.4875,162.6087v34.78261h-34.78261l2.88669,-2.57975l28.74375,-0.24634l0.59148,-29.36876z" fill="url(#color-3)"/></g><path d="M313.86549,180.11353l-0.31694,0.55474c0,0 -0.00258,0.00451 -0.00768,0.01257c0.00763,0.0278 0.01525,0.05563 0.02285,0.08351c0.191,0.69993 0.21496,2.2822 0.87946,1.99096c1.62516,-0.71229 1.90629,-2.68028 1.6643,-4.73435c-0.6121,0.02756 -1.22107,0.07876 -1.82971,0.13816c-0.00218,0.67297 -0.1074,1.36442 -0.41229,1.95441zM318.48654,177.08835c0.08283,0.74542 -0.66259,0.82824 -0.66259,0.82824l-0.28894,0.03041c0.33069,2.90415 -0.14886,5.75706 -2.9022,6.29629c-1.12843,0.221 -1.75266,-0.73932 -2.08764,-1.5473c-0.68047,-1.64127 -1.20569,-3.54275 -1.46643,-5.40365c-0.25948,-0.22028 -0.25949,-0.5899 -0.25949,-0.5899v-0.54687c0.00033,-0.31977 0.02804,-0.66439 0.08128,-1.01899c-0.0021,-0.1036 -0.00316,-0.20667 -0.00316,-0.30914c0,0 0,-0.26992 0.16193,-0.48591c0.63742,-2.56095 2.48993,-5.07316 4.90184,-2.24574c0.43138,0.97591 0.993,2.61037 1.34124,4.37218l0.35591,-0.04219c0,0 0.74541,-0.08283 0.82824,0.66259zM312.4076,175.29709c0.02264,0.5229 0.08177,1.03061 0.16621,1.53078c1.09434,-0.10936 2.18126,-0.23534 3.2782,-0.29452c-0.32503,-1.47457 -0.82187,-2.84517 -1.17466,-3.66178c-1.20671,-1.73791 -2.01281,0.8476 -2.26975,2.42552z" fill="#000000" stroke-width="0.5"/><path d="M325.25135,175.48675c0.22938,-0.02085 0.39472,0.03514 0.51372,0.12275c0.7898,-0.10883 1.57914,-0.20339 2.37311,-0.36991c-0.02094,-0.60964 -0.04572,-1.12342 -0.04126,-1.45022c-0.69159,-1.93978 -1.97823,-1.91361 -2.52804,-0.07456l0.03163,0.33136c0,0 0,0.52986 -0.44536,0.69886c-0.0857,0.28084 -0.1645,0.55913 -0.23263,0.83583c0.08672,-0.04778 0.19462,-0.08191 0.32884,-0.09411zM325.5781,178.43828l-0.70576,0.49898c0.10372,0.35944 0.2504,0.72261 0.44807,1.0915c0.30697,0.57288 0.64608,1.56856 1.4858,1.22506c1.11944,-0.45792 1.34732,-2.57586 1.35849,-4.49587c-0.7189,0.13212 -1.43566,0.21666 -2.15124,0.31736c-0.08132,0.47099 -0.23879,0.9338 -0.43536,1.36297zM330.73032,175.33321c0.19734,0.72357 -0.52623,0.92091 -0.52623,0.92091l-0.56473,0.15401c-0.00663,2.52772 -0.32536,5.55248 -2.21332,6.21164c-1.82817,0.63828 -2.66499,-0.4585 -3.42256,-1.87291c-0.70474,-1.31578 -0.89678,-2.5605 -0.80306,-3.80841c-0.00535,-0.01746 -0.01037,-0.03549 -0.01503,-0.05413c-0.06748,-0.26991 -0.0098,-0.46472 0.08946,-0.60302c0.17985,-1.20373 0.58732,-2.42247 1.02038,-3.72231c0,0 0.09227,-0.27682 0.33437,-0.42757c1.3435,-2.21555 3.88798,-1.34267 4.94323,1.3903c0.00371,0.35459 0.02276,0.81428 0.03955,1.33898l0.19702,-0.05374c0,0 0.72357,-0.19734 0.92091,0.52623z" fill="#000000" stroke-width="0.5"/><path d="M325.75096,184.18197c0.72357,0.19734 0.52623,0.92091 0.52623,0.92091l-0.27206,0.96545c-2.32285,3.69649 -7.39336,4.00262 -9.62749,-0.10409c0,0 -0.35557,-0.66035 0.30478,-1.01593c0.66035,-0.35557 1.01593,0.30478 1.01593,0.30478c1.57326,2.95725 5.21912,2.85858 6.93501,0.20841l0.19669,-0.7533c0,0 0.19734,-0.72357 0.92091,-0.52623z" fill="#000000" stroke-width="0.5"/><path d="M308.43472,168.67945c0.06095,0.06562 0.48682,0.55946 -0.00701,1.0533c-0.53033,0.53033 -1.06066,0 -1.06066,0l-0.23315,-0.30385c-0.35655,-0.83257 -2.58765,-3.52534 -1.40747,-4.42868c1.0058,-0.76987 4.61214,0.79063 5.62633,1.15215c0,0 0.70631,0.25225 0.45405,0.95856c-0.25225,0.70631 -0.95856,0.45405 -0.95856,0.45405c-0.68344,-0.24458 -3.00222,-0.50666 -3.80522,-1.15968c0.1709,0.3194 0.37804,0.72873 0.48802,0.93736c0.25058,0.47532 0.64952,0.86542 0.90367,1.33679z" fill="#000000" stroke-width="0.5"/><path d="M310.65017,190.42266c-0.20461,0.72155 -0.92616,0.51694 -0.92616,0.51694l-0.98436,-0.28019c-1.46233,-0.25539 -4.4552,-0.46327 -3.80653,-2.82355c0.20304,-0.73878 2.54185,-2.17469 3.1099,-2.80703c0,0 0.50172,-0.55747 1.05919,-0.05575c0.55747,0.50172 0.05575,1.05919 0.05575,1.05919c-2.07692,2.30369 -4.25031,2.44337 -0.08474,3.16469l1.06001,0.29953c0,0 0.72155,0.20461 0.51694,0.92616z" fill="#000000" stroke-width="0.5"/><path d="M321.2149,192.17953c0.61664,0.42691 0.18974,1.04355 0.18974,1.04355l-0.70312,1.01562c-2.02787,2.881 -3.20675,1.53355 -4.49059,-1.029c0,0 -0.33541,-0.67082 0.33541,-1.00623c0.67082,-0.33541 1.00623,0.33541 1.00623,0.33541c0.90813,1.82019 0.69437,2.64656 1.91566,0.846l0.70313,-1.01563c0,0 0.42691,-0.61664 1.04355,-0.18974z" fill="#000000" stroke-width="0.5"/><path d="M333.59362,186.06642c0.636,-0.3975 1.0335,0.2385 1.0335,0.2385l0.45098,0.74396c0.51356,1.28479 1.95817,3.43633 1.57292,4.82635c-0.53,1.91226 -5.22873,1.12407 -6.56615,1.12407c0,0 -0.75,0 -0.75,-0.75c0,-0.75 0.75,-0.75 0.75,-0.75c1.41542,0 2.8506,0.06636 4.26418,0.00273c0.29893,-0.01346 0.92732,0.16803 0.88842,-0.12867c-0.16202,-1.2357 -1.08361,-2.59699 -1.55208,-3.7674l-0.33027,-0.50604c0,0 -0.3975,-0.636 0.2385,-1.0335z" fill="#000000" stroke-width="0.5"/><path d="M332.86808,174.42541c0.48014,-0.57617 1.0563,-0.09603 1.0563,-0.09603l0.53971,0.45808c2.10989,2.31496 1.91147,3.75539 -1.06901,4.88283c0,0 -0.70225,0.26334 -0.96559,-0.4389c-0.26334,-0.70225 0.4389,-0.96559 0.4389,-0.96559c1.9851,-0.73713 2.01666,-0.83553 0.49349,-2.46092l-0.39779,-0.32317c0,0 -0.57617,-0.48014 -0.09603,-1.0563z" fill="#000000" stroke-width="0.5"/><path d="M325.9755,166.3118c0,-0.75 0.75,-0.75 0.75,-0.75l0.17006,0.03317c1.6053,-0.49378 5.30151,-2.16799 6.32382,0.01429c0.44823,0.95681 -1.35311,4.75115 -1.7486,5.62227c0,0 -0.31035,0.68277 -0.99313,0.37242c-0.68277,-0.31035 -0.37242,-0.99313 -0.37242,-0.99313c0.40381,-0.88728 1.83321,-3.72339 1.6889,-4.53398c-0.07373,-0.41411 -4.11387,0.84604 -4.45743,0.95179l-0.61119,0.03317c0,0 -0.75,0 -0.75,-0.75z" fill="#000000" stroke-width="0.5"/></g></g></svg>