<svg version="1.1" xmlns="http://www.w3.org/2000/svg" xmlns:xlink="http://www.w3.org/1999/xlink" width="94.42335" height="265.29095" viewBox="0,0,94.42335,265.29095"><defs><linearGradient x1="278.91778" y1="44.37556" x2="278.91778" y2="51.29549" gradientUnits="userSpaceOnUse" id="color-1"><stop offset="0" stop-color="#2efffd"/><stop offset="1" stop-color="#054f4e"/></linearGradient><linearGradient x1="362.18794" y1="44.37556" x2="362.18794" y2="51.2955" gradientUnits="userSpaceOnUse" id="color-2"><stop offset="0" stop-color="#2efffd"/><stop offset="1" stop-color="#054f4e"/></linearGradient><linearGradient x1="320.00593" y1="170.07921" x2="320.00593" y2="309.6665" gradientUnits="userSpaceOnUse" id="color-3"><stop offset="0" stop-color="#ffc62e"/><stop offset="1" stop-color="#4f3305"/></linearGradient><linearGradient x1="320.00593" y1="170.07921" x2="320.00593" y2="309.6665" gradientUnits="userSpaceOnUse" id="color-4"><stop offset="0" stop-color="#000000" stop-opacity="0.29804"/><stop offset="1" stop-color="#000000" stop-opacity="0"/></linearGradient><linearGradient x1="319.78774" y1="170.6461" x2="319.78774" y2="209.25895" gradientUnits="userSpaceOnUse" id="color-5"><stop offset="0" stop-color="#fcff4f"/><stop offset="1" stop-color="#fcff4f" stop-opacity="0"/></linearGradient><linearGradient x1="320.00004" y1="80.64228" x2="320.00004" y2="175.06562" gradientUnits="userSpaceOnUse" id="color-6"><stop offset="0" stop-color="#ffc62e"/><stop offset="1" stop-color="#4f3305"/></linearGradient><linearGradient x1="320.00004" y1="84.26653" x2="320.00004" y2="158.03214" gradientUnits="userSpaceOnUse" id="color-7"><stop offset="0" stop-color="#fcff4f"/><stop offset="1" stop-color="#fcff4f" stop-opacity="0"/></linearGradient><linearGradient x1="320.00004" y1="80.7742" x2="320.00004" y2="175.19755" gradientUnits="userSpaceOnUse" id="color-8"><stop offset="0" stop-color="#000000" stop-opacity="0.39216"/><stop offset="1" stop-color="#000000" stop-opacity="0"/></linearGradient><linearGradient x1="320.00004" y1="118.27924" x2="320.00004" y2="175.42408" gradientUnits="userSpaceOnUse" id="color-9"><stop offset="0" stop-color="#000000"/><stop offset="1" stop-color="#0c0c0c"/></linearGradient><linearGradient x1="320.00004" y1="88.88657" x2="320.00004" y2="163.23687" gradientUnits="userSpaceOnUse" id="color-10"><stop offset="0" stop-color="#000000"/><stop offset="1" stop-color="#0c0c0c"/></linearGradient><radialGradient cx="334.27914" cy="112.91851" r="32.74416" gradientUnits="userSpaceOnUse" id="color-11"><stop offset="0" stop-color="#2d2d2d"/><stop offset="1" stop-color="#2d2d2d" stop-opacity="0"/></radialGradient></defs><g transform="translate(-272.78836,-44.37556)"><g stroke="none" stroke-miterlimit="10"><g><g><path d="M278.39396,47.83553c0.75,0 0.75,0.75 0.75,0.75v0.41844c-0.00594,2.08999 -0.58205,4.14742 -1.05357,6.17293c-0.50631,9.80091 1.02315,19.42608 1.24581,29.22098c-0.22006,8.63118 -0.40147,17.27514 -0.40147,25.90799c0,0 0,0.75 -0.75,0.75c-0.75,0 -0.75,-0.75 -0.75,-0.75c0,-8.63336 0.17886,-17.27844 0.40147,-25.91007c-0.22706,-9.86102 -1.8117,-19.56152 -1.23089,-29.42993c0.44586,-1.94766 1.04528,-3.95235 1.03865,-5.96191v-0.41844c0,0 0,-0.75 0.75,-0.75z" fill="#000000" stroke-width="0.5"/><path d="M275.45781,47.83553l0.33313,-1.48319l0.69053,-0.97359l1.14744,-0.75516l1.28887,-0.24803l1.45909,0.32179l1.04786,0.75352l0.73274,1.16719l0.22027,1.21747l-0.21694,1.20857l-0.61594,1.04314l-1.09576,0.85179l-1.53133,0.35646l-1.36575,-0.27999l-1.00994,-0.66451l-0.87565,-1.32943z" fill="url(#color-1)" stroke-width="0"/></g><g><path d="M363.46174,48.58553v0.41845c-0.00662,2.00956 0.5928,4.01425 1.03865,5.96191c0.5808,9.86841 -1.00384,19.56891 -1.2309,29.42993c0.22261,8.63163 0.40147,17.27671 0.40147,25.91007c0,0 0,0.75 -0.75,0.75c-0.75,0 -0.75,-0.75 -0.75,-0.75c0,-8.63286 -0.18141,-17.27681 -0.40147,-25.90799c0.22265,-9.79489 1.75212,-19.42007 1.24581,-29.22098c-0.47152,-2.02551 -1.04762,-4.08294 -1.05356,-6.17293v-0.41845c0,0 0,-0.75 0.75,-0.75c0.75,0 0.75,0.75 0.75,0.75z" fill="#000000" stroke-width="0.5"/><path d="M365.43929,49.02156l-0.87565,1.32943l-1.00994,0.66452l-1.36575,0.27999l-1.53132,-0.35646l-1.09576,-0.85179l-0.61594,-1.04314l-0.21694,-1.20858l0.22027,-1.21747l0.73274,-1.16719l1.04786,-0.75352l1.45909,-0.32179l1.28886,0.24803l1.14745,0.75516l0.69053,0.97359l0.33312,1.48318z" fill="url(#color-2)" stroke-width="0"/></g></g><g stroke-width="0"><g><path d="M281.87126,309.6665l17.98805,-139.58728h41.01276l11.87211,139.58728z" fill="url(#color-3)"/><path d="M281.87126,309.6665l17.98805,-139.58728l-1.0016,76.55709l7.15614,11.63579l12.4922,6.79247l13.78305,-6.95249l6.97448,-10.46249l1.6085,-77.57037l11.87211,139.58729z" fill="url(#color-4)"/></g><path d="M299.03334,209.25895l5.59886,-44.21171h31.46947l4.44048,44.21172z" fill="url(#color-5)"/></g><g stroke-width="0"><path d="M272.78836,127.85397l4.54557,-20.2383l9.42238,-13.28479l15.65698,-10.30422l17.58674,-3.38437l19.90951,4.39088l14.29819,10.28182l9.99835,15.92645l3.00563,16.61253l-2.96018,16.49113l-8.40457,14.2338l-14.95178,11.62278l-20.89514,4.86397l-18.63582,-3.82055l-13.78076,-9.06738l-11.9484,-18.14029z" fill="url(#color-6)"/><path d="M283.11719,121.14935l3.5511,-15.81061l7.36097,-10.37838l12.23158,-8.04989l13.73916,-2.64395l15.55375,3.43025l11.17007,8.03239l7.81093,12.4421l2.34807,12.97808l-2.31256,12.88323l-6.56584,11.11977l-11.68067,9.07998l-16.32375,3.79985l-14.55872,-2.9847l-10.76584,-7.08364l-9.33436,-14.1716z" fill="url(#color-7)"/><path d="M272.78836,127.9859l3.51099,-15.63205l2.6304,15.53397l12.07213,15.47847l13.15468,10.68657l16.41727,2.76275l20.00548,-4.14932l15.52268,-11.84573l6.57772,-12.97062l1.52637,-16.47657l3.00563,16.61253l-2.96018,16.49113l-8.40457,14.2338l-14.95178,11.62278l-20.89514,4.86397l-18.63583,-3.82055l-13.78075,-9.06739l-11.9484,-18.14029z" fill="url(#color-8)"/></g><g stroke-width="0"><path d="M291.42761,146.85167l2.75097,-12.24819l5.7024,-8.03993l9.47558,-6.23609l10.64346,-2.04821l12.0492,2.65735l8.65325,6.22254l6.05098,9.63866l1.819,10.05388l-1.7915,9.9804l-5.08643,8.61426l-9.04879,7.03409l-12.6457,2.94366l-11.27837,-2.31219l-8.34009,-5.48756l-7.23115,-10.97848z" fill="url(#color-9)"/><path d="M282.82488,126.06174l3.57925,-15.93593l7.41931,-10.46063l12.32853,-8.11369l13.84805,-2.66491l15.67703,3.45745l11.2586,8.09605l7.87285,12.54072l2.36667,13.08095l-2.33089,12.98535l-6.61788,11.2079l-11.77324,9.15194l-16.45313,3.82996l-14.67412,-3.00835l-10.85117,-7.13978l-9.40834,-14.28393z" fill="url(#color-10)"/></g><path d="M287.25588,126.06173l3.15263,-14.03649l6.53499,-9.21381l10.85907,-7.1466l12.19747,-2.34727l13.80845,3.04534l9.91666,7.13106l6.93446,11.04596l2.08459,11.52179l-2.05307,11.4376l-5.82908,9.872l-10.36996,8.0611l-14.49204,3.37346l-12.92507,-2.64978l-9.55779,-6.28878l-8.28694,-12.58139z" fill="url(#color-11)" stroke-width="0"/><path d="M311.96941,128.25401c-1.0863,0.02595 -2.19887,0.11716 -3.16003,0.16861c-3.69896,0.19801 -7.33333,1.97037 -10.97167,1.99957c0,0 -0.75,0 -0.75,-0.75c0,-0.75 0.75,-0.75 0.75,-0.75c4.55869,0.04754 9.19666,-1.99793 13.922,-1.99793c0.30974,0 2.97173,-0.02194 3.18548,0.07402c1.33593,0.59974 1.48674,4.67721 -0.44421,4.48934c-0.67392,-0.06557 -1.08228,-0.81397 -1.62341,-1.22096c-0.70786,-0.69965 -0.97234,-1.4494 -0.90817,-2.01265z" fill="#00fff0" stroke-width="0.5"/><path d="M345.85224,130.12934c-1.77676,0.35112 -2.98223,-1.79055 -2.22233,-3.27487c0.02415,-0.04717 0.04838,-0.09253 0.07265,-0.13609c-1.15597,-0.06024 -2.43973,0.10753 -3.1092,0.10753c-4.75883,0 -8.92025,0.65342 -13.57202,1.58378c0,0 -0.73544,0.14709 -0.88252,-0.58835c-0.14709,-0.73543 0.58835,-0.88252 0.58835,-0.88252c4.74255,-0.94851 9.01299,-1.61291 13.86619,-1.61291c2.23622,0 5.23978,-0.54503 6.6369,1.56289l0.17311,0.25859c0.15074,0.14216 0.1981,0.31305 0.20261,0.46284c0.02085,0.14832 0.00308,0.32466 -0.1213,0.49016c-0.32765,0.75689 -0.63826,1.83247 -1.63245,2.02894z" fill="#00fff0" stroke-width="0.5"/><g fill="#00fff0" stroke-width="0.5"><path d="M331.8715,159.64595c-0.59396,0.29698 -0.92496,-0.1949 -0.99302,-0.31151c-0.34102,-0.10231 -0.68203,-0.20461 -1.02305,-0.30692c-5.07437,-1.52757 -10.75178,-1.33529 -15.99857,-2.12768c-1.7142,-0.25888 -4.42545,-0.1113 -5.08162,-1.55388c-0.50252,0.14346 -0.98879,0.33262 -1.46424,0.65694c0,0 -0.62403,0.41602 -1.04006,-0.20802c-0.41602,-0.62404 0.20801,-1.04006 0.20801,-1.04006c0.75943,-0.49719 1.50509,-0.73198 2.29289,-0.93687c0.10688,-0.19243 0.37345,-0.52188 0.89101,-0.34937c0.06608,0.02203 0.12397,0.04814 0.17463,0.07739c0.10378,-0.02775 0.20858,-0.0566 0.31453,-0.08702l0.33923,-0.02886c0,0 0.75,0 0.75,0.75c0,0.6293 -0.52803,0.73058 -0.69798,0.74688c0.92047,0.32704 2.97331,0.40461 3.53741,0.48965c5.32538,0.80292 11.05088,0.63269 16.20578,2.17415c0.44398,0.1332 0.88797,0.26639 1.33195,0.39959l0.5885,0.64935c0,0 0.33541,0.67082 -0.33541,1.00623zM310.56409,154.90125c-0.01723,0.0049 -0.03444,0.00975 -0.05163,0.01454c0.00257,0.00096 0.00513,0.00191 0.00772,0.00286z"/><path d="M308.55003,154.55256c0,0 -0.10607,-0.74246 0.63639,-0.84853c0.74246,-0.10607 0.84853,0.6364 0.84853,0.6364c0.05524,0.38683 0.12129,0.77315 0.20013,1.15555c0.05133,-0.04384 0.11311,-0.08494 0.18714,-0.12196c0.67082,-0.33541 1.00623,0.33541 1.00623,0.33541l0.4587,0.96227c0.03368,1.85476 0.34053,2.78207 1.32428,4.36384c0.60489,0.47261 1.3148,0.84332 2.14768,1.08112l0.45748,0.324c0,0 0.51172,0.51172 0.02719,1.03249c2.35577,1.59039 5.33369,2.30228 7.88214,0.41188c1.93694,-1.43679 3.2787,-4.18037 4.34224,-6.31087c0,0 0.33541,-0.67082 1.00623,-0.33541c0.67082,0.33541 0.33541,1.00623 0.33541,1.00623c-1.18096,2.35838 -2.66431,5.29875 -4.82614,6.87062c-4.28065,3.11247 -9.58304,0.45613 -12.44945,-3.02345c-2.13868,-1.77129 -3.16531,-4.60858 -3.58418,-7.53959z"/></g><path d="M314.29565,110.87426c-0.6,0.45 -1.05,-0.15 -1.05,-0.15l-0.46662,-0.64232c-0.45685,-1.0677 -1.29176,-0.90512 -2.36363,-0.90474c-3.3495,0.0012 -5.66395,2.49374 -7.27284,5.17704c0,0 -0.38587,0.64312 -1.02899,0.25725c-0.64312,-0.38587 -0.25725,-1.02899 -0.25725,-1.02899c1.84822,-3.07834 9.29469,-9.63415 12.26435,-4.17138l0.32498,0.41314c0,0 0.45,0.6 -0.15,1.05z" fill="#00fff0" stroke-width="0.5"/></g></g></svg>