<svg version="1.1" xmlns="http://www.w3.org/2000/svg" xmlns:xlink="http://www.w3.org/1999/xlink" width="47.04546" height="47.04546" viewBox="0,0,47.04546,47.04546"><defs><radialGradient cx="320.09616" cy="180" r="23.52273" gradientUnits="userSpaceOnUse" id="color-1"><stop offset="0" stop-color="#000000" stop-opacity="0.68235"/><stop offset="1" stop-color="#000000" stop-opacity="0"/></radialGradient><linearGradient x1="320.00002" y1="162.6087" x2="320.00002" y2="197.39132" gradientUnits="userSpaceOnUse" id="color-2"><stop offset="0" stop-color="#dedede" stop-opacity="0.20784"/><stop offset="1" stop-color="#dedede" stop-opacity="0"/></linearGradient><linearGradient x1="320.09617" y1="162.6087" x2="320.09617" y2="197.39132" gradientUnits="userSpaceOnUse" id="color-3"><stop offset="0" stop-color="#292929" stop-opacity="0"/><stop offset="1" stop-color="#292929" stop-opacity="0.25098"/></linearGradient></defs><g transform="translate(-296.57343,-156.47727)"><g stroke="none" stroke-miterlimit="10"><path d="M296.57343,180c0,-12.99124 10.53148,-23.52273 23.52273,-23.52273c12.99124,0 23.52273,10.53148 23.52273,23.52273c0,12.99124 -10.53148,23.52273 -23.52273,23.52273c-12.99124,0 -23.52273,-10.53148 -23.52273,-23.52273z" fill="url(#color-1)" stroke-width="0"/><path d="M302.60871,197.3913v-34.78261h34.78261v34.78261z" fill="#4e3c27" stroke-width="0"/><g stroke-width="0"><path d="M302.60872,197.39132v-34.78261h34.78261l-2.48896,2.57975l-29.14148,0.24634l-0.30739,29.42558z" fill="url(#color-2)"/><path d="M337.48748,162.6087v34.78261h-34.78261l2.88669,-2.57975l28.74375,-0.24634l0.59148,-29.36876z" fill="url(#color-3)"/></g><path d="M327.42862,182.98367c0.75,0 0.75,0.75 0.75,0.75v0.46875c-0.15856,4.92032 -6.50546,2.59605 -9.34159,2.15239c-1.83952,-0.28776 -3.49113,1.21529 -5.62148,0.76984c-1.49409,-0.31241 -1.77107,-1.25927 -2.1355,-2.56864c0,0 -0.19734,-0.72357 0.52623,-0.92091c0.72357,-0.19734 0.92091,0.52623 0.92091,0.52623c0.90689,3.41019 4.26702,0.42795 6.46176,0.70119c1.53504,0.19111 2.78605,0.8563 4.37716,0.85552c1.29094,-0.00063 3.42016,0.37096 3.3125,-1.51562v-0.46875c0,0 0,-0.75 0.75,-0.75z" fill="#000000" stroke-width="0.5"/><path d="M312.45987,179.20242c0,-0.41421 0.33579,-0.75 0.75,-0.75c0.41421,0 0.75,0.33579 0.75,0.75c0,0.41421 -0.33579,0.75 -0.75,0.75c-0.41421,0 -0.75,-0.33579 -0.75,-0.75z" fill="#000000" stroke-width="0.5"/><path d="M325.89737,178.4993c0,-0.41421 0.33579,-0.75 0.75,-0.75c0.41421,0 0.75,0.33579 0.75,0.75c0,0.41421 -0.33579,0.75 -0.75,0.75c-0.41421,0 -0.75,-0.33579 -0.75,-0.75z" fill="#000000" stroke-width="0.5"/><path d="M329.2108,175.25087l0.42344,0.59693c0.15885,0.26485 0.31769,0.52969 0.47654,0.79454c2.17998,4.00461 0.07443,6.41237 -4.24893,5.4802c-3.33182,-0.71838 -5.83079,-2.57466 -7.59197,-5.503c0,0 -0.00498,-0.00829 -0.01286,-0.02357c-2.14572,0.08743 -4.29315,0.1154 -6.44075,-0.035c-0.07165,0.02041 -0.1535,0.03207 -0.24702,0.03207c-0.15244,0 -0.27389,-0.03098 -0.37066,-0.08036c-0.00227,-0.0002 -0.00454,-0.00039 -0.00681,-0.00059c0,0 -0.74718,-0.06497 -0.68221,-0.81215c0.0239,-0.27491 0.14016,-0.43987 0.27757,-0.53858c-0.32679,-3.36599 -0.5908,-6.95621 -0.59289,-10.33394c0,0 0,-0.75 0.75,-0.75c0.01717,0 0.03394,0.00039 0.05034,0.00116c0.01775,-0.00116 0.02779,-0.00116 0.02779,-0.00116l0.15975,0.00372c5.3489,-0.52878 10.71279,-0.39435 16.09025,-0.39435c0,0 0.37016,0 0.59038,0.26005c0.33314,0.27882 0.21535,0.74998 0.21535,0.74998l-0.16549,0.65861c-0.9167,2.99998 1.21038,6.59521 1.2107,9.79719c0.05668,0.05513 0.08748,0.09824 0.08748,0.09824zM324.41136,180.29729c3.13114,1.16535 6.52825,0.98769 4.3976,-2.90979c-0.15365,-0.25599 -0.30731,-0.51197 -0.46096,-0.76796l-0.30041,-0.41712h-0.15022c-2.63367,-0.00216 -5.2735,0.17629 -7.91657,0.31278c1.09019,1.61227 2.58451,3.09502 4.43055,3.78209zM327.62095,174.70329c-0.11959,-3.19983 -1.9793,-6.41552 -1.21574,-9.51768c-4.91287,-0.01269 -9.81991,-0.11397 -14.70757,0.35209c0.03164,3.14261 0.28005,6.45234 0.58891,9.5517c5.11876,0.31582 10.23931,-0.35828 15.33439,-0.38611z" fill="#000000" stroke-width="0.5"/></g></g></svg>