<svg version="1.1" xmlns="http://www.w3.org/2000/svg" xmlns:xlink="http://www.w3.org/1999/xlink" width="47.04546" height="47.04546" viewBox="0,0,47.04546,47.04546"><defs><radialGradient cx="320.09617" cy="180.00001" r="23.52273" gradientUnits="userSpaceOnUse" id="color-1"><stop offset="0" stop-color="#000000" stop-opacity="0.68235"/><stop offset="1" stop-color="#000000" stop-opacity="0"/></radialGradient><linearGradient x1="320.00003" y1="162.6087" x2="320.00003" y2="197.39133" gradientUnits="userSpaceOnUse" id="color-2"><stop offset="0" stop-color="#dedede" stop-opacity="0.20784"/><stop offset="1" stop-color="#dedede" stop-opacity="0"/></linearGradient><linearGradient x1="320.09618" y1="162.6087" x2="320.09618" y2="197.39133" gradientUnits="userSpaceOnUse" id="color-3"><stop offset="0" stop-color="#292929" stop-opacity="0"/><stop offset="1" stop-color="#292929" stop-opacity="0.25098"/></linearGradient></defs><g transform="translate(-296.57343,-156.47727)"><g stroke="none" stroke-miterlimit="10"><path d="M296.57344,180.00001c0,-12.99124 10.53148,-23.52273 23.52273,-23.52273c12.99124,0 23.52273,10.53148 23.52273,23.52273c0,12.99124 -10.53148,23.52273 -23.52273,23.52273c-12.99124,0 -23.52273,-10.53148 -23.52273,-23.52273z" fill="url(#color-1)" stroke-width="0"/><path d="M302.60872,197.39131v-34.78261h34.78261v34.78261z" fill="#c7c7c7" stroke-width="0"/><g stroke-width="0"><path d="M302.60873,197.39133v-34.78261h34.78261l-2.48896,2.57975l-29.14148,0.24634l-0.30739,29.42558z" fill="url(#color-2)"/><path d="M337.48749,162.6087v34.78261h-34.78261l2.88669,-2.57975l28.74375,-0.24634l0.59148,-29.36876z" fill="url(#color-3)"/></g><path d="M311.3989,179.53682c0,-0.41422 0.33578,-0.75 0.75,-0.75c0.41422,0 0.75,0.33578 0.75,0.75c0,0.41422 -0.33578,0.75 -0.75,0.75c-0.41422,0 -0.75,-0.33578 -0.75,-0.75z" fill="#000000" stroke-width="0.5"/><path d="M324.2739,178.41182c0,-0.41422 0.33578,-0.75 0.75,-0.75c0.41422,0 0.75,0.33578 0.75,0.75c0,0.41422 -0.33578,0.75 -0.75,0.75c-0.41422,0 -0.75,-0.33578 -0.75,-0.75z" fill="#000000" stroke-width="0.5"/><path d="M329.02179,186.843c-0.05619,0.74789 -0.80408,0.69171 -0.80408,0.69171l-0.27462,-0.02063c-4.97917,-0.37419 -9.97473,-0.57895 -14.96041,-0.85339c0,0 -0.74887,-0.04122 -0.70764,-0.79009c0.04122,-0.74887 0.79009,-0.70764 0.79009,-0.70764c4.99569,0.27499 10.00116,0.48065 14.99034,0.85534l0.27462,0.02063c0,0 0.74789,0.05619 0.69171,0.80408z" fill="#000000" stroke-width="0.5"/><path d="M330.3989,179.91181c0.75,0 0.75,0.75 0.75,0.75l-0.21967,0.90533c-1.68006,1.52384 -5.19395,0.84523 -7.40533,0.84467c-0.61624,-0.00016 -2.99662,0.09566 -3.42882,-0.36925c-0.13209,-0.14209 -0.19526,-0.31549 -0.22133,-0.50575c-0.29087,0 -0.61469,0 -0.89934,0c0.01563,0.18757 0.03126,0.37514 0.04689,0.56272c0,0 0.06228,0.74741 -0.68513,0.80969c-0.05541,0.00462 -0.10706,0.00478 -0.1552,0.00114c-0.02042,0.00145 -0.03209,0.00145 -0.03209,0.00145h-0.25c-3.18584,0 -6.35202,-0.04249 -9.53478,-0.18414c-0.07249,-0.00323 -2.58267,-0.05221 -2.74555,-0.28553c-0.36596,-0.52422 -0.14645,-1.27022 -0.21967,-1.90533c0,0 0,-0.75 0.75,-0.75c0.75,0 0.75,0.75 0.75,0.75c-0.07322,0.28156 -0.22742,0.55385 -0.21967,0.84467c0.01561,0.58583 1.16603,-0.17831 1.75149,-0.15233c0.49951,0.02217 0.99901,0.0444 1.49852,0.0666c2.51165,0.11163 5.01657,0.11592 7.52956,0.11606c-0.01896,-0.22751 -0.03792,-0.45502 -0.05688,-0.68253l-0.00302,-0.18998c0,0 -0.00249,-0.75 0.74751,-0.75248c0.29157,-0.00097 0.47016,0.11179 0.57955,0.25c0.39533,0 0.79066,0 1.18599,0c0.03732,-0.21335 0.18131,-0.625 0.73695,-0.625c0.75,0 0.75,0.75 0.75,0.75c-0.06539,0.28975 -0.39213,0.64601 -0.19618,0.86925c0.51108,0.58226 1.54644,-0.11905 2.32118,-0.11925c1.35464,-0.00035 5.46883,0.65578 6.34467,-0.40533l-0.21967,0.15533c0,0 0,-0.75 0.75,-0.75z" fill="#000000" stroke-width="0.5"/></g></g></svg>