<svg version="1.1" xmlns="http://www.w3.org/2000/svg" xmlns:xlink="http://www.w3.org/1999/xlink" width="47.04546" height="47.04546" viewBox="0,0,47.04546,47.04546"><defs><radialGradient cx="320.905" cy="180.7243" r="23.52273" gradientUnits="userSpaceOnUse" id="color-1"><stop offset="0" stop-color="#000000" stop-opacity="0.68235"/><stop offset="1" stop-color="#000000" stop-opacity="0"/></radialGradient><linearGradient x1="320.00004" y1="162.6087" x2="320.00004" y2="197.39135" gradientUnits="userSpaceOnUse" id="color-2"><stop offset="0" stop-color="#dedede" stop-opacity="0.20784"/><stop offset="1" stop-color="#dedede" stop-opacity="0"/></linearGradient><linearGradient x1="320.09619" y1="162.6087" x2="320.09619" y2="197.39135" gradientUnits="userSpaceOnUse" id="color-3"><stop offset="0" stop-color="#292929" stop-opacity="0"/><stop offset="1" stop-color="#292929" stop-opacity="0.25098"/></linearGradient></defs><g transform="translate(-297.38227,-157.20157)"><g stroke="none" stroke-miterlimit="10"><path d="M297.38227,180.7243c0,-12.99124 10.53148,-23.52273 23.52273,-23.52273c12.99124,0 23.52273,10.53148 23.52273,23.52273c0,12.99124 -10.53148,23.52273 -23.52273,23.52273c-12.99124,0 -23.52273,-10.53148 -23.52273,-23.52273z" fill="url(#color-1)" stroke-width="0"/><path d="M302.60873,197.39133v-34.78261h34.78261v34.78261z" fill="#54e2cc" stroke-width="0"/><g stroke-width="0"><path d="M302.60874,197.39135v-34.78261h34.78261l-2.48896,2.57975l-29.14148,0.24634l-0.30739,29.42558z" fill="url(#color-2)"/><path d="M337.4875,162.6087v34.78261h-34.78261l2.88669,-2.57975l28.74375,-0.24634l0.59148,-29.36876z" fill="url(#color-3)"/></g><path d="M313.9375,177.39637c0,-0.34341 0.27839,-0.62179 0.62179,-0.62179c0.34341,0 0.62179,0.27839 0.62179,0.62179c0,0.34341 -0.27839,0.62179 -0.62179,0.62179c-0.34341,0 -0.62179,-0.27839 -0.62179,-0.62179z" fill="#000000" stroke-width="0.5"/><path d="M324.81891,177.59068c0,-0.34341 0.27839,-0.62179 0.62179,-0.62179c0.34341,0 0.62179,0.27839 0.62179,0.62179c0,0.34341 -0.27839,0.62179 -0.62179,0.62179c-0.34341,0 -0.62179,-0.27839 -0.62179,-0.62179z" fill="#000000" stroke-width="0.5"/><path d="M323.42993,180.72865c0.61871,0.06187 0.55684,0.68058 0.55684,0.68058l-0.10412,0.8116c-0.98897,1.2449 -2.31454,1.24017 -3.76569,0.49146c-0.24621,-0.12703 -0.4197,-0.70832 -0.82371,-0.67839c-0.70023,0.05187 -0.46116,0.52234 -1.08324,0.83885c-1.27562,0.64903 -2.83203,0.04036 -3.38603,-1.10015c0,0 -0.23093,-0.57732 0.34639,-0.80825c0.57732,-0.23093 0.80825,0.34639 0.80825,0.34639c0.3314,1.55954 2.68602,-0.50218 3.30317,-0.52038c0.71577,-0.02111 2.82322,2.07067 3.44212,0.97893l0.02542,-0.4838c0,0 0.06187,-0.61871 0.68058,-0.55684z" fill="#000000" stroke-width="0.5"/><path d="M310.91535,174.01862c-0.68936,-0.29544 -0.39392,-0.9848 -0.39392,-0.9848l0.17915,-0.38791c0.09814,-0.33182 0.43039,-0.88726 0.11591,-1.0316c-0.6169,-0.28315 -1.94041,0.69633 -2.38486,0.96296c-1.6171,0.97012 -1.67564,1.86987 -0.11565,3.14132c0.31047,0.25305 0.94062,0.17422 1.27716,0.16949c0,0 0.75,0 0.75,0.75c0,0.75 -0.75,0.75 -0.75,0.75c-0.7681,-0.00801 -1.40853,0.08399 -2.10519,-0.41874c-0.46645,-0.3366 -0.79417,-0.83368 -1.16049,-1.27717c-3.34863,-4.05406 6.91011,-8.27133 5.83471,-2.70897l-0.26202,0.6415c0,0 -0.29544,0.68936 -0.9848,0.39392z" fill="#000000" stroke-width="0.5"/><path d="M328.51398,176.98915c0.23717,-0.71151 0.94868,-0.47434 0.94868,-0.47434l0.6401,0.21373c4.93285,1.59799 1.73952,-7.16686 -1.28131,-4.21866c-0.57,0.55629 -0.58631,0.71595 -0.91044,1.37538c0,0 -0.33541,0.67082 -1.00623,0.33541c-0.67082,-0.33541 -0.33541,-1.00623 -0.33541,-1.00623c0.4046,-0.79818 0.53748,-1.21383 1.29545,-1.85992c3.88136,-3.30844 9.88118,4.84445 3.80866,6.94929c-0.8639,0.29944 -1.21711,0.08408 -2.00173,-0.13854l-0.68342,-0.22745c0,0 -0.71151,-0.23717 -0.47434,-0.94868z" fill="#000000" stroke-width="0.5"/></g></g></svg>