<svg version="1.1" xmlns="http://www.w3.org/2000/svg" xmlns:xlink="http://www.w3.org/1999/xlink" width="47.04546" height="47.04546" viewBox="0,0,47.04546,47.04546"><defs><radialGradient cx="320.09618" cy="180.00004" r="23.52273" gradientUnits="userSpaceOnUse" id="color-1"><stop offset="0" stop-color="#000000" stop-opacity="0.68235"/><stop offset="1" stop-color="#000000" stop-opacity="0"/></radialGradient><linearGradient x1="320.00004" y1="162.6087" x2="320.00004" y2="197.39136" gradientUnits="userSpaceOnUse" id="color-2"><stop offset="0" stop-color="#dedede" stop-opacity="0.20784"/><stop offset="1" stop-color="#dedede" stop-opacity="0"/></linearGradient><linearGradient x1="320.09619" y1="162.6087" x2="320.09619" y2="197.39136" gradientUnits="userSpaceOnUse" id="color-3"><stop offset="0" stop-color="#292929" stop-opacity="0"/><stop offset="1" stop-color="#292929" stop-opacity="0.25098"/></linearGradient></defs><g transform="translate(-296.57344,-156.4773)"><g stroke="none" stroke-miterlimit="10"><path d="M296.57345,180.00004c0,-12.99124 10.53148,-23.52273 23.52273,-23.52273c12.99124,0 23.52273,10.53148 23.52273,23.52273c0,12.99124 -10.53148,23.52273 -23.52273,23.52273c-12.99124,0 -23.52273,-10.53148 -23.52273,-23.52273z" fill="url(#color-1)" stroke-width="0"/><path d="M302.60873,197.39134v-34.78261h34.78261v34.78261z" fill="#e4df48" stroke-width="0"/><g stroke-width="0"><path d="M302.60874,197.39136v-34.78261h34.78261l-2.48896,2.57975l-29.14148,0.24634l-0.30739,29.42558z" fill="url(#color-2)"/><path d="M337.4875,162.6087v34.78261h-34.78261l2.88669,-2.57975l28.74375,-0.24634l0.59148,-29.36876z" fill="url(#color-3)"/></g><path d="M311.99111,178.10868c0,-0.41421 0.33579,-0.75 0.75,-0.75c0.41421,0 0.75,0.33579 0.75,0.75c0,0.41421 -0.33579,0.75 -0.75,0.75c-0.41421,0 -0.75,-0.33579 -0.75,-0.75z" fill="#000000" stroke-width="0.5"/><path d="M327.06925,178.10868c0,-0.41421 0.33579,-0.75 0.75,-0.75c0.41421,0 0.75,0.33579 0.75,0.75c0,0.41421 -0.33579,0.75 -0.75,0.75c-0.41421,0 -0.75,-0.33579 -0.75,-0.75z" fill="#000000" stroke-width="0.5"/><path d="M325.47454,182.53641c0.41603,0.62404 -0.20801,1.04006 -0.20801,1.04006l-0.46875,0.3125c-4.93611,3.28637 -11.98243,1.96717 -17.01311,-0.50653c-0.5623,0.54262 -1.2479,0.98663 -2.09185,1.3531l-0.68606,0.06064c0,0 -0.75,0 -0.75,-0.75c0,-0.75 0.75,-0.75 0.75,-0.75l0.09519,0.06064c1.63787,-0.69109 2.50573,-1.74367 3.01708,-3.4406c0,0 0.22371,-0.71586 0.93957,-0.49215c0.71586,0.22371 0.49215,0.93957 0.49215,0.93957c-0.21901,0.68091 -0.48267,1.28287 -0.80774,1.81597c4.5246,2.14706 10.84739,3.38233 15.22273,0.46129l0.46875,-0.3125c0,0 0.62404,-0.41603 1.04006,0.20801z" fill="#000000" stroke-width="0.5"/><path d="M332.94932,177.62141c-0.3721,-0.65118 0.27908,-1.02329 0.27908,-1.02329l0.84435,-0.4076c2.57281,-0.19381 -3.60194,-2.99298 -4.18821,-3.4863c-0.47736,-0.40168 -1.06742,-0.95369 -1.0111,-1.57502c0.02869,-0.31648 2.34196,-2.07245 3.1646,-2.52532c-0.85597,0.09556 -3.33686,0.02043 -3.34379,0.02043c-2.19982,-0.00082 -5.16772,0.99788 -7.22476,0.70281c-2.32196,-0.33306 -1.26257,-1.77786 -0.28054,-2.80355c-0.79861,0.2722 -1.66501,0.32877 -2.46898,0.59117c-2.24372,0.73232 -4.86155,1.29103 -6.32433,3.17314c0,0 -0.46046,0.59201 -1.05247,0.13156c-0.59201,-0.46046 -0.13156,-1.05247 -0.13156,-1.05247c1.84373,-2.36883 5.49579,-3.37581 8.37715,-4.09485c0.25991,-0.06486 2.88826,-0.65538 3.14306,-0.26457c0.36869,0.5655 0.18603,1.77836 -0.22741,2.54684c0.12304,-0.02734 0.235,-0.04923 0.32258,-0.06419c0.51221,-0.08753 1.03381,-0.10687 1.55147,-0.1522c1.4465,-0.12666 2.86403,-0.21318 4.31579,-0.2137c0.9808,0 4.70747,-0.43771 5.08869,1.04382c0.38952,1.51378 -2.74768,2.46743 -3.42413,3.17003c-0.39833,0.41373 1.08631,0.37334 1.62694,0.56712c0.87175,0.31247 1.69672,0.80662 2.38258,1.42886c1.687,1.53052 2.95544,3.98682 -0.14633,4.34895l-0.2494,0.2174c0,0 -0.65118,0.3721 -1.02329,-0.27908z" fill="#000000" stroke-width="0.5"/><path d="M323.18191,188.85867c0.09049,0.20553 0.07175,0.41165 0.07175,0.41165c-0.11882,1.29365 -0.32734,2.81121 -0.21026,4.09821c0.02707,0.29757 4.46423,0.16112 5.01164,0.16201c1.89963,0.00311 3.8024,-0.03419 5.7017,0c0.37094,0.00668 1.09332,0.3445 1.11269,-0.02599c0.04534,-0.86718 -0.14394,-2.03918 -0.14394,-2.91151c0,-0.63624 0.63148,-1.43261 0.19809,-1.89842c-0.05061,-0.0544 -2.35161,0.16404 -2.80746,0.16404c-2.94271,0 -5.88542,0 -8.82812,0zM321.9727,188.65697c-0.12169,-0.11078 -0.21595,-0.28241 -0.21595,-0.5483c0,-0.75 0.75,-0.75 0.75,-0.75h0.78125c3.25,0 6.5,-0.00086 9.75,0c0.44137,0.00012 2.58032,-0.10791 2.98941,0.32029c0.26745,0.27995 0.19809,2.6497 0.19809,2.91408c0,0.44845 0.23605,3.07199 0.01231,3.52599c-0.90451,1.83534 -6.51366,0.91425 -8.1856,0.91151c-1.57177,-0.00258 -5.61538,0.7302 -6.39461,-1.08799c-0.49063,-1.14478 -0.01019,-3.55945 0.10224,-4.80804c0,0 0.02512,-0.27632 0.21287,-0.47755z" fill="#000000" stroke-width="0.5"/><path d="M329.31201,190.92397c-0.22617,0.67852 -0.88373,0.49429 -0.94421,0.47575l-0.2157,0.24651c-0.13752,0.15883 -0.34064,0.25931 -0.56723,0.25931c-0.17737,0 -0.34035,-0.06157 -0.46875,-0.1645c-0.1284,0.10293 -0.29138,0.1645 -0.46875,0.1645c-0.14417,0 -0.27884,-0.04068 -0.39315,-0.11118c-0.39014,0.16428 -0.78165,0.36476 -1.16092,0.24087c-0.09514,-0.03108 -0.04384,-0.28631 0.00615,-0.40681c-0.15743,0.09636 -0.62119,0.31479 -0.99722,-0.16867c-0.46046,-0.59201 0.13156,-1.05247 0.13156,-1.05247c0.48827,-0.2139 0.94288,-0.75013 1.46481,-0.64171c0.12156,0.02525 0.15468,0.26479 0.13996,0.46985l0.17832,-0.26747c0.13354,-0.20678 0.36603,-0.34365 0.63049,-0.34365c0.15984,0 0.30799,0.05 0.42969,0.13521c0.12169,-0.08521 0.26985,-0.13521 0.42969,-0.13521c0.28117,0 0.5262,0.15472 0.6546,0.38367l0.67632,-0.03268c0,0 0.71151,0.23717 0.47434,0.94868z" fill="#000000" stroke-width="0.5"/><path d="M333.35935,191.12159c-0.27854,0.69636 -0.9749,0.41781 -0.9749,0.41781l0.25215,-0.19699c-0.60228,0.30126 -1.33022,0.41735 -1.99569,0.31419c0,0 -0.73544,-0.14709 -0.58835,-0.88252c0.14709,-0.73544 0.88252,-0.58835 0.88252,-0.58835c0.31537,0.09164 0.7004,0.02852 0.97306,-0.15456l1.0334,0.11551c0,0 0.69636,0.27854 0.41781,0.9749z" fill="#000000" stroke-width="0.5"/></g></g></svg>