<svg version="1.1" xmlns="http://www.w3.org/2000/svg" xmlns:xlink="http://www.w3.org/1999/xlink" width="203.24415" height="304.35171" viewBox="0,0,203.24415,304.35171"><defs><radialGradient cx="400.80492" cy="136.40231" r="16.31048" gradientUnits="userSpaceOnUse" id="color-1"><stop offset="0" stop-color="#b1adb1"/><stop offset="1" stop-color="#615e61"/></radialGradient><radialGradient cx="400.80492" cy="208.36236" r="16.31048" gradientUnits="userSpaceOnUse" id="color-2"><stop offset="0" stop-color="#b1adb1"/><stop offset="1" stop-color="#615e61"/></radialGradient><radialGradient cx="400.90588" cy="172.31729" r="34.55214" gradientUnits="userSpaceOnUse" id="color-3"><stop offset="0" stop-color="#efe6ef"/><stop offset="1" stop-color="#b1adb1"/></radialGradient><linearGradient x1="400.80492" y1="172.31729" x2="420.92649" y2="172.31729" gradientUnits="userSpaceOnUse" id="color-4"><stop offset="0" stop-color="#f0e6f0" stop-opacity="0.69804"/><stop offset="1" stop-color="#f0e6f0" stop-opacity="0"/></linearGradient><radialGradient cx="303.8723" cy="84.55595" r="13.72904" gradientUnits="userSpaceOnUse" id="color-5"><stop offset="0" stop-color="#ff0000"/><stop offset="1" stop-color="#ff0000" stop-opacity="0"/></radialGradient><radialGradient cx="337.09657" cy="84.55595" r="13.72904" gradientUnits="userSpaceOnUse" id="color-6"><stop offset="0" stop-color="#ff0000"/><stop offset="1" stop-color="#ff0000" stop-opacity="0"/></radialGradient></defs><g transform="translate(-232.54368,11.52887)"><g stroke="none" stroke-miterlimit="10"><g stroke-width="0.5"><path d="M325.83758,1.48455l-0.03851,-0.14488c-1.98001,-0.95426 -4.58789,-4.54071 -4.44417,-6.82772c0.01561,-0.24843 0.39197,-0.39965 0.37159,-0.64774c-0.04798,-0.58402 -0.83918,-0.82366 -1.19561,-1.28878c-0.58685,-0.76579 -1.20185,-2.39147 -1.89837,-2.97681c-0.22413,-0.18836 -0.26988,0.53238 -0.48186,0.73431c-0.49626,0.4727 -0.9757,0.96589 -1.41308,1.49354c-2.61997,3.26024 -5.69061,6.14653 -8.40242,9.34701c-0.85485,1.0089 -1.72775,3.27508 -2.93406,3.76429c-0.95765,0.38837 -3.45981,-1.18436 -4.49401,-1.4615c-2.65189,-1.07029 -5.4191,-2.13031 -8.20094,-2.91272c-0.27301,-0.07679 -2.56509,-0.76953 -2.6165,-0.72625c-0.48563,0.40881 0.31326,1.24666 0.29608,1.88122c-0.02822,1.04242 -0.67215,1.59929 -0.70199,2.62077c0.16804,4.41482 1.76646,8.55346 2.48412,12.89101c0.31119,1.88089 0.12187,3.71496 0.87197,5.45235c5.90715,2.83379 11.39736,3.49558 17.8999,2.16099c5.01601,-1.02949 10.4202,-1.61425 15.30102,-3.14221c1.98472,-0.62132 3.69543,-1.95202 5.55218,-2.85917c1.03559,-1.23895 2.00507,-2.47797 3.29118,-3.46949l0.29006,-0.4511c0.76042,-3.79127 0.2541,-8.26229 -0.30791,-12.05388c-0.26562,-1.79196 -0.94356,-3.62306 -0.87652,-5.43542c-0.00034,-1.14697 0.15819,-2.13451 0.0186,-3.24772c-1.02442,1.78821 -3.44862,3.38857 -4.68937,4.88481c-0.67876,0.81853 -1.02793,1.67276 -2.1172,1.99833l-0.27809,0.47892c0,0 -0.30861,0.46833 -0.77705,0.16054c-0.29997,0.04317 -0.50905,-0.22269 -0.50905,-0.22269zM291.05858,17.4067c-0.72974,-4.40154 -2.33119,-8.58654 -2.49806,-13.07c0.04973,-0.96399 0.41502,-1.25878 0.69901,-2.08479c0.22155,-0.6444 -0.16315,-1.43621 -0.13996,-2.06674c0.01462,-0.39758 -0.08206,-0.90483 0.21006,-1.17492c0.55809,-0.51601 2.48307,0.20838 3.06506,0.3359c2.99808,0.65691 6.05548,1.91812 8.86898,3.06501c0.73047,0.19423 3.36154,1.65931 3.91123,1.4264c0.44924,-0.19035 0.67374,-1.35411 0.80733,-1.58305c0.02933,-0.05027 1.42401,-1.72223 1.49595,-1.80714c2.70742,-3.19532 5.77396,-6.07704 8.38963,-9.33164c0.29682,-0.35645 2.14889,-2.76188 2.78538,-2.64014c0.81021,0.15497 1.67384,1.88643 2.13165,2.50289c0.45618,0.61427 1.92489,2.00991 2.0556,2.74175c0.05839,0.32696 -0.33086,0.59527 -0.37027,0.92506c-0.07402,0.61939 0.3845,0.99071 0.65686,1.46012c0.97987,1.68881 1.23151,3.3372 3.1512,4.21838l0.1924,0.20291l0.24893,-0.35124c1.26391,-0.44714 1.83992,-1.72884 2.75801,-2.65821c1.4515,-1.46932 2.67568,-3.05152 4.26718,-4.28347l-0.09612,-0.10917l0.83563,-0.73572c0.07223,-0.066 0.16263,-0.11398 0.26543,-0.13511c0.30381,-0.06246 0.60074,0.1332 0.6632,0.43701c0.01576,0.07663 0.01508,0.15282 0.00041,0.22493l-0.14895,0.82911c0.27048,1.28818 0.03403,2.42245 0.04842,3.70824c-0.08373,1.73088 0.61008,3.53574 0.86455,5.24992c0.58514,3.94176 1.07236,8.54204 0.28962,12.48035c-0.00896,0.06502 -0.02781,0.12283 -0.04633,0.16754c-0.01898,0.04592 -0.04749,0.10186 -0.08882,0.15548l-0.42088,0.6267c-1.31713,1.05317 -2.32116,2.32447 -3.42365,3.59211c-1.94221,1.01178 -3.80819,2.38992 -5.91095,3.0482c-4.91826,1.53969 -10.35688,2.1333 -15.41076,3.17057c-6.72401,1.38004 -12.45398,0.69504 -18.56624,-2.22686c-0.16454,-0.00433 -0.28516,-0.09223 -0.36328,-0.17607c-0.01878,-0.00923 -0.03755,-0.01847 -0.05633,-0.02773c0,0 -0.45362,-0.22377 -0.2875,-0.67708c-0.6585,-1.75583 -0.52053,-3.54097 -0.83363,-5.42948z" fill="#000000"/><path d="M326.38071,1.69173c0.46843,0.30779 0.70871,-0.12994 0.70871,-0.12994l0.27842,-0.47819c1.08927,-0.32556 1.43927,-1.17812 2.11803,-1.99665c1.24076,-1.49623 3.72953,-3.13439 4.75395,-4.9226c0.1396,1.11321 -0.01677,2.10459 -0.01643,3.25156c-0.06704,1.81236 0.61384,3.65192 0.87946,5.44387c0.56201,3.79158 1.06728,8.28242 0.30686,12.0737l-0.29034,0.4519c-1.28611,0.99152 -2.25889,2.23743 -3.29448,3.47638c-1.85675,0.90715 -3.57419,2.246 -5.55891,2.86733c-4.88082,1.52796 -10.3155,2.12213 -15.3315,3.15162c-6.50254,1.33459 -12.01758,0.65803 -17.92473,-2.17576c-0.7501,-1.73739 -0.56479,-3.57829 -0.87599,-5.45918c-0.71765,-4.33755 -2.31907,-8.49677 -2.48711,-12.91159c0.02984,-1.02148 0.67459,-1.58253 0.70281,-2.62495c0.01718,-0.63456 -0.78096,-1.47497 -0.29533,-1.88378c0.05141,-0.04328 2.34357,0.64925 2.61658,0.72603c2.78185,0.78241 5.62003,1.86625 8.27193,2.93654c1.0342,0.27714 3.4653,1.82625 4.42296,1.43788c1.20632,-0.48921 2.09159,-2.77298 2.94645,-3.78188c2.7118,-3.20049 5.81335,-6.09394 8.43332,-9.35418c0.43738,-0.52765 0.919,-1.02031 1.41526,-1.49301c0.21199,-0.20193 0.25824,-0.92251 0.48237,-0.73416c0.69652,0.58534 1.31712,2.21315 1.90397,2.97894c0.35644,0.46512 1.15099,0.70657 1.19897,1.2906c0.02038,0.24809 -0.35594,0.39933 -0.37156,0.64776c-0.14372,2.28701 2.47812,5.88858 4.45812,6.84284l0.03868,0.14523c0,0 0.20956,0.26687 0.50953,0.22369z" fill="#ffbb08"/></g><g stroke-width="0.5"><path d="M279.52042,97.33854c0.75,0 0.75,0.75 0.75,0.75v1.12322c-0.00315,0.20875 -0.03976,0.50285 -0.04691,0.81039c0.00591,0.0028 0.0118,0.00561 0.0177,0.00843c0,0 0.67082,0.33541 0.33541,1.00623c-0.02244,0.04488 -0.04638,0.08527 -0.07153,0.12154c0.02181,0.02532 0.04521,0.04947 0.0703,0.07235c0.32809,0.2993 0.90808,0.29286 1.15695,0.66067c0.196,0.28968 -0.19162,0.75669 0,1.04929c0.18603,0.28406 0.70089,0.14915 0.94163,0.38861c0.78422,0.78005 1.43411,2.31442 2.14826,3.2027c1.79282,2.22998 4.67459,4.48288 7.22476,5.51777c1.78166,0.72302 2.55723,2.07578 4.51408,2.13005c5.93496,3.85032 12.89512,6.74201 20.01898,7.82551c2.7053,0.41146 5.83839,-0.00853 8.58229,-0.00852c2.89689,-0.01148 5.74391,-0.97376 8.6782,-0.46283c4.12348,0.718 9.75112,3.56459 12.39342,7.07002c1.28958,1.71083 2.28209,3.30873 3.85981,4.83839c1.56614,1.25582 3.3046,2.50992 4.54854,4.1094c1.47923,1.90202 2.212,4.36097 3.66457,6.26908c2.36393,3.10529 4.29132,5.5121 4.75228,9.18991c2.54163,-1.56125 5.0213,-4.22523 6.59803,-6.54252c0.52702,-0.77454 0.52526,-1.82772 1.03791,-2.61185c0.72994,-1.11648 1.90101,-1.96027 2.61856,-3.13375c1.73307,-2.83427 2.45975,-6.4391 3.47464,-9.57277c2.58835,-5.12813 0.88155,-11.58187 -0.29013,-16.85399c-0.57407,-2.5831 -2.19754,-6.10855 -1.16183,-8.56482c0.06439,-0.24109 0.20907,-0.37179 0.35848,-0.44197c0.13616,-0.08315 0.31706,-0.13146 0.54271,-0.06322l0.90098,0.11922c1.88603,0.58372 3.72767,0.61423 5.52832,1.50695c0.85066,0.37547 1.86196,0.26228 2.71917,0.62256c2.13426,0.89702 4.30192,2.83285 6.30205,4.15692c3.8283,2.53432 7.00377,6.27512 11.42296,7.53877c0,-0.55955 0,-1.17921 0,-1.44103c0,-4.73645 0.79341,-9.8967 0.45155,-14.53253c-0.17916,-2.42946 -1.13969,-4.83228 -1.49265,-7.24414c-0.44043,-3.00971 -0.175,-5.6875 -1.03195,-8.68759c-0.58846,-2.35304 -0.80553,-4.73421 -1.3241,-7.06799c-0.52904,-2.3809 -2.07324,-4.46386 -3.11107,-6.61973c-2.49332,-5.1793 -5.2508,-8.95375 -9.28951,-13.11301c-5.97596,-6.24761 -15.44392,-8.8437 -23.84985,-8.8437c-0.26047,0 -0.43048,-0.09046 -0.54145,-0.20855c-0.11809,-0.11096 -0.20855,-0.28099 -0.20855,-0.54145c0,-0.38541 0.19805,-0.57276 0.3906,-0.66384l0.3594,-0.6108c1.31009,0.02997 1.72289,-0.70122 2.9603,-1.02545c0.33632,-0.08812 0.67552,-0.15927 1.01643,-0.22109c-0.00324,-0.03237 -0.00493,-0.06635 -0.00493,-0.10204c0,-0.75 0.75,-0.75 0.75,-0.75h0.59858c0.86362,0 1.77142,0.03486 2.70524,0.08193c0.04389,-0.01412 0.08773,-0.02859 0.13151,-0.04344c0,0 0.3846,-0.1282 0.68253,0.08667c3.4476,0.19003 7.17064,0.45508 10.29482,-0.2973l-0.0852,-0.09965c-2.85243,-4.19492 -5.37538,-8.67195 -8.60757,-12.66304c-1.69442,-2.09225 -5.04127,-4.0182 -7.2192,-5.65164c-1.57412,-1.18059 -3.07885,-1.72411 -4.76816,-2.662c-3.0122,-1.67235 -5.67074,-3.9741 -8.9723,-5.17862c-4.62402,-1.68699 -9.98097,-2.0029 -14.40909,-4.05733c-2.87181,-1.37495 -6.86605,-1.06812 -10.01925,-1.06805c-6.91175,0.00016 -13.54925,0.10944 -20.39348,1.1011c-4.84442,0.80195 -9.31819,2.59775 -13.65075,4.97361c-3.52635,1.93376 -6.15313,5.12312 -9.8498,6.42855c-0.08659,0.04492 -0.19342,0.07622 -0.3252,0.08603c-0.21034,0.01566 -0.36593,-0.03224 -0.48093,-0.10918c-0.11536,-0.07641 -0.21957,-0.20148 -0.28627,-0.40158c-0.04741,-0.14223 -0.05692,-0.26551 -0.04176,-0.37173l-0.00854,-0.30382c-1.24992,-3.75275 -1.21577,-7.46219 -0.77113,-11.22133c-0.22414,-2.30005 -0.37036,-4.6415 0.2405,-6.75746c-0.01567,0.01533 -0.03162,0.02827 -0.04782,0.03841c-0.91602,0.57382 -2.09597,0.6339 -3.15652,1.38185c-2.82549,1.99268 -4.94498,4.40553 -7.72319,6.39142c-1.56708,1.09316 -2.24895,2.73541 -3.39879,4.25616c-2.17594,2.87783 -3.62026,5.16889 -5.14986,8.38582c-2.1689,4.56148 -5.27547,8.34842 -7.15641,13.06719c-1.47147,3.67441 -1.78393,7.75342 -2.84554,11.55864c-1.75477,6.28984 -3.07858,12.34292 -4.08759,18.82351c-0.57703,8.7073 -0.39514,17.13917 -0.3845,25.81202c1.93623,0 4.56897,0 6.42329,0c5.14916,0 10.29833,0 15.44749,0c2.56872,0 5.41163,-0.26761 7.89992,0.40687c0.00107,-0.09027 0.00133,-0.18323 0.00018,-0.27923v-1.12322c0,0 0,-0.75 0.75,-0.75zM357.11337,144.72944c-1.45087,-1.90588 -2.18065,-4.3609 -3.65512,-6.2568c-1.18345,-1.5217 -2.86875,-2.70957 -4.35681,-3.90543c-1.65828,-1.6043 -2.73499,-3.28364 -4.08433,-5.08616c-2.42344,-3.23735 -7.66691,-5.78858 -11.43838,-6.47011c-2.81924,-0.50945 -5.61912,0.46632 -8.41221,0.48585c-2.82433,0 -6.02556,0.41528 -8.812,-0.00853c-7.02006,-1.06771 -14.53121,-3.81951 -20.24411,-7.87776c-1.75484,-0.00836 -2.02717,-0.79291 -3.3621,-1.68117c-1.16573,-0.77567 -2.99214,-0.73556 -4.0996,-1.56227c-1.00926,-0.75342 -1.64898,-2.36077 -2.74644,-3.17721c-1.90081,-1.41408 -2.71305,-3.21579 -4.28895,-4.7999c-0.31321,-0.31484 -0.90808,-0.29286 -1.15695,-0.66067c-0.196,-0.28968 0.19162,-0.75668 0,-1.04928c-0.18603,-0.28406 -0.71071,-0.13967 -0.94163,-0.38861c-0.41822,-0.45086 -0.61119,-0.84534 -0.69669,-1.25206c-2.3656,-0.86105 -5.48686,-0.45519 -7.94772,-0.45519c-5.14916,0 -10.29833,0 -15.44749,0c-1.9573,0 -3.91459,0 -5.87189,0h-0.86729c0,0 -0.08536,0 -0.19849,-0.0288c-0.06878,0.01838 -0.14676,0.0288 -0.23515,0.0288c-0.75,0 -0.75,-0.75 -0.75,-0.75c0,-8.9912 -0.2127,-17.71516 0.39315,-26.72716c1.01505,-6.56052 2.3572,-12.69393 4.13365,-19.06145c1.07775,-3.8631 1.41407,-7.97468 2.89698,-11.71098c1.895,-4.75404 5.01266,-8.56589 7.19513,-13.15589c2.07866,-4.37168 5.02011,-10.29755 9.03145,-13.21846c1.60966,-1.14888 2.48726,-2.56423 3.91219,-3.84072c1.39392,-1.24872 3.45757,-2.53476 5.07371,-3.48374c0.58649,-0.34438 1.42636,-0.10511 1.97708,-0.50419c0.61954,-0.44895 0.26226,-2.65198 2.22555,-0.75962c0.5892,0.56791 0.41568,1.81976 0.16454,2.91882c0.58584,0.18666 0.47857,0.83024 0.47857,0.83024c-0.29708,1.78247 -0.59918,3.54681 -0.80489,5.30123c0.15702,1.35797 0.35732,2.71415 0.38133,4.04218l-0.6201,0.92791c0.06958,1.77864 0.33965,3.55507 0.91796,5.33801c1.08532,-0.54621 1.31732,-1.19183 2.5285,-2.04708c1.85714,-1.31138 4.28647,-2.838 6.36687,-3.97883c4.48313,-2.45843 9.12598,-4.31055 14.14194,-5.14064c6.92047,-1.00307 13.63551,-1.11869 20.62349,-1.11885c3.42681,-0.00008 7.51405,-0.23402 10.65541,1.20961c4.3517,2.05922 9.71945,2.34021 14.28706,4.00661c3.37892,1.23274 6.10406,3.5651 9.18631,5.27634c1.7347,0.96309 3.31867,1.5574 4.94006,2.77344c2.29686,1.72265 5.63473,3.70263 7.47083,5.89052c3.308,3.94179 5.79227,8.52357 8.64735,12.71282l0.68471,0.79785c0.09636,0.07528 0.18232,0.18849 0.24132,0.35621c0.0503,0.12431 0.08407,0.28693 0.03355,0.45929c-0.04541,0.17378 -0.15808,0.2958 -0.26519,0.37648c-0.14036,0.11628 -0.27554,0.16884 -0.39941,0.18221c-3.6797,1.15135 -8.18359,0.7817 -12.29549,0.59257c-1.62613,0.46507 -3.28227,0.54175 -4.90474,0.94397c-0.21382,0.053 -0.40818,0.11687 -0.59013,0.18671c8.08823,0.52394 16.45336,3.38618 22.18069,9.2098c4.14707,4.27085 7.0012,8.18176 9.56492,13.50732c1.0921,2.2686 2.66106,4.43927 3.22341,6.94322c0.51968,2.31393 0.72593,4.67345 1.30916,7.00714c0.87221,3.05192 0.60369,5.80586 1.06663,8.85457c0.37167,2.44771 1.32374,4.88245 1.50498,7.35521c0.34312,4.68141 -0.44751,9.86509 -0.44751,14.64248c0,0.44834 0,0.89667 0,1.34501v0.92294c0.00927,0.08059 0.00585,0.17134 -0.01456,0.27343c-0.04329,0.21644 -0.13755,0.35645 -0.24901,0.44626c-0.10992,0.09169 -0.26569,0.15666 -0.48643,0.15666c-0.10667,0 -0.19817,-0.01517 -0.27666,-0.0412c-5.09361,-1.07545 -8.48173,-5.14422 -12.73329,-7.95607c-1.91458,-1.26624 -4.024,-3.16341 -6.04773,-4.01949c-0.87279,-0.3692 -1.896,-0.27579 -2.76895,-0.64461c-1.71623,-0.86618 -3.51608,-0.88011 -5.33549,-1.43297l-0.16102,-0.01677c-0.51169,1.90349 1.02181,5.39536 1.42459,7.20804c1.24408,5.59883 2.91444,12.29855 0.21451,17.74652c-1.03229,3.21907 -1.80181,6.86934 -3.57803,9.77899c-0.73007,1.19595 -1.90333,2.05679 -2.65063,3.18472c-0.51743,0.78098 -0.51331,1.83567 -1.03791,2.61184c-1.85118,2.73887 -4.78102,5.75169 -7.74642,7.38468c0.00012,0.02422 0.00017,0.04849 0.00017,0.07282c0,0 0,0.75 -0.75,0.75c-0.75,0 -0.75,-0.75 -0.75,-0.75c0,-4.39284 -2.0271,-6.70551 -4.55077,-10.02063z" fill="#000000"/><path d="M278.81753,98.07179l-0.00036,1.12224c0.00115,0.096 -0.09252,0.22465 -0.09359,0.31492c-2.48829,-0.67448 -5.33212,-0.40947 -7.90085,-0.40947c-5.14916,0 -10.29922,-0.00312 -15.44839,-0.00312c-1.85432,0 -4.48729,-0.00097 -6.42352,-0.00097c-0.01064,-8.67285 -0.19356,-17.12112 0.38348,-25.82842c1.00901,-6.48059 2.33562,-12.54578 4.09039,-18.83562c1.0616,-3.80523 1.37714,-7.891 2.84861,-11.56542c1.88094,-4.71877 4.99266,-8.51335 7.16156,-13.07483c1.5296,-3.21694 2.97791,-5.51232 5.15385,-8.39015c1.14984,-1.52075 1.83409,-3.16515 3.40118,-4.25832c2.77821,-1.98589 4.90246,-4.40231 7.72796,-6.39499c1.06055,-0.74795 2.24221,-0.80911 3.15823,-1.38294c0.01619,-0.01014 0.08386,0.06251 0.09953,0.04718c-0.61086,2.11597 -0.46266,4.45615 -0.23852,6.7562c-0.44464,3.75914 -0.47549,7.46617 0.77443,11.21892l0.00865,0.30374c-0.01515,0.10622 -0.00554,0.2294 0.04188,0.37164c0.0667,0.2001 0.10822,0.24727 0.22357,0.32368c0.115,0.07694 0.27077,0.1247 0.48111,0.10904c0.13178,-0.00982 0.23879,-0.04126 0.32538,-0.08617c3.69666,-1.30543 6.33076,-4.49959 9.85711,-6.43335c4.33256,-2.37586 8.81639,-4.17574 13.66081,-4.97769c6.84423,-0.99166 13.49706,-1.10281 20.40881,-1.10296c3.1532,-0.00007 7.1551,-0.30605 10.02691,1.0689c4.42811,2.05443 9.79596,2.37375 14.41998,4.06074c3.30156,1.20452 5.96705,3.51003 8.97924,5.18238c1.68931,0.93789 3.19741,1.4838 4.77152,2.66439c2.17793,1.63344 5.52994,3.56397 7.22435,5.65622c3.23219,3.99108 5.76222,8.47724 8.61465,12.67216l-0.00044,0.15129c-3.12418,0.75238 -6.84478,0.49103 -10.29237,0.301c-0.29793,-0.21487 -0.68228,-0.08633 -0.68228,-0.08633c-0.04379,0.01485 -0.08761,0.02936 -0.13149,0.04348c-0.93383,-0.04707 -1.84067,-0.0807 -2.7043,-0.0807l-0.59836,0.00027c0,0 -0.67202,-0.0626 -0.67202,0.6874c0,0.03569 -0.0764,0.13213 -0.07317,0.1645c-0.34091,0.06182 -0.67983,0.1333 -1.01615,0.22142c-1.23741,0.32423 -1.64951,1.05627 -2.9596,1.0263l-0.28306,0.54622c-0.19256,0.09108 -0.39043,0.27864 -0.39043,0.66405c0,0.26047 0.09083,0.43094 0.20892,0.5419c0.11096,0.11809 0.28131,0.20896 0.54178,0.20896c8.40593,0 17.88211,2.61114 23.85807,8.85874c4.03871,4.15926 6.79856,7.94441 9.29188,13.12371c1.03783,2.15587 2.58232,4.24354 3.11136,6.62444c0.51856,2.33378 0.73548,4.71967 1.32394,7.07271c0.85694,3.00009 0.59075,5.68339 1.03119,8.69311c0.35295,2.41186 1.3125,4.81881 1.49166,7.24828c0.34186,4.63583 -0.45448,9.80386 -0.45448,14.54031c0,0.26182 -0.00033,0.88216 -0.00033,1.44171c-4.41919,-1.26365 -7.68481,-5.04772 -11.51311,-7.58204c-2.00013,-1.32407 -4.16814,-3.25912 -6.3024,-4.15614c-0.85721,-0.36028 -1.77732,-0.20605 -2.62798,-0.58152c-1.80066,-0.89273 -3.64263,-0.92248 -5.52866,-1.50621l-0.90108,-0.11899c-0.22565,-0.06824 -0.40667,-0.01969 -0.54283,0.06346c-0.14941,0.07018 -0.29431,0.20134 -0.3587,0.44243c-1.03571,2.45627 0.58478,5.98687 1.15886,8.56998c1.17169,5.27212 2.87229,11.7335 0.28394,16.86163c-1.01489,3.13367 -1.74613,6.74257 -3.47919,9.57684c-0.71754,1.17348 -1.8907,2.01883 -2.62064,3.13531c-0.51265,0.78412 -0.51214,1.83816 -1.03916,2.6127c-1.57673,2.31729 -4.06128,4.98413 -6.60291,6.54537c-0.46096,-3.67781 -2.38837,-6.08461 -4.7523,-9.18989c-1.45257,-1.90812 -2.18564,-4.36692 -3.66487,-6.26893c-1.24393,-1.59948 -2.98413,-2.85274 -4.55027,-4.10856c-1.57772,-1.52966 -2.57158,-3.12698 -3.86116,-4.83781c-2.6423,-3.50543 -8.28013,-6.34897 -12.40361,-7.06697c-2.9343,-0.51093 -5.79189,0.45218 -8.68878,0.46366c-2.74391,0 -5.88718,0.41864 -8.59249,0.00718c-7.12386,-1.0835 -14.10592,-3.98669 -20.04088,-7.83702c-1.95685,-0.05427 -2.73609,-1.4107 -4.51775,-2.13372c-2.55017,-1.0349 -5.43746,-3.29519 -7.23028,-5.52517c-0.71414,-0.88828 -1.36595,-2.4261 -2.15017,-3.20614c-0.24074,-0.23946 -0.75595,-0.10525 -0.94198,-0.38931c-0.19162,-0.29261 0.19559,-0.76046 -0.00041,-1.05015c-0.24886,-0.36782 -0.82931,-0.36237 -1.1574,-0.66167c-0.02509,-0.02289 -0.04853,-0.04713 -0.07034,-0.07244c0.02514,-0.03627 0.04905,-0.07674 0.0715,-0.12162c0.33541,-0.67082 -0.33582,-1.0072 -0.33582,-1.0072c-0.0059,-0.00282 -0.0118,-0.00565 -0.01771,-0.00845c0.00714,-0.30755 0.04348,-0.60232 0.04663,-0.81108l-0.00038,-1.12421c0,0 -0.00033,-0.75091 -0.75033,-0.75091c-0.75,0 -0.65562,0.71694 -0.65562,0.71694z" fill="#ffbb08"/></g><g stroke-width="0.5"><path d="M337.12977,129.33904c0.42222,2.37106 -1.87611,4.26078 -3.04953,6.09719c-3.66397,5.73417 -12.80986,7.10941 -19.13522,5.84777c-8.57125,-2.56331 -13.80004,-9.99415 -16.99098,-18.15753c-1.96737,0.54083 -3.94395,1.30545 -5.89483,1.74457c-0.90992,0.20481 -1.93004,0.08266 -2.74682,0.53296c-0.38974,0.21487 -0.76644,0.46896 -1.14264,0.73672c-0.75567,2.58712 -1.29298,5.36843 -1.69302,7.9917c-0.46958,3.07927 0.68573,6.55072 -0.01829,9.58513c-0.41133,1.77288 -1.84414,3.87301 -2.82637,5.38885c-0.85219,5.95779 -7.50781,10.22415 -12.77364,12.20111c-0.83445,2.10536 -1.99036,4.13752 -2.61604,6.30874c-1.01394,3.51854 -0.90227,7.51185 -1.80429,11.11993c-1.99424,7.97648 -2.5923,16.76644 -0.81562,24.85806c0.15541,0.06968 0.25454,0.16881 0.25454,0.16881l0.23873,0.29315c2.72481,1.3624 3.95387,4.04326 6.22697,5.74156c1.56307,1.16782 4.00994,1.95556 5.54023,2.96409c2.49396,1.64363 5.07571,3.63925 7.98019,5.0512c5.15711,2.51664 10.47583,3.29827 16.1078,4.83725c4.07778,1.11429 7.98573,3.46573 12.17811,3.44241c4.46511,0 9.53316,0.6916 13.93923,0.0125c1.73023,-0.26668 3.42055,-1.04123 5.19845,-1.29994c2.99022,-0.43512 5.38115,-2.94226 7.98038,-4.23408c4.23504,-3.33236 8.40025,-5.90161 11.27874,-10.41003c0.79934,-1.25196 2.57933,-1.56134 3.31649,-2.66815c1.48581,-2.23086 2.76001,-5.45741 3.18102,-8.14559c1.85483,-1.93682 1.82164,-5.44128 1.82164,-8.06328c0,-3.43282 -0.75761,-6.55816 -1.29148,-9.89059c-0.55177,-3.44418 -0.4281,-6.16712 -1.74758,-9.53385c-1.36995,-4.78469 -2.29482,-9.69021 -3.24058,-14.59514c-0.17597,0.07829 -0.34225,0.07829 -0.34225,0.07829l-0.76906,-0.07918c-0.55854,-0.3019 -0.78635,-1.06125 -1.35981,-1.33375c-0.39167,-0.18612 -0.92609,0.21804 -1.30092,0c-0.85726,-0.49867 -0.51106,-1.28268 -1.05046,-1.89398c-2.50524,-2.83924 -2.88707,-7.23019 -4.06561,-10.76582c0.01719,-1.97625 -1.21106,-3.13855 -1.88423,-4.95226c-1.17709,-3.1714 -1.30037,-6.50787 -2.01114,-9.75256c-0.41758,-1.90624 -0.48892,-3.88965 -0.91435,-5.78356c-0.10224,-0.45515 -0.22024,-1.64224 -0.54066,-2.11888c-0.17891,-0.06731 -0.35092,-0.13029 -0.51436,-0.18857c-0.14505,-0.02161 -0.41134,-0.09469 -0.55376,-0.3418c-0.45361,-0.389 -0.94755,-0.674 -1.47042,-0.88191c1.13675,2.65515 2.40548,8.92693 -0.67854,10.08841zM298.14254,121.50779c0.23978,-0.08991 0.42838,-0.06726 0.57281,0.00158c0.38584,-0.15267 0.78124,-0.2817 1.20248,-0.34807c0.83954,-0.13227 1.73206,0.24244 2.54967,0.01038c3.51459,-0.99753 7.05494,-2.70867 10.84102,-2.60184c5.37755,-2.79112 13.77958,-1.32099 19.81426,-1.32099c2.56239,0 5.25639,-0.08848 7.15657,1.79844c0.20386,0.05194 0.3872,0.12624 0.55239,0.21984c2.13481,0.76184 5.52602,2.37775 6.97481,3.82889c1.04237,1.04406 0.79151,2.182 1.0955,3.40333c0.33312,1.33835 1.47882,2.53377 1.74014,3.92842c0.73001,3.89595 1.23698,7.91261 2.0205,11.84171c2.91586,9.5341 3.86286,19.56393 6.58414,29.10961c1.3469,3.42513 1.24676,6.27528 1.80779,9.77722c0.63065,3.93652 1.32239,7.56069 1.31037,11.62787c-0.00682,2.30841 -0.37027,5.54779 -1.97045,7.21466c-0.27899,2.61874 -1.79435,6.19564 -3.29461,8.34177c-0.79348,1.13508 -2.53452,1.37906 -3.28091,2.61371c-2.87644,4.75811 -7.35594,7.47945 -11.75111,10.88527c-4.60186,2.31399 -8.50789,4.90887 -13.70691,5.74066c-4.48918,0.71822 -9.66218,0.0125 -14.21195,0.0125c-4.38995,-0.02067 -8.32793,-2.34092 -12.5749,-3.49585c-5.72315,-1.55635 -11.11606,-2.38012 -16.36803,-4.93537c-2.93352,-1.43243 -5.64198,-3.44707 -8.11177,-5.12367c-1.49262,-1.01325 -4.1329,-1.90184 -5.73444,-3.10688c-2.14598,-1.6147 -3.36376,-4.25749 -5.91499,-5.5331l-0.62856,-0.57413c0,0 -0.09416,-0.09416 -0.16345,-0.24281c-0.37605,-0.12674 -0.47199,-0.55846 -0.47199,-0.55846c-1.85369,-8.34162 -1.25526,-17.42065 0.80198,-25.65007c0.90483,-3.61932 0.80513,-7.58088 1.80451,-11.12081c0.50583,-1.79172 1.37004,-3.48774 2.13234,-5.20451c-0.06615,-0.03638 -0.13338,-0.08656 -0.2006,-0.15379c-0.53033,-0.53033 0,-1.06066 0,-1.06066l0.7268,-0.61483c0.08383,-0.02781 0.16821,-0.05629 0.25308,-0.08544c1.29393,-3.58509 2.11913,-7.41372 3.15769,-11.08689c0.68484,-3.4297 1.75026,-7.59538 3.56031,-10.62615c0.43357,-0.72597 1.02962,-0.71674 1.20897,-1.51258c0.44435,-1.97173 0.19268,-4.00433 1.39287,-5.85932c1.19816,-1.85184 4.15918,-3.62941 6.06076,-4.648c0.63857,-0.32582 1.22485,-0.7498 1.79938,-1.17029c0.09852,-0.32454 0.20031,-0.64571 0.30552,-0.96283c0,0 0.23717,-0.71151 0.94869,-0.47434c0.21758,0.07253 0.34644,0.18941 0.4205,0.31674c0.01574,-0.00849 0.0315,-0.01691 0.04728,-0.02525c1.89572,-1.00233 5.3538,-1.34253 7.43356,-1.62412c0.58953,-0.07982 1.12652,-0.2842 1.6539,-0.51028c0.05294,-0.16871 0.17992,-0.33844 0.45411,-0.44126zM315.30802,139.82859c7.90215,1.58536 19.73668,-1.95003 20.54578,-11.27815c2.67503,-1.58025 1.64371,-6.62795 0.43163,-9.024l-0.36315,-0.72629c-1.39396,-0.16255 -2.88164,-0.05131 -4.29949,-0.05131c-5.69885,0 -12.83902,-1.20796 -17.96963,1.28086c-3.85666,0.07495 -7.22839,1.6363 -10.84103,2.60184c-0.24854,0.06643 -2.45801,-0.01932 -2.65402,0.01038c-0.24417,0.03699 -0.48868,0.08068 -0.73347,0.12999c2.99879,7.62256 7.89211,14.65116 15.88338,17.05667zM342.56069,124.0058c0.60591,4.52275 1.07934,9.53923 2.6585,13.78996c0.7101,1.91142 1.9418,3.12494 1.95867,5.23413c1.64975,4.94923 2.19554,10.81183 6.96699,12.89219l0.09824,-0.07918c0,0 0.02588,0 0.06803,0.00481c-0.86469,-4.44415 -1.7834,-8.87822 -3.10298,-13.2118c-0.79375,-3.95792 -1.34169,-7.98175 -2.03698,-11.9148c-0.23994,-1.35727 -1.38975,-2.56387 -1.72898,-3.87713c-0.25089,-0.97126 0.08767,-1.90761 -0.74476,-2.73809c-0.96931,-0.96705 -2.80767,-1.9428 -4.5291,-2.7002c0.20437,0.83905 0.28175,1.77438 0.39237,2.60011zM282.22387,148.5897c0.91083,-1.47321 2.37889,-3.50766 2.77332,-5.21089c0.68881,-2.97439 -0.46607,-6.43804 -0.00333,-9.47251c0.32141,-2.10763 0.73489,-4.31531 1.27018,-6.44893c-0.16002,0.09542 -0.32313,0.18649 -0.49009,0.27167c-2.90598,1.54859 -6.11348,3.83331 -6.67772,7.30195c-0.02778,0.17082 0.05278,1.98179 -0.01038,2.22038c-0.20485,0.77391 -0.97938,1.27103 -1.39288,1.95655c-1.73476,2.87598 -2.72336,6.92086 -3.37794,10.18863c-0.93366,3.31356 -1.70442,6.75391 -2.78681,10.03242c4.6696,-1.98642 9.98682,-5.72031 10.69564,-10.83926z" fill="#000000"/><path d="M342.15173,121.35852c1.72143,0.7574 3.57111,1.7306 4.54042,2.69765c0.83243,0.83048 0.49577,1.76668 0.74666,2.73793c0.33923,1.31325 1.49824,2.52008 1.73818,3.87735c0.69528,3.93304 1.26733,8.04658 2.06108,12.00451c1.31958,4.33358 2.22501,8.77474 3.0897,13.21889c-0.04215,-0.00481 -0.06819,-0.00475 -0.06819,-0.00475l-0.09854,0.07928c-4.77146,-2.08036 -5.34525,-7.94168 -6.995,-12.89091c-0.01688,-2.10919 -1.28481,-3.3851 -1.99491,-5.29652c-1.57916,-4.25073 -2.02259,-9.30002 -2.62851,-13.82278c-0.11063,-0.82573 -0.18654,-1.76161 -0.3909,-2.60066z" fill="#f5f5f5"/><path d="M299.37736,122.75566c0.24479,-0.04931 0.48961,-0.09387 0.73377,-0.13086c0.19601,-0.0297 2.40648,0.05354 2.65501,-0.01289c3.61264,-0.96554 7.00731,-2.55163 10.86396,-2.62658c5.13062,-2.48882 12.33277,-1.26783 18.03163,-1.26783c1.41785,0 2.90939,-0.10573 4.30336,0.05682l0.36414,0.72801c1.21208,2.39605 2.24955,7.46563 -0.42548,9.04588c-0.80909,9.32812 -12.70803,12.9136 -20.61018,11.32824c-7.99128,-2.40551 -12.91742,-9.49823 -15.91621,-17.12079z" fill="#f5f5f5"/><path d="M271.5073,159.47437c1.08239,-3.27851 1.84358,-6.72465 2.77724,-10.03821c0.65458,-3.26776 1.66001,-7.40037 3.39478,-10.27635c0.4135,-0.68552 1.20322,-1.18451 1.40806,-1.95842c0.06316,-0.2386 -0.01775,-2.04958 0.01004,-2.22039c0.56424,-3.46864 3.7906,-5.74918 6.69658,-7.29777c0.16696,-0.08518 0.33095,-0.17585 0.49097,-0.27127c-0.53528,2.13362 -0.94276,4.34458 -1.26417,6.45221c-0.46275,3.03447 0.71519,6.53972 0.02639,9.51411c-0.39443,1.70323 -1.88534,3.7802 -2.79617,5.2534c-0.70882,5.11895 -6.07412,8.85627 -10.74372,10.84269z" fill="#f5f5f5"/><path d="M337.78711,119.29591c0.52287,0.20791 1.06052,0.40298 1.51414,0.79198c0.14242,0.24711 0.4092,0.32044 0.55425,0.34205c0.16343,0.05828 0.33586,0.12148 0.51477,0.18878c0.32042,0.47663 0.43954,1.66433 0.54178,2.11949c0.42543,1.89391 0.4997,3.87912 0.91728,5.78535c0.71078,3.24469 0.84007,6.5858 2.01716,9.7572c0.67317,1.81371 1.90518,2.97978 1.88799,4.95603c1.17854,3.53563 1.56773,7.93734 4.07298,10.77657c0.5394,0.6113 0.1943,1.39765 1.05156,1.89632c0.37483,0.21804 0.9095,-0.18555 1.30117,0.00056c0.57346,0.2725 0.80203,1.03374 1.36057,1.33563l0.76919,0.07954c0,0 0.1663,0.00005 0.34227,-0.07825c0.94576,4.90493 1.87375,9.8268 3.2437,14.61149c1.31948,3.36673 1.19501,6.09973 1.74678,9.5439c0.53387,3.33243 1.28898,6.46668 1.28898,9.8995c0,2.62199 0.0299,6.1334 -1.82493,8.07022c-0.421,2.68817 -1.69962,5.9212 -3.18543,8.15206c-0.73716,1.10681 -2.51964,1.41906 -3.31898,2.67103c-2.87849,4.50842 -7.05452,7.08639 -11.28956,10.41875c-2.59923,1.29182 -4.99743,3.80254 -7.98764,4.23766c-1.7779,0.25871 -3.47277,1.03481 -5.20299,1.30149c-4.40607,0.67909 -9.48664,-0.01056 -13.95175,-0.01056c-4.19238,0.02332 -8.11222,-2.32922 -12.19,-3.44351c-5.63197,-1.53899 -10.96577,-2.32656 -16.12288,-4.8432c-2.90448,-1.41195 -5.49348,-3.41282 -7.98744,-5.05645c-1.53029,-1.00852 -3.98117,-1.80018 -5.54424,-2.968c-2.2731,-1.69831 -3.50682,-4.3851 -6.23162,-5.7475l-0.2389,-0.29343c0,0 -0.09928,-0.09934 -0.25468,-0.16903c-1.77668,-8.09162 -1.18635,-16.90259 0.80788,-24.87907c0.90202,-3.60808 0.79029,-7.61356 1.80423,-11.13209c0.62568,-2.17122 1.78304,-4.21083 2.61749,-6.31619c5.26583,-1.97696 11.93091,-6.26167 12.78309,-12.21945c0.98222,-1.51584 2.4203,-3.6215 2.83163,-5.39437c0.70402,-3.03441 -0.44587,-6.51011 0.02371,-9.58938c0.40005,-2.62328 0.94214,-5.40747 1.69782,-7.99459c0.3762,-0.26775 0.75403,-0.52242 1.14378,-0.73729c0.81678,-0.4503 1.83925,-0.32923 2.74916,-0.53405c1.95088,-0.43912 3.93301,-1.20575 5.90038,-1.74658c3.19094,8.16339 8.43749,15.59228 17.00874,18.15559c6.32535,1.26164 15.49253,-0.10715 19.1565,-5.84132c1.17342,-1.83641 3.42247,-3.63912 3.00025,-6.01018c3.08402,-1.16148 1.81856,-7.43158 0.68181,-10.08673z" fill="#f5f5f5"/></g><g stroke-width="0.5"><path d="M280.07109,97.95719c-0.62678,-4.86254 -0.1418,-10.80066 0.96714,-14.77077c0.50909,-1.8226 1.75174,-3.72832 2.43631,-5.53756c2.8553,-3.18278 4.49241,-7.05093 7.22201,-10.26937c4.07263,-4.80198 11.27567,-7.46262 16.75277,-10.31045c10.51536,-5.44499 23.55898,-3.18519 33.8881,1.5945c1.73249,1.37629 3.29367,2.79683 4.71171,4.26602l0.91496,0.34277c0.62084,1.38653 3.67657,5.26678 5.24354,6.03807c0.69869,1.68152 1.37872,3.38873 1.96358,5.09221c1.79088,3.46406 3.27796,7.16618 4.68811,11.14195c3.47403,9.90248 -0.92365,22.62013 -5.33066,31.64003c-3.03244,3.53728 -4.54218,7.67922 -9.07268,9.75488c-1.65127,1.11057 -5.2312,2.28899 -6.92983,3.3162c-2.47773,1.49835 -5.72742,1.65241 -8.56924,1.65347c-6.11019,0.00229 -17.2162,1.11974 -22.65703,-1.9443c-3.00467,-1.06301 -5.27645,-1.97672 -8.31579,-3.85651c-3.94481,-1.71446 -5.57543,-4.08072 -9.05348,-6.262c-6.69167,-4.88862 -8.99468,-14.00461 -8.85953,-21.88914zM352.50001,74.77218c-2.88127,-5.48348 -6.5748,-10.34704 -12.07984,-14.79114c-9.82243,-4.45455 -22.17942,-6.70228 -32.16271,-1.5328c-5.28388,2.72593 -12.40546,5.29995 -16.28852,9.95528c-2.64798,3.1746 -4.17941,6.95072 -7.04179,10.02933c-0.61496,1.72099 -1.81667,3.48563 -2.28173,5.19703c-0.34357,1.26432 -0.62612,2.74792 -0.82759,4.33642c-0.88271,3.99437 -1.27451,8.01443 0.05621,12.05688c0,0 1.69783,9.23236 3.01797,11.2298c3.6198,5.50704 6.07424,8.0132 12.62267,12.04765c3.28235,1.40778 11.48339,5.15896 14.97546,5.6661c3.14911,0.45734 9.12982,0.81804 12.31847,0.81858c4.68904,0.00091 6.27188,-0.46639 10.88769,-1.18814c1.29865,-0.20307 4.65389,-2.71894 5.81125,-3.23826c0.37041,-0.24809 0.75034,-0.48354 1.14441,-0.7001c2.12988,-1.0984 5.23347,-3.62154 6.66158,-5.49591c4.32098,-5.67121 8.1935,-13.13631 8.1935,-20.19106c0,-2.70504 0.66781,-7.33011 0.27727,-10.00675c-0.1882,-1.28985 -2.02268,-4.36551 -2.03514,-5.76073c-0.02301,-2.5755 -1.7495,-3.76593 -2.50031,-6.20155c-0.22999,-0.74608 -0.48476,-1.48813 -0.74883,-2.23062z" fill="#000000"/><path d="M353.29423,76.98182c0.75081,2.43562 2.48032,3.63447 2.50332,6.20997c0.01246,1.39522 1.84832,4.47869 2.03652,5.76854c0.39054,2.67665 -0.27772,7.3147 -0.27772,10.01973c0,7.05474 -3.88447,14.54484 -8.20545,20.21605c-1.4281,1.87437 -4.53974,4.4048 -6.66962,5.50319c-0.39408,0.21655 -0.7754,0.45298 -1.1458,0.70106c-1.15737,0.51932 -4.51996,3.0393 -5.81862,3.24236c-4.6158,0.72175 -6.21209,1.19297 -10.90114,1.19206c-3.18865,-0.00054 -9.18589,-0.36163 -12.33501,-0.81896c-3.49207,-0.50714 -11.71279,-4.26675 -14.99514,-5.67453c-6.54843,-4.03445 -9.0178,-6.55757 -12.63759,-12.0646c-1.32015,-1.99744 -3.02301,-11.24386 -3.02301,-11.24386c-1.33072,-4.04245 -0.93948,-8.07831 -0.05677,-12.07269c0.20147,-1.5885 0.48507,-3.07783 0.82864,-4.34215c0.46507,-1.71141 1.6691,-3.48319 2.28406,-5.20417c2.86238,-3.07861 4.40254,-6.86877 7.05052,-10.04337c3.88307,-4.65533 11.02659,-7.24381 16.31047,-9.96974c9.98329,-5.16948 22.38287,-2.9163 32.2053,1.53825c5.50504,4.4441 9.21555,9.32597 12.09682,14.80945c0.26408,0.74249 0.52024,1.48732 0.75023,2.2334z" fill="#f5f5f5"/></g><g stroke-width="0.5"><path d="M264.76024,237.7582c7.12586,-3.533 16.90111,-7.57006 24.26569,-1.75036c4.15552,2.06397 7.26269,6.1755 9.63495,10.07923c1.51237,2.48872 4.25473,4.853 5.08936,7.69105c0.48503,1.64927 0.76036,3.46594 1.10341,5.1581c0.94227,1.91852 0.78105,3.70999 0.78107,5.81237c0.00001,2.77081 0.1596,5.68679 -0.77968,8.35149c-0.7697,2.18361 -2.57529,3.77597 -3.75841,5.65817c-1.39101,2.21293 -2.78791,4.6618 -4.63081,6.50887c-2.12322,0.76644 -3.82156,2.64342 -5.5759,3.73347c-1.66024,1.03159 -4.97199,1.49465 -6.89144,1.87927c-4.94988,0.99186 -9.11039,1.94298 -14.22022,1.94298c-2.10297,-0.0341 -3.31347,-0.99649 -5.14674,-1.93058c-1.96087,-0.9991 -4.37277,-1.75166 -6.06137,-3.05688c-1.74347,-1.34764 -1.98896,-3.68572 -3.10291,-5.34587c-0.56465,-0.84152 -1.51276,-1.40422 -1.99064,-2.29787c-1.06134,-1.98472 -1.24308,-4.57878 -1.78555,-6.74858c-2.79345,-9.78528 -0.86037,-18.42903 3.35173,-27.11086c0.4497,-1.33172 1.26563,-1.85688 1.97402,-2.79118c0.38779,-0.51144 0.31598,-1.27852 0.69725,-1.79484c1.58329,-2.14412 3.5723,-2.79893 5.81615,-3.92771l1.0745,-0.07918c0,0 0.06445,0 0.15557,0.01889zM264.75359,239.22177c-0.08758,0.01754 -0.14891,0.01754 -0.14891,0.01754l-0.40368,-0.07918c-2.06016,1.02456 -3.79298,1.53508 -5.27011,3.46312c-0.41654,0.5437 -0.37195,1.35116 -0.78092,1.90058c-0.72172,0.96958 -1.26997,1.00879 -1.72139,2.3824c-4.2167,8.27146 -5.96132,16.78162 -3.28854,26.14905c0.51164,2.04663 0.66791,4.55837 1.66048,6.43124c0.45981,0.86762 1.40751,1.39114 1.94268,2.2144c1.02048,1.56982 1.14532,3.80413 2.80975,5.00129c1.25653,0.90377 2.96846,1.45868 4.41503,2.18129c1.85395,0.92611 3.74843,2.48325 5.81027,2.43935c5.02296,0 9.05799,-0.9391 13.92561,-1.91377c1.67689,-0.33578 4.94495,-0.73818 6.35139,-1.65481c1.72003,-1.12102 3.50264,-2.99392 5.60628,-3.75329c1.65102,-1.64516 2.91115,-4.0632 4.16676,-6.04355c1.12435,-1.77333 2.89838,-3.27633 3.60793,-5.34414c0.86412,-2.51827 0.69847,-5.25233 0.69849,-7.86468c0.00001,-1.93856 0.19407,-3.5692 -0.6971,-5.31754c-0.37665,-1.72015 -0.67741,-3.49002 -1.11385,-5.18906c-0.68553,-2.66877 -3.51435,-5.05197 -4.94248,-7.37219c-2.30307,-3.74171 -5.16626,-7.58683 -9.15746,-9.59444c-7.00574,-5.45149 -16.20459,-1.49186 -22.9142,1.88477c0,0 -0.2719,0.13594 -0.55604,0.06164z" fill="#000000"/><path d="M265.28608,239.11602c6.70961,-3.37663 15.95049,-7.3386 22.95623,-1.88711c3.9912,2.00761 6.87438,5.86725 9.17745,9.60896c1.42812,2.32022 4.26554,4.71849 4.95108,7.38726c0.43643,1.69905 0.73966,3.47892 1.11631,5.19907c0.89117,1.74834 0.69746,3.38927 0.69745,5.32783c-0.00002,2.61235 0.16249,5.36074 -0.70163,7.87901c-0.70955,2.06781 -2.48913,3.58139 -3.61348,5.35472c-1.2556,1.98035 -2.5248,4.40837 -4.17582,6.05352c-2.10364,0.75937 -3.89654,2.63894 -5.61657,3.75995c-1.40643,0.91664 -4.68582,1.32295 -6.36271,1.65872c-4.86762,0.97467 -8.9271,1.91291 -13.95007,1.91291c-2.06184,0.0439 -3.9662,-1.5173 -5.82015,-2.4434c-1.44657,-0.72261 -3.16537,-1.28199 -4.4219,-2.18577c-1.66442,-1.19716 -1.79609,-3.43789 -2.81657,-5.00771c-0.53518,-0.82326 -1.4861,-1.35084 -1.94591,-2.21846c-0.99257,-1.87286 -1.15444,-4.39479 -1.66608,-6.44142c-2.67278,-9.36743 -0.92196,-17.92624 3.29474,-26.1977c0.45142,-1.37361 1.00313,-1.417 1.72486,-2.38658c0.40897,-0.54942 0.36682,-1.35933 0.78336,-1.90303c1.47712,-1.92805 3.21906,-2.44536 5.27922,-3.46992l0.40416,0.07889c0,0 0.06156,-0.00012 0.14914,-0.01766c0.28414,0.0743 0.55687,-0.0621 0.55687,-0.0621z" fill="#f5f5f5"/></g><g stroke-width="0.5"><path d="M334.63568,243.28187c-0.06288,-0.01572 -0.11896,-0.03551 -0.16896,-0.05856c0.00661,0.45853 0.01769,0.89719 -0.00972,1.27639c-0.42757,5.91591 -0.12804,11.09938 4.61935,15.29745c1.21892,1.81973 2.35675,1.9564 3.9771,3.24097c1.92604,1.52693 4.28651,3.94017 6.73494,4.64846c4.70653,1.36151 9.75874,2.81629 14.61445,3.94976c9.17338,2.75529 20.96623,2.00288 29.01641,-2.45156c5.37489,-6.29913 6.16964,-17.96619 0.27733,-24.3567c-0.95331,-1.90662 -2.1936,-2.55052 -3.64283,-3.99739c-4.44154,-4.4343 -9.77218,-8.24313 -16.45614,-8.24313c-2.84956,0 -5.32333,0.00074 -7.89074,0.7069c-1.99554,0.54886 -4.3538,-0.43731 -6.35771,0.01865c-4.50059,1.02405 -7.97491,2.60032 -12.70625,2.60032c-1.655,-0.02543 -2.69657,0.82286 -4.31437,1.09894c-4.04749,0.6907 -5.72303,1.47572 -6.77762,5.70084l-0.00573,0.02295c0,0 -0.18191,0.7276 -0.90951,0.5457zM335.64599,238.10563c0.01364,-0.01841 0.02741,-0.0367 0.04132,-0.05486c1.19503,-1.56067 1.73504,-0.86264 3.27776,-1.363c2.40116,-0.77878 4.89974,-2.24057 7.67784,-2.27434c4.61463,0 8.00997,-1.60771 12.42259,-2.57326c1.93919,-0.42433 4.32925,0.57876 6.2067,0.01864c2.71884,-0.81114 5.33598,-0.77126 8.32542,-0.77126c7.11904,0 12.8387,4.00046 17.58536,8.75578c1.4531,1.45575 2.78163,2.19979 3.748,4.13252c6.41947,6.96226 5.33532,19.59239 -0.56342,26.37114c-0.91174,0.51497 -1.6167,1.36268 -2.55478,1.82797c-0.91415,0.45342 -2.07924,0.08822 -3.0246,0.47234c-6.92701,2.81461 -17.4499,2.63962 -24.77167,0.43844c-7.88767,-1.83713 -15.61215,-3.78998 -21.91405,-8.8876c-1.58778,-1.28436 -2.92462,-1.55935 -4.15282,-3.41078c-5.09124,-4.35368 -5.43704,-10.19308 -4.98873,-16.39579c0.17424,-2.41068 -0.22817,-4.84464 2.26035,-6.20355c0,0 0.19357,-0.09679 0.42474,-0.08239z" fill="#000000"/><path d="M335.49776,242.72034l0.00575,-0.02299c1.0546,-4.22512 2.73602,-5.02211 6.78351,-5.71282c1.61779,-0.27607 2.66328,-1.12948 4.31828,-1.10405c4.73134,0 8.22709,-1.59064 12.72768,-2.61469c2.00392,-0.45596 4.37747,0.52754 6.37301,-0.02133c2.56741,-0.70616 5.05946,-0.70379 7.90902,-0.70379c6.68396,0 12.04186,3.83322 16.4834,8.26751c1.44924,1.44687 2.69286,2.09923 3.64617,4.00585c5.89231,6.39051 5.09255,18.09717 -0.28234,24.3963c-8.05018,4.45444 -19.8904,5.2311 -29.06378,2.47581c-4.85571,-1.13347 -9.94054,-2.60444 -14.64708,-3.96596c-2.44843,-0.70828 -4.81765,-3.135 -6.7437,-4.66192c-1.62034,-1.28458 -2.76085,-1.42903 -3.97977,-3.24876c-4.74739,-4.19806 -5.04679,-9.40677 -4.61921,-15.32268c0.0274,-0.37921 0.01684,-0.81966 0.01024,-1.27819c0.04999,0.02305 0.10608,0.04284 0.16895,0.05856c0.7276,0.1819 0.90988,-0.54687 0.90988,-0.54687z" fill="#f5f5f5"/></g><g fill="#000000" stroke-width="0.5"><path d="M340.19141,80.89437c0.20519,0.18642 0.39892,0.38046 0.57932,0.58098c-0.03471,-0.16568 -0.09773,-0.29961 -0.20384,-0.37297c-0.11403,-0.07883 -0.23976,-0.14783 -0.37549,-0.20802zM340.72493,84.69255c-0.01834,-1.05972 -0.60325,-2.08108 -1.55771,-2.93685c-0.98579,-0.38234 -1.64619,-0.32502 -2.67681,-0.49179c-0.72732,-0.11769 -1.60712,-0.0925 -2.42353,0.0835c-0.49262,0.72238 -0.4458,1.34497 -0.35146,2.27313c0.05626,0.55355 0.11418,2.17678 0.5994,2.67848c0.07545,0.07801 0.16959,0.15405 0.27943,0.22728c2.08521,0.52874 4.61981,0.10089 5.50993,-1.36607c0.32939,-0.13773 0.51828,-0.29301 0.62074,-0.46768zM332.3709,85.37083c-0.17761,-0.91848 -0.16238,-1.93355 -0.15359,-2.60437c0.00287,-0.21907 0.02488,-0.44037 0.06571,-0.66045c-0.73312,0.56569 -1.05064,1.40027 -0.47051,2.52142c0.14169,0.27382 0.33118,0.52175 0.55839,0.74339zM333.75454,87.52818c-1.4771,-0.46522 -2.74055,-1.29702 -3.32785,-2.43624c-1.05293,-2.04245 0.39992,-4.00159 2.54485,-4.87562c-0.00979,-0.04296 -0.01514,-0.08988 -0.01514,-0.14113c0,-0.6069 0.75,-0.6069 0.75,-0.6069h0.34771c2.14418,0 5.93228,-0.64407 7.57345,0.77582c0.85947,0.74358 0.97466,2.65807 0.58304,4.09798c0.12663,0.9736 -0.11118,1.97628 -0.84492,2.92988c-1.40409,1.82479 -5.55984,1.53594 -7.61113,0.25621z"/><path d="M302.69247,90.7332c-0.23717,-0.57575 0.47434,-0.76767 0.47434,-0.76767l0.9515,-0.23954c0.39531,-0.32664 0.76978,-0.66656 1.11115,-1.01993c-1.85348,0.57352 -4.0274,0.45042 -5.64771,-0.70012c-0.93827,-0.66625 -1.27326,-1.72889 -1.21486,-2.84571c-0.04248,0.00476 -0.08792,0.00731 -0.13649,0.00731c-0.75,0 -0.75,-0.6069 -0.75,-0.6069l0.02006,-1.03653c0.53213,-0.90424 0.74932,-1.95286 1.67777,-2.68195c2.40029,-1.88491 8.23512,-1.00319 9.37176,1.43335c0.38069,0.94783 0.61673,1.97092 0.39835,2.98042c-0.12123,0.56041 -0.38275,1.07741 -0.74915,1.53762c-0.60484,1.49571 -1.8517,2.8211 -3.29228,3.96496l-1.26575,0.35852c0,0 -0.71152,0.19191 -0.94869,-0.38384zM307.08848,84.85969c0,0 0,-0.37817 0.36892,-0.53748c0.00041,-0.02015 0.00063,-0.04035 0.00063,-0.06059c0,-0.54151 -0.11359,-1.09016 -0.33105,-1.60227c-0.50838,-1.56477 -3.80075,-1.76049 -5.7244,-1.47011c0.43643,0.41254 -0.05505,0.81025 -0.05505,0.81025c-1.19155,0.92087 -2.30262,4.08427 -0.77306,5.09651c2.33511,1.54533 5.2085,0.63532 6.36515,-1.1444c0.09677,-0.35407 0.14887,-0.71801 0.14887,-1.0919z"/><path d="M349.83644,98.7324c0.2142,0.03815 0.62195,0.1834 0.62195,0.73641c0,0.75 -0.75,0.75 -0.75,0.75l-1.08105,-0.51283c-0.19947,-0.86354 -0.32628,-1.18503 -1.08108,-0.73045c-0.05226,0.03698 -0.08925,0.05548 -0.08925,0.05548c0,0 -0.02015,0.01008 -0.05522,0.02325l-0.48894,0.20581c-0.40934,0.9725 -0.62308,1.41567 -1.56996,1.92581c-1.79258,1.83005 -4.04135,4.35254 -6.44794,5.33625c-6.53716,2.6721 -14.52678,3.44203 -21.392,1.74678c-8.16361,-2.02522 -16.23972,-3.9563 -24.20205,-6.61041c0,0 -0.54375,-0.18125 -0.52211,-0.7022c-1.01033,0.01056 -1.22594,0.15889 -2.23118,0.66151c0,0 -0.67082,0.33541 -1.00623,-0.33541c-0.33541,-0.67082 0.33541,-1.00624 0.33541,-1.00624c1.30099,-0.6505 1.73476,-0.79934 3.29174,-0.81826l-0.16079,-0.14987c0,0 0.53033,-0.53033 1.06066,0c0.45889,0.45889 0.12364,0.91777 0.02498,1.03308c7.82101,2.58711 15.75333,4.48298 23.77074,6.47192c6.60629,1.64698 14.17055,0.80715 20.47063,-1.68238c2.28221,-0.90184 4.40791,-3.46696 6.13107,-5.16165c0.89293,-0.40204 0.90189,-0.88239 1.38637,-1.7696l0.91512,-0.49972c0.01201,-0.00688 0.01889,-0.01032 0.01889,-0.01032c0,0 0.01459,-0.00729 0.04053,-0.01757c1.60482,-0.68975 2.37779,-0.27745 3.00972,1.06061z"/></g><g stroke-width="0.5"><path d="M275.40066,172.97215l-0.3559,-0.76798c-0.22159,-0.1435 -0.44317,-0.28699 -0.66476,-0.43049c-1.27878,-1.91816 -2.83826,-1.88321 -4.88489,-2.1063c-4.71379,-0.51382 -9.73622,1.81898 -14.36741,2.76615c-3.79996,1.23429 -7.84113,1.80739 -11.48741,3.43912c-1.21642,0.54435 -1.79602,1.8147 -3.11616,2.16263c-0.42834,0.11289 -0.94322,-0.17984 -1.32832,0.03906c-1.95425,1.11084 -4.07189,5.01921 -4.90581,7.0913c-1.05317,4.7369 1.08088,11.57565 3.62502,15.39042c0.54606,0.81878 1.90866,3.91057 2.90767,3.40096c0,0 0.37258,-0.09314 0.65117,0.12049c0.69194,-1.18406 1.61497,-2.08645 2.79686,-2.43301c0.85538,-0.25082 2.28879,-0.02829 3.17642,-0.01212c0.04939,0.02396 0.09877,0.04812 0.14814,0.0725c-0.17783,-1.39687 0.0907,-3.11417 0.0907,-4.45165v-0.92893c0,0 0,-0.75 0.75,-0.75c0.75,0 0.75,0.75 0.75,0.75v0.92893c0,1.41539 -0.35259,3.34805 -0.02006,4.70454c0.06105,0.24905 0.15456,0.50782 0.27271,0.77305c2.64904,1.66778 4.85644,4.03426 4.85644,7.29512l0.15305,0.12905c0,0 0.33541,0.67082 -0.33541,1.00623c-0.67082,0.33541 -1.00624,-0.33541 -1.00624,-0.33541l-0.31141,-0.79988c0,-0.58348 -0.09026,-1.13175 -0.25424,-1.64706c-0.05834,0.07437 -0.13918,0.14526 -0.24927,0.20817c-0.65118,0.37211 -1.02329,-0.27908 -1.02329,-0.27908c-0.76088,-1.33186 -2.1352,-2.97636 -2.96922,-4.54767c-0.3952,-0.23838 -0.79699,-0.46067 -1.19654,-0.66805c-0.70087,0.01858 -1.73671,-0.19219 -2.39712,-0.01211c-3.10054,0.84544 -3.71404,7.51277 -3.21522,9.9797c0.2001,0.98956 1.64903,1.6043 2.2953,2.17268c1.25853,1.10683 2.2676,2.29008 3.67315,3.2264c2.20699,1.48413 4.83348,4.34517 7.25254,5.25385c2.70078,1.0145 6.9708,-0.17162 9.27343,-1.58334c0.34096,-1.61009 1.87637,-3.59691 2.56966,-4.72798c0.35581,-1.25258 1.13351,-1.32229 1.65861,-2.39141c1.00791,-2.05214 2.3103,-5.1931 2.23739,-7.39804l0.24901,-1.01918c0,0 0.1819,-0.72761 0.90951,-0.5457c0.72761,0.1819 0.5457,0.9095 0.5457,0.9095l-0.21546,0.83866c-0.0618,2.45373 -1.23118,5.67809 -2.40723,7.92922c-0.54991,1.05261 -1.35331,1.08686 -1.59263,2.2532c-0.46411,0.77778 -2.24364,3.1787 -2.5561,4.28853c0.087,0.17836 0.09053,0.33698 0.05499,0.47029c0.53068,0.18606 3.32716,0.00884 3.43428,0.00884c2.56247,0 7.08812,-0.30242 8.12842,-3.01201c0,0 0.05989,-0.14972 0.19356,-0.28255c-0.01497,-0.08042 -0.01497,-0.1356 -0.01497,-0.1356c0.06734,-3.69605 4.09306,-6.94086 5.63221,-10.27672c0.97843,-2.12057 0.93325,-5.44958 1.59204,-7.79742l0.22955,-0.91849c0,0 0.1819,-0.72761 0.9095,-0.54571c0.72761,0.1819 0.5457,0.90951 0.5457,0.90951l-0.23492,0.93935c-0.69678,2.48036 -0.67649,5.69939 -1.6592,7.9943c-0.8558,1.99852 -2.46704,4.71159 -3.83123,6.46002c-0.68731,0.8809 -1.40769,1.45076 -1.62163,2.48268c3.17245,-0.04537 6.75609,-0.74357 7.80348,-3.98945c2.85935,-4.28901 3.23015,-9.70673 4.30318,-14.66955c0.33599,-1.55398 1.58833,-3.86814 1.22628,-5.45217c-0.33676,-1.47339 -1.41418,-3.81428 -2.19565,-5.09709c-1.42849,-1.40598 -1.71904,-2.75194 -2.80405,-4.20318c-1.57722,-2.10958 -4.01507,-3.57511 -5.76298,-5.51958c-1.72693,-1.92112 -3.45039,-4.1194 -5.03221,-6.27074c-0.58584,0.197 -0.87876,-0.38883 -0.87876,-0.38883zM236.66275,201.38181c-2.82127,-4.23349 -4.94332,-11.45645 -3.80637,-16.65748c0.96251,-2.41971 3.27086,-6.56929 5.58307,-7.94533c0.47937,-0.28528 1.12098,-0.05322 1.66342,-0.18335c1.08556,-0.2604 1.85944,-1.60182 2.91063,-2.08576c3.69588,-1.7015 7.8627,-2.28033 11.73569,-3.52782c4.84432,-0.94482 9.95994,-3.36675 14.89371,-2.80739c2.32449,0.26353 4.3534,0.37181 5.79775,2.53833c0.03368,0.02304 0.06735,0.04608 0.10103,0.06912c0.53676,-0.26202 0.90786,0.25751 0.90786,0.25751c1.82087,2.55097 3.90723,5.29736 5.99334,7.60705c1.77616,1.96652 4.2872,3.45508 5.84858,5.62752c1.10138,1.53241 1.33694,2.70638 2.7695,4.15713c0.83425,1.40552 2.12159,3.95053 2.44897,5.58554c0.40719,2.03359 -0.77007,4.23924 -1.19587,6.20417c-1.09887,5.07097 -1.49842,10.62623 -4.42176,15.01125c-1.33165,3.8819 -5.65798,4.82462 -9.44836,4.83283c-0.01316,0.13198 -0.05049,0.22529 -0.05049,0.22529c-1.39012,3.36807 -6.26728,3.95493 -9.52114,3.95493c-0.98667,0 -3.7511,0.46731 -4.64229,-0.53581c-2.72391,1.45231 -7.08454,2.51593 -9.99321,1.42624c-2.59519,-0.97224 -5.2662,-3.88223 -7.61025,-5.42879c-1.73557,-1.15789 -6.05416,-4.01432 -6.57203,-6.21248c-0.46777,-1.9855 -0.28511,-5.37528 0.7629,-8.04741c-2.15144,0.06713 -3.0372,-2.38848 -4.15467,-4.06531z" fill="#000000"/><path d="M276.30392,173.3174c1.58182,2.15133 3.31714,4.35888 5.04407,6.28c1.74791,1.94447 4.19435,3.42242 5.77157,5.53199c1.08501,1.45124 1.37876,2.80565 2.80725,4.21163c0.78147,1.28282 1.86056,3.63305 2.19732,5.10644c0.36205,1.58403 -0.89042,3.90778 -1.22641,5.46176c-1.07303,4.96282 -1.45364,10.40519 -4.31299,14.69421c-1.04738,3.24588 -4.64168,3.95449 -7.81413,3.99987c0.21394,-1.03192 0.87166,-1.67953 1.55897,-2.56043c1.36419,-1.74843 2.96607,-4.45019 3.82187,-6.44871c0.98271,-2.29491 0.95626,-5.49833 1.65304,-7.9787l0.23453,-0.93732c0,0 0.18164,-0.72585 -0.54597,-0.90775c-0.72761,-0.1819 -0.81056,0.56015 -0.81056,0.56015l-0.22993,0.92062c-0.65879,2.34784 -0.62005,5.69303 -1.59847,7.8136c-1.53915,3.33587 -5.58083,6.59674 -5.64817,10.29279c0,0 -0.00009,0.05524 0.01488,0.13566c-0.13367,0.13283 -0.19406,0.28286 -0.19406,0.28286c-1.0403,2.70959 -5.58103,3.01808 -8.1435,3.01808c-0.10712,0 -2.90996,0.17822 -3.44065,-0.00784c0.03554,-0.13331 0.02295,-0.39152 -0.06405,-0.56988c0.31245,-1.10983 2.08529,-3.50967 2.5494,-4.28746c0.23932,-1.16635 1.03775,-1.19918 1.58767,-2.25179c1.17605,-2.25113 2.33015,-5.46704 2.39195,-7.92078l0.21351,-0.837c0,0 0.24929,-0.65373 -0.47831,-0.83563c-0.72761,-0.1819 -0.9127,0.54843 -0.9127,0.54843l-0.25155,1.02105c0.07291,2.20495 -1.24413,5.35275 -2.25204,7.40489c-0.5251,1.06912 -1.30807,1.14002 -1.66387,2.39261c-0.6933,1.13106 -2.23525,3.11855 -2.57621,4.72864c-2.30263,1.41171 -6.58929,2.59561 -9.29008,1.58111c-2.41906,-0.90868 -5.05998,-3.77692 -7.26696,-5.26105c-1.40555,-0.93632 -2.42153,-2.1256 -3.68006,-3.23243c-0.64627,-0.56838 -2.09899,-1.18759 -2.29908,-2.17714c-0.49883,-2.46694 0.10731,-9.14822 3.20785,-9.99367c0.66041,-0.18008 1.79016,-0.00358 2.49103,-0.02217c0.39954,0.20738 0.80005,0.42669 1.19525,0.66507c0.83402,1.57131 2.19893,3.20218 2.95981,4.53404c0,0 0.37006,0.64918 1.02124,0.27708c0.11009,-0.06291 0.19083,-0.13388 0.24917,-0.20826c0.16398,0.51531 0.25127,1.06108 0.25127,1.64455l0.30969,0.79859c0,0 0.33292,0.66915 1.00374,0.33374c0.67082,-0.33541 0.28168,-0.92189 0.28168,-0.92189l-0.15357,-0.1294c0,-3.26085 -2.22558,-5.64913 -4.87462,-7.31691c-0.11814,-0.26523 -0.21268,-0.52657 -0.27373,-0.77562c-0.33253,-1.35649 0.01702,-3.30492 0.01702,-4.72032l0.00001,-0.93227c0,0 0.09978,-0.74381 -0.65022,-0.74381c-0.75,0 -0.74984,0.74737 -0.74984,0.74737l0.00001,0.92591c0,1.33748 -0.2708,3.04113 -0.09298,4.438c-0.04937,-0.02437 -0.19427,-0.01891 -0.24365,-0.04287c-0.88763,-0.01617 -2.2248,-0.26572 -3.08017,-0.0149c-1.18189,0.34657 -2.10596,1.24544 -2.7979,2.4295c-0.27859,-0.21363 -0.74621,-0.08938 -0.74621,-0.08938c-0.99901,0.50961 -2.36344,-2.5901 -2.9095,-3.40888c-2.54414,-3.81477 -4.67506,-10.67961 -3.62189,-15.41651c0.83392,-2.07209 2.95858,-5.99257 4.91284,-7.1034c0.3851,-0.2189 0.90089,0.07271 1.32923,-0.04018c1.32014,-0.34793 1.90416,-1.62292 3.12057,-2.16727c3.64629,-1.63173 7.70596,-2.2157 11.50592,-3.44999c4.63118,-0.94717 9.68059,-3.28109 14.39437,-2.76727c2.04663,0.22309 3.61517,0.1912 4.89395,2.10937c0.22159,0.1435 0.44447,0.2876 0.66606,0.43109l0.35699,0.76853c0,0 0.29449,0.58668 0.88032,0.38968z" fill="#f5f5f5"/></g><g><g stroke-width="0.5"><path d="M390.41052,187.94726c-0.18763,0.09395 -0.3754,0.09394 -0.3754,0.09394c-1.48176,-0.00237 -4.09432,-0.09052 -5.34747,-0.9744c-1.17823,-0.83104 -1.67355,-3.33455 -2.27009,-4.52017c-1.54003,-3.06081 -2.13155,-6.34626 -4.53737,-9.00397c-1.74752,-2.80146 -4.8436,-1.97669 -6.91817,-3.98439c-5.15371,-4.98758 -0.3569,-11.13635 4.9948,-13.067c2.98489,-0.17459 6.11427,-0.87972 8.74711,1.06142c1.31217,0.96743 3.37986,2.47731 4.28048,3.87299c0.54577,0.84578 0.78045,2.34488 1.53699,3.05998c0.56038,0.52968 3.13273,0.65389 3.90779,0.82613c8.82951,2.20769 13.55182,11.2668 14.36857,19.74366c-0.86208,6.07396 -8.15623,9.41377 -13.60644,6.70782c-1.89407,-0.94038 -3.16498,-2.72946 -4.7808,-3.816zM389.29458,186.53279c0.03199,-0.10816 0.09687,-0.22148 0.2102,-0.33481c0.53033,-0.53033 1.06066,0 1.06066,0l0.13699,0.16866c1.84169,1.16172 3.07682,3.00505 5.15303,4.05167c4.38786,2.21191 10.72247,-0.39936 11.44262,-5.39453c-0.80962,-7.77182 -5.07955,-16.21891 -13.21354,-18.25211c-1.21609,-0.27024 -3.56673,-0.32412 -4.53571,-1.14402c-0.92967,-0.78664 -1.23131,-2.43846 -1.84041,-3.41337c-0.77702,-1.2437 -2.74393,-2.57262 -3.88157,-3.44472c-2.22088,-1.70249 -5.05523,-0.91514 -7.57211,-0.80816c-1.27312,0.46768 -2.1189,0.97818 -3.21999,1.78515c-0.83391,0.61115 -1.38254,1.36002 -1.93921,2.21189c-4.19529,6.41992 5.6245,7.04417 7.97886,10.67658c2.45592,2.74384 3.10568,6.10729 4.68289,9.23702c0.36786,0.72997 1.01597,3.51353 1.77454,3.95488c0.91224,0.53077 2.51189,0.67343 3.76274,0.70587z" fill="#000000"/><path d="M385.5185,185.8751c-0.75857,-0.44135 -1.42098,-3.23143 -1.78884,-3.9614c-1.57722,-3.12973 -2.24847,-6.54412 -4.70439,-9.28796c-2.35436,-3.63241 -12.16577,-4.27634 -7.97049,-10.69626c0.55667,-0.85187 1.10963,-1.60602 1.94353,-2.21717c1.10109,-0.80697 1.95322,-1.32316 3.22634,-1.79084c2.51689,-0.10698 5.36654,-0.90216 7.58742,0.80033c1.13765,0.8721 3.11537,2.19894 3.89239,3.44263c0.6091,0.97491 0.91959,2.62681 1.84927,3.41345c0.96898,0.8199 3.34351,0.88265 4.5596,1.15289c8.13399,2.0332 12.41861,10.54588 13.22824,18.31769c-0.72015,4.99517 -7.07774,7.62736 -11.46561,5.41545c-2.07621,-1.04662 -3.32347,-2.88626 -5.16517,-4.04798l-0.13743,-0.16859c0,0 -0.53475,-0.52982 -1.06508,0.00051c-0.11333,0.11333 -0.17918,0.22671 -0.21117,0.33487c-1.25086,-0.03244 -2.86638,-0.17686 -3.77862,-0.70763z" fill="#f5f5f5"/></g><g><g stroke-width="0"><path d="M384.49443,138.75699v-4.70937h32.62097v4.70937z" fill="url(#color-1)"/><path d="M384.49443,210.71704v-4.70936h32.62097v4.70936z" fill="url(#color-2)"/></g><path d="M382.28414,205.47056l-1.39887,-4.46214v-57.087l1.39887,-4.7574l4.828,-1.39887h27.93743l4.54466,1.33226l1.33226,4.99333v57.18413l-1.46549,4.39553l-4.49668,1.19903h-28.37709z" fill="url(#color-3)" stroke-width="0"/><path d="M401.50788,205.47056l-0.70296,-4.46214v-57.087l0.70296,-4.7574l2.42618,-1.39887h14.03916l2.28379,1.33226l0.66949,4.99333v57.18413l-0.73644,4.39553l-2.25968,1.19903h-14.2601z" fill="url(#color-4)" stroke-width="0"/><text transform="translate(384.88065,157.50888) scale(0.32335,0.32335)" font-size="40" xml:space="preserve" fill="#f00008" stroke-width="1" font-family="&quot;LowerResolution&quot;, Scratch" font-weight="normal" text-anchor="start"><tspan x="0" dy="0">teacher</tspan><tspan x="0" dy="46.150000000000006px">salt</tspan></text><text transform="translate(384.01971,191.66307) scale(0.21068,0.21068)" font-size="40" xml:space="preserve" fill="#f00008" stroke-width="1" font-family="&quot;LowerResolution&quot;, Scratch" font-weight="normal" text-anchor="start"><tspan x="0" dy="0">not diet</tspan></text><path d="M412.02109,164.27609c-0.15422,0.17033 -0.44659,0.3695 -0.8771,0.15424c-0.67082,-0.33541 -0.33541,-1.00623 -0.33541,-1.00623l0.79318,-0.65931c5.01348,0 7.71324,4.13939 6.1137,8.8756c-1.40959,9.60335 -12.27494,10.36938 -19.85181,10.36558c-6.11945,-0.57908 -14.84374,-4.47329 -12.42392,-11.75393c0,0 0.23717,-0.71151 0.94868,-0.47434c0.71151,0.23717 0.47434,0.94868 0.47434,0.94868c-2.05069,6.13559 5.97274,9.34084 11.06887,9.78113c6.81968,-0.00358 17.10216,-0.39935 18.32397,-9.21175c1.21616,-3.69098 -0.39188,-6.80942 -4.2345,-7.01968z" fill="#f00008" stroke-width="0.5"/><path d="M415.9252,147.77148c-0.53033,0.53033 -1.06066,0 -1.06066,0l-0.30354,-0.41552c-1.56881,-4.86552 -8.64333,-4.29986 -12.55437,-4.22475c-3.7422,0.58627 -10.04186,1.1827 -12.60465,3.99834c-1.444,1.58647 -3.18926,2.68715 -1.96812,5.0376c0,0 0.33541,0.67082 -0.33541,1.00623c-0.67082,0.33541 -1.00623,-0.33541 -1.00623,-0.33541c-1.46804,-3.02143 0.26272,-4.61816 2.19206,-6.7088c2.91557,-3.15932 9.40048,-3.84222 13.59129,-4.49222c4.74415,-0.10171 12.14805,-0.40489 14.09707,5.21164l-0.04745,-0.13776c0,0 0.53033,0.53033 0,1.06066z" fill="#f00008" stroke-width="0.5"/><path d="M387.237,195.17136c-3.48477,-0.46125 -8.50344,-4.05343 -5.35766,-8.47995c1.62569,-2.28755 5.31986,-3.35701 7.81297,-3.37042c4.38724,0 10.58053,-1.24919 14.69005,0.79013c4.05864,2.01408 4.78096,5.34793 1.80079,9.10229c-0.94073,0.64431 -2.1052,1.82637 -3.19936,2.10939c-4.69581,1.21464 -9.9507,-0.52207 -14.71715,0.25818l-0.41977,0.00754c0,0 -0.45002,0 -0.60988,-0.41715zM388.51426,194.03348c4.62997,-0.59672 9.60535,0.86979 14.15685,-0.16869c0.87049,-0.19861 1.8996,-1.2976 2.66261,-1.80607c2.36248,-3.02103 1.49371,-5.82961 -2.12026,-6.76942c-4.2981,-1.11772 -9.12694,-0.46832 -13.52114,-0.46832c-2.01966,-0.01316 -5.40866,0.87751 -6.73338,2.74749c-2.60701,3.68006 2.61385,6.15548 4.9965,6.15296c0,0 0.37083,0 0.55882,0.31204z" fill="#f00008" stroke-width="0.5"/><text transform="translate(400.53566,172.44587) scale(0.12018,0.12018)" font-size="40" xml:space="preserve" fill="#f00008" stroke-width="1" font-family="&quot;LowerResolution&quot;, Scratch" font-weight="normal" text-anchor="start"><tspan x="0" dy="0">number</tspan></text></g><g stroke-width="0.5"><path d="M417.31795,143.84124c0,0 -0.25648,0.04275 -0.49257,-0.07312c-1.96796,0.44266 -3.75977,1.2223 -5.55709,1.91206c-1.05772,0.40592 -2.23646,0.00191 -3.29298,0.53017c-4.86726,0.09584 -11.97841,-1.63431 -15.52643,2.30676c-0.91672,1.01827 -1.91298,1.39827 -2.18585,2.79401c0.00683,2.39711 -0.38403,8.61142 1.8447,10.12176c2.55428,1.73095 7.08679,0.36342 9.96165,0.9317c4.78388,1.59889 8.76314,1.81203 13.69497,0.67073c0.93487,-0.21634 3.57103,-0.79003 3.4941,-1.78612c0,0 0.14709,-0.73543 0.88252,-0.58835c0.26506,0.05301 0.41548,0.18244 0.49946,0.32632c0.01017,-0.00079 0.02041,-0.00154 0.03072,-0.00226c0,0 0.75,0 0.75,0.75c0,0.75 -0.75,0.75 -0.75,0.75c-0.16996,-0.02806 -0.31434,-0.01317 -0.44039,0.03405c-0.17546,0.22923 -0.38057,0.43058 -0.60853,0.60887c-0.26363,0.43741 -0.49201,0.98416 -0.9316,1.27957c-0.97743,0.65684 -3.10411,1.39745 -4.23028,1.7685c-3.80201,1.25267 -6.40958,1.11876 -10.2574,0.34155c-7.65951,-3.17446 -12.74454,5.88274 -11.42758,12.44348c0.68525,1.80448 3.11542,1.81333 4.7951,2.17584c4.51956,0.9754 10.33417,0.3356 14.97344,0.3356c3.02423,0 7.07479,0.62484 9.93445,-0.58357c0.04364,-0.2186 0.19658,-0.60165 0.73257,-0.60165c0.75,0 0.75,0.75 0.75,0.75l-0.41459,1.00946c-0.14085,0.06974 -0.28409,0.1351 -0.42956,0.19633c0.08042,0.37656 -0.2221,0.67908 -0.2221,0.67908l-0.72282,0.71921c-1.64381,1.16793 -2.82099,2.79308 -4.53201,3.87918c-0.13485,0.13638 -0.30015,0.18206 -0.44225,0.19071c-0.13973,0.02224 -0.30979,0.01376 -0.47015,-0.08834l-0.74799,-0.25782c-3.19224,0.04255 -6.43072,-0.45158 -9.62639,-0.16329c-0.96943,0.08746 -2.78091,0.49067 -3.30134,1.45934c-0.65209,1.21374 0.14254,3.595 0.39067,4.86127c0.72217,1.84146 1.73854,4.67028 3.30242,6.05985c3.19748,2.8411 10.3443,2.49399 14.17335,1.53673c1.60143,-0.0063 2.94923,-0.26008 4.48172,-0.6606c0.40732,-0.10645 1.0694,0.07327 1.22202,-0.31909c1.20756,-3.10439 2.56227,-6.76049 4.09774,-10.13503c-0.28223,-0.38871 0.01392,-0.83294 0.01392,-0.83294l0.48738,-0.72846c0.92687,-1.85988 3.4766,-4.6868 2.9909,-6.87561c-0.17542,-0.79053 -1.50856,-1.75009 -1.96848,-2.35902c-0.56599,-1.33244 -2.05845,-2.76334 -2.39716,-4.11407c-0.76022,-3.03167 3.58509,-6.27156 3.0752,-9.19588c-0.45946,-2.63506 -3.99656,-4.49479 -4.86424,-7.16835c0,-2.221 0.73456,-4.80311 1.42158,-6.90199c0.28685,-0.87631 1.08839,-3.026 0.65532,-3.98952c-0.54203,-1.20591 -2.39596,-2.61959 -3.46352,-3.28189c-1.01979,-0.63268 -2.2828,-1.34381 -3.50535,-1.32553c0,0 -0.40411,0 -0.61906,-0.29663c-1.83281,-0.04617 -3.35674,0.57337 -5.22816,0.90701zM424.20121,141.62042l0.15115,-0.01457c0,0 0.58003,0 0.71992,0.51009c0.31024,0.12662 0.62844,0.28193 0.98843,0.46214c0.94329,0.47223 1.87605,0.99843 2.68409,1.67656c0.91804,0.77044 2.33858,1.97244 2.81227,3.10931c1.29942,3.11864 -2.0193,7.87082 -2.0193,11.12558c0.92687,2.67105 4.40597,4.34744 4.86425,7.16836c0.32418,1.99547 -1.48705,4.69667 -2.07828,6.47534c-0.15715,0.47277 -1.1638,2.27475 -0.99082,2.76171c0.4313,1.21418 1.67524,2.30248 2.21042,3.5648c0.76546,1.0316 1.7699,1.41442 2.12838,2.76276c0.63563,2.39084 -1.48748,5.08651 -2.7489,7.23642c0.06144,0.2756 -0.06723,0.53294 -0.06723,0.53294c-0.56797,1.1193 -1.42035,1.9079 -1.82364,3.12424c-0.73012,2.2021 -0.97169,5.42407 -2.33456,7.34878c-0.16695,0.23577 -0.63195,0.14376 -0.77018,0.39743c-0.16204,0.29735 0.18709,0.73364 0,1.01591c-1.09152,1.64677 -5.09635,1.73683 -6.82577,1.7294c-4.23291,1.05822 -11.80197,1.24988 -15.28794,-1.84962c-1.8524,-1.64704 -2.92281,-4.62191 -3.80892,-6.8083c-0.33859,-1.66499 -1.16792,-4.37248 -0.28661,-5.97507c2.21127,-4.02099 10.86711,-2.12671 14.50175,-2.09031l0.79537,0.25796c1.37603,-0.90085 2.39889,-2.19863 3.66321,-3.24096c-2.6517,0.40464 -5.62928,0.07107 -8.1344,0.07107c-4.76138,0 -10.6427,0.62007 -15.28427,-0.36816c-2.4571,-0.52313 -4.86938,-0.66411 -5.92208,-3.21586c-1.54325,-7.73661 4.43444,-17.74412 13.29281,-14.30872c3.14493,0.62241 6.39265,0.72315 9.44544,-0.17812c-4.28231,0.70848 -8.0581,0.35348 -12.39141,-1.08719c-3.15353,-0.64042 -7.47997,0.79932 -10.35648,-1.10011c-2.91176,-1.9227 -2.56544,-8.46722 -2.55756,-11.55091c1.64344,-8.0959 12.84783,-6.59174 18.86035,-6.41284c1.00027,-0.50014 2.20281,-0.09037 3.1411,-0.48574c1.96438,-0.82774 4.00358,-1.61322 6.19661,-2.05952l0.84659,-0.16932c0,0 0.29597,-0.05919 0.54995,0.08528c1.92446,-0.41022 3.62452,-0.93306 5.83629,-0.50077z" fill="#000000"/><path d="M422.56261,142.88703c0.21495,0.29664 0.6201,0.29701 0.6201,0.29701c1.22255,-0.01827 2.49104,0.69528 3.51083,1.32796c1.06756,0.66231 2.92793,2.07997 3.46996,3.28588c0.43307,0.96352 -0.3658,3.11531 -0.65264,3.99161c-0.68703,2.09888 -1.41586,4.68663 -1.41586,6.90763c0.86768,2.67356 4.41465,4.55103 4.87411,7.18609c0.50989,2.92432 -3.83373,6.1868 -3.07351,9.21847c0.33871,1.35073 1.82908,2.79015 2.39507,4.12259c0.45992,0.60893 1.79187,1.57163 1.96729,2.36216c0.4857,2.18882 -2.072,5.02874 -2.99887,6.88862l-0.48853,0.72977c0,0 -0.29699,0.44512 -0.01475,0.83383c-1.53547,3.37454 -2.90337,7.04052 -4.11093,10.14491c-0.15262,0.39236 -0.81649,0.21351 -1.22381,0.31997c-1.53249,0.40052 -2.88705,0.65689 -4.48848,0.66318c-3.82905,0.95726 -11.00022,1.3055 -14.19771,-1.5356c-1.56388,-1.38957 -2.58955,-4.22124 -3.31172,-6.0627c-0.24813,-1.26627 -1.04812,-3.65016 -0.39603,-4.8639c0.52042,-0.96866 2.37499,-1.46186 3.34443,-1.54931c3.19567,-0.2883 6.40361,0.20376 9.59585,0.16121l0.74597,0.25837c0.16036,0.1021 0.32915,0.11097 0.46889,0.08873c0.1421,-0.00865 0.306,-0.05385 0.44085,-0.19024c1.71102,-1.0861 2.87192,-2.70167 4.51572,-3.8696l0.72035,-0.71688c0,0 0.30102,-0.30094 0.2206,-0.6775c0.14547,-0.06124 0.28776,-0.1255 0.4286,-0.19524l0.41237,-1.00668c0,0 0.08071,-0.69096 -0.66929,-0.69096c-0.536,0 -0.69105,0.38578 -0.73469,0.60438c-2.85965,1.20842 -6.94704,0.60154 -9.97128,0.60154c-4.63927,0 -10.49839,0.61545 -15.01795,-0.35995c-1.67968,-0.3625 -4.11428,-0.38096 -4.79953,-2.18544c-1.31696,-6.56074 3.77499,-15.66336 11.4345,-12.4889c3.84782,0.77722 6.51259,0.89342 10.3146,-0.35925c1.12618,-0.37105 3.26752,-1.10345 4.24495,-1.76029c0.43959,-0.29541 0.60539,-0.76416 0.86902,-1.20157c0.22796,-0.17829 0.49568,-0.45762 0.67115,-0.68684c0.12606,-0.04721 0.27138,-0.06132 0.44135,-0.03325c0,0 0.68496,0.07595 0.68496,-0.67405c0,-0.75 -0.74707,-0.74767 -0.74707,-0.74767c-0.01031,0.00072 -0.02048,0.00152 -0.03065,0.00231c-0.08399,-0.14389 -0.23269,-0.2721 -0.49775,-0.32511c-0.73543,-0.14709 -0.88124,0.58918 -0.88124,0.58918c0.07693,0.99608 -2.55017,1.57427 -3.48504,1.79061c-4.93183,1.1413 -8.85783,0.9164 -13.64171,-0.68249c-2.87486,-0.56829 -7.48698,0.74035 -10.04126,-0.9906c-2.22873,-1.51034 -1.83004,-7.73538 -1.83687,-10.13249c0.27287,-1.39574 1.2733,-1.77962 2.19002,-2.7979c3.54803,-3.94107 10.68304,-2.22179 15.55031,-2.31763c1.05651,-0.52826 2.24148,-0.12487 3.2992,-0.5308c1.79733,-0.68976 3.59887,-1.46881 5.56682,-1.91146c0.23609,0.11587 0.49343,0.07326 0.49343,0.07326c1.87142,-0.33363 3.4031,-0.95115 5.23592,-0.90498z" fill="#f5f5f5"/></g></g><g><path d="M323.85778,139.72721c0.08798,0.18349 0.08798,0.36321 0.08798,0.36321c0,2.94179 0.2749,6.23312 -0.39045,9.09949c-0.0907,0.39074 -1.64196,2.95625 -1.39808,3.34016c0.38933,0.61287 1.44922,-0.11267 2.1753,-0.11314c2.17942,-0.0014 4.35884,0 6.53826,0c6.21987,0 12.43975,0 18.65962,0c1.21079,0 2.42158,0 3.63236,0c0.66593,0 1.34138,-0.11214 1.9978,0c0.14358,0.02453 0.3458,0.36178 0.37776,0.21967c0.06937,-0.30843 -0.14645,-0.61508 -0.21967,-0.92262c0,-3.00575 -0.36233,-6.24253 0.00599,-9.22253c0.08759,-0.70872 1.32218,-3.95926 0.99828,-4.57625c-0.20018,-0.38132 -2.96844,-0.1623 -3.0256,-0.1623c-3.34132,0 -6.59868,0.22 -9.92706,0.47607c-4.88128,0.37118 -9.63203,0.79526 -14.54435,0.79526c-1.98388,0 -4.20432,-0.61964 -4.96814,0.70297zM322.48476,142.40575c-0.40223,-0.18569 -0.40223,-0.68076 -0.40223,-0.68076v-0.72647c0.00151,-0.67823 -0.08062,-2.09343 0.34736,-2.64968c0.98015,-1.2739 3.9428,-0.82459 5.30633,-0.82459c5.24309,0 10.31092,-0.38596 15.51901,-0.79084c3.36607,-0.25889 6.66285,-0.48049 10.04211,-0.48049c1.19558,0 3.52716,-0.3587 4.33324,0.92741c0.63589,1.01457 -0.68322,4.43597 -0.8179,5.50026c-0.36826,2.91009 0.00599,6.09535 0.00599,9.0334c-0.07322,0.66109 0.18032,1.45185 -0.21967,1.98328c-0.57936,0.76974 -5.11635,0.21967 -5.97888,0.21967c-6.58311,0 -13.16622,0 -19.74933,0c-2.17942,0 -4.35884,0.00135 -6.53826,0c-0.59761,-0.00037 -2.96066,0.12636 -3.36736,-0.47637c-0.92977,-1.37794 0.86609,-3.43598 1.14457,-4.65105c0.45717,-1.9947 0.42504,-4.23014 0.37502,-6.38377z" fill="#000000" stroke-width="0.5"/><path d="M328.78296,138.99866c4.91231,0 9.73136,-0.44161 14.61264,-0.81278c3.32838,-0.25607 6.60454,-0.45647 9.94586,-0.45647c0.05715,0 2.82724,-0.21521 3.02742,0.1661c0.3239,0.61699 -0.90735,3.87883 -0.99495,4.58754c-0.36832,2.98 -0.0089,6.24389 -0.0089,9.24964c0.07322,0.30754 0.28818,0.61617 0.21882,0.9246c-0.03196,0.14211 -0.23413,-0.19525 -0.37771,-0.21978c-0.65642,-0.11214 -1.33301,0.00237 -1.99894,0.00237c-1.21079,0 -2.42502,0.0057 -3.63581,0.0057c-6.21987,0 -12.5187,0.00389 -18.73857,0.00389c-2.17942,0 -4.36592,-0.01224 -6.54534,-0.01085c-0.72608,0.00046 -1.7869,0.72395 -2.17623,0.11107c-0.24388,-0.38391 1.30489,-2.95683 1.39559,-3.34756c0.66535,-2.86637 0.39154,-6.18584 0.39154,-9.12764c0,0 0.00032,-0.18063 -0.08766,-0.36412c0.76382,-1.32261 2.98838,-0.71172 4.97226,-0.71172z" fill="#ffffff" stroke-width="0.5"/><text transform="translate(324.10385,143.15783) scale(0.19183,0.17329)" font-size="40" xml:space="preserve" fill="#000000" stroke-width="1" font-family="&quot;LowerResolution&quot;, Scratch" font-weight="normal" text-anchor="start"><tspan x="0" dy="0">helo</tspan></text><text transform="translate(323.27589,149.03425) scale(0.25747,0.17329)" font-size="40" xml:space="preserve" fill="#000000" stroke-width="1" font-family="&quot;LowerResolution&quot;, Scratch" font-weight="normal" text-anchor="start"><tspan x="0" dy="0">im./ karl</tspan></text></g><path d="M290.14326,84.55595c0,-7.58234 6.1467,-13.72904 13.72904,-13.72904c7.58234,0 13.72904,6.1467 13.72904,13.72904c0,7.58234 -6.1467,13.72904 -13.72904,13.72904c-7.58234,0 -13.72904,-6.1467 -13.72904,-13.72904z" fill="url(#color-5)" stroke-width="0"/><path d="M323.36753,84.55595c0,-7.58233 6.1467,-13.72903 13.72904,-13.72903c7.58234,0 13.72904,6.1467 13.72904,13.72903c0,7.58234 -6.1467,13.72903 -13.72904,13.72903c-7.58233,0 -13.72904,-6.1467 -13.72904,-13.72903z" fill="url(#color-6)" stroke-width="0"/></g></g></svg>