<svg version="1.1" xmlns="http://www.w3.org/2000/svg" xmlns:xlink="http://www.w3.org/1999/xlink" width="101.49111" height="101.10488" viewBox="0,0,101.49111,101.10488"><defs><radialGradient cx="320.00004" cy="180.00005" r="50.55244" gradientUnits="userSpaceOnUse" id="color-1"><stop offset="0" stop-color="#000000"/><stop offset="1" stop-color="#000000" stop-opacity="0"/></radialGradient><radialGradient cx="296.72565" cy="147.2654" r="41.00699" gradientUnits="userSpaceOnUse" id="color-2"><stop offset="0" stop-color="#a4a4a4"/><stop offset="1" stop-color="#4f4f4f"/></radialGradient><linearGradient x1="320.00005" y1="144.35402" x2="320.00005" y2="215.64608" gradientUnits="userSpaceOnUse" id="color-3"><stop offset="0" stop-color="#1c1c1c"/><stop offset="1" stop-color="#373737"/></linearGradient><radialGradient cx="330.56105" cy="165.26137" r="31.63533" gradientUnits="userSpaceOnUse" id="color-4"><stop offset="0" stop-color="#a1a614"/><stop offset="1" stop-color="#51510a"/></radialGradient><radialGradient cx="323.63042" cy="176.47267" r="27.58248" gradientUnits="userSpaceOnUse" id="color-5"><stop offset="0" stop-color="#ffffb6" stop-opacity="0.73725"/><stop offset="1" stop-color="#ffffb6" stop-opacity="0"/></radialGradient></defs><g transform="translate(-269.4476,-129.44761)"><g stroke="none" stroke-miterlimit="10"><path d="M370.55248,180.00005c0,27.91937 -22.63316,50.55244 -50.55244,50.55244c-27.91937,0 -50.55244,-22.63309 -50.55244,-50.55244c0,-27.91937 22.63309,-50.55244 50.55244,-50.55244c27.91937,0 50.55244,22.63309 50.55244,50.55244" fill="url(#color-1)" fill-rule="evenodd" stroke-width="0.07853" stroke-linecap="round" stroke-linejoin="round"/><path d="M361.00704,180.00005c0,22.64756 -18.3595,41.00699 -41.00699,41.00699c-22.64756,0 -41.00699,-18.35945 -41.00699,-41.00699c0,-22.64756 18.35945,-41.00699 41.00699,-41.00699c22.64756,0 41.00699,18.35945 41.00699,41.00699" fill="url(#color-2)" fill-rule="evenodd" stroke-width="0.07853" stroke-linecap="round" stroke-linejoin="round"/><path d="M355.64607,180.00005c0,19.68678 -15.95931,35.64602 -35.64602,35.64602c-19.68678,0 -35.64602,-15.95927 -35.64602,-35.64602c0,-19.68678 15.95927,-35.64602 35.64602,-35.64602c19.68678,0 35.64602,15.95927 35.64602,35.64602" fill="url(#color-3)" fill-rule="evenodd" stroke-width="0.07853" stroke-linecap="round" stroke-linejoin="round"/><path d="M351.63537,180.00005c0,17.47173 -14.16365,31.63533 -31.63533,31.63533c-17.47173,0 -31.63533,-14.16361 -31.63533,-31.63533c0,-17.47173 14.16361,-31.63533 31.63533,-31.63533c17.47173,0 31.63533,14.16361 31.63533,31.63533" fill="url(#color-4)" fill-rule="evenodd" stroke-width="0.07853" stroke-linecap="round" stroke-linejoin="round"/><path d="M347.58252,180.00005c0,15.2334 -12.34911,27.58248 -27.58248,27.58248c-15.2334,0 -27.58248,-12.34909 -27.58248,-27.58248c0,-15.2334 12.34909,-27.58248 27.58248,-27.58248c15.2334,0 27.58248,12.34909 27.58248,27.58248" fill="url(#color-5)" fill-rule="evenodd" stroke-width="0.07853" stroke-linecap="round" stroke-linejoin="round"/><path d="M299.29426,170.34961c-0.75,0 -0.75,-0.75 -0.75,-0.75l0.00334,-0.06867c-2.53137,3.10773 -1.69653,9.10389 1.0994,11.90783c5.46542,3.81036 12.01816,2.76422 15.40271,-3.13067c0.61658,-1.0739 0.44146,-3.25867 0.56436,-4.47863c0.02071,-4.57015 -8.34653,-8.89856 -12.92137,-7.2767c0.02854,0.06793 0.04983,0.14679 0.06127,0.23832c0.09303,0.74421 -0.65118,0.83723 -0.65118,0.83723c-0.50275,0.06283 -0.9645,0.17774 -1.38682,0.33796c-0.30327,0.40517 -0.54149,0.88679 -0.70057,1.45145l0.02886,0.18189c0,0 0,0.75 -0.75,0.75zM299.6744,166.86223c4.39642,-5.33803 17.41315,0.24231 17.43781,7.04196c-0.1487,1.4975 -0.00969,3.72708 -0.72874,5.09028c-3.6405,6.90182 -11.64806,7.84556 -17.70056,3.59343c-0.90427,-0.90217 -2.20032,-2.10998 -2.68635,-3.31152c-1.67301,-4.13596 -0.24413,-10.26934 3.67784,-12.41416z" fill="#000000" fill-rule="nonzero" stroke-width="0.5" stroke-linecap="butt" stroke-linejoin="miter"/><path d="M301.06355,174.19089l0.04448,-0.32201c2.16924,-2.41182 3.44564,1.55692 1.9062,2.63709c-0.37354,0.2621 -3.1018,0.7625 -2.39539,-1.17906c0.02573,-0.07071 0.05917,-0.13542 0.09909,-0.19507l-0.1045,-0.11907c0.15004,-0.27396 0.30008,-0.54792 0.45012,-0.82188z" fill="#000000" fill-rule="nonzero" stroke-width="0.5" stroke-linecap="butt" stroke-linejoin="miter"/><path d="M327.48377,170.34961c-0.75,0 -0.75,-0.75 -0.75,-0.75l0.00333,-0.06868c-2.53137,3.10773 -1.69653,9.10389 1.0994,11.90784c5.46542,3.81035 12.01816,2.76422 15.40271,-3.13067c0.61658,-1.0739 0.44146,-3.25867 0.56436,-4.47863c0.02071,-4.57015 -8.34653,-8.89856 -12.92137,-7.2767c0.02855,0.06793 0.04983,0.14679 0.06127,0.23832c0.09303,0.74421 -0.65118,0.83723 -0.65118,0.83723c-0.50275,0.06283 -0.9645,0.17774 -1.38682,0.33796c-0.30327,0.40518 -0.54149,0.88679 -0.70057,1.45145l0.02886,0.18189c0,0 0,0.75 -0.75,0.75zM327.8639,166.86223c4.39641,-5.33803 17.41316,0.24231 17.43782,7.04197c-0.14871,1.4975 -0.0097,3.72708 -0.72874,5.09028c-3.6405,6.90181 -11.64806,7.84556 -17.70056,3.59343c-0.90427,-0.90217 -2.20032,-2.10998 -2.68635,-3.31152c-1.67301,-4.13596 -0.24413,-10.26935 3.67784,-12.41416z" fill="#000000" fill-rule="nonzero" stroke-width="0.5" stroke-linecap="butt" stroke-linejoin="miter"/><path d="M329.25306,174.1909l0.04448,-0.32201c2.16924,-2.41182 3.44564,1.55691 1.9062,2.63708c-0.37354,0.2621 -3.1018,0.7625 -2.39539,-1.17906c0.02573,-0.07072 0.05917,-0.13541 0.0991,-0.19506l-0.10451,-0.11907c0.15004,-0.27396 0.30008,-0.54792 0.45012,-0.82188z" fill="#000000" fill-rule="nonzero" stroke-width="0.5" stroke-linecap="butt" stroke-linejoin="miter"/><path d="M319.27506,185.21675c-0.19176,0.10045 -0.38808,0.10045 -0.38808,0.10045c-1.36818,-0.02146 -3.67191,0.57572 -4.65533,1.64841c-0.41026,0.4475 -1.3393,1.74122 -0.36388,2.19346c2.83539,1.31457 6.58663,1.40782 9.61885,1.01658c5.29979,-2.34535 -1.13304,-5.01712 -3.99696,-4.95888zM318.47243,183.83173c0.19971,-0.11498 0.41455,-0.11498 0.41455,-0.11498h0.60268c3.0224,0.04389 11.28375,2.94217 6.28422,6.86818c-0.56344,0.44246 -1.22634,0.74985 -1.88342,1.03532c-3.19305,0.43693 -7.93776,0.54707 -10.83244,-1.19853c-1.55433,-0.93732 -1.15715,-2.34116 -0.43401,-3.53678c1.17319,-1.93972 3.59633,-2.92226 5.84842,-3.05321z" fill="#000000" fill-rule="nonzero" stroke-width="0.5" stroke-linecap="butt" stroke-linejoin="miter"/><path d="M343.24179,192.50243c0,0.75 -0.75,0.75 -0.75,0.75l-0.29392,-0.00579c-1.18969,-0.1499 -2.01299,-0.52857 -2.73159,-1.13504c-5.07562,4.11144 -10.42369,6.31966 -17.09954,7.16611c-6.22617,0.00595 -12.11875,-0.19087 -18.06147,-2.0398c-2.00547,-0.62395 -3.58731,-2.36346 -5.16896,-3.72838c-0.74436,-0.03822 -1.508,-0.28076 -2.40288,-0.6036c0,0 -0.70485,-0.25631 -0.44854,-0.96115c0.25631,-0.70485 0.96115,-0.44854 0.96115,-0.44854c0.48154,0.17666 0.92184,0.34843 1.34443,0.45156c0.4532,-0.45019 0.97715,-0.03103 0.97715,-0.03103c0.04056,0.03247 0.08117,0.0655 0.12185,0.09904c0.32813,-0.05505 0.65828,-0.19039 1.00253,-0.43876l-0.00712,-0.09333c0,0 0.41603,-0.62404 1.04006,-0.20801c0.62404,0.41603 0.20801,1.04006 0.20801,1.04006l-0.4089,0.50935c-0.19897,0.12566 -0.39228,0.23196 -0.58152,0.32063c1.15488,1.08514 2.38952,2.24757 3.79858,2.65687c5.83375,1.69457 11.43353,1.97182 17.53141,1.97804c6.30845,-0.79422 11.39428,-2.86465 16.15705,-6.75516c-0.1495,-0.18374 -0.3003,-0.37849 -0.45518,-0.58423c0,0 -0.45,-0.6 0.15,-1.05c0.6,-0.45 1.05,0.15 1.05,0.15c0.97229,1.30176 1.58877,2.01612 3.20953,2.21694l0.10787,-0.00579c0,0 0.75,0 0.75,0.75z" fill="#000000" fill-rule="nonzero" stroke-width="0.5" stroke-linecap="butt" stroke-linejoin="miter"/><text transform="translate(355.03358,158.85918) scale(1.2612,0.84393)" font-size="40" xml:space="preserve" fill="#ffffff" fill-rule="nonzero" stroke-width="1" stroke-linecap="butt" stroke-linejoin="miter" font-family="&quot;LowerResolution&quot;, Scratch" font-weight="normal" text-anchor="start"><tspan x="0" dy="0">1</tspan></text></g></g></svg>