<svg version="1.1" xmlns="http://www.w3.org/2000/svg" xmlns:xlink="http://www.w3.org/1999/xlink" width="95.58825" height="26.47059" viewBox="0,0,95.58825,26.47059"><defs><linearGradient x1="49.9548" y1="335.87977" x2="49.9548" y2="344.01698" gradientUnits="userSpaceOnUse" id="color-1"><stop offset="0" stop-color="#8bff8b"/><stop offset="1" stop-color="#8bff8b" stop-opacity="0"/></linearGradient><linearGradient x1="46.97861" y1="353.17647" x2="46.97861" y2="359.64706" gradientUnits="userSpaceOnUse" id="color-2"><stop offset="0" stop-color="#215a21" stop-opacity="0"/><stop offset="1" stop-color="#215a21"/></linearGradient></defs><g transform="translate(0.81551,-333.17646)"><g stroke="none" stroke-miterlimit="10"><g stroke-width="0"><path d="M-0.8155,359.64706v-26.47059c0,0 72.70495,0 86.71546,0c8.61956,0 8.87278,5.74955 8.87278,8.79365c0,4.88025 0,17.67694 0,17.67694z" fill="#308030"/><path d="M8.9464,335.87977c0,0 62.38244,0 74.40377,0c7.39577,0 7.61304,4.57521 7.61304,6.99755c0,0.33623 0,0.71969 0,1.13966c-27.31875,-0.08094 -82.01681,-0.00744 -82.01681,-0.00744z" fill="url(#color-1)"/><path d="M-0.81551,359.64706v-6.47059c28.1662,0 56.3324,0 84.4986,0c3.68433,0 7.38196,0 11.08964,0c0,3.56778 0,6.47059 0,6.47059z" fill="url(#color-2)"/></g><text transform="translate(5.67684,352.18051) scale(0.5,0.5)" font-size="40" xml:space="preserve" fill="#ffffff" stroke-width="1" font-family="&quot;LowerResolution&quot;, Scratch" font-weight="normal" text-anchor="start"><tspan x="0" dy="0">Back</tspan></text></g></g></svg>