<svg version="1.1" xmlns="http://www.w3.org/2000/svg" xmlns:xlink="http://www.w3.org/1999/xlink" width="269.48025" height="377.91942" viewBox="0,0,269.48025,377.91942"><defs><radialGradient cx="365.7062" cy="118.6705" r="35.58411" gradientUnits="userSpaceOnUse" id="color-1"><stop offset="0" stop-color="#56a14b"/><stop offset="1" stop-color="#114f33"/></radialGradient><radialGradient cx="260.81631" cy="118.6705" r="35.58411" gradientUnits="userSpaceOnUse" id="color-2"><stop offset="0" stop-color="#56a14b"/><stop offset="1" stop-color="#114f33"/></radialGradient><radialGradient cx="371.86123" cy="36.38705" r="71.77122" gradientUnits="userSpaceOnUse" id="color-3"><stop offset="0" stop-color="#56a14b"/><stop offset="1" stop-color="#114f33"/></radialGradient><radialGradient cx="245.9234" cy="36.38705" r="71.77122" gradientUnits="userSpaceOnUse" id="color-4"><stop offset="0" stop-color="#56a14b"/><stop offset="1" stop-color="#114f33"/></radialGradient><linearGradient x1="296.39779" y1="207.57231" x2="318.98976" y2="207.57231" gradientUnits="userSpaceOnUse" id="color-5"><stop offset="0" stop-color="#814d34" stop-opacity="0"/><stop offset="1" stop-color="#814d34"/></linearGradient><linearGradient x1="340.7111" y1="207.57231" x2="318.11906" y2="207.57231" gradientUnits="userSpaceOnUse" id="color-6"><stop offset="0" stop-color="#814d34" stop-opacity="0"/><stop offset="1" stop-color="#814d34"/></linearGradient><linearGradient x1="280.73823" y1="207.57231" x2="287.30512" y2="207.57231" gradientUnits="userSpaceOnUse" id="color-7"><stop offset="0" stop-color="#362016"/><stop offset="1" stop-color="#362016" stop-opacity="0"/></linearGradient><linearGradient x1="354.99482" y1="207.57231" x2="348.42793" y2="207.57231" gradientUnits="userSpaceOnUse" id="color-8"><stop offset="0" stop-color="#362016"/><stop offset="1" stop-color="#362016" stop-opacity="0"/></linearGradient><radialGradient cx="300.13678" cy="-13.2731" r="101.78194" gradientUnits="userSpaceOnUse" id="color-9"><stop offset="0" stop-color="#56a14b"/><stop offset="1" stop-color="#114f33"/></radialGradient></defs><g transform="translate(-185.47889,68.56517)"><g stroke="none" stroke-miterlimit="10"><g stroke-width="0"><path d="M335.73786,134.92388l3.42606,-15.25389l7.10178,-10.01293l11.80089,-7.76644l13.25538,-2.55085l15.00608,3.30947l10.77675,7.74955l7.5359,12.00399l2.26539,12.5211l-2.23113,12.4296l-6.33464,10.72822l-11.26937,8.76025l-15.74896,3.66604l-14.04608,-2.8796l-10.38675,-6.83421l-9.00568,-13.67259z" fill="url(#color-1)"/><path d="M230.84801,134.92388l3.42606,-15.25389l7.10178,-10.01293l11.80089,-7.76644l13.25537,-2.55085l15.00608,3.30947l10.77675,7.74955l7.5359,12.00399l2.26538,12.5211l-2.23113,12.4296l-6.33464,10.72822l-11.26937,8.76025l-15.74896,3.66604l-14.04608,-2.8796l-10.38675,-6.83421l-9.00568,-13.67259z" fill="url(#color-2)"/></g><path d="M311.4167,69.16925l6.91018,-30.76628l14.32391,-20.19554l23.80175,-15.66448l26.73537,-5.14492l30.26645,6.67502l21.73612,15.63043l15.1995,24.2114l4.56916,25.25438l-4.50007,25.06983l-12.77663,21.63823l-22.72971,17.66896l-31.7648,7.39421l-28.33019,-5.808l-20.94952,-13.78424l-18.16397,-27.57688z" fill="url(#color-3)" stroke-width="0"/><path d="M185.4789,69.16925l6.91017,-30.76628l14.32391,-20.19554l23.80175,-15.66449l26.73538,-5.14492l30.26644,6.67502l21.73612,15.63043l15.1995,24.2114l4.56916,25.25438l-4.50006,25.06982l-12.77664,21.63823l-22.7297,17.66896l-31.7648,7.39421l-28.33018,-5.808l-20.94952,-13.78423l-18.16397,-27.57688z" fill="url(#color-4)" stroke-width="0"/><g stroke-width="0"><path d="M280.73823,309.35425v-203.56389h73.24627v203.56389z" fill="#563322"/><g><path d="M296.39779,309.35425v-203.56389h22.59199v203.56389z" fill="url(#color-5)"/><path d="M318.11906,309.35425v-203.56389h22.59199v203.56389z" fill="url(#color-6)"/></g><path d="M280.73823,309.35425v-203.56389h6.56691v203.56389z" fill="url(#color-7)"/><path d="M348.42793,309.35425v-203.56389h6.56691v203.56389z" fill="url(#color-8)"/></g><path d="M214.41779,33.21678l9.79963,-43.63102l20.31337,-28.6402l33.75431,-22.21449l37.91461,-7.29624l42.92219,9.46614l30.82495,22.1662l21.55508,34.33525l6.47973,35.81435l-6.38174,35.55263l-18.11911,30.68613l-32.234,25.05713l-45.04707,10.48606l-40.17629,-8.23658l-29.70944,-19.54803l-25.75912,-39.10799z" fill="url(#color-9)" stroke-width="0"/><path d="M318.2523,172.62126c-0.58565,0.46852 -1.05417,-0.11713 -1.05417,-0.11713l-0.73832,-0.96166c-0.21802,-1.16041 -0.35596,-2.62894 -0.7611,-3.73021c-0.10984,-0.29858 -0.32494,0.54715 -0.49458,0.81629c-0.23494,0.37273 -0.55822,0.68191 -0.844,1.01725c-1.25487,1.47248 -2.88938,2.42194 -3.73497,4.16328c0,0 -0.33541,0.67082 -1.00623,0.33541c-0.67082,-0.33541 -0.33541,-1.00623 -0.33541,-1.00623c0.9663,-1.88798 2.57399,-2.87187 3.93468,-4.46508c0.61202,-0.71661 0.8147,-1.91266 1.68737,-2.26841c0.5518,-0.22494 1.27802,-0.07259 1.76759,0.26712c0.75873,0.52647 1.03594,3.38759 1.15632,4.25902l0.53996,0.63618c0,0 0.46852,0.58565 -0.11713,1.05417z" fill="#000000" stroke-width="0.5"/><path d="M333.34477,171.5671l0.53995,-0.63619c0.12038,-0.87143 0.39759,-3.73255 1.15632,-4.25902c0.48958,-0.33971 1.2158,-0.49206 1.76759,-0.26712c0.87266,0.35575 1.07534,1.5518 1.68736,2.26841c1.3607,1.59322 2.96839,2.5771 3.93469,4.46508c0,0 0.33541,0.67082 -0.33541,1.00623c-0.67082,0.33541 -1.00623,-0.33541 -1.00623,-0.33541c-0.8456,-1.74134 -2.4801,-2.6908 -3.73497,-4.16328c-0.28578,-0.33534 -0.60907,-0.64451 -0.84401,-1.01725c-0.16964,-0.26914 -0.38473,-1.11487 -0.49457,-0.81629c-0.40514,1.10127 -0.54307,2.5698 -0.76109,3.73021l-0.73832,0.96166c0,0 -0.46852,0.58565 -1.05417,0.11713c-0.58565,-0.46852 -0.11713,-1.05417 -0.11713,-1.05417z" fill="#000000" stroke-width="0.5"/><path d="M318.8387,180.56113c4.12498,0.06101 8.23902,0.45004 12.37001,0.46577c0.91671,0.00349 4.77026,-0.49475 5.48063,0.22524c1.38023,1.39892 -2.92754,5.18555 -3.76982,6.19489c-1.65522,2.46473 -3.10017,4.78079 -4.21121,7.55158c-0.1668,0.41598 -0.55979,2.00389 -0.99602,2.15181c-1.4273,0.48398 -3.32197,-1.13645 -4.22045,-2.04814c-3.1293,-3.17534 -5.97444,-6.69754 -8.43395,-10.38681c-0.32992,-0.65822 -1.94788,-3.54694 -1.60436,-4.0969c0.84705,-1.35612 4.18831,-0.05884 5.36286,-0.0618zM317.37921,181.94377c-0.60083,-0.08889 -1.19798,-0.22112 -1.7903,-0.34616c-0.28106,-0.05933 -0.70476,-0.50998 -0.82498,-0.24909c-0.12466,0.27054 0.49913,0.34985 0.66432,0.59773c0.41021,0.61558 0.59693,1.35431 0.92701,2.01632c2.19747,3.29621 4.94501,5.82387 7.34002,8.95644c0.49243,0.64407 2.3652,3.00859 3.33413,2.89586c0.92721,-0.10787 0.48435,-1.81162 0.86902,-2.66214c1.08641,-2.40213 2.34884,-4.41961 3.82099,-6.60558c0.96715,-1.1621 1.89187,-2.41118 2.92706,-3.51281c0.27819,-0.29605 1.33673,-0.91989 0.98219,-0.72155c-1.13858,0.63697 -3.18159,0.219 -4.42579,0.21409c-3.74535,-0.01479 -7.47703,-0.33583 -11.21525,-0.44085c-0.2623,0.1785 -0.59331,0.1123 -0.59331,0.1123l-0.67718,-0.13891c-0.31106,-0.00411 -0.62217,-0.00631 -0.93337,-0.00631c0,0 -0.20775,0 -0.40457,-0.10934z" fill="#000000" stroke-width="0.5"/></g></g></svg>