<svg version="1.1" xmlns="http://www.w3.org/2000/svg" xmlns:xlink="http://www.w3.org/1999/xlink" width="47.04546" height="47.04546" viewBox="0,0,47.04546,47.04546"><defs><radialGradient cx="320.09617" cy="180.00001" r="23.52273" gradientUnits="userSpaceOnUse" id="color-1"><stop offset="0" stop-color="#000000" stop-opacity="0.68235"/><stop offset="1" stop-color="#000000" stop-opacity="0"/></radialGradient><linearGradient x1="320.00002" y1="162.6087" x2="320.00002" y2="197.39132" gradientUnits="userSpaceOnUse" id="color-2"><stop offset="0" stop-color="#dedede" stop-opacity="0.20784"/><stop offset="1" stop-color="#dedede" stop-opacity="0"/></linearGradient><linearGradient x1="320.09617" y1="162.6087" x2="320.09617" y2="197.39132" gradientUnits="userSpaceOnUse" id="color-3"><stop offset="0" stop-color="#292929" stop-opacity="0"/><stop offset="1" stop-color="#292929" stop-opacity="0.25098"/></linearGradient></defs><g transform="translate(-296.57343,-156.47727)"><g stroke="none" stroke-miterlimit="10"><path d="M296.57344,180.00001c0,-12.99124 10.53148,-23.52273 23.52273,-23.52273c12.99124,0 23.52273,10.53148 23.52273,23.52273c0,12.99124 -10.53148,23.52273 -23.52273,23.52273c-12.99124,0 -23.52273,-10.53148 -23.52273,-23.52273z" fill="url(#color-1)" stroke-width="0"/><path d="M302.60872,197.39131v-34.78261h34.78261v34.78261z" fill="#ff8800" stroke-width="0"/><g stroke-width="0"><path d="M302.60872,197.39132v-34.78261h34.78261l-2.48896,2.57975l-29.14148,0.24634l-0.30739,29.42558z" fill="url(#color-2)"/><path d="M337.48748,162.6087v34.78261h-34.78261l2.88669,-2.57975l28.74375,-0.24634l0.59148,-29.36876z" fill="url(#color-3)"/></g><path d="M312.3989,178.53682c0,-0.41422 0.33578,-0.75 0.75,-0.75c0.41422,0 0.75,0.33578 0.75,0.75c0,0.41422 -0.33578,0.75 -0.75,0.75c-0.41422,0 -0.75,-0.33578 -0.75,-0.75z" fill="#000000" stroke-width="0.5"/><path d="M325.3989,177.16182c0,-0.41422 0.33578,-0.75 0.75,-0.75c0.41422,0 0.75,0.33578 0.75,0.75c0,0.41422 -0.33578,0.75 -0.75,0.75c-0.41422,0 -0.75,-0.33578 -0.75,-0.75z" fill="#000000" stroke-width="0.5"/><path d="M331.73431,184.08264c-0.67082,0.33541 -1.00623,-0.33541 -1.00623,-0.33541l-0.11223,-0.22559c-0.00528,-0.01026 -0.01063,-0.02047 -0.01605,-0.03064c-3.20608,4.34204 -11.62658,3.71102 -16.28853,3.16569c0,0 -0.74486,-0.08763 -0.65723,-0.83249c0.08763,-0.74487 0.83249,-0.65723 0.83249,-0.65723c3.94921,0.46741 12.60192,1.29529 15.08492,-2.80878c-0.15114,-0.1147 -0.3073,-0.2218 -0.46359,-0.32232c0,0 -0.62403,-0.41602 -0.20801,-1.04006c0.41602,-0.62404 1.04006,-0.20801 1.04006,-0.20801c0.30456,0.20878 0.60403,0.43683 0.88378,0.68621c0.01177,0.00536 0.02363,0.01102 0.03561,0.01701c0.20914,0.10457 0.32047,0.24173 0.37466,0.38101c0.2681,0.28464 0.50637,0.59385 0.69798,0.93l0.13777,0.27441c0,0 0.3354,0.67082 -0.33542,1.00623z" fill="#000000" stroke-width="0.5"/><path d="M306.1489,170.28682c0.75,0 0.75,0.75 0.75,0.75l-0.00017,0.73371c0.08337,1.91123 0.16637,3.82247 0.24947,5.73371c0,0 0.03192,0.73412 -0.69407,0.78065l-0.43022,0.50192c-0.53249,-0.00084 -1.20501,-0.45758 -1.59467,-0.09467c-0.35404,0.32973 0.11914,0.96047 0.16067,1.44249c0.07294,0.84658 0.02283,4.216 0.50059,4.78578c0.36014,0.4295 2.74271,0.1164 3.1834,0.1164c0,0 0.75,0 0.75,0.75c0,0.75 -0.75,0.75 -0.75,0.75c-1.28019,0 -3.32077,0.46815 -4.31659,-0.6336c-0.65905,-0.72915 -0.35402,-1.85457 -0.43019,-2.67199c-0.11786,-1.26468 -1.26758,-4.47707 -0.15855,-5.59974c0.35375,-0.3581 1.50525,-0.36333 2.22027,-0.3515c0.01493,-0.01002 0.03056,-0.01956 0.04694,-0.02857c-0.07897,-1.8161 -0.158,-3.6322 -0.23671,-5.44832l-0.00018,-0.76629c0,0 0,-0.75 0.75,-0.75z" fill="#000000" stroke-width="0.5"/><path d="M330.2739,167.91182c0.75,0 0.75,0.75 0.75,0.75l-0.01865,0.08378c0.39157,1.7229 0.78314,3.44581 1.17471,5.16872c0.04656,0.00097 0.07501,0.00504 0.07501,0.00504c0.82082,0.11753 2.46878,0.10161 3.13746,0.58925c2.16926,1.58196 0.64713,5.10591 0.10628,7.22847l-1.2644,0.72057c0,0 -0.67082,0.33541 -1.00623,-0.33541c-0.33541,-0.67082 0.33541,-1.00623 0.33541,-1.00623l0.7356,-0.27944c0.11949,-3.66012 2.00615,-4.82482 -2.25626,-5.43228c0,0 -0.27865,-0.03981 -0.47015,-0.24137c-0.63198,0.06698 -0.78012,-0.58488 -0.78012,-0.58488c-0.41667,-1.83334 -0.83333,-3.66666 -1.25,-5.5l-0.01866,-0.41622c0,0 0,-0.75 0.75,-0.75z" fill="#000000" stroke-width="0.5"/><path d="M304.81904,167.78887c-0.09874,-0.11064 -0.17014,-0.27065 -0.17014,-0.50205c0,-0.75 0.75,-0.75 0.75,-0.75l0.73014,0.17383c1.37342,1.39416 1.04958,2.23095 0.06338,2.85822l0.1286,0.21433l-1.27567,0.7654c-0.11502,0.07176 -0.25089,0.11322 -0.39645,0.11322c-0.41422,0 -0.75,-0.33578 -0.75,-0.75c0,-0.11985 0.02811,-0.23313 0.0781,-0.33361c0.16249,-0.34527 0.67955,-1.44406 0.84204,-1.78934z" fill="#000000" stroke-width="0.5"/><path d="M330.80171,165.02917c0.63265,0.40281 0.22984,1.03546 0.22984,1.03546l-1.18381,1.35835c-0.56919,-0.40336 -1.13837,-0.80671 -1.70755,-1.21006c0,0 -0.5511,-0.5087 -0.04239,-1.05981c0.50871,-0.55111 1.05981,-0.04239 1.05981,-0.04239c0.16562,0.27492 0.33125,0.54985 0.49687,0.82477l0.11178,-0.67648c0,0 0.40281,-0.63265 1.03546,-0.22984z" fill="#000000" stroke-width="0.5"/><path d="M329.17923,172.56714c-0.53033,0.53033 -1.06066,0 -1.06066,0l-0.2607,-0.28129c-5.71091,-3.81062 -14.14049,-1.53234 -19.54854,2.00369c0,0 -0.62773,0.41044 -1.03816,-0.21729c-0.41044,-0.62773 0.21729,-1.03816 0.21729,-1.03816c5.91889,-3.87005 14.97014,-6.14703 21.20146,-1.99631l0.4893,0.46871c0,0 0.53033,0.53033 0,1.06066z" fill="#000000" stroke-width="0.5"/></g></g></svg>